<svg xmlns="http://www.w3.org/2000/svg" width="65" height="65" viewBox="0 0 65 65">
  <g id="Grupo_970477" data-name="Grupo 970477" transform="translate(-810 -4484)">
    <rect id="Rectángulo_307381" data-name="Rectángulo 307381" width="65" height="65" transform="translate(810 4484)" fill="none"/>
    <g id="Grupo_970478" data-name="Grupo 970478" transform="translate(277.353 4126.827)">
      <path id="Trazado_637736" data-name="Trazado 637736" d="M572.7,394.737a.846.846,0,0,1,1.176-.345,5.3,5.3,0,0,1,3.525,4.008c.073.326.173.646.23.974.066.378.216.418.557.259.683-.319,1.384-.6,2.09-.867.336-.125.479-.305.421-.661a2.21,2.21,0,0,1,0-.475c.014-.247-.01-.389-.331-.462a3.563,3.563,0,0,1-2.839-3.582c-.011-1.2-.007-2.395,0-3.592,0-.268,0-.427-.364-.459a1.368,1.368,0,0,1-1.314-1.444c-.02-.51-.016-1.021,0-1.532a1.351,1.351,0,0,1,.877-1.32.507.507,0,0,0,.328-.422,5.323,5.323,0,0,1,4.219-4.218c.237-.057.3-.167.352-.376A1.349,1.349,0,0,1,583,379.144c.458-.013.916-.008,1.374,0a1.355,1.355,0,0,1,1.426,1.084.453.453,0,0,0,.4.382,5.347,5.347,0,0,1,4.15,4.1.7.7,0,0,0,.436.567,1.276,1.276,0,0,1,.78,1.217c.015.528.012,1.056,0,1.584a1.368,1.368,0,0,1-1.3,1.456c-.327.032-.4.125-.392.434.019,1.2.013,2.395.006,3.592a3.546,3.546,0,0,1-2.857,3.614c-.237.057-.309.131-.319.37-.044,1-.053,1,.891,1.395,1.312.546,2.622,1.1,3.939,1.632a.964.964,0,0,1,.67,1.007c-.01,4.1-.005,8.205-.007,12.308,0,.6-.213.909-.664.981-.476.076-.771-.166-.938-.77.005-.835.013-1.669.016-2.5,0-.707,0-.707-.74-.658-1.687-.007-3.374-.01-5.06-.025-.262,0-.326.1-.322.341.016.948.016,1.9.021,2.846a.782.782,0,0,1-.805.781c-.5,0-.724-.333-.819-.781.006-.946,0-1.892.025-2.838.007-.284-.094-.359-.362-.35-.543.017-1.087.019-1.63,0-.317-.011-.387.074-.3.39.253.928.471,1.865.7,2.8-.081.436-.3.753-.776.779-.545.03-.747-.35-.884-.791-.025-.138-.041-.279-.075-.414q-1.76-7.013-3.526-14.026A8.342,8.342,0,0,0,575.6,398a4.848,4.848,0,0,0-.708,1.622,6.132,6.132,0,0,0-.267,2.133q0,4.932,0,9.864c0,.826.016,1.651.024,2.477-.112.431-.311.783-.822.783s-.728-.324-.818-.775c.01-1.264.024-2.528.03-3.792.005-1.123,0-1.123-1.131-1.035-1.864-.007-3.729-.01-5.594-.026-.27,0-.374.081-.371.359.018,1.494.022,2.989.031,4.484-.114.432-.31.786-.827.786s-.714-.351-.826-.785c.009-1.493.014-2.985.032-4.478,0-.27-.084-.369-.363-.367q-3.189.013-6.378,0c-.237,0-.356.057-.353.32.017,1.51.023,3.02.033,4.53-.1.444-.313.778-.821.778s-.711-.351-.823-.783c.009-2.041.025-4.082.024-6.123,0-2.376.006-4.752-.039-7.128a5.471,5.471,0,0,0-.917-2.821,1.313,1.313,0,0,0-.244.622q-.976,3.884-1.946,7.769-.956,3.834-1.9,7.67c-.138.439-.338.821-.884.791-.479-.027-.7-.341-.775-.779l.622-2.479c.185-.736.185-.736-.611-.684-.418-.007-.837,0-1.254-.026-.288-.019-.35.1-.345.363.018.941.017,1.883.023,2.825-.1.469-.34.807-.871.778a.779.779,0,0,1-.754-.777c.006-.949,0-1.9.024-2.847.007-.3-.127-.341-.378-.34q-2.691.01-5.381,0c-.255,0-.379.042-.371.34.023.949.017,1.9.022,2.847-.169.6-.463.845-.938.77-.452-.071-.664-.376-.664-.98,0-4.1,0-8.2-.007-12.305a.988.988,0,0,1,.715-1.028c1.448-.583,2.872-1.228,4.333-1.777.714-.268.36-.8.444-1.226s-.293-.35-.511-.411a3.573,3.573,0,0,1-2.651-3.411q-.024-1.874,0-3.75c0-.3-.055-.4-.384-.439a1.439,1.439,0,0,1-1.305-1.522c0-.51-.011-1.021,0-1.531a1.3,1.3,0,0,1,.786-1.215.628.628,0,0,0,.417-.519c.141-.7.4-.868,1.109-.8a.814.814,0,0,1,.476.907c-.05.229.032.268.233.267.79-.007,1.581-.011,2.371,0,.256,0,.334-.083.329-.332-.013-.65,0-1.3,0-1.949,0-.777,0-.777-.718-.473a1.527,1.527,0,0,0-.192.086.951.951,0,0,1-1.209-.112c-.25-.7-.137-1,.516-1.315a3.636,3.636,0,0,1,.585-.237c.556-.159,1.084-.254,1.251-1,.108-.481.656-.648,1.164-.656s.987-.014,1.48,0a1.287,1.287,0,0,1,1.348,1.093.4.4,0,0,0,.359.364,5.328,5.328,0,0,1,4.2,4.178.547.547,0,0,0,.349.466,1.348,1.348,0,0,1,.866,1.327c.017.475.011.951,0,1.427a1.426,1.426,0,0,1-1.3,1.534c-.389.049-.386.219-.384.5q.011,1.718,0,3.435a3.583,3.583,0,0,1-2.881,3.712c-.213.053-.281.117-.295.334-.069,1.033-.076,1.033.854,1.42.6.249,1.2.489,1.8.753.243.108.33.048.384-.2.1-.48.23-.956.36-1.431a5.077,5.077,0,0,1,3.033-3.494q2.4-1.022,4.817-1.994a.529.529,0,0,0,.4-.614,10.784,10.784,0,0,1,0-1.478c.031-.384-.1-.494-.471-.554a4.683,4.683,0,0,1-3.921-3.7,6,6,0,0,1-.1-1.42c0-.232-.025-.377-.3-.455a4.04,4.04,0,0,1-1.813-6.717c.112-.111.176-.2.054-.351a2,2,0,0,1-.323-1.354c.009-.44-.006-.881,0-1.321a1.613,1.613,0,0,1,1.255-1.618c.212-.058.31-.126.358-.361a7.268,7.268,0,0,1,6.211-6.177c.234-.045.263-.148.283-.347a1.551,1.551,0,0,1,1.785-1.623c.617-.007,1.233-.013,1.85,0a1.521,1.521,0,0,1,1.7,1.6c.019.277.118.335.369.378a7.343,7.343,0,0,1,6.093,5.993c.056.292.113.484.474.564a1.361,1.361,0,0,1,1.085,1.106,5.254,5.254,0,0,1-.032,2.659,1.215,1.215,0,0,0,.235,1.333,4.007,4.007,0,0,1-2.025,6.181.565.565,0,0,0-.473.651,4.7,4.7,0,0,1-4.15,5.012c-.271.054-.358.149-.324.4a2.033,2.033,0,0,1,0,.264,4.474,4.474,0,0,0,.052,1.671c.205.464.922.471,1.4.7a.95.95,0,0,1,.532,1.091l-.521.454a3.1,3.1,0,0,1-1.587-.487c-.286-.119-.417-.08-.582.179-.727,1.14-1.477,2.266-2.219,3.4a.939.939,0,0,0-.2.531q.008,2.109,0,4.219c0,.242.068.344.327.342,1.88-.016,3.761-.02,5.641-.028.1.008.209.025.313.024.962-.012.817.116.8-.8a8.659,8.659,0,0,1,1.081-4.541c.533-.933.527-.937-.52-1.367-.1-.039-.2-.062-.3-.093l-.491-.319A.976.976,0,0,1,572.7,394.737Zm14.737-11.813a.227.227,0,0,0-.186-.138,3.031,3.031,0,0,0-1.058-.551c-.232-.086-.354-.077-.349.226q.021,1.182,0,2.363c-.005.275.124.312.351.307.7-.015,1.4-.016,2.1-.022.489.12.577-.069.4-.5a3.575,3.575,0,0,0-1.246-1.684ZM546.753,399.93a3.675,3.675,0,0,0-1.084.02l.563,1.041a1.605,1.605,0,0,0,.379.7l.871-1.753A1.6,1.6,0,0,0,546.753,399.93Zm.419-1.648c.28,0,.637.2.813-.106.28-.488-.031-.92-.6-.91a1.869,1.869,0,0,0-.207.026c-.578-.008-1.157,0-1.734-.028-.413-.018-.292.284-.27.466.026.207-.218.584.266.582C546.018,398.31,546.6,398.293,547.173,398.283Zm37.208,0c.764.08.74.079.761-.6.022-.709-.468-.334-.756-.391-.6-.008-1.191,0-1.785-.03-.433-.02-.32.285-.306.5s-.177.572.3.557C583.191,398.3,583.786,398.294,584.38,398.282Zm-28.545-16.1a1.306,1.306,0,0,0,.479.395c.3.2.453.2.445-.242-.021-1.1,0-2.21-.013-3.315,0-.284.15-.735-.1-.816-.276-.091-.591.218-.807.483A2.367,2.367,0,0,0,555.835,382.186Zm-4.74,2.923c.631.035.656.01.422-.571a3.3,3.3,0,0,0-1.257-1.646,3.228,3.228,0,0,0-1.183-.653c-.27-.1-.383-.061-.377.253.013.754.016,1.509,0,2.263-.008.31.111.386.4.376C549.762,385.11,550.429,385.115,551.1,385.109Zm15.214,4.907c-1.052-.006-2.1-.007-3.155-.021-.226,0-.356.022-.344.3.022.507.015,1.017,0,1.525-.006.22.05.309.29.3,1.069-.018,2.138-.018,3.207-.024,1.17.071,1.17.071,1.17-1.07C567.48,389.95,567.48,389.95,566.309,390.016Zm-1.062-23.923c-.174-.013-.349-.014-.521-.041-.507-.078-.693.077-.679.64.044,1.7.016,3.406.016,5.109,0,1.154,0,1.154,1.189,1.073.1.008.21.023.315.022.79-.01.66.084.663-.676.007-1.777,0-3.554,0-5.33,0-.89,0-.891-.884-.827A.465.465,0,0,0,565.248,366.093Zm24.629,43.217c.749.054.749.054.749-.654v-.578c0-.719,0-.719-.743-.648-.6-.01-1.145-.1-1.269-.831.117-.743.683-.791,1.263-.816.744.086.744.086.745-.65,0-.838-.046-1.68.015-2.514.044-.611-.178-.905-.756-.983-1.1-.466-2.2-.923-3.293-1.406-.257-.114-.331-.015-.43.187-.371.758-.727,1.525-1.145,2.257a3.869,3.869,0,0,0-.523,2.209c.051.929.012.931.956.936.765,0,.924.117,1.1.781a.846.846,0,0,1-.824.8c-.4.049-.958-.206-1.172.143-.188.307-.043.819-.045,1.24a1.876,1.876,0,0,1,0,.211c-.029.244.058.339.319.337C586.505,409.319,588.191,409.317,589.876,409.31Zm-38.464-8.225c-.626-.274-1.258-.535-1.875-.826-.292-.138-.422-.062-.554.219a16.782,16.782,0,0,1-1.1,2.16,4.922,4.922,0,0,0-.508,2.9c0,.2.064.288.273.284.9-.016,1.794-.024,2.69-.034.5.148.75-.015.861-.558.218-1.065.51-2.115.774-3.17C552.166,401.31,552.168,401.311,551.412,401.085Zm20.493,3.233c-1.866-.007-3.732-.01-5.6-.027-.27,0-.376.073-.373.354q.018,1.347,0,2.694c0,.245.065.339.326.337,1.883-.016,3.767-.018,5.65-.025a5.683,5.683,0,0,1,.578.029c.427.062.589-.084.559-.536-.041-.6-.01-1.2-.01-1.795C573.038,404.224,573.038,404.224,571.906,404.318Zm2.332-27.967c.07.009.1-.021.08-.09.006-.422-.018-.847.026-1.265.046-.441-.137-.519-.536-.517-3.486.013-6.972.006-10.457.006-2.306,0-4.613.007-6.919-.007-.359,0-.51.082-.479.466.035.437.018.879.024,1.319-.016.069.011.1.082.092.157.008.315.024.472.024q8.381,0,16.762,0C573.606,376.377,573.922,376.36,574.237,376.351Zm-23.782,13.231c-.7-.008-1.407-.019-2.11-.022-.933,0-.933,0-.966.943a1.667,1.667,0,0,1-.009.211.782.782,0,0,1-.844.7.736.736,0,0,1-.727-.756,4.26,4.26,0,0,1,0-.686c.033-.315-.06-.43-.4-.422q-1.5.035-3.01,0c-.331-.008-.411.089-.406.411.02,1.179,0,2.359.009,3.538a2.007,2.007,0,0,0,2.16,2.18c1.619.007,3.239,0,4.859,0a1.611,1.611,0,0,0,.914-.19,1.882,1.882,0,0,0,1.253-1.92c.019-1.1,0-2.205,0-3.308C551.182,389.531,551.181,389.531,550.455,389.582Zm36.575,5.919a1.857,1.857,0,0,0,1.271-1.8c.014-1.157,0-2.314,0-3.471,0-.705,0-.705-.749-.653-.633-.008-1.265-.021-1.9-.02-.366,0-.822-.1-1.073.073s-.054.656-.084,1a.775.775,0,0,1-.761.784.784.784,0,0,1-.813-.736,4.013,4.013,0,0,1-.006-.738c.022-.281-.047-.4-.366-.395-1.02.02-2.041.018-3.062,0-.3,0-.39.082-.386.384.016,1.179,0,2.358.007,3.536a2.036,2.036,0,0,0,2.2,2.208c1.6,0,3.2,0,4.8,0A1.67,1.67,0,0,0,587.029,395.5Zm-16.177-17.515q-6.1-.01-12.2-.026c-.381,0-.316.232-.317.452,0,2.236-.014,4.471,0,6.707a3.142,3.142,0,0,0,3.338,3.291q3.486.008,6.972,0a1.942,1.942,0,0,0,.831-.108,3.072,3.072,0,0,0,2.475-3.2c.013-2.037,0-4.075,0-6.112C571.96,377.914,571.96,377.914,570.853,377.987Zm-10.084,24.721c1.057,0,2.114-.011,3.17.007.326.005.42-.1.416-.419-.016-1.356-.01-2.712,0-4.068a1.02,1.02,0,0,0-.185-.59c-.746-1.131-1.5-2.259-2.226-3.4-.158-.247-.283-.322-.578-.2-1.566.673-3.145,1.316-4.715,1.979-.987.416-.992.428-.475,1.317a8.766,8.766,0,0,1,1.091,4.875c-.016.391.089.517.494.505C558.76,402.689,559.765,402.709,560.769,402.709Zm-18.082,3.113c.9,0,1.8,0,2.693,0,.143,0,.392.072.391-.144a5.31,5.31,0,0,0-.1-2.188c-.466-1.041-1.024-2.04-1.523-3.067-.122-.252-.238-.272-.481-.169q-1.84.787-3.7,1.537a.424.424,0,0,0-.3.477c.01,1.056.02,2.112,0,3.167-.008.355.138.4.435.395C540.962,405.811,541.824,405.821,542.687,405.821Zm18.126,1.85c1.055,0,2.111-.01,3.166.007.3,0,.389-.091.383-.387-.017-.879-.014-1.759,0-2.638,0-.272-.079-.363-.359-.362q-3.192.016-6.385,0c-.284,0-.361.1-.357.366.013.879.017,1.759,0,2.638-.007.306.093.388.389.383C558.7,407.661,559.757,407.671,560.812,407.671Zm20.318-1.85c.474,0,.949,0,1.423,0,.128,0,.341.058.342-.137a5.459,5.459,0,0,0-.078-2.137c-.448-1.083-1.039-2.106-1.558-3.16-.1-.2-.181-.25-.4-.156-.8.348-1.617.677-2.43,1.006-.209.085-.285.172-.217.427.339,1.271.656,2.547.961,3.826.061.258.171.345.426.338C580.11,405.811,580.62,405.821,581.13,405.821Zm-34.584-17.846v0c1.938,0,3.876-.024,5.813.015.578.012.5-.3.5-.655.007-.373.036-.639-.522-.634-3.752.029-7.5.014-11.256.014-.784,0-.761,0-.787.769-.013.386.079.509.488.5C542.706,387.962,544.626,387.975,546.546,387.975Zm37.127,0v0c1.938,0,3.876-.027,5.813.016.583.013.5-.3.5-.647s.093-.65-.5-.645c-3.77.033-7.54.013-11.309.018-.855,0-.708-.141-.757.757-.025.448.151.515.542.512C579.868,387.966,581.771,387.975,583.673,387.975Zm-13.164-18.853a5.664,5.664,0,0,0-2.4-1.091c-.256-.057-.292.078-.292.289q.007,2.138,0,4.277c0,.23.084.306.308.3q2.165-.011,4.33,0c.229,0,.306-.051.248-.3a6.393,6.393,0,0,0-.542-1.535c-.43-.828-.43-.828-1.214-.307-.1.068-.2.144-.308.2a.787.787,0,0,1-.892-1.3C569.979,369.475,570.232,369.316,570.509,369.122Zm-10.719,0c.269.188.521.346.752.53a.78.78,0,0,1,.2,1.076.767.767,0,0,1-1.067.23,5.658,5.658,0,0,1-.742-.5c-.248-.2-.379-.122-.527.12a6.441,6.441,0,0,0-.807,1.988c-.059.268,0,.337.264.335q2.135-.013,4.271,0c.23,0,.353-.042.351-.315-.01-1.423-.007-2.846,0-4.27,0-.216-.043-.341-.295-.285A5.548,5.548,0,0,0,559.79,369.124Zm-17.1,40.206c.9,0,1.794-.011,2.69.006.306.006.453-.051.424-.4a7.812,7.812,0,0,1,0-1.159c.021-.311-.1-.381-.39-.379q-2.691.017-5.381,0c-.263,0-.379.051-.361.343a10.072,10.072,0,0,1,0,1.213c-.018.3.081.388.38.382C540.927,409.318,541.807,409.33,542.686,409.33Zm38.905-25.6c0-.451-.019-.82.005-1.187.025-.383-.121-.393-.43-.283a3.894,3.894,0,0,0-2.411,2.329c-.183.453-.069.589.4.545.313-.029.632.01.946-.009.482-.028,1.1.216,1.409-.1C581.79,384.726,581.557,384.116,581.591,383.729Zm-8.047-3.31c0,.651.01,1.3,0,1.954-.007.327.072.425.382.243a2.477,2.477,0,0,0-.011-4.352c-.331-.193-.377-.047-.371.255C573.553,379.151,573.544,379.785,573.544,380.419Zm7.77,26.986h-1c-.645,0-.645,0-.484.65.315,1.274.315,1.282,1.632,1.271.47,0,1.086.2,1.371-.084s.035-.9.1-1.371c.055-.43-.133-.5-.5-.473S581.684,407.405,581.314,407.405Zm-32.555,1.937c.436-.066,1.026.186,1.339-.109.282-.266.274-.84.394-1.278.009-.034.023-.067.034-.1.109-.317.062-.471-.338-.455-.737.03-1.477.032-2.213-.005-.455-.023-.678.073-.6.583.062.429-.179,1,.089,1.268S548.295,409.29,548.759,409.342Zm35.509-26.383c0-.617-.026-1.234.008-1.849.027-.482-.288-.383-.552-.383s-.574-.111-.565.373c.023,1.215.025,2.431,0,3.645-.01.48.29.387.556.379s.588.126.561-.369C584.243,384.158,584.268,383.558,584.268,382.959Zm-38.242-.081c0,.632.021,1.266-.008,1.9-.018.4.225.38.471.347s.637.19.631-.353c-.015-1.229-.012-2.46,0-3.689.005-.54-.39-.314-.636-.351s-.483-.031-.464.357C546.046,381.683,546.026,382.281,546.026,382.879ZM563.5,393.732c.526.8.994,1.526,1.468,2.244.069.105.152.3.3.073.5-.752.995-1.508,1.527-2.317Zm20.215,8.013.908-1.809H582.8Z" fill="#030303"/>
      <path id="Trazado_637737" data-name="Trazado 637737" d="M597.3,538.993q.951-3.835,1.9-7.67.968-3.886,1.946-7.769a1.313,1.313,0,0,1,.244-.622,5.47,5.47,0,0,1,.917,2.821c.045,2.375.038,4.752.039,7.128,0,2.041-.015,4.082-.024,6.123Z" transform="translate(-46.674 -124.905)" fill="#3c92f2"/>
      <path id="Trazado_637738" data-name="Trazado 637738" d="M628.662,580.782c-.01-1.51-.016-3.02-.033-4.53,0-.263.116-.321.353-.32q3.189.009,6.378,0c.278,0,.366.1.363.367-.017,1.492-.022,2.985-.032,4.478Z" transform="translate(-71.37 -166.679)" fill="#eea53f"/>
      <path id="Trazado_637739" data-name="Trazado 637739" d="M710.634,544.949c-.008-.826-.024-1.651-.024-2.477q0-4.932,0-9.864a6.131,6.131,0,0,1,.267-2.133,1.4,1.4,0,0,1,.2.536q1.743,6.961,3.487,13.921Z" transform="translate(-135.986 -130.851)" fill="#3c92f2"/>
      <path id="Trazado_637740" data-name="Trazado 637740" d="M669.664,580.78c-.009-1.495-.013-2.989-.031-4.484,0-.279.1-.362.371-.359,1.865.015,3.729.019,5.594.026q0,2.4.009,4.8Z" transform="translate(-103.69 -166.684)" fill="#f1a740"/>
      <path id="Trazado_637741" data-name="Trazado 637741" d="M545.6,586.958c-.005-.949,0-1.9-.022-2.847-.007-.3.116-.341.371-.34q2.691.012,5.381,0c.251,0,.385.039.378.34-.022.949-.018,1.9-.024,2.847Z" transform="translate(-5.905 -172.859)" fill="#f0a73f"/>
      <path id="Trazado_637742" data-name="Trazado 637742" d="M715.558,538.894q-1.744-6.96-3.487-13.921a1.4,1.4,0,0,0-.2-.536,4.848,4.848,0,0,1,.708-1.622,8.342,8.342,0,0,1,.474,1.647q1.768,7.012,3.526,14.026c.034.136.05.276.075.414Z" transform="translate(-136.985 -124.813)" fill="#3280ee"/>
      <path id="Trazado_637743" data-name="Trazado 637743" d="M757.265,586.959c-.006-.949-.006-1.9-.021-2.846,0-.241.06-.344.322-.341,1.687.016,3.373.018,5.06.025q0,1.572,0,3.144Z" transform="translate(-172.744 -172.859)" fill="#f0a73f"/>
      <path id="Trazado_637744" data-name="Trazado 637744" d="M553.329,448.314a.951.951,0,0,0,1.209.112,1.526,1.526,0,0,1,.192-.086c.718-.3.718-.3.718.473,0,.65-.009,1.3,0,1.949.005.249-.073.337-.329.332-.79-.014-1.581-.009-2.371,0-.2,0-.283-.037-.233-.267a.814.814,0,0,0-.476-.907A3.6,3.6,0,0,1,553.329,448.314Z" transform="translate(-11.005 -65.964)" fill="#f2cc6c"/>
      <path id="Trazado_637745" data-name="Trazado 637745" d="M739.547,586.952c-.232-.934-.451-1.871-.7-2.8-.086-.316-.016-.4.3-.39.543.019,1.087.018,1.63,0,.268-.009.369.065.362.35-.022.946-.018,1.892-.025,2.838Z" transform="translate(-158.215 -172.852)" fill="#f0a73f"/>
      <path id="Trazado_637746" data-name="Trazado 637746" d="M697.8,580.732q0-2.4-.009-4.8c1.132-.088,1.136-.088,1.13,1.035-.006,1.264-.019,2.528-.03,3.792Z" transform="translate(-125.886 -166.652)" fill="#e09335"/>
      <path id="Trazado_637747" data-name="Trazado 637747" d="M581.987,586.951c-.006-.942-.005-1.883-.023-2.825-.005-.262.057-.382.345-.363.417.027.836.019,1.254.026-.234,1.051-.584,2.074-.738,3.144Z" transform="translate(-34.588 -172.851)" fill="#f1a740"/>
      <path id="Trazado_637748" data-name="Trazado 637748" d="M586.032,586.962c.154-1.069.5-2.093.738-3.143.8-.052.8-.052.611.684l-.622,2.479Z" transform="translate(-37.795 -172.881)" fill="#ec9a38"/>
      <path id="Trazado_637749" data-name="Trazado 637749" d="M782.657,586.968q0-1.572,0-3.144c.741-.049.743-.049.74.658,0,.834-.01,1.669-.016,2.5Z" transform="translate(-192.774 -172.886)" fill="#ec9a38"/>
      <path id="Trazado_637750" data-name="Trazado 637750" d="M693.471,504.948a.976.976,0,0,0,.1.851,16.819,16.819,0,0,1-1.67-.69c-.229-.07-.48-.112-.6-.366l.521-.454Z" transform="translate(-120.767 -110.211)" fill="#ec9a38"/>
      <path id="Trazado_637751" data-name="Trazado 637751" d="M644.845,438.533a1.943,1.943,0,0,1-.831.108q-3.486,0-6.972,0a3.142,3.142,0,0,1-3.338-3.291c-.017-2.236,0-4.471,0-6.707,0-.22-.064-.454.317-.452q6.1.025,12.2.026c0,2.148-.044,4.3.02,6.444A4.8,4.8,0,0,1,644.845,438.533Zm-4.334-1.706a2.77,2.77,0,0,0,2.392-1.417.809.809,0,0,0-.227-1.193.784.784,0,0,0-1.114.354,1.162,1.162,0,0,1-2.112-.021.786.786,0,0,0-1.124-.321.8.8,0,0,0-.22,1.157A2.77,2.77,0,0,0,640.511,436.827Zm.79-5.678h.005q0-.553,0-1.105c0-.035,0-.07,0-.105-.041-.544-.337-.85-.812-.84a.758.758,0,0,0-.767.826q-.03,1.236,0,2.473a.786.786,0,1,0,1.571.014C641.32,431.992,641.3,431.57,641.3,431.149Z" transform="translate(-75.364 -50.23)" fill="#f8decf"/>
      <path id="Trazado_637752" data-name="Trazado 637752" d="M626.826,512.562c-1,0-2.009-.02-3.012.01-.4.012-.509-.115-.493-.505a8.767,8.767,0,0,0-1.091-4.875c-.517-.889-.511-.9.475-1.317,1.57-.663,3.149-1.306,4.715-1.979.3-.127.42-.051.578.2.731,1.141,1.48,2.269,2.226,3.4a1.021,1.021,0,0,1,.185.59c-.007,1.356-.012,2.712,0,4.068,0,.321-.091.424-.416.419C628.94,512.55,627.883,512.562,626.826,512.562Z" transform="translate(-66.058 -109.853)" fill="#f0a73f"/>
      <path id="Trazado_637753" data-name="Trazado 637753" d="M674.225,504.382c.119.254.37.3.6.366a16.818,16.818,0,0,0,1.67.69l.491.319c.026.082.026.2.082.239.384.288.285.5,0,.836a6.2,6.2,0,0,0-.989,1.778,10.019,10.019,0,0,0-.473,3.925c-1.88.008-3.761.012-5.641.028-.259,0-.328-.1-.327-.342q.011-2.109,0-4.219a.938.938,0,0,1,.2-.531c.742-1.13,1.493-2.255,2.219-3.4.165-.259.3-.3.582-.179A3.1,3.1,0,0,0,674.225,504.382Z" transform="translate(-103.693 -109.85)" fill="#f1a740"/>
      <path id="Trazado_637754" data-name="Trazado 637754" d="M739.711,488.794a1.67,1.67,0,0,1-.912.181c-1.6,0-3.2,0-4.8,0a2.036,2.036,0,0,1-2.2-2.208c0-1.179.009-2.358-.007-3.536,0-.3.088-.389.386-.384,1.02.017,2.041.019,3.062,0,.318-.006.388.113.366.395a4.018,4.018,0,0,0,.006.738.784.784,0,0,0,.813.736.775.775,0,0,0,.761-.784c.031-.345-.162-.828.084-1s.707-.073,1.073-.073c.633,0,1.266.013,1.9.02,0,.42.024.841,0,1.259C740.136,485.695,740.58,487.319,739.711,488.794Zm-3.331-.958a2.184,2.184,0,0,0,1.954-1.21.767.767,0,0,0-.266-1.059.786.786,0,0,0-1.071.227c-.492.612-.707.612-1.2,0a.789.789,0,0,0-1.331.844A2.208,2.208,0,0,0,736.38,487.835Z" transform="translate(-152.681 -93.292)" fill="#f6dccd"/>
      <path id="Trazado_637755" data-name="Trazado 637755" d="M564.445,488.854a1.611,1.611,0,0,1-.913.19c-1.62,0-3.239.006-4.859,0a2.007,2.007,0,0,1-2.16-2.18c0-1.179.011-2.359-.009-3.538-.005-.323.075-.419.406-.411q1.5.035,3.01,0c.339-.008.433.107.4.422a4.253,4.253,0,0,0,0,.686.736.736,0,0,0,.727.756.782.782,0,0,0,.844-.7,1.644,1.644,0,0,0,.009-.211c.033-.944.033-.947.966-.943.7,0,1.407.014,2.11.022,0,.633.009,1.266,0,1.9C564.955,486.2,565.174,487.59,564.445,488.854Zm-3.375-.948a2.2,2.2,0,0,0,1.969-1.215.788.788,0,0,0-1.345-.819c-.478.6-.7.6-1.2-.018a.779.779,0,0,0-1.073-.208.768.768,0,0,0-.248,1.063A2.206,2.206,0,0,0,561.07,487.906Z" transform="translate(-14.521 -93.362)" fill="#f6dccd"/>
      <path id="Trazado_637756" data-name="Trazado 637756" d="M622.467,413.529c-.005-.44.012-.881-.024-1.319-.031-.384.12-.468.479-.466,2.306.015,4.612.007,6.919.007,3.486,0,6.972.008,10.458-.006.4,0,.582.076.536.517-.044.418-.02.843-.026,1.265l-.08.09c-.316.009-.631.026-.946.026q-8.381,0-16.762,0c-.157,0-.315-.015-.472-.024Z" transform="translate(-66.492 -37.267)" fill="#f1a740"/>
      <path id="Trazado_637757" data-name="Trazado 637757" d="M548.581,538.785c-.862,0-1.725-.01-2.587.005-.3.005-.443-.04-.435-.395.024-1.055.015-2.112,0-3.167a.424.424,0,0,1,.3-.477q1.856-.748,3.7-1.537c.243-.1.358-.083.481.169.5,1.027,1.058,2.026,1.523,3.067a5.309,5.309,0,0,1,.1,2.188c0,.215-.248.143-.391.144C550.376,538.788,549.478,538.785,548.581,538.785Z" transform="translate(-5.894 -132.964)" fill="#eea53f"/>
      <path id="Trazado_637758" data-name="Trazado 637758" d="M762.567,538.714c-.581.025-1.146.074-1.263.816l-2.07,0c-.173-.664-.332-.777-1.1-.781-.944-.005-.905-.007-.956-.936a3.869,3.869,0,0,1,.523-2.209c.418-.731.774-1.5,1.145-2.257.1-.2.173-.3.43-.187,1.092.483,2.194.94,3.293,1.406Q762.569,536.641,762.567,538.714Z" transform="translate(-172.69 -132.931)" fill="#f0a73f"/>
      <path id="Trazado_637759" data-name="Trazado 637759" d="M632.176,555.888c-1.055,0-2.111-.01-3.166.006-.3,0-.4-.078-.389-.383.019-.879.015-1.759,0-2.638,0-.269.074-.367.357-.366q3.192.016,6.385,0c.28,0,.363.09.359.362-.013.879-.016,1.759,0,2.638.006.3-.08.392-.383.387C634.287,555.877,633.231,555.888,632.176,555.888Z" transform="translate(-71.363 -148.216)" fill="#e8f2f9"/>
      <path id="Trazado_637760" data-name="Trazado 637760" d="M675.573,555.87c-1.883.007-3.767.009-5.65.025-.261,0-.329-.092-.326-.337q.017-1.347,0-2.694c0-.281.1-.356.373-.354,1.865.017,3.731.019,5.6.027Q675.57,554.2,675.573,555.87Z" transform="translate(-103.661 -148.219)" fill="#e8f2f9"/>
      <path id="Trazado_637761" data-name="Trazado 637761" d="M730.395,538.755c-.51,0-1.02-.01-1.529,0-.255.007-.365-.079-.426-.338-.3-1.279-.622-2.556-.961-3.826-.068-.255.008-.342.217-.427.813-.328,1.625-.657,2.43-1.006.218-.094.3-.04.4.156.52,1.054,1.111,2.077,1.558,3.16a5.46,5.46,0,0,1,.078,2.137c0,.2-.214.135-.342.137C731.344,538.759,730.869,538.755,730.395,538.755Z" transform="translate(-149.265 -132.934)" fill="#eea53f"/>
      <path id="Trazado_637762" data-name="Trazado 637762" d="M584.933,538.752c-.9.011-1.794.018-2.69.035-.21,0-.275-.087-.273-.284a4.921,4.921,0,0,1,.509-2.9,16.79,16.79,0,0,0,1.1-2.16c.132-.282.262-.357.554-.219.618.291,1.249.553,1.875.826a2.933,2.933,0,0,1-.17.873C585.507,536.193,585.163,537.459,584.933,538.752Z" transform="translate(-34.591 -132.965)" fill="#f0a73f"/>
      <path id="Trazado_637763" data-name="Trazado 637763" d="M554.791,470.722c-1.92,0-3.84-.013-5.76.011-.409,0-.5-.118-.488-.5.026-.769,0-.769.787-.769,3.752,0,7.5.015,11.256-.014.559,0,.529.261.522.634-.006.354.074.667-.5.655-1.937-.038-3.875-.015-5.813-.015Z" transform="translate(-8.245 -82.747)" fill="#eba33e"/>
      <path id="Trazado_637764" data-name="Trazado 637764" d="M730.078,470.716c-1.9,0-3.805-.01-5.708.008-.391,0-.567-.064-.542-.512.049-.9-.1-.756.757-.757,3.77-.005,7.54.015,11.309-.018.592-.005.5.3.5.645s.081.66-.5.647c-1.937-.043-3.875-.016-5.813-.016Z" transform="translate(-146.404 -82.741)" fill="#eba33e"/>
      <path id="Trazado_637765" data-name="Trazado 637765" d="M681.169,382.349c-.277.194-.53.353-.763.539a.787.787,0,0,0,.892,1.3c.108-.059.206-.135.308-.2.785-.52.785-.52,1.214.307a6.384,6.384,0,0,1,.542,1.535c.058.252-.019.3-.248.3q-2.165-.007-4.33,0c-.224,0-.309-.075-.308-.3q.011-2.138,0-4.277c0-.212.036-.346.292-.29A5.665,5.665,0,0,1,681.169,382.349Z" transform="translate(-110.66 -13.227)" fill="#f2cc6c"/>
      <path id="Trazado_637766" data-name="Trazado 637766" d="M632.333,382.354a5.548,5.548,0,0,1,2.394-1.092c.252-.056.3.069.295.285-.006,1.423-.008,2.847,0,4.27,0,.273-.122.316-.351.315q-2.135-.009-4.271,0c-.265,0-.323-.067-.264-.335a6.444,6.444,0,0,1,.807-1.988c.147-.241.279-.32.527-.12a5.654,5.654,0,0,0,.742.5.767.767,0,0,0,1.067-.23.78.78,0,0,0-.2-1.076C632.853,382.7,632.6,382.542,632.333,382.354Z" transform="translate(-72.543 -13.23)" fill="#f2cc6c"/>
      <path id="Trazado_637767" data-name="Trazado 637767" d="M759.108,563.413l2.07,0c.124.733.671.821,1.269.831q0,.94-.007,1.88c-1.685.007-3.371.008-5.056.024-.261,0-.348-.093-.319-.337a1.878,1.878,0,0,0,0-.211c0-.421-.144-.933.045-1.24.214-.349.769-.094,1.172-.143A.846.846,0,0,0,759.108,563.413Z" transform="translate(-172.564 -156.811)" fill="#e8f2f9"/>
      <path id="Trazado_637768" data-name="Trazado 637768" d="M548.583,569.115c-.879,0-1.759-.012-2.638.007-.3.006-.4-.082-.38-.382a10.085,10.085,0,0,0,0-1.213c-.018-.291.1-.344.361-.343q2.691.016,5.381,0c.291,0,.411.067.39.379a7.82,7.82,0,0,0,0,1.159c.029.348-.119.4-.424.4C550.376,569.1,549.479,569.115,548.583,569.115Z" transform="translate(-5.897 -159.785)" fill="#e8f2f9"/>
      <path id="Trazado_637769" data-name="Trazado 637769" d="M686.338,438.53a4.8,4.8,0,0,0,1.391-3.872c-.064-2.146-.018-4.3-.02-6.444,1.107-.073,1.107-.073,1.107,1,0,2.037.01,4.075,0,6.112A3.072,3.072,0,0,1,686.338,438.53Z" transform="translate(-116.857 -50.228)" fill="#f0cabd"/>
      <path id="Trazado_637770" data-name="Trazado 637770" d="M661.885,378.717c-1.189.081-1.189.081-1.189-1.073,0-1.7.028-3.407-.016-5.109-.014-.563.172-.718.679-.64.172.026.347.028.521.041Q661.883,375.327,661.885,378.717Z" transform="translate(-96.632 -5.843)" fill="#f1a740"/>
      <path id="Trazado_637771" data-name="Trazado 637771" d="M658.337,487.117c-1.069.006-2.138.006-3.207.024-.24,0-.3-.085-.29-.3.013-.508.02-1.017,0-1.525-.012-.281.118-.306.344-.3,1.052.014,2.1.015,3.155.021Q658.337,486.073,658.337,487.117Z" transform="translate(-92.028 -95.014)" fill="#f8decf"/>
      <path id="Trazado_637772" data-name="Trazado 637772" d="M697.785,519.7a10.018,10.018,0,0,1,.473-3.925,6.2,6.2,0,0,1,.989-1.778c.284-.336.384-.548,0-.836-.056-.042-.056-.157-.082-.239.1.031.2.053.3.093,1.047.43,1.053.434.52,1.367a8.657,8.657,0,0,0-1.081,4.541c.015.916.159.788-.8.8C697.994,519.724,697.889,519.708,697.785,519.7Z" transform="translate(-125.873 -117.015)" fill="#ec9a38"/>
      <path id="Trazado_637773" data-name="Trazado 637773" d="M666.354,378.736q0-3.391-.005-6.782a.468.468,0,0,1,.1-.03c.885-.063.885-.063.885.827,0,1.777.005,3.554,0,5.33,0,.76.127.667-.663.676C666.564,378.76,666.459,378.744,666.354,378.736Z" transform="translate(-101.101 -5.862)" fill="#ec9a38"/>
      <path id="Trazado_637774" data-name="Trazado 637774" d="M732.653,449.729c-.033.387.2,1-.082,1.292-.306.32-.926.075-1.409.1-.315.019-.633-.02-.946.009-.468.044-.581-.092-.4-.545a3.894,3.894,0,0,1,2.411-2.329c.309-.11.455-.1.43.283C732.633,448.909,732.653,449.278,732.653,449.729Z" transform="translate(-151.062 -66.001)" fill="#f2cc6c"/>
      <path id="Trazado_637775" data-name="Trazado 637775" d="M705.5,431.45c0-.634.009-1.267,0-1.9-.006-.3.039-.448.371-.255a2.477,2.477,0,0,1,.011,4.352c-.31.183-.39.085-.382-.243C705.514,432.753,705.5,432.1,705.5,431.45Z" transform="translate(-131.959 -51.031)" fill="#f0cabd"/>
      <path id="Trazado_637776" data-name="Trazado 637776" d="M736.336,567.167c.37,0,.741.023,1.109-.006s.557.043.5.473c-.06.466.19,1.085-.1,1.37s-.9.08-1.371.084c-1.317.011-1.317,0-1.632-1.271-.161-.65-.161-.65.484-.651Z" transform="translate(-155.022 -159.762)" fill="#e8f2f9"/>
      <path id="Trazado_637777" data-name="Trazado 637777" d="M583.185,569.1c-.464-.052-1.029.176-1.3-.1s-.027-.839-.089-1.268c-.074-.51.148-.605.6-.583.736.037,1.476.035,2.213.005.4-.016.447.138.338.455-.011.033-.025.066-.034.1-.12.438-.112,1.012-.394,1.278C584.211,569.288,583.621,569.036,583.185,569.1Z" transform="translate(-34.426 -159.76)" fill="#e8f2f9"/>
      <path id="Trazado_637778" data-name="Trazado 637778" d="M590.6,451.078c-.666.006-1.333,0-2,.023-.288.01-.406-.066-.4-.376.019-.754.016-1.509,0-2.263-.006-.315.107-.356.377-.253a3.228,3.228,0,0,1,1.183.653c-.008.254.193.4.3.6A2.9,2.9,0,0,1,590.6,451.078Z" transform="translate(-39.509 -65.969)" fill="#f2cc6c"/>
      <path id="Trazado_637779" data-name="Trazado 637779" d="M766.065,451.067c-.7.006-1.4.007-2.1.022-.227,0-.356-.032-.351-.307q.022-1.181,0-2.363c-.005-.3.117-.312.349-.226a3.029,3.029,0,0,1,1.057.551.177.177,0,0,0,.186.138l.007,0a.783.783,0,0,0,.163.431A4.964,4.964,0,0,1,766.065,451.067Z" transform="translate(-177.766 -65.959)" fill="#f2cc6c"/>
      <path id="Trazado_637780" data-name="Trazado 637780" d="M752.022,443.448c0,.6-.025,1.2.007,1.8.027.5-.308.361-.561.369s-.567.1-.556-.378c.026-1.215.024-2.431,0-3.645-.009-.484.3-.372.565-.373s.579-.1.552.383C752,442.214,752.022,442.831,752.022,443.448Z" transform="translate(-167.754 -60.488)" fill="#ec9a38"/>
      <path id="Trazado_637781" data-name="Trazado 637781" d="M575.561,443.352c0-.6.021-1.2-.007-1.792-.018-.388.207-.4.464-.357s.642-.189.636.351c-.011,1.23-.014,2.46,0,3.689.006.543-.384.319-.631.353s-.489.054-.471-.347C575.582,444.618,575.561,443.985,575.561,443.352Z" transform="translate(-29.535 -60.474)" fill="#ec9a38"/>
      <path id="Trazado_637782" data-name="Trazado 637782" d="M658.109,502.654h3.3c-.532.809-1.026,1.565-1.527,2.317-.149.224-.232.032-.3-.073C659.1,504.18,658.635,503.459,658.109,502.654Z" transform="translate(-94.606 -108.922)" fill="#3c92f2"/>
      <path id="Trazado_637783" data-name="Trazado 637783" d="M769.191,488.906c.869-1.475.425-3.1.524-4.661.026-.418,0-.839,0-1.259.749-.053.749-.053.749.653,0,1.157.009,2.314,0,3.471A1.857,1.857,0,0,1,769.191,488.906Z" transform="translate(-182.161 -93.404)" fill="#f0cabd"/>
      <path id="Trazado_637784" data-name="Trazado 637784" d="M594,488.9c.729-1.264.51-2.654.53-4.011.009-.633,0-1.265,0-1.9.727-.051.727-.051.727.682,0,1.1.015,2.205,0,3.308A1.882,1.882,0,0,1,594,488.9Z" transform="translate(-44.075 -93.409)" fill="#f0cabd"/>
      <path id="Trazado_637785" data-name="Trazado 637785" d="M697.79,555.831q0-1.666-.006-3.333c1.133-.094,1.133-.094,1.133,1.031,0,.6-.031,1.2.01,1.795.031.452-.132.6-.559.536A5.683,5.683,0,0,0,697.79,555.831Z" transform="translate(-125.878 -148.18)" fill="#bfd9e5"/>
      <path id="Trazado_637786" data-name="Trazado 637786" d="M621.915,429.781c.215-.265.53-.574.807-.483.245.081.091.532.1.816.015,1.1-.008,2.21.013,3.315.008.438-.147.441-.445.242a1.306,1.306,0,0,1-.479-.395c.153-.114.115-.281.116-.434q0-1.311,0-2.623C622.021,430.067,622.062,429.9,621.915,429.781Z" transform="translate(-66.071 -51.09)" fill="#f0cabd"/>
      <path id="Trazado_637787" data-name="Trazado 637787" d="M595.972,542.076c.23-1.293.574-2.559.9-3.829a2.935,2.935,0,0,0,.17-.873c.756.225.753.225.566.974-.265,1.055-.556,2.105-.774,3.17C596.722,542.061,596.477,542.224,595.972,542.076Z" transform="translate(-45.63 -136.289)" fill="#e09335"/>
      <path id="Trazado_637788" data-name="Trazado 637788" d="M782.637,544.124q0-2.074,0-4.147c.577.078.8.372.756.983-.061.834-.015,1.675-.015,2.514C783.381,544.21,783.381,544.21,782.637,544.124Z" transform="translate(-192.76 -138.34)" fill="#ec9a38"/>
      <path id="Trazado_637789" data-name="Trazado 637789" d="M671.361,487.11q0-1.044,0-2.088c1.171-.066,1.171-.066,1.171,1.018C672.532,487.181,672.532,487.181,671.361,487.11Z" transform="translate(-105.052 -95.006)" fill="#f0cabd"/>
      <path id="Trazado_637790" data-name="Trazado 637790" d="M619.063,431.64c.147.119.107.286.107.438q0,1.311,0,2.623c0,.153.037.32-.116.434A2.367,2.367,0,0,1,619.063,431.64Z" transform="translate(-63.219 -52.949)" fill="#f6dccd"/>
      <path id="Trazado_637791" data-name="Trazado 637791" d="M748.822,520.344c-.595.011-1.189.016-1.784.035-.48.016-.289-.341-.3-.557s-.127-.517.306-.5c.594.027,1.19.021,1.785.03Q748.825,519.85,748.822,520.344Z" transform="translate(-164.442 -122.062)" fill="#f6dccd"/>
      <path id="Trazado_637792" data-name="Trazado 637792" d="M573.427,520.35c-.577.01-1.155.027-1.732.03-.484,0-.24-.375-.266-.582-.023-.183-.144-.484.27-.466.577.025,1.156.02,1.734.028Q573.43,519.855,573.427,520.35Z" transform="translate(-26.255 -122.067)" fill="#f8decf"/>
      <path id="Trazado_637793" data-name="Trazado 637793" d="M750.156,533.752l-.913-1.809h1.82Z" transform="translate(-166.438 -132.008)" fill="#3280ee"/>
      <path id="Trazado_637794" data-name="Trazado 637794" d="M782.633,569.1q0-.94.007-1.88c.743-.072.743-.072.743.648v.578C783.382,569.154,783.382,569.154,782.633,569.1Z" transform="translate(-192.756 -159.79)" fill="#bfd9e5"/>
      <path id="Trazado_637795" data-name="Trazado 637795" d="M577.087,531.768a1.6,1.6,0,0,1,.728,0l-.871,1.753a1.606,1.606,0,0,1-.379-.7A3.03,3.03,0,0,0,577.087,531.768Z" transform="translate(-30.334 -131.838)" fill="#3280ee"/>
      <path id="Trazado_637796" data-name="Trazado 637796" d="M581.008,520.36q0-.5.005-.99a1.884,1.884,0,0,1,.207-.026c.57-.011.881.422.6.91C581.645,520.56,581.288,520.364,581.008,520.36Z" transform="translate(-33.835 -122.077)" fill="#f0cabd"/>
      <path id="Trazado_637797" data-name="Trazado 637797" d="M772.017,453.826a4.964,4.964,0,0,0-.687-1.749.784.784,0,0,1-.163-.431,3.576,3.576,0,0,1,1.246,1.684C772.595,453.757,772.506,453.946,772.017,453.826Z" transform="translate(-183.718 -68.718)" fill="#f0a73f"/>
      <path id="Trazado_637798" data-name="Trazado 637798" d="M596.419,453.693a2.9,2.9,0,0,0-.532-1.62c-.109-.194-.311-.343-.3-.6a3.3,3.3,0,0,1,1.257,1.646C597.074,453.7,597.05,453.728,596.419,453.693Z" transform="translate(-45.324 -68.584)" fill="#f1a740"/>
      <path id="Trazado_637799" data-name="Trazado 637799" d="M756.683,520.275q0-.494,0-.989c.288.057.778-.319.756.391C757.423,520.354,757.447,520.355,756.683,520.275Z" transform="translate(-172.303 -121.993)" fill="#f0cabd"/>
      <path id="Trazado_637800" data-name="Trazado 637800" d="M574.993,531.807a3.03,3.03,0,0,1-.521,1.061l-.563-1.041A3.673,3.673,0,0,1,574.993,531.807Z" transform="translate(-28.24 -131.876)" fill="#3c92f2"/>
      <path id="Trazado_637801" data-name="Trazado 637801" d="M770.442,451.109a.177.177,0,0,1-.186-.138A.227.227,0,0,1,770.442,451.109Z" transform="translate(-183.001 -68.186)" fill="#f0a73f"/>
      <path id="Trazado_637802" data-name="Trazado 637802" d="M708.793,420.259l.08-.09C708.889,420.237,708.863,420.267,708.793,420.259Z" transform="translate(-134.556 -43.907)" fill="#e09335"/>
      <path id="Trazado_637803" data-name="Trazado 637803" d="M622.554,420.171l.082.092C622.565,420.271,622.539,420.24,622.554,420.171Z" transform="translate(-66.579 -43.909)" fill="#e09335"/>
      <path id="Trazado_637804" data-name="Trazado 637804" d="M656.367,458.823a2.77,2.77,0,0,1-2.405-1.442.8.8,0,0,1,.22-1.157.786.786,0,0,1,1.124.321,1.162,1.162,0,0,0,2.112.021.784.784,0,0,1,1.114-.354.809.809,0,0,1,.227,1.193A2.77,2.77,0,0,1,656.367,458.823Z" transform="translate(-91.22 -72.226)" fill="#030303"/>
      <path id="Trazado_637805" data-name="Trazado 637805" d="M663.684,434.527c0,.421.018.843,0,1.262a.786.786,0,1,1-1.571-.014q-.031-1.236,0-2.473a.758.758,0,0,1,.767-.826c.475-.01.771.3.812.84,0,.035,0,.07,0,.105q0,.552,0,1.105Z" transform="translate(-97.746 -53.608)" fill="#030303"/>
      <path id="Trazado_637806" data-name="Trazado 637806" d="M745.939,497.586a2.208,2.208,0,0,1-1.916-1.2.788.788,0,0,1,1.331-.844c.495.617.71.617,1.2,0a.786.786,0,0,1,1.071-.227.767.767,0,0,1,.266,1.059A2.184,2.184,0,0,1,745.939,497.586Z" transform="translate(-162.241 -103.042)" fill="#030303"/>
      <path id="Trazado_637807" data-name="Trazado 637807" d="M570.568,497.584a2.206,2.206,0,0,1-1.9-1.2.768.768,0,0,1,.248-1.063.779.779,0,0,1,1.073.208c.5.618.726.622,1.2.018a.788.788,0,0,1,1.345.819A2.2,2.2,0,0,1,570.568,497.584Z" transform="translate(-24.019 -103.041)" fill="#030303"/>
    </g>
  </g>
</svg>
