<svg xmlns="http://www.w3.org/2000/svg" width="105" height="104.465" viewBox="0 0 105 104.465">
  <g id="Grupo_982883" data-name="Grupo 982883" transform="translate(-180 -4461.234)">
    <path id="Trazado_626454" data-name="Trazado 626454" d="M0,0H105V104.465H0Z" transform="translate(180 4461.234)" fill="#f0bd51"/>
    <g id="Grupo_982821" data-name="Grupo 982821" transform="translate(-650.055 4393.504)">
      <path id="Trazado_641803" data-name="Trazado 641803" d="M852.093,145.81c0-.612,0-1.224,0-1.837,0-.922.154-1.132,1.026-1.424,2.6-.871,5.207-1.743,7.815-2.6a2.122,2.122,0,0,0,.88-.53q3.61-3.626,7.243-7.229c.334-.33.368-.514.051-.883a26.531,26.531,0,0,1-5.378-9.863,27.228,27.228,0,0,1-.913-11.279,26.278,26.278,0,0,1,1.981-7.229c.129-.294.1-.438-.217-.585-.966-.455-1.919-.939-2.865-1.436a1.672,1.672,0,0,0-.827-.131q-4.035-.014-8.069-.022c-1.147,0-1.288-.107-1.645-1.177-.379-1.136-.751-2.276-1.148-3.406a1.637,1.637,0,0,1,.107-1.379q1.3-2.53,2.551-5.085a1.53,1.53,0,0,1,.954-.827c1.244-.4,2.491-.794,3.724-1.229a1.2,1.2,0,0,1,1.527.492c1.65,2.23,3.323,4.443,4.974,6.673a2.221,2.221,0,0,0,.838.7c.979.479,1.959.955,2.918,1.473.388.21.587.135.852-.2a26.057,26.057,0,0,1,9.937-7.832A27.27,27.27,0,0,1,913.7,100.622a26.043,26.043,0,0,1,3.246,15.2,26.836,26.836,0,0,1-10.662,19.51c-.383.3-.351.479-.177.893a10.05,10.05,0,0,0,4.389,4.9c1.56.912,2.995,2.039,4.482,3.074.729.508.833.782.6,1.6-.349,1.215-.719,2.424-1.058,3.641a1.659,1.659,0,0,1-.868,1.08q-2.478,1.331-4.937,2.7a1.663,1.663,0,0,1-1.377.156c-1.209-.37-2.425-.714-3.636-1.077-.83-.249-1.013-.481-1.046-1.352-.1-2.709-.206-5.418-.283-8.128a2.519,2.519,0,0,0-.338-1.236,23.9,23.9,0,0,1-1.152-2.127c-.267-.593-.546-.7-1.163-.443a27.049,27.049,0,0,1-24.961-2.692.814.814,0,0,0-1.275.114c-2.385,2.439-4.808,4.84-7.228,7.245a2.508,2.508,0,0,0-.644,1.033c-.849,2.589-1.72,5.171-2.586,7.754-.29.866-.523,1.04-1.419,1.044-1.246.005-2.493-.007-3.739.005a1.672,1.672,0,0,1-1.281-.536c-1.273-1.294-2.549-2.584-3.854-3.845a1.846,1.846,0,0,1-.648-1.558C852.126,146.993,852.093,146.4,852.093,145.81Zm25.019-40.727-.034.054.036-.051-2.021-1.772-.716,1.422A11.656,11.656,0,0,0,877.112,105.083Zm17.609,19.073a1.956,1.956,0,0,0-.313-.848c-.6-1.089-1.221-2.168-1.78-3.277-.252-.5-.5-.609-1.051-.434a5.755,5.755,0,0,1-5.55-1.028,6.086,6.086,0,0,1-1.561-8.034c.212-.375.137-.5-.215-.667-1.3-.627-2.575-1.287-3.863-1.928a.808.808,0,0,0-.553-.16c-2.034-.4-4.069-.787-6.1-1.193-.371-.074-.423.153-.525.41a17.914,17.914,0,0,0,3.981,19.369c.266.266.39.265.646,0,.989-1.02,1.986-2.033,3.018-3.009.382-.362.409-.545.025-.957A12.3,12.3,0,0,1,878,109.5c.266-.839.6-1.013,1.478-.872a1.158,1.158,0,0,1,.392,1.5,8.99,8.99,0,0,0-.547,2.348,10.508,10.508,0,0,0,3.115,8.746c.244.248.377.168.572-.038.405-.427.813-.855,1.253-1.246a.958.958,0,0,1,1.529.121c.369.578.078,1.006-.307,1.453-.349.4-1.148.714-.96,1.2.15.388.927.566,1.451.772a10.26,10.26,0,0,0,6.222.449c.652-.152,1.264-.175,1.643.527.015.956-.2,1.195-1.163,1.4a12.241,12.241,0,0,1-9.373-1.524.516.516,0,0,0-.775.094c-1.032,1.069-2.079,2.124-3.153,3.151-.351.336-.262.466.087.7a17.808,17.808,0,0,0,16.217,2.31c.364-.115.468-.264.377-.644C895.6,128.025,895.166,126.089,894.721,124.156Zm1.9-1.157c1.419,1.448,2.843,2.891,4.251,4.349.214.221.32.157.511-.012a19.6,19.6,0,0,0,2.123-2.13,17.926,17.926,0,0,0-3.213-26.058,1.208,1.208,0,0,1-.551-1.609,1.178,1.178,0,0,1,1.642-.047,19.925,19.925,0,0,1,6.9,23.563,19.2,19.2,0,0,1-5.4,7.545.861.861,0,0,0-.226,1.339c.688,1.138,1.318,2.315,1.922,3.5.246.481.418.453.794.138,7.725-6.457,10.9-14.648,9.231-24.593a23.7,23.7,0,0,0-6.414-12.6,25.212,25.212,0,0,0-34.161-2.419,23.18,23.18,0,0,0-4.107,4.163c1.505.756,2.974,1.476,4.422,2.235a.611.611,0,0,0,.883-.16,17.9,17.9,0,0,1,4.625-3.725,19.78,19.78,0,0,1,17.651-1.145c.8.317.991.694.765,1.523a1.1,1.1,0,0,1-1.4.346c-.366-.141-.729-.287-1.1-.42a17.253,17.253,0,0,0-7.929-.909,17.751,17.751,0,0,0-11.02,5.473c-.334.347-.413.522,0,.881,1.3,1.136,2.552,2.323,3.828,3.485.156.142.275.349.523.362,1.428.838,2.953,1.488,4.405,2.276a1,1,0,0,0,1.125-.045,5.843,5.843,0,0,1,5.82-.211,6.152,6.152,0,0,1,1.7,9.961.473.473,0,0,0-.091.666c.715,1.273,1.409,2.559,2.112,3.838A.9.9,0,0,0,896.62,123Zm-32.051-8.608a24.98,24.98,0,0,0,6.086,15.735.552.552,0,0,0,.857.142c1.17-.679,2.36-1.323,3.542-1.981.815-.454.814-.454.2-1.116a19.556,19.556,0,0,1-4.952-9.8,19.339,19.339,0,0,1,1.04-10.991c.156-.394.141-.59-.283-.79-1.3-.613-2.586-1.265-3.862-1.931-.367-.191-.515-.169-.685.242A25.66,25.66,0,0,0,864.57,114.391Zm25.324,24.52a25.078,25.078,0,0,0,9.146-1.726c.378-.146.457-.247.242-.623-.685-1.191-1.359-2.392-1.976-3.62-.276-.549-.522-.681-1.138-.463a19.132,19.132,0,0,1-9.875.744,19.533,19.533,0,0,1-7.962-3.339c-.222-.158-.436-.458-.695.031-.715,1.35-1.464,2.682-2.222,4.008-.179.313-.083.444.178.62A24.953,24.953,0,0,0,889.893,138.91Zm-1.562-29.191c.652.328,1.2.593,1.737.877.663.35.883.853.625,1.376-.273.555-.835.7-1.517.374-.766-.37-1.531-.745-2.277-1.153-.333-.182-.486-.088-.677.2a4.264,4.264,0,0,0,4.586,6.426c.405-.11.482-.244.264-.618-.462-.791-.885-1.6-1.326-2.408a1,1,0,0,1,.121-1.316.972.972,0,0,1,1.582.34c.511.885.987,1.791,1.486,2.7a4.192,4.192,0,0,0,.443-5.178A4.248,4.248,0,0,0,888.332,109.719ZM857,98.8v.013h3.537c.258,0,.562.058.636-.3s-.271-.349-.454-.443c-2.274-1.154-4.555-2.293-6.834-3.437-1.2-.6-1.2-.6-1.774.595a.949.949,0,0,0-.054.807c.276.757.527,1.524.759,2.3a.565.565,0,0,0,.647.475C854.646,98.785,855.826,98.8,857,98.8Zm5.337-2.606c-.008-.222-.173-.353-.287-.506q-1.6-2.153-3.212-4.3c-.418-.557-.745-1.367-1.3-1.586-.594-.234-1.327.374-2.022.531a2.076,2.076,0,0,0-1.652,1.371c-.172.46-.188.644.291.879,2.486,1.215,4.951,2.471,7.424,3.712.117.059.231.123.352.172C862.21,96.582,862.271,96.377,862.341,96.194Zm43.3,43.279c-.127-.245-.2-.4-.289-.553q-2.011-3.672-4.024-7.344c-.793-1.449-.78-1.433-2.246-.633-.415.226-.437.4-.221.794,1.534,2.765,3.046,5.543,4.565,8.316a1.974,1.974,0,0,0,.2.334c.167.2.317.023.456-.052C904.61,140.054,905.126,139.761,905.643,139.473ZM864.086,97.421c-.191,0-.211.163-.267.268a13.015,13.015,0,0,1-.6,1.164c-.274.413-.125.571.261.762,2.5,1.237,5,2.5,7.5,3.743.485.242,1.061.735,1.45.62.458-.134.533-.929.834-1.4.228-.359.109-.521-.232-.69q-4.308-2.142-8.6-4.306C864.311,97.521,864.191,97.47,864.086,97.421Zm49.4,48.5c.1-.263-.031-.391-.208-.514q-3.044-2.1-6.082-4.209a.393.393,0,0,0-.533-.018c-.213.172-.034.32.039.454q2.1,3.849,4.205,7.691c.067.122.13.357.31.254.5-.288,1.214-.383,1.446-.94A25.987,25.987,0,0,0,913.482,145.925Zm-8.784-3.634c-.437.09-.374.4-.364.68.087,2.378.181,4.756.259,7.134.009.278.075.448.359.527.882.245,1.759.508,2.64.756a4.359,4.359,0,0,0,1.677-.755c.077-.149-.036-.25-.093-.355q-2.1-3.848-4.214-7.691C904.895,142.462,904.862,142.283,904.7,142.291Zm-32.277-7.581c-.086-.1-.149-.191-.225-.268a11.381,11.381,0,0,1-.824-.84c-.333-.419-.564-.426-.959-.022-1.92,1.967-3.878,3.9-5.819,5.844-.4.4-1.122.86-1.077,1.213.06.469.743.846,1.13,1.288.243.278.4.207.623-.021q3.438-3.458,6.891-6.9C872.25,134.915,872.328,134.816,872.421,134.71Zm-18.357,11.556a2.217,2.217,0,0,0,.813,2.257c.357.256.5.314.82-.013,1.524-1.559,3.076-3.092,4.618-4.633.493-.494.989-.984,1.479-1.481.1-.1.258-.205.138-.383a.345.345,0,0,0-.448-.159c-.121.049-.249.079-.373.121q-2.726.905-5.451,1.812C854.063,144.318,854.063,144.32,854.063,146.266Zm5.509,5.287c1.693,0,1.693,0,2.23-1.617q.113-.341.225-.682c.555-1.674,1.1-3.35,1.671-5.02.08-.235.1-.413-.112-.575-.192-.144-.279.026-.376.123q-3.128,3.12-6.25,6.245c-.152.152-.256.289-.055.489.579.578,1.08,1.291,2.08,1.043A2.515,2.515,0,0,1,859.572,151.553Zm37.76-24.856.6,2.647,1.345-.747Zm-22.453,4.131-.139-.118L872.426,132c.36.313.656.566.947.826.132.118.247.278.393.012C874.135,132.17,874.508,131.5,874.88,130.828Z" transform="translate(0)" fill="#030303"/>
      <path id="Trazado_641804" data-name="Trazado 641804" d="M954.347,102.512c.226-.828.04-1.206-.765-1.523a19.78,19.78,0,0,0-17.651,1.145,17.9,17.9,0,0,0-4.625,3.725.611.611,0,0,1-.883.16c-1.448-.76-2.916-1.479-4.422-2.235a23.177,23.177,0,0,1,4.107-4.163,25.213,25.213,0,0,1,34.161,2.419,23.7,23.7,0,0,1,6.414,12.6c1.666,9.946-1.506,18.137-9.231,24.593-.376.314-.548.343-.794-.138-.6-1.186-1.234-2.362-1.922-3.5a.861.861,0,0,1,.226-1.339,19.2,19.2,0,0,0,5.4-7.545,19.925,19.925,0,0,0-6.9-23.563,1.179,1.179,0,0,0-1.642.047C955.283,103.066,954.922,102.558,954.347,102.512Z" transform="translate(-56.077 -5.655)" fill="#8ea0a0"/>
      <path id="Trazado_641805" data-name="Trazado 641805" d="M972.9,123.062c.575.046.936.553,1.473.681a1.208,1.208,0,0,0,.551,1.609,17.926,17.926,0,0,1,3.213,26.058,19.593,19.593,0,0,1-2.123,2.13c-.192.169-.3.233-.511.012-1.408-1.458-2.833-2.9-4.252-4.349l.648-.469c.754.419,1.081.378,1.654-.26a12.26,12.26,0,0,0,2.947-11.967,12.547,12.547,0,0,0-19.642-6.6c-.644.5-.714.81-.358,1.578l-.7.794c-.248-.013-.367-.22-.523-.362-1.276-1.162-2.53-2.349-3.828-3.485-.41-.359-.332-.533,0-.881a17.751,17.751,0,0,1,11.02-5.473,17.253,17.253,0,0,1,7.928.909c.369.133.732.279,1.1.42A1.1,1.1,0,0,0,972.9,123.062Z" transform="translate(-74.633 -26.204)" fill="#eaeeee"/>
      <path id="Trazado_641806" data-name="Trazado 641806" d="M905.627,162.44a25.66,25.66,0,0,1,1.943-10.487c.171-.41.319-.433.685-.242,1.276.666,2.56,1.319,3.862,1.931.425.2.44.4.283.79a19.339,19.339,0,0,0-1.04,10.991,19.556,19.556,0,0,0,4.952,9.8c.614.661.615.661-.2,1.116-1.182.658-2.372,1.3-3.542,1.981a.552.552,0,0,1-.857-.142A24.98,24.98,0,0,1,905.627,162.44Z" transform="translate(-41.057 -48.049)" fill="#8da0a0"/>
      <path id="Trazado_641807" data-name="Trazado 641807" d="M961.1,260.132a24.953,24.953,0,0,1-14.3-4.367c-.261-.176-.357-.307-.178-.62.759-1.326,1.508-2.658,2.222-4.008.258-.489.472-.189.695-.031a19.533,19.533,0,0,0,7.962,3.339,19.132,19.132,0,0,0,9.875-.744c.617-.218.863-.086,1.138.463.617,1.228,1.29,2.428,1.976,3.62.216.375.137.477-.242.623A25.078,25.078,0,0,1,961.1,260.132Z" transform="translate(-71.205 -121.222)" fill="#8da0a0"/>
      <path id="Trazado_641808" data-name="Trazado 641808" d="M968.786,152.788l.7-.794c.712.461.909.418,1.812-.2a10.574,10.574,0,0,1,16.671,8.046,10.05,10.05,0,0,1-2.806,7.72c-.476.516-.748,1.025-.278,1.679l-.648.469a.9.9,0,0,1-.377-.438c-.7-1.28-1.4-2.565-2.112-3.838a.473.473,0,0,1,.091-.666,6.152,6.152,0,0,0-1.7-9.961,5.843,5.843,0,0,0-5.82.211,1,1,0,0,1-1.125.045C971.739,154.275,970.214,153.625,968.786,152.788Z" transform="translate(-87.612 -46.713)" fill="#ebb740"/>
      <path id="Trazado_641809" data-name="Trazado 641809" d="M941.145,165.162c-.88-.141-1.212.033-1.478.872a12.3,12.3,0,0,0,2.873,12.9c.384.412.357.6-.025.957-1.032.976-2.029,1.989-3.018,3.009-.256.264-.38.265-.646,0a17.914,17.914,0,0,1-3.981-19.369c.1-.257.154-.484.525-.41,2.032.406,4.067.8,6.1,1.193Z" transform="translate(-61.662 -56.536)" fill="#eaeeee"/>
      <path id="Trazado_641810" data-name="Trazado 641810" d="M961.76,168.515l.352-.846a.808.808,0,0,1,.553.16c1.288.642,2.568,1.3,3.863,1.928.352.17.427.292.215.667a6.086,6.086,0,0,0,1.561,8.034,5.755,5.755,0,0,0,5.55,1.028c.553-.175.8-.066,1.051.434.56,1.11,1.18,2.189,1.78,3.277a1.955,1.955,0,0,1,.313.848l-.876.306c-.379-.7-.991-.679-1.643-.527a10.26,10.26,0,0,1-6.222-.449c-.524-.206-1.3-.384-1.451-.772-.188-.487.612-.8.96-1.2.385-.447.676-.876.307-1.453a.958.958,0,0,0-1.529-.121c-.44.391-.847.819-1.253,1.246-.195.206-.328.286-.572.038a10.508,10.508,0,0,1-3.115-8.746,8.988,8.988,0,0,1,.547-2.348A1.158,1.158,0,0,0,961.76,168.515Z" transform="translate(-82.278 -59.889)" fill="#ebb740"/>
      <path id="Trazado_641811" data-name="Trazado 641811" d="M975.807,230.288l.876-.306c.445,1.933.881,3.869,1.341,5.8.091.38-.013.528-.377.644a17.807,17.807,0,0,1-16.217-2.31c-.349-.238-.439-.368-.087-.7,1.073-1.027,2.121-2.082,3.153-3.151a.516.516,0,0,1,.775-.094,12.241,12.241,0,0,0,9.373,1.524C975.61,231.483,975.822,231.244,975.807,230.288Z" transform="translate(-81.961 -105.827)" fill="#e9eded"/>
      <path id="Trazado_641812" data-name="Trazado 641812" d="M988.258,174.333a4.248,4.248,0,0,1,5.046,1.619,4.192,4.192,0,0,1-.443,5.178c-.5-.912-.975-1.818-1.486-2.7a.972.972,0,0,0-1.582-.34,1,1,0,0,0-.121,1.316c.441.8.864,1.617,1.326,2.408.218.373.141.508-.264.618A4.264,4.264,0,0,1,986.15,176c.19-.283.344-.377.677-.2.746.408,1.511.782,2.277,1.153.682.33,1.244.182,1.517-.374.258-.524.038-1.026-.625-1.376C989.458,174.926,988.91,174.661,988.258,174.333Z" transform="translate(-99.926 -64.614)" fill="#de7538"/>
      <path id="Trazado_641813" data-name="Trazado 641813" d="M862.819,120.763c-1.179,0-2.359-.015-3.537.009a.565.565,0,0,1-.647-.475c-.232-.772-.483-1.539-.759-2.3a.95.95,0,0,1,.054-.807c.577-1.2.57-1.2,1.774-.595,2.279,1.143,4.56,2.283,6.834,3.437.183.093.527.094.454.443s-.379.3-.636.3h-3.537Z" transform="translate(-5.815 -21.963)" fill="#e08349"/>
      <path id="Trazado_641814" data-name="Trazado 641814" d="M873.1,105.576c-.07.183-.131.388-.405.276-.121-.049-.235-.114-.352-.172-2.473-1.241-4.939-2.5-7.424-3.712-.479-.234-.463-.418-.291-.879a2.076,2.076,0,0,1,1.652-1.371c.7-.157,1.428-.765,2.022-.531.556.219.882,1.029,1.3,1.586q1.611,2.144,3.212,4.3C872.924,105.223,873.089,105.354,873.1,105.576Z" transform="translate(-10.756 -9.382)" fill="#d74232"/>
      <path id="Trazado_641815" data-name="Trazado 641815" d="M1042.469,262.8c-.517.288-1.034.581-1.556.862-.139.074-.289.25-.456.052a1.973,1.973,0,0,1-.2-.334c-1.519-2.773-3.031-5.551-4.565-8.316-.216-.389-.194-.568.221-.794,1.466-.8,1.454-.816,2.246.633q2.009,3.674,4.024,7.344C1042.264,262.4,1042.341,262.56,1042.469,262.8Z" transform="translate(-136.825 -123.331)" fill="#aeb54a"/>
      <path id="Trazado_641816" data-name="Trazado 641816" d="M900.984,128.3c.1.048.225.1.341.158q4.3,2.155,8.6,4.306c.341.17.46.332.232.69-.3.473-.376,1.268-.834,1.4-.389.114-.965-.379-1.45-.62-2.5-1.247-4.992-2.506-7.5-3.743-.385-.19-.534-.349-.26-.762a13.033,13.033,0,0,0,.6-1.164C900.773,128.465,900.793,128.307,900.984,128.3Z" transform="translate(-36.898 -30.881)" fill="#aeb54a"/>
      <path id="Trazado_641817" data-name="Trazado 641817" d="M1072.258,299.22a25.945,25.945,0,0,1-.823,2.718c-.231.557-.943.652-1.445.94-.18.1-.243-.132-.31-.254q-2.108-3.843-4.205-7.691c-.073-.134-.252-.282-.039-.454a.393.393,0,0,1,.533.018q3.038,2.109,6.082,4.209C1072.227,298.828,1072.354,298.956,1072.258,299.22Z" transform="translate(-158.775 -153.294)" fill="#de5e32"/>
      <path id="Trazado_641818" data-name="Trazado 641818" d="M1057.211,298.957c.165-.008.2.171.265.3q2.112,3.843,4.214,7.691c.058.105.17.206.093.355a4.358,4.358,0,0,1-1.677.755c-.881-.248-1.758-.511-2.64-.756-.284-.079-.35-.248-.359-.527-.078-2.378-.172-4.756-.259-7.134C1056.837,299.358,1056.774,299.047,1057.211,298.957Z" transform="translate(-152.514 -156.666)" fill="#d74232"/>
      <path id="Trazado_641819" data-name="Trazado 641819" d="M910.527,266.121c-.093.106-.171.2-.26.293q-3.447,3.449-6.891,6.9c-.227.228-.38.3-.623.021-.387-.441-1.07-.819-1.13-1.288-.045-.353.68-.814,1.077-1.213,1.94-1.947,3.9-3.877,5.819-5.844.395-.4.626-.4.959.022a11.4,11.4,0,0,0,.824.84C910.378,265.93,910.441,266.017,910.527,266.121Z" transform="translate(-38.107 -131.411)" fill="#aeb64b"/>
      <path id="Trazado_641820" data-name="Trazado 641820" d="M865.6,301.618c0-1.946,0-1.948,1.6-2.48q2.724-.909,5.451-1.812c.124-.041.252-.072.373-.121a.345.345,0,0,1,.448.159c.121.177-.037.281-.138.383-.49.5-.986.988-1.479,1.481-1.542,1.542-3.094,3.074-4.618,4.633-.32.327-.463.269-.82.013A2.217,2.217,0,0,1,865.6,301.618Z" transform="translate(-11.533 -155.352)" fill="#e5864b"/>
      <path id="Trazado_641821" data-name="Trazado 641821" d="M878.839,311.9a2.516,2.516,0,0,0-.587.007c-1,.248-1.5-.465-2.08-1.043-.2-.2-.1-.337.055-.489q3.125-3.122,6.25-6.245c.1-.1.185-.268.376-.123.216.162.192.34.112.574-.566,1.67-1.116,3.346-1.671,5.02q-.113.341-.225.682C880.531,311.9,880.531,311.9,878.839,311.9Z" transform="translate(-19.266 -160.347)" fill="#d74232"/>
      <path id="Trazado_641822" data-name="Trazado 641822" d="M945.669,152.483a11.626,11.626,0,0,1-2.735-.346l.716-1.422,2.021,1.772Z" transform="translate(-68.557 -47.401)" fill="#dee2e2"/>
      <path id="Trazado_641823" data-name="Trazado 641823" d="M1030.244,239.649l1.944,1.9-1.345.747Z" transform="translate(-132.911 -112.952)" fill="#dee2e2"/>
      <path id="Trazado_641824" data-name="Trazado 641824" d="M937.969,255.032c-.372.671-.745,1.341-1.114,2.014-.146.266-.261.106-.393-.012-.291-.259-.586-.512-.947-.826l2.315-1.294Z" transform="translate(-63.089 -124.203)" fill="#dee2e2"/>
      <path id="Trazado_641825" data-name="Trazado 641825" d="M953.245,157.444l-.036.051.034-.055Z" transform="translate(-76.131 -52.358)" fill="#dee2e2"/>
      <path id="Trazado_641826" data-name="Trazado 641826" d="M986.235,163.852c-.47-.653-.2-1.162.278-1.679a10.526,10.526,0,0,0-3.246-16.7,10.161,10.161,0,0,0-10.62.938c-.9.615-1.1.658-1.811.2-.356-.768-.286-1.075.358-1.578a12.547,12.547,0,0,1,19.642,6.6,12.26,12.26,0,0,1-2.947,11.967C987.316,164.23,986.988,164.27,986.235,163.852Z" transform="translate(-88.966 -41.323)" fill="#040403"/>
    </g>
  </g>
</svg>
