<svg xmlns="http://www.w3.org/2000/svg" width="105" height="104.465" viewBox="0 0 105 104.465">
  <g id="Grupo_982885" data-name="Grupo 982885" transform="translate(-600 -4461.234)">
    <path id="Trazado_626454" data-name="Trazado 626454" d="M0,0H105V104.465H0Z" transform="translate(600 4461.234)" fill="#f0bd51"/>
    <g id="Grupo_982828" data-name="Grupo 982828" transform="translate(-323.187 4335.608)">
      <path id="Trazado_641978" data-name="Trazado 641978" d="M1058.367,226.207l1.461,1.469c-.156.173-.3.352-.467.516q-2.884,2.888-5.771,5.774c-.578.58-.639,1.2-.18,1.68.479.5,1.117.445,1.726-.152.258-.253.511-.511.768-.765l5.526-5.472,1.675,1.668-6.018,6.07a6.242,6.242,0,0,0-.444.457,1.083,1.083,0,0,0,1.52,1.534,6.17,6.17,0,0,0,.457-.444l6.069-6.017.627.643c-.145.124-.3.238-.433.372q-13.9,13.889-27.788,27.782c-.744.744-.735,1.307.028,2.071q2.276,2.28,4.555,4.557c.191.191.445.352.386.686-5.954.005-11.908,0-17.863.027-.529,0-.507-.256-.507-.624q.009-9.568.009-19.136c0-.155-.077-.334.1-.495.156.147.31.285.457.432q2.348,2.343,4.7,4.688c.758.755,1.256.757,2,.024.152-.149.3-.3.452-.45q13.2-13.191,26.4-26.381C1057.984,226.541,1058.179,226.378,1058.367,226.207Z" transform="translate(-60.169 -60.298)" fill="#da4450"/>
      <path id="Trazado_641979" data-name="Trazado 641979" d="M958.585,195.239l-.64-.64c.154-.174.3-.355.464-.519q2.84-2.846,5.685-5.687a1.432,1.432,0,0,0,.5-.725,1.041,1.041,0,0,0-.5-1.2,1.06,1.06,0,0,0-1.385.241q-2.91,2.911-5.824,5.819c-.163.162-.293.369-.528.448a11.987,11.987,0,0,1-1.641-1.643c.15-.176.287-.363.449-.526q2.786-2.794,5.579-5.581a4.806,4.806,0,0,0,.355-.365,1.086,1.086,0,0,0-.048-1.5,1.113,1.113,0,0,0-1.5-.011c-.177.151-.335.325-.5.489l-5.966,5.906a14.123,14.123,0,0,1-1.424-1.466,1.676,1.676,0,0,1,.493-.573Q965.5,174.349,978.86,161c.893-.892.89-1.327-.016-2.233q-2.277-2.28-4.555-4.558c-.132-.132-.371-.268-.306-.451.087-.247.371-.13.567-.131q3.765-.011,7.529,0,4.913.007,9.825.023,0,9.064,0,18.128c-1.058-1.041-2.11-2.087-3.174-3.12a1.134,1.134,0,0,0-1.866.017q-.729.708-1.46,1.413c-.86-.55-1.222-.5-2,.271q-12.205,12.2-24.408,24.4C958.849,194.908,958.722,195.078,958.585,195.239Z" transform="translate(-6.564 -6.263)" fill="#71a537"/>
      <path id="Trazado_641980" data-name="Trazado 641980" d="M1052.074,220.766c-.188.171-.383.334-.563.514q-13.2,13.189-26.4,26.381c-.151.15-.3.3-.452.45-.748.733-1.247.731-2-.024q-2.351-2.341-4.7-4.687c-.147-.147-.3-.285-.457-.432-.176.161-.1.34-.1.495q-.007,9.568-.009,19.136c0,.368-.022.627.507.624,5.955-.024,11.909-.022,17.863-.027h1.987l-5.114-5.115c-.933-.933-.931-1.337.005-2.273l26.828-26.818c.149-.149.288-.309.432-.464.722-.338,1.237-.272,1.594.2s.263,1.05-.316,1.629q-13.016,13.014-26.047,26.013c-.49.488-.434.711.021,1.148,1.458,1.4,2.857,2.857,4.3,4.268a2.009,2.009,0,0,1-1.466,3.6q-10.241-.018-20.482-.007a2.011,2.011,0,0,1-2.284-2.257q0-10.27,0-20.541a1.985,1.985,0,0,1,1.235-2.093,2.007,2.007,0,0,1,2.3.613c1.493,1.515,3.017,3,4.5,4.524.338.349.5.324.828-.007q13-13.027,26.028-26.032l.135-.135c.611-.607,1.179-.722,1.679-.338S1052.474,220.012,1052.074,220.766Z" transform="translate(-53.876 -54.856)" fill="#020101"/>
      <path id="Trazado_641981" data-name="Trazado 641981" d="M986.308,147.381q-4.912-.012-9.825-.023-3.765-.006-7.529,0c-.2,0-.48-.116-.567.131-.065.183.174.318.306.451q2.275,2.281,4.555,4.558c.906.907.909,1.341.016,2.233q-13.357,13.352-26.713,26.7a1.675,1.675,0,0,0-.493.573,1.565,1.565,0,0,1-1.079.286,1.1,1.1,0,0,1-.628-1.719,5.264,5.264,0,0,1,.528-.552q12.975-12.971,25.959-25.932c.367-.366.4-.543.011-.92-1.515-1.462-2.98-2.976-4.482-4.452a2.011,2.011,0,0,1-.62-2.3,1.963,1.963,0,0,1,2.087-1.239q10.307,0,20.614,0a1.992,1.992,0,0,1,2.2,2.212q0,10.3.005,20.61a2.026,2.026,0,0,1-1.2,2.058,1.944,1.944,0,0,1-2.307-.578c-1.508-1.5-3.022-2.995-4.5-4.52-.35-.36-.526-.342-.873.005q-12.984,13.006-25.992,25.99c-.09.09-.18.181-.271.27a1.145,1.145,0,0,1-1.537.276c-.525-.367-.6-.854-.236-1.569a1.045,1.045,0,0,0,.055-.183c.295-.066.439-.324.629-.514q12.488-12.473,24.968-24.953c.149-.149.283-.313.424-.47q.73-.706,1.46-1.413a1.134,1.134,0,0,1,1.866-.017c1.064,1.034,2.116,2.08,3.174,3.12l2.168,2.019V153.266c0-1.764-.021-3.529.013-5.292.011-.526-.166-.663-.651-.623C987.33,147.392,986.818,147.374,986.308,147.381Zm-18.007.048c-.013-.014-.024-.037-.038-.039s-.03.018-.046.029c.012.014.024.037.038.039S968.286,147.44,968.3,147.429Z" transform="translate(-0.967)" fill="#010101"/>
      <path id="Trazado_641982" data-name="Trazado 641982" d="M1103.609,254.217c-.144.155-.282.315-.432.464L1076.35,281.5c-.937.936-.938,1.34-.005,2.273l5.114,5.115h-1.987c.059-.334-.2-.5-.386-.686q-2.275-2.28-4.555-4.557c-.763-.764-.772-1.327-.028-2.071q13.893-13.893,27.788-27.782c.134-.134.288-.249.433-.372Z" transform="translate(-97.579 -80.549)" fill="#ab2d3f"/>
      <path id="Trazado_641983" data-name="Trazado 641983" d="M1005.569,216.965c-.141.157-.275.321-.424.47q-12.481,12.479-24.968,24.953c-.19.19-.334.447-.629.514a3.074,3.074,0,0,1-.8-.781c.137-.161.264-.332.413-.481q12.2-12.2,24.408-24.4C1004.347,216.46,1004.708,216.415,1005.569,216.965Z" transform="translate(-26.729 -53.145)" fill="#628f2f"/>
      <path id="Trazado_641984" data-name="Trazado 641984" d="M1147.026,213.4l-5.526,5.472c-.257.254-.51.513-.768.765-.609.6-1.247.652-1.725.152-.459-.479-.4-1.1.18-1.68q2.883-2.889,5.771-5.774c.164-.164.312-.344.467-.516l6.241-6.19a6.594,6.594,0,0,1,.5-.487,1.1,1.1,0,0,1,1.451.062,1.054,1.054,0,0,1,.078,1.446,4.345,4.345,0,0,1-.394.416q-2.93,2.931-5.86,5.862C1147.3,213.072,1147.165,213.238,1147.026,213.4Z" transform="translate(-145.766 -44.437)" fill="#020202"/>
      <path id="Trazado_641985" data-name="Trazado 641985" d="M949.8,288.122c.236-.078.366-.285.528-.448q2.916-2.905,5.824-5.819a1.06,1.06,0,0,1,1.385-.241,1.041,1.041,0,0,1,.5,1.2,1.433,1.433,0,0,1-.5.725q-2.844,2.842-5.685,5.687c-.164.164-.31.346-.464.519q-2.194,2.164-4.387,4.33c-.739.731-1.465,1.475-2.209,2.2a1.092,1.092,0,1,1-1.517-1.549q3.031-3.045,6.072-6.08A1.5,1.5,0,0,0,949.8,288.122Z" transform="translate(-0.012 -101.412)" fill="#020201"/>
      <path id="Trazado_641986" data-name="Trazado 641986" d="M1159.774,235.662l-6.069,6.017a6.218,6.218,0,0,1-.457.444,1.083,1.083,0,0,1-1.52-1.534,6.269,6.269,0,0,1,.444-.457l6.018-6.07q1.635-1.607,3.27-3.211a1.115,1.115,0,0,1,1.682-.085,1.073,1.073,0,0,1-.109,1.586C1161.952,233.461,1160.86,234.559,1159.774,235.662Z" transform="translate(-155.255 -63.435)" fill="#030202"/>
      <path id="Trazado_641987" data-name="Trazado 641987" d="M946.514,275.463l5.966-5.906c.166-.164.324-.338.5-.489a1.113,1.113,0,0,1,1.5.011,1.086,1.086,0,0,1,.048,1.5,4.818,4.818,0,0,1-.355.365q-2.79,2.79-5.579,5.581c-.162.163-.3.35-.449.526-1.066.875-1.958,1.928-2.956,2.873-.169.16-.322.338-.5.489a1.105,1.105,0,0,1-1.544-.017,1.055,1.055,0,0,1,.036-1.535c.945-.972,1.914-1.921,2.87-2.883C946.214,275.814,946.36,275.635,946.514,275.463Z" transform="translate(0 -91.983)" fill="#020201"/>
      <path id="Trazado_641988" data-name="Trazado 641988" d="M1109,153.667c.51-.008,1.022.01,1.529-.031.485-.04.661.1.651.623-.035,1.763-.013,3.528-.013,5.292v14.262L1109,171.8Z" transform="translate(-123.664 -6.286)" fill="#639030"/>
      <path id="Trazado_641989" data-name="Trazado 641989" d="M1038.373,153.85c-.015.011-.032.031-.046.029s-.025-.025-.038-.039c.015-.011.031-.031.046-.029S1038.361,153.837,1038.373,153.85Z" transform="translate(-71.039 -6.421)" fill="#71a537"/>
    </g>
  </g>
</svg>
