<svg xmlns="http://www.w3.org/2000/svg" width="105" height="104.465" viewBox="0 0 105 104.465">
  <g id="Grupo_982886" data-name="Grupo 982886" transform="translate(-180 -4582.234)">
    <path id="Trazado_626454" data-name="Trazado 626454" d="M0,0H105V104.465H0Z" transform="translate(180 4582.234)" fill="#f0bd51"/>
    <g id="Grupo_982823" data-name="Grupo 982823" transform="translate(-686.528 4208.347)">
      <path id="Trazado_641827" data-name="Trazado 641827" d="M990.478,398.392a7.025,7.025,0,0,1,7.448,5.574,14.757,14.757,0,0,1,.144,2.469c.008.331-.129.436-.448.44a22.825,22.825,0,0,1-3.574-.144,2.23,2.23,0,0,1-1.847-1.564,1.521,1.521,0,0,0-.654-.935,1.071,1.071,0,0,0-1.519.495c-.517,1.767-1.81,2.156-3.41,2.1-.006-.388-.005-.777-.017-1.165a8.012,8.012,0,0,1,2.668-6.209C989.656,399.081,990.226,398.917,990.478,398.392Z" transform="translate(-71.058 -5.479)" fill="#3e5d79"/>
      <path id="Trazado_641828" data-name="Trazado 641828" d="M983.521,398.5c-.252.525-.822.689-1.209,1.064a8.012,8.012,0,0,0-2.668,6.209c.012.388.011.777.017,1.165-.733.015-1.465.024-2.2.049-.319.011-.425-.116-.453-.439a7.3,7.3,0,0,1,5.3-7.854A10.068,10.068,0,0,1,983.521,398.5Z" transform="translate(-64.102 -5.584)" fill="#314b61"/>
      <path id="Trazado_641829" data-name="Trazado 641829" d="M1028.251,438.307c-.279.03-.714.206-.786-.092a3.406,3.406,0,0,1,0-1.553c.073-.3.5-.13.782-.091Q1028.25,437.439,1028.251,438.307Z" transform="translate(-100.559 -33.066)" fill="#f0b2a1"/>
      <path id="Trazado_641830" data-name="Trazado 641830" d="M972.926,438.505c-.673-.045-1.041-.362-1.041-.9s.377-.856,1.042-.879A2.932,2.932,0,0,0,972.926,438.505Z" transform="translate(-60.416 -33.241)" fill="#efb0a0"/>
      <path id="Trazado_641831" data-name="Trazado 641831" d="M975.279,438.4a2.931,2.931,0,0,1,0-1.776c.39-.108.6-.022.552.445a3.757,3.757,0,0,0,0,.883C975.894,438.427,975.652,438.479,975.279,438.4Z" transform="translate(-62.769 -33.132)" fill="#f4ccbe"/>
      <path id="Trazado_641832" data-name="Trazado 641832" d="M1030.533,438.526q0-.868,0-1.736a.842.842,0,0,1,.684.861A.85.85,0,0,1,1030.533,438.526Z" transform="translate(-102.841 -33.285)" fill="#f2cbbc"/>
      <g id="Grupo_982822" data-name="Grupo 982822" transform="translate(888.37 390.779)">
        <path id="Trazado_641833" data-name="Trazado 641833" d="M918.6,460.494a1.2,1.2,0,0,1-1.369.966c-3.748-.017-7.5,0-11.246-.01a2.13,2.13,0,0,1-2.313-2.315c-.005-1.863-.009-3.726,0-5.589a6.476,6.476,0,0,1,4.276-6.221c1.108-.432,2.214-.872,3.317-1.414-.2-.01-.408-.028-.612-.028l-19.732,0c-1.737,0-2.528-.78-2.513-2.527a61.952,61.952,0,0,1,.078-6.205,6.087,6.087,0,0,1,3.91-5.247c2.454-1.022,4.948-1.947,7.423-2.916a.921.921,0,0,0,.265-1.561,6.758,6.758,0,0,1-2.281-4.057c-.058-.348-.186-.432-.521-.431a2.88,2.88,0,0,1-2.855-1.886,2.992,2.992,0,0,1,.674-3.429.712.712,0,0,0,.21-.7,40.4,40.4,0,0,1-.089-4.615,7.068,7.068,0,0,1,.151-1.918,5.105,5.105,0,0,1,4.78-3.883c2.023-.049,4.048.012,6.071-.028,1.752-.035,3.209.368,3.8,2.257,1.013-.721,1.078-1.429.256-2.248a2.945,2.945,0,0,1,.091-4.3,1.233,1.233,0,0,0,.47-1.112,10.327,10.327,0,0,1,.827-4.909,9.1,9.1,0,0,1,17.409,3.628c0,.253.02.507,0,.759a2.276,2.276,0,0,0,.669,1.948,2.807,2.807,0,0,1-.247,4.019,1.166,1.166,0,0,0-.408,1.139c.088.746.357.853.977.44a9.135,9.135,0,0,1,14.274,7.239c.014.252.016.506.012.758a2.615,2.615,0,0,0,.684,2.157,2.823,2.823,0,0,1-.274,3.972,1.23,1.23,0,0,0,.1,1.986,3.915,3.915,0,0,1,2.162,3.14,5.872,5.872,0,0,1-.875,3.818.715.715,0,0,0-.048.152c.336.136.671.277,1.01.409a6.476,6.476,0,0,1,4.388,6.216c.037,1.885.022,3.772,0,5.658a2.11,2.11,0,0,1-2.349,2.276q-9.935,0-19.87,0h-.648l-.025.128,3.418,1.342a6.473,6.473,0,0,1,4.21,6.126c.013,1.909.01,3.818,0,5.727A2.116,2.116,0,0,1,934,461.45c-3.795.007-7.589,0-11.384.009a1.161,1.161,0,0,1-1.3-.965c.177-.879.452-1.11,1.355-1.112,1.77,0,3.541-.014,5.311.009.414.005.549-.088.541-.527-.028-1.586-.02-3.173-.006-4.76a1.006,1.006,0,0,1,1.052-1.1,1.027,1.027,0,0,1,1.013,1.079c.081,1.322.081,1.322,1.385,1.322h.138c.663-.014,1.582.231,1.924-.108.435-.431.171-1.349.125-2.048a4.231,4.231,0,0,0-2.654-3.871c-1.6-.684-3.25-1.258-4.869-1.9-.317-.126-.458-.089-.656.207a7.025,7.025,0,0,1-12.051-.01c-.166-.248-.281-.369-.592-.239-1.1.459-2.208.895-3.314,1.34l-.179.081.036.007-.034-.013c-.408.147-.819.284-1.222.442A4.3,4.3,0,0,0,905.8,452.8a20.615,20.615,0,0,0-.063,2.126c-.024.412.142.5.513.485.847-.024,1.7-.037,2.542,0,.482.024.57-.167.551-.589a2.183,2.183,0,0,1,.25-1.523,1.092,1.092,0,0,1,1.277-.176,1.167,1.167,0,0,1,.54,1.18c-.013,1.518.013,3.036-.016,4.554-.008.434.119.535.538.53,1.771-.023,3.542-.012,5.313-.009C918.149,459.384,918.422,459.613,918.6,460.494Zm-6.091-55.23c.372.083.615.031.554-.449a3.757,3.757,0,0,1,0-.883c.053-.467-.162-.552-.552-.444-.666.023-1.042.34-1.042.879S911.838,405.22,912.51,405.264Zm-.136,15.572a.9.9,0,0,0,.782-.962.917.917,0,0,0-.782-1.029c-.527-.122-.723.1-.676.62a3.9,3.9,0,0,1,0,.827C911.625,420.865,911.892,420.975,912.374,420.837Zm15.32,15.515a.837.837,0,0,0,.7-.929.876.876,0,0,0-.707-1c-.544-.154-.771.048-.715.611a4.209,4.209,0,0,1,0,.821C926.914,436.472,927.2,436.561,927.694,436.352Zm0-32.847c-.278-.038-.709-.21-.782.091a3.4,3.4,0,0,0,0,1.553c.072.3.507.122.786.092a.893.893,0,0,0,0-1.736Zm15.189,15.686c-.545-.21-.83-.079-.756.56a2.609,2.609,0,0,1,0,.619c-.082.661.235.744.762.551a.793.793,0,0,0,.736-.905A.762.762,0,0,0,942.879,419.191Zm-30.364,17.2c.268.088.44.048.427-.291-.018-.474-.021-.949-.03-1.424-.751-.433-1.3-.208-1.385.569C911.451,435.919,911.785,436.307,912.516,436.394Zm1.375-26.424a13.927,13.927,0,0,1-.865-2.509c-.146.427-.107.921-.332,1.213-.681.887-.309,1.52.347,2.147.091.449.2.894.266,1.346.083.576-.264,1.42.165,1.661.338.189,1.077-.313,1.628-.532a.9.9,0,0,0,.281-1.534A10.07,10.07,0,0,1,913.891,409.971Zm15.3,15.74a15.936,15.936,0,0,1-.966-2.571,4.2,4.2,0,0,1-.653,2.013c-.126.179,0,.344.134.487.183.2.358.412.536.618a7.01,7.01,0,0,1,.276,2.84c0,.457.141.581.565.391.375-.167.762-.308,1.145-.456a.938.938,0,0,0,.344-1.628A9.588,9.588,0,0,1,929.193,425.71Zm-9.229-12.251a8.565,8.565,0,0,1-1.892-.285c-.185-.058-.371-.088-.377.205-.019.993-.669,1.449-1.5,1.717-.446.143-.448.335-.186.668a4.635,4.635,0,0,0,3.954,1.935,4.552,4.552,0,0,0,3.947-1.97c.292-.38.18-.53-.226-.645a1.748,1.748,0,0,1-1.456-1.685c-.012-.286-.163-.285-.363-.217A7.632,7.632,0,0,1,919.965,413.459Zm.006,31.261a12.7,12.7,0,0,1-1.956-.317c-.188-.068-.312-.06-.317.18a1.782,1.782,0,0,1-1.542,1.756c-.541.146-.428.38-.17.7a4.867,4.867,0,0,0,3.983,1.925,4.539,4.539,0,0,0,4.212-2.435l-.7-.272c-.437-.168-.979-.38-1.023-.835-.118-1.22-.845-.973-1.6-.806A8.455,8.455,0,0,1,919.971,444.72Zm-15.326-15.554a13.948,13.948,0,0,1-2.2-.4,1.792,1.792,0,0,1-1.525,2.008c-.5.136-.483.336-.2.693a4.91,4.91,0,0,0,4.06,1.944,4.761,4.761,0,0,0,3.951-2c.257-.329.206-.484-.188-.6-.576-.176-1.3-.39-1.367-1.011-.122-1.208-.816-.877-1.507-.753C905.331,429.109,904.987,429.128,904.646,429.166Zm30.634,0a12.05,12.05,0,0,1-2.335-.4c.141,1.447-.919,1.821-1.954,2.215a4.4,4.4,0,0,0,1.971,1.906,1.132,1.132,0,0,1,.681,1.506c-.6.655-.9.711-1.68.31a6.779,6.779,0,0,1-2.682-2.512c-.106-.17-.122-.5-.464-.382-.152.051-.279.121-.293.329-.019.281.133.386.349.518a3.142,3.142,0,0,1,1.516,3.53,3.029,3.029,0,0,1-2.976,2.31c-.357.017-.5.09-.571.482a6.67,6.67,0,0,1-2.157,3.9c-.225.205-.5.4-.38.738s.475.181.716.181c5.978.011,11.956,0,17.933.024.653,0,.86-.135.832-.816-.058-1.446-.027-2.9-.013-4.345.007-.781.381-1.213,1.007-1.227.653-.015,1.036.433,1.063,1.247a5.311,5.311,0,0,1,0,.689c-.039.4.126.519.514.509.873-.023,1.747-.021,2.621,0,.366.009.488-.125.472-.481-.029-.619.018-1.245-.046-1.86a4.318,4.318,0,0,0-2.907-3.835c-1.539-.6-3.083-1.182-4.614-1.8-.364-.147-.548-.124-.756.246a6.539,6.539,0,0,1-2.831,2.64c-.845.426-1.185.344-1.767-.4a1.235,1.235,0,0,1,.83-1.462,4.378,4.378,0,0,0,2.072-1.991c-1.111-.311-2.042-.772-1.954-2.15A11.575,11.575,0,0,1,935.28,429.165Zm-32.295-10.1c-.938-.015-1.875-.022-2.812-.048-.294-.008-.4.091-.4.391.025,1.1-.041,2.2.057,3.3a4.8,4.8,0,0,0,5.379,4.3,4.6,4.6,0,0,0,4.261-3.652,21.473,21.473,0,0,0,.168-3.492,1.748,1.748,0,0,0-.745-1.808c-.337-.227-.47-.254-.772-.027a4.78,4.78,0,0,1-2.74.969C904.586,419.03,903.785,419.043,902.985,419.066ZM920.1,442.559a4.641,4.641,0,0,0,4.569-3.454,16.121,16.121,0,0,0,.253-3.623,1.829,1.829,0,0,0-.819-1.912c-.278-.174-.39-.231-.659-.029a5.1,5.1,0,0,1-3.21,1.027c-.641-.007-1.283.017-1.924.027-.961-.011-1.923-.01-2.884-.037-.345-.01-.425.136-.418.448.018.916-.026,1.835.023,2.749A4.78,4.78,0,0,0,920.1,442.559Zm-2.345-39.331c-.728.072-1.454.158-2.184.209-.283.02-.461.035-.451.4.03,1.008-.032,2.021.033,3.027a4.819,4.819,0,0,0,9.49.787,21.829,21.829,0,0,0,.152-3.915c.016-.4-.278-.278-.477-.286-1.538-.06-3.038-.223-4.153-1.468-.184-.206-.295-.119-.436.039A4.532,4.532,0,0,1,917.754,403.228Zm17.524,23.829a4.692,4.692,0,0,0,4.561-3.485,17.1,17.1,0,0,0,.231-3.694c.032-.574-.089-.808-.732-.787a4.8,4.8,0,0,1-3.885-1.387c-.2-.212-.314-.173-.483.019a4.73,4.73,0,0,1-2.036,1.22,12.727,12.727,0,0,1-2.12.16c-.329-.017-.448.111-.441.437.026,1.1-.027,2.206.061,3.3A4.707,4.707,0,0,0,935.278,427.057Zm-.682-18.438a1.566,1.566,0,0,0-.342-.008c-4.157.808-6.28,3.979-6.135,7.994.012.342.167.431.471.424.712-.016,1.425-.016,2.137-.022,1.966.066,2.811-.344,3.32-1.686.215-.567.513-1.01,1.149-1.013.664,0,1,.434,1.2,1.042a2.246,2.246,0,0,0,1.831,1.58,11.385,11.385,0,0,0,2.129.1c2.04.009,2.04,0,1.857-2.035A6.911,6.911,0,0,0,934.6,408.619ZM919.42,392.913a10.068,10.068,0,0,0-1.208.194,7.3,7.3,0,0,0-5.3,7.854c.028.323.133.45.453.439.732-.024,1.465-.033,2.2-.049,1.6.053,2.893-.336,3.41-2.1a1.071,1.071,0,0,1,1.519-.495,1.521,1.521,0,0,1,.654.935,2.23,2.23,0,0,0,1.847,1.564,22.824,22.824,0,0,0,3.574.144c.319,0,.456-.109.448-.44a14.738,14.738,0,0,0-.144-2.469A7.025,7.025,0,0,0,919.42,392.913Zm-2.62,31.21c-2.3-.3-3.9.645-4.2,2.684a31.246,31.246,0,0,0-.059,5c.006.437.35.673.808.668.549-.006,1.1-.014,1.647-.021,1.767.008,3.534.022,5.3.023A2.992,2.992,0,0,0,923,431a1.22,1.22,0,0,1,1.347-.723,1.153,1.153,0,0,1,.928,1.136,1.145,1.145,0,0,0,.6.946c.311.169.579.209.577-.292-.005-1.446,0-2.892-.006-4.338a.849.849,0,0,0-.895-.919,2.1,2.1,0,0,1-2.224-1.757,1.1,1.1,0,0,0-1.1-.928C920.42,424.035,918.61,424.042,916.8,424.123ZM901.057,408.6c-.344-.006-.688-.033-1.031-.013a2.97,2.97,0,0,0-2.692,2.68c-.051,1.627-.017,3.258-.021,4.887,0,.52.272.748.774.743.573-.006,1.147-.01,1.72-.015,1.649.16,3.3.089,4.954.086a3.318,3.318,0,0,0,3.065-1.629,1.107,1.107,0,0,1,1.259-.628,1.161,1.161,0,0,1,.934,1.136,1.182,1.182,0,0,0,.476.878.6.6,0,0,0,.578.14c.222-.078.165-.3.165-.479,0-1.332.015-2.664,0-4-.012-.8-.287-1.077-1.058-1.155a2.039,2.039,0,0,1-2.085-1.735,1.069,1.069,0,0,0-1.111-.922C905,408.583,903.031,408.595,901.057,408.6Zm-6.489,24.7c-.429.152-.867.285-1.287.459a4.356,4.356,0,0,0-2.635,2.975,10.808,10.808,0,0,0-.169,2.805c-.006.344.226.339.466.339.872,0,1.744-.023,2.614.009.441.016.55-.155.535-.56a2.881,2.881,0,0,1,.17-1.485,1.066,1.066,0,0,1,1.306-.3,1.126,1.126,0,0,1,.584,1.154c0,1.471.03,2.942-.014,4.411-.018.584.156.715.723.713,6.019-.021,12.039-.012,18.059-.021.228,0,.549.154.677-.144.139-.324-.093-.542-.331-.753a6.564,6.564,0,0,1-2.195-3.949c-.057-.351-.181-.452-.522-.456a2.9,2.9,0,0,1-2.887-1.946,3.041,3.041,0,0,1,.733-3.424c.161-.163.365-.3.107-.588-.147.174-.289.346-.435.515a6.623,6.623,0,0,1-4.781,2.421,6.888,6.888,0,0,1-6.593-3.329c-.129-.2-.188-.45-.561-.29C896.954,432.363,895.757,432.823,894.568,433.3Zm31.458-17.044a6.984,6.984,0,0,1-12.045.182c-.083-.147-.127-.376-.382-.312-.16.04-.31.112-.3.317s-.043.417.2.6c2.006,1.511,2.276,3.108.849,5.061.179,0,.33.01.48,0,2.409-.193,4.822-.085,7.232-.067a3.026,3.026,0,0,1,3.127,2.023c.135.372.284.265.485.093a1.272,1.272,0,0,0,.005-1.855,2.908,2.908,0,0,1-.083-4.383C926.127,417.447,926.1,416.977,926.026,416.256Zm16.168,6.863a8.265,8.265,0,0,1-2.512,4.423c-.409.365-.121,1.257.383,1.452q1.67.644,3.342,1.286c.21.08.415.208.658.1.967-.449,1.262-3.3.4-3.932a.406.406,0,0,0-.059-.035A3.7,3.7,0,0,1,942.194,423.119Zm-15.242-15.755c-.1.123-.163.169-.171.225a6.911,6.911,0,0,1-2.255,4.14.946.946,0,0,0,.377,1.613c.321.123.651.226.96.374s.435.037.509-.275a9.282,9.282,0,0,1,1.433-3.1c.12-.174.263-.338.069-.546A4.177,4.177,0,0,1,926.953,407.363Zm-19.431,52.019h1.443c.184,0,.376.027.371-.26-.009-.458-.006-.917,0-1.375,0-.268-.172-.275-.368-.274-.939,0-1.879.009-2.818,0-.284,0-.39.071-.414.379-.12,1.534-.131,1.533,1.375,1.533Zm24.814,0c1.918,0,1.918,0,1.843-1.469a.36.36,0,0,1,0-.069c.042-.32-.129-.38-.408-.375-.734.014-1.468,0-2.2,0-.982,0-.982,0-.982.966,0,.943,0,.943.923.943ZM892.3,443.811c1.865,0,1.865,0,1.779-1.415a.415.415,0,0,1,0-.069c.033-.312-.132-.389-.413-.384-.641.012-1.283,0-1.925,0-1.3,0-1.283,0-1.277,1.318,0,.4.087.591.53.554S891.868,443.811,892.3,443.811Zm55.4-1.865c-.482,0-.964,0-1.446,0-.178,0-.4-.037-.4.24-.01.459,0,.917,0,1.376,0,.225.15.249.326.249q1.48,0,2.96,0c.184,0,.274-.064.318-.267.273-1.26.012-1.6-1.267-1.6ZM910.455,429.31c0-.541.018-1.02-.005-1.5a4.244,4.244,0,0,0-.091-1.473c-.423.435-.8.8-1.146,1.186a.969.969,0,0,0,.362,1.477C909.846,429.107,910.123,429.2,910.455,429.31Zm17.906-9.256c-.216-.3.339-.961-.507-.944-.68.014-1.128.376-1.129.941s.452.93,1.126.946C928.7,421.015,928.148,420.358,928.361,420.054Zm-30.637-.026c-.038-.528.209-1.162-.651-1.174a.96.96,0,0,0-.831,1,1.023,1.023,0,0,0,1.055,1.025C898.1,420.886,897.52,420.251,897.724,420.027Zm14.9,2.95c-1.036-.061-1.036-.061-1.034.949Z" transform="translate(-888.37 -390.779)" fill="#030302"/>
        <path id="Trazado_641834" data-name="Trazado 641834" d="M965.154,596.806c1.105-.445,2.214-.88,3.314-1.34.311-.13.426-.009.592.239a7.025,7.025,0,0,0,12.051.01c.2-.3.339-.334.656-.207,1.619.645,3.268,1.219,4.869,1.9a4.232,4.232,0,0,1,2.654,3.871c.046.7.31,1.617-.125,2.048-.342.339-1.261.094-1.924.108H987.1c-1.3,0-1.3,0-1.385-1.322a1.027,1.027,0,0,0-1.013-1.079,1.006,1.006,0,0,0-1.052,1.1c-.014,1.587-.022,3.173.006,4.76.008.439-.127.532-.541.527-1.77-.023-3.541-.012-5.311-.009-.9,0-1.179.233-1.355,1.112h-2.719c-.179-.881-.453-1.11-1.357-1.112-1.771,0-3.542-.015-5.312.009-.419.006-.546-.1-.538-.53.029-1.517,0-3.036.016-4.554a1.167,1.167,0,0,0-.54-1.18,1.091,1.091,0,0,0-1.277.176c-.19-.191-.105-.433-.12-.656a12.306,12.306,0,0,1,.373-3.8l.034.013-.036-.007Z" transform="translate(-943.5 -538.813)" fill="#89b3f3"/>
        <path id="Trazado_641835" data-name="Trazado 641835" d="M1030.434,541.657c.581.74.922.822,1.767.4a6.539,6.539,0,0,0,2.831-2.64c.209-.37.393-.392.756-.246,1.531.617,3.075,1.2,4.614,1.8a4.318,4.318,0,0,1,2.906,3.835c.064.615.017,1.24.046,1.86.016.356-.106.49-.472.481-.873-.02-1.748-.022-2.621,0-.387.01-.553-.113-.514-.509a5.344,5.344,0,0,0,0-.689c-.026-.814-.411-1.262-1.063-1.247-.625.014-1,.446-1.007,1.227-.014,1.449-.045,2.9.013,4.345.027.682-.18.819-.832.816-5.977-.027-11.955-.014-17.933-.024-.241,0-.588.174-.716-.181s.155-.533.38-.738a6.672,6.672,0,0,0,2.157-3.9c.066-.392.214-.465.571-.482a3.029,3.029,0,0,0,2.976-2.31,3.142,3.142,0,0,0-1.516-3.53c-.216-.132-.368-.236-.349-.518.014-.208.141-.279.293-.329.343-.113.358.212.464.382a6.777,6.777,0,0,0,2.682,2.512c.778.4,1.077.344,1.68-.31a6.789,6.789,0,0,0,1.636.137A3.134,3.134,0,0,0,1030.434,541.657Z" transform="translate(-982.278 -498.037)" fill="#f5ce74"/>
        <path id="Trazado_641836" data-name="Trazado 641836" d="M909.647,540.61c1.19-.477,2.386-.937,3.564-1.441.373-.16.431.086.561.29a6.888,6.888,0,0,0,6.593,3.329,6.623,6.623,0,0,0,4.781-2.421c.146-.169.289-.341.435-.515.259.283.054.424-.107.588a3.041,3.041,0,0,0-.733,3.424,2.9,2.9,0,0,0,2.887,1.946c.342,0,.466.1.523.456a6.564,6.564,0,0,0,2.195,3.949c.238.211.47.43.331.754-.128.3-.449.144-.677.144-6.02.009-12.04,0-18.059.021-.567,0-.741-.129-.723-.713.044-1.469.013-2.94.014-4.411a1.126,1.126,0,0,0-.584-1.154,1.066,1.066,0,0,0-1.306.3A10.563,10.563,0,0,1,909.647,540.61Z" transform="translate(-903.449 -498.088)" fill="#bbe0a4"/>
        <path id="Trazado_641837" data-name="Trazado 641837" d="M930.969,455.165c1.974-.008,3.948-.019,5.922-.021a1.069,1.069,0,0,1,1.111.922,2.039,2.039,0,0,0,2.085,1.735c.771.078,1.047.352,1.058,1.155.019,1.332.007,2.663,0,4,0,.175.057.4-.165.479a.6.6,0,0,1-.578-.14,1.182,1.182,0,0,1-.476-.878,1.161,1.161,0,0,0-.934-1.136,1.107,1.107,0,0,0-1.259.628,3.318,3.318,0,0,1-3.065,1.629c-1.651,0-3.3.074-4.953-.086,0-1.758.013-3.516,0-5.273a3.986,3.986,0,0,1,.89-2.45C930.742,455.545,930.963,455.425,930.969,455.165Z" transform="translate(-918.282 -437.341)" fill="#3e5d79"/>
        <path id="Trazado_641838" data-name="Trazado 641838" d="M986.427,511.169c1.81-.081,3.621-.088,5.431,0a1.1,1.1,0,0,1,1.1.929,2.1,2.1,0,0,0,2.223,1.757.85.85,0,0,1,.895.919c.009,1.446,0,2.892.006,4.338,0,.5-.266.461-.577.292a1.145,1.145,0,0,1-.6-.946,1.154,1.154,0,0,0-.928-1.136,1.22,1.22,0,0,0-1.347.723,2.992,2.992,0,0,1-2.706,1.478c-1.767,0-3.534-.014-5.3-.022,0-1.508-.011-3.016,0-4.524a5.338,5.338,0,0,1,.508-2.174A10.742,10.742,0,0,1,986.427,511.169Z" transform="translate(-957.997 -477.824)" fill="#3e5d79"/>
        <path id="Trazado_641839" data-name="Trazado 641839" d="M1045.379,455.19a6.911,6.911,0,0,1,7.617,6.374c.183,2.039.183,2.044-1.857,2.036a11.388,11.388,0,0,1-2.129-.1,2.245,2.245,0,0,1-1.831-1.58c-.2-.609-.536-1.045-1.2-1.042-.636,0-.934.446-1.149,1.013-.509,1.343-1.353,1.752-3.32,1.686.033-.73.008-1.455.109-2.191a8.169,8.169,0,0,1,3.01-5.44C1044.9,455.729,1045.311,455.618,1045.379,455.19Z" transform="translate(-999.153 -437.35)" fill="#3e5d79"/>
        <path id="Trazado_641840" data-name="Trazado 641840" d="M1049.467,488.988a4.731,4.731,0,0,0,2.036-1.22c.169-.192.284-.231.483-.019a4.8,4.8,0,0,0,3.885,1.387c.643-.021.764.214.732.787a17.1,17.1,0,0,1-.231,3.694,4.692,4.692,0,0,1-4.561,3.485,5.854,5.854,0,0,1-2.244-3.86A40.749,40.749,0,0,1,1049.467,488.988Z" transform="translate(-1004.903 -460.824)" fill="#f7dcce"/>
        <path id="Trazado_641841" data-name="Trazado 641841" d="M994.589,432.221a4.531,4.531,0,0,0,1.975-1.2c.141-.158.251-.245.436-.039,1.115,1.245,2.615,1.409,4.153,1.468.2.008.493-.113.477.286a21.829,21.829,0,0,1-.152,3.915,4.671,4.671,0,0,1-4.682,3.682,1.213,1.213,0,0,0-.167-.214,5.261,5.261,0,0,1-2.045-4.334C994.6,434.6,994.589,433.408,994.589,432.221Z" transform="translate(-965.206 -419.772)" fill="#f8ddcf"/>
        <path id="Trazado_641842" data-name="Trazado 641842" d="M996.555,546.1c.641-.01,1.283-.035,1.924-.027a5.1,5.1,0,0,0,3.21-1.027c.269-.2.381-.145.659.029a1.83,1.83,0,0,1,.819,1.912,16.124,16.124,0,0,1-.253,3.622,4.641,4.641,0,0,1-4.569,3.454.632.632,0,0,0-.249-.47,5.071,5.071,0,0,1-1.426-2.83A35.4,35.4,0,0,1,996.555,546.1Z" transform="translate(-966.616 -502.284)" fill="#f8ddcf"/>
        <path id="Trazado_641843" data-name="Trazado 641843" d="M941.206,489.92c.8-.022,1.6-.036,2.4-.069a4.78,4.78,0,0,0,2.74-.969c.3-.228.435-.2.772.027a1.748,1.748,0,0,1,.745,1.808,21.487,21.487,0,0,1-.168,3.493,4.6,4.6,0,0,1-4.262,3.652c-.093-.275-.337-.426-.519-.628a6.087,6.087,0,0,1-1.57-3.279A30.373,30.373,0,0,1,941.206,489.92Z" transform="translate(-926.591 -461.633)" fill="#f8ddcf"/>
        <path id="Trazado_641844" data-name="Trazado 641844" d="M991.229,482.52c.071.722.1,1.191-.429,1.66a2.908,2.908,0,0,0,.083,4.383,1.271,1.271,0,0,1-.005,1.855c-.2.172-.351.279-.485-.093a3.025,3.025,0,0,0-3.127-2.023c-2.411-.018-4.823-.126-7.232.067-.149.012-.3,0-.48,0,1.427-1.954,1.157-3.55-.849-5.061-.245-.185-.19-.385-.2-.6s.139-.277.3-.317c.255-.064.3.165.382.312A6.984,6.984,0,0,0,991.229,482.52Z" transform="translate(-953.572 -457.043)" fill="#ea8387"/>
        <path id="Trazado_641845" data-name="Trazado 641845" d="M932.816,492.922a30.382,30.382,0,0,0,.137,4.034,6.087,6.087,0,0,0,1.57,3.279c.182.2.426.353.519.628a4.8,4.8,0,0,1-5.379-4.3c-.1-1.092-.032-2.2-.057-3.3-.007-.3.1-.4.4-.391C930.941,492.9,931.879,492.907,932.816,492.922Z" transform="translate(-918.201 -464.635)" fill="#f4ccbe"/>
        <path id="Trazado_641846" data-name="Trazado 641846" d="M987.973,549.095a35.422,35.422,0,0,0,.115,4.664,5.072,5.072,0,0,0,1.426,2.83.632.632,0,0,1,.249.47,4.78,4.78,0,0,1-5.068-4.8c-.049-.914-.005-1.833-.023-2.749-.006-.312.073-.458.418-.448C986.05,549.085,987.012,549.084,987.973,549.095Z" transform="translate(-958.034 -505.279)" fill="#f2cbbc"/>
        <path id="Trazado_641847" data-name="Trazado 641847" d="M1075.891,507.7a3.7,3.7,0,0,0,2.217,3.288.419.419,0,0,1,.059.035c.857.633.562,3.484-.4,3.932-.243.113-.447-.015-.658-.1q-1.672-.64-3.342-1.286c-.5-.195-.792-1.087-.384-1.452A8.262,8.262,0,0,0,1075.891,507.7Z" transform="translate(-1022.066 -475.362)" fill="#3e5d79"/>
        <path id="Trazado_641848" data-name="Trazado 641848" d="M979.823,511.187a10.757,10.757,0,0,0-1.294,1.637,5.339,5.339,0,0,0-.508,2.174c-.012,1.508,0,3.016,0,4.524-.549.007-1.1.015-1.647.021-.458.005-.8-.232-.808-.668a31.24,31.24,0,0,1,.059-5C975.928,511.832,977.524,510.882,979.823,511.187Z" transform="translate(-951.393 -477.843)" fill="#314b61"/>
        <path id="Trazado_641849" data-name="Trazado 641849" d="M900.056,544.512a10.56,10.56,0,0,0-.3,4.542,2.879,2.879,0,0,0-.17,1.485c.016.4-.094.576-.535.56-.87-.031-1.743-.011-2.614-.009-.241,0-.472.006-.466-.339a10.808,10.808,0,0,1,.169-2.805,4.356,4.356,0,0,1,2.635-2.975C899.19,544.8,899.627,544.664,900.056,544.512Z" transform="translate(-893.859 -501.991)" fill="#9fcea4"/>
        <path id="Trazado_641850" data-name="Trazado 641850" d="M924.427,455.166c-.006.26-.227.38-.36.559a3.985,3.985,0,0,0-.89,2.45c.014,1.758,0,3.515,0,5.273-.574.005-1.147.009-1.72.015-.5.006-.776-.223-.774-.743,0-1.629-.03-3.259.021-4.887a2.97,2.97,0,0,1,2.692-2.68C923.739,455.132,924.084,455.16,924.427,455.166Z" transform="translate(-911.74 -437.342)" fill="#314b61"/>
        <path id="Trazado_641851" data-name="Trazado 641851" d="M1038.539,455.236c-.068.427-.484.539-.75.756a8.169,8.169,0,0,0-3.011,5.44c-.1.736-.076,1.461-.109,2.191-.713.007-1.425.007-2.137.022-.3.007-.459-.082-.471-.424-.145-4.015,1.978-7.186,6.135-7.994A1.566,1.566,0,0,1,1038.539,455.236Z" transform="translate(-992.312 -437.395)" fill="#314b61"/>
        <path id="Trazado_641852" data-name="Trazado 641852" d="M955.261,600.716a12.306,12.306,0,0,0-.374,3.8c.015.222-.07.465.12.656a2.182,2.182,0,0,0-.25,1.523c.019.422-.07.612-.551.589-.846-.041-1.7-.028-2.542,0-.371.01-.537-.073-.513-.485a20.63,20.63,0,0,1,.063-2.126,4.3,4.3,0,0,1,2.825-3.513C954.442,601,954.854,600.863,955.261,600.716Z" transform="translate(-933.785 -542.649)" fill="#6da0ef"/>
        <path id="Trazado_641853" data-name="Trazado 641853" d="M1042.79,492.6a40.816,40.816,0,0,0,.1,4.255,5.855,5.855,0,0,0,2.244,3.86,4.707,4.707,0,0,1-4.843-4.218c-.088-1.094-.036-2.2-.061-3.3-.008-.326.111-.454.441-.437A12.728,12.728,0,0,0,1042.79,492.6Z" transform="translate(-998.226 -464.438)" fill="#f2cbbc"/>
        <path id="Trazado_641854" data-name="Trazado 641854" d="M987.714,435.787c0,1.187.013,2.374-.005,3.561a5.261,5.261,0,0,0,2.045,4.334,1.218,1.218,0,0,1,.167.214,4.646,4.646,0,0,1-4.807-4.469c-.065-1.005,0-2.018-.033-3.027-.011-.369.167-.384.451-.4C986.26,435.945,986.986,435.859,987.714,435.787Z" transform="translate(-958.33 -423.338)" fill="#f4ccbe"/>
        <path id="Trazado_641855" data-name="Trazado 641855" d="M1046.754,533.889a6.78,6.78,0,0,1-1.636-.137,1.131,1.131,0,0,0-.681-1.506,4.4,4.4,0,0,1-1.971-1.907c1.035-.394,2.094-.768,1.953-2.215a12.052,12.052,0,0,0,2.335.4Q1046.754,531.206,1046.754,533.889Z" transform="translate(-999.844 -490.135)" fill="#f0b2a1"/>
        <path id="Trazado_641856" data-name="Trazado 641856" d="M1057.969,533.965q0-2.684,0-5.368a11.565,11.565,0,0,0,2.194-.369c-.088,1.378.844,1.839,1.954,2.15a4.377,4.377,0,0,1-2.072,1.991,1.235,1.235,0,0,0-.83,1.462A3.138,3.138,0,0,1,1057.969,533.965Z" transform="translate(-1011.059 -490.211)" fill="#f4ccbe"/>
        <path id="Trazado_641857" data-name="Trazado 641857" d="M947.176,528.9c.341-.038.686-.056,1.023-.117.691-.124,1.385-.456,1.507.753.063.621.791.836,1.367,1.011.394.121.445.276.188.6a4.761,4.761,0,0,1-3.951,2A28.029,28.029,0,0,1,947.176,528.9Z" transform="translate(-930.9 -490.513)" fill="#f4ccbe"/>
        <path id="Trazado_641858" data-name="Trazado 641858" d="M1002.613,585.162a8.43,8.43,0,0,0,.884-.1c.758-.167,1.484-.414,1.6.806.044.455.586.667,1.023.835l.7.272a4.54,4.54,0,0,1-4.212,2.435Z" transform="translate(-971.012 -531.221)" fill="#f4ccbe"/>
        <path id="Trazado_641859" data-name="Trazado 641859" d="M991.635,584.874q0,2.122,0,4.244a4.868,4.868,0,0,1-3.983-1.925c-.258-.321-.371-.555.17-.7a1.782,1.782,0,0,0,1.542-1.756c.005-.24.129-.248.317-.18A12.688,12.688,0,0,0,991.635,584.874Z" transform="translate(-960.034 -530.932)" fill="#efb0a0"/>
        <path id="Trazado_641860" data-name="Trazado 641860" d="M991.78,476.174a4.635,4.635,0,0,1-3.954-1.935c-.262-.333-.261-.525.186-.668.835-.268,1.485-.724,1.5-1.717.005-.294.192-.263.377-.205a8.565,8.565,0,0,0,1.892.285Q991.782,474.054,991.78,476.174Z" transform="translate(-960.189 -449.253)" fill="#f0b2a1"/>
        <path id="Trazado_641861" data-name="Trazado 641861" d="M936.425,528.527a28.051,28.051,0,0,0,.135,4.248,4.91,4.91,0,0,1-4.06-1.944c-.285-.357-.3-.558.2-.693a1.793,1.793,0,0,0,1.525-2.008A13.941,13.941,0,0,0,936.425,528.527Z" transform="translate(-920.149 -490.14)" fill="#f0b2a1"/>
        <path id="Trazado_641862" data-name="Trazado 641862" d="M1002.587,476.2q0-2.12,0-4.241a7.632,7.632,0,0,0,1.9-.277c.2-.068.351-.069.364.217a1.748,1.748,0,0,0,1.456,1.685c.406.115.518.265.226.645A4.552,4.552,0,0,1,1002.587,476.2Z" transform="translate(-970.995 -449.275)" fill="#f4ccbe"/>
        <path id="Trazado_641863" data-name="Trazado 641863" d="M1020.688,450.739a4.179,4.179,0,0,0,.922,2.429c.195.208.051.371-.069.545a9.28,9.28,0,0,0-1.433,3.1c-.074.313-.186.43-.51.275s-.639-.251-.96-.374a.946.946,0,0,1-.377-1.613,6.911,6.911,0,0,0,2.255-4.14C1020.525,450.909,1020.592,450.862,1020.688,450.739Z" transform="translate(-982.105 -434.154)" fill="#3e5d79"/>
        <path id="Trazado_641864" data-name="Trazado 641864" d="M952.812,633.807H952.4c-1.506,0-1.495,0-1.375-1.533.024-.308.13-.383.414-.379.939.012,1.879.006,2.818,0,.2,0,.37.006.368.274,0,.458-.007.917,0,1.375.005.286-.186.26-.371.26Z" transform="translate(-933.66 -565.204)" fill="#efb0a0"/>
        <path id="Trazado_641865" data-name="Trazado 641865" d="M1042.752,633.807h-.826c-.923,0-.923,0-.923-.943,0-.966,0-.966.982-.966.734,0,1.468.009,2.2,0,.279,0,.45.055.408.375a.351.351,0,0,0,0,.069C1044.67,633.807,1044.671,633.807,1042.752,633.807Z" transform="translate(-998.786 -565.203)" fill="#f2cbbc"/>
        <path id="Trazado_641866" data-name="Trazado 641866" d="M897.788,577.628c-.435,0-.873-.028-1.306.008s-.528-.152-.53-.554c-.007-1.318-.023-1.318,1.276-1.318.642,0,1.284.009,1.925,0,.28,0,.445.072.413.384a.415.415,0,0,0,0,.069C899.653,577.628,899.653,577.628,897.788,577.628Z" transform="translate(-893.854 -524.595)" fill="#efb0a0"/>
        <path id="Trazado_641867" data-name="Trazado 641867" d="M1098.017,575.768h.482c1.279,0,1.54.338,1.267,1.6-.044.2-.133.267-.318.267q-1.48,0-2.96,0c-.176,0-.326-.024-.325-.249,0-.459-.006-.918,0-1.376.006-.277.227-.238.4-.24C1097.053,575.765,1097.535,575.768,1098.017,575.768Z" transform="translate(-1038.688 -524.601)" fill="#f2cbbc"/>
        <path id="Trazado_641868" data-name="Trazado 641868" d="M1033.484,517.029a9.587,9.587,0,0,0,1.382,1.694.937.937,0,0,1-.344,1.628c-.383.147-.77.289-1.145.456-.424.189-.57.066-.565-.391a7.011,7.011,0,0,0-.276-2.84C1032.922,517.516,1032.991,516.905,1033.484,517.029Z" transform="translate(-992.66 -482.097)" fill="#3e5d79"/>
        <path id="Trazado_641869" data-name="Trazado 641869" d="M978.415,460.166a10.067,10.067,0,0,0,1.49,1.793.9.9,0,0,1-.281,1.534c-.551.219-1.29.721-1.628.532-.429-.241-.082-1.086-.165-1.661-.066-.452-.176-.9-.266-1.346C977.77,460.657,977.924,460.243,978.415,460.166Z" transform="translate(-952.894 -440.974)" fill="#3e5d79"/>
        <path id="Trazado_641870" data-name="Trazado 641870" d="M964.424,522.322c-.332-.115-.61-.2-.881-.306a.969.969,0,0,1-.362-1.477c.35-.386.724-.751,1.147-1.186a4.244,4.244,0,0,1,.091,1.473C964.442,521.3,964.424,521.781,964.424,522.322Z" transform="translate(-942.338 -483.79)" fill="#ea8387"/>
        <path id="Trazado_641871" data-name="Trazado 641871" d="M1028.679,494.151c-.214.3.336.962-.51.943-.674-.015-1.126-.381-1.126-.946s.449-.927,1.129-.941C1029.019,493.19,1028.464,493.848,1028.679,494.151Z" transform="translate(-988.688 -464.876)" fill="#efb0a0"/>
        <path id="Trazado_641872" data-name="Trazado 641872" d="M918.312,493.456c-.2.223.379.859-.428.849a1.023,1.023,0,0,1-1.055-1.025.96.96,0,0,1,.831-1C918.521,492.294,918.273,492.928,918.312,493.456Z" transform="translate(-908.957 -464.207)" fill="#efb0a0"/>
        <path id="Trazado_641873" data-name="Trazado 641873" d="M976.559,453.6c-.491.077-.644.491-.85.852-.656-.627-1.028-1.26-.347-2.147.225-.292.186-.787.332-1.213A13.929,13.929,0,0,0,976.559,453.6Z" transform="translate(-951.038 -434.413)" fill="#314b61"/>
        <path id="Trazado_641874" data-name="Trazado 641874" d="M1031.6,510.346c-.493-.124-.562.487-.949.547-.178-.207-.353-.416-.536-.618-.13-.143-.26-.308-.134-.487a4.2,4.2,0,0,0,.652-2.013A15.943,15.943,0,0,0,1031.6,510.346Z" transform="translate(-990.774 -475.415)" fill="#314b61"/>
        <path id="Trazado_641875" data-name="Trazado 641875" d="M973.055,550.646c-.731-.088-1.065-.476-.989-1.146.089-.777.634-1,1.385-.569A2.289,2.289,0,0,0,973.055,550.646Z" transform="translate(-948.909 -505.03)" fill="#efb0a0"/>
        <path id="Trazado_641876" data-name="Trazado 641876" d="M1083.438,494.991c-.526.193-.844.109-.762-.551a2.631,2.631,0,0,0,0-.619c-.074-.639.211-.769.756-.56Q1083.436,494.126,1083.438,494.991Z" transform="translate(-1028.923 -464.848)" fill="#efb0a0"/>
        <path id="Trazado_641877" data-name="Trazado 641877" d="M1028.642,550.369c-.5.209-.78.121-.719-.5a4.189,4.189,0,0,0,0-.821c-.056-.563.171-.765.715-.611Q1028.64,549.4,1028.642,550.369Z" transform="translate(-989.318 -504.796)" fill="#efb0a0"/>
        <path id="Trazado_641878" data-name="Trazado 641878" d="M973.354,494.158c-.483.138-.75.029-.677-.545a3.9,3.9,0,0,0,0-.827c-.047-.518.15-.742.676-.62Q973.354,493.162,973.354,494.158Z" transform="translate(-949.349 -464.1)" fill="#efb0a0"/>
        <path id="Trazado_641879" data-name="Trazado 641879" d="M975.156,494.242q0-1,0-1.991a.917.917,0,0,1,.782,1.029A.9.9,0,0,1,975.156,494.242Z" transform="translate(-951.152 -464.185)" fill="#f2cbbc"/>
        <path id="Trazado_641880" data-name="Trazado 641880" d="M1085.451,495.233q0-.865-.005-1.73a.761.761,0,0,1,.741.825A.793.793,0,0,1,1085.451,495.233Z" transform="translate(-1030.936 -465.09)" fill="#f2cbbc"/>
        <path id="Trazado_641881" data-name="Trazado 641881" d="M1030.534,550.5q0-.965,0-1.929a.876.876,0,0,1,.707,1A.837.837,0,0,1,1030.534,550.5Z" transform="translate(-991.21 -504.926)" fill="#f2cbbc"/>
        <path id="Trazado_641882" data-name="Trazado 641882" d="M975.643,551.215a2.289,2.289,0,0,1,.4-1.715c.009.475.012.95.03,1.424C976.082,551.263,975.911,551.3,975.643,551.215Z" transform="translate(-951.497 -505.599)" fill="#f4ccbe"/>
        <path id="Trazado_641883" data-name="Trazado 641883" d="M973.353,507.136l-1.034.949C972.317,507.074,972.317,507.074,973.353,507.136Z" transform="translate(-949.099 -474.936)" fill="#ea8387"/>
        <path id="Trazado_641884" data-name="Trazado 641884" d="M966.19,600.448l-.179.08Z" transform="translate(-944.536 -542.455)" fill="#6da0ef"/>
      </g>
    </g>
  </g>
</svg>
