<svg xmlns="http://www.w3.org/2000/svg" width="105" height="104.465" viewBox="0 0 105 104.465">
  <g id="Grupo_982887" data-name="Grupo 982887" transform="translate(-600 -4582.234)">
    <path id="Trazado_626454" data-name="Trazado 626454" d="M0,0H105V104.465H0Z" transform="translate(600 4582.234)" fill="#f0bd51"/>
    <g id="Grupo_982826" data-name="Grupo 982826" transform="translate(-615.443 4318.642)">
      <path id="Trazado_641937" data-name="Trazado 641937" d="M1274.978,290.724l13.384,12.033v43.037a2.867,2.867,0,0,1-2.867,2.866h-39.507a2.867,2.867,0,0,1-2.867-2.866V292.908a2.867,2.867,0,0,1,2.934-2.866Z" transform="translate(-2.041 -3.529)" fill="#f6f8f9"/>
      <path id="Trazado_641938" data-name="Trazado 641938" d="M1289.366,328.745a.967.967,0,0,1,.83,1.109c-.018.93-.04,1.862,0,2.79a4.087,4.087,0,0,1-1.82,3.879c.6.621,1.188,1.231,1.784,1.829a1.625,1.625,0,0,1,.337,2.371q-1.3,2.259-2.6,4.515a1.512,1.512,0,0,1-2.5.558c-.2-.145-.314-.074-.465.005a4.228,4.228,0,0,1-2,.438q-11.813-.009-23.625,0a2.451,2.451,0,0,1-.474-.014.843.843,0,0,1-.754-.914.831.831,0,0,1,.766-.842,3.612,3.612,0,0,1,.593-.013h23.091c.217,0,.434-.012.652-.018a3.149,3.149,0,0,0,.464-.048c.7-.175.718-.227.369-.831q-.812-1.406-1.624-2.812a1.6,1.6,0,0,1,.3-2.365q.608-.605,1.221-1.205c.591-.581.591-.581-.118-1.057l0,0a4.547,4.547,0,0,1-1.247-3.389c.029-7.711.014-15.422.016-23.134,0-.3.058-.571-.389-.639a.758.758,0,0,1-.625-.826.793.793,0,0,1,.686-.843c.3-.047.333-.186.331-.432-.009-.811,0-1.621,0-2.432a1.375,1.375,0,0,1,.691-1.29.545.545,0,0,0,.283-.575c-.009-.751.041-1.506-.021-2.253-.031-.368.4-.825-.007-1.049-.3-.164-.77-.02-1.165-.013l-4.807-.023a3.857,3.857,0,0,1-4.087-4.089c0-2.474-.012-4.948.01-7.422,0-.417-.1-.517-.517-.517q-14.218.019-28.436.011a2.1,2.1,0,0,0-2.27,2.306q-.008,5.226,0,10.451a3.666,3.666,0,0,1-.02.592.807.807,0,0,1-.756.716.837.837,0,0,1-.91-.515,1.658,1.658,0,0,1-.095-.758q0-5.166,0-10.332a3.907,3.907,0,0,1,4.245-4.244q14.574,0,29.149-.013a1.946,1.946,0,0,1,1.506.639q5.5,5.541,11.03,11.053a1.7,1.7,0,0,0,.789.475,2.827,2.827,0,0,1,2.048,2.744c.015.752.011,1.5,0,2.256a.559.559,0,0,0,.3.57,1.411,1.411,0,0,1,.676,1.3c-.006.792.013,1.584-.008,2.375-.009.328.081.43.424.439,2.047.051,3,1.056,3,3.122q0,5.047,0,10.095a1.66,1.66,0,0,1-.1.758.833.833,0,0,1-.912.514.817.817,0,0,1-.751-.724,3.94,3.94,0,0,1-.02-.592q0-5.047,0-10.095a2.789,2.789,0,0,0-.035-.59c-.124-.561-.549-.79-1.306-.712-.6.062-.277.53-.278.778q-.033,7.838-.01,15.676c0,.617-.193,1.036-.832,1.169-.745-.139-.955-.388-.956-1.165q0-7.572,0-15.143c0-1.39,0-1.39-1.428-1.29-.73-.009-1.462,0-2.19-.035-.382-.02-.456.12-.453.471.017,1.68.008,3.36.008,5.04q0,9.249,0,18.5a2.034,2.034,0,1,0,4.057.229c.019-1.142,0-2.284.007-3.426C1288.414,329.131,1288.644,328.876,1289.366,328.745Zm-4.993-23.965c-.009.689-.009,1.379-.032,2.067-.01.295.068.426.393.414.747-.028,1.5-.024,2.244-.032a.378.378,0,0,0,.058.012c1.374.074,1.374.074,1.374-1.281s0-1.349-1.43-1.27l-2.495,0C1284.409,304.673,1284.359,304.688,1284.373,304.78Zm-.422-7.34-8.716-8.715c0,2.164-.021,4.437.009,6.709a2.024,2.024,0,0,0,2.075,2c1.028.016,2.057,0,3.086,0Zm1.494,45.033.108-.028c0-.622-.015-1.244,0-1.866a.85.85,0,0,1,.84-.888c.553-.021.917.353.931.987.013.59,0,1.181,0,1.772.575-.8,1.032-1.609,1.509-2.4.132-.22.147-.359-.056-.552q-1.075-1.021-2.112-2.081c-.181-.185-.283-.185-.465,0-.695.7-1.407,1.389-2.112,2.082-.125.123-.26.218-.123.445C1284.476,340.775,1284.956,341.627,1285.445,342.473Zm-.129-41.125c0,1.559,0,1.559,1.582,1.537.079,0,.158,0,.237,0,.228.011.314-.1.313-.321-.007-.77.024-1.542-.016-2.31a1.057,1.057,0,1,0-2.112.088C1285.308,300.676,1285.317,301.012,1285.316,301.348Z" transform="translate(-0.006)" fill="#020202"/>
      <path id="Trazado_641939" data-name="Trazado 641939" d="M1296.026,341.37a15.2,15.2,0,0,1,13.074,7.409,1.63,1.63,0,0,1,.005,1.878,15.267,15.267,0,0,1-26.136-.02,1.618,1.618,0,0,1,0-1.833A15.217,15.217,0,0,1,1296.026,341.37Zm-7.2,12.767c.048.013.127.051.139.036.047-.058,0-.1-.056-.124a.968.968,0,0,0-.056-.167,8.231,8.231,0,0,1-.05-8.247c.055-.1.14-.2.023-.351a13.288,13.288,0,0,0-4.206,4.234c-.121.191-.047.321.052.476A12.9,12.9,0,0,0,1288.825,354.137Zm13.742-4.425a6.532,6.532,0,1,0-6.517,6.529A6.548,6.548,0,0,0,1302.567,349.713Zm.464,4.537a2.565,2.565,0,0,0,.29-.126,13.581,13.581,0,0,0,4.075-4.079.543.543,0,0,0-.027-.689,13.524,13.524,0,0,0-3.789-3.872c-.121-.081-.228-.228-.445-.158A8.441,8.441,0,0,1,1303.031,354.249Z" transform="translate(-32.188 -42.64)" fill="#030303"/>
      <path id="Trazado_641940" data-name="Trazado 641940" d="M1240.447,381.032q0-9.32,0-18.639c0-.178-.01-.357,0-.534a.923.923,0,0,1,.9-.918.9.9,0,0,1,.873.931c.01.2,0,.4,0,.593q0,18.491,0,36.981c0,1.8.754,2.561,2.552,2.561h9.792c.158,0,.317-.008.474,0a.908.908,0,0,1,.911.9.9.9,0,0,1-.937.874c-.969.017-1.938.005-2.908.005q-3.8,0-7.6,0a3.873,3.873,0,0,1-4.069-4.059Q1240.438,390.381,1240.447,381.032Z" transform="translate(0 -57.553)" fill="#040404"/>
      <path id="Trazado_641941" data-name="Trazado 641941" d="M1271.706,469.214a23.382,23.382,0,0,1,2.9.03c.726.092,1.281.149,1.787-.526.27-.361.776-.239,1.105.1a.82.82,0,0,1,.074,1.135,13.885,13.885,0,0,1-1.04,1.217,1.2,1.2,0,0,0-.343.9c.018,1.484.012,2.968.006,4.452,0,1.258-.554,1.813-1.8,1.817q-2.76.009-5.519,0c-1.224,0-1.786-.557-1.791-1.771q-.012-2.82,0-5.64a1.512,1.512,0,0,1,1.711-1.716C1269.767,469.208,1270.736,469.214,1271.706,469.214Zm2.71,4.43c-.5.579-.878,1.031-1.274,1.463a.88.88,0,0,1-1.356.1,19.375,19.375,0,0,1-1.387-1.546.8.8,0,0,1,.107-1.172.82.82,0,0,1,1.179-.006,5.539,5.539,0,0,1,.528.562c.108.12.206.178.337.026.57-.663,1.143-1.324,1.789-2.07-1.792,0-3.434.007-5.075-.006-.32,0-.4.115-.4.414q.016,2.375,0,4.751c0,.309.1.413.412.411q2.375-.016,4.75,0c.269,0,.4-.071.393-.367C1274.406,475.409,1274.416,474.619,1274.416,473.645Z" transform="translate(-20.296 -139.51)" fill="#040404"/>
      <path id="Trazado_641942" data-name="Trazado 641942" d="M1271.592,429.16c-.949,0-1.9.006-2.848,0a1.509,1.509,0,0,1-1.66-1.654q-.023-2.908,0-5.816a1.518,1.518,0,0,1,1.713-1.664c1.9-.006,3.8,0,5.7,0a.348.348,0,0,1,.118,0,1.375,1.375,0,0,0,1.787-.489c.252-.325.741-.229,1.07.074a.843.843,0,0,1,.161,1.083,1.187,1.187,0,0,1-.292.371,3.36,3.36,0,0,0-1.162,3.154,31.944,31.944,0,0,1,.017,3.262,1.514,1.514,0,0,1-1.692,1.681C1273.531,429.165,1272.562,429.16,1271.592,429.16Zm2.816-4.684c-.508.581-.88,1.029-1.276,1.455a.876.876,0,0,1-1.434.016c-.412-.427-.807-.87-1.2-1.318a.893.893,0,0,1-.01-1.32.906.906,0,0,1,1.314.116c.613.606.613.606,1.185-.054.285-.329.578-.651.851-.99.137-.17.367-.293.362-.578-1.649,0-3.271.007-4.892-.006-.316,0-.46.062-.456.419.016,1.583.012,3.165,0,4.748,0,.289.056.422.387.419,1.6-.015,3.2-.007,4.807-.007.18,0,.362.023.359-.256C1274.4,426.3,1274.408,425.482,1274.408,424.476Z" transform="translate(-20.291 -102.046)" fill="#020303"/>
      <path id="Trazado_641943" data-name="Trazado 641943" d="M1406.593,343.332c.394-.007.864-.151,1.165.013.41.224-.024.681.007,1.049.062.746.012,1.5.021,2.253a.545.545,0,0,1-.283.575,1.375,1.375,0,0,0-.691,1.29c.006.811,0,1.621,0,2.432,0,.246-.031.385-.331.432a.793.793,0,0,0-.686.843.758.758,0,0,0,.625.826c.447.068.389.342.389.639,0,7.711.013,15.422-.016,23.134a4.547,4.547,0,0,0,1.247,3.389,2.755,2.755,0,0,1-2.632-2.731q0-10.411,0-20.822c0-.988-.015-1.978.007-2.966.009-.4-.1-.605-.528-.548a2.216,2.216,0,0,1-.355,0c-.654-.021-1.044-.391-1.023-.971.018-.493.412-.8,1.032-.807.932-.008.864.116.866-.852,0-.633.009-1.266,0-1.9-.007-.422.129-.7.6-.694.354.008.359-.216.358-.472,0-.83.012-1.661-.006-2.491A4.019,4.019,0,0,1,1406.593,343.332Z" transform="translate(-124.255 -44.086)" fill="#d8e0e4"/>
      <path id="Trazado_641944" data-name="Trazado 641944" d="M1436.028,404.351c-.722.131-.951.385-.955,1.1-.007,1.142.011,2.284-.007,3.426a1.991,1.991,0,0,1-2.138,2.012,4.585,4.585,0,0,0,.725-3.024q-.026-11.595-.01-23.19c1.428-.1,1.428-.1,1.428,1.29q0,7.572,0,15.143c0,.777.21,1.026.956,1.165Q1436.028,403.311,1436.028,404.351Z" transform="translate(-146.669 -75.606)" fill="#80a3f6"/>
      <path id="Trazado_641945" data-name="Trazado 641945" d="M1333.537,430h8.549a4.426,4.426,0,0,1,.593.019.811.811,0,0,1,.756.846.8.8,0,0,1-.661.865,2.86,2.86,0,0,1-.646.054q-8.579,0-17.158,0a2.913,2.913,0,0,1-.59-.037.876.876,0,0,1,.075-1.734,4.934,4.934,0,0,1,.534-.014Z" transform="translate(-63.406 -110.175)" fill="#070707"/>
      <path id="Trazado_641946" data-name="Trazado 641946" d="M1333.52,445.416h8.549c.178,0,.357,0,.534.011a.847.847,0,0,1,.838.84.873.873,0,0,1-.82.919,3.935,3.935,0,0,1-.533.018q-8.55,0-17.1,0a3.277,3.277,0,0,1-.591-.033.875.875,0,0,1,.039-1.735,4.63,4.63,0,0,1,.593-.019Z" transform="translate(-63.407 -121.921)" fill="#080808"/>
      <path id="Trazado_641947" data-name="Trazado 641947" d="M1333.476,480.921c-2.929,0-5.858,0-8.787,0a.973.973,0,0,1-.993-.5.873.873,0,0,1,.6-1.249,2.811,2.811,0,0,1,.648-.04q8.55,0,17.1,0c.119,0,.238,0,.356,0a.928.928,0,0,1,1,.941c-.026.518-.4.838-1.018.839Q1337.929,480.926,1333.476,480.921Z" transform="translate(-63.364 -147.615)" fill="#040404"/>
      <path id="Trazado_641948" data-name="Trazado 641948" d="M1333.51,496.362h-8.549a4.025,4.025,0,0,1-.534-.01.879.879,0,0,1-.15-1.716,2.2,2.2,0,0,1,.645-.054q8.609,0,17.217,0a2.558,2.558,0,0,1,.532.02.846.846,0,0,1,.752.918.825.825,0,0,1-.83.839c-.157.013-.316.006-.475.006Z" transform="translate(-63.398 -159.38)" fill="#020303"/>
      <path id="Trazado_641949" data-name="Trazado 641949" d="M1412.241,498.452c.709.476.708.476.118,1.057q-.612.6-1.221,1.205a1.6,1.6,0,0,0-.3,2.365q.81,1.407,1.624,2.812c.349.6.329.656-.369.831a3.144,3.144,0,0,1-.464.048,30.407,30.407,0,0,0-1.505-2.723c-.323-.584-.664-1.158-1-1.734-.236-.4,0-.693.265-.925.863-.747,1.661-1.56,2.466-2.366C1412.016,498.857,1412.223,498.718,1412.241,498.452Z" transform="translate(-128.454 -162.334)" fill="#d8e0e4"/>
      <path id="Trazado_641950" data-name="Trazado 641950" d="M1427.471,384.675q0,11.6.01,23.19a4.584,4.584,0,0,1-.725,3.024,1.988,1.988,0,0,1-1.919-2.241q0-9.249,0-18.5c0-1.68.009-3.36-.008-5.04,0-.351.071-.491.453-.471C1426.009,384.679,1426.741,384.666,1427.471,384.675Z" transform="translate(-140.497 -75.61)" fill="#95b9f8"/>
      <path id="Trazado_641951" data-name="Trazado 641951" d="M1395.278,308.052h-3.547c-1.029,0-2.057.012-3.086,0a2.024,2.024,0,0,1-2.075-2c-.029-2.272-.009-4.545-.009-6.709Z" transform="translate(-111.333 -10.612)" fill="#94b8f6"/>
      <path id="Trazado_641952" data-name="Trazado 641952" d="M1424.587,508.507c-.489-.846-.969-1.7-1.472-2.535-.136-.227,0-.322.123-.445.7-.693,1.417-1.379,2.112-2.082.182-.184.284-.184.465,0q1.039,1.058,2.112,2.081c.2.193.188.332.056.552-.477.8-.934,1.6-1.509,2.4,0-.591.01-1.182,0-1.772-.014-.635-.378-1.009-.931-.987a.85.85,0,0,0-.84.888c-.019.621,0,1.244,0,1.866Z" transform="translate(-139.149 -166.034)" fill="#f4d047"/>
      <path id="Trazado_641953" data-name="Trazado 641953" d="M1428.933,345.581c0-.336-.009-.672,0-1.007a1.057,1.057,0,1,1,2.112-.088c.04.768.01,1.54.016,2.31,0,.221-.085.332-.312.321-.079,0-.158,0-.237,0C1428.932,347.14,1428.932,347.14,1428.933,345.581Z" transform="translate(-143.623 -44.233)" fill="#3e5c78"/>
      <path id="Trazado_641954" data-name="Trazado 641954" d="M1427.476,368.943c-.748.009-1.5,0-2.244.032-.325.012-.4-.119-.393-.414.023-.689.023-1.378.032-2.067l.112-.093,2.495,0Q1427.477,367.674,1427.476,368.943Z" transform="translate(-140.505 -61.714)" fill="#95b9f8"/>
      <path id="Trazado_641955" data-name="Trazado 641955" d="M1435.92,368.862q0-1.269,0-2.539c1.43-.079,1.43-.079,1.43,1.27s0,1.355-1.374,1.281A.382.382,0,0,1,1435.92,368.862Z" transform="translate(-148.949 -61.633)" fill="#80a3f6"/>
      <path id="Trazado_641956" data-name="Trazado 641956" d="M1425.08,366.386l-.112.093C1424.955,366.387,1425.005,366.372,1425.08,366.386Z" transform="translate(-140.602 -61.699)" fill="#80a3f6"/>
      <path id="Trazado_641957" data-name="Trazado 641957" d="M1324.388,355.49a6.532,6.532,0,0,1-13.065.012,6.532,6.532,0,1,1,13.065-.012Zm-10.953,0a4.434,4.434,0,1,0,4.466-4.426A4.462,4.462,0,0,0,1313.435,355.49Z" transform="translate(-54.009 -48.418)" fill="#93b7f5"/>
      <path id="Trazado_641958" data-name="Trazado 641958" d="M1368.161,366.854a8.441,8.441,0,0,0,.1-8.924c.217-.07.324.077.445.158a13.524,13.524,0,0,1,3.789,3.872.543.543,0,0,1,.027.689,13.581,13.581,0,0,1-4.075,4.079A2.577,2.577,0,0,1,1368.161,366.854Z" transform="translate(-97.318 -55.245)" fill="#d8e0e4"/>
      <path id="Trazado_641959" data-name="Trazado 641959" d="M1294.814,366.669a12.9,12.9,0,0,1-4.153-4.143c-.1-.154-.173-.285-.052-.476a13.286,13.286,0,0,1,4.206-4.234c.117.153.032.246-.023.351a8.231,8.231,0,0,0,.05,8.247.969.969,0,0,1,.056.167Z" transform="translate(-38.177 -55.172)" fill="#d8e0e4"/>
      <path id="Trazado_641960" data-name="Trazado 641960" d="M1308.562,394.638c.059.025.1.067.056.124-.013.015-.091-.022-.139-.036Z" transform="translate(-51.842 -83.23)" fill="#d8e0e4"/>
      <path id="Trazado_641961" data-name="Trazado 641961" d="M1280.132,481.626c0,.974-.009,1.765,0,2.555.005.3-.124.368-.393.367q-2.375-.011-4.75,0c-.308,0-.414-.1-.412-.411q.016-2.375,0-4.751c0-.3.078-.417.4-.414,1.641.013,3.283.006,5.075.006-.646.747-1.219,1.407-1.789,2.071-.13.151-.229.094-.337-.026a5.539,5.539,0,0,0-.528-.562.82.82,0,0,0-1.179.006.8.8,0,0,0-.107,1.172,19.4,19.4,0,0,0,1.387,1.546.88.88,0,0,0,1.356-.1C1279.254,482.657,1279.629,482.2,1280.132,481.626Z" transform="translate(-26.013 -147.491)" fill="#86cfa3"/>
      <path id="Trazado_641962" data-name="Trazado 641962" d="M1280.121,432.372c0,1.006-.005,1.826,0,2.646,0,.279-.178.256-.359.256-1.6,0-3.2-.009-4.807.007-.331,0-.388-.13-.387-.419.01-1.583.014-3.166,0-4.748,0-.357.14-.422.456-.419,1.622.012,3.244.006,4.892.006.005.285-.225.409-.362.578-.273.338-.566.661-.851.989-.572.66-.572.66-1.185.054a.906.906,0,0,0-1.314-.116.893.893,0,0,0,.01,1.32c.389.448.784.891,1.2,1.318a.876.876,0,0,0,1.434-.016C1279.242,433.4,1279.614,432.954,1280.121,432.372Z" transform="translate(-26.003 -109.942)" fill="#86cfa3"/>
      <path id="Trazado_641963" data-name="Trazado 641963" d="M1320.2,362.253a4.434,4.434,0,1,1,4.455,4.443A4.446,4.446,0,0,1,1320.2,362.253Zm1.782-.032a2.653,2.653,0,1,0,2.672-2.613A2.671,2.671,0,0,0,1321.978,362.221Z" transform="translate(-60.77 -55.18)" fill="#020303"/>
      <path id="Trazado_641964" data-name="Trazado 641964" d="M1327.681,367.924a2.652,2.652,0,0,1,5.3.045,2.653,2.653,0,1,1-5.3-.045Z" transform="translate(-66.473 -60.883)" fill="#f4d047"/>
    </g>
  </g>
</svg>
