<svg xmlns="http://www.w3.org/2000/svg" width="105" height="104.465" viewBox="0 0 105 104.465">
  <g id="Grupo_982888" data-name="Grupo 982888" transform="translate(-600 -4582.234)">
    <path id="Trazado_626454" data-name="Trazado 626454" d="M0,0H105V104.465H0Z" transform="translate(600 4582.234)" fill="#f0bd51"/>
    <g id="Grupo_982830" data-name="Grupo 982830" transform="translate(252.635 3865.289)">
      <path id="Trazado_642007" data-name="Trazado 642007" d="M413.553,855.121l-2.946,0q-.237-1.161-1.178-1.186c-.625-.017-1.033.368-1.255,1.185H405.2c-.264-.945-.582-1.189-1.569-1.189H383.5a2.041,2.041,0,0,1-2.319-2.3q0-12.868,0-25.736a2.714,2.714,0,0,1,2.986-3h50.415a2.712,2.712,0,0,1,2.987,3q0,12.838,0,25.676c0,1.613-.752,2.359-2.381,2.359h-20.07C414.134,853.931,413.813,854.178,413.553,855.121Zm-19.214-5.984q3.851,0,7.7,0c1.072,0,1.489-.413,1.49-1.474q0-4.3,0-8.594c0-1.05-.428-1.477-1.492-1.477q-7.672,0-15.343,0c-1.089,0-1.53.432-1.532,1.508q-.007,4.267,0,8.534c0,1.077.442,1.5,1.533,1.5Q390.518,849.139,394.339,849.137Zm26.213-2.39H409.03a5.568,5.568,0,0,0-.6.012,1.182,1.182,0,0,0-.25,2.3,2.1,2.1,0,0,0,.766.075q11.522,0,23.045,0a3.469,3.469,0,0,0,.536-.016,1.174,1.174,0,0,0,1.014-1.319,1.188,1.188,0,0,0-1.35-1.051Q426.373,846.743,420.552,846.747Zm-2.632-6.767h8.78a6.055,6.055,0,0,0,.656-.018,1.176,1.176,0,0,0,.17-2.3,2.921,2.921,0,0,0-.709-.066q-8.93-.005-17.86,0a3.392,3.392,0,0,0-.708.067,1.073,1.073,0,0,0-.8.729c-.312.834.275,1.586,1.273,1.589C411.788,839.986,414.854,839.98,417.921,839.981Zm-2.361,2.2H409c-1.076,0-1.649.424-1.636,1.205s.591,1.187,1.669,1.187q6.531,0,13.062,0a3.185,3.185,0,0,0,.767-.072,1.173,1.173,0,0,0-.146-2.292,4.882,4.882,0,0,0-.655-.025Q418.81,842.175,415.56,842.177Z" transform="translate(-7.598 -60.855)" fill="#fbefa9"/>
      <path id="Trazado_642008" data-name="Trazado 642008" d="M405.955,794.266c.26-.943.581-1.189,1.568-1.189h20.07c1.629,0,2.381-.746,2.381-2.359q0-12.838,0-25.676a2.712,2.712,0,0,0-2.987-3H376.572a2.714,2.714,0,0,0-2.986,3q0,12.868,0,25.736a2.041,2.041,0,0,0,2.319,2.3h20.13c.987,0,1.305.244,1.569,1.189-.249.958-.557,1.2-1.549,1.2q-10.123,0-20.245,0a4.386,4.386,0,0,1-4.615-4.6q0-21.67,0-43.341a4.384,4.384,0,0,1,4.6-4.618c6.868-.006,13.735,0,20.6-.01a1.673,1.673,0,0,1,1.394.645c.88,1.054,1.8,2.075,2.668,3.137a1.28,1.28,0,0,0,1.109.516q13.078-.023,26.157-.01a4.368,4.368,0,0,1,4.584,3.746,5.3,5.3,0,0,1,.051.892q0,19.491,0,38.983a4.4,4.4,0,0,1-4.675,4.666q-10.093.006-20.185,0C406.511,795.465,406.2,795.222,405.955,794.266ZM373.586,760.41a5.034,5.034,0,0,1,2.352-.737c.393-.014.443-.165.439-.5-.015-1.572-.007-3.144-.007-4.716,0-1.32.351-1.676,1.648-1.676h47.535c1.243,0,1.607.358,1.609,1.587,0,1.612,0,3.224.005,4.835,0,.172-.106.434.227.445a5.938,5.938,0,0,1,2.581.74c0-2.843-.049-5.608.021-8.371a2.24,2.24,0,0,0-2.481-2.473c-8.9.049-17.8.018-26.694.031a1.95,1.95,0,0,1-1.656-.747c-.881-1.078-1.817-2.111-2.709-3.18a.937.937,0,0,0-.809-.368q-9.913.016-19.826.009a2.019,2.019,0,0,0-2.236,2.26q0,4,0,8Zm28.2-.762q11.194,0,22.389.012c.5,0,.635-.12.615-.617-.042-1.033-.047-2.07,0-3.1.027-.594-.106-.789-.755-.788q-22.27.032-44.539.016a2.339,2.339,0,0,1-.3,0c-.338-.044-.445.092-.44.434.019,1.134.035,2.269-.005,3.4-.018.515.1.661.645.659Q390.587,759.632,401.782,759.649Z" fill="#020202"/>
      <path id="Trazado_642009" data-name="Trazado 642009" d="M493.951,953.774c.222-.817.63-1.2,1.255-1.185s1.02.412,1.178,1.186c-.146.773-.525,1.166-1.151,1.194C494.565,955,494.164,954.625,493.951,953.774Z" transform="translate(-93.375 -159.508)" fill="#070706"/>
      <path id="Trazado_642010" data-name="Trazado 642010" d="M406.977,895.839q-3.821,0-7.641,0c-1.092,0-1.532-.427-1.533-1.5q-.007-4.267,0-8.534c0-1.076.443-1.508,1.532-1.508q7.672,0,15.343,0c1.063,0,1.491.427,1.492,1.477q0,4.3,0,8.594c0,1.062-.418,1.473-1.49,1.474Q410.827,895.842,406.977,895.839Zm-.033-2.39c2.11,0,4.22-.007,6.329.007.363,0,.52-.058.515-.477q-.035-2.924,0-5.849c0-.385-.13-.457-.481-.456q-6.3.016-12.6,0c-.434,0-.529.144-.525.547q.028,2.835,0,5.67c-.005.433.091.578.555.572C402.8,893.435,404.874,893.45,406.944,893.45Z" transform="translate(-20.236 -107.558)" fill="#030302"/>
      <path id="Trazado_642011" data-name="Trazado 642011" d="M503.752,922.55q5.821,0,11.642,0a1.188,1.188,0,0,1,1.35,1.051,1.174,1.174,0,0,1-1.014,1.32,3.485,3.485,0,0,1-.536.016q-11.522,0-23.045,0a2.1,2.1,0,0,1-.766-.075,1.182,1.182,0,0,1,.25-2.3,5.568,5.568,0,0,1,.6-.012Z" transform="translate(-90.798 -136.658)" fill="#020201"/>
      <path id="Trazado_642012" data-name="Trazado 642012" d="M501.127,886.684c-3.066,0-6.133.006-9.2,0-1,0-1.584-.755-1.273-1.589a1.073,1.073,0,0,1,.8-.729,3.392,3.392,0,0,1,.708-.067q8.93-.005,17.86,0a2.918,2.918,0,0,1,.709.066,1.176,1.176,0,0,1-.17,2.3,6.039,6.039,0,0,1-.656.018Z" transform="translate(-90.804 -107.559)" fill="#040403"/>
      <path id="Trazado_642013" data-name="Trazado 642013" d="M498.759,903.457q3.251,0,6.5,0a4.882,4.882,0,0,1,.655.025,1.173,1.173,0,0,1,.146,2.292,3.185,3.185,0,0,1-.767.072q-6.531.006-13.062,0c-1.078,0-1.655-.412-1.669-1.187s.559-1.2,1.636-1.205Z" transform="translate(-90.797 -122.136)" fill="#050503"/>
      <path id="Trazado_642014" data-name="Trazado 642014" d="M381.182,768v-4.863q0-4,0-8a2.019,2.019,0,0,1,2.235-2.26q9.913,0,19.826-.009a.937.937,0,0,1,.809.368c.892,1.069,1.827,2.1,2.709,3.18a1.95,1.95,0,0,0,1.656.747c8.9-.013,17.8.018,26.694-.031a2.24,2.24,0,0,1,2.481,2.473c-.069,2.763-.021,5.528-.021,8.371a5.938,5.938,0,0,0-2.581-.74c-.333-.01-.226-.272-.227-.445-.007-1.612,0-3.224-.005-4.835,0-1.229-.365-1.587-1.609-1.587H385.614c-1.3,0-1.647.357-1.648,1.676,0,1.572-.009,3.144.007,4.716,0,.336-.046.486-.439.5A5.034,5.034,0,0,0,381.182,768Z" transform="translate(-7.596 -7.594)" fill="#fbf3c2"/>
      <path id="Trazado_642015" data-name="Trazado 642015" d="M425.78,798.622q-11.195,0-22.389.014c-.541,0-.663-.145-.645-.659.041-1.133.025-2.268.005-3.4-.006-.342.1-.478.44-.434a2.339,2.339,0,0,0,.3,0q22.27,0,44.539-.017c.65,0,.783.194.755.788-.047,1.032-.042,2.07,0,3.1.02.5-.115.619-.615.617Q436.975,798.608,425.78,798.622Z" transform="translate(-23.998 -38.974)" fill="#f8f6f4"/>
      <path id="Trazado_642016" data-name="Trazado 642016" d="M414.512,901.015c-2.07,0-4.14-.015-6.21.012-.463.006-.56-.139-.555-.572q.034-2.835,0-5.67c0-.4.091-.549.525-.547q6.3.024,12.6,0c.351,0,.485.072.481.456q-.029,2.925,0,5.849c.005.419-.152.479-.515.477C418.731,901.008,416.621,901.015,414.512,901.015Z" transform="translate(-27.804 -115.123)" fill="#eb8296"/>
    </g>
  </g>
</svg>
