<svg xmlns="http://www.w3.org/2000/svg" width="105" height="104.465" viewBox="0 0 105 104.465">
  <g id="Grupo_982889" data-name="Grupo 982889" transform="translate(-180 -4582.234)">
    <path id="Trazado_626454" data-name="Trazado 626454" d="M0,0H105V104.465H0Z" transform="translate(180 4582.234)" fill="#f0bd51"/>
    <g id="Grupo_982824" data-name="Grupo 982824" transform="translate(-406.135 3928.858)">
      <path id="Trazado_641885" data-name="Trazado 641885" d="M631.1,757.807c0-3.38.024-6.651-.02-9.921-.009-.675.2-.772.8-.764,2.6.034,5.192.044,7.787-.006.68-.013.764.207.762.8-.021,6.477-.005,12.954-.027,19.43,0,.575.086.8.727.763a30.341,30.341,0,0,1,3.2,0c.584.027.766-.1.761-.73-.033-4.2-.008-8.393-.029-12.59,0-.52.089-.691.657-.684,2.668.036,5.337.031,8.006,0,.525-.005.685.1.681.66-.028,4.221,0,8.442-.028,12.663,0,.529.1.706.663.679,1.089-.052,2.185-.054,3.274,0,.6.029.752-.127.75-.74-.023-8.417-.008-16.835-.032-25.253,0-.653.15-.832.815-.822,2.62.043,5.241.035,7.86,0,.543-.007.672.125.671.67-.02,8.854-.008,17.708-.027,26.562a.927.927,0,0,0,.731,1.075c1.4.466,2.768,1.015,4.144,1.543a2.865,2.865,0,0,1-.006,5.536q-3.8,1.437-7.6,2.867a3.128,3.128,0,0,1-1.133.191q-12.155-.01-24.31-.013c-.48,0-.745.076-.938.6a18.613,18.613,0,1,1-22.722-24.255.707.707,0,0,0,.619-.837c-.02-4.415,0-8.83-.027-13.245,0-.583.161-.705.715-.7q4,.044,8.006,0c.524-.006.626.146.623.642-.02,4.439,0,8.878-.026,13.317a.7.7,0,0,0,.634.834A17.12,17.12,0,0,1,631.1,757.807Zm-23.251,17.275h-1.237c-1.123,0-1.123,0-.959,1.136a16.264,16.264,0,0,0,23.436,12.238,15.868,15.868,0,0,0,8.883-12.82c.059-.46-.054-.577-.512-.564-1.139.033-2.281-.02-3.419.024-.532.021-.651-.157-.623-.65a9.394,9.394,0,0,0-.107-2.1c-.81-4.824-3.523-8.12-8.174-9.539s-8.73-.17-12.03,3.381a11.169,11.169,0,0,0-2.959,8.265c.016.5-.1.69-.627.643C608.97,775.044,608.409,775.082,607.851,775.082Zm58.116-6.687c.032-.076.065-.117.065-.159q.006-12.074.016-24.148c0-.428-.181-.455-.517-.45-1.188.015-2.377.029-3.564-.006-.475-.014-.6.12-.6.6q.023,11.638,0,23.276c0,.462.1.594.588.609C663.3,768.155,664.668,767.852,665.967,768.4Zm-27.878-3.743q0-7.4.008-14.81c0-.433-.243-.379-.51-.378-1.212,0-2.424.016-3.635-.008-.4-.008-.534.088-.531.512.018,3,.011,6.009.007,9.014a.711.711,0,0,0,.253.63A22.375,22.375,0,0,1,638.089,764.653Zm-13.974-15.035c0-1.815-.01-3.631.008-5.447,0-.387-.067-.55-.5-.538-1.21.031-2.422.037-3.631,0-.481-.015-.542.161-.54.578.016,3.558.022,7.117,0,10.675,0,.535.19.586.625.52a10.494,10.494,0,0,1,3.4,0c.59.1.669-.111.66-.632C624.1,753.056,624.115,751.337,624.115,749.618Zm23.292,12.658c0,1.769.013,3.539-.009,5.308-.005.412.111.53.522.521q1.817-.04,3.636,0c.417.009.52-.12.518-.526q-.023-5.308,0-10.616c0-.412-.111-.53-.522-.521q-1.818.04-3.636,0c-.417-.01-.523.12-.518.526C647.419,758.737,647.407,760.506,647.407,762.276Zm6.954,15.135h7.7c1.654,0,1.623,0,1.662-1.64.014-.593-.178-.7-.725-.7-5.4.02-10.8.012-16.2.012-1.738,0-1.714,0-1.733,1.712-.006.526.157.631.651.627C648.6,777.4,651.479,777.411,654.361,777.411Zm.024-6.986h-7.632c-1.689,0-1.659,0-1.692,1.681-.011.572.174.661.691.659,5.4-.019,10.806-.011,16.209-.011,1.778,0,1.756,0,1.763-1.754,0-.5-.166-.587-.616-.584C660.2,770.434,657.293,770.425,654.385,770.425Zm11.654.521c0,1.91.007,3.722,0,5.534,0,.514.258.316.5.225l5.9-2.206c.277-.1.57-.208.576-.566.007-.4-.316-.5-.616-.608-.905-.336-1.808-.679-2.712-1.017C668.492,771.861,667.3,771.417,666.039,770.946Zm-23.291,3.046v-1.525c0-2.232,0-2.223-2.257-2.053-.342.026-.406.137-.351.435a16.9,16.9,0,0,1,0,6.133c-.054.294,0,.448.349.435.6-.023,1.211-.024,1.815,0,.348.014.458-.1.451-.45C642.735,775.977,642.748,774.984,642.748,773.992Zm-19.424-16.271c-.289-.093-.362.046-.383.363-.123,1.831-.134,1.841,1.633,2.145.491.084,1.061.523,1.434.232s.464-.921.679-1.4c.019-.044.029-.093.052-.135.172-.311.17-.493-.254-.607A16.918,16.918,0,0,0,623.324,757.721Zm-2.7,1.1a2.809,2.809,0,0,1,0-.434c.09-.571-.109-.734-.7-.649a20.014,20.014,0,0,0-2.9.608c-.187.056-.409.08-.283.37a5.61,5.61,0,0,0,.818,1.743c.309.313.93-.163,1.425-.22.191-.022.379-.076.569-.109C620.622,759.942,620.622,759.942,620.622,758.82Zm-13.9,13.935c1.084,0,1.083,0,1.26-1.04.028-.167.073-.33.1-.5.324-1.682.319-1.67-1.348-2.279-.335-.123-.473-.1-.548.261-.161.778-.376,1.546-.521,2.326C605.445,772.752,605.461,772.755,606.725,772.755Zm30.108,0a2.832,2.832,0,0,1,.434,0c.577.09.846-.064.694-.716-.158-.679-.216-1.382-.372-2.062-.28-1.222-.3-1.218-1.481-.733a3.652,3.652,0,0,1-.471.185c-.444.113-.555.346-.406.793a7.426,7.426,0,0,1,.4,1.981c.021.426.184.616.624.552A4.037,4.037,0,0,1,636.833,772.755Zm-2.818-9.566a5.971,5.971,0,0,1-.465.61c-1.051,1.062-1.068,1.068-.207,2.287.324.459.458,1.248.978,1.318.5.067,1.06-.379,1.595-.6a.408.408,0,0,1,.069-.022c.338-.077.325-.252.178-.516A16.948,16.948,0,0,0,634.015,763.189Zm-1.568-1.552a14.539,14.539,0,0,0-2.431-1.766c-.922-.552-.925-.548-1.338.442-.475,1.135-.491,1.164.58,1.8.559.331,1.018,1.163,1.641.953C631.5,762.863,631.92,762.15,632.447,761.636Zm-22.99,1.67a14.768,14.768,0,0,0-1.689,2.335c-.587.977-.587.977.429,1.394,1.132.464,1.163.482,1.793-.6.326-.559,1.157-1.009.937-1.645-.2-.572-.9-.97-1.384-1.443A.4.4,0,0,0,609.457,763.307Zm1.6-1.617a6.044,6.044,0,0,1,.608.465c1.06,1.051,1.065,1.065,2.282.207.46-.324,1.248-.463,1.321-.977.07-.493-.378-1.06-.6-1.594-.018-.045-.03-.092-.047-.137-.084-.227-.2-.264-.428-.14A16.256,16.256,0,0,0,611.057,761.69Z" transform="translate(0 -50.855)" fill="#010101"/>
      <path id="Trazado_641886" data-name="Trazado 641886" d="M663.184,669.5c5.463-.005,9.569,3.792,9.918,8.615a9.34,9.34,0,0,1-7.922,9.9A8.954,8.954,0,0,1,659.424,687c-.374-.2-.561-.176-.826.162q-2.313,2.944-4.679,5.848a.732.732,0,0,0-.057,1,4.539,4.539,0,0,1-.536,5.338,4.653,4.653,0,0,1-8.151-3.274.2.2,0,0,1,0-.072c.528-1.156-.211-1.645-1.063-2.148-.937-.552-1.83-1.182-2.722-1.808a.557.557,0,0,0-.845.046,6.712,6.712,0,0,1-7.626,1.194,6.821,6.821,0,0,1-4.027-6.665c.035-.612-.13-.83-.691-.991-1.2-.345-1.191-.379-2.016.555a5.733,5.733,0,0,1-8.038.56c-.352-.3-.575-.368-.969-.085a25.42,25.42,0,0,1-2.2,1.407c-.4.227-.426.455-.317.872a5.5,5.5,0,0,1-1.86,5.954,5.8,5.8,0,1,1-6.169-9.7,5.517,5.517,0,0,1,6.177.839.661.661,0,0,0,.973.057c.691-.488,1.408-.945,2.141-1.367a.665.665,0,0,0,.357-.919,5.808,5.808,0,1,1,11.226-2.986,4.145,4.145,0,0,1,.178,1.653c-.063.427.09.608.483.709a4.78,4.78,0,0,0,1.378.4c.489-.041.6-.685.9-1.044a6.975,6.975,0,0,1,11.972,6.757c-.131.372-.141.575.238.814,1.249.788,2.471,1.618,3.691,2.451a.535.535,0,0,0,.747-.008,4.326,4.326,0,0,1,4.189-.672.6.6,0,0,0,.782-.246c1.578-2,3.156-3.994,4.779-5.953.37-.447.063-.61-.148-.877a9.343,9.343,0,0,1,6.493-15.308Zm-6.366,9.348a6.985,6.985,0,1,0,6.952-7.017A7.008,7.008,0,0,0,656.818,678.848ZM640.51,686.94a4.656,4.656,0,1,0-4.65,4.682A4.672,4.672,0,0,0,640.51,686.94Zm-15.139-4.663a3.492,3.492,0,1,0-3.5,3.523A3.51,3.51,0,0,0,625.371,682.277Zm-12.81,8.173a3.492,3.492,0,1,0-3.52,3.5A3.509,3.509,0,0,0,612.561,690.45Zm39.6,5.808a2.328,2.328,0,1,0-2.341,2.352A2.348,2.348,0,0,0,652.157,696.258Z" transform="translate(-0.094)" fill="#040303"/>
      <path id="Trazado_641887" data-name="Trazado 641887" d="M613.782,825.927c.558,0,1.119-.038,1.672.011.527.047.643-.143.627-.643a11.169,11.169,0,0,1,2.959-8.265c3.3-3.552,7.393-4.8,12.03-3.381s7.365,4.715,8.174,9.539a9.4,9.4,0,0,1,.107,2.1c-.029.494.091.671.623.65,1.138-.044,2.28.009,3.419-.024.458-.013.571.1.512.564a15.867,15.867,0,0,1-8.883,12.82,16.264,16.264,0,0,1-23.436-12.238c-.164-1.135-.164-1.135.959-1.136Zm10.441-.178c0,1.777-.008,3.231.005,4.685a1.588,1.588,0,0,1-.306,1,4.57,4.57,0,0,0,.7,6.116,4.638,4.638,0,0,0,6.174.015,4.57,4.57,0,0,0,.724-6.114,1.719,1.719,0,0,1-.315-1.071c.011-2.691.006-5.381.006-8.072a9.32,9.32,0,0,0-3.2-7.061c-.223-.208-.343-.237-.582-.013a9.4,9.4,0,0,0-3.094,5.608C624.09,822.582,624.3,824.33,624.223,825.749Z" transform="translate(-5.931 -101.7)" fill="#83d2ee"/>
      <path id="Trazado_641888" data-name="Trazado 641888" d="M807.391,774.066c-1.3-.544-2.667-.241-4.008-.283-.484-.016-.589-.147-.588-.609q.021-11.638,0-23.276c0-.476.122-.61.6-.6,1.187.035,2.376.02,3.564.006.336,0,.517.022.517.45q-.022,12.074-.016,24.148C807.456,773.949,807.423,773.99,807.391,774.066Z" transform="translate(-141.423 -56.525)" fill="#fbe9ae"/>
      <path id="Trazado_641889" data-name="Trazado 641889" d="M711.64,784.469a22.375,22.375,0,0,0-4.408-5.04.71.71,0,0,1-.253-.63c0-3,.011-6.009-.007-9.014,0-.424.132-.52.531-.512,1.211.024,2.423.01,3.635.008.267,0,.511-.055.51.378Q711.629,777.064,711.64,784.469Z" transform="translate(-73.551 -70.671)" fill="#fae9ae"/>
      <path id="Trazado_641890" data-name="Trazado 641890" d="M663.719,755.284c0,1.719-.02,3.438.012,5.156.009.521-.07.734-.66.632a10.493,10.493,0,0,0-3.4,0c-.435.066-.629.016-.625-.519.027-3.558.02-7.117,0-10.675,0-.417.059-.594.54-.578,1.209.039,2.421.033,3.631,0,.437-.011.508.151.5.538C663.709,751.653,663.719,753.469,663.719,755.284Z" transform="translate(-39.605 -56.521)" fill="#fbe9ae"/>
      <path id="Trazado_641891" data-name="Trazado 641891" d="M754.9,799.056c0-1.77.012-3.539-.009-5.308,0-.406.1-.535.518-.526q1.817.041,3.636,0c.411-.009.524.11.522.521q-.024,5.308,0,10.616c0,.405-.1.535-.518.526q-1.817-.042-3.636,0c-.411.009-.528-.109-.522-.521C754.909,802.6,754.9,800.826,754.9,799.056Z" transform="translate(-107.489 -87.635)" fill="#fbe9ae"/>
      <path id="Trazado_641892" data-name="Trazado 641892" d="M756.183,859.431c-2.882,0-5.765-.012-8.647.011-.494,0-.656-.1-.651-.627.019-1.712-.005-1.712,1.733-1.712,5.4,0,10.8.008,16.2-.012.547,0,.74.107.725.7-.039,1.639-.008,1.64-1.662,1.64Z" transform="translate(-101.822 -132.875)" fill="#ee8774"/>
      <path id="Trazado_641893" data-name="Trazado 641893" d="M756.2,841.14c2.907,0,5.815.009,8.722-.009.451,0,.618.084.616.584-.007,1.754.015,1.754-1.763,1.754-5.4,0-10.806-.007-16.209.011-.518,0-.7-.087-.691-.659.033-1.68,0-1.681,1.692-1.681Z" transform="translate(-101.816 -121.57)" fill="#bbda89"/>
      <path id="Trazado_641894" data-name="Trazado 641894" d="M818.789,842.948c1.261.471,2.453.915,3.644,1.362.9.339,1.807.681,2.712,1.017.3.112.623.209.616.608-.006.358-.3.462-.576.565l-5.9,2.206c-.243.091-.5.289-.5-.225C818.8,846.67,818.789,844.858,818.789,842.948Z" transform="translate(-152.749 -122.857)" fill="#a8afb9"/>
      <path id="Trazado_641895" data-name="Trazado 641895" d="M732.571,844.542c0,.992-.013,1.985.007,2.977.007.349-.1.464-.451.45-.6-.025-1.211-.024-1.815,0-.353.014-.4-.14-.349-.435a16.894,16.894,0,0,0,0-6.133c-.054-.3.01-.41.352-.435,2.258-.169,2.257-.179,2.257,2.053Z" transform="translate(-89.822 -121.405)" fill="#a8afb9"/>
      <path id="Trazado_641896" data-name="Trazado 641896" d="M671.308,797.54a16.9,16.9,0,0,1,3.161.595c.424.114.427.3.254.607-.023.042-.033.091-.052.135-.215.482-.311,1.116-.679,1.4s-.944-.148-1.434-.232c-1.767-.3-1.756-.313-1.633-2.145C670.946,797.586,671.019,797.448,671.308,797.54Z" transform="translate(-47.984 -90.674)" fill="#b7d687"/>
      <path id="Trazado_641897" data-name="Trazado 641897" d="M653.589,798.693c0,1.123,0,1.122-1.063,1.309-.19.033-.377.087-.569.109-.495.057-1.116.533-1.425.22a5.612,5.612,0,0,1-.818-1.743c-.125-.289.1-.314.283-.37a20.036,20.036,0,0,1,2.9-.608c.588-.085.787.078.7.649A2.806,2.806,0,0,0,653.589,798.693Z" transform="translate(-32.966 -90.728)" fill="#b7d687"/>
      <path id="Trazado_641898" data-name="Trazado 641898" d="M714.628,839.895a4.028,4.028,0,0,0-.579,0c-.44.064-.6-.126-.624-.552a7.424,7.424,0,0,0-.4-1.981c-.149-.447-.039-.68.406-.793a3.641,3.641,0,0,0,.471-.185c1.185-.485,1.2-.489,1.481.733.156.68.214,1.383.372,2.062.152.652-.117.806-.694.715A2.84,2.84,0,0,0,714.628,839.895Z" transform="translate(-77.795 -117.995)" fill="#b7d687"/>
      <path id="Trazado_641899" data-name="Trazado 641899" d="M705.879,816.353a16.938,16.938,0,0,1,2.148,3.077c.147.265.16.44-.178.516a.406.406,0,0,0-.069.022c-.535.22-1.1.666-1.595.6-.52-.07-.654-.858-.978-1.318-.861-1.219-.844-1.225.207-2.287A6.01,6.01,0,0,0,705.879,816.353Z" transform="translate(-71.864 -104.019)" fill="#b7d687"/>
      <path id="Trazado_641900" data-name="Trazado 641900" d="M693.726,805.844c-.527.514-.951,1.227-1.548,1.427-.623.209-1.082-.623-1.641-.954-1.072-.634-1.055-.663-.58-1.8.414-.991.417-.995,1.338-.443A14.535,14.535,0,0,1,693.726,805.844Z" transform="translate(-61.279 -95.062)" fill="#b7d687"/>
      <path id="Trazado_641901" data-name="Trazado 641901" d="M630.295,805.761a16.252,16.252,0,0,1,3.14-2.176c.228-.124.344-.087.428.14.017.045.029.092.047.137.22.535.668,1.1.6,1.594-.073.514-.861.653-1.321.977-1.217.858-1.222.844-2.282-.207A6.03,6.03,0,0,0,630.295,805.761Z" transform="translate(-19.238 -94.926)" fill="#b7d687"/>
      <path id="Trazado_641902" data-name="Trazado 641902" d="M786.865,684.507a6.985,6.985,0,1,1,7.019,6.952A7.009,7.009,0,0,1,786.865,684.507Zm11.642-.064a4.657,4.657,0,1,0-4.644,4.688A4.669,4.669,0,0,0,798.507,684.443Z" transform="translate(-130.14 -5.659)" fill="#f2c44e"/>
      <path id="Trazado_641903" data-name="Trazado 641903" d="M708.339,718.048a4.656,4.656,0,1,1-4.7-4.63A4.673,4.673,0,0,1,708.339,718.048Z" transform="translate(-67.922 -31.108)" fill="#f3d47d"/>
      <path id="Trazado_641904" data-name="Trazado 641904" d="M662.09,704.9a3.492,3.492,0,1,1-3.487-3.46A3.512,3.512,0,0,1,662.09,704.9Z" transform="translate(-36.813 -22.626)" fill="#f3d47d"/>
      <path id="Trazado_641905" data-name="Trazado 641905" d="M759.576,755.641a2.328,2.328,0,1,1-2.315-2.3A2.35,2.35,0,0,1,759.576,755.641Z" transform="translate(-107.514 -59.384)" fill="#f0d27c"/>
      <path id="Trazado_641906" data-name="Trazado 641906" d="M652.275,830.607c.079-1.419-.133-3.167.116-4.905a9.4,9.4,0,0,1,3.094-5.608c.239-.225.359-.2.582.013a9.32,9.32,0,0,1,3.2,7.061c0,2.69.005,5.381-.006,8.072a1.719,1.719,0,0,0,.315,1.071,4.57,4.57,0,0,1-.724,6.114,4.638,4.638,0,0,1-6.174-.015,4.57,4.57,0,0,1-.7-6.116,1.588,1.588,0,0,0,.306-1C652.266,833.839,652.275,832.384,652.275,830.607Zm2.33,3.822a3.848,3.848,0,0,1,1.858-.075c.435.13.477-.043.475-.407-.013-2.4.018-4.794-.025-7.19a5.894,5.894,0,0,0-1.145-3.409,5.616,5.616,0,0,0-.876,1.793,9.3,9.3,0,0,0-.29,2.947C654.609,830.19,654.6,832.293,654.6,834.429Zm1.161,6.836a2.328,2.328,0,1,0-2.326-2.367A2.351,2.351,0,0,0,655.766,841.265Z" transform="translate(-33.983 -106.558)" fill="#010202"/>
      <path id="Trazado_641907" data-name="Trazado 641907" d="M804.162,690.1a4.657,4.657,0,1,1-4.706-4.625A4.672,4.672,0,0,1,804.162,690.1Zm-4.624,2.36a2.328,2.328,0,1,0-2.361-2.259A2.351,2.351,0,0,0,799.539,692.456Z" transform="translate(-135.796 -11.313)" fill="#030301"/>
      <path id="Trazado_641908" data-name="Trazado 641908" d="M663.081,842.711c0-2.136,0-4.238,0-6.34a9.3,9.3,0,0,1,.29-2.947,5.616,5.616,0,0,1,.876-1.793,5.9,5.9,0,0,1,1.145,3.409c.043,2.4.012,4.793.024,7.19,0,.363-.04.536-.475.407A3.848,3.848,0,0,0,663.081,842.711Z" transform="translate(-42.459 -114.841)" fill="#ee8774"/>
      <path id="Trazado_641909" data-name="Trazado 641909" d="M661.42,881.749a2.328,2.328,0,1,1,2.331-2.29A2.349,2.349,0,0,1,661.42,881.749Z" transform="translate(-39.637 -147.042)" fill="#e98571"/>
      <path id="Trazado_641910" data-name="Trazado 641910" d="M805.192,698.11a2.329,2.329,0,1,1,2.3-2.326A2.35,2.35,0,0,1,805.192,698.11Z" transform="translate(-141.449 -16.967)" fill="#f0d27c"/>
    </g>
  </g>
</svg>
