<svg xmlns="http://www.w3.org/2000/svg" width="105" height="104.465" viewBox="0 0 105 104.465">
  <g id="Grupo_982887" data-name="Grupo 982887" transform="translate(-600 -4582.234)">
    <path id="Trazado_626454" data-name="Trazado 626454" d="M0,0H105V104.465H0Z" transform="translate(600 4582.234)" fill="#f0bd51"/>
    <g id="Grupo_982829" data-name="Grupo 982829" transform="translate(-202.623 4006.398)">
      <path id="Trazado_641990" data-name="Trazado 641990" d="M846.432,604.2c0-.943.161-1.155,1.069-1.406a35.488,35.488,0,0,1,44.24,26.267,34.322,34.322,0,0,1,.882,7.546c.007,1.018-.343,1.377-1.365,1.379q-5.1.006-10.19,0c-.978,0-1.32-.355-1.341-1.341a22.605,22.605,0,0,0-44.647-4.707,23.08,23.08,0,0,0-.562,4.733c-.01.945-.368,1.313-1.3,1.315q-5.164.01-10.329,0c-.92,0-1.282-.39-1.268-1.334a35.267,35.267,0,0,1,7.264-21.211c.125-.166.252-.33.376-.5a2.168,2.168,0,0,0,.106-.193l-2.572-.7c-1.645-.448-2.048-1.883-.852-3.089q2.586-2.608,5.2-5.192a1.725,1.725,0,0,1,3.073.823c.239.861.462,1.726.709,2.651a36.727,36.727,0,0,1,6.226-3.994q.525-.263,1.06-.505c.837-.382,1.131-.3,1.695.464a1.191,1.191,0,0,1-.811,1.422c-.359.155-.7.364-1.061.5-.465.174-.557.364-.278.833q1.927,3.236,3.774,6.519c.232.41.4.468.841.265a24.37,24.37,0,0,1,21.5,0c.431.2.609.154.843-.26,1.176-2.087,2.386-4.155,3.585-6.229.49-.848.492-.851-.4-1.277a33.347,33.347,0,0,0-23.842-2.188A1.233,1.233,0,0,1,846.432,604.2Zm35.253,29.938a8.842,8.842,0,0,1,.071,1.1c-.029.544.184.686.72.68q3.708-.044,7.416,0c.527.006.661-.136.628-.662a33.5,33.5,0,0,0-7.911-19.9,29.889,29.889,0,0,0-7.022-6.217,3.8,3.8,0,0,1-.325-.251c-.507-.483-.773-.318-1.095.263-1.183,2.135-2.416,4.244-3.658,6.346-.239.405-.211.589.2.854a24.367,24.367,0,0,1,7.305,7.453A25.5,25.5,0,0,1,881.685,634.134Zm-53.6,1.768c1.271,0,2.542-.016,3.813.009.41.008.554-.1.581-.526a22.492,22.492,0,0,1,.465-3.425,24.539,24.539,0,0,1,10.608-15.619c.349-.236.455-.394.214-.8q-1.955-3.3-3.844-6.646c-.223-.394-.385-.376-.728-.151-1.141.746-2.237,1.55-3.307,2.393a.652.652,0,0,0-.253.821c.182.594.346,1.2.5,1.8a1.718,1.718,0,0,1-2.2,2.206c-.6-.147-1.2-.317-1.8-.5a.669.669,0,0,0-.828.257,33.458,33.458,0,0,0-7.58,19.671c-.022.391.078.525.482.519C825.5,635.889,826.8,635.9,828.09,635.9Zm5.9-22.087-1.62-6.026-4.453,4.4Z" transform="translate(0)" fill="#040404"/>
      <path id="Trazado_641991" data-name="Trazado 641991" d="M898.336,609.553a1.233,1.233,0,0,0,1.633.59,33.348,33.348,0,0,1,23.841,2.188c.887.425.885.429.4,1.277-1.2,2.074-2.409,4.142-3.585,6.229-.234.415-.411.461-.843.26a24.369,24.369,0,0,0-21.5,0c-.436.2-.609.145-.841-.265q-1.854-3.278-3.774-6.519c-.279-.469-.188-.659.278-.833.365-.137.7-.345,1.061-.5a1.191,1.191,0,0,0,.811-1.422A13.75,13.75,0,0,1,898.336,609.553Z" transform="translate(-51.904 -5.358)" fill="#f2e48e"/>
      <path id="Trazado_641992" data-name="Trazado 641992" d="M912.4,694.622c-.238.839-.5,1.048-1.369,1.049q-12.407,0-24.814,0a2.488,2.488,0,0,1-2.249-3.905q7.8-13.529,15.633-27.045a2.464,2.464,0,0,1,4.461-.014q7.848,13.545,15.663,27.108a2.484,2.484,0,0,1-2.259,3.859c-.323,0-.647,0-.97,0-.868-.009-1.127-.209-1.37-1.05a1.114,1.114,0,0,1,1.306-1.032c.23.014.462,0,.692,0,1.034,0,1.134-.171.619-1.062l-13.761-23.815c-.565-.977-1.121-1.96-1.7-2.929q-.44-.735-.867-.039c-.312.508-.577,1.044-.863,1.568-.163.248-.338.49-.487.746q-4.076,7.049-8.145,14.1-2.773,4.811-5.532,9.632c-.225.373-.462.74-.673,1.12-.222.4-.032.611.371.669a3.917,3.917,0,0,0,.554.008H910.96C911.942,693.592,912.154,693.747,912.4,694.622Z" transform="translate(-44.715 -44.645)" fill="#040403"/>
      <path id="Trazado_641993" data-name="Trazado 641993" d="M905.955,672.8c.285-.524.551-1.06.862-1.568q.427-.7.867.039c.579.969,1.136,1.951,1.7,2.929q6.881,11.907,13.761,23.815c.515.891.415,1.06-.619,1.062-.231,0-.462.012-.693,0a1.114,1.114,0,0,0-1.306,1.032H917.8c-.249-.874-.461-1.03-1.443-1.03H892.043a3.881,3.881,0,0,1-.554-.007c-.4-.059-.593-.268-.371-.669.211-.381.448-.747.673-1.12l14.579.016a.655.655,0,0,0,.459-.106h.817a.979.979,0,0,0,.669.1q2.217.006,4.434,0a3.914,3.914,0,0,0,3.566-2.086,4.047,4.047,0,0,0-.029-4.321c-1.322-2.267-2.614-4.551-3.948-6.811a29.323,29.323,0,0,0-2.063-3.421,3.29,3.29,0,0,0-1.783-3.035,13.422,13.422,0,0,0-1.128-2.177A16.357,16.357,0,0,1,905.955,672.8Z" transform="translate(-50.116 -50.135)" fill="#eed961"/>
      <path id="Trazado_641994" data-name="Trazado 641994" d="M1036.212,748.394a5.059,5.059,0,1,1,4.994,5.141A5.054,5.054,0,0,1,1036.212,748.394Zm2.081.064a2.977,2.977,0,1,0,5.955.03,2.977,2.977,0,0,0-5.955-.03Z" transform="translate(-154.958 -102.511)" fill="#040303"/>
      <path id="Trazado_641995" data-name="Trazado 641995" d="M829.343,744.908c-.1-.963.216-1.367,1.164-1.493a5.062,5.062,0,1,1-4.389,4.638c.073-.928.431-1.253,1.365-1.24.7.268.748.821.722,1.47a2.976,2.976,0,1,0,2.7-2.8C830.265,745.532,829.7,745.53,829.343,744.908Z" transform="translate(-3.234 -102.47)" fill="#040404"/>
      <path id="Trazado_641996" data-name="Trazado 641996" d="M832.93,748.9c.362.622.922.624,1.559.578a2.952,2.952,0,0,1,3.232,2.634,3,3,0,0,1-2.541,3.257,2.968,2.968,0,0,1-3.389-3.094c.026-.649-.026-1.2-.722-1.47A3.588,3.588,0,0,1,832.93,748.9Z" transform="translate(-6.822 -106.462)" fill="#9fd8c1"/>
      <path id="Trazado_641997" data-name="Trazado 641997" d="M833.544,654.389c-1.294,0-2.589-.014-3.882.008-.4.007-.5-.128-.482-.519a33.457,33.457,0,0,1,7.58-19.671.669.669,0,0,1,.828-.257c.6.182,1.194.351,1.8.5a1.718,1.718,0,0,0,2.2-2.206c-.151-.6-.315-1.2-.5-1.8a.651.651,0,0,1,.253-.821c1.07-.843,2.166-1.647,3.307-2.393.343-.225.5-.243.728.151q1.893,3.34,3.844,6.646c.241.407.135.566-.214.8A24.54,24.54,0,0,0,838.4,650.447a22.491,22.491,0,0,0-.465,3.425c-.027.431-.171.535-.581.526C836.086,654.372,834.814,654.389,833.544,654.389Z" transform="translate(-5.454 -18.486)" fill="#9fdac2"/>
      <path id="Trazado_641998" data-name="Trazado 641998" d="M1008.327,652.676a25.5,25.5,0,0,0-3.675-10.33,24.367,24.367,0,0,0-7.3-7.453c-.406-.266-.435-.449-.2-.854,1.242-2.1,2.475-4.21,3.658-6.346.322-.581.588-.745,1.094-.263a3.824,3.824,0,0,0,.326.251.545.545,0,0,0,.206.486c1.009,1.069,1.995,2.156,2.909,3.31a34.431,34.431,0,0,1,4.62,7.8,35.046,35.046,0,0,1,2.484,9.275,3.549,3.549,0,0,1-.589,2.694A3.643,3.643,0,0,1,1008.327,652.676Z" transform="translate(-126.642 -18.542)" fill="#d79a9d"/>
      <path id="Trazado_641999" data-name="Trazado 641999" d="M1021.9,654.065a3.642,3.642,0,0,0,3.532-1.427,3.548,3.548,0,0,0,.589-2.694,35.047,35.047,0,0,0-2.484-9.275,34.441,34.441,0,0,0-4.621-7.8c-.914-1.154-1.9-2.241-2.909-3.31a.545.545,0,0,1-.206-.486,29.892,29.892,0,0,1,7.022,6.217,33.5,33.5,0,0,1,7.911,19.9c.033.526-.1.668-.628.662q-3.708-.04-7.416,0c-.536.006-.749-.136-.72-.68A8.794,8.794,0,0,0,1021.9,654.065Z" transform="translate(-140.212 -19.931)" fill="#d28386"/>
      <path id="Trazado_642000" data-name="Trazado 642000" d="M850.351,630.238l-6.073-1.623,4.453-4.4Z" transform="translate(-16.359 -16.423)" fill="#eae8eb"/>
      <path id="Trazado_642001" data-name="Trazado 642001" d="M908.824,702.15a.656.656,0,0,1-.459.106l-14.579-.016q2.765-4.816,5.532-9.632,4.066-7.055,8.145-14.1c.148-.256.324-.5.487-.746a16.342,16.342,0,0,0,1.41,2.645,13.4,13.4,0,0,1,1.128,2.177,3.118,3.118,0,0,0-4.248,3.473c.259,1.912.246,3.861.348,5.794a2.645,2.645,0,0,0,5.289.02c.094-1.933.281-3.861.268-5.8a.655.655,0,0,1,.126-.453,29.335,29.335,0,0,1,2.063,3.421c1.334,2.26,2.625,4.544,3.948,6.811a4.047,4.047,0,0,1,.029,4.321,3.914,3.914,0,0,1-3.566,2.085q-2.217.005-4.434,0a.978.978,0,0,1-.668-.1,5.607,5.607,0,0,0,.666-.185,2.946,2.946,0,0,0,1.974-2.61,3.062,3.062,0,1,0-6.054.343A3.016,3.016,0,0,0,908.824,702.15Z" transform="translate(-52.11 -55.09)" fill="#f2e48e"/>
      <path id="Trazado_642002" data-name="Trazado 642002" d="M944.548,697.556a.657.657,0,0,0-.126.453c.013,1.938-.174,3.866-.268,5.8a2.645,2.645,0,0,1-5.29-.02c-.1-1.933-.089-3.882-.348-5.794a3.118,3.118,0,0,1,4.248-3.473A3.29,3.29,0,0,1,944.548,697.556Zm-2.1-.4a.9.9,0,0,0-.952-.791c-.573.011-.943.476-.9,1.159.115,2.026.239,4.052.349,6.078.021.385.118.719.554.732s.567-.3.588-.7C942.19,701.591,942.31,699.542,942.446,697.158Z" transform="translate(-84.387 -67.03)" fill="#030302"/>
      <path id="Trazado_642003" data-name="Trazado 642003" d="M940.963,749.545a3.016,3.016,0,0,1-2.6-2.452,3.062,3.062,0,1,1,6.054-.343,2.946,2.946,0,0,1-1.974,2.61,5.6,5.6,0,0,1-.665.185Zm1.387-3.049a.978.978,0,1,0-1.956-.02.978.978,0,0,0,1.956.02Z" transform="translate(-84.248 -102.485)" fill="#030302"/>
      <path id="Trazado_642004" data-name="Trazado 642004" d="M1043.7,753.863a2.977,2.977,0,0,1,5.955.03,2.977,2.977,0,1,1-5.955-.03Z" transform="translate(-160.366 -107.916)" fill="#d5989b"/>
      <path id="Trazado_642005" data-name="Trazado 642005" d="M947.906,702.545c-.136,2.384-.255,4.434-.366,6.483-.021.394-.153.709-.588.7s-.533-.347-.554-.732c-.11-2.026-.235-4.052-.35-6.078-.038-.683.332-1.148.9-1.159A.9.9,0,0,1,947.906,702.545Z" transform="translate(-89.848 -72.418)" fill="#8e878f"/>
      <path id="Trazado_642006" data-name="Trazado 642006" d="M947.81,751.964a.978.978,0,0,1-1.957-.02.978.978,0,1,1,1.957.02Z" transform="translate(-89.708 -107.954)" fill="#8e878f"/>
    </g>
  </g>
</svg>
