<svg xmlns="http://www.w3.org/2000/svg" width="85" height="85" viewBox="0 0 85 85">
  <g id="Grupo_970447" data-name="Grupo 970447" transform="translate(-180 -6099)">
    <rect id="Rectángulo_34178" data-name="Rectángulo 34178" width="85" height="85" transform="translate(180 6099)" fill="none"/>
    <g id="Grupo_964891" data-name="Grupo 964891" transform="translate(302.644 5519.336)">
      <path id="Trazado_636078" data-name="Trazado 636078" d="M-85.463,589.036c7.237,0,14.473.01,21.71-.017.633,0,.764.185.736.766-.047,1,.01,2-.023,3-.015.446.1.6.57.646a16.62,16.62,0,0,1,12.532,7.436A17.036,17.036,0,0,1-59,626.7c-.631.193-.924.414-.834,1.116a3.448,3.448,0,0,1-.292,2.086c-.146.274.025.347.176.474a3.363,3.363,0,0,1,1.207,2.768c-.019,2.694,0,5.388-.008,8.081a5.289,5.289,0,0,1-3.861,5.3.512.512,0,0,0-.422.6c.016,2.538,0,5.076.021,7.614,0,.471-.117.579-.583.579q-21.876-.021-43.753,0c-.463,0-.589-.1-.584-.577.025-2.671-.016-5.343.031-8.014a2.007,2.007,0,0,0-.732-1.726c-.639-.551-1.194-1.2-1.81-1.777a.507.507,0,0,1-.125-.735c.362-.636.674-1.3,1.024-1.944a.62.62,0,0,0,.016-.737.79.79,0,0,1-.138-.3,2.8,2.8,0,0,0-2.677-2.363c-.743-.1-.968-.461-.944-1.235.068-2.18.035-4.363.013-6.545,0-.382.1-.579.47-.64.108-.018.209-.089.316-.1,1.745-.149,2.587-1.243,3.02-2.813a.759.759,0,0,0-.072-.616c-.325-.632-.631-1.275-.986-1.889a.573.573,0,0,1,.116-.847c.717-.666,1.379-1.392,2.092-2.062a1.215,1.215,0,0,0,.408-.985c-.012-9.84,0-19.68-.025-29.52,0-.664.116-.875.836-.871C-99.891,589.048-92.677,589.036-85.463,589.036Zm-20.324,28.887c.467-.8.9-.668,1.411-.357.528.324,1.1.576,1.654.861a.6.6,0,0,0,.556.063c2.115-.807,2.117-.8,2.8-2.944a1.692,1.692,0,0,0,.107-.315c.051-.485.334-.559.776-.555q3.373.035,6.747,0c.474-.005.722.1.813.6.282,1.529.888,2.777,2.636,3.1.355.066.627.186.979-.021.612-.359,1.262-.651,1.888-.988a.443.443,0,0,1,.629.082q2.533,2.567,5.1,5.1a.442.442,0,0,1,.092.628c-.364.661-.7,1.337-1.046,2.009a.747.747,0,0,0-.078.615c.438,1.526,1.217,2.654,2.955,2.8a3.459,3.459,0,0,1,.445.136c.3.069.409.227.406.555q-.025,3.573,0,7.146a.482.482,0,0,1-.417.55c-.723.214-1.436.463-2.16.675a.663.663,0,0,0-.469.415c-.884,2.061-.887,2.06.144,4.06a2.622,2.622,0,0,0,.191.35c.21.29.128.489-.118.732q-2.5,2.462-4.957,4.961a.549.549,0,0,1-.789.136c-.636-.362-1.3-.679-1.946-1.019a.752.752,0,0,0-.617-.058c-1.571.433-2.666,1.275-2.806,3.024-.007.085-.076.165-.085.251-.047.458-.316.529-.732.523-1.759-.024-3.518,0-5.277-.014-.707-.005-1.587.279-2.072-.111-.452-.363-.546-1.23-.691-1.9-.149-.688-.584-.927-1.157-1.26a2.711,2.711,0,0,0-3.165.2c-.528.348-1.118.877-1.746-.091,0,1.717.013,3.253-.009,4.789-.005.39.065.527.5.527q19.806-.02,39.612,0c.39,0,.534-.063.527-.5q-.042-2.771,0-5.543c.006-.4-.139-.516-.482-.625a5.29,5.29,0,0,1-3.8-5.209c-.008-2.738.009-5.477-.007-8.215a3.316,3.316,0,0,1,1.2-2.7c.148-.125.331-.192.183-.471a4.374,4.374,0,0,1-.3-2.354c.023-.459-.117-.629-.571-.769a17.084,17.084,0,0,1-12.115-18.7,17.162,17.162,0,0,1,14.194-14.515c.547-.081,1.3.017,1.582-.3s.06-1.057.115-1.606c.046-.456-.163-.489-.535-.489q-19.773.012-39.546-.006c-.5,0-.562.172-.557.6.021,2.115.01,4.23.01,6.345Zm1.156,1.931a.823.823,0,0,0-.449.319q-.924.917-1.843,1.84c-1.23,1.229-1.249,1.239-.43,2.753a1.3,1.3,0,0,1,.016,1.57,3.525,3.525,0,0,0-.663,1.443,2.75,2.75,0,0,1-2.657,2.506c-.391.054-.49.257-.483.634.023,1.179.05,2.361-.008,3.537-.031.646.152.986.8,1.078a2.225,2.225,0,0,1,2.213,2.086,1.847,1.847,0,0,0,.21.559c.307.662.871,1.324.863,1.98a5,5,0,0,1-.918,1.963.451.451,0,0,0,.1.635c.576.557,1.132,1.134,1.7,1.695.475.466.9,1.181,1.457,1.31.6.139,1.213-.528,1.838-.805a.318.318,0,0,0,.058-.033.707.707,0,0,1,.854-.008,6.026,6.026,0,0,0,1.742.813,2.838,2.838,0,0,1,2.552,2.7c.05.4.283.474.649.466,1.068-.022,2.137-.008,3.2-.008,1.151,0,1.227.017,1.482-1.126a1.982,1.982,0,0,1,1.763-1.8,2.252,2.252,0,0,0,.989-.378,2.743,2.743,0,0,1,3.65.093c.345.268.58.123.845-.152.788-.816,1.57-1.643,2.414-2.4.516-.463.668-.862.225-1.445a2.143,2.143,0,0,1-.1-2.924,1.549,1.549,0,0,0,.313-.729,2.827,2.827,0,0,1,2.723-2.6c.36-.049.457-.246.448-.6-.023-.89-.007-1.78-.007-2.67,0-1.739.006-1.762-1.65-2.235a1.326,1.326,0,0,1-1.125-1.1,3.832,3.832,0,0,0-.551-1.49,2.773,2.773,0,0,1,.12-3.656c.239-.308.146-.535-.124-.794-.772-.737-1.516-1.5-2.271-2.26-.812-.812-.852-.876-1.846-.258a1.972,1.972,0,0,1-2.522.019,2.149,2.149,0,0,0-.969-.426,2.718,2.718,0,0,1-2.515-2.64c-.055-.433-.308-.5-.695-.5q-1.9.031-3.806,0c-.366-.006-.566.072-.658.464-.126.539-.35,1.054-.492,1.59a.8.8,0,0,1-.665.629,7.359,7.359,0,0,0-2.412.936,1.834,1.834,0,0,1-2.346-.037A8.187,8.187,0,0,0-104.631,619.854Zm40.561,5.521a14.989,14.989,0,0,0,14.936-14.959,14.983,14.983,0,0,0-14.994-14.966,14.985,14.985,0,0,0-14.936,14.957A14.989,14.989,0,0,0-64.07,625.374ZM-67.3,637.2c0,1.4-.014,2.8,0,4.205a3.213,3.213,0,0,0,3.172,3.209A3.2,3.2,0,0,0-60.9,641.4c.019-2.781.01-5.563,0-8.344,0-.87-.4-1.256-1.271-1.262q-1.936-.013-3.872,0c-.871.006-1.259.395-1.264,1.268C-67.311,634.437-67.3,635.817-67.3,637.2Zm3.207-7.547c.311,0,.621.007.931,0a1.091,1.091,0,0,0,1.2-1.188c.008-.244-.016-.489.006-.731.027-.31-.109-.38-.388-.339a12.112,12.112,0,0,1-3.512,0c-.283-.042-.382.037-.388.341-.025,1.211-.049,2.032,1.747,1.919C-64.365,629.643-64.231,629.65-64.1,629.649Z" transform="translate(0 0)" fill="#020202"/>
      <path id="Trazado_636079" data-name="Trazado 636079" d="M-85.274,623.79V603.979c0-2.115.012-4.23-.01-6.345,0-.433.055-.605.557-.6q19.773.024,39.546.006c.372,0,.58.033.535.489-.055.549.167,1.288-.115,1.606s-1.035.22-1.582.3a17.162,17.162,0,0,0-14.194,14.515,17.084,17.084,0,0,0,12.115,18.7c.454.139.595.31.571.769a4.375,4.375,0,0,0,.3,2.354c.148.279-.034.346-.183.471a3.316,3.316,0,0,0-1.2,2.7c.016,2.738,0,5.477.007,8.215a5.289,5.289,0,0,0,3.8,5.209c.343.11.488.229.482.625q-.042,2.771,0,5.543c.007.436-.138.5-.527.5q-19.806-.014-39.612,0c-.435,0-.505-.137-.5-.527.022-1.536.009-3.072.009-4.789.628.968,1.218.439,1.746.092a2.711,2.711,0,0,1,3.165-.2c.573.333,1.008.572,1.157,1.26.145.668.239,1.535.691,1.9.485.39,1.365.106,2.072.111,1.759.013,3.518-.009,5.277.014.416.006.685-.066.732-.523.009-.086.078-.166.085-.251.14-1.749,1.235-2.591,2.806-3.024a.752.752,0,0,1,.617.058c.648.341,1.31.657,1.946,1.019a.549.549,0,0,0,.789-.136q2.457-2.5,4.957-4.961c.247-.243.329-.442.118-.732a2.612,2.612,0,0,1-.191-.35c-1.031-2-1.028-2-.144-4.06a.663.663,0,0,1,.469-.415c.724-.212,1.437-.461,2.16-.675a.483.483,0,0,0,.417-.55q-.027-3.573,0-7.146c0-.328-.1-.487-.406-.555a3.459,3.459,0,0,0-.445-.136c-1.737-.142-2.517-1.27-2.955-2.8a.747.747,0,0,1,.078-.615c.344-.672.682-1.348,1.046-2.009a.442.442,0,0,0-.092-.628q-2.564-2.536-5.1-5.1a.443.443,0,0,0-.629-.082c-.625.337-1.276.629-1.888.988-.352.207-.624.087-.979.021-1.748-.324-2.354-1.572-2.636-3.1-.091-.494-.339-.6-.813-.6q-3.373.039-6.747,0c-.442,0-.724.07-.776.555a1.693,1.693,0,0,1-.107.315c-.684,2.143-.687,2.137-2.8,2.944a.6.6,0,0,1-.556-.063c-.553-.284-1.126-.536-1.654-.861C-84.37,623.121-84.807,622.989-85.274,623.79Zm12.839-24.611c-3.362,0-6.723.009-10.085-.011-.473,0-.636.075-.631.6.029,3.161.025,6.322,0,9.482,0,.476.08.631.6.629q10.085-.032,20.17,0c.564,0,.629-.193.626-.672-.019-3.116-.024-6.233,0-9.349,0-.535-.095-.7-.672-.7C-65.756,599.2-69.1,599.179-72.435,599.179Zm-.55,17.1h-8.681c-1.473,0-1.443,0-1.486,1.471-.017.565.142.682.69.68,6.032-.022,12.065-.014,18.1-.014,1.546,0,1.52,0,1.552-1.538.01-.509-.131-.615-.622-.611C-66.618,616.291-69.8,616.279-72.984,616.279ZM-70.838,612h-6.477c-1.553,0-1.53,0-1.559,1.53-.009.492.1.623.612.62,4.629-.023,9.259-.013,13.889-.013,1.564,0,1.548,0,1.556-1.6,0-.428-.1-.556-.543-.552C-65.852,612.016-68.345,612-70.838,612Zm16.631,38.475h-2.737c-1.627,0-1.61,0-1.619,1.6,0,.435.111.552.547.547,2.136-.023,4.272-.01,6.408-.01,1.651,0,1.638,0,1.617-1.668,0-.376-.1-.485-.479-.478C-51.715,650.494-52.961,650.479-54.207,650.479Zm-.107,6.412h2.737c1.6,0,1.589,0,1.588-1.631,0-.405-.09-.522-.51-.517-2.136.024-4.272.011-6.408.011-1.7,0-1.69,0-1.653,1.7.007.341.085.454.441.448C-56.851,656.878-55.582,656.892-54.314,656.892ZM-82.062,612c-1.074,0-1.074,0-1.074,1.063s0,1.074,1.063,1.074,1.074,0,1.074-1.063S-81,612-82.062,612Z" transform="translate(-20.513 -5.867)" fill="#e5e8eb"/>
      <path id="Trazado_636080" data-name="Trazado 636080" d="M-98.765,695.9a8.178,8.178,0,0,1,1.04.544,1.834,1.834,0,0,0,2.346.037,7.358,7.358,0,0,1,2.412-.936.8.8,0,0,0,.665-.629c.142-.536.365-1.051.492-1.59.092-.392.292-.47.658-.464q1.9.031,3.806,0c.387-.006.64.063.695.5A2.718,2.718,0,0,0-84.137,696a2.149,2.149,0,0,1,.969.426,1.972,1.972,0,0,0,2.522-.019c.995-.618,1.034-.554,1.846.258.755.755,1.5,1.523,2.271,2.26.271.259.363.486.124.794a2.773,2.773,0,0,0-.12,3.656,3.831,3.831,0,0,1,.551,1.49,1.326,1.326,0,0,0,1.125,1.1c1.657.473,1.65.5,1.65,2.235,0,.89-.015,1.781.007,2.67.009.349-.088.547-.448.6a2.827,2.827,0,0,0-2.723,2.6,1.549,1.549,0,0,1-.313.729,2.143,2.143,0,0,0,.1,2.924c.443.583.29.982-.225,1.445-.844.757-1.626,1.584-2.414,2.4-.265.275-.5.419-.845.152a2.743,2.743,0,0,0-3.65-.093A2.252,2.252,0,0,1-84.7,722a1.982,1.982,0,0,0-1.763,1.8c-.255,1.143-.331,1.126-1.482,1.126-1.068,0-2.137-.015-3.2.008-.366.008-.6-.061-.649-.466a2.838,2.838,0,0,0-2.552-2.7,6.026,6.026,0,0,1-1.742-.813.707.707,0,0,0-.854.008.318.318,0,0,1-.058.033c-.625.278-1.235.945-1.838.806-.557-.129-.982-.844-1.457-1.31-.572-.561-1.128-1.138-1.7-1.695a.451.451,0,0,1-.1-.635,5,5,0,0,0,.918-1.963c.008-.656-.556-1.318-.863-1.98a1.847,1.847,0,0,1-.21-.559,2.225,2.225,0,0,0-2.213-2.087c-.653-.092-.836-.433-.805-1.078.057-1.177.031-2.358.008-3.537-.007-.377.092-.58.483-.634a2.751,2.751,0,0,0,2.657-2.506,3.523,3.523,0,0,1,.663-1.443,1.3,1.3,0,0,0-.016-1.57c-.819-1.514-.8-1.525.43-2.753q.921-.92,1.843-1.84A.823.823,0,0,1-98.765,695.9Zm-2.225,13a11.778,11.778,0,0,0,11.759,11.755A11.778,11.778,0,0,0-77.474,708.9a11.774,11.774,0,0,0-11.76-11.754A11.774,11.774,0,0,0-100.99,708.9Z" transform="translate(-5.866 -76.043)" fill="#7cd1b3"/>
      <path id="Trazado_636081" data-name="Trazado 636081" d="M29.569,642.969A14.963,14.963,0,1,1,44.505,628.01,14.99,14.99,0,0,1,29.569,642.969Zm-.014-2.138A12.825,12.825,0,1,0,16.713,628.02,12.849,12.849,0,0,0,29.554,640.831Z" transform="translate(-93.639 -17.595)" fill="#f2d37d"/>
      <path id="Trazado_636082" data-name="Trazado 636082" d="M58.486,754.182c0-1.38-.006-2.759,0-4.139.005-.873.393-1.262,1.264-1.268q1.936-.013,3.872,0c.874.006,1.269.392,1.271,1.262.007,2.781.017,5.563,0,8.344a3.2,3.2,0,1,1-6.4.006C58.471,756.985,58.486,755.583,58.486,754.182Z" transform="translate(-125.791 -116.985)" fill="#969ea8"/>
      <path id="Trazado_636083" data-name="Trazado 636083" d="M64.592,734.59c-.133,0-.267-.007-.4,0-1.8.113-1.772-.709-1.747-1.919.006-.3.106-.383.388-.341a12.108,12.108,0,0,0,3.512,0c.279-.041.415.029.388.339-.021.242,0,.487-.006.731a1.091,1.091,0,0,1-1.2,1.188C65.213,734.6,64.9,734.589,64.592,734.59Z" transform="translate(-128.69 -104.94)" fill="#c9cdd4"/>
      <path id="Trazado_636084" data-name="Trazado 636084" d="M-66.6,605.016c3.339,0,6.679.016,10.018-.016.577-.006.676.163.672.7-.027,3.116-.022,6.233,0,9.349,0,.479-.062.674-.626.672q-10.085-.035-20.17,0c-.523,0-.606-.153-.6-.629.021-3.161.026-6.322,0-9.482-.005-.526.158-.6.631-.6C-73.323,605.026-69.962,605.016-66.6,605.016Zm.061,2.137c-2.691,0-5.382.008-8.073-.009-.418,0-.57.085-.563.54.028,1.779.025,3.558,0,5.337-.006.43.105.556.548.555q8.006-.023,16.013,0c.5,0,.567-.176.561-.61-.023-1.734-.029-3.469,0-5.2.009-.494-.111-.63-.617-.625C-61.29,607.169-63.914,607.154-66.539,607.154Z" transform="translate(-26.347 -11.705)"/>
      <path id="Trazado_636085" data-name="Trazado 636085" d="M-67.155,668.9c3.183,0,6.367.012,9.55-.012.491,0,.632.1.622.611-.031,1.538-.006,1.538-1.552,1.538-6.032,0-12.065-.008-18.1.014-.547,0-.706-.114-.69-.68.043-1.47.013-1.471,1.486-1.471Z" transform="translate(-26.342 -58.49)"/>
      <path id="Trazado_636086" data-name="Trazado 636086" d="M-53.3,652.937c2.493,0,4.986.012,7.479-.011.444,0,.546.124.543.551-.008,1.6.008,1.6-1.556,1.6-4.63,0-9.259-.009-13.889.013-.508,0-.621-.129-.612-.621.029-1.529.006-1.53,1.559-1.53Z" transform="translate(-38.046 -46.8)"/>
      <path id="Trazado_636087" data-name="Trazado 636087" d="M18.888,796.665c1.246,0,2.492.015,3.738-.009.378-.007.475.1.479.478.021,1.668.034,1.668-1.617,1.668-2.136,0-4.272-.013-6.408.01-.436,0-.55-.112-.547-.547.009-1.6-.009-1.6,1.619-1.6Z" transform="translate(-93.608 -152.053)"/>
      <path id="Trazado_636088" data-name="Trazado 636088" d="M18.762,814.767c-1.268,0-2.537-.013-3.8.009-.357.006-.434-.107-.441-.448-.037-1.7-.048-1.7,1.653-1.7,2.136,0,4.272.013,6.408-.011.42,0,.51.112.51.517,0,1.631.016,1.631-1.588,1.631Z" transform="translate(-93.589 -163.742)"/>
      <path id="Trazado_636089" data-name="Trazado 636089" d="M-76.188,652.967c1.063,0,1.063,0,1.063,1.074s0,1.063-1.074,1.063-1.063,0-1.063-1.074S-77.262,652.967-76.188,652.967Z" transform="translate(-26.387 -46.83)"/>
      <path id="Trazado_636090" data-name="Trazado 636090" d="M-89.241,720.616a11.774,11.774,0,0,1,11.756-11.757,11.774,11.774,0,0,1,11.76,11.753,11.778,11.778,0,0,1-11.757,11.759A11.778,11.778,0,0,1-89.241,720.616Zm10.689-7.4c0-.557-.026-1.115.009-1.669.025-.4-.114-.487-.486-.423a9.408,9.408,0,0,0-3.127,1.1,9.614,9.614,0,0,0-4.791,6.654c-.093.444-.086.722.536.687,1.065-.06,2.136-.031,3.2-.008.334.007.5-.063.6-.414a5.183,5.183,0,0,1,3.65-3.649c.3-.093.426-.211.41-.539C-78.573,714.376-78.552,713.8-78.552,713.218Zm10.6,6.328a9.214,9.214,0,0,0-2.061-4.958,9.476,9.476,0,0,0-5.842-3.443c-.288-.053-.6-.166-.577.382.043,1.156.019,2.314.008,3.471,0,.252.044.383.322.465a5.292,5.292,0,0,1,3.777,3.782c.055.185.1.31.339.308C-70.648,719.54-69.316,719.546-67.947,719.546Zm-16.915,2.138c-.557,0-1.116.036-1.668-.011-.473-.04-.485.16-.438.535a9.761,9.761,0,0,0,7.86,7.887c.4.054.59.03.57-.467-.042-1.067-.04-2.137,0-3.2a.607.607,0,0,0-.527-.727,5.4,5.4,0,0,1-3.1-2.48c-.308-.492-.18-1.3-.774-1.493a6.312,6.312,0,0,0-1.857-.041Zm8.449,6.3c0,.6.015,1.2-.006,1.8-.011.31.1.372.384.33a8.072,8.072,0,0,0,1.741-.435,9.6,9.6,0,0,0,6.271-7.29c.112-.5.074-.756-.564-.719-1.02.059-2.047.037-3.07.005-.413-.013-.617.077-.74.51a5.288,5.288,0,0,1-2.53,3.133c-.479.286-1.253.192-1.442.741a5.752,5.752,0,0,0-.043,1.788C-76.414,727.891-76.414,727.936-76.413,727.98Zm2.136-7.383a3.223,3.223,0,0,0-3.19-3.187,3.219,3.219,0,0,0-3.221,3.221A3.223,3.223,0,0,0-77.5,723.82,3.225,3.225,0,0,0-74.278,720.6Z" transform="translate(-17.615 -87.76)" fill="#020302"/>
      <path id="Trazado_636091" data-name="Trazado 636091" d="M35.4,646.679a12.825,12.825,0,1,1,12.813-12.84A12.85,12.85,0,0,1,35.4,646.679Zm-.04-2.138A10.687,10.687,0,1,0,24.7,633.811,10.71,10.71,0,0,0,35.363,644.541Z" transform="translate(-99.488 -23.442)" fill="#030303"/>
      <path id="Trazado_636092" data-name="Trazado 636092" d="M-60.683,613.008c2.624,0,5.249.015,7.873-.013.506-.006.626.131.617.625-.032,1.734-.026,3.469,0,5.2.006.433-.06.612-.561.61q-8.007-.029-16.013,0c-.442,0-.553-.125-.548-.555.024-1.779.026-3.558,0-5.337-.007-.455.145-.542.563-.54C-66.065,613.016-63.374,613.008-60.683,613.008Z" transform="translate(-32.203 -17.559)" fill="#ee8774"/>
      <path id="Trazado_636093" data-name="Trazado 636093" d="M-72.4,719.368c0,.578-.021,1.158.008,1.735.016.328-.1.446-.41.539a5.183,5.183,0,0,0-3.65,3.649c-.106.351-.27.421-.6.414-1.068-.022-2.139-.052-3.2.008-.622.035-.629-.242-.536-.687A9.614,9.614,0,0,1-76,718.372a9.411,9.411,0,0,1,3.127-1.1c.372-.064.511.02.486.423C-72.421,718.253-72.4,718.811-72.4,719.368Z" transform="translate(-23.772 -93.91)" fill="#f9e7ad"/>
      <path id="Trazado_636094" data-name="Trazado 636094" d="M-32.9,725.67c-1.369,0-2.7-.006-4.033.005-.24,0-.284-.122-.339-.308a5.292,5.292,0,0,0-3.777-3.782c-.278-.082-.324-.213-.322-.465.011-1.157.035-2.315-.008-3.471-.02-.548.289-.435.577-.382a9.476,9.476,0,0,1,5.842,3.443A9.212,9.212,0,0,1-32.9,725.67Z" transform="translate(-52.666 -93.884)" fill="#f9e7ad"/>
      <path id="Trazado_636095" data-name="Trazado 636095" d="M-78.7,756.626h.067a6.312,6.312,0,0,1,1.857.041c.594.192.466,1,.774,1.493a5.4,5.4,0,0,0,3.1,2.48.607.607,0,0,1,.527.727c-.04,1.067-.043,2.137,0,3.2.02.5-.175.521-.57.467a9.761,9.761,0,0,1-7.86-7.887c-.047-.375-.035-.576.439-.535C-79.814,756.661-79.254,756.626-78.7,756.626Z" transform="translate(-23.78 -122.701)" fill="#f9e7ad"/>
      <path id="Trazado_636096" data-name="Trazado 636096" d="M-41.468,763.011c0-.045,0-.089,0-.134a5.751,5.751,0,0,1,.043-1.788c.19-.549.963-.455,1.442-.742a5.288,5.288,0,0,0,2.53-3.133c.124-.433.328-.523.74-.51,1.023.032,2.05.054,3.07-.005.638-.037.676.22.564.719a9.6,9.6,0,0,1-6.271,7.29,8.075,8.075,0,0,1-1.741.435c-.287.041-.4-.02-.384-.33C-41.453,764.213-41.468,763.612-41.468,763.011Z" transform="translate(-52.561 -122.79)" fill="#f9e8ad"/>
      <path id="Trazado_636097" data-name="Trazado 636097" d="M-50.882,743.989a3.225,3.225,0,0,1-3.222,3.223,3.223,3.223,0,0,1-3.189-3.188,3.219,3.219,0,0,1,3.221-3.222A3.223,3.223,0,0,1-50.882,743.989Z" transform="translate(-41.01 -111.151)" fill="#ec8673"/>
      <path id="Trazado_636098" data-name="Trazado 636098" d="M41.213,650.39a10.687,10.687,0,1,1,10.714-10.679A10.71,10.71,0,0,1,41.213,650.39Zm7.163-15.265c-.08-.1-.14-.187-.213-.261a10.015,10.015,0,0,1-.748-.761c-.349-.444-.586-.469-1.02-.025-2.332,2.386-4.7,4.734-7.069,7.086-.421.418-.809,1.177-1.3,1.136-.464-.039-.882-.731-1.3-1.151-1.21-1.2-1.2-1.2-2.378.085-.217.236-.224.364,0,.586q1.713,1.684,3.4,3.4c.23.235.359.215.581-.007q4.875-4.893,9.763-9.771C48.184,635.347,48.267,635.245,48.376,635.125Z" transform="translate(-105.338 -29.292)" fill="#83d2ee"/>
      <path id="Trazado_636099" data-name="Trazado 636099" d="M58.307,648.09c-.108.12-.192.222-.285.315q-4.883,4.884-9.763,9.771c-.222.223-.351.242-.581.008q-1.682-1.716-3.4-3.4c-.226-.222-.218-.351,0-.586,1.178-1.283,1.168-1.287,2.378-.085.423.42.84,1.112,1.3,1.151.487.041.875-.718,1.3-1.136,2.367-2.352,4.737-4.7,7.069-7.086.434-.444.671-.419,1.02.025a10,10,0,0,0,.748.761C58.168,647.9,58.228,647.991,58.307,648.09Z" transform="translate(-115.269 -42.257)" fill="#030506"/>
    </g>
  </g>
</svg>
