<svg xmlns="http://www.w3.org/2000/svg" width="190" height="141" viewBox="0 0 190 141">
  <g id="Grupo_969969" data-name="Grupo 969969" transform="translate(-180 -3122)">
    <g id="Grupo_969968" data-name="Grupo 969968" transform="translate(173.854 2479.385)">
      <path id="Trazado_637431" data-name="Trazado 637431" d="M108.88,704.489c.241-.388.478-.78.725-1.165,3.484-5.428,10.537-5.434,13.978.023,3.129,4.964,6.2,9.967,9.293,14.951q12.955,20.857,25.907,41.715c2.943,4.749.924,10.506-4.209,12.163a8.444,8.444,0,0,1-2.622.4q-35.34-.006-70.68-.006A8.06,8.06,0,0,1,74.3,760.21c1.276-2.115,2.6-4.2,3.905-6.3.2-.316.367-.647.56-.987a2.492,2.492,0,0,0-1.311-.137c-9.246-.008-18.492,0-27.738-.01-4.37-.007-7.58-2.631-8.288-6.746a10.25,10.25,0,0,1-.094-1.734q-.006-38.12,0-76.24c0-5.031,3.3-8.342,8.34-8.372q4.584-.027,9.168,0a1.4,1.4,0,0,0,1.284-.562,3.762,3.762,0,0,1,3.145-1.449c.5,0,1.008-.033,1.508.005a5.566,5.566,0,0,0,5.016-1.813c3.218-3.386,8.615-2.751,11.477.994a1.812,1.812,0,0,0,1.711.82c1.274-.052,2.553-.014,3.829,0a3.706,3.706,0,0,1,3.047,1.407,1.5,1.5,0,0,0,1.378.6q4.526-.032,9.052-.007c5.117.024,8.379,3.305,8.382,8.437q.009,17.58,0,35.161v1.134ZM82.86,661.67a4.629,4.629,0,0,1-4.359-1.863c-1.98-2.854-4.988-2.837-7.011,0a4.041,4.041,0,0,1-3.546,1.829c-1.354-.02-2.708.013-4.062-.012-.521-.01-.767.114-.76.7q.04,3.249,0,6.5c-.007.55.17.734.726.732q9.514-.044,19.03-.052c1.04.011,2.081,0,3.12.044.644.03.881-.187.871-.851q-.05-3.121,0-6.244c.012-.687-.267-.856-.889-.829C84.941,661.67,83.9,661.658,82.86,661.67Zm17.879,8.9v46.617c1.316-1.7,2.382-3.441,3.481-5.16a3.054,3.054,0,0,0,.5-1.732q-.023-21.16-.013-42.32a4.931,4.931,0,0,0-.161-1.489c-.655-2.119-2.273-3-5.184-2.782-1.85-.019-3.7-.048-5.551-.053-3.106-.009-3.087,0-3,3.105.019.644.188.883.854.862,1.388-.043,2.783.068,4.165-.031A4.438,4.438,0,0,1,100.739,670.574ZM80.094,744.9c-.463-.014-.927-.04-1.39-.04q-12.3,0-24.6,0c-3.41,0-4.868-1.461-4.868-4.867q0-33.763,0-67.526c0-.348-.013-.7.008-1.044a3.919,3.919,0,0,1,3.911-3.8c1.043-.03,2.088-.009,3.133-.01,2.908,0,2.876,0,2.906-2.863.008-.84-.173-1.138-1.076-1.117-2.706.062-5.414.02-8.122.023-3.286,0-4.713,1.44-4.713,4.747q0,37.766,0,75.532c0,3.422,1.448,4.884,4.848,4.884q13.287,0,26.573,0c.423,0,.847-.044,1.27-.067a16.959,16.959,0,0,0,2.875.094.7.7,0,0,0,.7-.3c.739-1.19,1.484-2.376,2.357-3.771A34.821,34.821,0,0,0,80.094,744.9Zm3.021-4.12a15.732,15.732,0,0,1,1.726.1c1.123.183,1.705-.335,2.275-1.274,2.944-4.854,5.957-9.665,8.978-14.472a4.417,4.417,0,0,0,.726-2.481q-.038-23.725-.028-47.45c0-1.183.531-2.841-.221-3.431-.851-.668-2.441-.209-3.71-.149-1.346-.137-2.621-.242-3.613,1.066a2.828,2.828,0,0,1-2.335.825q-11.891,0-23.781,0a2.869,2.869,0,0,1-2.342-.81c-.957-1.242-2.187-1.181-3.494-1.138a24.288,24.288,0,0,1-2.9-.012c-.94-.081-1.227.173-1.226,1.175q.049,33.463,0,66.926c0,1.088.344,1.24,1.3,1.237,9.087-.034,18.174-.019,27.261-.024C82.192,740.864,82.653,740.807,83.115,740.777ZM115.1,703.6a4.037,4.037,0,0,0-2.314,2.133q-13.781,22.19-27.564,44.379c-2.506,4.034-5.025,8.061-7.5,12.112A4.05,4.05,0,0,0,78.963,768a4.913,4.913,0,0,0,2.668.619q34.168-.01,68.335-.007c.308,0,.617-.027.925-.042,2.927.18,4.621-.844,5.211-3.123a4.581,4.581,0,0,0-.9-3.7q-13.093-21.06-26.171-42.129-4.4-7.087-8.809-14.171C118.946,703.4,117.2,702.8,115.1,703.6Z" fill="#020201"/>
      <path id="Trazado_637432" data-name="Trazado 637432" d="M191.938,826c-.308.015-.617.042-.925.042q-34.168,0-68.335.007a4.913,4.913,0,0,1-2.668-.619,4.05,4.05,0,0,1-1.244-5.77c2.478-4.051,5-8.078,7.5-12.112q13.781-22.19,27.564-44.379a4.038,4.038,0,0,1,2.314-2.133c.549.069.721.552.956.928q3.862,6.174,7.7,12.366,7.068,11.4,14.129,22.8,6.59,10.6,13.211,21.19a6.173,6.173,0,0,1-.1,7.353A1.116,1.116,0,0,0,191.938,826Zm-40.212-37.637q0,4.753,0,9.5a7.3,7.3,0,0,0,.177,1.954,5.941,5.941,0,0,0,11.688-1.52c.039-6.453.02-12.905.011-19.358-.005-3.706-2.462-6.326-5.909-6.372a6.016,6.016,0,0,0-5.994,6.4C151.82,782.1,151.725,785.238,151.726,788.367Zm5.962,31.71a5.931,5.931,0,0,0,5.914-5.9,6,6,0,0,0-5.987-5.971,5.936,5.936,0,0,0,.073,11.872Z" transform="translate(-41.045 -57.437)" fill="#f8db49"/>
      <path id="Trazado_637433" data-name="Trazado 637433" d="M96.732,761.335c-.461.031-.922.087-1.384.087-9.087.005-18.174-.01-27.261.024-.96,0-1.305-.148-1.3-1.237q.057-33.463,0-66.926c0-1,.286-1.257,1.226-1.175a24.288,24.288,0,0,0,2.9.012c1.306-.043,2.536-.1,3.494,1.138a2.87,2.87,0,0,0,2.342.81q11.891-.007,23.781,0a2.828,2.828,0,0,0,2.335-.825c.992-1.308,2.267-1.2,3.613-1.066-.057,3.727.135,7.456-.1,11.182a2.27,2.27,0,0,0-2.328-1.365C99.031,702,94.014,701.987,89,702c-1.481.005-2.336.768-2.339,1.985s.862,1.99,2.331,2c5.055.017,10.111,0,15.166.008a2.186,2.186,0,0,0,2.212-1.358c.213,4.872.129,9.745.046,14.618a2.316,2.316,0,0,0-2.312-1.387c-5.063.032-10.127.015-15.19.012a2.185,2.185,0,0,0-1.61.5,1.884,1.884,0,0,0-.52,2.12,2.055,2.055,0,0,0,2.2,1.34q7.538-.01,15.075,0a2.3,2.3,0,0,0,2.322-1.387c.178,4.874.145,9.747.018,14.621a2.392,2.392,0,0,0-2.434-1.389c-4.947.034-9.895.012-14.842.016-1.57,0-2.456.724-2.457,1.976s.882,1.973,2.454,1.974c4.948.005,9.895-.019,14.842.017a2.389,2.389,0,0,0,2.437-1.383c.028,2.783.052,5.566.087,8.349a1.72,1.72,0,0,1-.351.954q-4.086,6.587-8.145,13.191C97.5,759.591,96.741,760.285,96.732,761.335ZM82.658,704.117a5.941,5.941,0,1,0-11.879-.248,6.01,6.01,0,0,0,5.886,6.076A5.948,5.948,0,0,0,82.658,704.117Zm-5.905,53.332a5.882,5.882,0,0,0,5.9-5.886,5.941,5.941,0,0,0-5.947-5.987,6.008,6.008,0,0,0-5.933,5.914A5.944,5.944,0,0,0,76.753,757.449Zm5.9-37.442a5.871,5.871,0,0,0-5.7-6.08,5.938,5.938,0,0,0-6.175,5.749,6.007,6.007,0,0,0,5.845,6.114A5.93,5.93,0,0,0,82.654,720.007Zm-5.935,21.6a5.928,5.928,0,0,0,.028-11.856,5.928,5.928,0,1,0-.028,11.856Zm16.855,11.882c1.582,0,3.165.02,4.747-.006a1.911,1.911,0,0,0,2.154-1.9,1.957,1.957,0,0,0-2.154-2.046q-4.747-.045-9.494,0a1.956,1.956,0,0,0-2.158,2.043,1.928,1.928,0,0,0,2.156,1.9C90.408,753.511,91.99,753.492,93.573,753.492Z" transform="translate(-13.617 -20.559)" fill="#f7deb5"/>
      <path id="Trazado_637434" data-name="Trazado 637434" d="M82.523,760.212c-.423.023-.847.067-1.27.067q-13.286.006-26.573,0c-3.4,0-4.848-1.462-4.848-4.884q0-37.766,0-75.532c0-3.307,1.427-4.744,4.713-4.747,2.707,0,5.416.04,8.122-.023.9-.021,1.084.277,1.076,1.117-.03,2.862,0,2.862-2.906,2.863-1.044,0-2.089-.021-3.133.01a3.919,3.919,0,0,0-3.911,3.8c-.021.347-.008.7-.008,1.044q0,33.763,0,67.526c0,3.406,1.458,4.866,4.868,4.867q12.3,0,24.6,0c.463,0,.927.026,1.39.04C84.151,757.763,82.991,758.8,82.523,760.212Z" transform="translate(-4.55 -11.466)" fill="#ef9b37"/>
      <path id="Trazado_637435" data-name="Trazado 637435" d="M140.836,734.93c.127-4.874.16-9.747-.018-14.621q.017-.6.034-1.207c.084-4.873.167-9.746-.046-14.618a2.693,2.693,0,0,0,.008-1.277c.236-3.725.044-7.455.1-11.182,1.269-.06,2.86-.519,3.71.149.752.591.22,2.248.221,3.431q.022,23.725.028,47.45a4.418,4.418,0,0,1-.726,2.481c-3.021,4.807-6.034,9.618-8.978,14.472-.57.939-1.152,1.457-2.275,1.274a15.747,15.747,0,0,0-1.726-.1c.009-1.05.765-1.745,1.256-2.55q4.041-6.615,8.145-13.191a1.72,1.72,0,0,0,.351-.954c-.036-2.783-.06-5.566-.087-8.349Q140.836,735.537,140.836,734.93Z" transform="translate(-48.056 -20.41)" fill="#d9c2a0"/>
      <path id="Trazado_637436" data-name="Trazado 637436" d="M235.731,825.61a1.114,1.114,0,0,1,.1-.329,6.173,6.173,0,0,0,.1-7.353q-6.615-10.589-13.211-21.19-7.078-11.39-14.13-22.8-3.838-6.189-7.7-12.366c-.235-.376-.407-.859-.956-.928,2.1-.8,3.846-.2,5.121,1.838q4.424,7.073,8.809,14.171,13.084,21.066,26.171,42.129a4.581,4.581,0,0,1,.9,3.7C240.352,824.765,238.659,825.79,235.731,825.61Z" transform="translate(-84.839 -57.042)" fill="#f1c043"/>
      <path id="Trazado_637437" data-name="Trazado 637437" d="M166.1,675.229c2.912-.215,4.529.663,5.184,2.782a4.931,4.931,0,0,1,.161,1.489q0,21.16.013,42.32a3.054,3.054,0,0,1-.5,1.732c-1.1,1.719-2.165,3.458-3.481,5.16V682.094C167.52,679.706,167.823,677.264,166.1,675.229Z" transform="translate(-66.74 -11.521)" fill="#e58031"/>
      <path id="Trazado_637438" data-name="Trazado 637438" d="M107.944,674.121q-9.515.021-19.03.052c-.556,0-.733-.182-.726-.732q.036-3.249,0-6.5c-.007-.586.239-.709.76-.7,1.354.026,2.708-.008,4.062.012a4.041,4.041,0,0,0,3.546-1.829c2.023-2.84,5.031-2.857,7.011,0a4.628,4.628,0,0,0,4.359,1.863Q107.935,670.2,107.944,674.121Zm-7.847-7.862a1.958,1.958,0,0,0-1.975,1.983,1.9,1.9,0,0,0,1.865,1.956,1.979,1.979,0,0,0,2.061-1.9A2.02,2.02,0,0,0,100.1,666.259Z" transform="translate(-25.066 -4.617)" fill="#9c9c9c"/>
      <path id="Trazado_637439" data-name="Trazado 637439" d="M156.244,675.2c1.721,2.035,1.418,4.477,1.377,6.866a4.438,4.438,0,0,0-4.9-2.982c-1.382.1-2.777-.012-4.165.031-.666.021-.836-.219-.854-.862-.091-3.108-.11-3.114,3-3.105C152.543,675.155,154.394,675.184,156.244,675.2Z" transform="translate(-56.882 -11.494)" fill="#ef9b37"/>
      <path id="Trazado_637440" data-name="Trazado 637440" d="M130.642,678.662l-.018-7.834c1.04-.012,2.081,0,3.12-.045.622-.027.9.142.889.829q-.053,3.121,0,6.244c.011.664-.227.88-.871.851C132.724,678.658,131.683,678.673,130.642,678.662Z" transform="translate(-47.764 -9.158)" fill="#707070"/>
      <path id="Trazado_637441" data-name="Trazado 637441" d="M120.117,853.517c.467-1.415,1.627-2.449,2.121-3.85a34.835,34.835,0,0,1,3.809-.131c-.873,1.395-1.618,2.581-2.357,3.771a.7.7,0,0,1-.7.3A16.959,16.959,0,0,1,120.117,853.517Z" transform="translate(-42.144 -104.771)" fill="#c57229"/>
      <path id="Trazado_637442" data-name="Trazado 637442" d="M190.4,801.631c0-3.13.095-6.263-.025-9.388a6.016,6.016,0,0,1,5.994-6.4c3.447.046,5.9,2.667,5.909,6.372.009,6.453.027,12.905-.011,19.358a5.941,5.941,0,0,1-11.688,1.52,7.3,7.3,0,0,1-.177-1.954Q190.4,806.383,190.4,801.631Zm3.988.115c0,3.207,0,6.413,0,9.619a1.841,1.841,0,0,0,.815,1.794,1.862,1.862,0,0,0,1.968.181,2.275,2.275,0,0,0,1.168-2.227q0-9.5-.006-19.006c0-1.482-.773-2.281-2.057-2.246-1.238.033-1.879.788-1.883,2.266C194.383,795.333,194.389,798.54,194.389,801.746Z" transform="translate(-79.722 -70.7)" fill="#020201"/>
      <path id="Trazado_637443" data-name="Trazado 637443" d="M196.4,874.314a5.936,5.936,0,0,1-.073-11.872,6,6,0,0,1,5.987,5.971A5.931,5.931,0,0,1,196.4,874.314Zm-.058-7.917a2.1,2.1,0,0,0-1.911,1.934,1.853,1.853,0,0,0,1.9,1.994,1.964,1.964,0,1,0,.006-3.927Z" transform="translate(-79.763 -111.674)" fill="#020201"/>
      <path id="Trazado_637444" data-name="Trazado 637444" d="M87.249,710.957a5.948,5.948,0,0,1-5.994,5.828,5.951,5.951,0,1,1,.132-11.9A5.943,5.943,0,0,1,87.249,710.957Zm-3.984-.086a1.944,1.944,0,0,0-1.934-2.006,2.012,2.012,0,0,0-1.994,1.983,1.975,1.975,0,0,0,1.914,1.93A1.9,1.9,0,0,0,83.265,710.871Z" transform="translate(-18.208 -27.399)" fill="#030302"/>
      <path id="Trazado_637445" data-name="Trazado 637445" d="M81.345,818.95a5.944,5.944,0,0,1-5.975-5.959,6.008,6.008,0,0,1,5.933-5.915,5.941,5.941,0,0,1,5.947,5.988A5.882,5.882,0,0,1,81.345,818.95Zm-.071-7.906a2.044,2.044,0,0,0-1.933,2.06,1.988,1.988,0,0,0,2.088,1.871,1.886,1.886,0,0,0,1.834-2.082A1.959,1.959,0,0,0,81.273,811.044Z" transform="translate(-18.209 -82.06)" fill="#030302"/>
      <path id="Trazado_637446" data-name="Trazado 637446" d="M87.244,745.111a5.93,5.93,0,0,1-6.029,5.783,6.007,6.007,0,0,1-5.845-6.114,5.938,5.938,0,0,1,6.175-5.749A5.871,5.871,0,0,1,87.244,745.111ZM81.439,743a1.983,1.983,0,0,0-2.1,1.861,2.04,2.04,0,0,0,1.918,2.071,1.963,1.963,0,0,0,2-1.837A1.891,1.891,0,0,0,81.439,743Z" transform="translate(-18.208 -45.663)" fill="#030302"/>
      <path id="Trazado_637447" data-name="Trazado 637447" d="M81.31,784.916a5.928,5.928,0,1,1,.028-11.856,5.928,5.928,0,0,1-.028,11.856Zm1.96-5.948a1.937,1.937,0,0,0-2-1.952,2.029,2.029,0,0,0-1.934,1.937,2.008,2.008,0,0,0,1.977,2A1.923,1.923,0,0,0,83.271,778.968Z" transform="translate(-18.209 -63.865)" fill="#020201"/>
      <path id="Trazado_637448" data-name="Trazado 637448" d="M129.23,714.739a2.693,2.693,0,0,1-.008,1.277,2.186,2.186,0,0,1-2.212,1.358c-5.055,0-10.111.009-15.166-.008-1.469-.005-2.334-.785-2.331-2s.858-1.98,2.339-1.985c5.017-.017,10.034,0,15.051-.012A2.27,2.27,0,0,1,129.23,714.739Z" transform="translate(-36.472 -31.941)" fill="#0c0b09"/>
      <path id="Trazado_637449" data-name="Trazado 637449" d="M129.261,748.885q-.017.6-.034,1.207a2.3,2.3,0,0,1-2.322,1.387q-7.537-.024-15.075,0a2.055,2.055,0,0,1-2.2-1.34,1.884,1.884,0,0,1,.52-2.12,2.185,2.185,0,0,1,1.61-.5c5.064,0,10.127.02,15.19-.012A2.316,2.316,0,0,1,129.261,748.885Z" transform="translate(-36.465 -50.193)" fill="#030302"/>
      <path id="Trazado_637450" data-name="Trazado 637450" d="M129.259,782.912q0,.606,0,1.212a2.389,2.389,0,0,1-2.437,1.383c-4.947-.036-9.894-.012-14.842-.017-1.572,0-2.455-.722-2.454-1.974s.887-1.975,2.457-1.976c4.947,0,9.895.018,14.842-.016A2.392,2.392,0,0,1,129.259,782.912Z" transform="translate(-36.479 -68.392)" fill="#020201"/>
      <path id="Trazado_637451" data-name="Trazado 637451" d="M116.439,819.526c-1.582,0-3.165.019-4.747-.006a1.928,1.928,0,0,1-2.156-1.9,1.956,1.956,0,0,1,2.158-2.043q4.746-.045,9.494,0a1.957,1.957,0,0,1,2.154,2.046,1.911,1.911,0,0,1-2.154,1.9C119.6,819.546,118.022,819.526,116.439,819.526Z" transform="translate(-36.484 -86.593)" fill="#030302"/>
      <path id="Trazado_637452" data-name="Trazado 637452" d="M111.521,670.824a2.02,2.02,0,0,1,1.951,2.036,1.979,1.979,0,0,1-2.061,1.9,1.9,1.9,0,0,1-1.865-1.956A1.958,1.958,0,0,1,111.521,670.824Z" transform="translate(-36.49 -9.181)" fill="#030302"/>
      <path id="Trazado_637453" data-name="Trazado 637453" d="M199.005,806.37c0-3.206-.006-6.413,0-9.619,0-1.478.645-2.232,1.883-2.266,1.284-.034,2.054.764,2.057,2.246q.023,9.5.006,19.006a2.276,2.276,0,0,1-1.168,2.227,1.862,1.862,0,0,1-1.968-.181,1.841,1.841,0,0,1-.815-1.794C199.01,812.783,199.005,809.576,199.005,806.37Z" transform="translate(-84.338 -75.324)" fill="#39464d"/>
      <path id="Trazado_637454" data-name="Trazado 637454" d="M200.932,870.945a1.964,1.964,0,1,1-.006,3.927,1.853,1.853,0,0,1-1.9-1.994A2.1,2.1,0,0,1,200.932,870.945Z" transform="translate(-84.348 -116.222)" fill="#39464d"/>
      <path id="Trazado_637455" data-name="Trazado 637455" d="M87.831,715.45a1.9,1.9,0,0,1-2.014,1.907,1.975,1.975,0,0,1-1.914-1.93,2.012,2.012,0,0,1,1.994-1.983A1.944,1.944,0,0,1,87.831,715.45Z" transform="translate(-22.774 -31.978)" fill="#a6bb3b"/>
      <path id="Trazado_637456" data-name="Trazado 637456" d="M85.838,815.6a1.959,1.959,0,0,1,1.989,1.848,1.886,1.886,0,0,1-1.834,2.082,1.988,1.988,0,0,1-2.088-1.871A2.044,2.044,0,0,1,85.838,815.6Z" transform="translate(-22.774 -86.621)" fill="#a6bb3b"/>
      <path id="Trazado_637457" data-name="Trazado 637457" d="M86.009,747.559a1.891,1.891,0,0,1,1.82,2.1,1.963,1.963,0,0,1-2,1.837,2.04,2.04,0,0,1-1.918-2.071A1.983,1.983,0,0,1,86.009,747.559Z" transform="translate(-22.778 -50.224)" fill="#a6bb3b"/>
      <path id="Trazado_637458" data-name="Trazado 637458" d="M87.835,783.517a1.923,1.923,0,0,1-1.955,1.989,2.008,2.008,0,0,1-1.977-2,2.029,2.029,0,0,1,1.934-1.937A1.937,1.937,0,0,1,87.835,783.517Z" transform="translate(-22.773 -68.414)" fill="#a6bb3b"/>
    </g>
    <rect id="Rectángulo_307348" data-name="Rectángulo 307348" width="190" height="141" transform="translate(180 3122)" fill="none"/>
  </g>
</svg>
