<svg xmlns="http://www.w3.org/2000/svg" width="85" height="85" viewBox="0 0 85 85">
  <g id="Grupo_956652" data-name="Grupo 956652" transform="translate(-180 -6099)">
    <rect id="Rectángulo_34178" data-name="Rectángulo 34178" width="85" height="85" transform="translate(180 6099)" fill="none"/>
    <g id="Grupo_968936" data-name="Grupo 968936" transform="translate(-979.041 5380.529)">
      <path id="Trazado_637163" data-name="Trazado 637163" d="M1170.773,793.122q0-1.412,0-2.823c.83-.2,1.029-.758,1.028-1.552q-.021-27.342-.01-54.685c0-1.733.635-2.364,2.377-2.364h31.218c.239,0,.477.015.716.022,0,3.469-.048,6.938.018,10.405a6.3,6.3,0,0,0,3.6,5.827c.553.288,1.219.259,1.7.692-.262.011-.524.031-.786.031q-12.058,0-24.116,0c-.239,0-.479-.01-.718.005a2.278,2.278,0,0,0-2.231,2.333c-.012.6,0,1.2,0,1.794,0,1.823.859,2.692,2.668,2.692q15.826,0,31.651.008a2.467,2.467,0,0,0,2.609-1.7c.149.158.114.356.115.544q0,2.331,0,4.662c0,.188.036.387-.13.536a2.309,2.309,0,0,0-2.183-1.576q-16.224-.007-32.447,0a2.234,2.234,0,0,0-2.28,2.268c-.016.6,0,1.2,0,1.794,0,1.885.823,2.718,2.694,2.718q15.792,0,31.585.016a2.6,2.6,0,0,0,2.612-1.491c.183.136.152.335.152.522q0,2.785,0,5.57c0,.187.03.387-.153.522a2.5,2.5,0,0,0-2.614-1.478c-.858.054-1.722.01-2.583.01q-14.57,0-29.141,0a2.281,2.281,0,0,0-2.552,2.566q0,.754,0,1.507c0,1.873.835,2.707,2.71,2.707H1216.3c-4.651,3.17-7.181,7.381-7.168,12.894.013,5.487,2.564,9.676,7.121,12.786-.2.012-.266.021-.338.021q-21.03,0-42.06,0a1.871,1.871,0,0,1-2.065-2.1c-.008-1.459-.017-2.919,0-4.378A1.154,1.154,0,0,0,1170.773,793.122Zm13.289-58.948c-2.44,0-4.88-.007-7.32,0a2.272,2.272,0,0,0-2.456,2.394c-.016.693-.02,1.388,0,2.081a2.227,2.227,0,0,0,2.293,2.335q7.5.039,15,0a2.237,2.237,0,0,0,2.282-2.351c.017-.622.006-1.244,0-1.866a2.333,2.333,0,0,0-2.626-2.593Q1187.65,734.171,1184.062,734.174Zm1.09,47.165q-3.8,0-7.6,0c-.741,0-1.482-.01-2.223.017a.989.989,0,0,0-1.023.991,1.047,1.047,0,0,0,.965,1.132,4.539,4.539,0,0,0,.644.017h18.506a2.3,2.3,0,0,0,.921-.093,1.012,1.012,0,0,0,.68-1.068.984.984,0,0,0-.828-.953,4.143,4.143,0,0,0-.785-.043Q1189.779,781.337,1185.152,781.339Zm9.179,4.641h-9.111c-.239,0-.48-.014-.717.009A1.02,1.02,0,0,0,1183.5,787a1.052,1.052,0,0,0,.977,1.121,4.149,4.149,0,0,0,.5.009h18.653a2.551,2.551,0,0,0,.572-.018,1.025,1.025,0,0,0,.9-1.116,1.009,1.009,0,0,0-.938-1,4.042,4.042,0,0,0-.645-.014Zm-10.156,6.782c2.892,0,5.785.005,8.677,0a1.063,1.063,0,0,0,1.187-1.053,1.1,1.1,0,0,0-1.166-1.1c-.167-.011-.334,0-.5,0q-8.21,0-16.421,0a3.868,3.868,0,0,0-.785.04,1.033,1.033,0,0,0-.846,1.216c.123.7.6.9,1.251.9C1178.439,792.758,1181.307,792.762,1184.176,792.762Zm-9.886-40.672a3.4,3.4,0,1,0,3.364-3.4A3.426,3.426,0,0,0,1174.29,752.091Zm3.429,12.669a3.39,3.39,0,1,0-3.429-3.389A3.4,3.4,0,0,0,1177.719,764.759Zm-.006,10.456a3.388,3.388,0,1,0-.051-6.776,3.388,3.388,0,1,0,.051,6.776Zm10.442-31.74c-1.458,0-2.916,0-4.374,0-.875,0-1.387.42-1.366,1.1.02.658.512,1.048,1.354,1.049q4.374.006,8.749,0c.828,0,1.334-.418,1.339-1.073s-.5-1.075-1.327-1.078C1191.071,743.471,1189.613,743.475,1188.154,743.475Zm13.66,37.868c-.717,0-1.435-.017-2.151.005a1.074,1.074,0,1,0,0,2.141q2.151.036,4.3,0a1.072,1.072,0,1,0,0-2.14C1203.249,781.325,1202.531,781.343,1201.814,781.343Zm-24.234,6.792c.715,0,1.431.01,2.146,0a1.113,1.113,0,0,0,1.217-1.042,1.1,1.1,0,0,0-1.219-1.107q-2.11-.018-4.22,0a1.075,1.075,0,0,0-1.206,1.036,1.087,1.087,0,0,0,1.208,1.112C1176.2,788.145,1176.889,788.134,1177.58,788.134Zm-.468-44.659c-.574,0-1.149-.017-1.722,0a1.058,1.058,0,0,0-1.1,1.081,1.045,1.045,0,0,0,1.049,1.056q1.757.044,3.515,0a1.069,1.069,0,1,0-.025-2.137C1178.261,743.457,1177.687,743.475,1177.112,743.475Z" transform="translate(-2.819 -5.34)" fill="#ecf4fc"/>
      <path id="Trazado_637164" data-name="Trazado 637164" d="M1167.954,845.412a1.154,1.154,0,0,1,1.025,1.318c-.021,1.459-.012,2.919,0,4.378a1.871,1.871,0,0,0,2.065,2.1q21.03,0,42.06,0c.071,0,.143-.008.338-.02-4.557-3.111-7.108-7.3-7.121-12.786-.013-5.513,2.517-9.724,7.168-12.894h-30.026c-1.876,0-2.709-.834-2.71-2.707,0-.5,0-1,0-1.507a2.281,2.281,0,0,1,2.552-2.566q14.57,0,29.141,0c.861,0,1.725.044,2.583-.01a2.5,2.5,0,0,1,2.614,1.478,27.162,27.162,0,0,1,.081,3.557,14.709,14.709,0,0,1,1.792-.262c.6-.017.726-.26.725-.823-.02-6.023,0-12.046-.023-18.069a1.293,1.293,0,0,1,1.026-1.48c1.033.356,1.14.51,1.14,1.657,0,5.981.009,11.962-.015,17.942,0,.565.179.711.7.766a15,15,0,0,1,.59,29.7,15.3,15.3,0,0,1-2.573.188q-24.976-.008-49.952,0a4.007,4.007,0,0,1-4.31-4.289q-.006-2.153,0-4.306C1166.823,845.893,1167.087,845.587,1167.954,845.412Zm63.892-12.3-.12-.167a12.2,12.2,0,0,0-9.94-5.408,12.787,12.787,0,0,0-13.033,15.557,12.93,12.93,0,0,0,14.858,9.887,12.722,12.722,0,0,0,10.5-11.824,11.872,11.872,0,0,0-2.255-8.031Zm-24.683-7.758h6.667c1.769,0,1.74,0,1.773-1.742.012-.622-.2-.741-.774-.739-4.732.022-9.464.012-14.2.012-1.809,0-1.789,0-1.793,1.849,0,.515.163.634.651.629C1202.048,825.341,1204.6,825.353,1207.162,825.353Zm-17.457,0h5.233c1.773,0,1.746,0,1.776-1.781.009-.582-.174-.7-.721-.7-3.751.023-7.5.012-11.254.012-1.865,0-1.844,0-1.85,1.855,0,.52.169.63.652.625C1185.6,825.339,1187.65,825.353,1189.7,825.353Z" transform="translate(0 -57.629)" fill="#020202"/>
      <path id="Trazado_637165" data-name="Trazado 637165" d="M1203.288,726.382c-.239-.008-.477-.022-.716-.022h-31.218c-1.743,0-2.377.631-2.377,2.364q0,27.342.01,54.685c0,.794-.2,1.357-1.028,1.552-.93-.256-1.136-.511-1.136-1.452q0-27.568,0-55.135a3.974,3.974,0,0,1,4.143-4.166q17.229-.008,34.459-.005a4.174,4.174,0,0,1,3.086,1.277q6.289,6.3,12.588,12.59a4.177,4.177,0,0,1,1.28,3.088c0,.694,0,1.388,0,2.082,0,.941-.223,1.217-1.132,1.45a1.2,1.2,0,0,1-1.028-1.4c.031-.525-.04-1.058.018-1.577.074-.666-.1-.881-.827-.87-3.134.048-6.268.022-9.4.02a3.981,3.981,0,0,1-4.288-4.293c0-3.206-.009-6.412.008-9.618,0-.447-.082-.644-.578-.6C1204.534,726.4,1203.91,726.375,1203.288,726.382Zm4.6,1.706c0,.09-.016.224-.016.358,0,2.75-.007,5.5,0,8.249a1.834,1.834,0,0,0,2.063,2.013q4.089.008,8.177,0c.146,0,.336.1.389-.005Z" transform="translate(-0.006)" fill="#020202"/>
      <path id="Trazado_637166" data-name="Trazado 637166" d="M1293.486,731.684c.621-.008,1.245.017,1.863-.034.5-.041.58.157.578.6-.018,3.206-.012,6.412-.009,9.618a3.981,3.981,0,0,0,4.288,4.293c3.134,0,6.269.028,9.4-.02.724-.011.9.2.827.87-.058.52.013,1.053-.018,1.577a1.2,1.2,0,0,0,1.028,1.4q0,1.4-.008,2.8a1.293,1.293,0,0,0-1.026,1.48c.02,6.023,0,12.046.023,18.069,0,.562-.121.806-.725.823a14.665,14.665,0,0,0-1.792.262,27.143,27.143,0,0,0-.081-3.558c.183-.135.153-.335.153-.522q0-2.785,0-5.57c0-.187.031-.387-.152-.522a18.961,18.961,0,0,0,.022-3.731c.165-.149.129-.349.13-.536q0-2.331,0-4.662c0-.188.034-.386-.115-.544.019-.808.052-1.616.053-2.424,0-1.856-.85-2.7-2.7-2.711q-3.213-.013-6.426-.034c-.482-.433-1.149-.4-1.7-.692a6.3,6.3,0,0,1-3.6-5.827C1293.437,738.622,1293.487,735.152,1293.486,731.684Z" transform="translate(-90.203 -5.302)" fill="#dde9f8"/>
      <path id="Trazado_637167" data-name="Trazado 637167" d="M1243.063,790.587q3.213.017,6.426.034c1.852.008,2.706.854,2.7,2.711,0,.808-.034,1.616-.053,2.424a2.467,2.467,0,0,1-2.609,1.7q-15.826-.021-31.651-.008c-1.809,0-2.667-.869-2.668-2.692,0-.6-.01-1.2,0-1.794a2.278,2.278,0,0,1,2.231-2.333c.238-.016.478-.005.718-.005q12.058,0,24.115,0C1242.539,790.618,1242.8,790.6,1243.063,790.587Zm-16.649,4.706h7.389c1.751,0,1.728,0,1.752-1.766.008-.586-.146-.772-.755-.769-5.237.024-10.473.014-15.71.014-1.733,0-1.71,0-1.739,1.766-.01.576.126.777.741.769C1220.865,795.274,1223.64,795.293,1226.413,795.293Zm17.436,0h4.451c1.767,0,1.734,0,1.771-1.761.014-.671-.234-.781-.831-.776-3.23.026-6.46.013-9.69.013-1.879,0-1.855,0-1.863,1.869,0,.565.2.673.708.666C1240.212,795.278,1242.031,795.295,1243.849,795.295Z" transform="translate(-34.464 -47.28)" fill="#050505"/>
      <path id="Trazado_637168" data-name="Trazado 637168" d="M1252.123,824.593a18.962,18.962,0,0,1-.022,3.731,2.6,2.6,0,0,1-2.612,1.491q-15.793-.038-31.585-.016c-1.871,0-2.693-.833-2.693-2.718,0-.6-.013-1.2,0-1.794a2.234,2.234,0,0,1,2.28-2.268q16.223-.012,32.447,0A2.309,2.309,0,0,1,1252.123,824.593Zm-21.351,3.049h11.763c1.691,0,1.655,0,1.705-1.717.019-.656-.184-.772-.795-.771q-12.157.032-24.315.014c-1.779,0-1.752,0-1.781,1.782-.01.587.183.705.727.7C1222.308,827.633,1226.54,827.642,1230.772,827.642Zm17.473-2.473c-1.956,0-1.942,0-1.879,1.964.014.427.165.523.55.513.835-.021,1.673-.035,2.508,0,.517.024.636-.171.637-.656C1250.066,825.169,1250.082,825.169,1248.245,825.169Z" transform="translate(-34.464 -70.374)" fill="#020202"/>
      <path id="Trazado_637169" data-name="Trazado 637169" d="M1192.724,740.295q3.588,0,7.176,0a2.333,2.333,0,0,1,2.626,2.593c0,.622.014,1.244,0,1.866a2.237,2.237,0,0,1-2.283,2.351q-7.5.042-15,0a2.227,2.227,0,0,1-2.293-2.335c-.021-.693-.018-1.387,0-2.081a2.272,2.272,0,0,1,2.456-2.394C1187.844,740.287,1190.284,740.295,1192.724,740.295Zm.071,2.152h-5.882c-1.842,0-1.816,0-1.835,1.825-.006.594.2.708.743.706,4.232-.02,8.465-.011,12.7-.011,1.885,0,1.863,0,1.87-1.862,0-.559-.19-.674-.705-.669C1197.386,742.461,1195.091,742.447,1192.8,742.447Z" transform="translate(-11.481 -11.46)" fill="#050505"/>
      <path id="Trazado_637170" data-name="Trazado 637170" d="M1193.875,904.179q4.627,0,9.253,0a4.143,4.143,0,0,1,.785.043.984.984,0,0,1,.828.953,1.013,1.013,0,0,1-.68,1.068,2.3,2.3,0,0,1-.921.093h-18.506a4.531,4.531,0,0,1-.644-.017,1.047,1.047,0,0,1-.965-1.132.989.989,0,0,1,1.024-.991c.74-.026,1.482-.017,2.223-.017Q1190.074,904.177,1193.875,904.179Z" transform="translate(-11.542 -128.179)" fill="#050505"/>
      <path id="Trazado_637171" data-name="Trazado 637171" d="M1225.805,920.292h9.183a4.033,4.033,0,0,1,.645.014,1.009,1.009,0,0,1,.939,1,1.026,1.026,0,0,1-.9,1.116,2.552,2.552,0,0,1-.572.018h-18.653a4.163,4.163,0,0,1-.5-.009,1.052,1.052,0,0,1-.977-1.121,1.02,1.02,0,0,1,1.007-1.015c.237-.023.478-.009.717-.009Z" transform="translate(-34.293 -139.651)" fill="#020202"/>
      <path id="Trazado_637172" data-name="Trazado 637172" d="M1192.91,938.526c-2.868,0-5.736,0-8.6,0-.651,0-1.128-.207-1.251-.9a1.033,1.033,0,0,1,.846-1.216,3.868,3.868,0,0,1,.785-.04q8.211,0,16.421,0c.167,0,.335-.008.5,0a1.1,1.1,0,0,1,1.167,1.1,1.063,1.063,0,0,1-1.187,1.053C1198.694,938.532,1195.8,938.526,1192.91,938.526Z" transform="translate(-11.553 -151.104)" fill="#050505"/>
      <path id="Trazado_637173" data-name="Trazado 637173" d="M1182.992,794.128a3.4,3.4,0,1,1,3.36,3.409A3.421,3.421,0,0,1,1182.992,794.128Zm4.642.006a1.282,1.282,0,0,0-1.221-1.248,1.244,1.244,0,1,0-.008,2.487A1.286,1.286,0,0,0,1187.634,794.133Z" transform="translate(-11.522 -47.377)" fill="#050505"/>
      <path id="Trazado_637174" data-name="Trazado 637174" d="M1186.422,829.8a3.39,3.39,0,1,1-.063-6.779,3.39,3.39,0,1,1,.063,6.779Zm1.217-3.411a1.275,1.275,0,0,0-1.257-1.213,1.224,1.224,0,0,0-1.219,1.3,1.2,1.2,0,0,0,1.271,1.167A1.254,1.254,0,0,0,1187.639,826.385Z" transform="translate(-11.522 -70.376)" fill="#030403"/>
      <path id="Trazado_637175" data-name="Trazado 637175" d="M1186.417,866.133a3.388,3.388,0,1,1,3.381-3.382A3.4,3.4,0,0,1,1186.417,866.133Zm1.239-3.422a1.263,1.263,0,0,0-1.329-1.212,1.235,1.235,0,0,0-1.188,1.271,1.249,1.249,0,0,0,1.319,1.218A1.282,1.282,0,0,0,1187.655,862.712Z" transform="translate(-11.523 -96.258)" fill="#030403"/>
      <path id="Trazado_637176" data-name="Trazado 637176" d="M1216.96,772.614c1.458,0,2.916,0,4.375,0,.826,0,1.332.419,1.327,1.078s-.511,1.072-1.339,1.073q-4.374.007-8.749,0c-.842,0-1.334-.391-1.354-1.049-.021-.683.49-1.1,1.366-1.1C1214.044,772.611,1215.5,772.614,1216.96,772.614Z" transform="translate(-31.625 -34.479)" fill="#020202"/>
      <path id="Trazado_637177" data-name="Trazado 637177" d="M1270.453,904.178c.717,0,1.435-.018,2.151.005a1.072,1.072,0,1,1,0,2.14q-2.15.038-4.3,0a1.074,1.074,0,1,1,0-2.141C1269.019,904.16,1269.736,904.177,1270.453,904.178Z" transform="translate(-71.458 -128.174)" fill="#050505"/>
      <path id="Trazado_637178" data-name="Trazado 637178" d="M1186.3,922.446c-.691,0-1.383.01-2.074,0a1.087,1.087,0,0,1-1.208-1.112,1.075,1.075,0,0,1,1.206-1.036q2.11-.017,4.22,0a1.1,1.1,0,0,1,1.219,1.107,1.113,1.113,0,0,1-1.217,1.042C1187.734,922.456,1187.018,922.446,1186.3,922.446Z" transform="translate(-11.542 -139.651)" fill="#030403"/>
      <path id="Trazado_637179" data-name="Trazado 637179" d="M1185.828,772.6c.574,0,1.149-.018,1.722,0a1.069,1.069,0,1,1,.025,2.137q-1.757.041-3.515,0a1.045,1.045,0,0,1-1.049-1.056,1.058,1.058,0,0,1,1.1-1.081C1184.68,772.585,1185.254,772.6,1185.828,772.6Z" transform="translate(-11.535 -34.466)" fill="#030403"/>
      <path id="Trazado_637180" data-name="Trazado 637180" d="M1317.378,906.548a12.075,12.075,0,0,1-5.574-8,12.787,12.787,0,0,1,13.033-15.557,12.205,12.205,0,0,1,9.94,5.408l.119.167.007.014a5.163,5.163,0,0,0,.088.562,15.1,15.1,0,0,1,.362,6.08,13.357,13.357,0,0,1-5.073,8.75,13.713,13.713,0,0,1-11.641,2.724C1318.236,906.619,1317.831,906.271,1317.378,906.548Zm14.378-11.095a3.637,3.637,0,0,0-.712-2.635c.831-.641.907-1.088.328-1.928a8.588,8.588,0,1,0,1.43,6.3C1332.993,896.085,1332.807,895.776,1331.756,895.453Z" transform="translate(-103.051 -113.084)" fill="#b2efc5"/>
      <path id="Trazado_637181" data-name="Trazado 637181" d="M1331.9,920.4c.453-.277.859.071,1.261.147a13.713,13.713,0,0,0,11.641-2.724,13.357,13.357,0,0,0,5.073-8.75,15.1,15.1,0,0,0-.362-6.079,5.166,5.166,0,0,1-.088-.562,11.872,11.872,0,0,1,2.255,8.031,12.722,12.722,0,0,1-10.5,11.824A11.965,11.965,0,0,1,1331.9,920.4Z" transform="translate(-117.575 -126.935)" fill="#9febad"/>
      <path id="Trazado_637182" data-name="Trazado 637182" d="M1286.413,869.289c-2.557,0-5.114-.012-7.671.01-.488,0-.652-.114-.651-.629,0-1.849-.016-1.849,1.793-1.849,4.732,0,9.464.009,14.2-.012.573,0,.785.117.774.739-.033,1.741,0,1.742-1.773,1.742Z" transform="translate(-79.251 -101.565)" fill="#4a72c2"/>
      <path id="Trazado_637183" data-name="Trazado 637183" d="M1229.481,869.285c-2.055,0-4.11-.014-6.164.01-.484.006-.654-.1-.652-.625.006-1.855-.015-1.855,1.85-1.855,3.751,0,7.5.011,11.254-.012.547,0,.731.119.721.7-.03,1.781,0,1.781-1.776,1.781Z" transform="translate(-39.776 -101.561)" fill="#da9752"/>
      <path id="Trazado_637184" data-name="Trazado 637184" d="M1392.477,901.97l-.12-.167Z" transform="translate(-160.631 -126.488)" fill="#9febad"/>
      <path id="Trazado_637185" data-name="Trazado 637185" d="M1309.474,737.707l10.616,10.611c-.053.1-.243,0-.389.005q-4.089.01-8.177,0a1.834,1.834,0,0,1-2.063-2.013c-.009-2.75,0-5.5,0-8.249C1309.458,737.931,1309.47,737.8,1309.474,737.707Z" transform="translate(-101.589 -9.619)" fill="#c1d6f7"/>
      <path id="Trazado_637186" data-name="Trazado 637186" d="M1231.72,800.665c-2.773,0-5.548-.019-8.321.014-.615.008-.751-.193-.741-.769.029-1.766.006-1.766,1.739-1.766,5.237,0,10.474.01,15.71-.014.609,0,.763.183.755.769-.025,1.765,0,1.766-1.753,1.766Z" transform="translate(-39.771 -52.653)" fill="#d1914e"/>
      <path id="Trazado_637187" data-name="Trazado 637187" d="M1299.477,800.664c-1.818,0-3.637-.016-5.455.01-.51.007-.711-.1-.708-.666.008-1.869-.016-1.869,1.863-1.869,3.23,0,6.46.014,9.69-.013.6,0,.845.105.831.776-.037,1.761,0,1.761-1.771,1.761Z" transform="translate(-90.093 -52.65)" fill="#486ebb"/>
      <path id="Trazado_637188" data-name="Trazado 637188" d="M1236.078,832.942c-4.232,0-8.464-.009-12.7.012-.544,0-.737-.116-.727-.7.029-1.782,0-1.782,1.781-1.782q12.157,0,24.315-.014c.611,0,.814.114.795.771-.05,1.716-.014,1.717-1.705,1.717Z" transform="translate(-39.77 -75.674)" fill="#da9752"/>
      <path id="Trazado_637189" data-name="Trazado 637189" d="M1325.31,830.5c1.837,0,1.821,0,1.816,1.825,0,.485-.12.681-.637.656-.834-.039-1.672-.025-2.508,0-.385.01-.536-.087-.55-.513C1323.368,830.5,1323.354,830.5,1325.31,830.5Z" transform="translate(-111.529 -75.709)" fill="#4a72c2"/>
      <path id="Trazado_637190" data-name="Trazado 637190" d="M1198.1,747.753c2.3,0,4.591.014,6.887-.011.515-.005.707.11.705.669-.007,1.862.016,1.862-1.87,1.862-4.232,0-8.465-.009-12.7.011-.543,0-.749-.112-.743-.706.02-1.825-.007-1.825,1.835-1.825Z" transform="translate(-16.783 -16.765)" fill="#c9759b"/>
      <path id="Trazado_637191" data-name="Trazado 637191" d="M1192.993,799.485a1.286,1.286,0,0,1-1.23,1.24,1.244,1.244,0,1,1,.008-2.487A1.282,1.282,0,0,1,1192.993,799.485Z" transform="translate(-16.881 -52.728)" fill="#b2efc5"/>
      <path id="Trazado_637192" data-name="Trazado 637192" d="M1193.008,831.72a1.254,1.254,0,0,1-1.2,1.254,1.2,1.2,0,0,1-1.271-1.167,1.224,1.224,0,0,1,1.219-1.3A1.275,1.275,0,0,1,1193.008,831.72Z" transform="translate(-16.891 -75.712)" fill="#c9759b"/>
      <path id="Trazado_637193" data-name="Trazado 637193" d="M1192.959,868.012a1.282,1.282,0,0,1-1.2,1.278,1.249,1.249,0,0,1-1.319-1.218,1.234,1.234,0,0,1,1.188-1.271A1.263,1.263,0,0,1,1192.959,868.012Z" transform="translate(-16.827 -101.558)" fill="#da9752"/>
      <path id="Trazado_637194" data-name="Trazado 637194" d="M1346.869,908.668a3.637,3.637,0,0,1,.712,2.634c-.968.209-.992,1.014-1.15,1.765a6.418,6.418,0,0,1-12.537-2.751,6.427,6.427,0,0,1,11.488-2.393A1.426,1.426,0,0,0,1346.869,908.668Zm-7.387,5.408a1.05,1.05,0,0,0,.778-.306c.9-.891,1.8-1.772,2.677-2.685a1.04,1.04,0,0,0,.016-1.534,1.077,1.077,0,0,0-1.539.034,13.926,13.926,0,0,0-1.313,1.315c-.416.5-.709.6-1.193.043a.993.993,0,0,0-1.521-.038,1.057,1.057,0,0,0,.015,1.534c.421.454.875.879,1.311,1.319A1.042,1.042,0,0,0,1339.481,914.076Z" transform="translate(-118.875 -128.933)" fill="#8acb95"/>
      <path id="Trazado_637195" data-name="Trazado 637195" d="M1341.521,903.321a1.426,1.426,0,0,1-1.487-.745,6.427,6.427,0,0,0-11.488,2.393,6.418,6.418,0,0,0,12.537,2.751c.158-.751.182-1.556,1.15-1.765,1.052.323,1.238.632,1.046,1.737a8.494,8.494,0,0,1-8.609,7.2,8.578,8.578,0,1,1,7.179-13.5C1342.427,902.233,1342.352,902.68,1341.521,903.321Z" transform="translate(-113.527 -123.586)" fill="#030403"/>
      <path id="Trazado_637196" data-name="Trazado 637196" d="M1347.737,923.993a1.042,1.042,0,0,1-.77-.318c-.437-.44-.89-.865-1.311-1.319a1.057,1.057,0,0,1-.015-1.534.993.993,0,0,1,1.521.038c.484.562.778.456,1.193-.043a13.955,13.955,0,0,1,1.313-1.315,1.077,1.077,0,0,1,1.539-.034,1.04,1.04,0,0,1-.016,1.534c-.874.913-1.781,1.793-2.677,2.685A1.05,1.05,0,0,1,1347.737,923.993Z" transform="translate(-127.13 -138.85)" fill="#030403"/>
    </g>
  </g>
</svg>
