<svg id="Grupo_970452" data-name="Grupo 970452" xmlns="http://www.w3.org/2000/svg" width="98.408" height="98.408" viewBox="0 0 98.408 98.408">
  <ellipse id="Elipse_5210" data-name="Elipse 5210" cx="49.204" cy="49.204" rx="49.204" ry="49.204" transform="translate(0 0)" fill="#ef8b53"/>
  <g id="Grupo_971641" data-name="Grupo 971641" transform="translate(-596.574 -351.28)">
    <path id="Trazado_638261" data-name="Trazado 638261" d="M684.8,377.917c0,5.189-.013,10.377.017,15.566,0,.639-.189.753-.777.75-4.115-.025-8.23,0-12.345-.031-.644-.005-.758.2-.748.78.034,2.017.045,4.036-.005,6.053-.016.652.206.75.784.744,2.8-.028,5.609.008,8.413-.028.672-.009.917.106.907.862-.047,3.642-.037,7.285-.006,10.927.005.622-.1.836-.786.825-2.856-.046-5.714,0-8.57-.032-.557-.006-.757.087-.742.707q.071,3.025,0,6.053c-.014.633.116.825.792.819,4.115-.037,8.23-.007,12.345-.032.568,0,.738.106.735.713q-.042,8.1,0,16.195c0,.571-.112.734-.715.733q-14.39-.034-28.779,0c-.574,0-.734-.116-.731-.717q.041-8.1,0-16.195c0-.579.122-.734.719-.729,4.141.03,8.282,0,12.423.031.584,0,.739-.129.728-.722-.042-2.07-.034-4.14,0-6.21.008-.516-.133-.646-.644-.642-2.935.025-5.871,0-8.807.025-.52,0-.654-.139-.639-.647.037-1.283-.008-2.568.023-3.851.011-.455-.134-.556-.569-.555q-8.885.021-17.771,0c-.458,0-.557.14-.553.571.021,2.1-.018,4.194.027,6.289.013.613-.17.746-.739.711-.809-.05-1.625.009-2.437-.022-.44-.016-.632.045-.633.574,0,1.95-.027,1.946,1.922,1.952.6,0,1.377-.192,1.742.107.386.317.106,1.126.122,1.72.021.786.048,1.575-.008,2.358-.047.653.094.88.824.866,2.856-.053,5.714-.007,8.57-.034.529-.005.7.095.7.668-.029,3.774-.023,7.547,0,11.321,0,.462-.08.618-.589.617q-10.733-.029-21.466,0c-.465,0-.631-.083-.615-.591.041-1.309,0-2.62.022-3.93.007-.4-.089-.524-.513-.533-2.012-.044-2.012-.06-2.012,1.935,0,1.677-.02,3.355.012,5.031.009.482-.11.608-.6.606q-8.217-.029-16.434,0c-.485,0-.605-.116-.6-.6q.029-8.215,0-16.431c0-.489.121-.609.605-.6,2.122.029,4.246-.005,6.369.025.495.007.612-.129.6-.608-.035-1.283-.039-2.569,0-3.851.016-.5-.137-.636-.612-.594s-.945-.021-1.414.018c-.433.037-.512-.138-.511-.531q.018-8.294,0-16.588c0-.434.145-.509.534-.508q13.328.014,26.656,0c.436,0,.51.149.507.536-.016,2.122,0,4.245-.017,6.368,0,.47.058.671.616.669q8.846-.035,17.692,0c.519,0,.594-.171.583-.623-.03-1.178.028-2.36-.025-3.537-.031-.677.109-.92.863-.906,2.83.053,5.661.006,8.492.034.556.005.758-.085.743-.707q-.071-3.025,0-6.053c.014-.632-.114-.825-.791-.819-4.115.037-8.23.007-12.345.032-.567,0-.75-.1-.737-.713.045-2.069,0-4.14.029-6.21.008-.514-.131-.647-.645-.645q-7.981.029-15.962,0a1.216,1.216,0,0,0-.945.428c-1.715,1.732-3.455,3.439-5.158,5.182a.753.753,0,0,1-1.072.188c-.4-.236-.849-.4-1.268-.617a.677.677,0,0,0-1.054.4c-.021.048-.025.1-.043.151-.215.589-.27,1.441-.69,1.7-.5.307-1.315.119-1.993.121-2.228.007-4.456-.012-6.683.014-.465.005-.709-.121-.828-.578s-.308-.888-.461-1.333a.7.7,0,0,0-1.079-.483c-.641.265-1.274.949-1.9.731-.6-.209-1.031-.927-1.532-1.426-1.5-1.5-2.987-3.018-4.517-4.489a.814.814,0,0,1-.18-1.2c.234-.373.377-.8.577-1.2a.675.675,0,0,0-.364-1.016,1.234,1.234,0,0,0-.15-.045c-.611-.226-1.5-.286-1.76-.722-.315-.525-.109-1.369-.111-2.075-.005-2.175.024-4.351-.02-6.525a.761.761,0,0,1,.682-.9,9.631,9.631,0,0,0,1.329-.468.654.654,0,0,0,.4-.993c-.034-.071-.061-.144-.094-.216-.794-1.7-.794-1.7.515-3.011,1.612-1.612,3.235-3.215,4.828-4.845a.7.7,0,0,1,1.007-.178c.4.238.847.407,1.266.619a.684.684,0,0,0,1.095-.437c.231-.633.309-1.527.766-1.817.508-.324,1.367-.1,2.073-.106,2.175,0,4.351.017,6.526-.015.51-.008.751.139.868.631a12.225,12.225,0,0,0,.462,1.332.671.671,0,0,0,1.038.437c.024-.011.049-.019.073-.029.624-.245,1.242-.9,1.834-.715s1,.88,1.481,1.36c1.374,1.368,2.752,2.734,4.11,4.118a1.3,1.3,0,0,0,1.022.438q7.942-.023,15.884,0c.569,0,.68-.163.672-.7-.032-2.07,0-4.14-.022-6.21,0-.458.037-.677.608-.676q14.507.032,29.015,0c.61,0,.587.271.586.7Q684.8,370.055,684.8,377.917Zm-2.517.021q0-6.64.007-13.28c0-.42-.016-.644-.563-.642q-12.025.031-24.049.005c-.436,0-.579.1-.568.557.031,1.283.034,2.567,0,3.85-.014.5.108.663.636.653,1.781-.036,3.563,0,5.344-.02a2.518,2.518,0,0,1,1.195.288c3.568,1.8,7.145,3.576,10.717,5.366a5.726,5.726,0,0,1,1.009.6,3.269,3.269,0,0,1-.731,5.57c-3.7,1.888-7.423,3.726-11.133,5.592a2.072,2.072,0,0,1-.979.207c-1.807-.009-3.615.018-5.422-.018-.534-.011-.648.161-.635.657.034,1.23.054,2.464-.007,3.692-.031.632.2.7.748.7q11.867-.026,23.735,0c.612,0,.714-.176.711-.738C682.276,386.633,682.287,382.286,682.287,377.938Zm-47.358-7.7c.014-.251-.2-.354-.338-.5q-1.3-1.313-2.61-2.615c-1.024-1.023-1.031-1.038-2.362-.45-.716.317-1.145-.331-1.729-.44a1.877,1.877,0,0,1-1.668-1.678c-.062-.395-.276-.543-.7-.536-1.572.027-3.144.011-4.717.01-.287,0-.6-.053-.657.363-.157,1.127-.917,1.571-1.912,1.968a2.132,2.132,0,0,1-2.3-.063c-.36-.267-.621-.193-.931.137-.844.9-1.732,1.75-2.6,2.621-1.018,1.019-1.03,1.024-.443,2.364.3.682-.3,1.1-.419,1.656a2,2,0,0,1-1.782,1.767c-.36.051-.45.256-.447.6.014,1.624.01,3.249,0,4.873,0,.288.026.518.378.566,1.1.149,1.509.9,1.924,1.853a2.245,2.245,0,0,1-.078,2.447.5.5,0,0,0,.087.745c1.184,1.15,2.344,2.325,3.506,3.5.185.187.355.305.605.116a2.513,2.513,0,0,1,2.809-.03c.808.354,1.4.736,1.524,1.641.071.5.387.577.839.569,1.467-.026,2.935-.038,4.4,0,.566.016.886-.134.982-.705a1.489,1.489,0,0,1,1.336-1.4,1.243,1.243,0,0,0,.5-.217,1.751,1.751,0,0,1,2.22.028c.379.282.669.191,1-.156.862-.914,1.77-1.787,2.659-2.676.961-.961,1-.982.392-2.171-.375-.733.242-1.157.366-1.73a2.008,2.008,0,0,1,1.769-1.777c.387-.054.479-.291.474-.664-.019-1.6-.015-3.2,0-4.794,0-.33-.057-.564-.424-.621a2.069,2.069,0,0,1-1.835-1.821,2.669,2.669,0,0,0-.357-.782.8.8,0,0,1,0-.872C634.585,371,634.749,370.614,634.929,370.234Zm34.779,66.754c3.957,0,7.914-.014,11.87.015.592,0,.728-.143.723-.727q-.044-5.58,0-11.16c.005-.6-.149-.722-.729-.721q-11.87.032-23.74,0c-.591,0-.728.143-.723.727q.044,5.58,0,11.16c-.005.6.149.725.73.721C661.795,436.974,665.752,436.988,669.708,436.988Zm-44.065-22.642c3.564,0,7.127-.007,10.691.009.462,0,.68-.043.675-.611q-.044-5.7,0-11.4c0-.508-.155-.591-.618-.59q-10.73.022-21.46,0c-.506,0-.595.15-.592.615.019,3.773.024,7.545,0,11.318,0,.57.166.675.7.671C618.568,414.334,622.106,414.345,625.643,414.345Zm-.6,2.516c-2.541,0-5.083.011-7.624-.01-.441,0-.574.112-.564.56.03,1.283.036,2.568,0,3.85-.015.513.127.651.642.644,2.122-.031,4.244,0,6.366-.023.442,0,.57.114.564.56-.026,1.7-.011,3.405-.011,5.108,0,1.939,0,1.924,1.965,1.9.442-.005.572-.119.562-.564-.03-1.283.015-2.567-.023-3.85-.015-.515.131-.648.644-.642,2.489.027,4.978.012,7.467.012,2.069,0,2.057,0,1.978-2.043-.014-.375-.107-.491-.485-.48-.916.026-1.834-.016-2.75.019-.449.017-.57-.122-.561-.564.029-1.283-.016-2.568.023-3.85.016-.519-.137-.646-.646-.64C630.072,416.876,627.557,416.862,625.042,416.862Zm-9.437,7.547c-1.913,0-3.825.014-5.738-.01-.447-.006-.563.123-.561.564q.025,5.736,0,11.473c0,.446.122.563.564.561q5.738-.025,11.475,0c.446,0,.563-.122.561-.564q-.026-5.737,0-11.473c0-.446-.122-.567-.564-.561C619.43,424.423,617.517,424.409,615.6,424.409Zm54.1-12.58c2.725,0,5.45-.014,8.174.013.515.005.65-.133.643-.645-.03-2.121-.026-4.243,0-6.365.005-.449-.128-.56-.567-.559q-8.253.022-16.506,0c-.445,0-.567.121-.562.563.022,2.122.028,4.244,0,6.365-.008.52.141.645.648.64C664.258,411.816,666.983,411.83,669.708,411.83Zm-31.453,22.642c2.725,0,5.45-.014,8.174.013.515.005.65-.134.643-.645-.03-2.121-.026-4.243,0-6.365.005-.449-.128-.56-.567-.559q-8.253.022-16.506,0c-.446,0-.567.121-.562.564.022,2.122.028,4.244,0,6.365-.008.52.141.645.648.64C632.8,434.458,635.53,434.472,638.254,434.472Zm26.454-62.094v10.917a1.111,1.111,0,0,0,.236-.055q4.6-2.292,9.2-4.588a.862.862,0,0,0,.584-.767c.005-.433-.289-.642-.634-.813q-1.933-.961-3.862-1.929Zm-15.14,11.785h10.842c1.751,0,1.716,0,1.764-1.726.018-.664-.171-.809-.817-.806-7.019.025-14.038.016-21.057.016-.157,0-.315.008-.471,0-.233-.012-.36.09-.314.321.116.578-.284.686-.7.813s-.834.307-1.258.436a.663.663,0,0,0-.53.757c.062.343.44.181.673.181Q643.636,384.17,649.568,384.162Zm0-12.585q-5.934,0-11.867.007c-.232,0-.613-.162-.668.189a.669.669,0,0,0,.538.754c.526.156,1.038.356,1.554.544.188.069.44.107.385.4-.14.734.354.633.8.633q10.02,0,20.04,0c1.826,0,1.8,0,1.83-1.817.012-.611-.176-.72-.743-.717C657.475,371.589,653.519,371.577,649.564,371.577Zm1.287,7.552h9.514c1.8,0,1.768,0,1.808-1.765.015-.634-.18-.766-.782-.764-6.683.021-13.367.014-20.05.014-1.845,0-1.815,0-1.847,1.807-.011.606.17.727.743.722C643.775,379.116,647.313,379.13,650.851,379.13Z" transform="translate(0)" fill="#010101"/>
    <path id="Trazado_638262" data-name="Trazado 638262" d="M791.769,383.515c0,4.348-.011,8.7.013,13.044,0,.563-.1.74-.711.738q-11.867-.037-23.735,0c-.547,0-.779-.07-.748-.7.06-1.228.04-2.462.007-3.692-.014-.5.1-.668.635-.657,1.807.036,3.615.009,5.422.018a2.073,2.073,0,0,0,.979-.207c3.71-1.866,7.434-3.7,11.133-5.592a3.269,3.269,0,0,0,.731-5.57,5.732,5.732,0,0,0-1.009-.6c-3.571-1.791-7.149-3.569-10.717-5.366a2.517,2.517,0,0,0-1.195-.288c-1.782.015-3.563-.016-5.344.02-.528.01-.65-.152-.636-.653.035-1.282.031-2.567,0-3.85-.011-.453.132-.558.568-.557q12.025.019,24.049-.005c.547,0,.564.222.563.642Q791.759,376.875,791.769,383.515Z" transform="translate(-109.482 -5.577)" fill="#e5e8eb"/>
    <path id="Trazado_638263" data-name="Trazado 638263" d="M640.52,375.819c-.18.378-.343.765-.545,1.131a.8.8,0,0,0,0,.872,2.671,2.671,0,0,1,.357.782,2.068,2.068,0,0,0,1.835,1.821c.368.057.427.291.424.621-.013,1.6-.017,3.2,0,4.794,0,.373-.087.609-.474.664a2.008,2.008,0,0,0-1.769,1.777c-.125.573-.741,1-.366,1.73.609,1.19.569,1.21-.392,2.171-.889.889-1.8,1.762-2.659,2.676-.328.347-.618.438-1,.156a1.75,1.75,0,0,0-2.22-.028,1.244,1.244,0,0,1-.5.217,1.489,1.489,0,0,0-1.336,1.4c-.1.572-.417.722-.982.705-1.466-.043-2.935-.031-4.4,0-.451.008-.768-.071-.839-.569-.128-.9-.716-1.287-1.524-1.641a2.514,2.514,0,0,0-2.809.03c-.25.19-.42.071-.6-.116-1.162-1.172-2.322-2.347-3.506-3.5a.5.5,0,0,1-.087-.745,2.245,2.245,0,0,0,.078-2.447c-.415-.953-.826-1.7-1.924-1.853-.353-.048-.38-.278-.378-.566.007-1.624.011-3.249,0-4.873,0-.343.087-.548.447-.6a2,2,0,0,0,1.782-1.767c.115-.556.718-.974.419-1.656-.588-1.34-.576-1.345.443-2.364.871-.871,1.759-1.725,2.6-2.621.311-.33.571-.4.931-.137a2.132,2.132,0,0,0,2.3.063c.995-.4,1.755-.841,1.912-1.968.058-.416.37-.364.657-.363,1.572,0,3.145.016,4.717-.01.423-.007.638.141.7.536a1.877,1.877,0,0,0,1.668,1.678c.584.109,1.013.757,1.729.44,1.33-.588,1.338-.573,2.362.45q1.307,1.3,2.61,2.615C640.322,375.464,640.534,375.567,640.52,375.819Zm-11.77,17.7a10.061,10.061,0,1,0-10.07-10.094A10.081,10.081,0,0,0,628.75,393.514Z" transform="translate(-5.591 -5.584)" fill="#f4c54e"/>
    <path id="Trazado_638264" data-name="Trazado 638264" d="M779.2,573.807c-3.957,0-7.914-.014-11.87.014-.58,0-.735-.126-.73-.721q.047-5.58,0-11.16c0-.584.132-.728.723-.727q11.87.034,23.74,0c.58,0,.734.125.729.721q-.047,5.58,0,11.16c0,.584-.132.732-.723.727C787.114,573.792,783.157,573.807,779.2,573.807Zm0-10.063h-8.253c-1.823,0-1.795,0-1.83,1.806-.011.59.14.727.726.725,5.843-.025,11.685-.015,17.528-.015,1.916,0,1.9,0,1.906-1.885,0-.514-.133-.647-.645-.643C785.487,563.756,782.343,563.744,779.2,563.744Zm.077,5.032h-8.331c-1.822,0-1.793,0-1.829,1.808-.012.593.145.725.728.723,5.843-.024,11.685-.015,17.528-.015,1.915,0,1.894,0,1.9-1.886,0-.516-.138-.645-.647-.641C785.512,568.787,782.394,568.775,779.276,568.775Z" transform="translate(-109.492 -136.819)" fill="#e5e8eb"/>
    <path id="Trazado_638265" data-name="Trazado 638265" d="M642.156,501.953c-3.537,0-7.075-.012-10.612.013-.532,0-.7-.1-.7-.671.028-3.772.023-7.545,0-11.318,0-.465.086-.617.592-.615q10.73.028,21.46,0c.462,0,.621.082.618.59q-.037,5.7,0,11.4c0,.568-.213.613-.675.611C649.284,501.947,645.72,501.953,642.156,501.953Zm.005-2.515h6.995c1.853,0,1.825,0,1.851-1.864.008-.58-.184-.666-.705-.664-5,.02-10.007.012-15.011.012-1.955,0-1.931,0-1.929,1.943,0,.518.176.586.626.583C636.713,499.428,639.437,499.438,642.162,499.438Zm-7.48-7.547c-1.3,0-1.3,0-1.3,1.29,0,1.225,0,1.225,1.212,1.225,1.3,0,1.3,0,1.3-1.29C635.894,491.89,635.894,491.89,634.682,491.89Zm6.245,1.269c0-1.269,0-1.269-1.247-1.269-1.27,0-1.27,0-1.27,1.246,0,1.27,0,1.27,1.247,1.27C640.926,494.406,640.926,494.406,640.926,493.16Zm3.728,1.246c1.3,0,1.3,0,1.3-1.29,0-1.226,0-1.226-1.212-1.226-1.3,0-1.3,0-1.3,1.29C643.442,494.406,643.442,494.406,644.655,494.406Zm6.337-1.212c0-1.3,0-1.3-1.291-1.3-1.226,0-1.226,0-1.226,1.212,0,1.3,0,1.3,1.29,1.3C650.991,494.406,650.991,494.406,650.991,493.194Z" transform="translate(-16.513 -87.608)" fill="#e5e8eb"/>
    <path id="Trazado_638266" data-name="Trazado 638266" d="M621.189,561.238c1.913,0,3.825.014,5.738-.01.442-.006.566.115.564.561q-.027,5.737,0,11.473c0,.442-.115.566-.561.564q-5.737-.026-11.475,0c-.442,0-.566-.115-.564-.561q.026-5.737,0-11.473c0-.441.115-.57.561-.564C617.364,561.252,619.276,561.238,621.189,561.238Zm.073,2.515H619.3c-1.937,0-1.921,0-1.894,1.972.006.455.142.559.573.553,1.675-.024,3.352-.009,5.027-.009,2.071,0,2.058,0,1.972-2.051-.016-.386-.129-.48-.494-.473C623.409,563.768,622.335,563.754,621.262,563.753Zm-.072,5.032H619.3c-1.941,0-1.925,0-1.9,1.966.005.445.125.567.567.56,1.7-.025,3.4-.01,5.106-.01,1.993,0,1.981,0,1.9-2.044-.015-.377-.112-.487-.487-.48C623.389,568.8,622.289,568.785,621.19,568.785Z" transform="translate(-5.585 -136.829)" fill="#e5e8eb"/>
    <path id="Trazado_638267" data-name="Trazado 638267" d="M787.41,504.913c-2.725,0-5.45-.013-8.174.012-.507,0-.655-.12-.648-.64.031-2.122.025-4.244,0-6.365,0-.443.117-.565.562-.563q8.253.022,16.506,0c.439,0,.571.11.567.559-.024,2.122-.028,4.244,0,6.365.007.512-.128.65-.643.645C792.86,504.9,790.135,504.913,787.41,504.913Zm-5-5.031c-1.3,0-1.3,0-1.3,1.3,0,1.217,0,1.217,1.22,1.217,1.3,0,1.3,0,1.3-1.3C783.634,499.881,783.634,499.881,782.413,499.881ZM787.4,502.4c1.264,0,1.264,0,1.264-1.252s0-1.264-1.252-1.264-1.265,0-1.265,1.252S786.15,502.4,787.4,502.4Zm5.08-2.516c-1.3,0-1.3,0-1.3,1.3,0,1.221,0,1.221,1.217,1.221,1.3,0,1.3,0,1.3-1.295C793.7,499.881,793.7,499.881,792.482,499.881Z" transform="translate(-117.702 -93.083)" fill="#e5e8eb"/>
    <path id="Trazado_638268" data-name="Trazado 638268" d="M687.588,576.771c-2.725,0-5.45-.013-8.174.012-.507,0-.655-.12-.648-.64.031-2.121.025-4.243,0-6.365,0-.443.116-.565.562-.564q8.253.023,16.506,0c.439,0,.572.11.567.559-.024,2.122-.028,4.244,0,6.365.007.511-.127.65-.643.645C693.038,576.756,690.313,576.771,687.588,576.771Zm-5.092-2.515c1.315,0,1.315,0,1.315-1.28,0-1.236,0-1.236-1.2-1.236-1.315,0-1.315,0-1.315,1.279C681.3,574.255,681.3,574.255,682.5,574.255Zm6.348-1.22c0-1.3,0-1.3-1.3-1.3-1.217,0-1.217,0-1.217,1.22,0,1.3,0,1.3,1.3,1.3C688.844,574.255,688.844,574.255,688.844,573.035Zm5.033.019c0-1.315,0-1.315-1.28-1.315-1.236,0-1.236,0-1.236,1.2,0,1.315,0,1.315,1.28,1.315C693.877,574.255,693.877,574.255,693.877,573.054Z" transform="translate(-49.334 -142.299)" fill="#e5e8eb"/>
    <path id="Trazado_638269" data-name="Trazado 638269" d="M790.72,396.13l5.524,2.765q1.93.966,3.862,1.929c.345.171.639.38.634.813a.862.862,0,0,1-.584.767q-4.6,2.3-9.2,4.588a1.11,1.11,0,0,1-.236.055Z" transform="translate(-126.011 -23.753)" fill="#d6b18f"/>
    <path id="Trazado_638270" data-name="Trazado 638270" d="M715.395,428.027q-5.932,0-11.864-.008c-.233,0-.611.162-.673-.181a.663.663,0,0,1,.53-.757c.424-.129.834-.305,1.258-.436s.812-.234.7-.813c-.046-.231.081-.333.314-.321.157.008.314,0,.471,0,7.019,0,14.038.009,21.056-.016.647,0,.836.142.817.806-.048,1.725-.013,1.726-1.764,1.726Z" transform="translate(-65.827 -43.865)" fill="#bad989"/>
    <path id="Trazado_638271" data-name="Trazado 638271" d="M715.39,393.527c3.956,0,7.911.012,11.867-.014.567,0,.755.106.743.717-.035,1.817,0,1.817-1.83,1.817q-10.02,0-20.04,0c-.444,0-.937.1-.8-.633.055-.29-.2-.328-.385-.4-.516-.188-1.029-.388-1.554-.544a.669.669,0,0,1-.538-.754c.055-.35.436-.188.668-.189Q709.457,393.519,715.39,393.527Z" transform="translate(-65.827 -21.95)" fill="#bbda89"/>
    <path id="Trazado_638272" data-name="Trazado 638272" d="M722.054,412.063c-3.538,0-7.077-.014-10.615.014-.573,0-.754-.116-.743-.722.033-1.807,0-1.807,1.847-1.807,6.683,0,13.367.008,20.05-.014.6,0,.8.13.782.764-.04,1.765-.008,1.765-1.808,1.765Z" transform="translate(-71.202 -32.933)" fill="#ed8773"/>
    <path id="Trazado_638273" data-name="Trazado 638273" d="M636.968,401.752a10.061,10.061,0,1,1,10.061-10.024A10.081,10.081,0,0,1,636.968,401.752Zm7.543-10.046a7.547,7.547,0,1,0-7.56,7.529A7.572,7.572,0,0,0,644.511,391.706Z" transform="translate(-13.81 -13.822)" fill="#040301"/>
    <path id="Trazado_638274" data-name="Trazado 638274" d="M784.666,569.218c3.144,0,6.288.012,9.432-.012.513,0,.648.13.645.643-.01,1.885.01,1.885-1.906,1.885-5.843,0-11.685-.01-17.527.015-.587,0-.738-.135-.726-.725.035-1.806.007-1.806,1.83-1.806Z" transform="translate(-114.959 -142.293)"/>
    <path id="Trazado_638275" data-name="Trazado 638275" d="M784.743,585.187c3.118,0,6.235.012,9.353-.012.51,0,.65.125.647.641-.011,1.886.01,1.886-1.9,1.886-5.843,0-11.685-.009-17.528.015-.584,0-.74-.13-.728-.723.036-1.807.007-1.808,1.829-1.808Z" transform="translate(-114.958 -153.23)"/>
    <path id="Trazado_638276" data-name="Trazado 638276" d="M647.628,515.845c-2.725,0-5.449-.01-8.174.01-.451,0-.626-.065-.626-.583,0-1.943-.026-1.943,1.929-1.943,5,0,10.008.008,15.011-.012.522,0,.713.084.706.664-.026,1.863,0,1.864-1.851,1.864Z" transform="translate(-21.979 -104.015)"/>
    <path id="Trazado_638277" data-name="Trazado 638277" d="M640.182,497.386c1.212,0,1.212,0,1.212,1.226,0,1.29,0,1.29-1.3,1.29-1.212,0-1.212,0-1.212-1.225C638.878,497.386,638.878,497.386,640.182,497.386Z" transform="translate(-22.014 -93.104)"/>
    <path id="Trazado_638278" data-name="Trazado 638278" d="M657.366,498.656c0,1.246,0,1.246-1.27,1.246-1.247,0-1.247,0-1.247-1.27,0-1.246,0-1.246,1.27-1.246C657.366,497.386,657.366,497.386,657.366,498.656Z" transform="translate(-32.953 -93.104)"/>
    <path id="Trazado_638279" data-name="Trazado 638279" d="M672.033,499.9c-1.212,0-1.212,0-1.212-1.225,0-1.29,0-1.29,1.3-1.29,1.212,0,1.212,0,1.212,1.226C673.337,499.9,673.337,499.9,672.033,499.9Z" transform="translate(-43.892 -93.104)"/>
    <path id="Trazado_638280" data-name="Trazado 638280" d="M689.309,498.69c0,1.212,0,1.212-1.226,1.212-1.29,0-1.29,0-1.29-1.3,0-1.212,0-1.212,1.226-1.212C689.309,497.386,689.309,497.386,689.309,498.69Z" transform="translate(-54.831 -93.104)"/>
    <path id="Trazado_638281" data-name="Trazado 638281" d="M626.713,569.227c1.073,0,2.147.014,3.221-.008.365-.007.478.087.494.473.085,2.051.1,2.051-1.972,2.051-1.676,0-3.352-.014-5.027.009-.432.006-.568-.1-.573-.553-.026-1.972-.043-1.972,1.894-1.972Z" transform="translate(-11.036 -142.302)"/>
    <path id="Trazado_638282" data-name="Trazado 638282" d="M626.643,585.194c1.1,0,2.2.015,3.3-.008.375-.008.472.1.487.48.082,2.045.094,2.044-1.9,2.044-1.7,0-3.4-.015-5.106.01-.441.007-.561-.115-.567-.56-.025-1.966-.041-1.966,1.9-1.966Z" transform="translate(-11.038 -153.238)"/>
    <path id="Trazado_638283" data-name="Trazado 638283" d="M787.911,505.37c1.221,0,1.221,0,1.221,1.217,0,1.3,0,1.3-1.3,1.3-1.22,0-1.22,0-1.22-1.217C786.615,505.37,786.615,505.37,787.911,505.37Z" transform="translate(-123.2 -98.572)"/>
    <path id="Trazado_638284" data-name="Trazado 638284" d="M803.838,507.886c-1.252,0-1.252,0-1.252-1.264s0-1.252,1.265-1.252,1.252,0,1.252,1.264S805.1,507.886,803.838,507.886Z" transform="translate(-134.138 -98.572)"/>
    <path id="Trazado_638285" data-name="Trazado 638285" d="M819.857,505.37c1.217,0,1.217,0,1.217,1.221,0,1.3,0,1.3-1.3,1.3-1.217,0-1.217,0-1.217-1.221C818.558,505.37,818.558,505.37,819.857,505.37Z" transform="translate(-145.078 -98.572)"/>
    <path id="Trazado_638286" data-name="Trazado 638286" d="M687.994,579.745c-1.2,0-1.2,0-1.2-1.236,0-1.279,0-1.279,1.315-1.279,1.2,0,1.2,0,1.2,1.236C689.309,579.745,689.309,579.745,687.994,579.745Z" transform="translate(-54.831 -147.788)"/>
    <path id="Trazado_638287" data-name="Trazado 638287" d="M705.28,578.524c0,1.22,0,1.22-1.217,1.22-1.3,0-1.3,0-1.3-1.3,0-1.22,0-1.22,1.218-1.22C705.28,577.229,705.28,577.229,705.28,578.524Z" transform="translate(-65.77 -147.788)"/>
    <path id="Trazado_638288" data-name="Trazado 638288" d="M721.252,578.544c0,1.2,0,1.2-1.237,1.2-1.28,0-1.28,0-1.28-1.315,0-1.2,0-1.2,1.236-1.2C721.252,577.229,721.252,577.229,721.252,578.544Z" transform="translate(-76.709 -147.788)"/>
    <path id="Trazado_638289" data-name="Trazado 638289" d="M649.985,397.177a7.547,7.547,0,1,1-7.534-7.559A7.561,7.561,0,0,1,649.985,397.177Zm-7.557,5.013a5.029,5.029,0,1,0-5.021-5.055A5.036,5.036,0,0,0,642.427,402.191Z" transform="translate(-19.283 -19.293)" fill="#f2d37d"/>
    <path id="Trazado_638290" data-name="Trazado 638290" d="M647.9,407.659a5.029,5.029,0,1,1,5.041-5.036A5.037,5.037,0,0,1,647.9,407.659Zm.015-2.515a2.513,2.513,0,1,0-2.52-2.544A2.529,2.529,0,0,0,647.912,405.143Z" transform="translate(-24.752 -24.761)" fill="#030302"/>
    <path id="Trazado_638291" data-name="Trazado 638291" d="M653.381,410.611a2.513,2.513,0,1,1,2.509-2.478A2.525,2.525,0,0,1,653.381,410.611Z" transform="translate(-30.222 -30.229)" fill="#f3f5f6"/>
  </g>
</svg>
