<svg xmlns="http://www.w3.org/2000/svg" width="295" height="267.726" viewBox="0 0 295 267.726">
  <g id="Grupo_971638" data-name="Grupo 971638" transform="translate(-14.953 -13.308)">
    <g id="Background_Simple" data-name="Background Simple" transform="translate(22.024 19.084)">
      <g id="Grupo_971493" data-name="Grupo 971493" transform="translate(0 0)">
        <g id="Grupo_971491" data-name="Grupo 971491">
          <path id="Trazado_638069" data-name="Trazado 638069" d="M165.327,274.841a70.378,70.378,0,0,0,31.713-8.448C257.68,233.963,301.331,155.53,270.819,88.98c-14.1-30.757-42.352-63.153-78.365-65.329C163.243,21.886,134.909,36.39,110.2,50.3,94.653,59.048,79.62,69.6,63.1,76.453,41.662,85.348,15.55,98.906,14.973,125.5,14.188,161.74,37.034,193.8,59.68,220c24.569,28.419,57.636,52.234,96.254,54.676Q160.624,274.971,165.327,274.841Z" transform="translate(-14.953 -23.505)" fill="#449c6e"/>
        </g>
        <g id="Grupo_971492" data-name="Grupo 971492" opacity="0.7">
          <path id="Trazado_638070" data-name="Trazado 638070" d="M165.327,274.841a70.378,70.378,0,0,0,31.713-8.448C257.68,233.963,301.331,155.53,270.819,88.98c-14.1-30.757-42.352-63.153-78.365-65.329C163.243,21.886,134.909,36.39,110.2,50.3,94.653,59.048,79.62,69.6,63.1,76.453,41.662,85.348,15.55,98.906,14.973,125.5,14.188,161.74,37.034,193.8,59.68,220c24.569,28.419,57.636,52.234,96.254,54.676Q160.624,274.971,165.327,274.841Z" transform="translate(-14.953 -23.505)" fill="#fff"/>
        </g>
      </g>
    </g>
    <g id="Floor" transform="translate(14.953 268.901)">
      <g id="Grupo_971494" data-name="Grupo 971494">
        <line id="Línea_859" data-name="Línea 859" x2="294.434" transform="translate(0.283 0.283)" fill="#fff"/>
        <path id="Trazado_638071" data-name="Trazado 638071" d="M319.326,465.066H24.978a.286.286,0,1,1,0-.566H319.326a.286.286,0,1,1,0,.566Z" transform="translate(-24.652 -464.5)" fill="#263238"/>
      </g>
    </g>
    <g id="Clouds" transform="translate(39.513 13.307)">
      <g id="Grupo_971496" data-name="Grupo 971496" transform="translate(39.014)" opacity="0.3">
        <g id="Grupo_971495" data-name="Grupo 971495" transform="translate(0)">
          <path id="Trazado_638072" data-name="Trazado 638072" d="M86.626,35.241a.356.356,0,0,1-.132-.037l-.244-.1.149-.458h.057c.117-.209.414-.769,1.164-2.269,1.444-2.887,2.932-3.168,7.672-2.7,4.223.423,4.339.173,5.754-2.877l.2-.425c1.659-3.555,5.52-5.739,8.43-4.768l.44.148c1.681.568,3.27,1.1,4.293.5a2.808,2.808,0,0,0,1.135-2.052c.516-2.751,1.608-4.713,3.247-5.828a7.584,7.584,0,0,1,5.862-.865c6.076,1.169,7.127,7.9,7.155,8.089.01.063.48,2.886,2.4,3.952a5.908,5.908,0,0,0,3.323.156c1.792-.215,3.823-.458,5.486.789,2.86,2.145,2.553,8.186,2.538,8.442l-.015.267H86.715A.154.154,0,0,1,86.626,35.241Zm.476-.6h57.892c.025-1.184-.024-5.966-2.321-7.689-1.481-1.111-3.311-.892-5.079-.68a6.243,6.243,0,0,1-3.665-.223c-2.175-1.208-2.664-4.233-2.683-4.362v0c-.009-.065-.972-6.512-6.7-7.614a7.044,7.044,0,0,0-5.436.777c-1.51,1.028-2.521,2.866-3.009,5.464a3.317,3.317,0,0,1-1.405,2.437c-1.246.73-2.953.154-4.761-.457l-.437-.147c-2.651-.883-6.194,1.164-7.738,4.471l-.2.424c-1.507,3.25-1.872,3.648-6.323,3.2-4.494-.45-5.78-.274-7.109,2.385C87.628,33.628,87.314,34.256,87.1,34.645Z" transform="translate(-86.25 -13.307)"/>
        </g>
      </g>
      <g id="Grupo_971498" data-name="Grupo 971498" transform="translate(178.248 21.451)" opacity="0.3">
        <g id="Grupo_971497" data-name="Grupo 971497">
          <path id="Trazado_638073" data-name="Trazado 638073" d="M332.425,62.7a.4.4,0,0,1-.144-.041l-.244-.1.149-.451h.047c.076-.141.233-.443.555-1.086.811-1.622,1.759-1.689,4.07-1.458,2.066.207,2.094.147,2.809-1.395l.1-.219c.893-1.914,2.907-3.043,4.489-2.516l.225.076c.795.269,1.615.547,2.087.27a1.316,1.316,0,0,0,.517-.958,4.538,4.538,0,0,1,1.722-3.075,4.018,4.018,0,0,1,3.107-.465c3.185.612,3.754,4.108,3.777,4.259h0a2.044,2.044,0,0,0,2.779,1.989,3.827,3.827,0,0,1,2.911.432c1.524,1.143,1.363,4.31,1.356,4.444l-.015.267H332.508A.14.14,0,0,1,332.425,62.7Zm.449-.594h29.3c0-.756-.082-2.9-1.136-3.692a3.355,3.355,0,0,0-2.5-.322,3.293,3.293,0,0,1-1.962-.13,3.5,3.5,0,0,1-1.444-2.335v0c-.019-.132-.488-3.24-3.325-3.785a3.481,3.481,0,0,0-2.681.376,4.012,4.012,0,0,0-1.484,2.712,1.829,1.829,0,0,1-.786,1.343c-.693.407-1.639.087-2.554-.223l-.223-.075c-1.293-.431-3.034.584-3.8,2.218l-.1.218c-.782,1.686-.978,1.961-3.38,1.72s-2.893-.079-3.506,1.147C333.116,61.632,332.981,61.9,332.874,62.109Z" transform="translate(-332.037 -51.174)"/>
        </g>
      </g>
      <g id="Grupo_971500" data-name="Grupo 971500" transform="translate(60.733 68.059)" opacity="0.3">
        <g id="Grupo_971499" data-name="Grupo 971499">
          <path id="Trazado_638074" data-name="Trazado 638074" d="M124.977,144.979a.394.394,0,0,1-.143-.042l-.244-.1.149-.451h.047c.075-.141.233-.442.555-1.086.811-1.622,1.759-1.688,4.069-1.457,2.068.207,2.095.146,2.81-1.4l.1-.218c.893-1.915,2.905-3.047,4.489-2.516l.225.075c.794.268,1.615.546,2.086.271a1.32,1.32,0,0,0,.516-.958,4.542,4.542,0,0,1,1.722-3.075,4.021,4.021,0,0,1,3.108-.465c3.185.612,3.755,4.108,3.778,4.259h0a2.044,2.044,0,0,0,2.779,1.99,3.829,3.829,0,0,1,2.911.431c1.524,1.143,1.364,4.31,1.356,4.445l-.015.267H125.061A.141.141,0,0,1,124.977,144.979Zm.449-.594h29.305c0-.756-.083-2.9-1.136-3.692a3.352,3.352,0,0,0-2.5-.322,3.288,3.288,0,0,1-1.962-.13,3.5,3.5,0,0,1-1.445-2.335v0c-.018-.132-.487-3.24-3.324-3.785a3.476,3.476,0,0,0-2.682.377,4.01,4.01,0,0,0-1.484,2.712,1.827,1.827,0,0,1-.786,1.343c-.694.406-1.64.086-2.554-.223l-.224-.075c-1.3-.432-3.034.585-3.8,2.218l-.1.218c-.782,1.688-.979,1.961-3.38,1.72s-2.893-.079-3.506,1.147C125.669,143.909,125.533,144.18,125.426,144.385Z" transform="translate(-124.59 -133.45)"/>
        </g>
      </g>
      <g id="Grupo_971502" data-name="Grupo 971502" transform="translate(219.839 100.771)" opacity="0.3">
        <g id="Grupo_971501" data-name="Grupo 971501">
          <path id="Trazado_638075" data-name="Trazado 638075" d="M405.844,202.725a.4.4,0,0,1-.144-.041l-.244-.1.149-.451h.047c.076-.141.233-.443.555-1.086.81-1.622,1.758-1.689,4.069-1.458,2.067.207,2.094.147,2.81-1.4l.1-.218c.879-1.883,2.934-3.035,4.489-2.516l.226.076c.795.269,1.617.546,2.086.27a1.316,1.316,0,0,0,.517-.958,4.535,4.535,0,0,1,1.722-3.075,4.017,4.017,0,0,1,3.108-.465c3.185.612,3.754,4.108,3.777,4.259h0a2.044,2.044,0,0,0,2.779,1.989,3.827,3.827,0,0,1,2.911.432c1.524,1.143,1.364,4.31,1.356,4.444l-.015.267H405.927A.141.141,0,0,1,405.844,202.725Zm.449-.594h29.3c0-.756-.083-2.9-1.136-3.692a3.358,3.358,0,0,0-2.5-.322,3.289,3.289,0,0,1-1.962-.13,3.5,3.5,0,0,1-1.443-2.335v0c-.019-.132-.488-3.24-3.325-3.785a3.473,3.473,0,0,0-2.682.377,4.009,4.009,0,0,0-1.484,2.711,1.829,1.829,0,0,1-.786,1.343c-.692.406-1.638.087-2.554-.223L417.5,196c-1.3-.432-3.034.585-3.8,2.219l-.1.217c-.783,1.687-.982,1.959-3.38,1.72s-2.892-.079-3.505,1.147C406.535,201.655,406.4,201.926,406.293,202.132Z" transform="translate(-405.456 -191.196)"/>
        </g>
      </g>
      <g id="Grupo_971504" data-name="Grupo 971504" transform="translate(0 100.772)" opacity="0.3">
        <g id="Grupo_971503" data-name="Grupo 971503">
          <path id="Trazado_638076" data-name="Trazado 638076" d="M17.757,211.936a.357.357,0,0,1-.133-.038l-.244-.1.15-.457h.056c.113-.2.394-.734,1.093-2.133,1.367-2.734,2.776-3,7.259-2.554,3.975.4,4.083.164,5.414-2.706l.187-.4c1.57-3.363,5.222-5.429,7.978-4.51l.414.139c1.584.535,3.08,1.041,4.041.478a2.637,2.637,0,0,0,1.064-1.927c.488-2.6,1.521-4.456,3.071-5.511a7.177,7.177,0,0,1,5.545-.82c5.744,1.1,6.739,7.46,6.767,7.649.01.059.451,2.717,2.256,3.72a5.57,5.57,0,0,0,3.127.145c1.695-.2,3.616-.433,5.19.748,2.707,2.03,2.417,7.74,2.4,7.982l-.015.267H17.845A.15.15,0,0,1,17.757,211.936Zm.474-.6H72.838c.023-1.141-.032-5.616-2.185-7.23-1.393-1.045-3.117-.839-4.783-.639a5.893,5.893,0,0,1-3.469-.212c-2.06-1.144-2.523-4.007-2.541-4.129v0c-.008-.061-.916-6.136-6.314-7.173a6.627,6.627,0,0,0-5.119.731c-1.421.968-2.375,2.7-2.834,5.148a3.146,3.146,0,0,1-1.334,2.311c-1.183.693-2.8.148-4.508-.429l-.413-.139c-2.5-.832-5.831,1.1-7.284,4.212l-.186.4c-1.428,3.076-1.772,3.453-5.985,3.032-4.233-.423-5.444-.259-6.7,2.243C18.726,210.38,18.432,210.969,18.23,211.34Z" transform="translate(-17.38 -191.197)"/>
        </g>
      </g>
    </g>
    <g id="Graphics" transform="translate(47.914 68.632)">
      <g id="Grupo_971535" data-name="Grupo 971535">
        <g id="Grupo_971520" data-name="Grupo 971520" transform="translate(200.985 1.185)" opacity="0.3">
          <g id="Grupo_971505" data-name="Grupo 971505" transform="translate(0 5.245)">
            <path id="Trazado_638077" data-name="Trazado 638077" d="M414.706,156.11h-32.2a.283.283,0,0,1-.283-.283V122.6a.283.283,0,0,1,.283-.283h32.2a.283.283,0,0,1,.283.283v33.223A.283.283,0,0,1,414.706,156.11Zm-31.912-.566h31.629V122.886H382.793Z" transform="translate(-382.227 -122.32)"/>
          </g>
          <g id="Grupo_971506" data-name="Grupo 971506" transform="translate(2.74 10.383)">
            <path id="Trazado_638078" data-name="Trazado 638078" d="M414.062,136.066H387.346a.283.283,0,0,1-.283-.283v-4.11a.283.283,0,0,1,.283-.283h26.716a.283.283,0,0,1,.283.283v4.11A.283.283,0,0,1,414.062,136.066Zm-26.433-.566h26.15v-3.544h-26.15Z" transform="translate(-387.063 -131.389)"/>
          </g>
          <g id="Grupo_971511" data-name="Grupo 971511" transform="translate(2.74 20.642)">
            <g id="Grupo_971507" data-name="Grupo 971507">
              <path id="Trazado_638079" data-name="Trazado 638079" d="M392.012,154.731h-4.666a.283.283,0,0,1-.283-.283v-4.665a.283.283,0,0,1,.283-.283h4.666a.283.283,0,0,1,.283.283v4.665A.283.283,0,0,1,392.012,154.731Zm-4.382-.566h4.1v-4.1h-4.1Z" transform="translate(-387.063 -149.5)"/>
            </g>
            <g id="Grupo_971508" data-name="Grupo 971508" transform="translate(7.465)">
              <path id="Trazado_638080" data-name="Trazado 638080" d="M405.189,154.731h-4.666a.283.283,0,0,1-.283-.283v-4.665a.283.283,0,0,1,.283-.283h4.666a.283.283,0,0,1,.283.283v4.665A.283.283,0,0,1,405.189,154.731Zm-4.382-.566h4.1v-4.1h-4.1Z" transform="translate(-400.24 -149.5)"/>
            </g>
            <g id="Grupo_971509" data-name="Grupo 971509" transform="translate(14.929)">
              <path id="Trazado_638081" data-name="Trazado 638081" d="M418.365,154.731H413.7a.283.283,0,0,1-.283-.283v-4.665a.283.283,0,0,1,.283-.283h4.665a.283.283,0,0,1,.283.283v4.665A.283.283,0,0,1,418.365,154.731Zm-4.382-.566h4.1v-4.1h-4.1Z" transform="translate(-413.417 -149.5)"/>
            </g>
            <g id="Grupo_971510" data-name="Grupo 971510" transform="translate(22.393)">
              <path id="Trazado_638082" data-name="Trazado 638082" d="M431.541,154.731h-4.665a.283.283,0,0,1-.283-.283v-4.665a.283.283,0,0,1,.283-.283h4.665a.283.283,0,0,1,.283.283v4.665A.283.283,0,0,1,431.541,154.731Zm-4.382-.566h4.1v-4.1h-4.1Z" transform="translate(-426.593 -149.5)"/>
            </g>
          </g>
          <g id="Grupo_971516" data-name="Grupo 971516" transform="translate(2.74 28.862)">
            <g id="Grupo_971512" data-name="Grupo 971512">
              <path id="Trazado_638083" data-name="Trazado 638083" d="M392.012,169.242h-4.666a.283.283,0,0,1-.283-.283v-4.665a.283.283,0,0,1,.283-.283h4.666a.283.283,0,0,1,.283.283v4.665A.283.283,0,0,1,392.012,169.242Zm-4.382-.566h4.1v-4.1h-4.1Z" transform="translate(-387.063 -164.011)"/>
            </g>
            <g id="Grupo_971513" data-name="Grupo 971513" transform="translate(7.465)">
              <path id="Trazado_638084" data-name="Trazado 638084" d="M405.189,169.242h-4.666a.283.283,0,0,1-.283-.283v-4.665a.283.283,0,0,1,.283-.283h4.666a.283.283,0,0,1,.283.283v4.665A.283.283,0,0,1,405.189,169.242Zm-4.382-.566h4.1v-4.1h-4.1Z" transform="translate(-400.24 -164.011)"/>
            </g>
            <g id="Grupo_971514" data-name="Grupo 971514" transform="translate(14.929)">
              <path id="Trazado_638085" data-name="Trazado 638085" d="M418.365,169.242H413.7a.283.283,0,0,1-.283-.283v-4.665a.283.283,0,0,1,.283-.283h4.665a.283.283,0,0,1,.283.283v4.665A.283.283,0,0,1,418.365,169.242Zm-4.382-.566h4.1v-4.1h-4.1Z" transform="translate(-413.417 -164.011)"/>
            </g>
            <g id="Grupo_971515" data-name="Grupo 971515" transform="translate(22.393)">
              <path id="Trazado_638086" data-name="Trazado 638086" d="M431.541,169.242h-4.665a.283.283,0,0,1-.283-.283v-4.665a.283.283,0,0,1,.283-.283h4.665a.283.283,0,0,1,.283.283v4.665A.283.283,0,0,1,431.541,169.242Zm-4.382-.566h4.1v-4.1h-4.1Z" transform="translate(-426.593 -164.011)"/>
            </g>
          </g>
          <g id="Grupo_971517" data-name="Grupo 971517" transform="translate(4.438)">
            <path id="Trazado_638087" data-name="Trazado 638087" d="M390.344,118.874a.283.283,0,0,1-.283-.283v-5.247a.283.283,0,0,1,.283-.283h2.878a.283.283,0,0,1,.283.283v5.077a.283.283,0,0,1-.566,0v-4.794h-2.311v4.964A.283.283,0,0,1,390.344,118.874Z" transform="translate(-390.061 -113.061)"/>
          </g>
          <g id="Grupo_971518" data-name="Grupo 971518" transform="translate(25.764)">
            <path id="Trazado_638088" data-name="Trazado 638088" d="M427.991,118.874a.283.283,0,0,1-.283-.283v-5.247a.283.283,0,0,1,.283-.283h2.878a.283.283,0,0,1,.283.283v5.077a.283.283,0,0,1-.567,0v-4.794h-2.311v4.964A.283.283,0,0,1,427.991,118.874Z" transform="translate(-427.708 -113.061)"/>
          </g>
          <g id="Grupo_971519" data-name="Grupo 971519" transform="translate(14.424)">
            <path id="Trazado_638089" data-name="Trazado 638089" d="M407.972,118.874a.283.283,0,0,1-.283-.283v-5.247a.283.283,0,0,1,.283-.283h2.878a.283.283,0,0,1,.283.283v5.077a.283.283,0,0,1-.567,0v-4.794h-2.311v4.964A.283.283,0,0,1,407.972,118.874Z" transform="translate(-407.689 -113.061)"/>
          </g>
        </g>
        <g id="Grupo_971526" data-name="Grupo 971526" opacity="0.3">
          <g id="Grupo_971525" data-name="Grupo 971525">
            <g id="Grupo_971521" data-name="Grupo 971521" transform="translate(0 14.364)">
              <path id="Trazado_638090" data-name="Trazado 638090" d="M35.185,155.567H27.434v-19.24h7.751ZM28,155h6.618V136.893H28Z" transform="translate(-27.434 -136.327)"/>
            </g>
            <g id="Grupo_971522" data-name="Grupo 971522" transform="translate(9.075 15.8)">
              <path id="Trazado_638091" data-name="Trazado 638091" d="M51.2,156.666h-7.75v-17.8H51.2ZM44.02,156.1h6.617V139.428H44.02Z" transform="translate(-43.454 -138.862)"/>
            </g>
            <g id="Grupo_971523" data-name="Grupo 971523" transform="translate(18.15 11.491)">
              <path id="Trazado_638092" data-name="Trazado 638092" d="M67.223,153.368h-7.75V131.255h7.75Zm-7.184-.566h6.617v-20.98H60.039Z" transform="translate(-59.473 -131.255)"/>
            </g>
            <g id="Grupo_971524" data-name="Grupo 971524" transform="translate(27.224)">
              <path id="Trazado_638093" data-name="Trazado 638093" d="M83.243,144.574H75.492v-33.6h7.751Zm-7.184-.566h6.618V111.536H76.058Z" transform="translate(-75.492 -110.97)"/>
            </g>
          </g>
        </g>
        <g id="Grupo_971534" data-name="Grupo 971534" transform="translate(113.21 61.752)" opacity="0.3">
          <g id="Grupo_971529" data-name="Grupo 971529" transform="translate(0 0.756)">
            <g id="Grupo_971527" data-name="Grupo 971527">
              <path id="Trazado_638094" data-name="Trazado 638094" d="M241.127,249.008a13.847,13.847,0,1,1,13.847-13.847A13.863,13.863,0,0,1,241.127,249.008Zm0-27.127a13.28,13.28,0,1,0,13.28,13.28A13.3,13.3,0,0,0,241.127,221.88Z" transform="translate(-227.28 -221.314)"/>
            </g>
            <g id="Grupo_971528" data-name="Grupo 971528" transform="translate(13.563)">
              <path id="Trazado_638095" data-name="Trazado 638095" d="M263.424,242.214l-12.2-6.888V221.314h.283a13.845,13.845,0,0,1,12.057,20.653ZM251.789,235l11.417,6.446a13.278,13.278,0,0,0-11.417-19.557Z" transform="translate(-251.223 -221.314)"/>
            </g>
          </g>
          <g id="Grupo_971530" data-name="Grupo 971530" transform="translate(22.808)">
            <path id="Trazado_638096" data-name="Trazado 638096" d="M267.925,226.979l-.382-.418,7.208-6.581H285.4v.566H274.971Z" transform="translate(-267.543 -219.979)"/>
          </g>
          <g id="Grupo_971531" data-name="Grupo 971531" transform="translate(33.845 3.409)">
            <rect id="Rectángulo_307428" data-name="Rectángulo 307428" width="6.198" height="0.566"/>
          </g>
          <g id="Grupo_971532" data-name="Grupo 971532" transform="translate(33.845 5.268)">
            <rect id="Rectángulo_307429" data-name="Rectángulo 307429" width="6.198" height="0.566"/>
          </g>
          <g id="Grupo_971533" data-name="Grupo 971533" transform="translate(33.845 7.127)">
            <rect id="Rectángulo_307430" data-name="Rectángulo 307430" width="6.198" height="0.566"/>
          </g>
        </g>
      </g>
    </g>
    <g id="Chart" transform="translate(124.822 33.947)">
      <g id="Grupo_971547" data-name="Grupo 971547">
        <g id="Grupo_971542" data-name="Grupo 971542">
          <g id="Grupo_971536" data-name="Grupo 971536" transform="translate(0 28.902)">
            <rect id="Rectángulo_307431" data-name="Rectángulo 307431" width="9.097" height="18.674" transform="translate(0.283 0.283)" fill="#449c6e"/>
            <path id="Trazado_638097" data-name="Trazado 638097" d="M218.282,120h-9.1a.283.283,0,0,1-.283-.283V101.045a.283.283,0,0,1,.283-.283h9.1a.283.283,0,0,1,.283.283v18.674A.283.283,0,0,1,218.282,120Zm-8.814-.566H218V101.328h-8.531Z" transform="translate(-208.901 -100.762)" fill="#263238"/>
          </g>
          <g id="Grupo_971537" data-name="Grupo 971537" transform="translate(11.492 30.339)">
            <rect id="Rectángulo_307432" data-name="Rectángulo 307432" width="9.097" height="17.237" transform="translate(0.283 0.283)" fill="#449c6e"/>
            <path id="Trazado_638098" data-name="Trazado 638098" d="M238.568,121.1h-9.1a.283.283,0,0,1-.283-.283V103.581a.283.283,0,0,1,.283-.283h9.1a.283.283,0,0,1,.283.283v17.237A.283.283,0,0,1,238.568,121.1Zm-8.815-.566h8.531v-16.67h-8.531Z" transform="translate(-229.187 -103.298)" fill="#263238"/>
          </g>
          <g id="Grupo_971538" data-name="Grupo 971538" transform="translate(22.983 26.029)">
            <rect id="Rectángulo_307433" data-name="Rectángulo 307433" width="9.097" height="21.547" transform="translate(0.283 0.284)" fill="#449c6e"/>
            <path id="Trazado_638099" data-name="Trazado 638099" d="M258.853,117.8h-9.1a.283.283,0,0,1-.283-.283V95.973a.283.283,0,0,1,.283-.283h9.1a.283.283,0,0,1,.283.283V117.52A.283.283,0,0,1,258.853,117.8Zm-8.814-.566h8.531V96.256h-8.531Z" transform="translate(-249.473 -95.69)" fill="#263238"/>
          </g>
          <g id="Grupo_971539" data-name="Grupo 971539" transform="translate(34.475 14.538)">
            <rect id="Rectángulo_307434" data-name="Rectángulo 307434" width="9.097" height="33.038" transform="translate(0.283 0.283)" fill="#449c6e"/>
            <path id="Trazado_638100" data-name="Trazado 638100" d="M279.139,109.009h-9.1a.283.283,0,0,1-.283-.283V75.688a.283.283,0,0,1,.283-.283h9.1a.283.283,0,0,1,.283.283v33.038A.283.283,0,0,1,279.139,109.009Zm-8.814-.566h8.531V75.971h-8.531Z" transform="translate(-269.759 -75.405)" fill="#263238"/>
          </g>
          <g id="Grupo_971540" data-name="Grupo 971540" transform="translate(1.261 2.392)">
            <path id="Trazado_638101" data-name="Trazado 638101" d="M225.471,80.082a1.423,1.423,0,0,1-.338-.041l-12.928-3.175a1.416,1.416,0,1,1,.676-2.75l12.442,3.056L236.93,71.73l10.312-17.082a1.416,1.416,0,0,1,2.425,1.464l-10.534,17.45a1.415,1.415,0,0,1-.611.55l-12.449,5.836A1.413,1.413,0,0,1,225.471,80.082Z" transform="translate(-211.127 -53.964)" fill="#263238"/>
          </g>
          <g id="Grupo_971541" data-name="Grupo 971541" transform="translate(31.911)">
            <path id="Trazado_638102" data-name="Trazado 638102" d="M273.186,59.344h-.049a1.416,1.416,0,0,1-1.367-1.464l.15-4.351-4.62,2.39A1.416,1.416,0,1,1,266,53.4l6.77-3.5a1.416,1.416,0,0,1,2.066,1.307l-.233,6.769A1.416,1.416,0,0,1,273.186,59.344Z" transform="translate(-265.233 -49.742)" fill="#263238"/>
          </g>
        </g>
        <g id="Grupo_971543" data-name="Grupo 971543" transform="translate(13.995 25.483)">
          <circle id="Elipse_7834" data-name="Elipse 7834" cx="1.327" cy="1.327" r="1.327" transform="translate(0.284 0.283)" fill="#449c6e"/>
          <path id="Trazado_638103" data-name="Trazado 638103" d="M235.217,97.947a1.61,1.61,0,1,1,1.611-1.611A1.612,1.612,0,0,1,235.217,97.947Zm0-2.654a1.044,1.044,0,1,0,1.044,1.043A1.045,1.045,0,0,0,235.217,95.293Z" transform="translate(-233.606 -94.727)" fill="#263238"/>
        </g>
        <g id="Grupo_971544" data-name="Grupo 971544" transform="translate(26.312 19.409)">
          <path id="Trazado_638104" data-name="Trazado 638104" d="M258.5,85.832a1.327,1.327,0,1,0-1.327,1.327A1.327,1.327,0,0,0,258.5,85.832Z" transform="translate(-255.566 -84.221)" fill="#449c6e"/>
          <path id="Trazado_638105" data-name="Trazado 638105" d="M256.959,87.224a1.61,1.61,0,1,1,1.611-1.61A1.611,1.611,0,0,1,256.959,87.224Zm0-2.654A1.044,1.044,0,1,0,258,85.615,1.045,1.045,0,0,0,256.959,84.57Z" transform="translate(-255.349 -84.004)" fill="#263238"/>
        </g>
        <g id="Grupo_971545" data-name="Grupo 971545" transform="translate(3.512 22.7)">
          <path id="Trazado_638106" data-name="Trazado 638106" d="M218.254,91.641a1.327,1.327,0,1,0-1.327,1.327A1.327,1.327,0,0,0,218.254,91.641Z" transform="translate(-215.317 -90.03)" fill="#449c6e"/>
          <path id="Trazado_638107" data-name="Trazado 638107" d="M216.71,93.034a1.611,1.611,0,1,1,1.61-1.611A1.612,1.612,0,0,1,216.71,93.034Zm0-2.655a1.044,1.044,0,1,0,1.043,1.044A1.045,1.045,0,0,0,216.71,90.379Z" transform="translate(-215.1 -89.813)" fill="#263238"/>
        </g>
        <g id="Grupo_971546" data-name="Grupo 971546" transform="translate(38.099 0.26)">
          <path id="Trazado_638108" data-name="Trazado 638108" d="M279.312,52.028a1.327,1.327,0,1,0-1.327,1.327A1.327,1.327,0,0,0,279.312,52.028Z" transform="translate(-276.374 -50.418)" fill="#449c6e"/>
          <path id="Trazado_638109" data-name="Trazado 638109" d="M277.768,53.421a1.61,1.61,0,1,1,1.611-1.611A1.613,1.613,0,0,1,277.768,53.421Zm0-2.654a1.044,1.044,0,1,0,1.044,1.043A1.045,1.045,0,0,0,277.768,50.767Z" transform="translate(-276.157 -50.201)" fill="#263238"/>
        </g>
      </g>
    </g>
    <g id="Plants" transform="translate(19.621 207.437)">
      <g id="Grupo_971551" data-name="Grupo 971551" transform="translate(0)">
        <g id="Grupo_971548" data-name="Grupo 971548" transform="translate(0 10.714)">
          <path id="Trazado_638110" data-name="Trazado 638110" d="M26.383,381.135c1.51.659,5.2.576,5.207.576.038,0-.794-2.418-.864-2.564-.81-1.7-3.373-4.5-5.459-4.213a2.491,2.491,0,0,0-2,3.121A5.207,5.207,0,0,0,26.383,381.135Z" transform="translate(-23.193 -374.913)" fill="#263238"/>
        </g>
        <g id="Grupo_971549" data-name="Grupo 971549" transform="translate(0.311)">
          <path id="Trazado_638111" data-name="Trazado 638111" d="M27.9,383.635c1.567.228,4.863-.728,5.126-.8a44.094,44.094,0,0,0,2,5.532c.453,1.05.943,2.093,1.446,3.133-.3-.44-.573-.832-.616-.883-1.23-1.421-4.441-3.444-6.378-2.621a2.49,2.49,0,0,0-1.1,3.538,5.2,5.2,0,0,0,3.818,2.148,16.5,16.5,0,0,0,4.982-.764c.2.4.39.8.59,1.191.955,1.9,1.915,3.794,2.8,5.679.313.664.6,1.33.881,2-.267-.391-.5-.718-.536-.765-1.23-1.421-4.441-3.445-6.378-2.622a2.49,2.49,0,0,0-1.1,3.538,5.206,5.206,0,0,0,3.818,2.148,15.9,15.9,0,0,0,4.848-.727c.272.689.546,1.38.778,2.061.148.468.324.909.446,1.387s.262.938.391,1.4c.216.9.444,1.825.632,2.708.135.612.254,1.2.374,1.79-.3-.665-.925-1.954-.989-2.056-1-1.591-3.867-4.077-5.907-3.558a2.489,2.489,0,0,0-1.626,3.33,5.206,5.206,0,0,0,3.448,2.7c1.478.451,4.75.039,5.158-.015.2.977.378,1.93.534,2.832q.177,1,.323,1.926h1.31q-.185-1.029-.408-2.154c-.195-.994-.423-2.051-.668-3.136a26.965,26.965,0,0,0,2.878-1.353,18.231,18.231,0,0,0,4.194,2.706c-.376.924-.75,1.818-1.117,2.657-.193.445-.381.864-.568,1.281H52.66c.11-.263.219-.521.331-.8.386-.936.779-1.945,1.173-2.984.4.083,3.635.74,5.144.4a5.209,5.209,0,0,0,3.64-2.438,2.49,2.49,0,0,0-1.374-3.442c-2-.67-5.04,1.6-6.156,3.108-.066.089-.672,1.137-1.043,1.8.159-.425.317-.837.475-1.277.319-.868.611-1.743.928-2.684q.206-.689.417-1.392c.149-.462.248-.969.375-1.458.271-1.139.491-2.307.686-3.488a16.343,16.343,0,0,0,4.882,1.123,5.206,5.206,0,0,0,3.967-1.858,2.49,2.49,0,0,0-.837-3.611c-1.871-.964-5.224.814-6.556,2.14-.083.082-.932,1.141-1.387,1.732.112-.711.227-1.42.316-2.142.259-2.087.456-4.207.663-6.321.062-.647.133-1.292.2-1.938.27.1,3.472,1.294,5.048,1.183a5.2,5.2,0,0,0,3.967-1.858,2.49,2.49,0,0,0-.837-3.61c-1.87-.965-5.223.814-6.555,2.139-.1.1-1.32,1.625-1.611,2.028.15-1.422.313-2.837.53-4.226a43.793,43.793,0,0,1,1.213-5.558c.125.048,3.462,1.307,5.076,1.194a5.206,5.206,0,0,0,3.967-1.858,2.49,2.49,0,0,0-.837-3.61c-1.871-.965-5.224.813-6.556,2.139-.1.1-1.415,1.745-1.631,2.06.031-.105.052-.219.084-.323a32.089,32.089,0,0,1,2.2-5.259c.479-.936.989-1.8,1.5-2.639a16.761,16.761,0,0,0,4.807,1.69,5.208,5.208,0,0,0,4.147-1.411,2.491,2.491,0,0,0-.435-3.68c-1.753-1.164-5.281.235-6.751,1.407-.08.063-.82.8-1.352,1.345.238-.373.477-.762.712-1.114.88-1.326,1.768-2.485,2.563-3.507.457-.577.881-1.089,1.283-1.565a16.645,16.645,0,0,0,5.018-.714,5.208,5.208,0,0,0,3.031-3.163,2.49,2.49,0,0,0-2.082-3.066c-2.092-.226-4.579,2.641-5.344,4.358-.066.148-.832,2.588-.794,2.587h.044c-.4.45-.815.936-1.263,1.477-.819,1.005-1.734,2.149-2.647,3.461a44.21,44.21,0,0,0-2.744,4.372,32.491,32.491,0,0,0-2.345,5.277c-.007.022-.012.045-.019.067.011-.616-.016-2.341-.033-2.473-.242-1.863-1.8-5.323-3.874-5.706a2.491,2.491,0,0,0-2.872,2.342,5.207,5.207,0,0,0,2,3.9c1.181,1.055,4.458,2.076,4.719,2.157a44.008,44.008,0,0,0-1.384,5.717c-.2,1.126-.368,2.266-.522,3.411-.008-.533-.019-1.01-.028-1.077-.241-1.864-1.8-5.322-3.873-5.705a2.49,2.49,0,0,0-2.872,2.342,5.2,5.2,0,0,0,2,3.9,16.512,16.512,0,0,0,4.576,2.111c-.054.44-.113.879-.165,1.319-.253,2.112-.5,4.22-.8,6.282-.106.726-.237,1.438-.365,2.15-.007-.474-.018-.872-.025-.933-.242-1.864-1.8-5.323-3.872-5.706a2.491,2.491,0,0,0-2.873,2.343,5.206,5.206,0,0,0,2,3.9,15.879,15.879,0,0,0,4.444,2.068c-.154.726-.306,1.452-.488,2.149-.135.472-.232.936-.393,1.4s-.3.927-.446,1.383c-.317.869-.637,1.768-.966,2.607-.225.586-.45,1.14-.675,1.7.113-.722.306-2.14.309-2.259a9.673,9.673,0,0,0-1.3-4.7,2.936,2.936,0,0,0-.035-.551,2.49,2.49,0,0,0-3.045-2.113c-2.034.542-3.324,4.112-3.419,5.988-.006.111.066,1.319.125,2.08-.1-.442-.2-.873-.308-1.327-.213-.9-.453-1.791-.706-2.751l-.421-1.392c-.131-.467-.328-.944-.492-1.422-.4-1.1-.863-2.195-1.352-3.287a16.349,16.349,0,0,0,4.692-1.757,5.2,5.2,0,0,0,2.284-3.738,2.491,2.491,0,0,0-2.69-2.55c-2.092.227-3.908,3.56-4.288,5.4-.024.115-.148,1.466-.2,2.21-.3-.654-.594-1.309-.918-1.962-.935-1.884-1.94-3.76-2.935-5.638-.3-.575-.6-1.151-.9-1.727.281-.065,3.61-.837,4.863-1.8A5.206,5.206,0,0,0,44.66,386.5a2.49,2.49,0,0,0-2.689-2.55c-2.093.227-3.908,3.56-4.288,5.4-.028.138-.2,2.083-.224,2.58-.659-1.268-1.3-2.539-1.889-3.817a44.021,44.021,0,0,1-2.054-5.3c.131-.03,3.61-.82,4.893-1.8a5.2,5.2,0,0,0,2.284-3.738A2.49,2.49,0,0,0,38,374.72c-2.092.227-3.908,3.56-4.288,5.4-.03.144-.218,2.237-.224,2.618-.032-.105-.078-.211-.109-.316a32.16,32.16,0,0,1-1.065-5.6c-.117-1.045-.171-2.05-.2-3.03a16.763,16.763,0,0,0,4.941-1.242,5.206,5.206,0,0,0,2.681-3.465,2.49,2.49,0,0,0-2.393-2.83c-2.1,0-4.275,3.109-4.855,4.9-.032.1-.242,1.121-.385,1.869-.007-.442-.023-.9-.021-1.322,0-1.591.1-3.049.2-4.338.062-.734.134-1.4.207-2.013a16.677,16.677,0,0,0,3.791-3.366,5.2,5.2,0,0,0,.783-4.31,2.491,2.491,0,0,0-3.428-1.409c-1.869.966-2.361,4.73-2.052,6.584.027.16.734,2.617.765,2.6l.037-.025c-.083.594-.164,1.231-.238,1.929-.128,1.29-.261,2.749-.3,4.347a44.259,44.259,0,0,0,.123,5.161,32.468,32.468,0,0,0,.956,5.694c.006.022.015.044.021.066-.331-.52-1.306-1.944-1.393-2.044-1.229-1.421-4.441-3.444-6.377-2.622a2.491,2.491,0,0,0-1.1,3.539A5.207,5.207,0,0,0,27.9,383.635Z" transform="translate(-23.742 -356)" fill="#263238"/>
        </g>
        <g id="Grupo_971550" data-name="Grupo 971550" transform="translate(35.448 8.37)">
          <path id="Trazado_638112" data-name="Trazado 638112" d="M90.874,380.154c.032.02.672-2.455.695-2.616.259-1.861-.335-5.61-2.23-6.525a2.49,2.49,0,0,0-3.389,1.5,5.2,5.2,0,0,0,.9,4.287C87.745,378.184,90.872,380.152,90.874,380.154Z" transform="translate(-85.769 -370.776)" fill="#263238"/>
        </g>
      </g>
      <g id="Grupo_971555" data-name="Grupo 971555" transform="translate(236.612)">
        <g id="Grupo_971552" data-name="Grupo 971552" transform="translate(0 10.714)">
          <path id="Trazado_638113" data-name="Trazado 638113" d="M377.926,381.135c1.511.659,5.2.576,5.207.576.038,0-.794-2.418-.864-2.564-.81-1.7-3.373-4.5-5.459-4.213a2.491,2.491,0,0,0-2,3.121A5.206,5.206,0,0,0,377.926,381.135Z" transform="translate(-374.736 -374.913)" fill="#263238"/>
        </g>
        <g id="Grupo_971553" data-name="Grupo 971553" transform="translate(0.311)">
          <path id="Trazado_638114" data-name="Trazado 638114" d="M379.44,383.635c1.566.228,4.863-.728,5.126-.8a44.089,44.089,0,0,0,2,5.532c.453,1.05.943,2.093,1.447,3.133-.3-.44-.573-.832-.617-.883-1.23-1.421-4.441-3.444-6.377-2.621a2.49,2.49,0,0,0-1.1,3.538,5.206,5.206,0,0,0,3.818,2.148,16.5,16.5,0,0,0,4.982-.764c.2.4.39.8.589,1.191.955,1.9,1.915,3.794,2.8,5.679.312.664.6,1.33.881,2-.267-.391-.5-.718-.536-.765-1.229-1.421-4.441-3.445-6.377-2.622a2.49,2.49,0,0,0-1.1,3.538,5.207,5.207,0,0,0,3.818,2.148,15.9,15.9,0,0,0,4.847-.727c.272.689.546,1.38.779,2.061.148.468.324.909.446,1.387s.262.938.39,1.4c.216.9.444,1.825.632,2.708.136.612.254,1.2.374,1.79-.3-.665-.924-1.954-.988-2.056-1-1.591-3.867-4.077-5.907-3.558a2.49,2.49,0,0,0-1.626,3.33,5.207,5.207,0,0,0,3.448,2.7c1.478.451,4.749.039,5.158-.015.2.977.377,1.93.534,2.832q.177,1,.323,1.926h1.31q-.186-1.029-.408-2.154c-.195-.994-.423-2.051-.668-3.136a26.977,26.977,0,0,0,2.878-1.353,18.232,18.232,0,0,0,4.195,2.706c-.376.924-.75,1.818-1.117,2.657-.193.445-.381.864-.568,1.281H404.2c.11-.263.219-.521.331-.8.385-.936.778-1.945,1.172-2.984.4.083,3.635.74,5.145.4a5.209,5.209,0,0,0,3.64-2.438,2.49,2.49,0,0,0-1.375-3.442c-1.995-.67-5.04,1.6-6.155,3.108-.066.089-.672,1.137-1.043,1.8.159-.425.317-.837.475-1.277.319-.868.611-1.743.928-2.684l.417-1.392c.149-.462.248-.969.375-1.458.271-1.139.491-2.307.685-3.488a16.351,16.351,0,0,0,4.883,1.123,5.206,5.206,0,0,0,3.967-1.858,2.491,2.491,0,0,0-.837-3.611c-1.871-.964-5.224.814-6.555,2.14-.083.082-.932,1.141-1.387,1.732.112-.711.227-1.42.316-2.142.259-2.087.456-4.207.662-6.321.063-.647.133-1.292.2-1.938.27.1,3.473,1.294,5.048,1.183a5.2,5.2,0,0,0,3.967-1.858,2.49,2.49,0,0,0-.837-3.61c-1.871-.965-5.224.814-6.555,2.139-.1.1-1.319,1.625-1.611,2.028.15-1.422.313-2.837.53-4.226a43.885,43.885,0,0,1,1.213-5.558c.125.048,3.463,1.307,5.076,1.194a5.207,5.207,0,0,0,3.968-1.858,2.49,2.49,0,0,0-.837-3.61c-1.871-.965-5.223.813-6.555,2.139-.1.1-1.415,1.745-1.632,2.06.031-.105.052-.219.084-.323a32.086,32.086,0,0,1,2.2-5.259c.479-.936.989-1.8,1.5-2.639a16.771,16.771,0,0,0,4.807,1.69,5.209,5.209,0,0,0,4.147-1.411,2.491,2.491,0,0,0-.435-3.68c-1.754-1.164-5.281.235-6.751,1.407-.08.063-.82.8-1.352,1.345.238-.373.477-.762.713-1.114.88-1.326,1.768-2.485,2.563-3.507.457-.577.88-1.089,1.283-1.565a16.651,16.651,0,0,0,5.019-.714,5.209,5.209,0,0,0,3.031-3.163,2.491,2.491,0,0,0-2.082-3.066c-2.093-.226-4.579,2.641-5.344,4.358-.066.148-.833,2.588-.794,2.587h.045c-.4.45-.815.936-1.263,1.477-.819,1.005-1.735,2.149-2.647,3.461a44.31,44.31,0,0,0-2.745,4.372,32.535,32.535,0,0,0-2.344,5.277c-.007.022-.012.045-.019.067.011-.616-.016-2.341-.033-2.473-.241-1.863-1.8-5.323-3.873-5.706a2.491,2.491,0,0,0-2.873,2.342,5.207,5.207,0,0,0,2,3.9c1.181,1.055,4.457,2.076,4.718,2.157A44.1,44.1,0,0,0,410,387.9c-.2,1.126-.368,2.266-.521,3.411-.008-.533-.019-1.01-.028-1.077-.242-1.864-1.8-5.322-3.873-5.705a2.49,2.49,0,0,0-2.872,2.342,5.2,5.2,0,0,0,2,3.9,16.508,16.508,0,0,0,4.577,2.111c-.054.44-.113.879-.166,1.319-.252,2.112-.495,4.22-.8,6.282-.105.726-.237,1.438-.365,2.15-.008-.474-.018-.872-.026-.933-.241-1.864-1.8-5.323-3.872-5.706a2.491,2.491,0,0,0-2.873,2.343,5.2,5.2,0,0,0,2,3.9,15.894,15.894,0,0,0,4.444,2.068c-.153.726-.306,1.452-.488,2.149-.134.472-.231.936-.393,1.4l-.446,1.383c-.316.869-.637,1.768-.966,2.607-.225.586-.45,1.14-.675,1.7.114-.722.307-2.14.31-2.259a9.673,9.673,0,0,0-1.3-4.7,2.934,2.934,0,0,0-.034-.551,2.491,2.491,0,0,0-3.046-2.113c-2.033.542-3.323,4.112-3.419,5.988-.006.111.067,1.319.125,2.08-.1-.442-.2-.873-.308-1.327-.214-.9-.453-1.791-.706-2.751q-.208-.689-.421-1.392c-.13-.467-.328-.944-.491-1.422-.4-1.1-.863-2.195-1.352-3.287a16.34,16.34,0,0,0,4.691-1.757,5.207,5.207,0,0,0,2.285-3.738,2.491,2.491,0,0,0-2.69-2.55c-2.092.227-3.908,3.56-4.288,5.4-.023.115-.147,1.466-.2,2.21-.3-.654-.594-1.309-.918-1.962-.935-1.884-1.94-3.76-2.934-5.638-.3-.575-.6-1.151-.9-1.727.281-.065,3.61-.837,4.863-1.8A5.2,5.2,0,0,0,396.2,386.5a2.49,2.49,0,0,0-2.69-2.55c-2.093.227-3.908,3.56-4.288,5.4-.028.138-.2,2.083-.225,2.58-.659-1.268-1.3-2.539-1.889-3.817a43.836,43.836,0,0,1-2.054-5.3c.131-.03,3.609-.82,4.893-1.8a5.2,5.2,0,0,0,2.284-3.738,2.49,2.49,0,0,0-2.69-2.55c-2.092.227-3.908,3.56-4.287,5.4-.03.144-.218,2.237-.224,2.618-.033-.105-.078-.211-.109-.316a32.1,32.1,0,0,1-1.065-5.6c-.117-1.045-.171-2.05-.2-3.03a16.757,16.757,0,0,0,4.941-1.242,5.207,5.207,0,0,0,2.681-3.465,2.49,2.49,0,0,0-2.393-2.83c-2.1,0-4.275,3.109-4.855,4.9-.032.1-.243,1.121-.386,1.869-.007-.442-.023-.9-.02-1.322,0-1.591.1-3.049.2-4.338.063-.734.134-1.4.207-2.013a16.677,16.677,0,0,0,3.791-3.366,5.207,5.207,0,0,0,.783-4.31,2.491,2.491,0,0,0-3.428-1.409c-1.87.966-2.362,4.73-2.052,6.584.027.16.733,2.617.765,2.6l.036-.025c-.082.594-.163,1.231-.238,1.929-.129,1.29-.261,2.749-.3,4.347a44.124,44.124,0,0,0,.122,5.161,32.518,32.518,0,0,0,.956,5.694c.006.022.015.044.022.066-.331-.52-1.306-1.944-1.393-2.044-1.23-1.421-4.441-3.444-6.378-2.622a2.491,2.491,0,0,0-1.1,3.539A5.209,5.209,0,0,0,379.44,383.635Z" transform="translate(-375.286 -356)" fill="#263238"/>
        </g>
        <g id="Grupo_971554" data-name="Grupo 971554" transform="translate(35.449 8.37)">
          <path id="Trazado_638115" data-name="Trazado 638115" d="M442.418,380.154c.033.02.672-2.455.695-2.616.259-1.861-.334-5.61-2.23-6.525a2.49,2.49,0,0,0-3.388,1.5,5.206,5.206,0,0,0,.9,4.287C439.288,378.184,442.415,380.152,442.418,380.154Z" transform="translate(-437.313 -370.776)" fill="#263238"/>
        </g>
      </g>
    </g>
    <g id="Briefcase" transform="translate(112.384 171.754)">
      <g id="Grupo_971570" data-name="Grupo 971570">
        <g id="Grupo_971565" data-name="Grupo 971565">
          <g id="Grupo_971556" data-name="Grupo 971556" transform="translate(0 13.015)">
            <path id="Rectángulo_307435" data-name="Rectángulo 307435" d="M5.274,0H134.081a5.274,5.274,0,0,1,5.274,5.274V78.257a5.583,5.583,0,0,1-5.583,5.583H5.583A5.583,5.583,0,0,1,0,78.257V5.274A5.274,5.274,0,0,1,5.274,0Z" transform="translate(0.284 0.283)" fill="#fff"/>
            <path id="Trazado_638116" data-name="Trazado 638116" d="M310.941,400.39H177.911a3.45,3.45,0,0,1-3.446-3.446V319.255a3.275,3.275,0,0,1,3.271-3.271h133.38a3.275,3.275,0,0,1,3.271,3.271v77.689A3.45,3.45,0,0,1,310.941,400.39ZM177.736,316.55a2.708,2.708,0,0,0-2.7,2.7v77.689a2.883,2.883,0,0,0,2.879,2.879h133.03a2.883,2.883,0,0,0,2.879-2.879V319.255a2.708,2.708,0,0,0-2.7-2.7Z" transform="translate(-174.465 -315.984)" fill="#263238"/>
          </g>
          <g id="Grupo_971557" data-name="Grupo 971557" transform="translate(51.306)">
            <path id="Trazado_638117" data-name="Trazado 638117" d="M298.754,293.509h-29.7a3.523,3.523,0,0,0-3.524,3.523v11.577h4.106a3.9,3.9,0,0,1-.37-1.656v-5.5a3.92,3.92,0,0,1,3.921-3.92h21.431a3.92,3.92,0,0,1,3.921,3.92v5.5a3.9,3.9,0,0,1-.37,1.656h4.106V297.032A3.523,3.523,0,0,0,298.754,293.509Z" transform="translate(-265.251 -293.226)" fill="#263238"/>
            <path id="Trazado_638118" data-name="Trazado 638118" d="M302.061,308.676h-4.106a.284.284,0,0,1-.257-.4,3.6,3.6,0,0,0,.344-1.536v-5.5A3.641,3.641,0,0,0,294.4,297.6H272.974a3.641,3.641,0,0,0-3.637,3.637v5.5a3.6,3.6,0,0,0,.344,1.536.283.283,0,0,1-.257.4h-4.106a.283.283,0,0,1-.283-.283V296.816a3.811,3.811,0,0,1,3.807-3.807h29.7a3.811,3.811,0,0,1,3.807,3.807v11.577A.283.283,0,0,1,302.061,308.676Zm-3.685-.567h3.4V296.816a3.244,3.244,0,0,0-3.24-3.24h-29.7a3.244,3.244,0,0,0-3.24,3.24v11.293H269a4.144,4.144,0,0,1-.233-1.373v-5.5a4.208,4.208,0,0,1,4.2-4.2H294.4a4.208,4.208,0,0,1,4.2,4.2v5.5A4.155,4.155,0,0,1,298.376,308.109Z" transform="translate(-265.034 -293.009)" fill="#263238"/>
          </g>
          <g id="Grupo_971563" data-name="Grupo 971563" transform="translate(0 13.015)">
            <g id="Grupo_971558" data-name="Grupo 971558">
              <path id="Trazado_638119" data-name="Trazado 638119" d="M174.965,336.751,244.643,358.4,314.32,337.42V319.472a2.987,2.987,0,0,0-2.987-2.988H177.953a2.988,2.988,0,0,0-2.988,2.988Z" transform="translate(-174.682 -316.201)" fill="#fff"/>
              <path id="Trazado_638120" data-name="Trazado 638120" d="M244.426,358.47a.289.289,0,0,1-.084-.012L174.664,336.8a.284.284,0,0,1-.2-.27V319.255a3.275,3.275,0,0,1,3.271-3.271h133.38a3.275,3.275,0,0,1,3.271,3.271V337.2a.284.284,0,0,1-.2.271l-69.678,20.984A.268.268,0,0,1,244.426,358.47Zm-69.395-22.144,69.4,21.565,69.393-20.9V319.255a2.708,2.708,0,0,0-2.7-2.7H177.736a2.708,2.708,0,0,0-2.7,2.7Z" transform="translate(-174.465 -315.984)" fill="#263238"/>
            </g>
            <g id="Grupo_971559" data-name="Grupo 971559" transform="translate(112.451 2.828)">
              <path id="Trazado_638121" data-name="Trazado 638121" d="M373.255,345.3a.283.283,0,0,1-.082-.555l24.712-7.4V321.26a.283.283,0,1,1,.566,0v16.3a.282.282,0,0,1-.2.271l-24.914,7.464A.27.27,0,0,1,373.255,345.3Z" transform="translate(-372.971 -320.977)" fill="#263238"/>
            </g>
            <g id="Grupo_971560" data-name="Grupo 971560" transform="translate(75.436 27.43)">
              <path id="Trazado_638122" data-name="Trazado 638122" d="M307.914,375.221a.283.283,0,0,1-.082-.554l34.208-10.249a.283.283,0,0,1,.163.542L308,375.209A.287.287,0,0,1,307.914,375.221Z" transform="translate(-307.631 -364.405)" fill="#263238"/>
            </g>
            <g id="Grupo_971561" data-name="Grupo 971561" transform="translate(9.245 20.88)">
              <path id="Trazado_638123" data-name="Trazado 638123" d="M226.984,364.551a.276.276,0,0,1-.084-.013L190.985,353.4a.283.283,0,0,1,.168-.541L227.068,364a.283.283,0,0,1-.084.554Z" transform="translate(-190.785 -352.843)" fill="#263238"/>
            </g>
            <g id="Grupo_971562" data-name="Grupo 971562" transform="translate(48.26 32.981)">
              <path id="Trazado_638124" data-name="Trazado 638124" d="M275.081,379.469a.3.3,0,0,1-.084-.012l-15.142-4.7a.283.283,0,0,1-.186-.355.28.28,0,0,1,.355-.186l15.142,4.7a.283.283,0,0,1-.084.553Z" transform="translate(-259.656 -374.205)" fill="#263238"/>
            </g>
          </g>
          <g id="Grupo_971564" data-name="Grupo 971564" transform="translate(65.146 48.703)">
            <rect id="Rectángulo_307436" data-name="Rectángulo 307436" width="9.064" height="12.463" transform="translate(0.283 0.283)" fill="#263238"/>
            <path id="Trazado_638125" data-name="Trazado 638125" d="M298.813,392.013h-9.064a.283.283,0,0,1-.283-.283V379.267a.283.283,0,0,1,.283-.283h9.064a.283.283,0,0,1,.283.283V391.73A.283.283,0,0,1,298.813,392.013Zm-8.781-.566h8.5v-11.9h-8.5Z" transform="translate(-289.466 -378.984)" fill="#263238"/>
          </g>
        </g>
        <g id="Grupo_971569" data-name="Grupo 971569" transform="translate(112.292 43.673)">
          <g id="Grupo_971566" data-name="Grupo 971566" transform="translate(0 50.897)">
            <path id="Trazado_638126" data-name="Trazado 638126" d="M377.739,460.518h-4.764a.283.283,0,1,1,0-.566h4.764a.283.283,0,0,1,0,.566Z" transform="translate(-372.692 -459.952)" fill="#263238"/>
          </g>
          <g id="Grupo_971567" data-name="Grupo 971567" transform="translate(7.02 9.026)">
            <path id="Trazado_638127" data-name="Trazado 638127" d="M399.032,428.476H385.368a.283.283,0,1,1,0-.566h13.664a3.356,3.356,0,0,0,3.352-3.352V386.321a.283.283,0,0,1,.566,0v38.235A3.923,3.923,0,0,1,399.032,428.476Z" transform="translate(-385.085 -386.038)" fill="#263238"/>
          </g>
          <g id="Grupo_971568" data-name="Grupo 971568" transform="translate(24.32)">
            <path id="Trazado_638128" data-name="Trazado 638128" d="M415.907,375.686a.283.283,0,0,1-.283-.283v-5.015a.283.283,0,0,1,.566,0V375.4A.283.283,0,0,1,415.907,375.686Z" transform="translate(-415.624 -370.104)" fill="#263238"/>
          </g>
        </g>
      </g>
    </g>
    <g id="Character_2" data-name="Character 2" transform="translate(173.67 101.788)">
      <g id="Grupo_971600" data-name="Grupo 971600">
        <g id="Grupo_971573" data-name="Grupo 971573" transform="translate(27.842 117.826)">
          <g id="Grupo_971571" data-name="Grupo 971571">
            <path id="Trazado_638129" data-name="Trazado 638129" d="M332.3,378s1.794,13.933,2.989,18.994,5.616,23.276,5.676,25.024-4.182,5.539-6.039,6.623.5,1.877,2.39,1.667a14.855,14.855,0,0,0,5.332-1.788,6.961,6.961,0,0,1,1.327-.939c.144-.084.239-.136.239-.136l-.11,1.024,2.169-.512a27.532,27.532,0,0,0-.176-5.1c-.357-1.883-.558-3.479-.558-3.479s-.57-29.137-.656-31.612-.2-5.679-.2-5.679Z" transform="translate(-332.017 -377.712)" fill="#fff"/>
            <path id="Trazado_638130" data-name="Trazado 638130" d="M336.483,430.4c-1.142,0-2.464-.3-2.7-1-.1-.293-.041-.744.782-1.224,1.975-1.153,5.951-4.829,5.9-6.368-.049-1.435-3.181-14.543-4.863-21.586-.332-1.39-.612-2.56-.806-3.382-1.186-5.017-2.977-18.883-2.995-19.023a.285.285,0,0,1,.1-.255.282.282,0,0,1,.27-.05l12.387,4.091a.285.285,0,0,1,.194.259l.2,5.679c.084,2.449.651,31.324.657,31.615h0s.2,1.588.552,3.432a27.394,27.394,0,0,1,.181,5.165.283.283,0,0,1-.218.259l-2.168.513a.288.288,0,0,1-.253-.063.284.284,0,0,1-.094-.243l.05-.469a5.414,5.414,0,0,0-1.017.743c-.508.543-3.6,1.663-5.509,1.876A5.867,5.867,0,0,1,336.483,430.4Zm-4.061-52.213c.318,2.424,1.868,14.039,2.926,18.518.194.823.474,1.992.806,3.382,2.335,9.776,4.831,20.321,4.879,21.7.066,1.927-4.365,5.818-6.18,6.877-.441.258-.561.462-.53.557.113.339,1.386.738,2.746.583a14.921,14.921,0,0,0,5.157-1.7,7,7,0,0,1,1.391-.991c.15-.086.246-.139.246-.139a.283.283,0,0,1,.417.279l-.067.626,1.571-.372a25.89,25.89,0,0,0-.181-4.817c-.355-1.869-.558-3.48-.56-3.5-.008-.321-.574-29.192-.659-31.636l-.189-5.482Z" transform="translate(-331.8 -377.495)" fill="#263238"/>
          </g>
          <g id="Grupo_971572" data-name="Grupo 971572" transform="translate(1.95 44.861)">
            <path id="Trazado_638131" data-name="Trazado 638131" d="M338.809,464.634a14.855,14.855,0,0,0,5.332-1.788,6.962,6.962,0,0,1,1.327-.939c.144-.084.239-.136.239-.136l-.11,1.024,2.169-.512a27.531,27.531,0,0,0-.176-5.1,17.522,17.522,0,0,1-6.843,4.464,2.14,2.14,0,0,1-1.762-.376l-.237-.053a17.269,17.269,0,0,1-2.328,1.745C334.561,464.052,336.921,464.845,338.809,464.634Z" transform="translate(-335.459 -456.904)" fill="#263238"/>
            <path id="Trazado_638132" data-name="Trazado 638132" d="M337.975,464.733c-1.141,0-2.464-.3-2.7-1-.1-.293-.041-.744.782-1.224a16.985,16.985,0,0,0,2.286-1.715.288.288,0,0,1,.247-.063l.237.053a.291.291,0,0,1,.131.07,1.874,1.874,0,0,0,1.524.3,17.464,17.464,0,0,0,6.666-4.36.283.283,0,0,1,.5.123,27.392,27.392,0,0,1,.181,5.165.284.284,0,0,1-.217.259l-2.169.513a.288.288,0,0,1-.253-.063.284.284,0,0,1-.094-.243l.05-.468a5.416,5.416,0,0,0-1.017.743c-.508.543-3.6,1.663-5.508,1.876h0A5.883,5.883,0,0,1,337.975,464.733Zm.617-.316h0Zm.016-3.1a17.054,17.054,0,0,1-2.263,1.682c-.441.258-.561.462-.53.557.113.339,1.386.738,2.746.584a14.921,14.921,0,0,0,5.157-1.7,7,7,0,0,1,1.391-.991c.15-.086.246-.139.246-.139a.283.283,0,0,1,.417.279l-.067.626,1.571-.371a29.876,29.876,0,0,0-.091-4.224,18.078,18.078,0,0,1-6.61,4.1,2.505,2.505,0,0,1-1.934-.395Z" transform="translate(-335.242 -456.687)" fill="#263238"/>
          </g>
        </g>
        <g id="Grupo_971576" data-name="Grupo 971576" transform="translate(43.688 119.199)">
          <g id="Grupo_971574" data-name="Grupo 971574">
            <path id="Trazado_638133" data-name="Trazado 638133" d="M360.443,382.721s.956,14.982,2.407,19.014,3.045,20.6,3.045,20.6-.893,3.675-1.7,5.744c-1.165,3-.25,5.4,1.492,5.2s3.961-3.49,4.021-5.97a51.667,51.667,0,0,1,.536-5.558s1.78-15.952,2.176-21.359a69.349,69.349,0,0,0-.724-12.512c-.02-.582.471-7.451.471-7.451L360.273,382Z" transform="translate(-359.99 -380.136)" fill="#fff"/>
            <path id="Trazado_638134" data-name="Trazado 638134" d="M365.271,433.349a1.811,1.811,0,0,1-1.462-.738c-.812-1.049-.847-2.909-.091-4.857a58.791,58.791,0,0,0,1.673-5.662c-.1-.988-1.639-16.632-3.024-20.479-1.433-3.981-2.365-18.176-2.422-19.067l-.165-.7a.28.28,0,0,1,.042-.225.284.284,0,0,1,.2-.12l11.9-1.578a.283.283,0,0,1,.319.3c-.169,2.371-.486,6.972-.47,7.42,0,.094.047.429.1.855a62.571,62.571,0,0,1,.621,11.688c-.393,5.352-2.161,21.21-2.178,21.37a51.752,51.752,0,0,0-.535,5.533c-.064,2.636-2.379,6.021-4.271,6.245A1.985,1.985,0,0,1,365.271,433.349ZM360.4,382.02l.1.419a.33.33,0,0,1,.007.046c.01.15.97,14.988,2.391,18.936,1.447,4.019,2.995,19.986,3.06,20.664a.314.314,0,0,1-.006.095,59.457,59.457,0,0,1-1.708,5.779c-.675,1.736-.67,3.426.01,4.3a1.259,1.259,0,0,0,1.184.509c1.6-.19,3.716-3.384,3.772-5.7a52.364,52.364,0,0,1,.54-5.595c.016-.148,1.783-16,2.174-21.336a62.066,62.066,0,0,0-.617-11.573c-.07-.533-.1-.793-.108-.909-.018-.519.347-5.716.447-7.134Z" transform="translate(-359.773 -379.919)" fill="#263238"/>
          </g>
          <g id="Grupo_971575" data-name="Grupo 971575" transform="translate(3.402 45.179)">
            <path id="Trazado_638135" data-name="Trazado 638135" d="M372.411,460.171c-.872,1.5-2.222,3.38-3.531,3.425-1.167.04-1.54-1.111-1.637-2.193-.145.446-.292.872-.437,1.244-1.165,3-.25,5.4,1.492,5.2s3.961-3.49,4.021-5.97C372.331,461.322,372.366,460.741,372.411,460.171Z" transform="translate(-365.998 -459.888)" fill="#263238"/>
            <path id="Trazado_638136" data-name="Trazado 638136" d="M367.874,467.923a1.811,1.811,0,0,1-1.462-.738c-.812-1.049-.847-2.909-.091-4.857.142-.368.288-.788.431-1.229a.287.287,0,0,1,.3-.194.283.283,0,0,1,.251.256c.118,1.31.585,1.969,1.345,1.935.913-.032,2.083-1.2,3.3-3.284a.283.283,0,0,1,.527.164c-.05.637-.08,1.189-.092,1.687-.064,2.636-2.379,6.021-4.271,6.245A1.977,1.977,0,0,1,367.874,467.923Zm-.93-5.638q-.048.13-.094.249c-.675,1.736-.67,3.426.01,4.3a1.259,1.259,0,0,0,1.184.509c1.6-.19,3.716-3.384,3.772-5.7,0-.188.011-.384.021-.587-1.129,1.693-2.192,2.566-3.167,2.6A1.687,1.687,0,0,1,366.944,462.285Z" transform="translate(-365.778 -459.672)" fill="#263238"/>
          </g>
        </g>
        <g id="Grupo_971577" data-name="Grupo 971577" transform="translate(21.272 69.624)">
          <path id="Trazado_638137" data-name="Trazado 638137" d="M326.233,294.466a55.765,55.765,0,0,0-5.294,16.073c-1.535,9.24,5.055,31.487,5.055,31.487s5.263,4.628,14.742,4.738,14.516-1.814,14.516-1.814,4.59-23.641,3.526-33.931a31.392,31.392,0,0,0-7.626-17.081L327.17,292.9Z" transform="translate(-320.421 -292.622)" fill="#263238"/>
          <path id="Trazado_638138" data-name="Trazado 638138" d="M341.283,346.836c-.253,0-.509,0-.769,0-9.475-.109-14.872-4.762-14.926-4.809a.273.273,0,0,1-.084-.132c-.27-.911-6.591-22.415-5.064-31.614a56.614,56.614,0,0,1,5.326-16.163l.006-.01.937-1.561a.3.3,0,0,1,.255-.137l23.982,1.034a.286.286,0,0,1,.192.087,31.967,31.967,0,0,1,7.7,17.248c1.056,10.213-3.484,33.778-3.53,34.015a.283.283,0,0,1-.177.21C355.083,345.017,350.217,346.836,341.283,346.836Zm-15.259-5.188c.611.5,5.778,4.517,14.5,4.617,8.439.1,13.371-1.439,14.264-1.744.4-2.089,4.5-24,3.493-33.688A31.428,31.428,0,0,0,350.8,294l-23.7-1.022-.847,1.412A56.029,56.029,0,0,0,321,310.369C319.539,319.161,325.589,340.162,326.023,341.648Z" transform="translate(-320.202 -292.405)" fill="#263238"/>
        </g>
        <g id="Grupo_971580" data-name="Grupo 971580" transform="translate(0 71.007)">
          <g id="Grupo_971578" data-name="Grupo 971578">
            <path id="Trazado_638139" data-name="Trazado 638139" d="M293.586,295.451s-4.895,1.156-5.721,1.412a7.052,7.052,0,0,0-2.966,2.077c-.355.7-1.8,2.72-1.746,4.388s.081,2.351.536,2.335,1.014-1.4,1.464-1.569a39.912,39.912,0,0,1,4.508-1.37,7.227,7.227,0,0,0,3.088-.714,15.64,15.64,0,0,0,2.963-2.153l-1.371-4.508Z" transform="translate(-282.869 -295.065)" fill="#fff"/>
            <path id="Trazado_638140" data-name="Trazado 638140" d="M283.456,305.729c-.536,0-.642-.577-.678-.768a14.827,14.827,0,0,1-.124-1.841,8.3,8.3,0,0,1,1.482-4.012c.125-.211.229-.385.3-.514a7.314,7.314,0,0,1,3.133-2.218c.827-.257,5.54-1.371,5.74-1.418l.028-.005.756-.1a.277.277,0,0,1,.309.2l1.371,4.508a.284.284,0,0,1-.079.291,15.73,15.73,0,0,1-3.031,2.2,7.471,7.471,0,0,1-3.2.743,40.862,40.862,0,0,0-4.419,1.353,2.539,2.539,0,0,0-.542.657c-.335.492-.625.916-1.012.93Zm9.965-10.217c-.286.067-4.9,1.16-5.689,1.4a6.879,6.879,0,0,0-2.8,1.935c-.07.136-.18.322-.313.546a7.883,7.883,0,0,0-1.4,3.7,6.038,6.038,0,0,0,.221,2.061c.142-.03.431-.454.586-.681.278-.408.518-.76.812-.87a39.55,39.55,0,0,1,4.6-1.388,6.949,6.949,0,0,0,2.975-.685,14.68,14.68,0,0,0,2.763-1.987l-1.248-4.105Z" transform="translate(-282.652 -294.848)" fill="#263238"/>
          </g>
          <g id="Grupo_971579" data-name="Grupo 971579" transform="translate(1.277 2.147)">
            <path id="Trazado_638141" data-name="Trazado 638141" d="M290.31,299.139a18.193,18.193,0,0,0-2.377,1.525c-.217.311-3.26,4.516-2.35,4.485s3.473-2.777,3.473-2.777l3.337-.116c.91-.032,1.783-1.124,1.783-1.124" transform="translate(-285.125 -298.855)" fill="#fff"/>
            <path id="Trazado_638142" data-name="Trazado 638142" d="M285.353,305.215a.42.42,0,0,1-.386-.219c-.116-.216-.358-.665,2.444-4.612l.07-.1a14.331,14.331,0,0,1,2.47-1.61.283.283,0,0,1,.278.493,17.237,17.237,0,0,0-2.285,1.442l-.071.1a16.848,16.848,0,0,0-2.375,3.906,13.376,13.376,0,0,0,3.13-2.657.279.279,0,0,1,.2-.09l3.337-.116a2.715,2.715,0,0,0,1.572-1.018.284.284,0,0,1,.443.354,3.327,3.327,0,0,1-2,1.23l-3.22.111c-.585.62-2.661,2.75-3.589,2.782Zm.123-.459h0Z" transform="translate(-284.905 -298.638)" fill="#263238"/>
          </g>
        </g>
        <g id="Grupo_971586" data-name="Grupo 971586" transform="translate(10.331 29.507)">
          <g id="Grupo_971581" data-name="Grupo 971581">
            <path id="Trazado_638143" data-name="Trazado 638143" d="M331.655,222.088s-13.369,4.736-13.847,6.355-4.946,26.881-4.946,26.881l-11.474,8.054,1.993,6.163,12.823-5.073-3.8,13.665a45.477,45.477,0,0,0,15.633,4.089c8.206.428,17.368-2.382,18.6-2.78s4.747-1.767,4.747-1.767l-4.234-24.6s5.015-19.761,5.137-21.367.687-5.9.668-6.434-11.331-3.069-11.331-3.069Z" transform="translate(-301.105 -221.805)" fill="#449c6e"/>
            <path id="Trazado_638144" data-name="Trazado 638144" d="M329.589,282.333q-.895,0-1.783-.045a46.165,46.165,0,0,1-15.743-4.118.282.282,0,0,1-.147-.33l3.648-13.116-12.294,4.864a.282.282,0,0,1-.373-.176l-1.994-6.164a.284.284,0,0,1,.107-.32l11.378-7.986c.368-2.079,4.467-25.22,4.933-26.8.494-1.673,11.769-5.743,14.024-6.542a.348.348,0,0,1,.1-.016l9.968.112a.339.339,0,0,1,.058.007c11.527,2.584,11.543,3.073,11.553,3.336.01.284-.112,1.367-.313,3.118-.147,1.279-.3,2.6-.356,3.347-.121,1.584-4.774,19.952-5.13,21.357l4.224,24.546a.283.283,0,0,1-.177.312c-.144.056-3.536,1.375-4.762,1.772A61.819,61.819,0,0,1,329.589,282.333Zm-17.064-4.571a45.477,45.477,0,0,0,15.311,3.96c8.468.438,18.092-2.636,18.5-2.767,1.035-.335,3.733-1.374,4.515-1.677L346.654,252.9a.276.276,0,0,1,.005-.118c.049-.2,5.009-19.755,5.128-21.32.058-.756.211-2.084.359-3.368.142-1.236.288-2.51.307-2.932-.82-.484-7.143-2.015-11.08-2.9l-9.888-.111c-6.4,2.27-13.339,5.192-13.622,6.151-.469,1.586-4.894,26.6-4.939,26.85a.282.282,0,0,1-.116.182l-11.3,7.934,1.837,5.677,12.543-4.962a.283.283,0,0,1,.377.339Zm.121-22.654h0Z" transform="translate(-300.888 -221.588)" fill="#263238"/>
          </g>
          <g id="Grupo_971582" data-name="Grupo 971582" transform="translate(21.559 54.08)">
            <path id="Trazado_638145" data-name="Trazado 638145" d="M339.229,320.645a.278.278,0,0,1-.053-.005.283.283,0,0,1-.226-.331l.572-3.024a.283.283,0,0,1,.556.1l-.571,3.024A.283.283,0,0,1,339.229,320.645Z" transform="translate(-338.945 -317.054)" fill="#263238"/>
          </g>
          <g id="Grupo_971583" data-name="Grupo 971583" transform="translate(21.899 2.942)">
            <path id="Trazado_638146" data-name="Trazado 638146" d="M340.459,276.375a.284.284,0,0,1-.279-.336l1.731-9.158-2.363-16.966a.286.286,0,0,1,.045-.2l3-4.484-.261-18.163a.283.283,0,0,1,.279-.287.27.27,0,0,1,.287.279l.262,18.252a.293.293,0,0,1-.048.161l-2.988,4.467,2.355,16.906a.293.293,0,0,1,0,.092l-1.74,9.2A.282.282,0,0,1,340.459,276.375Z" transform="translate(-339.545 -226.781)" fill="#263238"/>
          </g>
          <g id="Grupo_971584" data-name="Grupo 971584" transform="translate(23.569 1.93)">
            <path id="Trazado_638147" data-name="Trazado 638147" d="M342.777,248.514a.284.284,0,0,1-.195-.489c.132-.124,13.226-12.506,17.14-16.336a49.681,49.681,0,0,0,5.79-6.57.283.283,0,0,1,.468.32,50.156,50.156,0,0,1-5.862,6.655c-3.918,3.834-17.015,16.219-17.146,16.344A.282.282,0,0,1,342.777,248.514Z" transform="translate(-342.494 -224.996)" fill="#263238"/>
          </g>
          <g id="Grupo_971585" data-name="Grupo 971585" transform="translate(14.817 11.077)">
            <path id="Trazado_638148" data-name="Trazado 638148" d="M327.327,273.011a.283.283,0,0,1-.269-.374l3.211-9.491c-.078-.728-.834-7.668-1.569-9.792-.813-2.351,2.306-11.626,2.439-12.02a.283.283,0,0,1,.537.182c-.891,2.63-3.064,9.852-2.44,11.653.793,2.292,1.571,9.666,1.6,9.98a.278.278,0,0,1-.013.12l-3.231,9.55A.283.283,0,0,1,327.327,273.011Z" transform="translate(-327.043 -241.142)" fill="#263238"/>
          </g>
        </g>
        <g id="Grupo_971595" data-name="Grupo 971595" transform="translate(34.608)">
          <g id="Grupo_971592" data-name="Grupo 971592" transform="translate(0 9.436)">
            <g id="Grupo_971587" data-name="Grupo 971587">
              <path id="Trazado_638149" data-name="Trazado 638149" d="M351.033,187.5s-2.5,1.574-2.88,2.757-.556,2.357-1.387,2.917-2.646.3-2.514,1.043a9.233,9.233,0,0,0,1.249,2.295s-.57,5.014-.534,6.076,1.654,1.749,2.4,1.723a13.769,13.769,0,0,0,1.9-.278l.341,3.707-3.8,19.259L360.2,206.838l-.93-2.306.318-3.092a13.318,13.318,0,0,0,.172-7.338,11.268,11.268,0,0,0-5.128-6.942A2.821,2.821,0,0,0,351.033,187.5Z" transform="translate(-343.962 -186.372)" fill="#fff"/>
              <path id="Trazado_638150" data-name="Trazado 638150" d="M345.594,227.063a.279.279,0,0,1-.112-.023.282.282,0,0,1-.165-.314l3.789-19.219-.308-3.352a11.933,11.933,0,0,1-1.639.22,3.257,3.257,0,0,1-1.62-.494,1.916,1.916,0,0,1-1.071-1.5c-.035-1,.438-5.256.523-6.01a8.42,8.42,0,0,1-1.233-2.32.609.609,0,0,1,.1-.467c.221-.314.711-.4,1.279-.493a2.314,2.314,0,0,0,2.32-2.423c.068-.235.137-.474.215-.714.393-1.211,2.682-2.706,2.972-2.892a3.114,3.114,0,0,1,3.931-.353,11.605,11.605,0,0,1,5.249,7.1,13.487,13.487,0,0,1-.165,7.478l-.308,2.99.9,2.24a.286.286,0,0,1-.032.271l-14.392,20.157A.284.284,0,0,1,345.594,227.063Zm3.456-23.532a.282.282,0,0,1,.282.257l.341,3.707a.279.279,0,0,1,0,.081l-3.543,17.972,13.54-18.962-.872-2.162a.281.281,0,0,1-.019-.135l.318-3.092a.324.324,0,0,1,.014-.066,13.124,13.124,0,0,0,.167-7.165,10.941,10.941,0,0,0-5.008-6.781,2.526,2.526,0,0,0-3.243.292.3.3,0,0,1-.056.046c-.67.423-2.473,1.715-2.762,2.6-.076.234-.143.468-.21.7a3.947,3.947,0,0,1-1.288,2.368,3.884,3.884,0,0,1-1.481.455,2.221,2.221,0,0,0-.91.261,8.1,8.1,0,0,0,1.2,2.221.285.285,0,0,1,.052.2c-.006.05-.568,5.005-.532,6.034.017.5.506.862.8,1.036a2.775,2.775,0,0,0,1.307.414,13.591,13.591,0,0,0,1.853-.272A.309.309,0,0,1,349.05,203.531Zm1.766-16.249h0Z" transform="translate(-343.745 -186.157)" fill="#263238"/>
            </g>
            <g id="Grupo_971588" data-name="Grupo 971588" transform="translate(5.022 16.457)">
              <path id="Trazado_638151" data-name="Trazado 638151" d="M353.11,216.624l2.3-.917L353.45,219.5Z" transform="translate(-352.827 -215.424)" fill="#263238"/>
              <path id="Trazado_638152" data-name="Trazado 638152" d="M353.234,219.567a.3.3,0,0,1-.05,0,.283.283,0,0,1-.231-.246l-.34-2.875a.283.283,0,0,1,.176-.3l2.3-.917a.283.283,0,0,1,.357.393l-1.957,3.792A.283.283,0,0,1,353.234,219.567Zm-.033-2.976.206,1.741,1.184-2.3Z" transform="translate(-352.61 -215.208)" fill="#263238"/>
            </g>
            <g id="Grupo_971589" data-name="Grupo 971589" transform="translate(3.808 5.927)">
              <path id="Trazado_638153" data-name="Trazado 638153" d="M351.253,197.546c-.132.45-.4.768-.6.71s-.249-.47-.117-.92.4-.768.6-.71S351.385,197.1,351.253,197.546Z" transform="translate(-350.467 -196.619)" fill="#263238"/>
            </g>
            <g id="Grupo_971590" data-name="Grupo 971590" transform="translate(4.04 4.073)">
              <path id="Trazado_638154" data-name="Trazado 638154" d="M352.349,194.774a.284.284,0,0,1-.282-.254c-.035-.327-.122-.55-.234-.594s-.367.08-.491.184a.283.283,0,0,1-.368-.431,1.168,1.168,0,0,1,1.067-.28c.33.131.527.488.589,1.062a.284.284,0,0,1-.252.312Z" transform="translate(-350.876 -193.348)" fill="#263238"/>
            </g>
            <g id="Grupo_971591" data-name="Grupo 971591" transform="translate(1.438 11.39)">
              <path id="Trazado_638155" data-name="Trazado 638155" d="M346.632,207.519c-.052,0-.084,0-.091,0a.284.284,0,0,1-.257-.308.288.288,0,0,1,.306-.257,1.5,1.5,0,0,0,1.219-.582.283.283,0,1,1,.442.353A2.089,2.089,0,0,1,346.632,207.519Z" transform="translate(-346.284 -206.263)" fill="#263238"/>
            </g>
          </g>
          <g id="Grupo_971593" data-name="Grupo 971593" transform="translate(1.566 37.223)">
            <path id="Trazado_638156" data-name="Trazado 638156" d="M346.792,248.328a.278.278,0,0,1-.112-.023.282.282,0,0,1-.165-.314l2.475-12.553a.278.278,0,0,1,.305-.227l6.066.591a.283.283,0,0,1,.2.446l-8.541,11.962A.284.284,0,0,1,346.792,248.328Zm2.7-12.529-2.172,11.014,7.495-10.5Z" transform="translate(-346.509 -235.209)" fill="#263238"/>
          </g>
          <g id="Grupo_971594" data-name="Grupo 971594" transform="translate(3.553)">
            <path id="Trazado_638157" data-name="Trazado 638157" d="M363.335,174.038s-1.96-4.028-6.056-4.038-6.854,3.575-6.76,6.3,3.486,4.279,4.107,4.713-1.755,1.881-.616,4.117a9.223,9.223,0,0,0,3,3.385s1.9-2.189,3.469-.575.115,3.333-1.076,3.981a5.238,5.238,0,0,1-2.1.68,17.926,17.926,0,0,1,2.811,2.329c1.259,1.322,3.8.172,4.676-.768s1.3-1.865,2.956-2.226a7.768,7.768,0,0,0,5.37-7.012c.156-4.253-1.307-7.084-4.411-9.1A9.134,9.134,0,0,0,363.335,174.038Z" transform="translate(-350.233 -169.717)" fill="#263238"/>
            <path id="Trazado_638158" data-name="Trazado 638158" d="M361.427,195.6a2.324,2.324,0,0,1-1.735-.685,17.792,17.792,0,0,0-2.76-2.287.283.283,0,0,1,.144-.521,5.046,5.046,0,0,0,1.975-.645,3.077,3.077,0,0,0,1.6-1.983,1.793,1.793,0,0,0-.589-1.552,1.5,1.5,0,0,0-1.136-.508,3.242,3.242,0,0,0-1.916,1.071.282.282,0,0,1-.363.056,9.445,9.445,0,0,1-3.1-3.5,3.327,3.327,0,0,1,.41-3.5,2.077,2.077,0,0,0,.282-.551,3.014,3.014,0,0,1-.369-.2c-1.124-.658-3.757-2.2-3.844-4.7a6.293,6.293,0,0,1,1.9-4.4,7.09,7.09,0,0,1,5.125-2.2h.017c3.788.009,5.789,3.239,6.222,4.03a9.867,9.867,0,0,1,5.359,1.84c3.254,2.114,4.7,5.085,4.539,9.349A8.035,8.035,0,0,1,367.59,192a3.677,3.677,0,0,0-2.3,1.558c-.16.191-.325.387-.509.585a5.184,5.184,0,0,1-3.336,1.456Zm-3.61-3.047a17.392,17.392,0,0,1,2.285,1.971,1.768,1.768,0,0,0,1.339.509,4.616,4.616,0,0,0,2.925-1.276c.176-.189.334-.378.488-.561a4.237,4.237,0,0,1,2.615-1.748,7.458,7.458,0,0,0,5.147-6.745c.15-4.045-1.212-6.858-4.281-8.853a9,9,0,0,0-5.19-1.742.289.289,0,0,1-.282-.157c-.019-.039-1.936-3.87-5.8-3.879h-.016a6.525,6.525,0,0,0-4.718,2.023,5.8,5.8,0,0,0-1.743,3.985c.075,2.192,2.52,3.621,3.563,4.232.186.109.332.195.423.258.451.314.138.826-.139,1.277a2.77,2.77,0,0,0-.388,2.944,9.156,9.156,0,0,0,2.708,3.145,3.516,3.516,0,0,1,2.151-1.082,2.065,2.065,0,0,1,1.56.678,2.361,2.361,0,0,1,.743,2.031,3.625,3.625,0,0,1-1.886,2.4A6.4,6.4,0,0,1,357.817,192.549Z" transform="translate(-350.017 -169.5)" fill="#263238"/>
          </g>
        </g>
        <g id="Grupo_971598" data-name="Grupo 971598" transform="translate(49.292 76.061)">
          <g id="Grupo_971596" data-name="Grupo 971596">
            <path id="Trazado_638159" data-name="Trazado 638159" d="M376.953,304.267l-1.961,2.574s-3.357,1.71-3.336,2.317-1.425,2.707-1.493,2.937a17.934,17.934,0,0,0,.646,3.318c.163.3-.02,1.6,1.127,1.859s1.877-.6,2.181-.607a6.832,6.832,0,0,0,2.952-.254c.97-.489,1.909-6.291,2.039-6.9a19.78,19.78,0,0,1,1.869-3.026Z" transform="translate(-369.879 -303.985)" fill="#fff"/>
            <path id="Trazado_638160" data-name="Trazado 638160" d="M372.158,317.39a2.222,2.222,0,0,1-.5-.058,1.751,1.751,0,0,1-1.262-1.722,1.761,1.761,0,0,0-.052-.28,15.864,15.864,0,0,1-.668-3.533,4.328,4.328,0,0,1,.389-.692,9.075,9.075,0,0,0,1.093-2.154c-.022-.643,1.841-1.736,3.433-2.55l1.923-2.521a.287.287,0,0,1,.362-.077l4.024,2.214a.284.284,0,0,1,.093.414,17.975,17.975,0,0,0-1.822,2.919c-.016.076-.045.232-.084.449-.792,4.315-1.421,6.3-2.1,6.648a5.913,5.913,0,0,1-2.788.3,2.284,2.284,0,0,0-.282-.015,2.532,2.532,0,0,0-.247.142A2.828,2.828,0,0,1,372.158,317.39Zm4.659-12.972L375,306.8a.28.28,0,0,1-.1.081,11.49,11.49,0,0,0-3.184,2.08,7,7,0,0,1-1.173,2.443c-.144.236-.307.5-.332.567a22.218,22.218,0,0,0,.627,3.1,1.436,1.436,0,0,1,.113.468c.084.6.2,1.1.828,1.248a2.023,2.023,0,0,0,1.583-.387,1.153,1.153,0,0,1,.524-.227c.063,0,.183.006.34.016a5.5,5.5,0,0,0,2.5-.24c.269-.136.862-1.128,1.8-6.245.041-.224.071-.386.088-.465a15.212,15.212,0,0,1,1.731-2.871Zm-2.039,2.208h0Z" transform="translate(-369.666 -303.769)" fill="#263238"/>
          </g>
          <g id="Grupo_971597" data-name="Grupo 971597" transform="translate(0.391 8.116)">
            <path id="Trazado_638161" data-name="Trazado 638161" d="M370.9,321.691a.273.273,0,0,1-.076-.01.283.283,0,0,1-.2-.348,4.673,4.673,0,0,0,.156-2.041,2.316,2.316,0,0,0-.307-.683.283.283,0,0,1,.284-.486c.066.029.266.121.559.987a5.143,5.143,0,0,1-.147,2.374A.282.282,0,0,1,370.9,321.691Z" transform="translate(-370.355 -318.097)" fill="#263238"/>
          </g>
        </g>
        <g id="Grupo_971599" data-name="Grupo 971599" transform="translate(55.02 31.915)">
          <path id="Trazado_638162" data-name="Trazado 638162" d="M381.814,237.624s-1.731,4.054-1.535,4.581,6.364,11.456,6.364,11.456l-5.818,17.117,5.1,3.207s9.933-21.712,10.27-22.257-7.318-21.48-7.318-21.48-.474-3-1.725-3.136a26.117,26.117,0,0,1-3.41-.773" transform="translate(-379.988 -226.056)" fill="#449c6e"/>
          <path id="Trazado_638163" data-name="Trazado 638163" d="M385.71,274.052a.283.283,0,0,1-.151-.044l-5.1-3.207a.284.284,0,0,1-.117-.331l5.778-17c-.868-1.538-6.127-10.867-6.32-11.386-.2-.551.878-3.238,1.541-4.791a.283.283,0,1,1,.521.223,21.317,21.317,0,0,0-1.527,4.383c.145.379,3.872,7.029,6.341,11.4a.283.283,0,0,1,.022.231l-5.746,16.906,4.634,2.916c1.211-2.647,9.465-20.679,10.12-21.937-.05-1.091-4.381-13.281-7.311-21.291-.184-1.131-.736-2.871-1.489-2.952a26.04,26.04,0,0,1-3.46-.782.283.283,0,0,1,.16-.543,26,26,0,0,0,3.36.762c1.425.154,1.922,3.044,1.974,3.373,5.1,13.924,7.551,21.234,7.279,21.673-.282.47-6.831,14.744-10.253,22.227a.286.286,0,0,1-.177.154A.3.3,0,0,1,385.71,274.052Z" transform="translate(-379.777 -225.839)" fill="#263238"/>
        </g>
      </g>
    </g>
    <g id="Character_1" data-name="Character 1" transform="translate(55.343 21.347)">
      <g id="Grupo_971637" data-name="Grupo 971637" transform="translate(0 0)">
        <g id="Grupo_971603" data-name="Grupo 971603" transform="translate(71.888 245.901)">
          <g id="Grupo_971601" data-name="Grupo 971601">
            <path id="Trazado_638164" data-name="Trazado 638164" d="M211.993,462.083a57.464,57.464,0,0,0,6.854,3.372,40.49,40.49,0,0,0,5.549,1.088c.761,0,1.305.326,1.305,1.088a3.049,3.049,0,0,1-.979,1.958,69.654,69.654,0,0,1-10.336,1.85c-2.067,0-8.812,2.393-10.552,2.176s-2.393-.762-2.611-1.632a27.335,27.335,0,0,1,.326-4.787Z" transform="translate(-200.889 -461.8)" fill="#fff"/>
            <path id="Trazado_638165" data-name="Trazado 638165" d="M203.869,473.695a2.433,2.433,0,0,1-.287-.016c-1.729-.216-2.581-.768-2.851-1.844a25.583,25.583,0,0,1,.321-4.894.284.284,0,0,1,.156-.216l10.444-5.113a.283.283,0,0,1,.263.007,57.576,57.576,0,0,0,6.788,3.346,40.165,40.165,0,0,0,5.475,1.079c1,0,1.589.512,1.589,1.371a3.288,3.288,0,0,1-1.105,2.194,65.116,65.116,0,0,1-10.492,1.9,28.6,28.6,0,0,0-4.978,1.067A28.468,28.468,0,0,1,203.869,473.695Zm-2.276-6.528a24.306,24.306,0,0,0-.312,4.53c.151.6.542,1.191,2.371,1.419a23.617,23.617,0,0,0,5.395-1.091,27.878,27.878,0,0,1,5.123-1.086,70.936,70.936,0,0,0,10.194-1.812,2.8,2.8,0,0,0,.836-1.713c0-.534-.344-.8-1.022-.8a40.38,40.38,0,0,1-5.621-1.1,53.291,53.291,0,0,1-6.79-3.327Z" transform="translate(-200.674 -461.583)" fill="#263238"/>
          </g>
          <g id="Grupo_971602" data-name="Grupo 971602" transform="translate(0.017 4.669)">
            <path id="Trazado_638166" data-name="Trazado 638166" d="M224.736,473.163a3.049,3.049,0,0,0,.979-1.958.963.963,0,0,0-.449-.879c-.563.864-1.372,1.939-2.053,2.076-1.088.218-12.076,2.176-14.9,2.393-2.016.155-5.35.42-7.1.56a1.42,1.42,0,0,0,.032.2c.218.87.87,1.414,2.611,1.632s8.486-2.176,10.552-2.176A69.654,69.654,0,0,0,224.736,473.163Z" transform="translate(-200.921 -470.043)" fill="#fff"/>
            <path id="Trazado_638167" data-name="Trazado 638167" d="M203.883,477.268a2.433,2.433,0,0,1-.287-.016c-1.729-.216-2.581-.768-2.851-1.844a1.753,1.753,0,0,1-.04-.241.283.283,0,0,1,.259-.311c1.754-.14,5.088-.405,7.1-.56,2.785-.215,13.659-2.146,14.87-2.389.258-.052.844-.373,1.872-1.952a.283.283,0,0,1,.387-.087,1.246,1.246,0,0,1,.582,1.119,3.288,3.288,0,0,1-1.105,2.194,65.123,65.123,0,0,1-10.492,1.9,28.6,28.6,0,0,0-4.978,1.067A28.469,28.469,0,0,1,203.883,477.268Zm-2.553-1.874c.177.559.634,1.083,2.336,1.3a23.617,23.617,0,0,0,5.395-1.091,27.874,27.874,0,0,1,5.123-1.087,71.181,71.181,0,0,0,10.187-1.809,2.8,2.8,0,0,0,.843-1.716.8.8,0,0,0-.114-.444c-.8,1.174-1.472,1.8-2.05,1.918-1.215.244-12.132,2.183-14.938,2.4C206.214,475.006,203.146,475.25,201.33,475.394Z" transform="translate(-200.704 -469.826)" fill="#263238"/>
          </g>
        </g>
        <g id="Grupo_971606" data-name="Grupo 971606" transform="translate(20.59 248.946)">
          <g id="Grupo_971604" data-name="Grupo 971604">
            <path id="Trazado_638168" data-name="Trazado 638168" d="M121.057,468.106a7.788,7.788,0,0,0,.33,2.618c.435,1.523,2.285,4.025,2.176,5.331s-.653,1.74-4.134,1.523-7.18-.218-8.485-2.828,1.74-7.289,1.74-7.289Z" transform="translate(-110.335 -467.176)" fill="#fff"/>
            <path id="Trazado_638169" data-name="Trazado 638169" d="M120.689,477.7c-.435,0-.93-.019-1.494-.054l-.807-.048c-3.262-.187-6.636-.381-7.914-2.937-1.362-2.725,1.629-7.374,1.757-7.57a.269.269,0,0,1,.259-.128l8.373.646a.282.282,0,0,1,.26.308,7.634,7.634,0,0,0,.321,2.514,12.985,12.985,0,0,0,.975,2.127,7.613,7.613,0,0,1,1.211,3.306C123.516,477.216,122.864,477.7,120.689,477.7Zm-8.072-10.159c-.482.788-2.733,4.675-1.637,6.867,1.131,2.263,4.2,2.438,7.44,2.625l.811.048c3.552.221,3.75-.254,3.834-1.263a7.647,7.647,0,0,0-1.148-3,13.3,13.3,0,0,1-1.018-2.234,8.7,8.7,0,0,1-.352-2.435Z" transform="translate(-110.119 -466.958)" fill="#263238"/>
          </g>
          <g id="Grupo_971605" data-name="Grupo 971605" transform="translate(0.071 6.469)">
            <path id="Trazado_638170" data-name="Trazado 638170" d="M123.618,481a2.289,2.289,0,0,0-.111-.8,3.493,3.493,0,0,1-2.065,1.234c-1.85.326-5.657.326-8.05-.871a16.68,16.68,0,0,1-2.648-1.691,3.008,3.008,0,0,0,.254.821c1.305,2.611,5,2.611,8.485,2.828S123.509,482.31,123.618,481Z" transform="translate(-110.461 -478.595)" fill="#fff"/>
            <path id="Trazado_638171" data-name="Trazado 638171" d="M120.744,482.648c-.434,0-.93-.019-1.494-.054l-.807-.048c-3.262-.187-6.636-.381-7.914-2.937a3.229,3.229,0,0,1-.279-.9.283.283,0,0,1,.451-.275,16.24,16.24,0,0,0,2.6,1.663c2.278,1.139,5.976,1.179,7.875.845a3.164,3.164,0,0,0,1.9-1.138.283.283,0,0,1,.488.1,2.532,2.532,0,0,1,.121.9C123.571,482.167,122.918,482.648,120.744,482.648ZM111.06,479.4c1.151,2.217,4.194,2.391,7.415,2.576l.811.048c3.552.221,3.75-.254,3.834-1.263h0a1.3,1.3,0,0,0,0-.187,3.671,3.671,0,0,1-1.844.925c-1.975.35-5.833.3-8.226-.9A15.715,15.715,0,0,1,111.06,479.4Z" transform="translate(-110.244 -478.378)" fill="#263238"/>
          </g>
        </g>
        <g id="Grupo_971607" data-name="Grupo 971607" transform="translate(22.324 154.947)">
          <path id="Trazado_638172" data-name="Trazado 638172" d="M117.013,309.673l4.445,47.786-6.483,30.746-1.3,3.149v4.26s.37-.185,2.408.741,5.557,0,5.557,0l.741-.185,1.852-5.371.37-3.889s11.3-31.487,11.854-33.9,1.781-22.885,1.781-22.885l-.246-5.177,16.987,30.656,7.224,34.821-1.111,2.037,2.408,5.927,10.928-5.742-.741-3.7-1.667-3.148s-3.7-38.34-4.26-39.081-16.3-37.044-16.3-37.044l-2.038-8.149Z" transform="translate(-113.396 -301.241)" fill="#263238"/>
          <path id="Trazado_638173" data-name="Trazado 638173" d="M163.285,398.459a.277.277,0,0,1-.1-.017.284.284,0,0,1-.165-.159l-2.408-5.927a.282.282,0,0,1,.014-.242l1.062-1.946L154.5,355.49l-16.378-29.556.189,3.965c-.05.867-1.233,20.559-1.788,22.962-.549,2.378-11.241,32.191-11.851,33.893l-.367,3.855a.258.258,0,0,1-.014.065l-1.852,5.371a.285.285,0,0,1-.2.182l-.741.185c-.144.038-3.637.939-5.742-.017-1.756-.8-2.192-.729-2.209-.728a.244.244,0,0,1-.253-.02.28.28,0,0,1-.112-.25v-4.26a.284.284,0,0,1,.021-.108l1.3-3.148,6.458-30.655-4.441-47.743a.283.283,0,0,1,.213-.3l32.413-8.149a.284.284,0,0,1,.344.206l2.037,8.149c5.392,12.423,15.75,36.2,16.254,36.946.556.741,3.43,30.085,4.308,39.164l1.641,3.1a.287.287,0,0,1,.027.078l.741,3.7a.282.282,0,0,1-.146.306l-10.927,5.742A.284.284,0,0,1,163.285,398.459Zm-2.095-6.192,2.24,5.513,10.464-5.5-.691-3.456-1.647-3.113a.277.277,0,0,1-.032-.105c-1.462-15.129-3.793-37.992-4.223-38.966-.542-.718-14.7-33.353-16.315-37.072L149,301.651l-31.9,8.021,4.423,47.544a.265.265,0,0,1-.005.084l-6.482,30.746-1.29,3.146v3.916a8.689,8.689,0,0,1,2.242.772c1.924.875,5.333-.007,5.367-.016l.6-.148,1.791-5.194.368-3.857a.261.261,0,0,1,.015-.069c.113-.315,11.3-31.5,11.844-33.862s1.762-22.634,1.774-22.84l-.246-5.147a.283.283,0,0,1,.531-.15l16.987,30.656a.288.288,0,0,1,.029.08l7.224,34.82a.288.288,0,0,1-.029.193Z" transform="translate(-113.179 -301.024)" fill="#263238"/>
        </g>
        <g id="Grupo_971608" data-name="Grupo 971608" transform="translate(45.204 107.113)">
          <path id="Trazado_638174" data-name="Trazado 638174" d="M166.74,219.217l4.513,12.548-17.183-10.2,6.042,19.827s21.716,1.133,22.282-.378c.408-1.089-6.322-15.8-10.113-23.935Z" transform="translate(-153.785 -216.8)" fill="#fff"/>
          <path id="Trazado_638175" data-name="Trazado 638175" d="M173.686,241.887c-4.8,0-10.448-.25-13.806-.426a.283.283,0,0,1-.256-.2l-6.043-19.827a.284.284,0,0,1,.416-.326L170.5,230.9,166.256,219.1a.284.284,0,0,1,.165-.36l5.541-2.134a.284.284,0,0,1,.358.144c10.629,22.8,10.247,23.819,10.122,24.154C182.158,241.655,178.31,241.887,173.686,241.887Zm-13.579-.981c10.257.529,21.173.591,21.811-.22.06-.3-.454-2.968-10-23.46l-5.035,1.94,4.419,12.287a.284.284,0,0,1-.412.339l-16.554-9.824Z" transform="translate(-153.568 -216.583)" fill="#263238"/>
        </g>
        <g id="Grupo_971609" data-name="Grupo 971609" transform="translate(59.198 110.296)">
          <line id="Línea_860" data-name="Línea 860" y1="1.91" x2="5.635" transform="translate(0.283 0.283)" fill="#fff"/>
          <path id="Trazado_638176" data-name="Trazado 638176" d="M178.555,224.679a.283.283,0,0,1-.091-.551l5.635-1.91a.283.283,0,1,1,.182.536l-5.635,1.91A.282.282,0,0,1,178.555,224.679Z" transform="translate(-178.272 -222.202)" fill="#263238"/>
        </g>
        <g id="Grupo_971610" data-name="Grupo 971610" transform="translate(3.473 111.597)">
          <path id="Trazado_638177" data-name="Trazado 638177" d="M94.186,229.532,80.4,242.372l18.316,26.247s.944,6.42,2.266,7.742a3.2,3.2,0,0,0,2.832,1.133c.566,0,28.891-6.421,30.968-7.176s2.644-2.266,2.266-3.777-4.532-7.175-4.532-7.175L122.133,225H109.481l-11.14,2.644Z" transform="translate(-80.119 -224.717)" fill="#fff"/>
          <path id="Trazado_638178" data-name="Trazado 638178" d="M103.168,277.57a3.468,3.468,0,0,1-2.6-1.225c-1.314-1.314-2.226-7.108-2.336-7.835L79.953,242.318a.283.283,0,0,1,.039-.369l13.785-12.84a.27.27,0,0,1,.075-.05l4.154-1.889,11.193-2.661a.254.254,0,0,1,.065-.008h12.651a.284.284,0,0,1,.271.2l10.372,34.32c.4.548,4.176,5.739,4.549,7.235.462,1.85-.451,3.387-2.444,4.112-1.664.605-30.116,7.193-31.065,7.193-.056,0-.116,0-.18,0S103.259,277.57,103.168,277.57ZM80.558,242.2l18.176,26.045a.283.283,0,0,1,.048.121c.259,1.76,1.156,6.553,2.186,7.583A2.864,2.864,0,0,0,103.4,277c.07,0,.136,0,.2,0,.864-.071,28.873-6.432,30.871-7.159,1.718-.624,2.478-1.879,2.088-3.442-.288-1.152-3.06-5.132-4.485-7.076a.277.277,0,0,1-.043-.086l-10.325-34.166H109.3L98.189,227.7l-4.06,1.851Z" transform="translate(-79.902 -224.5)" fill="#263238"/>
        </g>
        <g id="Grupo_971611" data-name="Grupo 971611" transform="translate(26.557 115.421)">
          <path id="Trazado_638179" data-name="Trazado 638179" d="M121.152,237.556l4.957,3.682,3.257,32.148,6.373,4.39,2.549-7.081-10.622-29.882-.708-7.789-3.541-1.275Z" transform="translate(-120.869 -231.466)" fill="#449c6e"/>
          <path id="Trazado_638180" data-name="Trazado 638180" d="M135.522,277.843a.286.286,0,0,1-.161-.05l-6.373-4.39a.287.287,0,0,1-.121-.2l-3.244-32.024-4.856-3.608a.283.283,0,0,1-.1-.33l2.266-5.806a.281.281,0,0,1,.36-.163l3.541,1.275a.283.283,0,0,1,.186.241l.7,7.753,10.61,29.849a.278.278,0,0,1,0,.19l-2.549,7.081a.281.281,0,0,1-.18.174A.285.285,0,0,1,135.522,277.843Zm-6.1-4.832,5.962,4.107,2.391-6.64-10.588-29.787a.283.283,0,0,1-.015-.069l-.692-7.61-3.112-1.12-2.087,5.348,4.783,3.554a.282.282,0,0,1,.113.2Z" transform="translate(-120.652 -231.249)" fill="#263238"/>
        </g>
        <g id="Grupo_971612" data-name="Grupo 971612" transform="translate(16.497 108.505)">
          <path id="Trazado_638181" data-name="Trazado 638181" d="M105.889,220.34a5.973,5.973,0,0,0-1.9,3.3c-.4,2.1-.6,4.094-.6,4.094l6.59,9.387s3.794-4.992,4.094-5.292a2.779,2.779,0,0,1,1.076-.465,19.369,19.369,0,0,0,2.6-1.908c.416-.523,1.215-1.422,3.811-.823s4.494,1.2,4.494,1.2-3.1-6.291-4.794-8.088a8.482,8.482,0,0,0-5.791-2.2c-1.3,0-6.99,1.2-6.99,1.2Z" transform="translate(-103.109 -219.258)" fill="#fff"/>
          <path id="Trazado_638182" data-name="Trazado 638182" d="M109.766,237.182h-.005a.281.281,0,0,1-.227-.12l-6.59-9.386a.286.286,0,0,1-.05-.191c0-.02.206-2.034.6-4.119a6.211,6.211,0,0,1,2-3.463.278.278,0,0,1,.22-.059l2.546.391c.6-.126,5.736-1.194,7-1.194.393,0,3.9.064,6,2.286,1.707,1.808,4.714,7.9,4.841,8.158a.283.283,0,0,1-.339.395c-.019-.006-1.918-.6-4.472-1.192-2.493-.575-3.191.3-3.526.723a18.279,18.279,0,0,1-2.672,1.971.292.292,0,0,1-.092.038,2.406,2.406,0,0,0-.935.388c-.21.21-2.548,3.262-4.069,5.264A.282.282,0,0,1,109.766,237.182Zm-6.3-9.746,6.307,8.983c.88-1.156,3.615-4.742,3.885-5.013a2.812,2.812,0,0,1,1.166-.53,17.643,17.643,0,0,0,2.491-1.819c.376-.472,1.255-1.578,4.1-.922,1.7.392,3.111.787,3.882,1.013-.81-1.6-3.1-6.006-4.451-7.433-1.935-2.048-5.218-2.108-5.586-2.108-1.254,0-6.875,1.181-6.932,1.192a.266.266,0,0,1-.1,0l-2.466-.379a5.776,5.776,0,0,0-1.706,3.048C103.712,225.262,103.515,227,103.468,227.436Z" transform="translate(-102.893 -219.041)" fill="#263238"/>
        </g>
        <g id="Grupo_971617" data-name="Grupo 971617" transform="translate(9.698 87.714)">
          <g id="Grupo_971613" data-name="Grupo 971613">
            <path id="Trazado_638183" data-name="Trazado 638183" d="M106.306,182.839s5.2,6.07,6.244,6.07,3.642-.347,3.642.867a4.6,4.6,0,0,1-.347,1.908s2.255,6.418,2.775,8.326-4.163,2.949-4.163,2.949l-2.255.694s1.041,8.326.347,9.887a3.8,3.8,0,0,1-2.6,1.908l-9.019-9.887-.174-2.255s-9.54-8.5-9.366-9.714S106.306,182.839,106.306,182.839Z" transform="translate(-91.106 -182.556)" fill="#fff"/>
            <path id="Trazado_638184" data-name="Trazado 638184" d="M109.733,215.514a.282.282,0,0,1-.209-.092l-9.02-9.887a.287.287,0,0,1-.073-.169l-.165-2.141c-2.358-2.1-9.551-8.638-9.373-9.889s11.56-8.7,15.044-10.951a.283.283,0,0,1,.369.054c2.452,2.86,5.455,5.957,6.03,5.971.164,0,.369-.009.6-.019,1.026-.045,2.433-.106,3.034.469a.946.946,0,0,1,.3.7,5.233,5.233,0,0,1-.326,1.919c.3.867,2.257,6.455,2.745,8.24a1.4,1.4,0,0,1-.171,1.122c-.857,1.419-4.068,2.147-4.2,2.178l-2.006.618c.188,1.546.957,8.312.3,9.8a4.055,4.055,0,0,1-2.81,2.072A.309.309,0,0,1,109.733,215.514Zm-8.744-10.289,8.842,9.692a3.427,3.427,0,0,0,2.246-1.709c.543-1.222-.082-7.443-.369-9.737a.283.283,0,0,1,.2-.306l2.255-.694c.885-.2,3.257-.917,3.864-1.923a.837.837,0,0,0,.109-.68c-.512-1.876-2.747-8.242-2.769-8.306a.284.284,0,0,1,.013-.219,4.412,4.412,0,0,0,.318-1.783.379.379,0,0,0-.121-.291c-.425-.407-1.8-.347-2.617-.312-.237.01-.45.019-.621.019-1.043,0-4.894-4.353-6.3-5.982-5.571,3.611-14.287,9.524-14.585,10.433,0,.736,4.717,5.388,9.277,9.45a.286.286,0,0,1,.094.19Z" transform="translate(-90.89 -182.339)" fill="#263238"/>
          </g>
          <g id="Grupo_971614" data-name="Grupo 971614" transform="translate(17.534 6.543)">
            <path id="Trazado_638185" data-name="Trazado 638185" d="M122.85,194.474c.327.438.444.9.261,1.039s-.6-.109-.922-.547-.444-.9-.261-1.04S122.523,194.036,122.85,194.474Z" transform="translate(-121.842 -193.89)" fill="#263238"/>
          </g>
          <g id="Grupo_971615" data-name="Grupo 971615" transform="translate(15.104 4.608)">
            <path id="Trazado_638186" data-name="Trazado 638186" d="M118.552,192.495a3.108,3.108,0,0,1,2.8-1" transform="translate(-117.986 -190.908)" fill="#263238"/>
            <path id="Trazado_638187" data-name="Trazado 638187" d="M118.119,192.625a.566.566,0,0,1-.453-.9,3.669,3.669,0,0,1,3.308-1.222.566.566,0,0,1-.118,1.127,2.556,2.556,0,0,0-2.287.779A.57.57,0,0,1,118.119,192.625Z" transform="translate(-117.553 -190.474)" fill="#263238"/>
          </g>
          <g id="Grupo_971616" data-name="Grupo 971616" transform="translate(24.074 13.002)">
            <path id="Trazado_638188" data-name="Trazado 638188" d="M133.671,206.557a.283.283,0,0,1-.12-.54l1.5-.7a.283.283,0,0,1,.24.514l-1.5.7A.288.288,0,0,1,133.671,206.557Z" transform="translate(-133.388 -205.291)" fill="#263238"/>
          </g>
        </g>
        <g id="Grupo_971618" data-name="Grupo 971618" transform="translate(7.976 83.165)">
          <path id="Trazado_638189" data-name="Trazado 638189" d="M114.528,188.2s-4.278,3.058-4.477,4.157a17.806,17.806,0,0,0,.4,4.094s-3.695-.5-4.693-.5-5.792-5.192-5.293-5.791,2.4-2.5,2.1-3.5-3-1.4-1.1-3.1,10.285-4.693,10.684-6.491-5.592-2.1-6.69-1a9.825,9.825,0,0,1-1.8,1.5s.6-3.994-3.1-2.4a19.933,19.933,0,0,0-9.886,9.586c-2.1,4.593-3.5,4.893-1,7.29s7.989,7.689,9.087,7.888,1.7,1,1.7.2-2.2-3.695-1.7-4.893.9-1.8,1.9-.5,2.6,4.194,4.394,5.093,6.391.2,6.391.2,5.992-1.4,6.79-2.8-.5-3.595-1-3.895-.9-.2-1.1.7-1.7,1.8-2.1.8-1.2-2.8-.6-3.1,2-.7,2-1.9S115.21,188.041,114.528,188.2Z" transform="translate(-88.066 -174.524)" fill="#263238"/>
          <path id="Trazado_638190" data-name="Trazado 638190" d="M100.072,200.564a1.508,1.508,0,0,1-.591-.2,3.807,3.807,0,0,0-.98-.354c-.96-.174-4.315-3.243-9.058-7.8l-.174-.167c-2.04-1.958-1.6-2.768-.424-4.93.379-.7.851-1.564,1.361-2.681a20.317,20.317,0,0,1,10.031-9.729c1.19-.514,2.107-.533,2.727-.056a2.7,2.7,0,0,1,.8,2.146,12.893,12.893,0,0,0,1.278-1.132c.929-.929,4.749-.974,6.386-.075.836.458.848,1.033.781,1.335-.247,1.112-2.63,2.353-6.238,4.118a26.1,26.1,0,0,0-4.535,2.522c-.395.353-.589.654-.576.894.016.317.418.607.8.887a2.263,2.263,0,0,1,.952,1.023c.278.926-.813,2.253-1.858,3.424-.1.116-.194.217-.262.3a10.514,10.514,0,0,0,2.325,3.084c1.487,1.573,2.485,2.28,2.719,2.28.823,0,3.36.322,4.342.45a15.128,15.128,0,0,1-.327-3.813c.21-1.153,3.861-3.814,4.59-4.336a.284.284,0,0,1,.1-.045.862.862,0,0,1,.772.137c.341.269.493.824.493,1.8,0,1.2-1.158,1.71-1.85,2.013-.114.049-.218.095-.3.138-.143.071-.15.556.624,2.46l.112.278a.361.361,0,0,0,.406.258,1.5,1.5,0,0,0,1.151-1.013,1.306,1.306,0,0,1,.635-1.014.958.958,0,0,1,.886.133c.618.371,1.982,2.732,1.1,4.278-.836,1.463-6.346,2.785-6.972,2.932-.213.033-4.726.706-6.581-.223-1.436-.718-2.687-2.558-3.692-4.036-.292-.429-.568-.834-.8-1.137-.45-.586-.67-.629-.741-.619-.244.032-.543.748-.67,1.054-.259.623.474,2.026,1.008,3.051a5,5,0,0,1,.711,1.733.644.644,0,0,1-.229.566A.421.421,0,0,1,100.072,200.564Zm1.787-25.691a3.653,3.653,0,0,0-1.4.355,19.724,19.724,0,0,0-9.741,9.444c-.518,1.135-1,2.012-1.379,2.717-1.166,2.145-1.409,2.592.319,4.25l.174.167c2.127,2.042,7.778,7.467,8.767,7.648a4.322,4.322,0,0,1,1.124.4c.079.038.169.081.239.11,0-.01,0-.02,0-.032a6.02,6.02,0,0,0-.646-1.471c-.652-1.249-1.391-2.664-1.029-3.531.3-.724.594-1.329,1.119-1.4.391-.052.781.206,1.264.834.243.316.523.728.82,1.164.917,1.349,2.173,3.2,3.477,3.848,1.7.849,6.176.18,6.221.173,1.611-.377,5.982-1.6,6.587-2.657.7-1.219-.474-3.257-.9-3.511-.113-.068-.271-.139-.37-.1-.056.024-.2.132-.305.616a2.065,2.065,0,0,1-1.659,1.455.917.917,0,0,1-.978-.612l-.111-.275c-.5-1.242-1.134-2.788-.352-3.179.094-.047.207-.1.33-.151.638-.279,1.511-.661,1.511-1.493,0-.938-.151-1.254-.278-1.354a.27.27,0,0,0-.238-.041c-1.621,1.164-4.185,3.231-4.315,3.942a17.778,17.778,0,0,0,.4,3.988.284.284,0,0,1-.316.336c-.037-.005-3.687-.5-4.655-.5-1.075,0-4.805-4.036-5.478-5.472-.106-.226-.224-.554-.032-.785.075-.089.181-.208.305-.348.583-.654,1.949-2.184,1.738-2.884-.073-.243-.412-.489-.741-.726-.473-.342-1.008-.729-1.04-1.317a1.789,1.789,0,0,1,.764-1.345,26.071,26.071,0,0,1,4.663-2.609c2.552-1.249,5.728-2.8,5.934-3.732.022-.1.087-.393-.5-.715-1.489-.817-5.021-.714-5.713-.021a10.033,10.033,0,0,1-1.857,1.543.283.283,0,0,1-.42-.288c0-.016.23-1.625-.548-2.222A1.21,1.21,0,0,0,101.86,174.873Z" transform="translate(-87.851 -174.308)" fill="#263238"/>
        </g>
        <g id="Grupo_971619" data-name="Grupo 971619" transform="translate(16.17 100.912)">
          <path id="Trazado_638191" data-name="Trazado 638191" d="M107.834,208.239s-2.1-2.2-3.594-2.1-2.1,1.4-.4,3.5,3.795,2.2,4.394,1.5,0-2,0-2" transform="translate(-102.531 -205.855)" fill="#fff"/>
          <path id="Trazado_638192" data-name="Trazado 638192" d="M106.931,211.59h-.039A4.866,4.866,0,0,1,103.4,209.6c-.957-1.182-1.3-2.255-.964-3.021a1.7,1.7,0,0,1,1.565-.935c1.6-.108,3.729,2.09,3.819,2.184a.283.283,0,0,1-.41.391c-.558-.584-2.257-2.1-3.371-2.01a1.174,1.174,0,0,0-1.084.6c-.242.555.08,1.443.885,2.438a4.312,4.312,0,0,0,3.057,1.782,1.194,1.194,0,0,0,.9-.29c.393-.458.1-1.378-.042-1.694a.283.283,0,0,1,.514-.237c.028.06.668,1.473-.042,2.3A1.693,1.693,0,0,1,106.931,211.59Z" transform="translate(-102.315 -205.638)" fill="#263238"/>
        </g>
        <g id="Grupo_971623" data-name="Grupo 971623">
          <g id="Grupo_971620" data-name="Grupo 971620" transform="translate(0 104.234)">
            <line id="Línea_861" data-name="Línea 861" x1="47.557" y2="66.213" transform="translate(3.966 3.965)" fill="#fff"/>
            <path id="Trazado_638193" data-name="Trazado 638193" d="M77.734,285.646a3.966,3.966,0,0,1-3.218-6.279l47.557-66.212a3.965,3.965,0,1,1,6.441,4.626L80.957,283.994A3.962,3.962,0,0,1,77.734,285.646Z" transform="translate(-73.771 -211.503)" fill="#263238"/>
          </g>
          <g id="Grupo_971621" data-name="Grupo 971621" transform="translate(49.257 70.847)">
            <line id="Línea_862" data-name="Línea 862" x1="25.201" y2="35.086" transform="translate(2.266 2.266)" fill="#fff"/>
            <path id="Trazado_638194" data-name="Trazado 638194" d="M162.987,192.184a2.266,2.266,0,0,1-1.838-3.588l25.2-35.086a2.266,2.266,0,1,1,3.681,2.644l-25.2,35.086A2.264,2.264,0,0,1,162.987,192.184Z" transform="translate(-160.723 -152.565)" fill="#263238"/>
          </g>
          <g id="Grupo_971622" data-name="Grupo 971622" transform="translate(58.988)">
            <path id="Trazado_638195" data-name="Trazado 638195" d="M219.755,28a41.353,41.353,0,1,0,41.353,41.353A41.353,41.353,0,0,0,219.755,28Zm0,77.042a35.688,35.688,0,1,1,35.689-35.688A35.688,35.688,0,0,1,219.755,105.042Z" transform="translate(-178.119 -27.717)" fill="#263238"/>
            <path id="Trazado_638196" data-name="Trazado 638196" d="M219.539,110.773a41.637,41.637,0,1,1,41.637-41.637A41.684,41.684,0,0,1,219.539,110.773Zm0-82.707a41.07,41.07,0,1,0,41.07,41.07A41.116,41.116,0,0,0,219.539,28.066Zm0,77.042A35.972,35.972,0,1,1,255.51,69.137,36.012,36.012,0,0,1,219.539,105.108Zm0-71.377a35.405,35.405,0,1,0,35.405,35.405A35.445,35.445,0,0,0,219.539,33.731Z" transform="translate(-177.902 -27.5)" fill="#263238"/>
          </g>
        </g>
        <g id="Grupo_971630" data-name="Grupo 971630" transform="translate(55.951 89.569)">
          <g id="Grupo_971629" data-name="Grupo 971629">
            <g id="Grupo_971625" data-name="Grupo 971625" transform="translate(0 0.004)">
              <g id="Grupo_971624" data-name="Grupo 971624">
                <path id="Trazado_638197" data-name="Trazado 638197" d="M174.964,205.795l5.54-2.135c-1.469-3.152-2.5-5.317-2.5-5.317s5.058-5.681,5.058-6.814-1.7-4.532-3.021-5.288-3.21,2.266-3.588,3.21.566,5.287.566,5.287l-3.982,5.706Z" transform="translate(-172.756 -185.838)" fill="#fff"/>
                <path id="Trazado_638198" data-name="Trazado 638198" d="M174.747,205.861a.286.286,0,0,1-.267-.187l-1.924-5.35a.285.285,0,0,1,.034-.258l3.912-5.6c-.172-.81-.9-4.4-.527-5.332.329-.822,1.637-2.974,2.922-3.422a1.251,1.251,0,0,1,1.07.071c1.424.813,3.164,4.3,3.164,5.533,0,1.131-3.923,5.641-5,6.862.268.567,1.189,2.513,2.418,5.149a.283.283,0,0,1-.155.384l-5.54,2.134A.288.288,0,0,1,174.747,205.861Zm-1.608-5.592,1.776,4.94,4.987-1.92c-1.4-3-2.368-5.04-2.368-5.041a.284.284,0,0,1,.044-.31c2.071-2.326,4.986-5.919,4.986-6.626,0-1.039-1.673-4.353-2.878-5.041a.7.7,0,0,0-.6-.029c-1.029.359-2.277,2.334-2.582,3.1-.252.629.222,3.475.58,5.122a.286.286,0,0,1-.044.222Z" transform="translate(-172.54 -185.621)" fill="#263238"/>
              </g>
            </g>
            <g id="Grupo_971626" data-name="Grupo 971626" transform="translate(4.012 2.675)">
              <path id="Trazado_638199" data-name="Trazado 638199" d="M181.624,196.155a.284.284,0,0,1-.269-.195l-1.719-5.254a.283.283,0,1,1,.538-.176l1.719,5.253a.283.283,0,0,1-.269.372Z" transform="translate(-179.621 -190.335)" fill="#263238"/>
            </g>
            <g id="Grupo_971627" data-name="Grupo 971627" transform="translate(5.158 0.86)">
              <path id="Trazado_638200" data-name="Trazado 638200" d="M184.316,193.429a.284.284,0,0,1-.262-.174l-2.388-5.731a.283.283,0,0,1,.523-.218l2.388,5.731a.282.282,0,0,1-.152.37A.275.275,0,0,1,184.316,193.429Z" transform="translate(-181.644 -187.132)" fill="#263238"/>
            </g>
            <g id="Grupo_971628" data-name="Grupo 971628" transform="translate(6.591)">
              <path id="Trazado_638201" data-name="Trazado 638201" d="M187.036,191.911a.284.284,0,0,1-.259-.167l-2.579-5.731a.283.283,0,0,1,.517-.232l2.579,5.731a.284.284,0,0,1-.142.375A.288.288,0,0,1,187.036,191.911Z" transform="translate(-184.174 -185.614)" fill="#263238"/>
            </g>
          </g>
        </g>
        <g id="Grupo_971636" data-name="Grupo 971636" transform="translate(3.513 128.878)">
          <g id="Grupo_971631" data-name="Grupo 971631">
            <path id="Trazado_638202" data-name="Trazado 638202" d="M80.473,255.506s2.759,39.238,4.012,39.944,5.354-2.077,5.354-2.077l3.725-19.042Z" transform="translate(-80.19 -255.222)" fill="#fff"/>
            <path id="Trazado_638203" data-name="Trazado 638203" d="M84.773,295.624a1.3,1.3,0,0,1-.644-.144c-1.285-.724-3.506-30.93-4.156-40.171a.283.283,0,0,1,.515-.181l13.093,18.825a.282.282,0,0,1,.045.216L89.9,293.21a.287.287,0,0,1-.119.181C89.4,293.648,86.437,295.624,84.773,295.624ZM80.611,256.3c1.093,15.355,2.96,37.632,3.833,38.719.749.415,3.378-.995,4.923-2.027l3.68-18.81Z" transform="translate(-79.973 -255.005)" fill="#263238"/>
          </g>
          <g id="Grupo_971635" data-name="Grupo 971635" transform="translate(2.536 4.553)">
            <g id="Grupo_971632" data-name="Grupo 971632">
              <path id="Trazado_638204" data-name="Trazado 638204" d="M87.047,287.985l16.835-15.074-.093-4.379,3.975-3.367s.829-2.379,1.29-1.379.775,1.6.318,2.314-1.767,2.277-1.767,2.277l5.628-1.1s1.42.914.963,1.625a5.306,5.306,0,0,1-1.665,1.338l-.747,1.629a9.509,9.509,0,0,1-1.077,2.922c-.666.877-4,1.844-4,1.844s-12.26,18.42-13.84,20.718-4.159,5.056-6.036,4.851-1.881-10.651-1.881-10.651" transform="translate(-84.666 -263.258)" fill="#fff"/>
              <path id="Trazado_638205" data-name="Trazado 638205" d="M86.819,302.285a2.214,2.214,0,0,1-.237-.012c-2.027-.221-2.132-9.146-2.133-10.933a.283.283,0,0,1,.566,0c0,5.011.611,10.259,1.628,10.37,1.617.178,4.066-2.249,5.772-4.731,1.561-2.269,13.715-20.53,13.838-20.714a.286.286,0,0,1,.157-.115c.9-.262,3.354-1.085,3.853-1.743a9.278,9.278,0,0,0,1.026-2.807.253.253,0,0,1,.02-.062l.747-1.629a.282.282,0,0,1,.126-.133,5.048,5.048,0,0,0,1.558-1.241c.211-.328-.39-.891-.786-1.17l-5.512,1.075a.283.283,0,0,1-.271-.459c.013-.016,1.3-1.562,1.746-2.249.34-.528.171-.944-.28-1.917l-.058-.125a.538.538,0,0,0-.031-.059,4.246,4.246,0,0,0-.734,1.412.283.283,0,0,1-.084.124l-3.872,3.279.091,4.244a.284.284,0,0,1-.094.217L87.019,287.979a.283.283,0,0,1-.378-.422l16.738-14.986-.091-4.249a.285.285,0,0,1,.1-.222l3.917-3.317c.24-.671.7-1.714,1.241-1.741a.584.584,0,0,1,.548.41l.057.123c.444.958.764,1.651.241,2.461-.28.437-.862,1.172-1.286,1.695l4.855-.947a.283.283,0,0,1,.207.041,4.166,4.166,0,0,1,.706.59c.617.658.527,1.138.342,1.425a5.256,5.256,0,0,1-1.685,1.389l-.694,1.513a9.408,9.408,0,0,1-1.123,3c-.657.866-3.409,1.726-4.046,1.916-.911,1.369-12.278,18.443-13.785,20.635C92.3,298.151,89.324,302.284,86.819,302.285Z" transform="translate(-84.449 -263.042)" fill="#263238"/>
            </g>
            <g id="Grupo_971633" data-name="Grupo 971633" transform="translate(16.5)">
              <path id="Trazado_638206" data-name="Trazado 638206" d="M125.859,267.28l-5.628,1.1s1.31-1.567,1.767-2.277.143-1.314-.318-2.314-1.29,1.379-1.29,1.379l-3.975,3.367.093,4.379-2.433,2.178,3.951,3.509,1.305-1.961s3.334-.967,4-1.844a9.51,9.51,0,0,0,1.077-2.922l.747-1.629a5.306,5.306,0,0,0,1.665-1.338C127.279,268.194,125.859,267.28,125.859,267.28Z" transform="translate(-113.793 -263.258)" fill="#fff"/>
              <path id="Trazado_638207" data-name="Trazado 638207" d="M117.81,278.665a.282.282,0,0,1-.188-.071l-3.951-3.508a.283.283,0,0,1-.1-.211.28.28,0,0,1,.094-.211l2.336-2.092-.091-4.249a.285.285,0,0,1,.1-.222l3.917-3.317c.24-.671.7-1.714,1.241-1.741a.584.584,0,0,1,.548.41l.057.123c.444.958.764,1.651.241,2.461-.28.437-.862,1.172-1.286,1.695l4.855-.947a.283.283,0,0,1,.207.041,4.166,4.166,0,0,1,.706.59c.617.658.527,1.138.342,1.425a5.256,5.256,0,0,1-1.685,1.389l-.694,1.513a9.422,9.422,0,0,1-1.123,3c-.657.866-3.409,1.726-4.046,1.916l-1.249,1.875a.282.282,0,0,1-.2.124Zm-3.526-3.793,3.47,3.081,1.125-1.69a.284.284,0,0,1,.157-.115c.9-.262,3.354-1.085,3.853-1.743a9.278,9.278,0,0,0,1.026-2.807.253.253,0,0,1,.02-.062l.747-1.629a.282.282,0,0,1,.126-.133,5.064,5.064,0,0,0,1.558-1.241c.211-.328-.39-.891-.786-1.17l-5.512,1.075a.283.283,0,0,1-.271-.459c.013-.016,1.3-1.562,1.746-2.249.34-.528.171-.944-.28-1.917l-.058-.125a.538.538,0,0,0-.031-.059,4.267,4.267,0,0,0-.734,1.412.283.283,0,0,1-.084.124l-3.872,3.279.091,4.244a.284.284,0,0,1-.094.217Z" transform="translate(-113.576 -263.042)" fill="#263238"/>
            </g>
            <g id="Grupo_971634" data-name="Grupo 971634" transform="translate(14.513 13.514)">
              <line id="Línea_863" data-name="Línea 863" x2="4.368" y2="3.692" transform="translate(0.283 0.283)" fill="#fff"/>
              <path id="Trazado_638208" data-name="Trazado 638208" d="M114.719,291.156a.281.281,0,0,1-.182-.067l-4.369-3.692a.283.283,0,1,1,.366-.432l4.368,3.692a.283.283,0,0,1-.183.5Z" transform="translate(-110.068 -286.898)" fill="#263238"/>
            </g>
          </g>
        </g>
      </g>
    </g>
  </g>
</svg>
