<svg xmlns="http://www.w3.org/2000/svg" width="84.549" height="84.549" viewBox="0 0 84.549 84.549">
  <g id="Grupo_956730" data-name="Grupo 956730" transform="translate(-322 -4755.188)">
    <g id="Grupo_952068" data-name="Grupo 952068" transform="translate(19 826.188)">
      <g id="Grupo_951854" data-name="Grupo 951854" transform="translate(303 3929)">
        <path id="Trazado_621807" data-name="Trazado 621807" d="M42.274,0A42.274,42.274,0,1,1,0,42.274,42.274,42.274,0,0,1,42.274,0Z" transform="translate(0 0)" fill="#ef8b53"/>
      </g>
    </g>
    <g id="Grupo_968947" data-name="Grupo 968947" transform="translate(-1189.268 4075.02)">
      <path id="Trazado_637207" data-name="Trazado 637207" d="M1553.517,764.7q-20.658,0-41.317.017c-.718,0-.959-.123-.93-.9.069-1.839.022-1.879,1.845-1.822.732.023.925-.145.924-.908q-.04-24.444-.02-48.889c0-1.643.367-2.017,1.98-2.017h28.794c1.557,0,1.944.393,1.944,1.969,0,8.148.011,16.3-.019,24.444,0,.719.179.885.879.866,1.866-.052,1.867-.016,1.867-1.9q0-11.711,0-23.423c0-1.567.387-1.953,1.957-1.954,2.726,0,5.453-.023,8.178.016.633.009.79-.141.787-.782-.026-7.3-.017-14.593-.016-21.889,0-1.458.417-1.876,1.862-1.879.994,0,1.989-.024,2.981.01.466.016.64-.1.622-.6-.039-1.106-.023-2.214-.008-3.321a1.365,1.365,0,0,1,1.512-1.539q8.008-.015,16.016,0c1.046,0,1.54.521,1.552,1.588.012,1.051.045,2.1-.013,3.151-.035.627.186.751.759.723.963-.048,1.93-.015,2.9-.013,1.381,0,1.814.44,1.814,1.843q0,21.933,0,43.864c0,.937.025,1.875-.011,2.81-.018.456.13.59.57.56a3.44,3.44,0,0,1,1.182.063c.812.24.994.889.992,1.673q-.017,12.18-.007,24.359c0,1.155,0,1.155,1.148,1.155,1.578,0,1.578,0,1.578,1.576,0,1.15,0,1.15-1.152,1.15Zm5.517-24.368c-.009.679,0,1.359-.033,2.037-.021.406.117.541.526.53.962-.025,1.927-.043,2.888.005.574.029.7-.173.694-.713-.027-2.549,0-5.1-.02-7.646-.007-.836.378-2.018-.168-2.42-.569-.419-1.679-.1-2.553-.111-2.552-.009-5.1-.005-7.655-.039-.5-.007-.533.222-.528.612.015,1.418.026,2.836-.005,4.253-.011.49.148.617.621.609,1.559-.027,3.12-.022,4.679-.006a1.38,1.38,0,0,1,1.526,1.529C1559.02,739.426,1559.025,739.879,1559.034,740.332Zm10.851,1.194c.01-1.746.012-3.492.031-5.238a1.389,1.389,0,0,1,1.551-1.573c.844-.018,1.689-.021,2.534-.03.735.009,1.47,0,2.2.035.4.018.517-.113.537-.521.111-2.22.123-2.221-2.063-2.211-.226,0-.451.018-.677.027-2.553-.009-5.106-.011-7.659-.036-.409,0-.53.121-.526.527.024,3.006.027,6.013.036,9.019a4.149,4.149,0,0,1-.031.506c-.127.706.148.944.861.874.672-.067,1.356-.014,2.035-.014,1.226,0,1.226,0,1.192-1.2A1.492,1.492,0,0,0,1569.886,741.526Zm-9.518-28.593c-2.553-.009-5.106-.011-7.658-.036-.409,0-.529.121-.526.528.024,3.006.027,6.012.036,9.018-.071,1.366-.071,1.366,1.259,1.366,2.976,0,5.952-.014,8.928.013.556.005.711-.148.7-.7-.029-2.55,0-5.1-.021-7.651-.007-.837.377-2.019-.167-2.422C1562.354,712.625,1561.242,712.939,1560.368,712.933Zm13.633,0c-2.553-.009-5.106-.011-7.659-.036-.409,0-.53.121-.526.528.024,3.006.027,6.012.036,9.018-.071,1.366-.071,1.366,1.259,1.366,2.976,0,5.953-.014,8.928.013.556.005.71-.148.7-.7-.029-2.55,0-5.1-.021-7.651-.007-.837.378-2.019-.167-2.422C1575.986,712.625,1574.875,712.939,1574,712.933Zm-39.5,42.222c-.071,1.366-.071,1.366,1.249,1.366,6.589,0,13.177-.01,19.765.016.636,0,.791-.148.787-.786-.03-4.77-.016-9.54-.016-14.31,0-1.319,0-1.319-1.367-1.248q-9.966-.014-19.933-.037c-.408,0-.524.111-.522.521Q1534.494,747.917,1534.5,755.155Zm38.172,5.453c-.071,1.365-.071,1.365,1.256,1.365,5.194,0,10.388-.016,15.582.018.713,0,.877-.175.874-.879-.028-7.463-.018-14.927-.018-22.39,0-1.327,0-1.327-1.365-1.255-5.281-.01-10.561-.009-15.841-.041-.61,0-.517.338-.517.7q0,4.428,0,8.857Q1572.651,753.8,1572.669,760.608Zm-55.9-9.541c-.009,3.462-.013,6.924-.036,10.385,0,.4.111.531.523.53q6.983-.02,13.966,0c.412,0,.526-.126.523-.53-.023-3.462-.027-6.923-.036-10.385q.014-5.941.029-11.881c0-1.28.461-1.74,1.731-1.746q3.9-.018,7.809-.029c.624.01,1.253-.03,1.87.041.717.082.88-.166.877-.873-.029-7.037-.012-14.075-.025-21.112,0-.838.377-2.024-.164-2.425-.568-.421-1.682-.1-2.557-.109-.255-.01-.51-.027-.765-.027-7.639,0-15.278.01-22.916-.019-.711,0-.875.171-.874.877q.036,17.758.019,35.517C1516.747,749.876,1516.764,750.472,1516.774,751.067Zm58.5-59.971h10.3c2.166,0,2.154,0,2.067-2.209-.016-.4-.109-.536-.523-.526-1.107.027-2.214.017-3.321.007s-1.607-.5-1.618-1.61-.019-2.214.006-3.32c.009-.4-.1-.53-.518-.529q-6.3.022-12.6,0c-.5,0-.533.212-.527.605.018,1.135.023,2.271,0,3.405a1.35,1.35,0,0,1-1.433,1.447c-.68.023-1.362.006-2.044.006-1.979,0-1.949,0-1.986,1.955-.012.635.146.794.786.788C1567.67,691.079,1571.474,691.1,1575.277,691.1Zm-16.27,65.383c0,1.618.025,3.238-.014,4.855-.013.546.167.654.674.65q4.814-.033,9.628,0c.467,0,.632-.109.629-.606q-.032-4.856,0-9.711c0-.5-.162-.608-.629-.606q-4.814.027-9.628,0c-.507,0-.687.1-.674.65C1559.033,753.3,1559.008,754.889,1559.008,756.479Zm20.45-42.214v18.568c0,1.883,0,1.845,1.871,1.9.709.02.875-.161.873-.871q-.037-19.036-.018-38.073c0-1.974,0-1.944-1.957-1.983-.636-.012-.789.145-.786.785C1579.467,701.148,1579.457,707.706,1579.457,714.265Zm8.18.089V695.7c0-1.884,0-1.846-1.873-1.9-.715-.02-.873.172-.871.876q.036,19.034.017,38.068c0,1.976,0,1.945,1.958,1.984.642.013.787-.157.784-.789C1587.627,727.412,1587.637,720.883,1587.637,714.354Zm-23.182,12.181h-10.384c-1.885,0-1.845,0-1.9,1.879-.022.732.2.866.89.863,7.234-.027,14.469-.016,21.7-.016,1.979,0,1.945,0,1.984-1.964.013-.661-.19-.781-.8-.776C1572.115,726.55,1568.285,726.535,1564.455,726.535Zm-19.076,35.439h8.936c1.979,0,1.946,0,1.985-1.963.012-.658-.186-.78-.8-.777-6.326.024-12.652.014-18.978.014-2.083,0-2.059,0-2.067,2.048,0,.575.177.693.714.69C1538.571,761.962,1541.975,761.973,1545.379,761.974ZM1574,701.913v6.3c0,1.976,0,1.946,1.957,1.983.639.012.791-.151.786-.787-.031-4.511-.016-9.023-.016-13.535,0-2.077,0-2.055-2.042-2.066-.556,0-.705.143-.7.7C1574.022,696.975,1574,699.444,1574,701.913Zm-2.727.086v-6.216c0-1.97,0-1.939-1.96-1.978-.643-.013-.787.157-.783.788.03,4.513.016,9.027.016,13.54,0,2.071,0,2.048,2.045,2.061.56,0,.7-.149.694-.7C1571.26,707,1571.277,704.5,1571.277,702Zm-5.453,0v-6.215c0-1.971,0-1.94-1.961-1.979-.649-.013-.785.166-.781.793.029,4.512.016,9.023.016,13.536,0,2.073,0,2.049,2.047,2.061.565,0,.7-.158.692-.7C1565.808,706.992,1565.824,704.495,1565.824,702Zm-1.451,46.345h3.571c2,0,1.977,0,1.984-2.04,0-.559-.152-.7-.7-.7-2.72.028-5.441.013-8.162.013-2.118,0-2.1,0-2.067,2.126.007.481.139.619.617.611C1561.2,748.326,1562.786,748.343,1564.373,748.343Z" transform="translate(0)"/>
      <path id="Trazado_637208" data-name="Trazado 637208" d="M1527.034,703.37a3.907,3.907,0,0,1-3.384-2.357,3.819,3.819,0,0,1,.54-4.3,3.752,3.752,0,0,1,4.188-1.338,1.113,1.113,0,0,0,1.31-.345c1.464-1.506,2.957-2.984,4.454-4.458a.788.788,0,0,0,.239-.948,4.018,4.018,0,0,1,1.521-4.588,4.084,4.084,0,0,1,4.706.006,4.019,4.019,0,0,1,1.509,4.592.787.787,0,0,0,.256.944q1.642,1.608,3.254,3.249c.256.259.455.41.87.24a3.386,3.386,0,0,1,2.578-.007.689.689,0,0,0,.876-.218c2.461-2.477,4.921-4.955,7.414-7.4.383-.376.251-.666.144-1.048a4.076,4.076,0,1,1,7.749.3,4.1,4.1,0,0,1-3.956,2.678.958.958,0,0,1-.42-.035c-1.072-.622-1.667.061-2.344.755-2.161,2.214-4.361,4.39-6.559,6.568a.91.91,0,0,0-.3,1.087,3.982,3.982,0,0,1-1.528,4.51,4.08,4.08,0,0,1-4.706.007,3.992,3.992,0,0,1-1.543-4.5.908.908,0,0,0-.28-1.091q-1.62-1.57-3.191-3.191a.747.747,0,0,0-.951-.222,3.36,3.36,0,0,1-2.5-.012.69.69,0,0,0-.878.207c-1.534,1.557-3.075,3.107-4.642,4.63a.859.859,0,0,0-.222,1.029A4.11,4.11,0,0,1,1527.034,703.37Zm20.738-6.81a1.361,1.361,0,1,0,1.383,1.319A1.37,1.37,0,0,0,1547.772,696.56Zm-9.535-9.541a1.362,1.362,0,1,0,1.375,1.324A1.37,1.37,0,0,0,1538.237,687.019Zm24.552-2.727a1.361,1.361,0,1,0-1.341,1.36A1.368,1.368,0,0,0,1562.788,684.292Zm-35.51,16.353a1.362,1.362,0,1,0-1.294-1.406A1.378,1.378,0,0,0,1527.279,700.645Z" transform="translate(-7.873 -0.01)" fill="#030303"/>
      <path id="Trazado_637209" data-name="Trazado 637209" d="M1551.816,800.484q-3.9.014-7.809.029c-1.271.006-1.728.465-1.731,1.746q-.018,5.941-.029,11.882h-2.67c-.01-.31-.025-.62-.027-.929-.01-1.335-.452-1.79-1.763-1.794-1.468,0-2.936,0-4.4,0-1.653,0-2.007.362-2.016,2.049,0,.225-.018.45-.027.675h-4.033c-.01-.6-.027-1.191-.027-1.787q0-17.758-.019-35.517c0-.706.163-.88.874-.877,7.638.029,15.277.017,22.916.019.255,0,.51.017.765.027Zm-16.362-13.6c.878,0,1.757.018,2.635,0a1.341,1.341,0,0,0,1.451-1.425c.024-1.756.022-3.513,0-5.269a1.349,1.349,0,0,0-1.488-1.473q-2.592-.027-5.185,0a1.346,1.346,0,0,0-1.494,1.466q-.03,2.634,0,5.269a1.339,1.339,0,0,0,1.443,1.432C1533.7,786.9,1534.576,786.881,1535.454,786.881Zm10.831,0c.878,0,1.757.013,2.635,0a1.375,1.375,0,0,0,1.53-1.522q.025-2.549,0-5.1a1.369,1.369,0,0,0-1.5-1.549q-2.592-.026-5.185,0a1.347,1.347,0,0,0-1.484,1.476q-.029,2.592,0,5.184a1.373,1.373,0,0,0,1.541,1.51C1544.642,786.894,1545.464,786.882,1546.285,786.882Zm-6.737,17.736c0-.85.011-1.7,0-2.55a1.373,1.373,0,0,0-1.5-1.551q-2.593-.027-5.185,0a1.347,1.347,0,0,0-1.487,1.474q-.029,2.592,0,5.184a1.349,1.349,0,0,0,1.453,1.508q2.635.033,5.27,0a1.342,1.342,0,0,0,1.445-1.431C1539.567,806.375,1539.547,805.5,1539.549,804.618Zm-4.1-6.831c.85,0,1.7.011,2.55,0a1.376,1.376,0,0,0,1.549-1.5q.027-2.592,0-5.184a1.349,1.349,0,0,0-1.479-1.483q-2.593-.029-5.185,0a1.347,1.347,0,0,0-1.5,1.457q-.031,2.634,0,5.269a1.338,1.338,0,0,0,1.433,1.441C1533.686,797.8,1534.565,797.785,1535.444,797.786Zm10.839,0c.907,0,1.814.018,2.72-.005a1.341,1.341,0,0,0,1.443-1.432q.035-2.634,0-5.269a1.349,1.349,0,0,0-1.5-1.466q-2.593-.026-5.185,0a1.347,1.347,0,0,0-1.486,1.474q-.029,2.592,0,5.184a1.373,1.373,0,0,0,1.538,1.512C1544.639,797.8,1545.461,797.786,1546.283,797.785Z" transform="translate(-10.533 -63.073)" fill="#c2cace"/>
      <path id="Trazado_637210" data-name="Trazado 637210" d="M1691.047,871.019q-.014-6.812-.028-13.624-.006-4.429,0-8.857c0-.363-.094-.7.517-.7,5.28.032,10.561.031,15.842.041q0,9.5,0,18.994a4.131,4.131,0,0,1-4.148,4.148Q1697.138,871.024,1691.047,871.019Zm8.832-17.717h-4.084c-2.079,0-2.056,0-2.065,2.045,0,.565.16.7.707.693,3.176-.026,6.352-.012,9.528-.012,2.112,0,2.1,0,2.063-2.13-.007-.486-.146-.613-.62-.606C1703.565,853.317,1701.722,853.3,1699.878,853.3Zm.087,5.452h-4.254c-2,0-1.973,0-1.982,2.043,0,.56.153.7.7.7,3.176-.026,6.352-.013,9.528-.013,2.114,0,2.1,0,2.065-2.128-.007-.483-.14-.616-.617-.609C1703.6,858.77,1701.781,858.754,1699.966,858.754Zm0,5.452h-4.254c-2,0-1.977,0-1.985,2.039,0,.553.142.705.7.7,3.176-.027,6.352-.013,9.528-.013,2.116,0,2.1,0,2.069-2.124-.007-.477-.13-.62-.613-.613C1703.6,864.222,1701.785,864.206,1699.97,864.206Z" transform="translate(-118.378 -110.41)" fill="#c2cace"/>
      <path id="Trazado_637211" data-name="Trazado 637211" d="M1675.224,696.337c-3.8,0-7.608-.017-11.411.017-.64.006-.8-.153-.786-.788.037-1.954.007-1.955,1.986-1.955.681,0,1.363.018,2.044-.006a1.35,1.35,0,0,0,1.433-1.447c.024-1.135.019-2.27,0-3.405-.006-.393.025-.608.527-.605q6.3.031,12.6,0c.416,0,.527.127.518.529-.025,1.106-.017,2.214-.006,3.32s.5,1.6,1.618,1.61,2.214.02,3.321-.007c.414-.01.507.125.523.526.087,2.21.1,2.209-2.067,2.209Z" transform="translate(-99.946 -5.241)" fill="#dfdfdf"/>
      <path id="Trazado_637212" data-name="Trazado 637212" d="M1579.234,870.833q-.014-7.239-.037-14.478c0-.41.113-.522.522-.521q9.967.032,19.933.036,0,6.046,0,12.092a2.677,2.677,0,0,1-2.874,2.871Q1588.007,870.839,1579.234,870.833Zm10.792-1.36c2.213,0,4.425.006,6.638,0,1.114,0,1.621-.5,1.625-1.6q.015-3.829,0-7.657c0-1.155-.5-1.641-1.668-1.642q-6.51-.008-13.02,0c-1.173,0-1.663.484-1.667,1.642q-.012,3.786,0,7.572c0,1.212.482,1.684,1.709,1.687C1585.771,869.477,1587.9,869.473,1590.026,869.473Z" transform="translate(-44.738 -115.677)" fill="#f4f4f4"/>
      <path id="Trazado_637213" data-name="Trazado 637213" d="M1527.326,887.79h4.033q.014,1.866.028,3.731c.01,1.233.47,1.715,1.67,1.721q2.419.012,4.837,0c1.2-.006,1.662-.49,1.672-1.721s.019-2.487.028-3.731h2.67c.009,3.462.013,6.924.036,10.385,0,.4-.111.531-.523.529q-6.983-.019-13.966,0c-.412,0-.526-.126-.523-.529C1527.313,894.714,1527.317,891.252,1527.326,887.79Z" transform="translate(-10.552 -136.723)" fill="#b4bdc2"/>
      <path id="Trazado_637214" data-name="Trazado 637214" d="M1651.071,893.185c0-1.59.025-3.181-.014-4.77-.014-.546.167-.654.674-.65q4.814.033,9.628,0c.467,0,.632.109.629.606q-.032,4.855,0,9.711c0,.5-.162.608-.629.606q-4.814-.027-9.628,0c-.507,0-.687-.1-.674-.65C1651.1,896.423,1651.071,894.8,1651.071,893.185Z" transform="translate(-92.064 -136.706)" fill="#5895e4"/>
      <path id="Trazado_637215" data-name="Trazado 637215" d="M1710.964,740.528c0-6.559.01-13.117-.016-19.675,0-.639.151-.8.786-.785,1.956.038,1.957.008,1.957,1.983q0,19.036.018,38.073c0,.71-.165.891-.873.871-1.87-.054-1.871-.016-1.871-1.9Z" transform="translate(-131.507 -26.263)" fill="#ecf6fc"/>
      <path id="Trazado_637216" data-name="Trazado 637216" d="M1729.661,740.611c0,6.529-.01,13.058.016,19.588,0,.633-.142.8-.784.789-1.958-.039-1.958-.007-1.958-1.984q0-19.034-.017-38.068c0-.7.157-.9.871-.876,1.872.054,1.873.016,1.873,1.9Z" transform="translate(-142.024 -26.257)" fill="#cbe0f7"/>
      <path id="Trazado_637217" data-name="Trazado 637217" d="M1671.078,785.535c-.009-3.006-.012-6.012-.036-9.018,0-.407.118-.532.526-.528,2.553.025,5.106.027,7.659.036q0,2.639,0,5.279a4.121,4.121,0,0,1-4.234,4.234Q1673.036,785.54,1671.078,785.535Z" transform="translate(-105.225 -63.092)" fill="#76aae9"/>
      <path id="Trazado_637218" data-name="Trazado 637218" d="M1631.147,785.535c-.009-3.006-.012-6.012-.036-9.018,0-.407.117-.532.526-.528,2.553.025,5.106.027,7.658.036q0,2.639,0,5.279a4.121,4.121,0,0,1-4.234,4.234Q1633.106,785.54,1631.147,785.535Z" transform="translate(-78.927 -63.092)" fill="#76aae9"/>
      <path id="Trazado_637219" data-name="Trazado 637219" d="M1599.182,800.362V775.884c.875.005,1.989-.311,2.557.109.542.4.163,1.586.164,2.425.013,7.037,0,14.075.025,21.112,0,.706-.16.955-.877.873C1600.435,800.332,1599.806,800.372,1599.182,800.362Z" transform="translate(-57.9 -62.951)" fill="#b4bdc2"/>
      <path id="Trazado_637220" data-name="Trazado 637220" d="M1643.356,815.907c3.83,0,7.66.015,11.49-.014.614,0,.817.115.8.776-.038,1.964,0,1.964-1.984,1.964-7.235,0-14.469-.01-21.7.016-.688,0-.912-.131-.89-.863.055-1.878.015-1.879,1.9-1.879Z" transform="translate(-78.901 -89.372)" fill="#b4bdc2"/>
      <path id="Trazado_637221" data-name="Trazado 637221" d="M1590.1,914.449c-3.4,0-6.808-.011-10.212.012-.538,0-.717-.115-.714-.69.008-2.048-.017-2.048,2.067-2.048,6.326,0,12.652.009,18.978-.014.617,0,.815.12.8.777-.038,1.962-.005,1.963-1.985,1.963Z" transform="translate(-44.725 -152.476)" fill="#b4bdc2"/>
      <path id="Trazado_637222" data-name="Trazado 637222" d="M1691.066,871.051q6.091,0,12.182,0a4.131,4.131,0,0,0,4.148-4.148q0-9.5,0-18.994c1.365-.071,1.365-.071,1.365,1.255,0,7.463-.01,14.927.018,22.39,0,.7-.161.884-.874.879-5.194-.034-10.388-.018-15.582-.018C1690.995,872.416,1690.995,872.416,1691.066,871.051Z" transform="translate(-118.397 -110.443)" fill="#b4bdc2"/>
      <path id="Trazado_637223" data-name="Trazado 637223" d="M1579.258,870.856q8.773,0,17.546,0a2.677,2.677,0,0,0,2.874-2.871q.007-6.046,0-12.092c1.366-.071,1.367-.071,1.367,1.248,0,4.77-.014,9.54.016,14.31,0,.638-.151.789-.787.786-6.588-.026-13.177-.016-19.765-.016C1579.187,872.222,1579.187,872.222,1579.258,870.856Z" transform="translate(-44.762 -115.701)" fill="#dfdfdf"/>
      <path id="Trazado_637224" data-name="Trazado 637224" d="M1671.078,841.428c-.009-3.006-.012-6.013-.036-9.019,0-.407.118-.532.526-.527,2.553.025,5.106.027,7.659.036v2.669c-.845.01-1.689.012-2.534.03a1.389,1.389,0,0,0-1.551,1.573c-.019,1.746-.021,3.492-.031,5.238Z" transform="translate(-105.225 -99.903)" fill="#76aae9"/>
      <path id="Trazado_637225" data-name="Trazado 637225" d="M1637.954,840.228c-.009-.453-.014-.906-.028-1.359a1.38,1.38,0,0,0-1.526-1.529c-1.56-.016-3.12-.021-4.679.006-.473.008-.632-.119-.621-.609.031-1.417.021-2.835.005-4.253,0-.39.025-.619.528-.612,2.551.034,5.1.03,7.655.039,0,1.839.026,3.679-.006,5.518A3.409,3.409,0,0,1,1637.954,840.228Z" transform="translate(-78.92 -99.896)" fill="#76aae9"/>
      <path id="Trazado_637226" data-name="Trazado 637226" d="M1695,728.182c0-2.469.018-4.938-.013-7.406-.007-.556.142-.7.7-.7,2.042.011,2.042-.011,2.042,2.066,0,4.512-.014,9.024.016,13.535,0,.636-.148.8-.786.787-1.956-.038-1.957-.007-1.957-1.983Z" transform="translate(-120.993 -26.269)" fill="#cbe0f7"/>
      <path id="Trazado_637227" data-name="Trazado 637227" d="M1681.746,728.262c0,2.5-.017,5,.013,7.494.007.551-.134.7-.694.7-2.045-.013-2.045.01-2.045-2.061,0-4.513.014-9.026-.016-13.54,0-.632.14-.8.782-.788,1.96.039,1.96.008,1.96,1.978Z" transform="translate(-110.469 -26.262)" fill="#ecf6fc"/>
      <path id="Trazado_637228" data-name="Trazado 637228" d="M1665.774,728.259c0,2.5-.016,4.995.013,7.491.006.547-.127.708-.692.7-2.047-.012-2.047.012-2.047-2.061,0-4.512.014-9.024-.016-13.536,0-.626.132-.806.781-.793,1.961.039,1.961.007,1.961,1.979Z" transform="translate(-99.95 -26.262)" fill="#cbe0f7"/>
      <path id="Trazado_637229" data-name="Trazado 637229" d="M1671.1,785.4q1.959,0,3.918,0a4.121,4.121,0,0,0,4.234-4.234q0-2.639,0-5.279c.874.007,1.985-.308,2.554.112.545.4.16,1.584.167,2.422.023,2.55-.008,5.1.021,7.651.006.557-.148.709-.7.7-2.976-.027-5.952-.013-8.928-.013C1671.029,786.765,1671.029,786.765,1671.1,785.4Z" transform="translate(-105.248 -62.956)" fill="#5895e4"/>
      <path id="Trazado_637230" data-name="Trazado 637230" d="M1631.169,785.4q1.959,0,3.917,0a4.121,4.121,0,0,0,4.234-4.234q0-2.639,0-5.279c.874.007,1.985-.308,2.554.112.545.4.16,1.584.167,2.422.023,2.55-.008,5.1.021,7.651.007.557-.148.709-.7.7-2.976-.027-5.952-.013-8.928-.013C1631.1,786.765,1631.1,786.765,1631.169,785.4Z" transform="translate(-78.95 -62.956)" fill="#5895e4"/>
      <path id="Trazado_637231" data-name="Trazado 637231" d="M1651.109,840.1a3.409,3.409,0,0,0,1.328-2.8c.032-1.839.007-3.678.006-5.518.874.006,1.984-.309,2.553.111.546.4.161,1.583.168,2.42.023,2.549-.006,5.1.02,7.646.006.54-.12.742-.694.713-.961-.049-1.926-.031-2.888-.005-.409.011-.546-.124-.526-.53C1651.11,841.455,1651.1,840.775,1651.109,840.1Z" transform="translate(-92.074 -99.764)" fill="#5895e4"/>
      <path id="Trazado_637232" data-name="Trazado 637232" d="M1656.425,874.529c-1.587,0-3.175-.017-4.761.01-.478.009-.61-.129-.617-.611-.034-2.126-.051-2.126,2.067-2.126,2.721,0,5.441.015,8.162-.013.552-.006.706.14.7.7-.007,2.04.016,2.04-1.984,2.04Z" transform="translate(-92.052 -126.185)" fill="#b4bdc2"/>
      <path id="Trazado_637233" data-name="Trazado 637233" d="M1695.015,834.6v-2.67c.226-.009.451-.026.677-.027,2.187-.01,2.174-.01,2.064,2.211-.02.408-.136.539-.537.521C1696.485,834.6,1695.75,834.612,1695.015,834.6Z" transform="translate(-121.014 -99.918)" fill="#5895e4"/>
      <path id="Trazado_637234" data-name="Trazado 637234" d="M1671.029,859.843h4.033a1.516,1.516,0,0,1,.023.168c.034,1.2.034,1.2-1.192,1.2-.679,0-1.363-.052-2.035.014-.713.071-.989-.167-.861-.874A4.171,4.171,0,0,0,1671.029,859.843Z" transform="translate(-105.177 -118.318)" fill="#5895e4"/>
      <path id="Trazado_637235" data-name="Trazado 637235" d="M1592.543,728.11a1.361,1.361,0,1,1-1.34,1.361A1.374,1.374,0,0,1,1592.543,728.11Z" transform="translate(-52.645 -31.559)" fill="#548fda"/>
      <path id="Trazado_637236" data-name="Trazado 637236" d="M1564.6,700.164a1.362,1.362,0,1,1-1.346,1.355A1.369,1.369,0,0,1,1564.6,700.164Z" transform="translate(-34.24 -13.155)" fill="#548fda"/>
      <path id="Trazado_637237" data-name="Trazado 637237" d="M1633.861,689.549a1.361,1.361,0,1,1-1.338-1.362A1.373,1.373,0,0,1,1633.861,689.549Z" transform="translate(-78.946 -5.267)" fill="#548fda"/>
      <path id="Trazado_637238" data-name="Trazado 637238" d="M1532.606,734.822a1.362,1.362,0,1,1,1.425-1.274A1.372,1.372,0,0,1,1532.606,734.822Z" transform="translate(-13.2 -34.187)" fill="#548fda"/>
      <path id="Trazado_637239" data-name="Trazado 637239" d="M1547.445,882.533q-.014,1.866-.028,3.731c-.011,1.232-.473,1.715-1.672,1.721q-2.418.012-4.837,0c-1.2-.006-1.66-.488-1.67-1.721s-.019-2.487-.028-3.731c.009-.225.026-.45.027-.675.008-1.687.363-2.049,2.016-2.049,1.468,0,2.936,0,4.4,0,1.312,0,1.753.459,1.763,1.794C1547.42,881.914,1547.435,882.224,1547.445,882.533Zm-5.481,1.326c0,1.4,0,1.4,1.345,1.4,1.381,0,1.381,0,1.381-1.366s0-1.36-1.388-1.36C1541.964,882.536,1541.964,882.536,1541.964,883.859Z" transform="translate(-18.402 -131.466)" fill="#010101"/>
      <path id="Trazado_637240" data-name="Trazado 637240" d="M1543.36,792.159c-.878,0-1.757.018-2.635-.005a1.339,1.339,0,0,1-1.443-1.431q-.034-2.634,0-5.269a1.346,1.346,0,0,1,1.494-1.466q2.592-.026,5.185,0a1.349,1.349,0,0,1,1.488,1.473c.019,1.756.022,3.513,0,5.269a1.341,1.341,0,0,1-1.451,1.425C1545.117,792.177,1544.238,792.159,1543.36,792.159Zm1.367-4.1c0-1.349,0-1.349-.971-1.35-1.754,0-1.754,0-1.755.992,0,1.733,0,1.733,1.1,1.733C1544.727,789.433,1544.727,789.433,1544.727,788.058Z" transform="translate(-18.439 -68.351)" fill="#010101"/>
      <path id="Trazado_637241" data-name="Trazado 637241" d="M1575.231,792.159c-.822,0-1.644.012-2.465,0a1.373,1.373,0,0,1-1.541-1.51q-.025-2.592,0-5.184a1.347,1.347,0,0,1,1.484-1.476q2.592-.028,5.185,0a1.369,1.369,0,0,1,1.5,1.549q.022,2.549,0,5.1a1.375,1.375,0,0,1-1.53,1.522C1576.988,792.172,1576.109,792.159,1575.231,792.159Zm1.442-4.043c0-1.408,0-1.408-1.339-1.408-1.387,0-1.387,0-1.387,1.359s0,1.366,1.381,1.366C1576.673,789.433,1576.673,789.433,1576.673,788.116Z" transform="translate(-39.479 -68.35)" fill="#010101"/>
      <path id="Trazado_637242" data-name="Trazado 637242" d="M1547.455,851.964c0,.878.019,1.757-.006,2.634a1.342,1.342,0,0,1-1.445,1.431q-2.635.033-5.27,0a1.349,1.349,0,0,1-1.453-1.508q-.024-2.592,0-5.184a1.347,1.347,0,0,1,1.487-1.474q2.592-.027,5.185,0a1.373,1.373,0,0,1,1.5,1.551C1547.467,850.263,1547.456,851.113,1547.455,851.964Zm-2.726-.029c0-1.349,0-1.349-.971-1.35-1.754,0-1.754,0-1.755.992,0,1.733,0,1.733,1.1,1.733C1544.729,853.31,1544.729,853.31,1544.729,851.934Z" transform="translate(-18.441 -110.419)" fill="#010101"/>
      <path id="Trazado_637243" data-name="Trazado 637243" d="M1543.35,824.1c-.879,0-1.757.019-2.635-.006a1.338,1.338,0,0,1-1.433-1.441q-.032-2.634,0-5.269a1.347,1.347,0,0,1,1.5-1.456q2.592-.025,5.185,0a1.349,1.349,0,0,1,1.478,1.483q.029,2.592,0,5.184a1.376,1.376,0,0,1-1.549,1.5C1545.05,824.109,1544.2,824.1,1543.35,824.1Zm1.378-4.043c0-1.408,0-1.408-1.339-1.408-1.387,0-1.387,0-1.387,1.359s0,1.366,1.381,1.366C1544.727,821.371,1544.727,821.371,1544.727,820.054Z" transform="translate(-18.439 -89.385)" fill="#010101"/>
      <path id="Trazado_637244" data-name="Trazado 637244" d="M1575.229,824.1c-.822,0-1.644.013-2.465,0a1.373,1.373,0,0,1-1.538-1.512q-.025-2.592,0-5.184a1.347,1.347,0,0,1,1.486-1.474q2.592-.027,5.185,0a1.349,1.349,0,0,1,1.5,1.466q.031,2.634,0,5.269a1.341,1.341,0,0,1-1.443,1.432C1577.042,824.116,1576.135,824.1,1575.229,824.1Zm1.445-4.109c0-1.341,0-1.341-.979-1.342-1.746,0-1.746,0-1.747,1,0,1.725,0,1.725,1.106,1.725C1576.673,821.372,1576.673,821.372,1576.673,819.988Z" transform="translate(-39.479 -89.385)" fill="#010101"/>
      <path id="Trazado_637245" data-name="Trazado 637245" d="M1705.12,863.823c1.843,0,3.687.015,5.53-.01.474-.007.612.12.62.606.032,2.131.05,2.13-2.063,2.13-3.176,0-6.352-.013-9.528.012-.547,0-.709-.129-.707-.693.009-2.045-.014-2.045,2.065-2.045Z" transform="translate(-123.62 -120.932)"/>
      <path id="Trazado_637246" data-name="Trazado 637246" d="M1705.208,879.791c1.815,0,3.63.016,5.445-.01.477-.007.61.126.617.609.032,2.128.048,2.128-2.065,2.128-3.176,0-6.352-.013-9.528.013-.551,0-.706-.136-.7-.7.009-2.042-.014-2.043,1.982-2.043Z" transform="translate(-123.621 -131.448)"/>
      <path id="Trazado_637247" data-name="Trazado 637247" d="M1705.213,895.76c1.815,0,3.63.016,5.445-.011.483-.007.606.136.613.613.031,2.124.047,2.124-2.068,2.124-3.176,0-6.352-.014-9.528.013-.558,0-.7-.147-.7-.7.008-2.039-.013-2.039,1.985-2.039Z" transform="translate(-123.621 -141.965)"/>
      <path id="Trazado_637248" data-name="Trazado 637248" d="M1595.3,874.744c-2.128,0-4.255,0-6.382,0-1.227,0-1.707-.475-1.709-1.687q-.009-3.786,0-7.572c0-1.157.494-1.64,1.667-1.641q6.51-.008,13.02,0c1.17,0,1.664.487,1.668,1.642q.012,3.829,0,7.657c0,1.1-.511,1.6-1.625,1.6C1599.721,874.75,1597.509,874.744,1595.3,874.744Zm-1.277-5.418c0-.737-.014-1.475.006-2.211.009-.36-.022-.575-.485-.56-1.048.035-2.1.027-3.147,0-.385-.009-.475.128-.471.488.017,1.5.02,3.006,0,4.508-.005.383.125.478.487.471,1.049-.021,2.1-.024,3.147,0,.385.009.482-.127.47-.488C1594,870.8,1594.019,870.064,1594.019,869.326Zm6.816.007c0-.765-.019-1.532.008-2.3.013-.375-.107-.487-.48-.479q-1.573.034-3.147,0c-.376-.008-.482.11-.478.481q.028,2.254,0,4.508c0,.373.108.487.48.479q1.574-.034,3.148,0c.376.008.491-.11.478-.481C1600.817,870.809,1600.836,870.07,1600.836,869.333Z" transform="translate(-50.008 -120.948)" fill="#010101"/>
      <path id="Trazado_637249" data-name="Trazado 637249" d="M1547.279,889.121c0-1.323,0-1.323,1.338-1.323,1.388,0,1.388,0,1.388,1.359s0,1.366-1.381,1.366C1547.279,890.523,1547.279,890.523,1547.279,889.121Z" transform="translate(-23.717 -136.728)" fill="#5895e4"/>
      <path id="Trazado_637250" data-name="Trazado 637250" d="M1550,793.332c0,1.376,0,1.376-1.627,1.376-1.1,0-1.1,0-1.1-1.733,0-.993,0-.993,1.755-.992C1550,791.984,1550,791.984,1550,793.332Z" transform="translate(-23.717 -73.626)" fill="#5895e4"/>
      <path id="Trazado_637251" data-name="Trazado 637251" d="M1581.95,793.391c0,1.317,0,1.317-1.345,1.317-1.381,0-1.381,0-1.381-1.366s0-1.359,1.387-1.359C1581.95,791.983,1581.95,791.983,1581.95,793.391Z" transform="translate(-44.755 -73.626)" fill="#5895e4"/>
      <path id="Trazado_637252" data-name="Trazado 637252" d="M1550,857.209c0,1.376,0,1.376-1.627,1.376-1.1,0-1.1,0-1.1-1.733,0-.993,0-.993,1.755-.992C1550,855.86,1550,855.86,1550,857.209Z" transform="translate(-23.717 -115.694)" fill="#5895e4"/>
      <path id="Trazado_637253" data-name="Trazado 637253" d="M1550,825.329c0,1.317,0,1.317-1.345,1.317-1.381,0-1.381,0-1.381-1.366s0-1.359,1.387-1.359C1550,823.921,1550,823.921,1550,825.329Z" transform="translate(-23.717 -94.66)" fill="#5895e4"/>
      <path id="Trazado_637254" data-name="Trazado 637254" d="M1581.95,825.263c0,1.383,0,1.383-1.619,1.383-1.108,0-1.108,0-1.107-1.725,0-1,0-1,1.747-1C1581.95,823.922,1581.95,823.922,1581.95,825.263Z" transform="translate(-44.755 -94.66)" fill="#5895e4"/>
      <path id="Trazado_637255" data-name="Trazado 637255" d="M1599.269,874.567c0,.737-.017,1.475.007,2.211.012.361-.085.5-.47.488-1.049-.025-2.1-.022-3.148,0-.362.007-.492-.088-.487-.471.021-1.5.019-3.005,0-4.508,0-.36.085-.5.471-.488,1.048.025,2.1.032,3.147,0,.463-.015.494.2.485.56C1599.255,873.092,1599.269,873.83,1599.269,874.567Z" transform="translate(-55.258 -126.189)" fill="#cbe0f7"/>
      <path id="Trazado_637256" data-name="Trazado 637256" d="M1619.235,874.58c0,.737-.018,1.475.008,2.211.013.371-.1.489-.478.481q-1.573-.035-3.148,0c-.372.008-.485-.105-.48-.479q.029-2.254,0-4.508c0-.37.1-.489.478-.481q1.573.035,3.147,0c.372-.008.493.1.48.479C1619.217,873.048,1619.235,873.814,1619.235,874.58Z" transform="translate(-68.408 -126.195)" fill="#cbe0f7"/>
    </g>
  </g>
</svg>
