<svg id="Grupo_970451" data-name="Grupo 970451" xmlns="http://www.w3.org/2000/svg" width="98.408" height="98.408" viewBox="0 0 98.408 98.408">
  <ellipse id="Elipse_5210" data-name="Elipse 5210" cx="49.204" cy="49.204" rx="49.204" ry="49.204" transform="translate(0 0)" fill="#ef8b53"/>
  <g id="Grupo_971640" data-name="Grupo 971640" transform="translate(-548.021 -5.213)">
    <path id="Trazado_638226" data-name="Trazado 638226" d="M600.517,94.518q-17.664,0-35.328,0a7.752,7.752,0,0,1-2.862-15.059,9.6,9.6,0,0,1,2.995-.461c6.5.011,13,0,19.5.019.6,0,.786-.126.783-.761q-.044-7.009,0-14.018c0-.63-.178-.77-.779-.763-2.924.031-5.849,0-8.773.027-.5,0-.68-.155-.749-.623-.195-1.315-.428-2.624-.638-3.936a1.48,1.48,0,0,0-2.179-.9c-1.106.785-2.223,1.555-3.3,2.372-.353.266-.532.218-.824-.077q-4.026-4.06-8.089-8.083c-.336-.332-.336-.527-.06-.893.831-1.1,1.618-2.241,2.414-3.37a1.524,1.524,0,0,0-.869-2.041c-1.362-.23-2.724-.464-4.089-.681-.368-.059-.573-.143-.569-.611q.036-5.756,0-11.512c0-.539.279-.578.65-.638q2.007-.323,4.014-.653a1.538,1.538,0,0,0,.859-2.059c-.814-1.149-1.62-2.3-2.462-3.432-.241-.323-.207-.5.067-.771q4.085-4.056,8.141-8.141c.3-.3.489-.323.832-.066,1.106.827,2.24,1.618,3.368,2.417a1.5,1.5,0,0,0,2.1-.881c.216-1.338.444-2.674.65-4.014.063-.408.181-.61.677-.607q5.718.04,11.437,0c.421,0,.579.12.641.531.212,1.391.455,2.778.692,4.165a1.555,1.555,0,0,0,2.006.846c1.131-.794,2.268-1.581,3.372-2.412a.591.591,0,0,1,.952.069c2.2,2.232,4.431,4.43,6.63,6.662a1.558,1.558,0,0,0,1.226.5c11.175-.013,22.351,0,33.526-.027.709,0,.883.171.882.881q-.031,34.067,0,68.135c0,.71-.174.881-.881.879Q618.495,94.5,600.517,94.518ZM594.592,86.8c.083-1.356.083-1.356,1.458-1.356,4.04,0,8.079-.011,12.119.012.545,0,.73-.135.7-.69a15.208,15.208,0,0,1,0-2.265c.064-.737-.142-.964-.923-.958-5.264.038-10.529.02-15.793.02-1.329,0-1.329,0-1.409-1.315C590.813,79,590.813,79,592.107,79q8.853,0,17.7-.01a2.455,2.455,0,0,1,1.383.406q5.461,3.434,10.938,6.84c.258.161.508.333.8.526l-8,5.01.069.149h.7c6.058,0,12.116-.016,18.174.02.764,0,.87-.253.869-.921q-.024-31.446.005-62.892c0-.739-.217-.879-.906-.878q-22.365.029-44.731,0c-.77,0-.985.154-.983.965q.042,25.063.023,50.126a4.469,4.469,0,0,1-.228,1.77,2.776,2.776,0,0,1-2.638,1.468c-2.219-.03-4.44.013-6.659-.022-.626-.01-.894.12-.839.8a14.753,14.753,0,0,1,0,2.347c-.053.654.209.759.792.755,4.021-.023,8.043-.012,12.064-.012,1.372,0,1.372,0,1.423,1.365a1.756,1.756,0,0,0-.014.39c.135.74-.2.9-.891.879-1.539-.051-3.081-.016-4.621-.016-2.663,0-5.327.022-7.99-.016-.635-.009-.8.183-.759.784a12.556,12.556,0,0,1,0,2.112c-.075.768.139,1,.957.994,9.556-.034,19.113-.022,28.669-.022.287,0,.577-.023.861.005.437.044.6-.111.579-.563a25.2,25.2,0,0,1,.005-2.583c.039-.6-.163-.728-.737-.724-4.047.026-8.094.014-12.141.014C594.678,88.067,594.678,88.067,594.592,86.8Zm4.029-62.147c-1.415-1.4-2.668-2.615-3.9-3.858a.5.5,0,0,0-.783-.047c-.943.7-1.921,1.35-2.855,2.06a.773.773,0,0,1-.977.07,14.977,14.977,0,0,0-3.022-1.263.841.841,0,0,1-.676-.813c-.153-1.11-.369-2.211-.527-3.32-.064-.447-.242-.591-.707-.585q-3.446.04-6.892,0c-.531-.007-.732.166-.8.681-.136,1.059-.347,2.109-.49,3.168a.949.949,0,0,1-.779.906,13.832,13.832,0,0,0-2.947,1.237.779.779,0,0,1-.977-.089c-.915-.692-1.87-1.332-2.791-2.016-.32-.237-.53-.294-.85.033q-2.494,2.545-5.037,5.041a.5.5,0,0,0-.067.785c.718.961,1.389,1.957,2.106,2.919a.677.677,0,0,1,.066.842,14.974,14.974,0,0,0-1.294,3.092.848.848,0,0,1-.811.679c-1.083.162-2.161.353-3.245.511-.439.064-.681.183-.673.724.035,2.323.031,4.646,0,6.969-.006.479.165.633.6.7,1.109.162,2.212.365,3.32.531a.79.79,0,0,1,.779.607,15.887,15.887,0,0,0,1.326,3.164.672.672,0,0,1-.072.84c-.715.963-1.387,1.958-2.1,2.919a.494.494,0,0,0,.062.781q2.537,2.5,5.038,5.039c.318.325.526.28.847.041.9-.669,1.836-1.29,2.728-1.969a.885.885,0,0,1,1.117-.108,12.864,12.864,0,0,0,2.878,1.2.985.985,0,0,1,.789.983c.142,1.059.343,2.109.495,3.167.062.429.215.61.7.6,2.245-.029,4.491-.034,6.735,0,.587.009.681-.211.67-.725-.031-1.435,0-2.871-.017-4.307-.009-.618.273-1.418-.128-1.8-.324-.31-1.069.134-1.633.21a15.5,15.5,0,1,1,2.522-30.132,11.081,11.081,0,0,0,3.589.539C592.751,24.642,595.563,24.658,598.622,24.658ZM585.594,38.885c0-1.983-.028-3.966.017-5.948a1.021,1.021,0,0,0-.715-1.1,7.694,7.694,0,0,0-10.6,4.912,7.2,7.2,0,0,0,2.192,7.816,7.422,7.422,0,0,0,8.49,1.336.9.9,0,0,0,.637-.99C585.57,42.9,585.594,40.894,585.594,38.885Zm0,9.613c-.232.062-.407.1-.574.155a10.184,10.184,0,0,1-4.85.462,10.335,10.335,0,0,1-2.142-19.893,10.245,10.245,0,0,1,6.9-.142c.212.068.584.361.631-.026a15.808,15.808,0,0,0,.018-2.344c-.007-.234-.275-.2-.435-.252a11.615,11.615,0,0,0-3.549-.5,12.916,12.916,0,1,0,3.5,25.376c.3-.084.527-.133.513-.53C585.575,50.058,585.595,49.306,585.595,48.5ZM570.069,86.755c0-1.512-.01-3.024.007-4.535,0-.433-.064-.682-.588-.662-1.718.065-3.439-.081-5.156.091a5.1,5.1,0,0,0-4.6,5.131,5.044,5.044,0,0,0,4.727,5.079c1.664.088,3.336.026,5,.063.488.011.625-.164.617-.632C570.055,89.779,570.069,88.267,570.069,86.755Zm5.176-.029V83.446c0-1.9,0-1.884-1.924-1.893-.538,0-.708.133-.7.69.029,2.577.013,5.155.013,7.733,0,2.011,0,1.99,1.987,1.968.541-.006.643-.2.635-.687C575.229,89.747,575.245,88.237,575.245,86.726Zm36.292-4.049v8.159l6.527-4.086Z" transform="translate(0 0)" fill="#040403"/>
    <path id="Trazado_638227" data-name="Trazado 638227" d="M599.7,183.347c1.275,0,1.275,0,1.275,1.311,0,1.257,0,1.257-1.247,1.257-1.322,0-1.322,0-1.322-1.342C598.408,183.347,598.408,183.347,599.7,183.347Z" transform="translate(-28.342 -115.983)"/>
    <path id="Trazado_638228" data-name="Trazado 638228" d="M614.9,184.647c0-1.3,0-1.3,1.294-1.3,1.271,0,1.271,0,1.271,1.236,0,1.332,0,1.332-1.327,1.332C614.9,185.915,614.9,185.915,614.9,184.647Z" transform="translate(-39.657 -115.983)"/>
    <path id="Trazado_638229" data-name="Trazado 638229" d="M631.389,184.574c0-1.227,0-1.227,1.209-1.227,1.354,0,1.354,0,1.354,1.387,0,1.181,0,1.181-1.166,1.181h-.078C631.389,185.915,631.389,185.915,631.389,184.574Z" transform="translate(-50.97 -115.983)"/>
    <path id="Trazado_638230" data-name="Trazado 638230" d="M614.9,201.127c0-1.291,0-1.291,1.3-1.291,1.266,0,1.266,0,1.266,1.24,0,1.325,0,1.325-1.333,1.325C614.9,202.4,614.9,202.4,614.9,201.127Z" transform="translate(-39.657 -127.296)"/>
    <path id="Trazado_638231" data-name="Trazado 638231" d="M633.952,201.136c0,1.264,0,1.264-1.237,1.264-1.326,0-1.326,0-1.326-1.334,0-1.23,0-1.23,1.2-1.23h.078C633.952,199.836,633.952,199.836,633.952,201.136Z" transform="translate(-50.97 -127.296)"/>
    <path id="Trazado_638232" data-name="Trazado 638232" d="M655.318,108.408a4.468,4.468,0,0,0,.228-1.77q0-25.063-.023-50.126c0-.811.214-.966.983-.965q22.366.036,44.731,0c.689,0,.907.139.906.878q-.034,31.446-.005,62.892c0,.669-.105.926-.869.921-6.058-.037-12.116-.02-18.174-.02h-.7l-.069-.149,8-5.01c-.293-.193-.544-.365-.8-.526q-5.47-3.418-10.938-6.84a2.455,2.455,0,0,0-1.383-.406q-8.852.023-17.7.01c-1.293,0-1.293,0-1.366,1.252A8.841,8.841,0,0,1,655.318,108.408Zm44.234-41.184c0-2.819-.013-5.638.011-8.457,0-.5-.12-.652-.64-.65q-8.419.029-16.839,0c-.568,0-.681.175-.679.706q.028,8.379,0,16.757c0,.548.145.7.7.7q8.38-.03,16.761,0c.634,0,.708-.216.7-.758C699.538,72.757,699.552,69.99,699.552,67.224ZM678.89,89.166H659.862c-1.707,0-1.668,0-1.724,1.691-.024.729.131.951.915.949q19.3-.043,38.6-.02c1.9,0,1.871,0,1.913-1.882.015-.654-.212-.751-.791-.75Q688.835,89.183,678.89,89.166Zm-.085-2.554h19.028c1.72,0,1.684,0,1.737-1.746.022-.712-.171-.892-.888-.891q-19.341.035-38.682.017c-1.854,0-1.825,0-1.859,1.865-.011.621.163.771.775.769C665.545,86.6,672.175,86.613,678.8,86.613Zm.071,10.346h18.95c1.728,0,1.695,0,1.743-1.734.019-.695-.144-.9-.88-.9q-19.341.038-38.682.019c-1.86,0-1.833,0-1.866,1.861-.011.61.147.775.768.773C665.564,96.95,672.22,96.959,678.876,96.959Zm-.027,5.173H697.8c1.758,0,1.72,0,1.773-1.783.021-.7-.169-.851-.855-.85q-19.38.034-38.759.017c-1.806,0-1.772,0-1.818,1.834-.017.67.186.8.822.8C665.589,102.122,672.219,102.131,678.848,102.131ZM668.555,65.915h-8.616c-1.784,0-1.753,0-1.8,1.76-.016.633.121.822.794.819,6.031-.03,12.062-.018,18.093-.018,1.832,0,1.807,0,1.84-1.794.011-.6-.124-.79-.76-.783C674.926,65.934,671.74,65.915,668.555,65.915Zm-.105,7.734h8.694c1.716,0,1.685,0,1.729-1.751.016-.636-.127-.828-.8-.825-6.03.029-12.061.017-18.092.017-1.829,0-1.806,0-1.837,1.794-.01.584.107.789.749.782C662.079,73.628,665.265,73.648,668.45,73.648Zm.08-10.345h8.539c1.791,0,1.743,0,1.81-1.753.029-.751-.249-.826-.882-.823-5.98.022-11.959.013-17.939.013-1.913,0-1.879,0-1.917,1.878-.013.637.219.7.755.7C662.106,63.291,665.318,63.3,668.53,63.3Zm23.2,44h5.942c1.888,0,1.863,0,1.891-1.889.009-.575-.123-.744-.723-.74-4.273.028-8.547.015-12.821.015-2.036,0-2.019,0-2.008,2.019,0,.477.117.612.6.606C686.991,107.289,689.362,107.3,691.734,107.3Zm2.647,3.873c0-1.313,0-1.313-1.282-1.313h-.078c-1.255,0-1.255,0-1.255,1.278,0,1.337,0,1.337,1.337,1.337C694.381,112.478,694.381,112.478,694.381,111.176Zm2.562.044c0,1.257,0,1.257,1.26,1.257h.078c1.274,0,1.274,0,1.274-1.3s0-1.311-1.281-1.311C696.942,109.863,696.942,109.863,696.942,111.22Zm2.612,5.139c0-1.321,0-1.321-1.29-1.321-1.321,0-1.321,0-1.321,1.308s0,1.3,1.308,1.3S699.554,117.65,699.554,116.359ZM689.2,80.11c0,1.329,0,1.329,1.188,1.329,1.387,0,1.387,0,1.387-1.371,0-1.249,0-1.249-1.272-1.249C689.2,78.82,689.2,78.82,689.2,80.11Zm5.173,0c0,1.329,0,1.329,1.188,1.329,1.39,0,1.39,0,1.39-1.371,0-1.249,0-1.249-1.276-1.249C694.375,78.82,694.375,78.82,694.375,80.11Zm-9.022,1.329c1.245,0,1.245,0,1.245-1.279v-.078c0-1.263,0-1.263-1.257-1.263-1.313,0-1.313,0-1.313,1.276C684.028,81.439,684.028,81.439,685.353,81.439Z" transform="translate(-67.388 -28.3)" fill="#e4e7ea"/>
    <path id="Trazado_638233" data-name="Trazado 638233" d="M604.306,30.346c-3.059,0-5.871-.016-8.683.007a11.081,11.081,0,0,1-3.589-.539,15.5,15.5,0,1,0-2.522,30.132c.564-.077,1.309-.52,1.633-.21.4.383.118,1.183.127,1.8.021,1.435-.014,2.872.017,4.307.011.514-.083.735-.67.725-2.245-.035-4.491-.03-6.735,0-.482.006-.635-.174-.7-.6-.152-1.058-.352-2.108-.495-3.167a.985.985,0,0,0-.789-.983,12.863,12.863,0,0,1-2.878-1.2.885.885,0,0,0-1.117.108c-.892.679-1.828,1.3-2.728,1.969-.322.239-.529.283-.847-.041q-2.493-2.545-5.038-5.039a.494.494,0,0,1-.062-.781c.717-.961,1.39-1.957,2.1-2.919a.672.672,0,0,0,.072-.84,15.891,15.891,0,0,1-1.326-3.164.79.79,0,0,0-.779-.607c-1.108-.166-2.211-.369-3.32-.531-.432-.063-.6-.218-.6-.7.029-2.323.033-4.646,0-6.969-.008-.541.234-.66.673-.724,1.083-.158,2.162-.349,3.245-.511a.848.848,0,0,0,.811-.679,14.974,14.974,0,0,1,1.294-3.092.677.677,0,0,0-.066-.842c-.717-.962-1.387-1.958-2.106-2.919a.5.5,0,0,1,.067-.785q2.537-2.5,5.038-5.041c.32-.327.53-.27.85-.033.921.684,1.876,1.323,2.791,2.016a.779.779,0,0,0,.977.089,13.832,13.832,0,0,1,2.947-1.237.949.949,0,0,0,.779-.906c.143-1.059.354-2.108.49-3.168.066-.515.267-.688.8-.681q3.446.043,6.892,0c.465-.005.643.139.707.585.158,1.109.374,2.211.527,3.32a.841.841,0,0,0,.676.813,14.982,14.982,0,0,1,3.022,1.263.773.773,0,0,0,.977-.07c.934-.711,1.912-1.362,2.855-2.06a.5.5,0,0,1,.783.047C601.639,27.731,602.891,28.95,604.306,30.346ZM573.658,29.06c-.173.161-.33.294-.471.441-.429.448-1.176.9-1.183,1.354s.78.874,1.163,1.354.653.44,1-.013c.375-.482,1.212-.837,1.157-1.343-.054-.49-.773-.91-1.2-1.356C573.983,29.352,573.829,29.22,573.658,29.06ZM575.7,58.249a9.7,9.7,0,0,1-.981-.728c-1.065-1.04-1.058-1.048-2.093-.01-.79.792-.79.792.013,1.595,1.022,1.022,1.018,1.018,2.037.015C574.935,58.867,575.229,58.648,575.7,58.249Zm12.965,5.8c0-1.343,0-1.343-1.344-1.344-1.216,0-1.216,0-1.216,1.244,0,1.33,0,1.33,1.35,1.33C588.666,65.275,588.666,65.275,588.666,64.044Zm-1.313-37.59c1.313,0,1.313,0,1.313-1.283s0-1.274-1.242-1.274c-1.318,0-1.318,0-1.318,1.28S586.105,26.455,587.353,26.455ZM568.042,45.863c1.212,0,1.212,0,1.212-1.228,0-1.332,0-1.332-1.347-1.332-1.21,0-1.21,0-1.21,1.233C566.7,45.863,566.7,45.863,568.042,45.863Z" transform="translate(-5.685 -5.688)" fill="#f3c54e"/>
    <path id="Trazado_638234" data-name="Trazado 638234" d="M633.149,223.945a8.841,8.841,0,0,0,2.81.144c.08,1.315.08,1.315,1.409,1.315,5.264,0,10.529.018,15.793-.02.781-.006.987.221.923.958a15.217,15.217,0,0,0,0,2.265c.035.555-.151.693-.7.69-4.039-.023-8.079-.012-12.119-.012-1.374,0-1.374,0-1.458,1.356l-2.519.009c-.051-1.366-.051-1.366-1.423-1.366-4.021,0-8.042-.011-12.064.012-.583,0-.845-.1-.792-.755a14.76,14.76,0,0,0,0-2.347c-.055-.685.214-.815.839-.8,2.219.036,4.439-.008,6.659.022A2.776,2.776,0,0,0,633.149,223.945Z" transform="translate(-45.218 -143.837)" fill="#6ec8ac"/>
    <path id="Trazado_638235" data-name="Trazado 638235" d="M637.278,245.288l2.519-.009c.086,1.262.086,1.262,1.4,1.262,4.047,0,8.094.012,12.141-.014.575,0,.777.122.737.724a25.217,25.217,0,0,0-.005,2.583c.017.452-.142.607-.579.563-.284-.029-.574-.005-.861-.005-9.556,0-19.113-.012-28.669.022-.818,0-1.032-.225-.957-.993a12.556,12.556,0,0,0,0-2.112c-.044-.6.124-.793.759-.784,2.663.039,5.326.016,7.99.016,1.54,0,3.082-.035,4.621.016.692.023,1.026-.139.891-.879A1.759,1.759,0,0,1,637.278,245.288Z" transform="translate(-45.205 -158.474)" fill="#f5d67e"/>
    <path id="Trazado_638236" data-name="Trazado 638236" d="M611.13,73.993c0,.807-.019,1.56.008,2.311.014.4-.214.446-.513.53a12.916,12.916,0,1,1-3.5-25.376,11.614,11.614,0,0,1,3.549.5c.16.05.428.018.435.252a15.816,15.816,0,0,1-.018,2.344c-.047.387-.419.094-.631.026a10.246,10.246,0,0,0-6.9.142A10.335,10.335,0,0,0,605.7,74.61a10.184,10.184,0,0,0,4.85-.462C610.723,74.09,610.9,74.055,611.13,73.993Z" transform="translate(-25.535 -25.494)" fill="#f1d37d"/>
    <path id="Trazado_638237" data-name="Trazado 638237" d="M575.821,233.759c0,1.512-.015,3.024.008,4.535.008.468-.129.643-.617.632-1.668-.037-3.339.025-5-.063a5.044,5.044,0,0,1-4.727-5.079,5.1,5.1,0,0,1,4.6-5.131c1.717-.172,3.439-.026,5.156-.091.524-.02.593.229.588.662C575.81,230.735,575.821,232.247,575.821,233.759Z" transform="translate(-5.751 -147.004)" fill="#959ca6"/>
    <path id="Trazado_638238" data-name="Trazado 638238" d="M609.17,233.723c0,1.51-.016,3.02.01,4.53.009.484-.094.681-.635.687-1.987.022-1.987.043-1.987-1.968,0-2.578.017-5.155-.013-7.733-.006-.557.164-.692.7-.69,1.924.008,1.924-.012,1.924,1.893Z" transform="translate(-33.924 -146.997)" fill="#eec14c"/>
    <path id="Trazado_638239" data-name="Trazado 638239" d="M730.523,232.132l6.527,4.074-6.527,4.086Z" transform="translate(-118.986 -149.454)" fill="#838d98"/>
    <path id="Trazado_638240" data-name="Trazado 638240" d="M756.567,72.839c0,2.767-.014,5.534.012,8.3.005.542-.068.762-.7.758q-8.38-.044-16.761,0c-.551,0-.7-.151-.7-.7q.029-8.378,0-16.757c0-.531.111-.708.679-.706q8.419.033,16.839,0c.52,0,.645.146.64.65C756.554,67.2,756.567,70.02,756.567,72.839Zm-9.015,6.422c1.93,0,3.861-.014,5.791.01.469.006.627-.11.625-.6q-.029-5.829,0-11.657c0-.509-.143-.661-.656-.659q-5.83.029-11.66,0c-.478,0-.616.126-.614.611q.029,5.829,0,11.657c0,.506.128.662.646.654C743.639,79.242,745.6,79.26,747.552,79.26Z" transform="translate(-124.403 -33.915)" fill="#060505"/>
    <path id="Trazado_638241" data-name="Trazado 638241" d="M685.048,162.622q9.945,0,19.889-.012c.579,0,.806.1.791.75-.042,1.881-.008,1.882-1.913,1.882q-19.3,0-38.6.02c-.784,0-.94-.22-.915-.949.056-1.689.017-1.691,1.724-1.691Z" transform="translate(-73.546 -101.756)" fill="#060606"/>
    <path id="Trazado_638242" data-name="Trazado 638242" d="M684.972,148.749c-6.63,0-13.26-.008-19.889.014-.612,0-.787-.149-.775-.769.034-1.864.006-1.865,1.859-1.865q19.341,0,38.682-.017c.717,0,.91.179.888.891-.053,1.745-.016,1.746-1.737,1.746Z" transform="translate(-73.554 -90.436)" fill="#060606"/>
    <path id="Trazado_638243" data-name="Trazado 638243" d="M685.044,181.709c-6.656,0-13.312-.009-19.967.015-.62,0-.778-.163-.768-.773.033-1.86.006-1.861,1.866-1.861q19.341,0,38.682-.019c.736,0,.9.208.88.9-.048,1.733-.015,1.734-1.743,1.734Z" transform="translate(-73.556 -113.05)" fill="#060606"/>
    <path id="Trazado_638244" data-name="Trazado 638244" d="M685.01,198.2c-6.63,0-13.259-.009-19.889.015-.636,0-.838-.128-.822-.8.046-1.833.012-1.834,1.818-1.834q19.38,0,38.759-.017c.686,0,.876.153.855.85-.054,1.782-.016,1.783-1.774,1.783Z" transform="translate(-73.549 -124.364)" fill="#060606"/>
    <path id="Trazado_638245" data-name="Trazado 638245" d="M674.726,88.54c3.185,0,6.371.019,9.556-.016.636-.007.771.186.76.783-.034,1.794-.008,1.794-1.84,1.794-6.031,0-12.062-.013-18.093.018-.673,0-.81-.185-.794-.819.043-1.759.013-1.76,1.8-1.76Z" transform="translate(-73.559 -50.925)"/>
    <path id="Trazado_638246" data-name="Trazado 638246" d="M674.628,107.583c-3.185,0-6.37-.02-9.555.017-.643.008-.76-.2-.749-.782.031-1.794.008-1.794,1.837-1.794,6.031,0,12.061.012,18.092-.017.671,0,.814.189.8.825-.043,1.75-.013,1.751-1.729,1.751Z" transform="translate(-73.566 -62.234)"/>
    <path id="Trazado_638247" data-name="Trazado 638247" d="M674.7,74.623c-3.212,0-6.423-.012-9.635.011-.536,0-.768-.06-.755-.7.038-1.878,0-1.878,1.917-1.878,5.98,0,11.959.009,17.939-.013.633,0,.911.073.882.823-.066,1.751-.019,1.753-1.81,1.753Z" transform="translate(-73.554 -39.621)"/>
    <path id="Trazado_638248" data-name="Trazado 638248" d="M754.453,214.682c-2.372,0-4.743-.015-7.114.013-.488.005-.6-.13-.6-.606-.011-2.019-.029-2.019,2.008-2.019,4.274,0,8.548.013,12.821-.015.6,0,.731.164.723.74-.028,1.888,0,1.889-1.891,1.889Z" transform="translate(-130.107 -135.679)" fill="#060606"/>
    <path id="Trazado_638249" data-name="Trazado 638249" d="M774.042,229.893c0,1.3,0,1.3-1.279,1.3-1.337,0-1.337,0-1.337-1.337,0-1.278,0-1.278,1.255-1.278h.078C774.042,228.58,774.042,228.58,774.042,229.893Z" transform="translate(-147.05 -147.017)" fill="#0c0c0c"/>
    <path id="Trazado_638250" data-name="Trazado 638250" d="M787.919,229.938c0-1.358,0-1.358,1.331-1.358,1.281,0,1.281,0,1.281,1.311s0,1.3-1.274,1.3h-.078C787.919,231.195,787.919,231.195,787.919,229.938Z" transform="translate(-158.365 -147.017)" fill="#0c0c0c"/>
    <path id="Trazado_638251" data-name="Trazado 638251" d="M790.531,246.389c0,1.29,0,1.29-1.3,1.29s-1.308,0-1.308-1.3,0-1.308,1.322-1.308C790.531,245.068,790.531,245.068,790.531,246.389Z" transform="translate(-158.365 -158.33)" fill="#0c0c0c"/>
    <path id="Trazado_638252" data-name="Trazado 638252" d="M763.26,130.977c0-1.291,0-1.291,1.3-1.291,1.272,0,1.272,0,1.272,1.249,0,1.371,0,1.371-1.387,1.371C763.26,132.306,763.26,132.306,763.26,130.977Z" transform="translate(-141.446 -79.167)" fill="#060606"/>
    <path id="Trazado_638253" data-name="Trazado 638253" d="M779.74,130.977c0-1.291,0-1.291,1.3-1.291,1.276,0,1.276,0,1.276,1.249,0,1.371,0,1.371-1.39,1.371C779.74,132.306,779.74,132.306,779.74,130.977Z" transform="translate(-152.753 -79.167)" fill="#060606"/>
    <path id="Trazado_638254" data-name="Trazado 638254" d="M748.1,132.306c-1.325,0-1.325,0-1.325-1.344,0-1.276,0-1.276,1.313-1.276,1.257,0,1.257,0,1.257,1.263v.078C749.348,132.306,749.348,132.306,748.1,132.306Z" transform="translate(-130.138 -79.167)" fill="#060606"/>
    <path id="Trazado_638255" data-name="Trazado 638255" d="M588.124,43.2c.171.16.325.292.466.437.431.446,1.15.866,1.2,1.356.056.506-.782.861-1.157,1.343-.352.453-.63.482-1,.013s-1.17-.912-1.163-1.354.755-.906,1.183-1.354C587.795,43.5,587.951,43.364,588.124,43.2Z" transform="translate(-20.151 -19.831)" fill="#060505"/>
    <path id="Trazado_638256" data-name="Trazado 638256" d="M590.237,132.884c-.472.4-.765.618-1.024.873-1.019,1-1.015,1.007-2.038-.015-.8-.8-.8-.8-.013-1.595,1.035-1.037,1.028-1.03,2.093.01A9.7,9.7,0,0,0,590.237,132.884Z" transform="translate(-20.222 -80.323)" fill="#040403"/>
    <path id="Trazado_638257" data-name="Trazado 638257" d="M633.955,151.716c0,1.23,0,1.23-1.21,1.23-1.35,0-1.35,0-1.35-1.33,0-1.244,0-1.244,1.216-1.244C633.955,150.372,633.955,150.372,633.955,151.716Z" transform="translate(-50.974 -93.359)"/>
    <path id="Trazado_638258" data-name="Trazado 638258" d="M632.642,29.315c-1.247,0-1.247,0-1.247-1.276s0-1.28,1.318-1.28c1.242,0,1.242,0,1.242,1.274S633.955,29.315,632.642,29.315Z" transform="translate(-50.974 -8.549)"/>
    <path id="Trazado_638259" data-name="Trazado 638259" d="M570.908,91.137c-1.345,0-1.345,0-1.345-1.327,0-1.233,0-1.233,1.21-1.233,1.347,0,1.347,0,1.347,1.332C572.12,91.137,572.12,91.137,570.908,91.137Z" transform="translate(-8.552 -50.962)"/>
    <path id="Trazado_638260" data-name="Trazado 638260" d="M753.274,84.984c-1.957,0-3.913-.018-5.869.012-.518.008-.649-.148-.646-.654q.03-5.829,0-11.657c0-.485.136-.613.614-.611q5.83.027,11.66,0c.513,0,.659.15.656.659q-.029,5.828,0,11.657c0,.495-.156.61-.625.6C757.135,84.97,755.2,84.984,753.274,84.984Z" transform="translate(-130.125 -39.639)" fill="#ee8774"/>
  </g>
</svg>
