<svg xmlns="http://www.w3.org/2000/svg" width="85" height="85" viewBox="0 0 85 85">
  <g id="Grupo_970448" data-name="Grupo 970448" transform="translate(-180 -6099)">
    <rect id="Rectángulo_34178" data-name="Rectángulo 34178" width="85" height="85" transform="translate(180 6099)" fill="none"/>
    <g id="Grupo_971639" data-name="Grupo 971639" transform="translate(497.921 5978.068)">
      <path id="Trazado_638209" data-name="Trazado 638209" d="M-296.673,177.341a1.263,1.263,0,0,1-1.486,1.1c-.616-.035-1.238.026-1.853-.017-.5-.036-.706.093-.667.633.047.664,0,1.334.013,2a1.592,1.592,0,0,1-.868,1.593,1.562,1.562,0,0,1-1.728-.248c-3.119-2.3-6.251-4.59-9.367-6.9a1.528,1.528,0,0,1,.025-2.695c3.117-2.265,6.247-4.51,9.366-6.771a1.533,1.533,0,0,1,1.728-.219,1.58,1.58,0,0,1,.843,1.535c0,.692,0,1.384,0,2.076,0,.256-.025.479.364.476,1.75-.016,3.5-.007,5.353-.007a23.985,23.985,0,0,1-1.532-3.85,18.96,18.96,0,0,1-.771-5.776c.016-.492-.13-.611-.614-.616-2.57-.028-5.148.18-7.709-.1a7.14,7.14,0,0,1-6.1-8.2,1.255,1.255,0,0,0-.238-1.087,7.38,7.38,0,0,1,.037-8.952,7.427,7.427,0,0,1,8.626-2.444.635.635,0,0,0,.9-.226,8.418,8.418,0,0,1,9.645-2.747.715.715,0,0,0,.884-.2,10.15,10.15,0,0,1,16.773,3.949c.125.353.243.568.682.621a20.273,20.273,0,0,1,17.3,15.748c.117.51.274.682.806.673,1.854-.034,3.709-.025,5.564,0,.416,0,.562-.1.543-.532-.032-.74-.012-1.483-.007-2.224a1.543,1.543,0,0,1,.843-1.46,1.478,1.478,0,0,1,1.667.179c3.164,2.326,6.334,4.643,9.486,6.986a1.513,1.513,0,0,1-.039,2.647c-3.134,2.283-6.283,4.545-9.423,6.818a1.512,1.512,0,0,1-1.733.167,1.557,1.557,0,0,1-.8-1.483c0-.717-.011-1.434,0-2.15.007-.315-.093-.435-.422-.428-.89.018-1.78.016-2.67,0-.394-.007-.417.123-.237.429q.5.861.975,1.742a3.116,3.116,0,0,1-2.761,4.725c-.816.023-1.634.034-2.447-.007-.51-.026-.666.114-.666.645a30.988,30.988,0,0,1-.081,4.294,6.375,6.375,0,0,1-6.122,5.508c-1.161.031-2.325.034-3.486,0-.5-.013-.648.157-.622.636.035.641.026,1.286,0,1.927-.015.387.121.524.51.51.692-.024,1.385-.019,2.077,0a2.53,2.53,0,0,1,2.63,2.537c.048,1.11.046,2.225,0,3.336a2.55,2.55,0,0,1-2.54,2.567c-1.21.049-2.423.017-3.635.011a1.207,1.207,0,0,1-1.264-1.108c.278-.939.491-1.107,1.459-1.113.986-.006,1.974-.027,2.959.008.621.022.83-.225.8-.827-.037-.812-.037-1.628,0-2.44.027-.6-.214-.762-.782-.753-1.776.028-3.552.007-5.328.011q-5.141.013-10.283.032c-2.2-.01-4.391-.016-6.586-.034-.4,0-.6.138-.593.554q.014,1.443,0,2.886c0,.422.229.565.606.562l6.585-.039q3.4.019,6.8.039c.966.007,1.177.173,1.457,1.112-.282.9-.551,1.11-1.486,1.111q-6.677.006-13.354,0a2.614,2.614,0,0,1-2.849-2.8c-.016-.964-.018-1.928,0-2.892a2.578,2.578,0,0,1,2.788-2.765c1.189-.017,1.19-.017,1.189-1.213,0-1.607.016-3.214-.021-4.819-.026-1.121-.1-1.157-1.179-1.157-1.187,0-2.375-.027-3.561.009a1.278,1.278,0,0,1-1.486-1.107c.3-.929.565-1.114,1.547-1.138a13.763,13.763,0,0,0,2.334-.074,20.508,20.508,0,0,1-3.262-3.465,1.169,1.169,0,0,0-1.107-.535c-2.25.021-4.5.015-6.75.007-1.31,0-1.857-.553-1.867-1.84,0-.532,0-1.063,0-1.763l-5.614,4.1-2.184,1.536,7.747,5.7c.142-1-.07-1.894.155-2.76A1.833,1.833,0,0,1-301,176.2c.931.026,1.863,0,2.795.007C-297.239,176.213-296.969,176.416-296.673,177.341Zm-9.312-26.292a5.227,5.227,0,0,0,5.287-5.209,5.228,5.228,0,0,0-5.288-5.21,5.21,5.21,0,0,0-5.2,5.173A5.211,5.211,0,0,0-305.985,151.049Zm.437,2.277a8.747,8.747,0,0,1-4.009-.936,4.986,4.986,0,0,0,1.672,3.778,5.8,5.8,0,0,0,4.713,1.247c.271.011.541.032.812.032q9.11,0,18.22,0c1.053,0,1.251.143,1.562,1.086-.283.931-.552,1.133-1.534,1.14q-2.925.021-5.849.037c-1.456-.012-2.912.006-4.366-.052-.6-.024-.728.175-.719.739a17.907,17.907,0,0,0,7.1,14.4,6.436,6.436,0,0,1,2.642,5.5c-.039,1.579,0,3.159-.011,4.739,0,.352,0,.614.491.6,1.554-.037,3.109-.034,4.663-.046,2.916.012,5.832.017,8.748.044.408,0,.5-.152.492-.521-.021-.741-.016-1.482,0-2.224a2.391,2.391,0,0,1,2.558-2.545c1.113-.009,2.225,0,3.338,0a4.221,4.221,0,0,0,4.419-4.43c.011-1.161-.005-2.323,0-3.484a2.327,2.327,0,0,1,2.532-2.534c.766-.012,1.533,0,2.3,0,1.469,0,1.8-.551,1.094-1.811-.966-1.72-1.878-3.474-2.921-5.146a9.322,9.322,0,0,1-1.349-4.374,18.041,18.041,0,0,0-14.525-15.9c-1.008-.177-1.007-.177-1.047.876-.008.2-.013.4-.037.591-.141,1.111-.143,1.11.94,1.17a7.15,7.15,0,0,1,6.682,6.872,7.153,7.153,0,0,1-6.247,7.415,48.508,48.508,0,0,1-4.964.087c-.985.015-1.254-.2-1.536-1.137a1.277,1.277,0,0,1,1.491-1.1c1.358.036,2.719.04,4.078,0a4.979,4.979,0,0,0,4.932-4.347,4.959,4.959,0,0,0-3.829-5.473,12.992,12.992,0,0,0-2.807-.115c-1.407-.02-1.828-.6-1.365-1.936a7.6,7.6,0,0,0,.034-5.152,7.62,7.62,0,0,0-6.061-5.269,7.617,7.617,0,0,0-7.561,2.72c-.758.879-.984.938-2.023.425a5.533,5.533,0,0,0-2.186-.625,6.129,6.129,0,0,0-5.6,2.324c-.16.188-.328.356-.059.619a7.785,7.785,0,0,1,2.218,5.162,8.654,8.654,0,0,1-1.023,3.748A7.636,7.636,0,0,1-305.548,153.326Zm57.6,1.9c0,.672,0,1.166,0,1.659,0,1.556-.48,2.039-2.031,2.04-2.025,0-4.05.012-6.074-.009-.448,0-.618.1-.568.576a2.6,2.6,0,0,0,.322,1.189,15.6,15.6,0,0,1,.971,1.742.948.948,0,0,0,1.039.587c1.506-.03,3.012-.017,4.519-.009,1.263.007,1.811.554,1.823,1.8.005.551,0,1.1,0,1.785l7.792-5.632Z" fill="#040404"/>
      <path id="Trazado_638210" data-name="Trazado 638210" d="M-285.058,261.883c-.3-.925-.565-1.128-1.53-1.133-.932,0-1.864.018-2.795-.007a1.833,1.833,0,0,0-1.795.909l-5.36-3.947a.685.685,0,0,1-.358-.524l5.614-4.1c0,.7,0,1.231,0,1.763.01,1.287.557,1.836,1.867,1.84,2.25.008,4.5.014,6.75-.007a1.169,1.169,0,0,1,1.107.535,20.509,20.509,0,0,0,3.262,3.465,13.761,13.761,0,0,1-2.334.074c-.981.023-1.25.209-1.547,1.138Z" transform="translate(-11.615 -84.542)" fill="#e95f39"/>
      <path id="Trazado_638211" data-name="Trazado 638211" d="M-199.792,323.169c-.28-.939-.491-1.105-1.457-1.112q-3.4-.023-6.8-.039-.007-1.964-.013-3.929,5.142-.016,10.283-.032c1.776,0,3.552.017,5.328-.011.568-.009.809.158.782.753-.037.812-.037,1.628,0,2.44.027.6-.182.849-.8.827-.985-.035-1.973-.014-2.959-.008-.967.006-1.181.174-1.459,1.113Z" transform="translate(-74.04 -130.195)" fill="#829fae"/>
      <path id="Trazado_638212" data-name="Trazado 638212" d="M-224.237,181.716c.282.932.551,1.152,1.536,1.137a48.517,48.517,0,0,0,4.964-.087,7.153,7.153,0,0,0,6.247-7.415,7.15,7.15,0,0,0-6.682-6.872c-1.082-.06-1.08-.059-.94-1.17.025-.2.03-.394.037-.591.04-1.053.039-1.053,1.047-.876a18.041,18.041,0,0,1,14.525,15.9,9.321,9.321,0,0,0,1.349,4.374c1.043,1.672,1.955,3.426,2.921,5.146.708,1.26.375,1.809-1.094,1.811-.766,0-1.533-.009-2.3,0a2.327,2.327,0,0,0-2.532,2.534c-.009,1.161.007,2.323,0,3.484a4.221,4.221,0,0,1-4.419,4.43c-1.113.007-2.225-.006-3.338,0a2.391,2.391,0,0,0-2.558,2.545c-.012.741-.017,1.483,0,2.224.01.369-.085.525-.492.521-2.916-.027-5.832-.032-8.748-.044q0-3.553-.006-7.107a4.568,4.568,0,0,0-1.715-3.613c-.988-.82-1.935-1.672-2.837-2.58a18.58,18.58,0,0,1-4.509-8.014,34.3,34.3,0,0,1-.731-4.565q2.925-.018,5.849-.037c.982-.007,1.251-.21,1.534-1.14Z" transform="translate(-55.453 -23.181)" fill="#f6ddb5"/>
      <path id="Trazado_638213" data-name="Trazado 638213" d="M-261.074,163.791h-2.889c-.311-.943-.509-1.086-1.562-1.086q-9.11,0-18.22,0c-.271,0-.541-.021-.812-.032-.3-.3-.594-.593-.894-.887a4.614,4.614,0,0,1-1.482-3.2,7.636,7.636,0,0,0,6.094-3.807,8.653,8.653,0,0,0,1.023-3.748c.539-.534.27-1.21.3-1.823a7.988,7.988,0,0,1,1.709-4.747c.442-.564,1.153-.848,1.438-1.535a5.533,5.533,0,0,1,2.186.625c1.038.513,1.264.455,2.023-.425a7.617,7.617,0,0,1,7.561-2.72,7.62,7.62,0,0,1,6.061,5.269,7.6,7.6,0,0,1-.034,5.152c-.464,1.334-.042,1.916,1.365,1.936a12.993,12.993,0,0,1,2.807.115,4.959,4.959,0,0,1,3.829,5.473,4.979,4.979,0,0,1-4.932,4.347c-1.358.039-2.719.036-4.078,0A1.277,1.277,0,0,0-261.074,163.791Zm-8.8-8.989q3.521,0,7.042,0a1.441,1.441,0,0,0,1.167-.346,1.087,1.087,0,0,0,.224-1.173,1.092,1.092,0,0,0-1.114-.706c-1.112-.011-2.224-.007-3.335-.007h-10.525c-.2,0-.4-.007-.593,0-.8.039-1.3.482-1.294,1.129s.509,1.093,1.314,1.1C-274.614,154.808-272.242,154.8-269.87,154.8Zm.1-6.155q-3.558,0-7.116,0c-.877,0-1.386.39-1.411,1.066-.026.7.518,1.155,1.413,1.156q7.079.006,14.158,0c.866,0,1.358-.421,1.357-1.12s-.478-1.1-1.359-1.1Q-266.25,148.642-269.771,148.647Zm-1.876,10.1c1.779,0,3.558,0,5.336,0,.893,0,1.366-.381,1.379-1.085s-.472-1.135-1.334-1.137q-5.336-.008-10.672,0c-.846,0-1.371.451-1.361,1.129s.525,1.09,1.39,1.092C-275.154,158.746-273.4,158.743-271.646,158.743Z" transform="translate(-18.616 -5.256)" fill="#cdebf9"/>
      <path id="Trazado_638214" data-name="Trazado 638214" d="M-246.531,223.279a34.291,34.291,0,0,0,.731,4.565,18.581,18.581,0,0,0,4.509,8.015c.9.908,1.849,1.761,2.837,2.58a4.568,4.568,0,0,1,1.715,3.613q.006,3.553.006,7.107c-1.555.012-3.109.009-4.663.046-.491.012-.492-.25-.491-.6.008-1.58-.028-3.16.011-4.739a6.436,6.436,0,0,0-2.642-5.5,17.907,17.907,0,0,1-7.1-14.4c-.009-.564.116-.763.719-.738C-249.443,223.285-247.986,223.267-246.531,223.279Z" transform="translate(-43.432 -63.566)" fill="#f4d4a1"/>
      <path id="Trazado_638215" data-name="Trazado 638215" d="M-113.7,208.309l7.792,5.731-7.792,5.632c0-.683,0-1.234,0-1.785-.012-1.247-.56-1.794-1.823-1.8-1.506-.009-3.013-.021-4.519.009a.948.948,0,0,1-1.039-.587,15.6,15.6,0,0,0-.971-1.742,2.6,2.6,0,0,1-.322-1.189c-.049-.477.121-.581.568-.576,2.025.021,4.05.011,6.074.009,1.551,0,2.029-.484,2.031-2.04C-113.7,209.475-113.7,208.981-113.7,208.309Z" transform="translate(-134.241 -53.085)" fill="#5bccf3"/>
      <path id="Trazado_638216" data-name="Trazado 638216" d="M-293.723,159.214a5.228,5.228,0,0,1,5.288,5.21,5.227,5.227,0,0,1-5.287,5.209,9.061,9.061,0,0,1-1.777-2.187c-.2-.393-.63-.785-.293-1.318.233.217.47.43.7.652.768.749,1.252.756,2.013,0q1.472-1.456,2.927-2.93a1.121,1.121,0,0,0,.115-1.692,1.117,1.117,0,0,0-1.691.136c-.689.671-1.372,1.347-2.037,2.041-.243.254-.4.255-.641,0-.5-.538-1.041-1.047-1.565-1.567a3.826,3.826,0,0,1,.62-1.621A12.584,12.584,0,0,1-293.723,159.214Z" transform="translate(-12.263 -18.585)" fill="#65db9e"/>
      <path id="Trazado_638217" data-name="Trazado 638217" d="M-225.027,318.11q.007,1.964.013,3.929l-6.585.039c-.377,0-.609-.141-.606-.562q.011-1.443,0-2.886c0-.417.2-.558.593-.554C-229.418,318.094-227.222,318.1-225.027,318.11Z" transform="translate(-57.072 -130.217)" fill="#6c8993"/>
      <path id="Trazado_638218" data-name="Trazado 638218" d="M-300.686,159.218a12.585,12.585,0,0,0-1.63,1.934,3.827,3.827,0,0,0-.62,1.621c-.62-.188-1.212-.176-1.545.468a1.237,1.237,0,0,0,.441,1.571c.449.418.858.879,1.285,1.322-.337.532.091.924.293,1.318a9.061,9.061,0,0,0,1.777,2.187,5.211,5.211,0,0,1-5.2-5.247A5.21,5.21,0,0,1-300.686,159.218Z" transform="translate(-5.3 -18.589)" fill="#5dc991"/>
      <path id="Trazado_638219" data-name="Trazado 638219" d="M-302.056,266.883a.685.685,0,0,0,.358.524l5.36,3.947c-.225.867-.013,1.761-.155,2.761l-7.747-5.7Z" transform="translate(-6.454 -94.244)" fill="#d95033"/>
      <path id="Trazado_638220" data-name="Trazado 638220" d="M-296.408,199.711a4.614,4.614,0,0,0,1.482,3.2c.3.294.6.591.894.887a5.8,5.8,0,0,1-4.713-1.247,4.986,4.986,0,0,1-1.672-3.778A8.747,8.747,0,0,0-296.408,199.711Z" transform="translate(-9.141 -46.385)" fill="#a1d5e8"/>
      <path id="Trazado_638221" data-name="Trazado 638221" d="M-265.129,149.149c-.285.687-1,.971-1.438,1.535a7.988,7.988,0,0,0-1.709,4.747c-.026.613.243,1.289-.3,1.823a7.785,7.785,0,0,0-2.218-5.162c-.269-.262-.1-.431.059-.619A6.129,6.129,0,0,1-265.129,149.149Z" transform="translate(-29.859 -11.483)" fill="#a6e0f4"/>
      <path id="Trazado_638222" data-name="Trazado 638222" d="M-249.467,183.929c-2.372,0-4.744.007-7.116,0-.8,0-1.307-.444-1.314-1.1s.5-1.09,1.294-1.129c.2-.01.4,0,.593,0h10.525c1.112,0,2.224,0,3.335.007a1.092,1.092,0,0,1,1.114.706,1.087,1.087,0,0,1-.224,1.173,1.441,1.441,0,0,1-1.167.346Q-245.946,183.927-249.467,183.929Z" transform="translate(-39.02 -34.383)" fill="#060708"/>
      <path id="Trazado_638223" data-name="Trazado 638223" d="M-249.364,168.505q3.521,0,7.042,0c.882,0,1.358.395,1.359,1.1s-.491,1.119-1.357,1.12q-7.079.008-14.158,0c-.895,0-1.439-.458-1.413-1.156.025-.676.534-1.065,1.411-1.066Q-252.922,168.5-249.364,168.505Z" transform="translate(-39.023 -25.114)" fill="#020202"/>
      <path id="Trazado_638224" data-name="Trazado 638224" d="M-251.24,197.2c-1.754,0-3.508,0-5.262,0-.865,0-1.38-.414-1.39-1.092s.515-1.128,1.361-1.129q5.336-.008,10.672,0c.862,0,1.348.429,1.334,1.137s-.486,1.083-1.379,1.085C-247.683,197.207-249.462,197.2-251.24,197.2Z" transform="translate(-39.022 -43.717)" fill="#020202"/>
      <path id="Trazado_638225" data-name="Trazado 638225" d="M-299.768,172.327c-.427-.442-.836-.9-1.285-1.322a1.237,1.237,0,0,1-.441-1.571c.333-.644.925-.656,1.545-.468.523.521,1.06,1.029,1.565,1.567.242.258.4.256.641,0,.665-.694,1.349-1.37,2.037-2.041a1.117,1.117,0,0,1,1.691-.136,1.121,1.121,0,0,1-.115,1.692q-1.45,1.478-2.927,2.93c-.762.753-1.245.746-2.013,0C-299.3,172.757-299.535,172.545-299.768,172.327Z" transform="translate(-8.287 -24.783)" fill="#020202"/>
    </g>
  </g>
</svg>
