<svg id="Grupo_970453" data-name="Grupo 970453" xmlns="http://www.w3.org/2000/svg" width="98.408" height="98.408" viewBox="0 0 98.408 98.408">
  <ellipse id="Elipse_5210" data-name="Elipse 5210" cx="49.204" cy="49.204" rx="49.204" ry="49.204" transform="translate(0 0)" fill="#ef8b53"/>
  <g id="Grupo_971642" data-name="Grupo 971642" transform="translate(-212.679 -599.335)">
    <path id="Trazado_638292" data-name="Trazado 638292" d="M379.571,687q0,2.094,0,4.188c-1.061.339-1.263.6-1.267,1.689q-.017,3.825-.026,7.651l-.13.13-5.846,0a.916.916,0,0,0-.2-.578q-1.458-2.236-2.891-4.488c-.177-.279-.453-.528-.393-.914.125-.132.243-.27.376-.395a18.4,18.4,0,0,0,5.873-17.507A18.8,18.8,0,0,0,357.6,661.522a19.776,19.776,0,0,0-9.329,1.856,12.009,12.009,0,0,0-1.662-2.839c-2.029-3.219-4.072-6.428-6.173-9.6a44.681,44.681,0,0,0-2.811-4.155c-.018-.441-.04-.883-.054-1.324-.032-1-.293-1.323-1.284-1.557l0-4.193c1.041-.262,1.283-.556,1.286-1.656.008-2.791.018-5.582-.01-8.373-.006-.588.1-.8.761-.8q12.876.038,25.752,0c.625,0,.721.194.717.754-.024,3.66-.016,7.32-.011,10.981,0,1.386.395,1.77,1.791,1.77,3.608,0,7.215.028,10.822-.021.779-.011.927.2.925.946q-.037,20.973-.017,41.947C378.3,686.432,378.539,686.751,379.571,687ZM370.3,662.864a4.077,4.077,0,0,0,3.655-5.769c-.219-.446-.917-.74-.674-1.28.2-.449.708-.762,1.08-1.135.111-.112.224-.223.335-.335.962-.975.959-1.578-.029-2.518q-3.061-2.913-6.128-5.819a4.055,4.055,0,0,0-.606-.5,1.162,1.162,0,0,0-1.576.174,1.141,1.141,0,0,0-.107,1.581,4.341,4.341,0,0,0,.536.576c1.7,1.616,3.4,3.225,5.09,4.847.148.142.454.224.341.538a.877.877,0,0,1-1.506.369q-8.489-8.489-16.967-16.99a3.63,3.63,0,0,0-2.305-1.2c-2.37-.225-4.517-.884-5.845-3.088a.328.328,0,0,0-.054-.057,1.263,1.263,0,0,0-1.827-.177,1.246,1.246,0,0,0-.021,1.885c.6.7,1.219,1.385,1.88,2.025a3.085,3.085,0,0,1,.94,1.844c.136.909.338,1.807.511,2.711a2.162,2.162,0,0,0,.584,1.179q9.975,9.962,19.942,19.934A3.957,3.957,0,0,0,370.3,662.864Z" transform="translate(-78.494 -14.216)" fill="#f0f0f0"/>
    <path id="Trazado_638293" data-name="Trazado 638293" d="M301.077,672.788c-1.032-.254-1.268-.573-1.268-1.748q0-20.973.017-41.947c0-.744-.146-.957-.925-.946-3.607.048-7.215.023-10.822.021-1.4,0-1.789-.384-1.791-1.77,0-3.66-.013-7.321.011-10.981,0-.56-.092-.755-.717-.754q-12.876.037-25.752,0c-.659,0-.767.215-.761.8.028,2.791.018,5.582.01,8.373,0,1.1-.245,1.395-1.286,1.657-1-.3-1.252-.648-1.254-1.8,0-3.792,0-7.584,0-11.376,0-1.294-.415-1.716-1.689-1.717q-14.615,0-29.23,0c-1.21,0-1.67.462-1.67,1.676q0,20.027,0,40.053c0,1.212.463,1.706,1.652,1.707q14.654.01,29.309,0c1.167,0,1.623-.475,1.627-1.633.008-2.027,0-4.055,0-6.083q0-7.426,0-14.852c0-1.15.261-1.5,1.259-1.787.991.233,1.252.552,1.284,1.557.014.441.035.883.054,1.324-.018.287-.052.574-.052.861q0,9.361,0,18.721a5.8,5.8,0,0,1-.125,1.568,3.872,3.872,0,0,1-4.043,2.857c-5.53.007-11.059.014-16.589-.013-.662,0-.876.112-.873.839q.045,14.1,0,28.2c0,.737.208.882.906.881q27.332-.029,54.664-.017c.262,0,.525-.018.787-.029l5.846,0c.112.026.155-.018.13-.129q.012-3.826.026-7.651c0-1.087.206-1.349,1.267-1.689,1.055.342,1.262.611,1.263,1.7q.006,4.347,0,8.693c0,1.182-.446,1.634-1.616,1.635q-32.083,0-64.167,0c-1.24,0-1.629-.453-1.629-1.866q0-14.817.018-29.634c0-.75-.157-.958-.93-.943-2.765.054-5.531.024-8.3.02s-4.3-1.547-4.3-4.305q0-19.953,0-39.907c0-2.766,1.53-4.29,4.305-4.291q14.58,0,29.16,0a3.768,3.768,0,0,1,4.166,3.6c.063.449.275.477.627.475,1.765-.01,3.53,0,5.295,0,7.323,0,14.646.01,21.968-.014a2.611,2.611,0,0,1,2.014.844q6.289,6.34,12.625,12.632a2.377,2.377,0,0,1,.778,1.808q-.023,21.81-.012,43.621C302.34,672.208,302.1,672.532,301.077,672.788Zm-3.447-47.155-8.8-8.8c0,2.7.006,5.536-.007,8.374,0,.363.145.432.466.431C292.127,625.63,294.965,625.634,297.63,625.634Z" transform="translate(0 0)" fill="#030303"/>
    <path id="Trazado_638294" data-name="Trazado 638294" d="M328.408,739.292c-.263.01-.525.028-.787.028q-27.332,0-54.664.017c-.7,0-.908-.144-.906-.881q.042-14.1,0-28.2c0-.727.212-.842.873-.839,5.529.027,11.059.02,16.589.013a3.871,3.871,0,0,0,4.043-2.857A5.793,5.793,0,0,0,293.68,705q0-9.361,0-18.721c0-.287.034-.574.052-.861a44.693,44.693,0,0,1,2.811,4.155c2.1,3.171,4.144,6.381,6.173,9.6a12.013,12.013,0,0,1,1.662,2.839,21.237,21.237,0,0,0-4.947,3.59c-.812.824-.875,1.242-.241,2.19a9.615,9.615,0,0,0-1.46,1.938c-.958-.242-1.445-.063-1.833.717a18.832,18.832,0,0,0,19.133,27.179,19.173,19.173,0,0,0,9.892-4.316c-.06.386.216.635.393.914q1.431,2.253,2.891,4.488A.916.916,0,0,1,328.408,739.292Zm-45.319-10.943c.894,0,1.789.005,2.683,0,.578,0,1.159.006,1.731-.054a1.129,1.129,0,0,0,1.09-1.219,1.153,1.153,0,0,0-1.085-1.229,4.711,4.711,0,0,0-.706-.05q-3.669-.005-7.338,0a3.365,3.365,0,0,0-.936.1,1.232,1.232,0,0,0-.005,2.352,3.354,3.354,0,0,0,.936.1C280.669,728.354,281.879,728.348,283.089,728.348Zm.048-9.293c-1.314,0-2.628-.009-3.942,0-.97.009-1.508.446-1.535,1.209-.027.792.538,1.314,1.52,1.32q3.941.024,7.883,0c.991-.005,1.552-.51,1.534-1.306-.017-.76-.564-1.214-1.52-1.223C285.765,719.046,284.451,719.055,283.137,719.055Z" transform="translate(-34.601 -52.851)" fill="#e3e3e3"/>
    <path id="Trazado_638295" data-name="Trazado 638295" d="M263.259,635.15c-1,.284-1.258.638-1.259,1.787q-.007,7.426,0,14.852c0,2.028.006,4.056,0,6.083,0,1.158-.461,1.632-1.627,1.633q-14.654.011-29.309,0c-1.188,0-1.652-.495-1.652-1.707q0-20.026,0-40.053c0-1.214.46-1.676,1.67-1.676q14.615,0,29.23,0c1.274,0,1.688.423,1.689,1.716,0,3.792,0,7.584,0,11.376,0,1.148.255,1.5,1.254,1.8Q263.257,633.054,263.259,635.15Zm-17.569-8.244q6.516,0,13.031,0c1.358,0,1.792-.453,1.8-1.808q.007-2.8,0-5.607c0-1.486-.384-1.873-1.857-1.874q-9.912,0-19.823,0c-2.133,0-4.265-.008-6.4,0-1.025.006-1.475.429-1.482,1.415-.016,2.159,0,4.318-.006,6.476a1.247,1.247,0,0,0,.637,1.186,2.735,2.735,0,0,0,1.386.211Q239.333,626.907,245.69,626.906Zm14.827,21.641c0-2.528,0-5.056,0-7.583,0-1.292-.46-1.753-1.764-1.765-1.422-.013-2.844-.006-4.266,0-1.543,0-1.951.416-1.952,1.979q0,4.779,0,9.558c0,1.843-.015,3.687.006,5.53.014,1.279.457,1.7,1.725,1.7q2.212.006,4.424,0c1.412,0,1.827-.413,1.829-1.832Q260.522,652.338,260.517,648.546ZM256.5,636.328c.843,0,1.686.013,2.529,0a1.3,1.3,0,0,0,1.48-1.453q.041-2.489,0-4.978a1.351,1.351,0,0,0-1.545-1.49q-2.45-.02-4.9,0c-.961.009-1.466.414-1.5,1.357-.058,1.736-.057,3.477-.01,5.214.025.933.53,1.335,1.494,1.35C254.867,636.339,255.684,636.328,256.5,636.328Zm-6.834,6.906c0-.843.011-1.686,0-2.529-.016-.964-.417-1.461-1.357-1.488q-2.566-.073-5.135,0c-.993.028-1.42.527-1.429,1.515q-.022,2.449,0,4.9c.008.985.463,1.513,1.417,1.534q2.567.058,5.136,0a1.265,1.265,0,0,0,1.366-1.4C249.682,644.92,249.665,644.077,249.666,643.234Zm-10.785.009c0-.843.017-1.686,0-2.528-.024-.956-.435-1.46-1.373-1.489q-2.6-.081-5.213-.006c-.906.025-1.323.519-1.333,1.426q-.026,2.528,0,5.056c.009.956.43,1.437,1.383,1.461q2.566.064,5.135,0a1.319,1.319,0,0,0,1.4-1.472C238.9,644.876,238.881,644.059,238.881,643.243Zm10.785-10.831v-2.369c0-.053,0-.105,0-.158-.032-1-.461-1.465-1.447-1.478q-2.526-.033-5.053,0a1.281,1.281,0,0,0-1.414,1.362q-.045,2.6,0,5.211a1.247,1.247,0,0,0,1.417,1.339q2.566.027,5.132,0a1.229,1.229,0,0,0,1.358-1.38C249.68,634.1,249.664,633.254,249.666,632.412Zm-14.78,3.912v0c.842,0,1.684.013,2.526,0,.951-.019,1.441-.457,1.458-1.387q.046-2.565,0-5.131a1.284,1.284,0,0,0-1.386-1.394q-2.565-.04-5.131,0a1.242,1.242,0,0,0-1.391,1.363q-.035,2.6,0,5.21a1.208,1.208,0,0,0,1.318,1.335C233.149,636.343,234.018,636.324,234.886,636.324ZM230.954,654c0,.842-.015,1.685,0,2.527.022.958.462,1.417,1.4,1.427q2.566.027,5.132,0a1.253,1.253,0,0,0,1.374-1.31q.055-2.644,0-5.289a1.253,1.253,0,0,0-1.376-1.309q-2.566-.028-5.132,0c-.937.01-1.378.471-1.4,1.429C230.939,652.317,230.954,653.16,230.954,654Zm14.748-3.961c-.842,0-1.684-.014-2.526,0a1.272,1.272,0,0,0-1.423,1.342q-.048,2.6,0,5.21a1.268,1.268,0,0,0,1.406,1.359q2.566.026,5.132,0a1.217,1.217,0,0,0,1.363-1.3q.042-2.644,0-5.289a1.222,1.222,0,0,0-1.346-1.319C247.439,650.024,246.57,650.042,245.7,650.041Z" transform="translate(-5.462 -5.462)" fill="#7d7d7d"/>
    <path id="Trazado_638296" data-name="Trazado 638296" d="M346.253,739.532c-.634-.948-.571-1.366.241-2.19a21.237,21.237,0,0,1,4.947-3.59,19.776,19.776,0,0,1,9.329-1.856,18.8,18.8,0,0,1,17.464,15.252,18.4,18.4,0,0,1-5.873,17.507c-.132.125-.251.263-.376.4a19.173,19.173,0,0,1-9.892,4.316,18.827,18.827,0,0,1-19.133-27.179c.389-.78.875-.959,1.834-.717a1.4,1.4,0,0,1,.387,1.955c-.155.3-.285.62-.415.936a15.684,15.684,0,0,0,.16,13.008,16.076,16.076,0,0,0,17.494,9.388,15.016,15.016,0,0,0,8.629-4.388c.156-.137.325-.262.467-.412a16.269,16.269,0,0,0-23.424-22.585A1.5,1.5,0,0,1,346.253,739.532Z" transform="translate(-81.66 -84.59)" fill="#040302"/>
    <path id="Trazado_638297" data-name="Trazado 638297" d="M385.392,669.092a3.957,3.957,0,0,1-2.749-1.206q-9.971-9.967-19.942-19.934a2.162,2.162,0,0,1-.584-1.179c-.173-.9-.375-1.8-.511-2.711a3.084,3.084,0,0,0-.94-1.844c-.661-.64-1.276-1.33-1.88-2.025a1.246,1.246,0,0,1,.021-1.885,1.263,1.263,0,0,1,1.827.177.33.33,0,0,1,.054.057c1.328,2.2,3.474,2.863,5.845,3.088a3.631,3.631,0,0,1,2.305,1.2q8.459,8.519,16.967,16.989a.877.877,0,0,0,1.506-.369c.113-.315-.193-.4-.341-.538-1.69-1.622-3.394-3.231-5.09-4.847a4.345,4.345,0,0,1-.536-.576,1.141,1.141,0,0,1,.107-1.581,1.163,1.163,0,0,1,1.576-.174,4.05,4.05,0,0,1,.605.5q3.067,2.906,6.128,5.819c.987.94.991,1.544.029,2.518-.111.112-.224.223-.335.335-.372.373-.879.685-1.08,1.135-.242.541.455.835.674,1.28A4.077,4.077,0,0,1,385.392,669.092Zm-17.465-23.51c-.759-1.3-2.046-1.574-3.389-1.761-.353-.049-.4.061-.356.366.2,1.308.472,2.578,1.734,3.333q5.292,5.32,10.578,10.646c.291.294.456.214.692-.041a14.244,14.244,0,0,1,1.23-1.227c.406-.342.349-.559-.008-.91-2.009-1.976-3.99-3.982-5.988-5.97C370.93,648.533,369.426,647.06,367.927,645.582Zm18.988,19.525a1.684,1.684,0,0,0-.622-1.221c-1.356-1.356-2.7-2.724-4.074-4.063-.517-.505-.976-1.448-1.586-1.379-.581.066-1.052.941-1.61,1.414-.4.338-.318.555.024.866.544.494,1.047,1.033,1.567,1.554q1.9,1.895,3.792,3.788a1.29,1.29,0,0,0,1.579.324A1.519,1.519,0,0,0,386.916,665.106Z" transform="translate(-93.583 -20.445)" fill="#030303"/>
    <path id="Trazado_638298" data-name="Trazado 638298" d="M468.6,855.133c.025.112-.018.155-.13.13Z" transform="translate(-168.816 -168.818)" fill="#e3e3e3"/>
    <path id="Trazado_638299" data-name="Trazado 638299" d="M443.078,644.535c-2.666,0-5.5,0-8.342.005-.32,0-.467-.068-.466-.431.012-2.838.007-5.676.007-8.374Z" transform="translate(-145.448 -18.901)" fill="#e3e3e3"/>
    <path id="Trazado_638300" data-name="Trazado 638300" d="M351.675,755.724a1.5,1.5,0,0,0,1.838-.159,6.339,6.339,0,0,1-.168.762,17.671,17.671,0,0,0-.936,6.622,17.259,17.259,0,0,0,3.378,9.64,10.53,10.53,0,0,0,2.973,2.974c-.52,1.276-.017,2.035,1.359,2.053l1.649.025a4.129,4.129,0,0,0,1.757.77c.013.155.029.31.039.465.045.719.317,1.291,1.1,1.405a1.23,1.23,0,0,0,1.417-.956c.257.039.516.073.772.118a20.042,20.042,0,0,0,5.373.108,34.786,34.786,0,0,0,4.248-.991,15.015,15.015,0,0,1-8.629,4.388,16.076,16.076,0,0,1-17.494-9.388,15.684,15.684,0,0,1-.16-13.008c.13-.316.26-.633.415-.936a1.4,1.4,0,0,0-.387-1.955A9.6,9.6,0,0,1,351.675,755.724Z" transform="translate(-87.082 -100.782)" fill="#e7b343"/>
    <path id="Trazado_638301" data-name="Trazado 638301" d="M295.193,815.458c-1.21,0-2.42.006-3.63,0a3.354,3.354,0,0,1-.936-.1,1.232,1.232,0,0,1,.005-2.352,3.36,3.36,0,0,1,.936-.1q3.669-.011,7.338,0a4.7,4.7,0,0,1,.706.05,1.153,1.153,0,0,1,1.085,1.229,1.129,1.129,0,0,1-1.09,1.219c-.573.061-1.154.049-1.731.054C296.982,815.463,296.088,815.458,295.193,815.458Z" transform="translate(-46.706 -139.96)" fill="#0b0b0b"/>
    <path id="Trazado_638302" data-name="Trazado 638302" d="M295.241,791.622c1.314,0,2.628-.009,3.941,0,.956.009,1.5.463,1.52,1.223.017.8-.543,1.3-1.534,1.306q-3.941.021-7.883,0c-.982-.006-1.548-.528-1.52-1.32.026-.763.564-1.2,1.535-1.209C292.613,791.613,293.927,791.622,295.241,791.622Z" transform="translate(-46.704 -125.417)" fill="#030404"/>
    <path id="Trazado_638303" data-name="Trazado 638303" d="M249.02,630.234q-6.357,0-12.715,0a2.736,2.736,0,0,1-1.386-.211,1.248,1.248,0,0,1-.637-1.186c0-2.159-.01-4.317.006-6.476.008-.986.457-1.409,1.482-1.415,2.132-.013,4.265,0,6.4,0q9.911,0,19.823,0c1.474,0,1.856.387,1.857,1.874q0,2.8,0,5.607c0,1.355-.437,1.806-1.8,1.808Q255.535,630.243,249.02,630.234Zm-4.59-2.612c1.688.076,3.376.072,5.064,0,3.762.013,7.523.021,11.285.046.418,0,.544-.149.536-.552-.022-1.026-.029-2.053,0-3.078.014-.464-.158-.578-.593-.574-2.42.025-4.839.025-7.26.034l-5.06.017c-3.7-.014-7.41-.024-11.114-.05-.39,0-.489.145-.483.507.017,1.077.015,2.155,0,3.233,0,.336.106.464.451.461C239.649,627.643,242.039,627.635,244.429,627.621Z" transform="translate(-8.792 -8.79)" fill="#030404"/>
    <path id="Trazado_638304" data-name="Trazado 638304" d="M310.405,698.437q0,3.792,0,7.584c0,1.419-.416,1.83-1.829,1.832q-2.212,0-4.424,0c-1.268,0-1.71-.42-1.725-1.7-.02-1.843-.005-3.687-.006-5.53q0-4.779,0-9.558c0-1.563.409-1.976,1.952-1.979,1.422,0,2.844-.011,4.265,0,1.3.013,1.761.473,1.764,1.765C310.409,693.382,310.405,695.91,310.405,698.437Zm-2.535.114c0-1.606.015-3.213-.007-4.819-.009-.674.3-1.55-.141-1.968s-1.31-.061-1.984-.14c-.644-.075-.787.183-.782.793.027,3.555,0,7.11.021,10.665,0,.73-.329,1.728.145,2.116.448.367,1.409.085,2.142.135.489.033.624-.137.618-.62C307.856,702.66,307.871,700.606,307.871,698.551Z" transform="translate(-55.35 -55.353)" fill="#030303"/>
    <path id="Trazado_638305" data-name="Trazado 638305" d="M306.376,662.922c-.816,0-1.633.011-2.45,0-.964-.016-1.469-.417-1.494-1.35-.047-1.737-.047-3.478.01-5.214.031-.943.536-1.348,1.5-1.357q2.45-.022,4.9,0a1.351,1.351,0,0,1,1.544,1.49q.046,2.488,0,4.978a1.3,1.3,0,0,1-1.48,1.453C308.063,662.935,307.219,662.922,306.376,662.922Zm.036-5.4c-1.454,0-1.454,0-1.454,1.428s0,1.438,1.444,1.438,1.451,0,1.451-1.431S307.855,657.527,306.413,657.527Z" transform="translate(-55.338 -32.056)" fill="#040302"/>
    <path id="Trazado_638306" data-name="Trazado 638306" d="M276.259,693.1c0,.843.016,1.686-.005,2.529a1.265,1.265,0,0,1-1.366,1.4q-2.567.055-5.136,0c-.954-.021-1.409-.549-1.417-1.534q-.02-2.45,0-4.9c.009-.989.436-1.487,1.429-1.515q2.566-.072,5.135,0c.94.027,1.341.524,1.357,1.488C276.271,691.418,276.26,692.261,276.259,693.1ZM270.865,693c0,1.512,0,1.512,1.444,1.512,1.422,0,1.422,0,1.422-1.46,0-1.436,0-1.436-1.447-1.436C270.865,691.614,270.865,691.614,270.865,693Z" transform="translate(-32.056 -55.332)" fill="#040302"/>
    <path id="Trazado_638307" data-name="Trazado 638307" d="M242.2,693.12c0,.816.016,1.633,0,2.449a1.319,1.319,0,0,1-1.4,1.472q-2.566.059-5.135,0c-.953-.024-1.374-.5-1.383-1.461q-.024-2.528,0-5.056c.009-.907.427-1.4,1.333-1.426q2.6-.071,5.213.006c.937.029,1.349.534,1.373,1.489C242.218,691.434,242.2,692.278,242.2,693.12Zm-2.536-.012c0-1.486,0-1.486-1.47-1.486-1.394,0-1.394,0-1.394,1.41,0,1.487,0,1.487,1.475,1.487C239.665,694.518,239.665,694.518,239.665,693.108Z" transform="translate(-8.782 -55.339)" fill="#030303"/>
    <path id="Trazado_638308" data-name="Trazado 638308" d="M276.251,659c0,.842.015,1.685-.005,2.527a1.229,1.229,0,0,1-1.358,1.38q-2.566.032-5.132,0a1.247,1.247,0,0,1-1.418-1.339q-.048-2.6,0-5.211A1.281,1.281,0,0,1,269.751,655q2.526-.035,5.053,0c.986.013,1.415.481,1.447,1.478,0,.053,0,.105,0,.158Q276.252,657.817,276.251,659Zm-4-1.48c-1.4,0-1.4,0-1.4,1.388,0,1.48,0,1.48,1.467,1.48,1.4,0,1.4,0,1.4-1.39C273.724,657.521,273.724,657.521,272.255,657.521Z" transform="translate(-32.048 -32.051)" fill="#010101"/>
    <path id="Trazado_638309" data-name="Trazado 638309" d="M238.208,662.912c-.868,0-1.737.02-2.6-.006a1.208,1.208,0,0,1-1.318-1.335q-.032-2.6,0-5.21A1.242,1.242,0,0,1,235.675,655q2.565-.038,5.131,0a1.284,1.284,0,0,1,1.386,1.394q.042,2.565,0,5.131c-.016.93-.507,1.368-1.458,1.387-.842.017-1.684,0-2.526,0Zm1.46-3.968c0-1.424,0-1.424-1.442-1.424-1.424,0-1.424,0-1.424,1.442,0,1.426,0,1.426,1.441,1.426C239.668,660.388,239.668,660.388,239.668,658.944Z" transform="translate(-8.784 -32.05)" fill="#010101"/>
    <path id="Trazado_638310" data-name="Trazado 638310" d="M234.281,727.287c0-.842-.015-1.684,0-2.526.022-.959.462-1.419,1.4-1.429q2.566-.027,5.132,0a1.253,1.253,0,0,1,1.376,1.309q.056,2.643,0,5.289a1.253,1.253,0,0,1-1.374,1.31q-2.566.028-5.132,0c-.939-.01-1.379-.47-1.4-1.427C234.265,728.972,234.281,728.129,234.281,727.287Zm5.392-.03c0-1.4,0-1.4-1.383-1.4-1.482,0-1.482,0-1.482,1.46,0,1.4,0,1.4,1.382,1.4C239.673,728.717,239.673,728.717,239.673,727.257Z" transform="translate(-8.789 -78.747)" fill="#010101"/>
    <path id="Trazado_638311" data-name="Trazado 638311" d="M272.288,723.332c.868,0,1.737-.017,2.605.005a1.222,1.222,0,0,1,1.346,1.319q.039,2.644,0,5.289a1.217,1.217,0,0,1-1.363,1.3q-2.566.029-5.132,0a1.268,1.268,0,0,1-1.406-1.359q-.045-2.6,0-5.21a1.272,1.272,0,0,1,1.423-1.342C270.6,723.318,271.446,723.332,272.288,723.332Zm1.436,3.964c0-1.435,0-1.435-1.43-1.435s-1.437,0-1.437,1.427,0,1.435,1.429,1.435S273.724,728.723,273.724,727.3Z" transform="translate(-32.048 -78.753)" fill="#010101"/>
    <path id="Trazado_638312" data-name="Trazado 638312" d="M366.392,764.861a10.528,10.528,0,0,1-2.973-2.974,17.26,17.26,0,0,1-3.378-9.64,17.67,17.67,0,0,1,.936-6.622,6.353,6.353,0,0,0,.168-.762,16.269,16.269,0,0,1,23.424,22.584c-.142.15-.311.275-.467.412a34.8,34.8,0,0,1-4.248.991,20.042,20.042,0,0,1-5.373-.108c-.257-.044-.515-.079-.772-.118.036-.546-.131-1.287.159-1.588.349-.362,1.1-.105,1.671-.117a3.811,3.811,0,0,0,3.943-3.78c.055-1.42.053-2.846,0-4.266a3.78,3.78,0,0,0-3.549-3.763,11.95,11.95,0,0,0-1.657-.049c-.421.013-.537-.152-.535-.553.015-1.976.022-3.951,0-5.927-.006-.508.191-.616.65-.606,1.185.026,2.371.018,3.556.006.954-.01,1.524-.474,1.542-1.223s-.594-1.291-1.564-1.308c-1.053-.018-2.111-.058-3.16.013-.81.055-1.142-.171-1.026-1.014a1.449,1.449,0,0,0-.337-1.258,1.188,1.188,0,0,0-1.291-.352,1.35,1.35,0,0,0-.91,1.414c-.064,1.129-.065,1.129-1.21,1.194a3.751,3.751,0,0,0-3.815,3.653c-.107,1.572-.031,3.158-.011,4.737a3.279,3.279,0,0,0,.389,1.515,3.892,3.892,0,0,0,3.849,2.109c.419-.01.826-.075.811.613-.042,1.922-.03,3.846,0,5.768.006.482-.19.557-.6.547-.948-.023-1.9.009-2.845-.014A1.811,1.811,0,0,0,366.392,764.861Z" transform="translate(-94.714 -90.079)" fill="#efce62"/>
    <path id="Trazado_638313" data-name="Trazado 638313" d="M384.217,661.952c1.5,1.478,3,2.951,4.494,4.435,2,1.988,3.979,3.994,5.988,5.97.357.351.414.568.008.91a14.242,14.242,0,0,0-1.23,1.226c-.236.255-.4.336-.692.041q-5.279-5.333-10.578-10.645Z" transform="translate(-109.872 -36.815)" fill="#7cc5c8"/>
    <path id="Trazado_638314" data-name="Trazado 638314" d="M430.908,709.219a1.519,1.519,0,0,1-.93,1.283,1.29,1.29,0,0,1-1.579-.324q-1.9-1.888-3.792-3.788c-.52-.52-1.023-1.059-1.567-1.554-.342-.311-.423-.528-.024-.866.558-.474,1.03-1.349,1.61-1.414.61-.069,1.068.874,1.586,1.379,1.372,1.34,2.718,2.707,4.074,4.063A1.684,1.684,0,0,1,430.908,709.219Z" transform="translate(-137.575 -64.558)" fill="#65a3a4"/>
    <path id="Trazado_638315" data-name="Trazado 638315" d="M380.442,658.129l-2.01,1.938c-1.263-.755-1.531-2.025-1.734-3.333-.047-.3,0-.415.356-.366C378.4,656.555,379.683,656.826,380.442,658.129Z" transform="translate(-106.097 -32.992)" fill="#efce62"/>
    <path id="Trazado_638316" data-name="Trazado 638316" d="M379.54,771.051a1.811,1.811,0,0,1,1.369-.487c.948.023,1.9-.01,2.845.014.412.01.608-.064.6-.547-.026-1.923-.038-3.846,0-5.769.015-.688-.391-.623-.811-.613a3.892,3.892,0,0,1-3.849-2.109,3.279,3.279,0,0,1-.389-1.515c-.02-1.579-.1-3.165.011-4.737a3.75,3.75,0,0,1,3.815-3.653c1.145-.065,1.146-.065,1.21-1.194a1.35,1.35,0,0,1,.91-1.414,1.188,1.188,0,0,1,1.291.352,1.449,1.449,0,0,1,.337,1.258c-.116.843.217,1.07,1.026,1.014,1.049-.071,2.107-.031,3.16-.013.97.016,1.583.545,1.564,1.308s-.588,1.213-1.542,1.223c-1.185.012-2.371.02-3.556-.006-.459-.01-.657.1-.65.606.025,1.976.019,3.951,0,5.927,0,.4.113.566.535.553a11.959,11.959,0,0,1,1.657.049,3.78,3.78,0,0,1,3.549,3.763c.053,1.42.056,2.846,0,4.266a3.811,3.811,0,0,1-3.943,3.78c-.574.012-1.322-.244-1.671.118-.29.3-.123,1.042-.159,1.588a1.23,1.23,0,0,1-1.417.956c-.78-.114-1.051-.686-1.1-1.405-.01-.155-.026-.31-.039-.465.145-.572.026-.9-.666-.8a9.2,9.2,0,0,1-1.091.032L380.9,773.1C379.523,773.086,379.02,772.327,379.54,771.051Zm10.574-3.862v-.79c0-2.414-.262-2.661-2.659-2.636-.444,0-.59.117-.583.57.025,1.527.009,3.054.009,4.582,0,1.728,0,1.728,1.768,1.659a1.332,1.332,0,0,0,1.458-1.41C390.137,768.507,390.112,767.847,390.114,767.189Zm-5.769-9.5c0-1,0-1.993,0-2.99,0-.224.048-.453-.3-.535a1.637,1.637,0,0,0-2.226,1.673c-.015,1.1,0,2.2,0,3.3,0,1.614.4,1.991,2,1.981.407,0,.554-.1.543-.523C384.326,759.634,384.344,758.663,384.344,757.693Z" transform="translate(-107.862 -96.269)" fill="#050402"/>
    <path id="Trazado_638317" data-name="Trazado 638317" d="M389.629,825.169a9.214,9.214,0,0,0,1.091-.032c.692-.1.811.23.666.8A4.129,4.129,0,0,1,389.629,825.169Z" transform="translate(-114.944 -148.309)" fill="#efce62"/>
    <path id="Trazado_638318" data-name="Trazado 638318" d="M286.29,628.949c2.42-.009,4.84-.009,7.259-.035.435,0,.607.109.593.574-.032,1.026-.024,2.052,0,3.078.009.4-.117.555-.536.552-3.762-.024-7.523-.033-11.285-.046.211-.231.418-.467.633-.694C284.049,631.221,285.267,630.18,286.29,628.949Z" transform="translate(-41.617 -14.24)" fill="#7cc5c8"/>
    <path id="Trazado_638319" data-name="Trazado 638319" d="M249.881,633.075c-2.39.013-4.78.022-7.17.045-.346,0-.456-.125-.451-.461.014-1.078.016-2.156,0-3.233-.006-.362.093-.51.483-.507,3.7.026,7.41.036,11.114.051-.19.214-.372.436-.571.639Q251.586,631.346,249.881,633.075Z" transform="translate(-14.244 -14.243)" fill="#7cc5c8"/>
    <path id="Trazado_638320" data-name="Trazado 638320" d="M266.329,633.146q1.7-1.732,3.4-3.466c.2-.2.381-.426.571-.639l5.06-.018c-1.022,1.231-2.24,2.273-3.338,3.43-.216.227-.422.463-.633.694C269.7,633.218,268.017,633.222,266.329,633.146Z" transform="translate(-30.692 -14.314)" fill="#f0f0f0"/>
    <path id="Trazado_638321" data-name="Trazado 638321" d="M313.156,703.9c0,2.054-.015,4.108.011,6.162.006.483-.129.653-.618.62-.733-.05-1.694.232-2.142-.135-.474-.389-.142-1.386-.145-2.116-.016-3.555.007-7.111-.021-10.666,0-.609.138-.868.782-.793.674.078,1.546-.274,1.984.14s.132,1.294.141,1.968C313.171,700.685,313.156,702.292,313.156,703.9Z" transform="translate(-60.636 -60.699)" fill="#e5c55e"/>
    <path id="Trazado_638322" data-name="Trazado 638322" d="M311.938,663.007c1.442,0,1.442,0,1.442,1.435s0,1.431-1.451,1.431-1.444,0-1.444-1.438S310.484,663.007,311.938,663.007Z" transform="translate(-60.863 -37.536)" fill="#e09c4f"/>
    <path id="Trazado_638323" data-name="Trazado 638323" d="M276.344,698.531c0-1.384,0-1.384,1.419-1.384,1.447,0,1.447,0,1.447,1.436,0,1.46,0,1.46-1.422,1.46C276.344,700.043,276.344,700.043,276.344,698.531Z" transform="translate(-37.535 -60.864)" fill="#e09c4f"/>
    <path id="Trazado_638324" data-name="Trazado 638324" d="M245.137,698.632c0,1.41,0,1.41-1.389,1.41-1.475,0-1.475,0-1.475-1.487,0-1.41,0-1.41,1.394-1.41C245.137,697.146,245.137,697.146,245.137,698.632Z" transform="translate(-14.254 -60.863)" fill="#e09c4f"/>
    <path id="Trazado_638325" data-name="Trazado 638325" d="M277.74,663c1.469,0,1.469,0,1.469,1.478,0,1.39,0,1.39-1.4,1.39-1.467,0-1.467,0-1.467-1.48C276.341,663,276.341,663,277.74,663Z" transform="translate(-37.533 -37.534)" fill="#e09c4f"/>
    <path id="Trazado_638326" data-name="Trazado 638326" d="M245.136,664.428c0,1.444,0,1.444-1.425,1.444-1.441,0-1.441,0-1.441-1.426,0-1.442,0-1.442,1.424-1.442C245.136,663,245.136,663,245.136,664.428Z" transform="translate(-14.252 -37.534)" fill="#e09c4f"/>
    <path id="Trazado_638327" data-name="Trazado 638327" d="M245.136,732.732c0,1.46,0,1.46-1.483,1.46-1.382,0-1.382,0-1.382-1.4,0-1.46,0-1.46,1.482-1.46C245.136,731.33,245.136,731.33,245.136,732.732Z" transform="translate(-14.252 -84.222)" fill="#e09c4f"/>
    <path id="Trazado_638328" data-name="Trazado 638328" d="M279.209,732.765c0,1.426,0,1.426-1.439,1.426s-1.429,0-1.429-1.435,0-1.427,1.437-1.427S279.209,731.33,279.209,732.765Z" transform="translate(-37.533 -84.222)" fill="#e09c4f"/>
    <path id="Trazado_638329" data-name="Trazado 638329" d="M406.523,799.122c0,.658.025,1.318-.007,1.975a1.332,1.332,0,0,1-1.458,1.41c-1.768.069-1.768.069-1.768-1.659,0-1.527.016-3.055-.009-4.582-.007-.453.139-.566.583-.57,2.4-.024,2.659.222,2.659,2.636Q406.524,798.727,406.523,799.122Z" transform="translate(-124.272 -128.202)" fill="#e5c55e"/>
    <path id="Trazado_638330" data-name="Trazado 638330" d="M389.832,768.765c0,.97-.018,1.941.008,2.911.011.422-.136.521-.543.523-1.6.01-1.994-.367-2-1.981,0-1.1-.012-2.2,0-3.3a1.637,1.637,0,0,1,2.226-1.673c.346.083.3.312.3.535C389.835,766.771,389.832,767.768,389.832,768.765Z" transform="translate(-113.35 -107.341)" fill="#efce62"/>
  </g>
</svg>
