<svg xmlns="http://www.w3.org/2000/svg" width="80.307" height="83.989" viewBox="0 0 80.307 83.989">
  <g id="Grupo_971490" data-name="Grupo 971490" transform="translate(354.628 -180.822)">
    <path id="Trazado_638038" data-name="Trazado 638038" d="M-274.321,222.814q0,18.122,0,36.244a5.4,5.4,0,0,1-4.53,5.663,7.388,7.388,0,0,1-1.306.075c-5.549,0-11.1-.015-16.648.014a5.716,5.716,0,0,1-4.385-1.638c-.275-.282-.413-.208-.646.026a5.632,5.632,0,0,1-4.233,1.609q-8.406-.033-16.812,0a5.572,5.572,0,0,1-4.227-1.618c-.312-.319-.452-.2-.7.047a5.473,5.473,0,0,1-4,1.566c-5.741-.011-11.481,0-17.222-.007a5.367,5.367,0,0,1-5.581-5.578q-.014-36.408,0-72.816a5.36,5.36,0,0,1,5.587-5.571c5.741-.009,11.481,0,17.222-.007a5.38,5.38,0,0,1,4,1.573c.326.328.467.266.762-.024a5.374,5.374,0,0,1,3.927-1.548q8.652.012,17.3,0a5.366,5.366,0,0,1,3.927,1.548c.292.287.434.353.763.022a5.461,5.461,0,0,1,4.08-1.574c5.659.017,11.317,0,16.976.008a5.4,5.4,0,0,1,5.752,5.74Q-274.315,204.692-274.321,222.814Zm-8,39.5c.874.009,1.748.041,2.621.022,1.827-.039,2.922-1.329,2.922-3.417q0-36.1,0-72.206c0-.191.007-.383-.006-.574a2.916,2.916,0,0,0-3-2.844c-.846-.01-1.693.015-2.539.024-5.054-.008-10.108-.028-15.162-.013a2.82,2.82,0,0,0-2.681,2.145,6.4,6.4,0,0,0-.092,1.385q-.006,35.979,0,71.957c0,.273,0,.547.014.819a2.815,2.815,0,0,0,2.761,2.711C-292.433,262.344-287.38,262.318-282.326,262.311Zm-25.913-78.994q-7.585-.012-15.169-.02a2.718,2.718,0,0,0-1.663.606,3.3,3.3,0,0,0-1.16,2.916q.01,36,.008,71.99a6.8,6.8,0,0,0,.065,1.061,2.8,2.8,0,0,0,2.749,2.456c5.056.018,10.113-.006,15.169-.013.874.009,1.749.042,2.622.021,1.818-.045,2.9-1.336,2.9-3.444q0-36.074,0-72.148c0-.219.006-.438-.015-.655a2.908,2.908,0,0,0-3.046-2.792C-306.6,183.286-307.42,183.308-308.239,183.316Zm-25.758.009q-7.7-.015-15.408-.026a2.16,2.16,0,0,0-.561.1c-1.463.4-2.2,1.51-2.2,3.315q0,36.1,0,72.2c0,.219-.01.438.01.655a2.866,2.866,0,0,0,2.753,2.749c5.135.026,10.271-.007,15.407-.017.846.01,1.693.053,2.538.022a2.865,2.865,0,0,0,2.365-1.406,3.52,3.52,0,0,0,.39-2.056q0-36.048,0-72.1c0-.219,0-.437-.005-.655a2.833,2.833,0,0,0-2.749-2.806C-332.3,183.265-333.151,183.315-334,183.326Z" transform="translate(0 0)" fill="#030303"/>
    <path id="Trazado_638039" data-name="Trazado 638039" d="M-328.979,267.363c-5.136.01-10.272.043-15.407.017a2.866,2.866,0,0,1-2.753-2.749c-.02-.217-.01-.437-.01-.655q0-36.1,0-72.2c0-1.8.739-2.915,2.2-3.315a2.159,2.159,0,0,1,.561-.1q7.7.007,15.407.026a.826.826,0,0,0,.157.526,5.11,5.11,0,0,1,.818,3.112,4.064,4.064,0,0,0-1.76-.589c-3.741.011-7.481-.018-11.222.014a2.928,2.928,0,0,0-2.934,3c-.022.982.012,1.966-.011,2.948a1.305,1.305,0,0,0,1.207,1.475l-.007,3.372c-.9.141-1.189.434-1.19,1.328q-.009,10.6,0,21.2a2.945,2.945,0,0,0,2.143,2.87,6.565,6.565,0,0,0,1.621.164c3.166.014,6.331,0,9.5.012a4.776,4.776,0,0,0,2.66-.64q0,9.641,0,19.281c0,.262.086.552-.159.768-.2-.187-.4-.372-.591-.561a9.512,9.512,0,0,0-11.275-1.522,9.577,9.577,0,0,0-4.7,10.452,9.588,9.588,0,0,0,10.331,7.412,9.974,9.974,0,0,0,6.2-3.169,17.551,17.551,0,0,1,.135,4.72A8.835,8.835,0,0,1-328.979,267.363Z" transform="translate(-5.019 -5.061)" fill="#377da5"/>
    <path id="Trazado_638040" data-name="Trazado 638040" d="M-250.236,267.365c-5.056.008-10.113.032-15.169.013a2.8,2.8,0,0,1-2.749-2.456,6.806,6.806,0,0,1-.065-1.061q0-36-.008-71.99a3.3,3.3,0,0,1,1.16-2.916,2.718,2.718,0,0,1,1.663-.606q7.584,0,15.169.02A5.125,5.125,0,0,1-249.106,192a4.255,4.255,0,0,0-2.421-.592c-3.333.02-6.665,0-10,.01-2.313,0-3.485,1.171-3.486,3.465q0,14.709,0,29.417c0,2.293,1.176,3.46,3.493,3.463,3.333.005,6.666-.01,10,.009a4.3,4.3,0,0,0,2.421-.6q0,9.67.008,19.339c0,.239.065.5-.144.7a9.618,9.618,0,0,0-6.829-3.259,9.566,9.566,0,0,0-9.912,10.581,9.627,9.627,0,0,0,10.342,8.486,10.054,10.054,0,0,0,6.361-3.184c.266.2.179.5.181.76.008,1.066-.016,2.132.009,3.2A5.348,5.348,0,0,1-250.236,267.365Z" transform="translate(-58.004 -5.054)" fill="#e98250"/>
    <path id="Trazado_638041" data-name="Trazado 638041" d="M-171.28,267.369c-5.054.007-10.108.034-15.162.011a2.815,2.815,0,0,1-2.761-2.711c-.019-.272-.014-.546-.014-.819q0-35.978,0-71.957a6.4,6.4,0,0,1,.092-1.385,2.82,2.82,0,0,1,2.681-2.145c5.054-.015,10.108.006,15.162.013a4.892,4.892,0,0,1,1.135,3.616,4.134,4.134,0,0,0-2.1-.577c-3.5.018-6.994,0-10.491.012a3.052,3.052,0,0,0-3.308,3.321q-.007,10.08,0,20.161c0,1.1.22,1.377,1.286,1.655q0,1.621,0,3.243c-.987.19-1.284.539-1.291,1.545-.006.955,0,1.91,0,2.865,0,2.39,1.169,3.565,3.563,3.569,3.3.005,6.6-.005,9.907.006a4.72,4.72,0,0,0,2.217-.446c.359.264.218.651.218.986q.013,9.011,0,18.021c0,.292.088.6-.123.87-.117-.113-.237-.223-.351-.34a9.521,9.521,0,0,0-13.534-.22,9.541,9.541,0,0,0-2.022,10.856,9.578,9.578,0,0,0,9.666,5.49,9.855,9.855,0,0,0,6.2-3.158c.251.213.163.5.165.766.008,1.092-.022,2.184.01,3.275A5.031,5.031,0,0,1-171.28,267.369Z" transform="translate(-111.046 -5.058)" fill="#f3ca8b"/>
    <path id="Trazado_638042" data-name="Trazado 638042" d="M-212.358,191.994a5.125,5.125,0,0,0-1.129-3.634c.819-.009,1.639-.031,2.458-.024a2.908,2.908,0,0,1,3.046,2.792c.021.217.015.437.015.655q0,36.074,0,72.148c0,2.108-1.08,3.4-2.9,3.444-.873.022-1.748-.012-2.622-.021a5.348,5.348,0,0,0,1.152-3.57c-.025-1.065,0-2.131-.009-3.2,0-.262.085-.556-.181-.76a11.415,11.415,0,0,0,1.672-2.795,9.6,9.6,0,0,0-1.634-9.828c.209-.2.144-.458.144-.7q0-9.67-.008-19.339a3.817,3.817,0,0,0,1.186-3.006q-.04-14.584,0-29.168A3.77,3.77,0,0,0-212.358,191.994Z" transform="translate(-94.752 -5.044)" fill="#e36e40"/>
    <path id="Trazado_638043" data-name="Trazado 638043" d="M-133.619,247.207c.21-.266.122-.578.123-.87q.008-9.01,0-18.021c0-.335.141-.722-.218-.986A3.62,3.62,0,0,0-132.3,224.2q-.043-14.617,0-29.234a3.764,3.764,0,0,0-1.205-2.991,4.892,4.892,0,0,0-1.135-3.616c.846-.009,1.693-.034,2.539-.024a2.916,2.916,0,0,1,3,2.844c.013.19.006.382.006.574q0,36.1,0,72.206c0,2.088-1.1,3.377-2.922,3.417-.873.019-1.747-.013-2.621-.022a5.031,5.031,0,0,0,1.155-3.479c-.032-1.091,0-2.183-.01-3.275,0-.262.086-.554-.165-.766a11.471,11.471,0,0,0,1.674-2.792A9.587,9.587,0,0,0-133.619,247.207Z" transform="translate(-147.685 -5.043)" fill="#edbb71"/>
    <path id="Trazado_638044" data-name="Trazado 638044" d="M-291.031,247.205c.245-.216.158-.506.159-.768q0-9.641,0-19.281a3.875,3.875,0,0,0,1.173-3.013q-.038-14.566,0-29.133A3.8,3.8,0,0,0-290.882,192a5.11,5.11,0,0,0-.818-3.112.826.826,0,0,1-.157-.526c.846-.011,1.694-.06,2.537-.022a2.833,2.833,0,0,1,2.749,2.806c.008.218.005.437.005.655q0,36.048,0,72.1a3.521,3.521,0,0,1-.39,2.056,2.865,2.865,0,0,1-2.365,1.406c-.845.031-1.692-.012-2.538-.022a8.835,8.835,0,0,0,.927-2.8,17.55,17.55,0,0,0-.135-4.72c.3-.422.621-.829.894-1.267A9.588,9.588,0,0,0-291.031,247.205Z" transform="translate(-42.139 -5.04)" fill="#2f6f91"/>
    <path id="Trazado_638045" data-name="Trazado 638045" d="M-333.7,213.53q0-1.686.007-3.372c.995-.279,1.245-.594,1.255-1.611.008-.765,0-1.53,0-2.3,0-1,.07-1.075,1.073-1.076q4.959,0,9.918,0c1.113,0,1.174.061,1.174,1.151q0,14.548,0,29.1c0,1.115-.072,1.186-1.227,1.186q-4.795,0-9.59,0c-1.349,0-1.349,0-1.349-1.382q0-10.04,0-20.08C-332.441,214.016-332.731,213.654-333.7,213.53Zm7.33-1.6c.844,0,1.688.012,2.531,0a1.272,1.272,0,0,0,1.4-1.264,1.25,1.25,0,0,0-1.381-1.19q-2.531-.021-5.062,0a1.237,1.237,0,0,0-1.39,1.255,1.249,1.249,0,0,0,1.372,1.2C-328.061,211.94-327.217,211.927-326.373,211.927Zm0,4.1c-.848,0-1.7-.01-2.542,0a1.232,1.232,0,0,0-1.36,1.206,1.213,1.213,0,0,0,1.257,1.239q2.664.045,5.33,0a1.232,1.232,0,0,0,1.246-1.259,1.228,1.228,0,0,0-1.307-1.183C-324.625,216.011-325.5,216.025-326.374,216.024Z" transform="translate(-14.047 -16.348)" fill="#f1f9fd"/>
    <path id="Trazado_638046" data-name="Trazado 638046" d="M-336.154,208.518c.972.124,1.262.486,1.262,1.616q0,10.04,0,20.08c0,1.381,0,1.382,1.349,1.382q4.795,0,9.59,0c1.155,0,1.227-.071,1.227-1.186q0-14.548,0-29.1c0-1.09-.061-1.15-1.174-1.151q-4.959,0-9.918,0c-1,0-1.068.072-1.073,1.076,0,.765.005,1.53,0,2.3-.01,1.017-.26,1.332-1.254,1.611a1.305,1.305,0,0,1-1.207-1.475c.023-.982-.011-1.966.012-2.948a2.928,2.928,0,0,1,2.934-3c3.741-.032,7.481,0,11.222-.014a4.064,4.064,0,0,1,1.76.589,3.8,3.8,0,0,1,1.178,3.009q-.037,14.566,0,29.133a3.874,3.874,0,0,1-1.173,3.013,4.776,4.776,0,0,1-2.66.64c-3.165-.013-6.331,0-9.5-.012a6.565,6.565,0,0,1-1.621-.164,2.945,2.945,0,0,1-2.143-2.87q-.019-10.6,0-21.2C-337.343,208.953-337.055,208.659-336.154,208.518Z" transform="translate(-11.596 -11.337)" fill="#030303"/>
    <path id="Trazado_638047" data-name="Trazado 638047" d="M-323.655,360.761a9.588,9.588,0,0,1,.859,11.345c-.273.438-.595.845-.894,1.267a9.974,9.974,0,0,1-6.2,3.169,9.587,9.587,0,0,1-10.331-7.412,9.577,9.577,0,0,1,4.7-10.452,9.512,9.512,0,0,1,11.275,1.522C-324.051,360.388-323.853,360.574-323.655,360.761Zm-14.328,6.3a7.114,7.114,0,0,0,7.081,7.093,7.111,7.111,0,0,0,7.093-7.164,7.1,7.1,0,0,0-7.122-7.043A7.1,7.1,0,0,0-337.984,367.059Z" transform="translate(-9.515 -118.595)" fill="#020303"/>
    <path id="Trazado_638048" data-name="Trazado 638048" d="M-242.541,198.259a3.77,3.77,0,0,1,1.192,3q-.039,14.584,0,29.168a3.817,3.817,0,0,1-1.186,3.006,4.3,4.3,0,0,1-2.421.6c-3.333-.019-6.666,0-10-.009-2.317,0-3.492-1.17-3.493-3.463q0-14.709,0-29.418c0-2.295,1.173-3.461,3.486-3.465,3.333-.006,6.665.01,10-.01A4.255,4.255,0,0,1-242.541,198.259Zm-1.283,17.668c0-4.916-.012-9.831.013-14.746,0-.778-.25-1.065-1.039-1.058-3.359.028-6.718.01-10.078.013-.983,0-1.057.081-1.057,1.093q0,14.623,0,29.247c0,.988.095,1.089,1.065,1.09q5,.006,10,0c1.017,0,1.1-.09,1.1-1.139Q-243.823,223.177-243.824,215.927Z" transform="translate(-64.569 -11.308)" fill="#030303"/>
    <path id="Trazado_638049" data-name="Trazado 638049" d="M-244.732,360.785a9.6,9.6,0,0,1,1.634,9.828,11.416,11.416,0,0,1-1.672,2.795,10.055,10.055,0,0,1-6.361,3.184,9.628,9.628,0,0,1-10.342-8.486,9.566,9.566,0,0,1,9.912-10.581A9.618,9.618,0,0,1-244.732,360.785Zm-14.317,6.26a7.1,7.1,0,0,0,7.034,7.135,7.1,7.1,0,0,0,7.131-7.039,7.088,7.088,0,0,0-7.076-7.167A7.089,7.089,0,0,0-259.049,367.045Z" transform="translate(-62.507 -118.623)" fill="#040302"/>
    <path id="Trazado_638050" data-name="Trazado 638050" d="M-175.637,231.1q0-1.621,0-3.243c.9-.2,1.188-.79,1.186-1.681-.02-6.639-.012-13.279-.01-19.918,0-.988.087-1.076,1.082-1.077q5,0,10,0c1.01,0,1.08.071,1.081,1.068q0,4.508,0,9.017,0,10.123,0,20.246c0,1-.093,1.1-1.056,1.1-3.361,0-6.722-.013-10.083.012-.788.006-1.074-.294-1.037-1.071.047-.981,0-1.967.016-2.95A1.312,1.312,0,0,0-175.637,231.1Zm7.265-21.628c-.871,0-1.742-.016-2.613,0a1.235,1.235,0,0,0-1.312,1.173,1.242,1.242,0,0,0,1.3,1.275q2.612.033,5.225,0a1.224,1.224,0,0,0,1.305-1.263,1.224,1.224,0,0,0-1.295-1.185C-166.63,209.45-167.5,209.467-168.372,209.467Zm.031,6.558c-.875,0-1.749-.012-2.624,0a1.232,1.232,0,0,0-1.331,1.158,1.247,1.247,0,0,0,1.3,1.289q2.623.041,5.248,0a1.221,1.221,0,0,0,1.282-1.3,1.23,1.23,0,0,0-1.333-1.149C-166.647,216.013-167.494,216.024-168.342,216.025Z" transform="translate(-120.159 -16.348)" fill="#f1f9fd"/>
    <path id="Trazado_638051" data-name="Trazado 638051" d="M-178.271,226.051a1.312,1.312,0,0,1,1.175,1.5c-.019.983.031,1.969-.016,2.95-.037.776.249,1.077,1.037,1.071,3.361-.025,6.722-.008,10.083-.012.964,0,1.056-.1,1.056-1.1q0-10.123,0-20.246,0-4.508,0-9.017c0-1-.071-1.068-1.081-1.068q-5,0-10,0c-.995,0-1.081.089-1.082,1.077,0,6.64-.01,13.279.01,19.918,0,.891-.284,1.477-1.186,1.681-1.066-.278-1.286-.553-1.286-1.654q0-10.08,0-20.161a3.052,3.052,0,0,1,3.308-3.32c3.5-.015,6.994.006,10.491-.012a4.134,4.134,0,0,1,2.1.577,3.764,3.764,0,0,1,1.205,2.991q-.04,14.617,0,29.234a3.62,3.62,0,0,1-1.418,3.128,4.719,4.719,0,0,1-2.217.446c-3.3-.012-6.6,0-9.907-.006-2.393,0-3.56-1.179-3.563-3.569,0-.955,0-1.91,0-2.865C-179.555,226.59-179.258,226.241-178.271,226.051Z" transform="translate(-117.526 -11.305)" fill="#040404"/>
    <path id="Trazado_638052" data-name="Trazado 638052" d="M-165.829,360.77A9.587,9.587,0,0,1-164.2,370.6a11.471,11.471,0,0,1-1.674,2.792,9.855,9.855,0,0,1-6.2,3.158,9.578,9.578,0,0,1-9.666-5.49,9.541,9.541,0,0,1,2.022-10.856,9.521,9.521,0,0,1,13.534.22C-166.066,360.546-165.946,360.657-165.829,360.77Zm-.146,6.25a7.093,7.093,0,0,0-7.183-7.063,7.1,7.1,0,0,0-6.989,7.175,7.111,7.111,0,0,0,7.143,7.03A7.107,7.107,0,0,0-165.975,367.02Z" transform="translate(-115.475 -118.606)" fill="#040403"/>
    <path id="Trazado_638053" data-name="Trazado 638053" d="M-319.375,220.68c-.844,0-1.688.013-2.531,0a1.249,1.249,0,0,1-1.372-1.2,1.237,1.237,0,0,1,1.39-1.255q2.531-.02,5.062,0a1.25,1.25,0,0,1,1.381,1.19,1.272,1.272,0,0,1-1.4,1.264C-317.688,220.691-318.532,220.68-319.375,220.68Z" transform="translate(-21.046 -25.101)" fill="#040404"/>
    <path id="Trazado_638054" data-name="Trazado 638054" d="M-319.375,238.179c.875,0,1.75-.013,2.624,0a1.228,1.228,0,0,1,1.307,1.183,1.232,1.232,0,0,1-1.246,1.259q-2.664.048-5.33,0a1.213,1.213,0,0,1-1.257-1.239,1.232,1.232,0,0,1,1.36-1.206C-321.07,238.169-320.223,238.179-319.375,238.179Z" transform="translate(-21.047 -38.503)" fill="#040404"/>
    <path id="Trazado_638055" data-name="Trazado 638055" d="M-332.938,372.1a7.1,7.1,0,0,1,7.052-7.114,7.1,7.1,0,0,1,7.122,7.043,7.111,7.111,0,0,1-7.093,7.164A7.114,7.114,0,0,1-332.938,372.1Zm12.088-.048a4.972,4.972,0,0,0-5.016-4.964,5.021,5.021,0,0,0-5.01,4.991,5.064,5.064,0,0,0,5.08,5.026A5.013,5.013,0,0,0-320.85,372.053Z" transform="translate(-14.561 -123.636)" fill="#edf4f8"/>
    <path id="Trazado_638056" data-name="Trazado 638056" d="M-238.794,220.944q0,7.251,0,14.5c0,1.048-.082,1.138-1.1,1.139q-5,0-10,0c-.97,0-1.065-.1-1.065-1.09q0-14.624,0-29.247c0-1.013.074-1.092,1.057-1.093,3.359,0,6.719.015,10.078-.013.789-.007,1.043.28,1.039,1.058C-238.807,211.113-238.794,216.029-238.794,220.944Zm-6.1-4.942c-.844,0-1.687-.01-2.531,0a1.247,1.247,0,0,0-1.37,1.193,1.245,1.245,0,0,0,1.324,1.257q2.612.036,5.225,0a1.242,1.242,0,0,0,1.288-1.29,1.237,1.237,0,0,0-1.324-1.157C-243.152,215.989-244.023,216-244.894,216Zm.028-4.1c.844,0,1.688.013,2.531,0a1.265,1.265,0,0,0,1.379-1.2,1.256,1.256,0,0,0-1.4-1.253q-2.532-.019-5.063,0a1.251,1.251,0,0,0-1.377,1.192,1.268,1.268,0,0,0,1.4,1.262C-246.553,211.916-245.709,211.9-244.866,211.9Z" transform="translate(-69.599 -16.325)" fill="#f1f9fd"/>
    <path id="Trazado_638057" data-name="Trazado 638057" d="M-254.005,372.059a7.089,7.089,0,0,1,7.09-7.071,7.088,7.088,0,0,1,7.076,7.167,7.1,7.1,0,0,1-7.131,7.039A7.1,7.1,0,0,1-254.005,372.059Zm7.076-4.969a5.009,5.009,0,0,0-5.011,4.984,5.05,5.05,0,0,0,4.984,5.033,5.048,5.048,0,0,0,5.052-5.047A5.007,5.007,0,0,0-246.93,367.09Z" transform="translate(-67.551 -123.637)" fill="#edf4f8"/>
    <path id="Trazado_638058" data-name="Trazado 638058" d="M-161.543,218.223c.871,0,1.742-.017,2.613,0a1.224,1.224,0,0,1,1.295,1.185,1.224,1.224,0,0,1-1.305,1.263q-2.612.032-5.225,0a1.242,1.242,0,0,1-1.3-1.275,1.235,1.235,0,0,1,1.312-1.173C-163.285,218.207-162.414,218.223-161.543,218.223Z" transform="translate(-126.988 -25.104)" fill="#040404"/>
    <path id="Trazado_638059" data-name="Trazado 638059" d="M-161.512,238.18c.847,0,1.695-.012,2.542,0a1.23,1.23,0,0,1,1.333,1.149,1.221,1.221,0,0,1-1.282,1.3q-2.624.044-5.248,0a1.247,1.247,0,0,1-1.3-1.289,1.232,1.232,0,0,1,1.331-1.158C-163.261,238.168-162.386,238.18-161.512,238.18Z" transform="translate(-126.989 -38.503)" fill="#040404"/>
    <path id="Trazado_638060" data-name="Trazado 638060" d="M-160.927,372.051a7.107,7.107,0,0,1-7.03,7.143,7.111,7.111,0,0,1-7.143-7.03,7.1,7.1,0,0,1,6.989-7.175A7.093,7.093,0,0,1-160.927,372.051Zm-7.053-4.962a4.971,4.971,0,0,0-5.033,4.945,5.013,5.013,0,0,0,4.927,5.072,5.064,5.064,0,0,0,5.1-5.007A5.026,5.026,0,0,0-167.979,367.089Z" transform="translate(-120.524 -123.637)" fill="#edf4f8"/>
    <path id="Trazado_638061" data-name="Trazado 638061" d="M-316.64,376.346a5.013,5.013,0,0,1-4.946,5.053,5.064,5.064,0,0,1-5.08-5.026,5.021,5.021,0,0,1,5.01-4.991A4.972,4.972,0,0,1-316.64,376.346Zm-2.494.057a2.432,2.432,0,0,0-2.5-2.547,2.608,2.608,0,0,0-2.578,2.457,2.678,2.678,0,0,0,2.6,2.628A2.558,2.558,0,0,0-319.133,376.4Z" transform="translate(-18.772 -127.93)" fill="#030303"/>
    <path id="Trazado_638062" data-name="Trazado 638062" d="M-240.481,238.18c.871,0,1.742-.012,2.613,0a1.237,1.237,0,0,1,1.324,1.157,1.242,1.242,0,0,1-1.288,1.29q-2.612.043-5.225,0a1.245,1.245,0,0,1-1.324-1.257,1.247,1.247,0,0,1,1.37-1.193C-242.168,238.169-241.324,238.18-240.481,238.18Z" transform="translate(-74.012 -38.503)" fill="#040404"/>
    <path id="Trazado_638063" data-name="Trazado 638063" d="M-240.453,220.68c-.844,0-1.688.012-2.531,0a1.268,1.268,0,0,1-1.4-1.262A1.251,1.251,0,0,1-243,218.223q2.531-.021,5.063,0a1.256,1.256,0,0,1,1.4,1.253,1.265,1.265,0,0,1-1.379,1.2C-238.765,220.694-239.609,220.68-240.453,220.68Z" transform="translate(-74.011 -25.102)" fill="#040404"/>
    <path id="Trazado_638064" data-name="Trazado 638064" d="M-242.713,371.383a5.007,5.007,0,0,1,5.025,4.97,5.048,5.048,0,0,1-5.052,5.047,5.05,5.05,0,0,1-4.984-5.033A5.009,5.009,0,0,1-242.713,371.383Zm-2.487,5.036a2.5,2.5,0,0,0,2.469,2.523,2.5,2.5,0,0,0,2.52-2.553,2.428,2.428,0,0,0-2.51-2.532A2.431,2.431,0,0,0-245.2,376.419Z" transform="translate(-71.768 -127.93)" fill="#030303"/>
    <path id="Trazado_638065" data-name="Trazado 638065" d="M-163.717,371.382a5.026,5.026,0,0,1,4.993,5.01,5.064,5.064,0,0,1-5.1,5.007,5.013,5.013,0,0,1-4.927-5.072A4.971,4.971,0,0,1-163.717,371.382Zm-2.54,4.969a2.55,2.55,0,0,0,2.5,2.59,2.678,2.678,0,0,0,2.577-2.574,2.607,2.607,0,0,0-2.525-2.511A2.434,2.434,0,0,0-166.257,376.351Z" transform="translate(-124.786 -127.929)" fill="#030303"/>
    <path id="Trazado_638066" data-name="Trazado 638066" d="M-314.127,381.455a2.558,2.558,0,0,1-2.477,2.539,2.678,2.678,0,0,1-2.6-2.628,2.608,2.608,0,0,1,2.578-2.457A2.432,2.432,0,0,1-314.127,381.455Z" transform="translate(-23.778 -132.983)" fill="#415657"/>
    <path id="Trazado_638067" data-name="Trazado 638067" d="M-240.045,381.472a2.431,2.431,0,0,1,2.479-2.563,2.428,2.428,0,0,1,2.51,2.532,2.5,2.5,0,0,1-2.52,2.553A2.5,2.5,0,0,1-240.045,381.472Z" transform="translate(-76.923 -132.983)" fill="#415657"/>
    <path id="Trazado_638068" data-name="Trazado 638068" d="M-161.163,381.4a2.434,2.434,0,0,1,2.556-2.5,2.607,2.607,0,0,1,2.525,2.511,2.678,2.678,0,0,1-2.577,2.574A2.551,2.551,0,0,1-161.163,381.4Z" transform="translate(-129.88 -132.983)" fill="#415657"/>
  </g>
</svg>
