<svg xmlns="http://www.w3.org/2000/svg" width="65" height="65" viewBox="0 0 65 65">
  <g id="_17" data-name="17" transform="translate(-810 -4484)">
    <g id="Grupo_970474" data-name="Grupo 970474" transform="translate(263.74 4436.824)">
      <path id="Trazado_637690" data-name="Trazado 637690" d="M556.478,92.979a17.375,17.375,0,0,1-2.623-2.392.837.837,0,0,0-.674-.282c-.608.023-1.219.015-1.828,0a.887.887,0,1,1-.008-1.77c.037,0,.074,0,.111,0,.716-.029,1.508.213,2.126-.089a6.686,6.686,0,0,0,1.515-1.438,6.841,6.841,0,0,1,1.094-.931c.182-.119.3-.2.034-.378a17.065,17.065,0,0,1-2.348-2.182.9.9,0,0,0-.719-.3c-.608.023-1.218.016-1.828,0a.885.885,0,1,1-.017-1.768,1.252,1.252,0,0,1,.277,0,3.2,3.2,0,0,0,3.378-1.381,4.749,4.749,0,0,1,1.241-1.095c.146-.1.3-.171.042-.342a16.981,16.981,0,0,1-2.387-2.22.9.9,0,0,0-.728-.285c-.572.018-1.145.01-1.717,0-.647-.007-1.031-.35-1.022-.9.008-.531.38-.856,1-.871h.055a6.064,6.064,0,0,0,2.127-.094c.615-.261,1.052-.952,1.555-1.466a6.312,6.312,0,0,1,4.81-1.985c.535.01,1.071-.011,1.606.007.272.009.38-.047.379-.356q-.017-5.7,0-11.407a.89.89,0,0,0-.24-.591,6.9,6.9,0,0,1-1.537-4.342q-.011-.886,0-1.772c.009-.694.328-1.032,1.01-1.029a12.157,12.157,0,0,1,3.841.312,6.775,6.775,0,0,1,2.277,1.211,1.082,1.082,0,0,0,.755.25q10.746-.009,21.492,0a1.118,1.118,0,0,0,.748-.269,6.779,6.779,0,0,1,4.13-1.5c.683-.02,1.366-.013,2.049,0a.812.812,0,0,1,.906.785,10.037,10.037,0,0,1-.632,4.936,5.277,5.277,0,0,1-.739,1.226,1.563,1.563,0,0,0-.389,1.152c.014,3.562.008,7.125.008,10.687,0,.706,0,.7.736.707a13.29,13.29,0,0,1,2.814.137,6.313,6.313,0,0,1,3.143,1.751,7.567,7.567,0,0,0,1.634,1.554c.644.329,1.48.071,2.232.1a.889.889,0,1,1,.016,1.773c-.037,0-.074,0-.111,0-.716.029-1.508-.212-2.126.089a6.647,6.647,0,0,0-1.515,1.437,7.4,7.4,0,0,1-1.138.965c-.141.094-.245.168-.03.312a18.689,18.689,0,0,1,2.468,2.3.743.743,0,0,0,.586.221c.628-.012,1.256-.014,1.883,0a.869.869,0,0,1,.929.881.88.88,0,0,1-.925.888,1.01,1.01,0,0,1-.221,0,3.281,3.281,0,0,0-3.469,1.427,4.432,4.432,0,0,1-1.2,1.052c-.174.113-.247.2-.02.348a17.573,17.573,0,0,1,2.387,2.221.844.844,0,0,0,.676.277c.608-.022,1.219-.015,1.828,0a.873.873,0,0,1,.95.86.885.885,0,0,1-.959.91h-.055c-.733.033-1.545-.219-2.178.1a7.053,7.053,0,0,0-1.554,1.477,7.2,7.2,0,0,1-1.054.892c-.131.088-.326.165-.056.345a17.177,17.177,0,0,1,2.389,2.219.9.9,0,0,0,.725.292c.59-.02,1.181-.013,1.772,0a.879.879,0,0,1,.972.895c-.006.527-.384.86-.993.876a.542.542,0,0,1-.111,0,3.347,3.347,0,0,0-3.559,1.475,4.247,4.247,0,0,1-1.168,1.01c-.194.124-.215.206-.006.345a16.727,16.727,0,0,1,2.348,2.182.952.952,0,0,0,.772.313c.59-.024,1.181-.015,1.772,0a.872.872,0,0,1,.945.865.888.888,0,0,1-.964.905c-.751.031-1.587-.228-2.231.1a7.723,7.723,0,0,0-1.634,1.554,6.315,6.315,0,0,1-4.629,1.891q-18.916-.006-37.832,0a6.309,6.309,0,0,1-4.543-1.828c-.04-.038-.079-.078-.118-.117a7.174,7.174,0,0,0-1.595-1.512,5.544,5.544,0,0,0-2.181-.088c-.616-.019-.989-.341-1-.87-.011-.552.373-.884,1.018-.906.733-.024,1.545.22,2.178-.1a7.047,7.047,0,0,0,1.553-1.478,6.853,6.853,0,0,1,1.1-.923c.169-.11.2-.181.01-.31a17.311,17.311,0,0,1-2.388-2.219.9.9,0,0,0-.725-.293c-.59.02-1.181.013-1.772,0a.88.88,0,0,1-.975-.891c0-.531.377-.864.987-.879a.543.543,0,0,1,.111,0,3.356,3.356,0,0,0,3.563-1.468A4.856,4.856,0,0,1,556.478,92.979Zm45.762-3.556a9.479,9.479,0,0,0-1.28-1.352,4.18,4.18,0,0,0-2.473-1.248,25.708,25.708,0,0,0-2.655-.057c-.27-.009-.231.17-.23.331q.007,1.162.017,2.325c-.006.349-.029.7-.014,1.046.023.526-.233,1.224.1,1.527.288.26.978.049,1.485.095C599.459,92.294,600.95,91.054,602.24,89.423Zm-46.96,7.089a6.685,6.685,0,0,0,1,1.083,4.742,4.742,0,0,0,3.964,1.587.5.5,0,0,0,.534-.351,4.741,4.741,0,0,1,.851-1.415.972.972,0,0,0,.271-.905c.006-.424.018-.848.016-1.272,0-.44.15-1.026-.073-1.282-.262-.3-.866-.051-1.318-.1C558.194,93.6,556.614,94.81,555.28,96.512Zm0-7.089a9.259,9.259,0,0,0,2.089,1.994,4.029,4.029,0,0,0,2.13.658c.679.019,1.359,0,2.039.014.268.007.4-.043.386-.355-.027-.77-.019-1.542-.024-2.313.006-.424.018-.848.016-1.272,0-.44.15-1.026-.072-1.282-.263-.3-.867-.051-1.319-.1C558.194,86.507,556.613,87.72,555.28,89.423Zm46.96,7.089a9.49,9.49,0,0,0-1.28-1.352,4.184,4.184,0,0,0-2.473-1.248,25.645,25.645,0,0,0-2.655-.057c-.27-.009-.231.17-.23.331q.007,1.162.017,2.325a.975.975,0,0,0,.271.905,4.757,4.757,0,0,1,.85,1.416c.1.265.258.329.535.351C599.512,99.361,600.966,98.108,602.24,96.513ZM561.9,82.333c.006-.424.018-.848.016-1.272,0-.44.15-1.026-.072-1.282-.263-.3-.867-.051-1.319-.1-2.33-.259-3.911.954-5.245,2.657a9.259,9.259,0,0,0,2.089,1.994,4.029,4.029,0,0,0,2.13.658c.679.019,1.359,0,2.039.014.268.007.4-.043.386-.355C561.9,83.875,561.905,83.1,561.9,82.333Zm33.72-7.089c-.006.349-.029.7-.014,1.046.022.526-.233,1.225.1,1.527.288.259.978.049,1.485.095,2.265.2,3.757-1.035,5.046-2.666a9.505,9.505,0,0,0-1.28-1.352,4.18,4.18,0,0,0-2.473-1.248,25.646,25.646,0,0,0-2.655-.057c-.27-.009-.231.17-.23.331Q595.61,74.081,595.62,75.243Zm-33.72,0c.006-.424.018-.848.016-1.272,0-.44.15-1.026-.072-1.282-.263-.3-.867-.052-1.319-.1-2.33-.259-3.911.953-5.245,2.657a9.254,9.254,0,0,0,2.089,1.994,4.027,4.027,0,0,0,2.13.658c.679.019,1.359,0,2.039.014.268.006.4-.043.386-.355C561.9,76.786,561.905,76.014,561.9,75.243Zm33.72,7.089c-.006.349-.029.7-.014,1.046.023.526-.233,1.225.1,1.527.288.259.978.049,1.485.095,2.265.2,3.757-1.035,5.046-2.666a9.48,9.48,0,0,0-1.28-1.352,4.18,4.18,0,0,0-2.473-1.248,25.646,25.646,0,0,0-2.655-.057c-.27-.009-.231.17-.23.332Q595.61,81.17,595.62,82.333Zm-29.05,21.161c-.433.2-.86.406-1.3.583a10.561,10.561,0,0,1-4.031.413c-.7,0-.928-.191-1.111-.889.007-.717-.016-1.435.032-2.149.028-.409-.062-.522-.488-.517-2,.025-3.229,1.282-4.39,2.667a5.457,5.457,0,0,0,.882.966,5.069,5.069,0,0,0,4.08,1.709c12.327-.026,24.654-.045,36.98.014a6.06,6.06,0,0,0,5.018-2.689,9.4,9.4,0,0,0-2.094-1.992,4.336,4.336,0,0,0-2.408-.668c-.254,0-.4.012-.381.344.039.77.026,1.543.035,2.314a.9.9,0,0,1-.89.884,9.527,9.527,0,0,1-5.552-.991,2.971,2.971,0,0,0-2.288-.795q-9.874.056-19.749,0A3,3,0,0,0,566.57,103.494Zm-2.862-42.419c-.006.129-.017.258-.017.386q0,15.561,0,31.121c0,.129.011.258.017.386v1.769c-.074.5-.088.963.552,1.11.064.015.115.081.173.123a1.049,1.049,0,0,1-.316,1.379c-.195.168-.363.368-.55.545a5.161,5.161,0,0,0-1.594,3.081c-.082.563-.285,1.315.044,1.644s1.079.11,1.644.041a5.8,5.8,0,0,0,3.628-2.142,1.06,1.06,0,0,1,1.379-.315,5.4,5.4,0,0,1,.32.555c.161.371.468.135.7.175.262.046.206-.17.19-.328q.008-1.938.016-3.875c0-.793.311-1.1,1.109-1.1q7.755,0,15.509,0c.8,0,1.1.31,1.109,1.1.008,1.292.011,2.583.017,3.875-.016.158-.072.374.19.327.233-.041.54.2.7-.176a5.174,5.174,0,0,1,.321-.555,1.051,1.051,0,0,1,1.379.317c.168.2.366.364.546.55a5.2,5.2,0,0,0,3.083,1.59c.563.079,1.315.289,1.644-.04s.116-1.08.044-1.645a5.8,5.8,0,0,0-2.145-3.627,1.053,1.053,0,0,1-.316-1.378c.524-.245.941-.553.725-1.232.006-.129.017-.258.017-.386q0-16.446,0-32.891c0-.129-.011-.258-.017-.386.074-.5.088-.963-.552-1.11-.064-.015-.115-.081-.173-.123a1.047,1.047,0,0,1,.317-1.378c.209-.18.392-.39.589-.584a5.18,5.18,0,0,0,1.551-3.044c.078-.564.289-1.315-.04-1.643s-1.08-.113-1.644-.042a5.818,5.818,0,0,0-3.628,2.143,1.057,1.057,0,0,1-1.379.315,5.356,5.356,0,0,1-.321-.555c-.162-.371-.468-.135-.7-.175-.262-.046-.205.171-.189.328-.005,1.31-.007,2.62-.018,3.93-.006.72-.33,1.035-1.055,1.046-.535.009-1.07.013-1.6.019-.2-.006-.405-.018-.608-.018q-6.675,0-13.351,0c-.8,0-1.1-.31-1.109-1.1q-.011-1.938-.016-3.876c.019-.16.068-.374-.193-.326-.233.043-.542-.2-.7.179a4.873,4.873,0,0,1-.321.557,1.06,1.06,0,0,1-1.379-.322c-.18-.209-.39-.392-.585-.589a5.163,5.163,0,0,0-3.043-1.551c-.564-.077-1.317-.286-1.644.041s-.113,1.079-.042,1.644a5.718,5.718,0,0,0,2.105,3.586,1.1,1.1,0,0,1,.359,1.42C563.919,60.09,563.485,60.388,563.708,61.075ZM578.758,97.4c-2.2,0-4.391.007-6.586-.007-.367,0-.526.072-.512.481.03.866.023,1.733,0,2.6-.008.351.085.478.459.477q6.641-.018,13.282,0c.38,0,.463-.136.454-.481-.02-.829-.031-1.661,0-2.489.019-.45-.1-.6-.572-.592C583.111,97.417,580.934,97.4,578.758,97.4Zm0-38.993c2.2,0,4.39-.007,6.586.007.366,0,.527-.071.513-.48-.03-.866-.023-1.733,0-2.6.009-.35-.082-.479-.458-.478q-6.641.018-13.282,0c-.379,0-.464.134-.455.481.021.829.031,1.661,0,2.489-.019.448.1.6.572.593C574.407,58.395,576.584,58.41,578.761,58.409Z" fill="#020201"/>
      <path id="Trazado_637691" data-name="Trazado 637691" d="M603.8,100.7V98.927q8.323,0,16.645.008a3.816,3.816,0,0,0,1.253-.143,3.285,3.285,0,0,0,2.142-1.4c.175.1.347.2.526.293a3.564,3.564,0,0,0,4.161-.742,3.438,3.438,0,0,0,.465-4.23c-.686-1.006-.22-2.026-.345-3.038.323.249.552.551.844.769a2.051,2.051,0,0,1,.889,2.138.89.89,0,0,0,1.248.955.882.882,0,0,0,.523-.89q-.008-3.817,0-7.635c0-.977.011-1.955-.005-2.932a.882.882,0,0,0-1.764-.013c-.016.331,0,.664-.005,1,0,.2.042.394-.131.566-.516.515-1.017,1.046-1.64,1.69,0-1.13,0-2.08,0-3.029,0-.773-.3-1.075-1.058-1.078q-1.079-.005-2.158,0c-.236,0-.465.013-.422-.331.143-.155.091-.348.091-.526q0-3.551,0-7.1c.571-.006,1.142-.007,1.714-.02a.887.887,0,1,0,0-1.769c-.571-.013-1.142-.014-1.714-.02V69.7c.571-.006,1.142-.007,1.714-.02a.887.887,0,1,0,0-1.769c-.571-.013-1.142-.014-1.714-.02V66.159c.535-.006,1.07-.01,1.6-.019.725-.012,1.049-.327,1.055-1.046.011-1.31.012-2.62.018-3.93.458.576.7.657,1.211.4a1.058,1.058,0,0,0,1.379-.315,5.818,5.818,0,0,1,3.628-2.143c.565-.071,1.315-.286,1.644.042s.118,1.08.04,1.643a5.179,5.179,0,0,1-1.551,3.044c-.2.194-.38.4-.589.584a1.047,1.047,0,0,0-.317,1.378c-.314.62-.053,1.064.725,1.233.006.129.017.258.017.386q0,16.445,0,32.891c0,.129-.011.257-.017.386-.778.168-1.04.614-.725,1.232a1.053,1.053,0,0,0,.316,1.378,5.8,5.8,0,0,1,2.145,3.627c.072.565.284,1.316-.044,1.645s-1.08.12-1.644.04a5.2,5.2,0,0,1-3.083-1.59c-.18-.186-.377-.355-.546-.55a1.051,1.051,0,0,0-1.379-.317c-.51-.254-.755-.172-1.212.4-.005-1.292-.009-2.583-.017-3.875,0-.792-.313-1.1-1.109-1.1q-7.755,0-15.509,0c-.8,0-1.1.308-1.109,1.1q-.012,1.938-.016,3.875c-.459-.576-.7-.658-1.211-.4a1.06,1.06,0,0,0-1.379.315,5.8,5.8,0,0,1-3.628,2.142c-.565.069-1.316.287-1.644-.041s-.126-1.081-.044-1.644a5.161,5.161,0,0,1,1.594-3.081c.187-.178.355-.377.55-.545a1.049,1.049,0,0,0,.316-1.379C604.842,101.308,604.581,100.864,603.8,100.7Z" transform="translate(-40.094 -5.958)" fill="#f1ce9b"/>
      <path id="Trazado_637692" data-name="Trazado 637692" d="M625.07,73.242q0,3.551,0,7.1c0,.178.053.371-.091.526a7.1,7.1,0,0,0-13.8-.828c-.118.378-.014.933-.347,1.1a3.009,3.009,0,0,1-1.254.053,1.43,1.43,0,0,0-1.177.325c-.819.851-1.664,1.677-2.5,2.51a.984.984,0,0,0-.331.729c0,3.526,0,7.052.005,10.577a.847.847,0,0,0,.933.923c.609.01,1.219.011,1.828,0a.594.594,0,0,1,.551.266,3.5,3.5,0,0,0,5.781.007.552.552,0,0,1,.49-.275q3.711.015,7.423,0a.453.453,0,0,1,.455.231,3.985,3.985,0,0,0,.821.89,3.285,3.285,0,0,1-2.142,1.4,3.816,3.816,0,0,1-1.253.143q-8.322-.014-16.645-.008c-.006-.129-.017-.257-.017-.386q0-15.561,0-31.121c0-.129.011-.257.017-.386.782-.184,1.027-.6.73-1.234a1.1,1.1,0,0,0-.359-1.42,5.718,5.718,0,0,1-2.105-3.586c-.071-.565-.285-1.317.042-1.644s1.08-.117,1.644-.041a5.163,5.163,0,0,1,3.043,1.551c.194.2.4.38.584.589a1.06,1.06,0,0,0,1.379.322c.573.363.892-.027,1.214-.409q.007,1.938.016,3.876c0,.792.313,1.1,1.109,1.1q6.675,0,13.351,0c.2,0,.405.011.608.018v1.735c-.147.006-.294.018-.442.018q-6.812,0-13.624,0c-.62,0-.987.324-1,.856-.015.561.359.908,1,.913.72.006,1.44,0,2.16,0l11.906.018v1.736c-.147.006-.294.017-.442.018q-6.812,0-13.624,0c-.62,0-.987.324-1,.856-.015.561.359.908,1,.913.72.006,1.44,0,2.16,0Z" transform="translate(-40.107 -5.952)" fill="#f6e1bf"/>
      <path id="Trazado_637693" data-name="Trazado 637693" d="M619.36,286.476a6.06,6.06,0,0,1-5.018,2.689c-12.326-.059-24.653-.04-36.98-.014a5.069,5.069,0,0,1-4.08-1.709,5.457,5.457,0,0,1-.882-.966h4.847c.182.7.412.889,1.111.889a10.561,10.561,0,0,0,4.031-.413c.441-.177.867-.387,1.3-.583.162.184.38.108.573.108q11.617.006,23.235,0c.193,0,.41.076.573-.108a9.527,9.527,0,0,0,5.552.991.9.9,0,0,0,.89-.884Z" transform="translate(-17.12 -182.873)" fill="#beb39c"/>
      <path id="Trazado_637694" data-name="Trazado 637694" d="M653.281,258.886c2.177,0,4.354.015,6.53-.011.474-.006.592.142.573.592-.035.828-.024,1.66,0,2.489.009.346-.074.483-.454.482q-6.641-.018-13.282,0c-.374,0-.467-.126-.459-.477.021-.866.028-1.734,0-2.6-.014-.409.145-.483.512-.481C648.89,258.893,651.086,258.886,653.281,258.886Z" transform="translate(-74.523 -161.484)" fill="#4b7c35"/>
      <path id="Trazado_637695" data-name="Trazado 637695" d="M653.277,70.828c-2.177,0-4.354-.014-6.53.012-.476.006-.59-.144-.572-.593.035-.828.024-1.66,0-2.489-.009-.347.076-.482.455-.481q6.641.018,13.282,0c.375,0,.466.128.458.478-.021.866-.028,1.734,0,2.6.014.41-.147.483-.513.48C657.668,70.821,655.473,70.828,653.277,70.828Z" transform="translate(-74.517 -12.419)" fill="#4b7c35"/>
      <path id="Trazado_637696" data-name="Trazado 637696" d="M647.636,283.581c-.162.184-.38.108-.573.108q-11.617.006-23.235,0c-.193,0-.41.076-.573-.108a3,3,0,0,1,2.343-.795q9.874.055,19.749,0A2.971,2.971,0,0,1,647.636,283.581Z" transform="translate(-56.686 -180.087)" fill="#dbd5ca"/>
      <path id="Trazado_637697" data-name="Trazado 637697" d="M760.441,191.043c-1.29,1.631-2.781,2.87-5.046,2.666-.508-.046-1.2.165-1.485-.095-.335-.3-.08-1-.1-1.527-.015-.348.008-.7.014-1.046Z" transform="translate(-158.2 -108.709)" fill="#beb39c"/>
      <path id="Trazado_637698" data-name="Trazado 637698" d="M572.4,149.622c1.333-1.7,2.914-2.916,5.244-2.657.452.05,1.056-.2,1.319.1.222.256.07.842.072,1.282,0,.424-.01.848-.016,1.272Z" transform="translate(-17.119 -74.377)" fill="#dbd5ca"/>
      <path id="Trazado_637699" data-name="Trazado 637699" d="M754.052,149.772q-.009-1.162-.017-2.325c0-.162-.04-.341.23-.331a25.645,25.645,0,0,1,2.655.057,4.179,4.179,0,0,1,2.473,1.248,9.508,9.508,0,0,1,1.28,1.352Z" transform="translate(-158.432 -74.529)" fill="#dbd5ca"/>
      <path id="Trazado_637700" data-name="Trazado 637700" d="M572.4,159.107h6.619c.006.771,0,1.542.024,2.313.011.311-.118.361-.386.355-.68-.017-1.36.005-2.039-.014a4.027,4.027,0,0,1-2.13-.658A9.252,9.252,0,0,1,572.4,159.107Z" transform="translate(-17.119 -83.863)" fill="#beb39c"/>
      <path id="Trazado_637701" data-name="Trazado 637701" d="M753.82,159.106h6.62c-1.29,1.631-2.781,2.87-5.046,2.666-.508-.046-1.2.165-1.485-.095-.335-.3-.08-1-.1-1.527C753.792,159.8,753.814,159.455,753.82,159.106Z" transform="translate(-158.2 -83.863)" fill="#beb39c"/>
      <path id="Trazado_637702" data-name="Trazado 637702" d="M572.4,181.557c1.333-1.7,2.914-2.916,5.244-2.657.452.05,1.056-.2,1.319.1.222.256.07.842.072,1.282,0,.424-.01.848-.016,1.272Z" transform="translate(-17.119 -99.224)" fill="#dbd5ca"/>
      <path id="Trazado_637703" data-name="Trazado 637703" d="M760.672,181.709h-6.62q-.009-1.162-.017-2.325c0-.162-.04-.341.23-.332a25.646,25.646,0,0,1,2.655.057,4.179,4.179,0,0,1,2.473,1.248A9.488,9.488,0,0,1,760.672,181.709Z" transform="translate(-158.432 -99.375)" fill="#dbd5ca"/>
      <path id="Trazado_637704" data-name="Trazado 637704" d="M572.4,191.043h6.619c.006.771,0,1.542.024,2.312.011.312-.118.361-.386.355-.68-.017-1.36.006-2.039-.014a4.029,4.029,0,0,1-2.13-.658A9.258,9.258,0,0,1,572.4,191.043Z" transform="translate(-17.119 -108.709)" fill="#beb39c"/>
      <path id="Trazado_637705" data-name="Trazado 637705" d="M754.052,245.58q-.009-1.162-.017-2.325c0-.162-.04-.341.23-.331a25.651,25.651,0,0,1,2.655.057,4.184,4.184,0,0,1,2.473,1.248,9.492,9.492,0,0,1,1.28,1.352Z" transform="translate(-158.432 -149.068)" fill="#dbd5ca"/>
      <path id="Trazado_637706" data-name="Trazado 637706" d="M572.4,213.493c1.333-1.7,2.914-2.916,5.244-2.657.452.05,1.056-.2,1.319.1.222.256.07.842.072,1.282,0,.424-.01.848-.016,1.272Z" transform="translate(-17.119 -124.07)" fill="#dbd5ca"/>
      <path id="Trazado_637707" data-name="Trazado 637707" d="M572.4,245.429c1.334-1.7,2.914-2.916,5.244-2.657.452.05,1.056-.2,1.318.1.222.256.07.842.073,1.282,0,.424-.01.848-.016,1.272Z" transform="translate(-17.119 -148.916)" fill="#dbd5ca"/>
      <path id="Trazado_637708" data-name="Trazado 637708" d="M760.441,222.979c-1.29,1.63-2.781,2.87-5.046,2.666-.508-.046-1.2.165-1.485-.095-.335-.3-.08-1-.1-1.527-.015-.348.008-.7.014-1.046Z" transform="translate(-158.2 -133.556)" fill="#beb39c"/>
      <path id="Trazado_637709" data-name="Trazado 637709" d="M760.672,213.645h-6.62q-.009-1.162-.017-2.325c0-.162-.04-.341.23-.331a25.705,25.705,0,0,1,2.655.057,4.179,4.179,0,0,1,2.473,1.248A9.485,9.485,0,0,1,760.672,213.645Z" transform="translate(-158.432 -124.221)" fill="#dbd5ca"/>
      <path id="Trazado_637710" data-name="Trazado 637710" d="M572.4,222.978h6.619c.006.771,0,1.542.024,2.313.011.311-.118.361-.386.354-.68-.017-1.36.006-2.039-.014a4.029,4.029,0,0,1-2.13-.658A9.257,9.257,0,0,1,572.4,222.978Z" transform="translate(-17.119 -133.555)" fill="#beb39c"/>
      <path id="Trazado_637711" data-name="Trazado 637711" d="M754.034,254.913h6.621c-1.275,1.6-2.728,2.849-4.964,2.671-.276-.022-.432-.086-.535-.351a4.754,4.754,0,0,0-.85-1.416A.975.975,0,0,1,754.034,254.913Z" transform="translate(-158.414 -158.402)" fill="#bdb29b"/>
      <path id="Trazado_637712" data-name="Trazado 637712" d="M572.4,254.914h6.619a.972.972,0,0,1-.271.905,4.742,4.742,0,0,0-.851,1.415.5.5,0,0,1-.534.351A4.742,4.742,0,0,1,573.4,256,6.682,6.682,0,0,1,572.4,254.914Z" transform="translate(-17.119 -158.402)" fill="#bdb29b"/>
      <path id="Trazado_637713" data-name="Trazado 637713" d="M577.247,277.507H572.4c1.161-1.385,2.391-2.642,4.39-2.667.427-.005.516.108.488.517C577.231,276.072,577.254,276.79,577.247,277.507Z" transform="translate(-17.12 -173.906)" fill="#dbd5ca"/>
      <path id="Trazado_637714" data-name="Trazado 637714" d="M766.825,277.533h-4.848c-.008-.772,0-1.544-.035-2.314-.017-.333.127-.345.381-.344a4.336,4.336,0,0,1,2.408.668A9.4,9.4,0,0,1,766.825,277.533Z" transform="translate(-164.585 -173.931)" fill="#dbd5ca"/>
      <path id="Trazado_637715" data-name="Trazado 637715" d="M610.884,89.722c.3.635.052,1.05-.73,1.234C609.931,90.269,610.366,89.971,610.884,89.722Z" transform="translate(-46.446 -29.881)" fill="#c39f6f"/>
      <path id="Trazado_637716" data-name="Trazado 637716" d="M610.242,246.923c.778.168,1.04.613.725,1.233-.057-.042-.109-.109-.173-.123C610.155,247.886,610.168,247.421,610.242,246.923Z" transform="translate(-46.534 -152.186)" fill="#c39f6f"/>
      <path id="Trazado_637717" data-name="Trazado 637717" d="M742.251,248.155c-.315-.618-.053-1.064.725-1.232C743.191,247.6,742.775,247.911,742.251,248.155Z" transform="translate(-149.164 -152.186)" fill="#c39f6f"/>
      <path id="Trazado_637718" data-name="Trazado 637718" d="M632.709,271.065c.507-.255.753-.174,1.211.4.016.158.073.374-.19.328-.233-.04-.54.2-.7-.175A5.4,5.4,0,0,0,632.709,271.065Z" transform="translate(-64.041 -170.861)" fill="#c39f6f"/>
      <path id="Trazado_637719" data-name="Trazado 637719" d="M718.117,271.468c.457-.577.7-.658,1.212-.4a5.18,5.18,0,0,0-.321.555c-.16.373-.467.135-.7.176C718.045,271.842,718.1,271.626,718.117,271.468Z" transform="translate(-130.477 -170.861)" fill="#c39f6f"/>
      <path id="Trazado_637720" data-name="Trazado 637720" d="M633.916,67.556c-.322.382-.641.772-1.214.409a4.895,4.895,0,0,0,.321-.557c.159-.379.467-.136.7-.179C633.983,67.182,633.935,67.4,633.916,67.556Z" transform="translate(-64.036 -12.352)" fill="#c39f6f"/>
      <path id="Trazado_637721" data-name="Trazado 637721" d="M719.328,67.961c-.508.255-.753.173-1.211-.4-.016-.157-.073-.374.189-.328.233.04.54-.2.7.175A5.355,5.355,0,0,0,719.328,67.961Z" transform="translate(-130.477 -12.354)" fill="#c39f6f"/>
      <path id="Trazado_637722" data-name="Trazado 637722" d="M742.975,90.955c-.778-.169-1.039-.613-.725-1.233.057.042.109.109.173.123C743.063,89.991,743.049,90.457,742.975,90.955Z" transform="translate(-149.164 -29.881)" fill="#c39f6f"/>
      <path id="Trazado_637723" data-name="Trazado 637723" d="M636.547,153.565a3.985,3.985,0,0,1-.821-.89.453.453,0,0,0-.455-.231q-3.712.009-7.423,0a.552.552,0,0,0-.49.275,3.5,3.5,0,0,1-5.781-.007.594.594,0,0,0-.551-.266c-.609.013-1.219.012-1.828,0a.847.847,0,0,1-.933-.923c-.006-3.526,0-7.051-.005-10.577a.984.984,0,0,1,.331-.729c.837-.833,1.683-1.659,2.5-2.51a1.43,1.43,0,0,1,1.177-.325,3.01,3.01,0,0,0,1.253-.053c.334-.17.23-.725.347-1.1a7.1,7.1,0,0,1,13.8.828c-.043.345.186.333.422.331q1.079-.006,2.158,0c.76,0,1.056.305,1.058,1.078,0,.95,0,1.9,0,3.029.622-.644,1.123-1.174,1.64-1.69.173-.172.127-.37.131-.566.006-.332-.011-.665.005-1a.882.882,0,0,1,1.764.013c.016.977.005,1.955.005,2.932q0,3.817,0,7.635a.882.882,0,0,1-.523.89.89.89,0,0,1-1.248-.955,2.051,2.051,0,0,0-.889-2.138c-.292-.218-.521-.52-.844-.769.124,1.012-.341,2.031.345,3.038a3.438,3.438,0,0,1-.465,4.23,3.564,3.564,0,0,1-4.16.742C636.894,153.768,636.722,153.663,636.547,153.565Zm1-1.561a1.677,1.677,0,0,0,2.337-.075,1.748,1.748,0,0,0,.177-2.314,1.72,1.72,0,0,0-2.3-.412A1.671,1.671,0,0,0,637.543,152Zm-11.321-16.539a5.232,5.232,0,0,0,1.168,6.967,5.311,5.311,0,0,0,7.346-.753c1.634-1.928,1.539-4.812.38-6.124a4.448,4.448,0,1,1-8.895-.089ZM625.354,143c0,1.339.008,2.571-.006,3.8,0,.271.084.337.344.336q4.982-.012,9.964,0c.332,0,.34-.148.338-.4-.009-1.088,0-2.177-.008-3.265,0-.131.08-.292-.077-.4A7.158,7.158,0,0,1,625.354,143Zm-4.959-2.069c.262,0,.385-.006.506,0a.886.886,0,1,1-.026,1.771,3.69,3.69,0,0,1-.5,0c-.257-.027-.33.06-.354.329-.041.459.1.645.566.564a1.461,1.461,0,0,1,.442,0,.828.828,0,0,1,.768.747.841.841,0,0,1-.565.965,3.612,3.612,0,0,1-.432.058c-.3.078-.794-.286-.785.454.009.7.477.345.758.426a1.254,1.254,0,0,0,.221.006.886.886,0,0,1,.009,1.765,3.9,3.9,0,0,1-.664,0c-.249-.022-.313.076-.309.314.014.683.021,1.366,0,2.049-.011.317.162.338.375.293.188-.04.486.19.528-.251a3.445,3.445,0,0,1,2.378-3.1.356.356,0,0,0,.279-.392q-.016-3.738,0-7.475c0-.191-.019-.3-.261-.306-.664-.008-1.3-.061-1.761.612A9.218,9.218,0,0,1,620.395,140.927Zm12.934-5.3a2.657,2.657,0,1,0-2.664,2.635A2.7,2.7,0,0,0,633.329,135.631Zm6.208,11.606v-6.75c0-1.412,0-1.4-1.441-1.34-.268.012-.337.088-.336.347q.013,3.65,0,7.3c0,.265.075.348.341.342A4.431,4.431,0,0,1,639.537,147.237Zm-11.951,1.679a4.05,4.05,0,0,1,.422,1.539c0,.226.128.22.284.22q3.261,0,6.521,0c.112,0,.292.059.288-.146a5.161,5.161,0,0,1,.405-1.61Zm-3.1,3.527a1.769,1.769,0,1,0-1.783-1.754A1.821,1.821,0,0,0,624.481,152.443Zm18.563-10.23-1.14,1.163c-.1.1-.234.193-.065.357.395.384.781.777,1.244,1.239,0-.921,0-1.708,0-2.494C643.081,142.427,643.067,142.376,643.044,142.213Z" transform="translate(-52.8 -62.135)" fill="#020201"/>
      <path id="Trazado_637724" data-name="Trazado 637724" d="M653.306,100.971l-11.906-.018c-.72,0-1.44,0-2.16,0-.642-.005-1.016-.352-1-.913.014-.533.381-.856,1-.856q6.812,0,13.624,0c.147,0,.295-.012.442-.018.571.006,1.142.007,1.714.02a.887.887,0,1,1,0,1.769C654.449,100.964,653.878,100.965,653.306,100.971Z" transform="translate(-68.344 -37.226)" fill="#010100"/>
      <path id="Trazado_637725" data-name="Trazado 637725" d="M653.306,116.939l-11.906-.018c-.72,0-1.44,0-2.16,0-.642-.005-1.016-.352-1-.913.014-.533.381-.856,1-.856q6.812,0,13.624,0c.147,0,.295-.012.442-.018.571.006,1.142.007,1.714.02a.887.887,0,1,1,0,1.769C654.449,116.932,653.878,116.933,653.306,116.939Z" transform="translate(-68.344 -49.649)" fill="#010100"/>
      <path id="Trazado_637726" data-name="Trazado 637726" d="M651.138,150.482a4.448,4.448,0,1,0,8.895.089c1.159,1.312,1.253,4.2-.38,6.124a5.311,5.311,0,0,1-7.346.753A5.232,5.232,0,0,1,651.138,150.482Z" transform="translate(-77.716 -77.153)" fill="#f3dfbd"/>
      <path id="Trazado_637727" data-name="Trazado 637727" d="M650.2,184.414a7.158,7.158,0,0,0,10.555.079c.157.107.076.269.077.4.008,1.088,0,2.177.008,3.265,0,.25-.006.4-.338.4q-4.982-.019-9.964,0c-.26,0-.347-.065-.344-.336C650.2,186.985,650.2,185.753,650.2,184.414Z" transform="translate(-77.641 -103.553)" fill="#f5e0be"/>
      <path id="Trazado_637728" data-name="Trazado 637728" d="M626.549,168.845a9.213,9.213,0,0,0,1.166-1.166c.459-.673,1.1-.62,1.761-.612.242,0,.261.115.261.306q-.006,3.738,0,7.475a.357.357,0,0,1-.279.392,3.445,3.445,0,0,0-2.378,3.1c-.042.441-.341.212-.528.251-.212.045-.385.023-.374-.293.023-.682.016-1.366,0-2.048,0-.238.06-.336.309-.314a3.9,3.9,0,0,0,.664,0,.886.886,0,0,0-.009-1.765,1.25,1.25,0,0,1-.221-.006c-.28-.081-.749.277-.758-.426-.009-.74.49-.376.785-.454a3.617,3.617,0,0,0,.432-.058.84.84,0,0,0,.565-.965.828.828,0,0,0-.768-.747,1.461,1.461,0,0,0-.442,0c-.468.081-.607-.105-.566-.564.024-.27.1-.356.354-.329a3.7,3.7,0,0,0,.5,0,.886.886,0,1,0,.026-1.771C626.934,168.84,626.812,168.845,626.549,168.845Z" transform="translate(-58.954 -90.053)" fill="#f5e0be"/>
      <path id="Trazado_637729" data-name="Trazado 637729" d="M667.519,141.85a2.657,2.657,0,1,1-2.621-2.677A2.7,2.7,0,0,1,667.519,141.85Z" transform="translate(-86.989 -68.355)" fill="#f4e0be"/>
      <path id="Trazado_637730" data-name="Trazado 637730" d="M707.876,175.091a4.431,4.431,0,0,0-1.436-.1c-.266.006-.342-.077-.341-.342q.014-3.65,0-7.3c0-.26.068-.335.336-.347,1.441-.063,1.441-.072,1.441,1.34Z" transform="translate(-121.139 -89.989)" fill="#f1ce9b"/>
      <path id="Trazado_637731" data-name="Trazado 637731" d="M660.268,211.08h7.921a5.161,5.161,0,0,0-.405,1.61c0,.206-.176.146-.288.146q-3.261.005-6.521,0c-.156,0-.288.007-.284-.22A4.049,4.049,0,0,0,660.268,211.08Z" transform="translate(-85.482 -124.299)" fill="#f6e1bf"/>
      <path id="Trazado_637732" data-name="Trazado 637732" d="M640.035,214.567a1.769,1.769,0,1,1,1.756-1.782A1.818,1.818,0,0,1,640.035,214.567Z" transform="translate(-68.353 -124.259)" fill="#f3dfbd"/>
      <path id="Trazado_637733" data-name="Trazado 637733" d="M705.335,211.43a1.72,1.72,0,0,1,2.3.412,1.747,1.747,0,0,1-.177,2.314,1.677,1.677,0,0,1-2.337.075A7.687,7.687,0,0,0,705.335,211.43Z" transform="translate(-120.381 -124.363)" fill="#efcc9a"/>
      <path id="Trazado_637734" data-name="Trazado 637734" d="M725.4,180.882c.024.164.038.214.038.265,0,.786,0,1.573,0,2.494-.464-.463-.85-.855-1.244-1.239-.168-.164-.036-.254.065-.357Z" transform="translate(-135.153 -100.805)" fill="#efcc9a"/>
      <path id="Trazado_637735" data-name="Trazado 637735" d="M703.015,212.369a7.689,7.689,0,0,1-.211,2.8A1.671,1.671,0,0,1,703.015,212.369Z" transform="translate(-118.061 -125.302)" fill="#f3dfbd"/>
    </g>
    <rect id="Rectángulo_307381" data-name="Rectángulo 307381" width="65" height="65" transform="translate(810 4484)" fill="none"/>
  </g>
</svg>
