<svg xmlns="http://www.w3.org/2000/svg" xmlns:xlink="http://www.w3.org/1999/xlink" width="242.952" height="44.456" viewBox="0 0 242.952 44.456">
  <defs>
    <clipPath id="clip-path">
      <rect id="Rect치ngulo_356455" data-name="Rect치ngulo 356455" width="242.952" height="44.456" fill="none"/>
    </clipPath>
  </defs>
  <g id="_2" data-name="2" transform="translate(-1146.665 -787)">
    <rect id="Rect치ngulo_392880" data-name="Rect치ngulo 392880" width="225" height="33" rx="5" transform="translate(1155.641 787)" fill="#583cb6"/>
    <g id="Grupo_1099112" data-name="Grupo 1099112" transform="translate(1146.665 787)">
      <path id="Trazado_655432" data-name="Trazado 655432" d="M149.569,16.1,134.529,3.725H93.117L98.72,16.1Z" transform="translate(52.956 -2.108)" fill="#fff"/>
      <path id="Trazado_655433" data-name="Trazado 655433" d="M387.295,16.1l5.6-12.377H351.486L336.447,16.1Z" transform="translate(-296.019 -2.108)" fill="#fff"/>
      <path id="Trazado_655434" data-name="Trazado 655434" d="M272.593,16.1,267.917,3.725H226.5L221.746,16.1Z" transform="translate(-125.915 -2.108)" fill="#fff"/>
      <path id="Trazado_655435" data-name="Trazado 655435" d="M421.14,59.536l9.713-21.451H378.068L352,59.536Z" transform="translate(-340.727 -21.55)" fill="#fff"/>
      <path id="Trazado_655436" data-name="Trazado 655436" d="M78.761,38.085l26.064,21.451H35.683L25.972,38.085Z" transform="translate(126.851 -21.55)" fill="#fff"/>
      <path id="Trazado_655437" data-name="Trazado 655437" d="M270,59.536l-8.1-21.451H209.114l-8.247,21.451Z" transform="translate(-114.26 -21.55)" fill="#fff"/>
      <path id="Trazado_655438" data-name="Trazado 655438" d="M129.145,5.858l.3.261h-7.973l-.266-.261Z" transform="translate(60.879 -3.315)" fill="#a4cad8"/>
      <path id="Trazado_655439" data-name="Trazado 655439" d="M374.64,6.451h5.694l.734-.892h-5.6Z" transform="translate(-300.77 -3.146)" fill="#13a4b2"/>
      <path id="Trazado_655440" data-name="Trazado 655440" d="M352.965,6.451h9.563l.581-.892H353.7Z" transform="translate(-273.4 -3.146)" fill="#fc611f"/>
      <path id="Trazado_655441" data-name="Trazado 655441" d="M334.265,6.451h8.25l.45-.892h-8.118Z" transform="translate(-245.138 -3.146)" fill="#ff9f1e"/>
      <path id="Trazado_655442" data-name="Trazado 655442" d="M387.546,6.451h13.4l.824-.892H388.584Z" transform="translate(-327.076 -3.146)" fill="#073856"/>
      <path id="Trazado_655443" data-name="Trazado 655443" d="M259.75,7.052H269.4l-.048-.588H259.8Z" transform="translate(-139.225 -3.657)" fill="#d1e9f5"/>
      <path id="Trazado_655444" data-name="Trazado 655444" d="M231.319,7.052h7.917l-.178-.588h-7.834Z" transform="translate(-96.673 -3.657)" fill="#d1e9f5"/>
      <path id="Trazado_655445" data-name="Trazado 655445" d="M287.656,7.052h9.654l.08-.588h-9.552Z" transform="translate(-179.327 -3.657)" fill="#d1e9f5"/>
      <path id="Trazado_655446" data-name="Trazado 655446" d="M126.988,7.794l.313.269h-8.1l-.275-.269Z" transform="translate(64.015 -4.41)" fill="#fdc00f"/>
      <path id="Trazado_655447" data-name="Trazado 655447" d="M124.764,9.791l.323.277h-8.222l-.282-.277Z" transform="translate(67.25 -5.54)" fill="#16c5d5"/>
      <path id="Trazado_655448" data-name="Trazado 655448" d="M230.173,10.642h13.162l-.188-.623H230.127Z" transform="translate(-100.296 -5.669)" fill="#d1e9f5"/>
      <path id="Trazado_655449" data-name="Trazado 655449" d="M268.094,10.642h18.714l-.01-.623H268.286Z" transform="translate(-160.251 -5.669)" fill="#d1e9f5"/>
      <path id="Trazado_655450" data-name="Trazado 655450" d="M120.031,14.036l.344.295h-8.489l-.3-.295Z" transform="translate(74.131 -7.942)" fill="#fdc00f"/>
      <path id="Trazado_655451" data-name="Trazado 655451" d="M117.584,16.232l.356.3h-8.627l-.312-.3Z" transform="translate(77.689 -9.184)" fill="#a4cad8"/>
      <path id="Trazado_655452" data-name="Trazado 655452" d="M174.048,12.547,176.416,9.7l1.418-.041L175.6,6.646h-5.353Z" transform="translate(-8.795 -3.76)" fill="#16c5d5"/>
      <path id="Trazado_655453" data-name="Trazado 655453" d="M109.865,23.153l.392.337h-9.063l-.344-.337Z" transform="translate(88.91 -13.101)" fill="#a4cad8"/>
      <path id="Trazado_655454" data-name="Trazado 655454" d="M107.072,25.655l.406.348H98.257l-.356-.348Z" transform="translate(92.969 -14.517)" fill="#16c5d5"/>
      <path id="Trazado_655455" data-name="Trazado 655455" d="M104.181,28.247l.42.36H95.217l-.369-.36Z" transform="translate(97.171 -15.983)" fill="#fdc00f"/>
      <path id="Trazado_655456" data-name="Trazado 655456" d="M161.154,15.963h1.124l-9.505-10.1H128.62l.172.342h23.344l.967,1.046Z" transform="translate(24.833 -3.315)" fill="#073856"/>
      <path id="Trazado_655457" data-name="Trazado 655457" d="M157.189,9.59l3.235-.093.886-1.623-1.083-1.228h-5.351Z" transform="translate(14.4 -3.761)" fill="#a4cad8"/>
      <path id="Trazado_655458" data-name="Trazado 655458" d="M228.967,14.441h22.586l-.2-.659H229.018Z" transform="translate(-108.01 -7.798)" fill="#d1e9f5"/>
      <path id="Trazado_655459" data-name="Trazado 655459" d="M288.654,14.441h10.212l.09-.659h-10.1Z" transform="translate(-181.327 -7.798)" fill="#d1e9f5"/>
      <path id="Trazado_655460" data-name="Trazado 655460" d="M341.152,12.255l.5-1-4.514,1.783Z" transform="translate(-245.076 -6.37)" fill="#13a4b2"/>
      <path id="Trazado_655461" data-name="Trazado 655461" d="M391.176,13.244l3.591-.622-.938-1.363-3.158.954-1.365-.954L387.46,12.3Z" transform="translate(-320.035 -6.371)" fill="#fc611f"/>
      <path id="Trazado_655462" data-name="Trazado 655462" d="M115.056,18.5l.367.315h-8.77l-.322-.315Z" transform="translate(81.364 -10.467)" fill="#16c5d5"/>
      <path id="Trazado_655463" data-name="Trazado 655463" d="M260.065,18.463h23.26l-.05-.7H260.28Z" transform="translate(-153.283 -10.052)" fill="#d1e9f5"/>
      <path id="Trazado_655464" data-name="Trazado 655464" d="M227.827,18.463h10.517l-.211-.7h-10.4Z" transform="translate(-94.267 -10.052)" fill="#d1e9f5"/>
      <path id="Trazado_655465" data-name="Trazado 655465" d="M392.059,14.6l-3.716-.942-2.255,1.275,1.942,2.387,2.646-.8,5.569-1.678-.6-.866Z" transform="translate(-320.918 -7.731)" fill="#13a4b2"/>
      <path id="Trazado_655466" data-name="Trazado 655466" d="M356.661,16.959l-2.167-1.952-1.253.532,2.862,1.2,3.93,1.65,1.524-.638,4.974-2.081-3.6-.585Z" transform="translate(-276.943 -8.492)" fill="#13a4b2"/>
      <path id="Trazado_655467" data-name="Trazado 655467" d="M335.99,16.72l7.836-4.432,2.255-1.275,1.846-1.044,1.365.954,3.158-.954.938,1.364.6.866.182.264.788-.335,1.253-.532,3.837-1.628,2,1.794,4.552-1.794,3.489,1.431,5.151-1.431.5-.989H338.587l-1.147.989Z" transform="translate(-278.656 -5.081)" fill="#ff9f1e"/>
      <path id="Trazado_655468" data-name="Trazado 655468" d="M344.111,14.987l-.841-.136L338.3,16.931l3.865,2.424,6.808-4.24.788-1.562-4.012.786Z" transform="translate(-253.683 -7.669)" fill="#073856"/>
      <path id="Trazado_655469" data-name="Trazado 655469" d="M345.575,12.967l3.6.585.84.136,1.635-.646,4.514-1.783-5.15,1.431-3.489-1.431-4.552,1.793-2-1.793-3.837,1.627,2.167,1.952Z" transform="translate(-259.59 -6.371)" fill="#fc611f"/>
      <path id="Trazado_655470" data-name="Trazado 655470" d="M383.011,16.567l-.182-.264-5.569,1.678,3.261,1.377,6.141-1.923-2.862-1.2Z" transform="translate(-307.501 -9.185)" fill="#073856"/>
      <path id="Trazado_655471" data-name="Trazado 655471" d="M281.724,22.732H296.1l.06-.743H281.953Z" transform="translate(-175.522 -12.443)" fill="#d1e9f5"/>
      <path id="Trazado_655472" data-name="Trazado 655472" d="M226.431,22.732h20.443l-.224-.743h-20.2Z" transform="translate(-102.228 -12.443)" fill="#d1e9f5"/>
      <path id="Trazado_655473" data-name="Trazado 655473" d="M294.962,27.269h9.172l.132-.789h-9.061Z" transform="translate(-189.375 -14.984)" fill="#d1e9f5"/>
      <path id="Trazado_655474" data-name="Trazado 655474" d="M257.586,27.269H268.77l-.066-.789H257.656Z" transform="translate(-137.652 -14.984)" fill="#d1e9f5"/>
      <path id="Trazado_655475" data-name="Trazado 655475" d="M225.147,27.269H236.33l-.238-.789H225.044Z" transform="translate(-91.084 -14.984)" fill="#d1e9f5"/>
      <path id="Trazado_655476" data-name="Trazado 655476" d="M191.092,14.619l2.259-1.037L189.19,6.646h-5.35l4.88,9.691,1.248-2.142Z" transform="translate(-30.214 -3.761)" fill="#fdc00f"/>
      <path id="Trazado_655477" data-name="Trazado 655477" d="M149.791,16.4l5.24-.686-1.144-.429,4.436-2.085,2.235-2.775,7.344-.214,1.277-2.515-.967-1.046h-.589l-.671,1.228L166.066,9.5l-3.235.093-2.551.073-1.418.041-2.368,2.843-.086.1-2.031.932-2.258,1.037L151,14.2l-1.248,2.142Z" transform="translate(8.759 -3.761)" fill="#fc611f"/>
      <path id="Trazado_655478" data-name="Trazado 655478" d="M194.409,29.117l0-.01h.013Z" transform="translate(-35.868 -16.469)" fill="#fdc00f"/>
      <path id="Trazado_655479" data-name="Trazado 655479" d="M259.27,41.163h4.316l-.035-.512h-4.284Z" transform="translate(-133.197 -23.002)" fill="#16c5d5"/>
      <path id="Trazado_655480" data-name="Trazado 655480" d="M259.267,41.163h4.315l0-.512h4.284l.034.512-.034-.512H259.3Z" transform="translate(-137.51 -23.002)" fill="#13a4b2"/>
      <path id="Trazado_655481" data-name="Trazado 655481" d="M309.313,41.682l-.053.323H297.105l.109-.323Z" transform="translate(-195.353 -23.585)" fill="#1695a4"/>
      <path id="Trazado_655482" data-name="Trazado 655482" d="M228.411,41.682l.106.323H216.366l-.051-.323Z" transform="translate(-79.481 -23.585)" fill="#1695a4"/>
      <path id="Trazado_655483" data-name="Trazado 655483" d="M227.792,44.079l.109.333H215.571l-.053-.333Z" transform="translate(-78.519 -24.942)" fill="#1695a4"/>
      <path id="Trazado_655484" data-name="Trazado 655484" d="M309.889,44.079l-.055.333H297.5l.111-.333Z" transform="translate(-196.1 -24.942)" fill="#1695a4"/>
      <path id="Trazado_655485" data-name="Trazado 655485" d="M399.3,49.266h4.493l1.623-2.119h-4.366Z" transform="translate(-335.827 -26.677)" fill="#d1e9f5"/>
      <path id="Trazado_655486" data-name="Trazado 655486" d="M437.919,49.266h4.5l2.108-2.119h-4.369Z" transform="translate(-391.699 -26.677)" fill="#13a4b2"/>
      <path id="Trazado_655487" data-name="Trazado 655487" d="M412.183,49.266h4.493l1.785-2.119h-4.366Z" transform="translate(-354.463 -26.677)" fill="#ff9f1e"/>
      <path id="Trazado_655488" data-name="Trazado 655488" d="M360.7,49.266h4.492l1.137-2.119h-4.366Z" transform="translate(-279.973 -26.677)" fill="#d1e9f5"/>
      <path id="Trazado_655489" data-name="Trazado 655489" d="M377.433,55.733h4.657l1.4-2.282h-4.521Z" transform="translate(-304.405 -30.244)" fill="#d1e9f5"/>
      <path id="Trazado_655490" data-name="Trazado 655490" d="M404.131,55.733h4.661l1.748-2.282h-4.524Z" transform="translate(-343.047 -30.244)" fill="#d1e9f5"/>
      <path id="Trazado_655491" data-name="Trazado 655491" d="M430.857,55.733h4.653l2.1-2.282H433.09Z" transform="translate(-381.716 -30.244)" fill="#13a4b2"/>
      <path id="Trazado_655492" data-name="Trazado 655492" d="M457.554,55.733h4.661l2.446-2.282h-4.526Z" transform="translate(-420.362 -30.244)" fill="#13a4b2"/>
      <path id="Trazado_655493" data-name="Trazado 655493" d="M417.5,55.733h4.657l1.923-2.282h-4.521Z" transform="translate(-362.395 -30.244)" fill="#16c5d5"/>
      <path id="Trazado_655494" data-name="Trazado 655494" d="M437.1,62.715h4.839l2.266-2.467h-4.692Z" transform="translate(-391.03 -34.09)" fill="#ff9f1e"/>
      <path id="Trazado_655495" data-name="Trazado 655495" d="M367.738,62.715h4.844l1.325-2.467h-4.7Z" transform="translate(-290.612 -34.09)" fill="#d1e9f5"/>
      <path id="Trazado_655496" data-name="Trazado 655496" d="M464.839,62.715h4.848l2.642-2.467h-4.7Z" transform="translate(-431.193 -34.09)" fill="#13a4b2"/>
      <path id="Trazado_655497" data-name="Trazado 655497" d="M450.967,62.715h4.848l2.454-2.467h-4.7Z" transform="translate(-411.109 -34.09)" fill="#ff9f1e"/>
      <path id="Trazado_655498" data-name="Trazado 655498" d="M395.483,62.715h4.835l1.7-2.467h-4.689Z" transform="translate(-330.772 -34.09)" fill="#d1e9f5"/>
      <path id="Trazado_655499" data-name="Trazado 655499" d="M409.338,62.715h4.848l1.889-2.467h-4.7Z" transform="translate(-350.842 -34.09)" fill="#d1e9f5"/>
      <path id="Trazado_655500" data-name="Trazado 655500" d="M381.6,62.715h4.844l1.513-2.467h-4.7Z" transform="translate(-310.683 -34.09)" fill="#d1e9f5"/>
      <path id="Trazado_655501" data-name="Trazado 655501" d="M443.85,70.267H448.9l2.456-2.674h-4.886Z" transform="translate(-401.103 -38.247)" fill="#d1e9f5"/>
      <path id="Trazado_655502" data-name="Trazado 655502" d="M386.094,70.267h5.055l1.639-2.674h-4.9Z" transform="translate(-317.464 -38.247)" fill="#d1e9f5"/>
      <path id="Trazado_655503" data-name="Trazado 655503" d="M400.539,70.267h5.046l1.843-2.674h-4.887Z" transform="translate(-338.375 -38.247)" fill="#d1e9f5"/>
      <path id="Trazado_655504" data-name="Trazado 655504" d="M414.963,70.267h5.055l2.048-2.674h-4.9Z" transform="translate(-359.274 -38.247)" fill="#d1e9f5"/>
      <path id="Trazado_655505" data-name="Trazado 655505" d="M472.7,70.267h5.055l2.864-2.674h-4.9Z" transform="translate(-442.891 -38.247)" fill="#ff9f1e"/>
      <path id="Trazado_655506" data-name="Trazado 655506" d="M458.263,70.267h5.059l2.66-2.674h-4.9Z" transform="translate(-421.991 -38.247)" fill="#ff9f1e"/>
      <path id="Trazado_655507" data-name="Trazado 655507" d="M371.672,70.267h5.056l1.434-2.674h-4.9Z" transform="translate(-296.575 -38.247)" fill="#d1e9f5"/>
      <path id="Trazado_655508" data-name="Trazado 655508" d="M429.406,70.267h5.055l2.252-2.674h-4.9Z" transform="translate(-380.192 -38.247)" fill="#d1e9f5"/>
      <path id="Trazado_655509" data-name="Trazado 655509" d="M390.988,78.463h5.266l1.782-2.908h-5.092Z" transform="translate(-324.836 -42.752)" fill="#d1e9f5"/>
      <path id="Trazado_655510" data-name="Trazado 655510" d="M406.039,78.463H411.3l2.005-2.908h-5.084Z" transform="translate(-346.635 -42.752)" fill="#d1e9f5"/>
      <path id="Trazado_655511" data-name="Trazado 655511" d="M466.2,78.463h5.27l2.893-2.908h-5.1Z" transform="translate(-433.813 -42.752)" fill="#ff9f1e"/>
      <path id="Trazado_655512" data-name="Trazado 655512" d="M421.061,78.463h5.27l2.227-2.908h-5.1Z" transform="translate(-368.414 -42.752)" fill="#d1e9f5"/>
      <path id="Trazado_655513" data-name="Trazado 655513" d="M375.956,78.463h5.266l1.561-2.908h-5.093Z" transform="translate(-303.057 -42.752)" fill="#d1e9f5"/>
      <path id="Trazado_655514" data-name="Trazado 655514" d="M394.81,43.252h4.328l1.51-1.972h-4.21Z" transform="translate(-329.108 -23.358)" fill="#13a4b2"/>
      <path id="Trazado_655515" data-name="Trazado 655515" d="M407.253,43.252h4.323l1.661-1.972h-4.206Z" transform="translate(-347.099 -23.358)" fill="#13a4b2"/>
      <path id="Trazado_655516" data-name="Trazado 655516" d="M419.676,43.252H424l1.812-1.972h-4.2Z" transform="translate(-365.063 -23.358)" fill="#13a4b2"/>
      <path id="Trazado_655517" data-name="Trazado 655517" d="M444.516,43.252h4.327l2.113-1.972h-4.21Z" transform="translate(-400.996 -23.358)" fill="#13a4b2"/>
      <path id="Trazado_655518" data-name="Trazado 655518" d="M382.4,43.252h4.316l1.36-1.972h-4.2Z" transform="translate(-311.153 -23.358)" fill="#ff9f1e"/>
      <path id="Trazado_655519" data-name="Trazado 655519" d="M369.971,43.252h4.323L375.5,41.28H371.3Z" transform="translate(-293.179 -23.358)" fill="#13a4b2"/>
      <path id="Trazado_655520" data-name="Trazado 655520" d="M357.556,43.252h4.324l1.058-1.972h-4.206Z" transform="translate(-275.223 -23.358)" fill="#16c5d5"/>
      <path id="Trazado_655521" data-name="Trazado 655521" d="M432.092,43.252h4.328l1.962-1.972h-4.21Z" transform="translate(-383.027 -23.358)" fill="#13a4b2"/>
      <g id="Grupo_1099111" data-name="Grupo 1099111" transform="translate(0 0)">
        <g id="Grupo_1099110" data-name="Grupo 1099110" clip-path="url(#clip-path)">
          <path id="Trazado_655522" data-name="Trazado 655522" d="M128.358,50.5a2.745,2.745,0,0,1,.649-.432,4.759,4.759,0,0,1,.887-.324,7.674,7.674,0,0,1,1.105-.2,11.484,11.484,0,0,1,1.312-.072q.137,0,.276,0c.092,0,.185,0,.278.009s.186.009.28.015.188.011.281.019l-.984-2q-.229-.018-.456-.03c-.152-.009-.3-.016-.454-.022s-.3-.01-.452-.013-.3,0-.449,0a19.078,19.078,0,0,0-2.133.112,13.228,13.228,0,0,0-1.812.323,8.338,8.338,0,0,0-1.471.515,4.865,4.865,0,0,0-1.1.691Z" transform="translate(55.641 -26.844)" fill="#ff9f1e"/>
          <path id="Trazado_655523" data-name="Trazado 655523" d="M93.26,59.614q.094.1.181.193c.058.065.114.129.168.193s.105.129.154.192.1.128.141.191q-.067-.1-.141-.191c-.049-.064-.1-.128-.154-.192s-.109-.128-.168-.193-.119-.129-.181-.193" transform="translate(108.559 -33.732)" fill="#fc611f"/>
          <path id="Trazado_655524" data-name="Trazado 655524" d="M99.486,58.379c-.045-.063-.091-.128-.141-.191s-.1-.128-.154-.193-.109-.128-.168-.192-.119-.129-.181-.193q-.2-.2-.418-.4c-.146-.132-.3-.262-.461-.391s-.327-.254-.5-.379-.352-.245-.537-.365l-3.667.61c.108.073.212.147.313.222s.2.152.29.229.181.156.264.235.164.16.238.242c.035.039.069.077.1.116s.064.076.094.115.059.076.086.114.053.076.078.114Z" transform="translate(102.976 -31.727)" fill="#fc611f"/>
          <path id="Trazado_655525" data-name="Trazado 655525" d="M135.374,57.293l3.458-.991c-.182-.11-.355-.225-.518-.341s-.315-.234-.457-.354a5.231,5.231,0,0,1-.391-.366,4.019,4.019,0,0,1-.318-.374,2.52,2.52,0,0,1-.355-.64,1.529,1.529,0,0,1-.1-.589,1.3,1.3,0,0,1,.142-.531,1.676,1.676,0,0,1,.361-.464l-4.244-1.419a2.9,2.9,0,0,0-.633.749,2.186,2.186,0,0,0-.283.864,2.441,2.441,0,0,0,.1.968,3.882,3.882,0,0,0,.528,1.061,6.018,6.018,0,0,0,.5.626,8.171,8.171,0,0,0,.621.616q.341.305.738.6c.265.2.549.392.848.583" transform="translate(46.799 -28.984)" fill="#9b1a00"/>
          <path id="Trazado_655526" data-name="Trazado 655526" d="M96.523,64.6a2.761,2.761,0,0,0,.609-.784,2.17,2.17,0,0,0,.234-.879,2.531,2.531,0,0,0-.147-.952,4,4,0,0,0-.528-1l-4.762-.31a2.23,2.23,0,0,1,.277.593,1.446,1.446,0,0,1,.051.558,1.3,1.3,0,0,1-.171.51,1.728,1.728,0,0,1-.387.452Z" transform="translate(105.772 -34.33)" fill="#ff9f1e"/>
          <path id="Trazado_655527" data-name="Trazado 655527" d="M60.479,68.9h10.29l-1.626-1.48H59.036Z" transform="translate(146.553 -38.15)" fill="#ff9f1e"/>
          <path id="Trazado_655528" data-name="Trazado 655528" d="M122.369,67.59l-2.116-2.557a15.454,15.454,0,0,1-2.16-.158,17.723,17.723,0,0,1-2.137-.441,16.458,16.458,0,0,1-1.973-.67,12.1,12.1,0,0,1-1.678-.844l-3.458.991,3.458-.991-3.458.991a19.532,19.532,0,0,0,2.793,1.451,26.84,26.84,0,0,0,3.345,1.169,29.674,29.674,0,0,0,3.666.778,25.935,25.935,0,0,0,3.719.28" transform="translate(73.326 -35.602)" fill="#073856"/>
          <path id="Trazado_655529" data-name="Trazado 655529" d="M142.714,44.465h8.956l-.86-1.122h-8.818Z" transform="translate(29.635 -24.525)" fill="#ff9f1e"/>
          <path id="Trazado_655530" data-name="Trazado 655530" d="M214.754,46.888h12.516l-.112-.342H214.7Z" transform="translate(-77.531 -26.338)" fill="#1695a4"/>
          <path id="Trazado_655531" data-name="Trazado 655531" d="M297.905,46.888h12.52l.056-.342H298.021Z" transform="translate(-196.869 -26.338)" fill="#1695a4"/>
          <path id="Trazado_655532" data-name="Trazado 655532" d="M87.179,46.953h9.1L95.021,45.8H86.068Z" transform="translate(109.31 -25.914)" fill="#13a4b2"/>
          <path id="Trazado_655533" data-name="Trazado 655533" d="M373.558,49.266h4.493l1.3-2.119h-4.366Z" transform="translate(-298.582 -26.677)" fill="#16c5d5"/>
          <path id="Trazado_655534" data-name="Trazado 655534" d="M450.791,49.266h4.492l2.27-2.119h-4.366Z" transform="translate(-410.317 -26.677)" fill="#13a4b2"/>
          <path id="Trazado_655535" data-name="Trazado 655535" d="M386.44,49.266h4.484l1.461-2.119h-4.358Z" transform="translate(-317.211 -26.677)" fill="#16c5d5"/>
          <path id="Trazado_655536" data-name="Trazado 655536" d="M425.065,49.266h4.484l1.946-2.119h-4.358Z" transform="translate(-373.091 -26.677)" fill="#13a4b2"/>
          <path id="Trazado_655537" data-name="Trazado 655537" d="M99.155,47.6l.079.007.079.006.08.007.079.007a28.453,28.453,0,0,1,3.118.45,29.811,29.811,0,0,1,3.051.783,26,26,0,0,1,2.848,1.079,18.672,18.672,0,0,1,2.485,1.338,18.8,18.8,0,0,0-2.554-1.369,26.224,26.224,0,0,0-2.931-1.1,29.451,29.451,0,0,0-3.138-.783,27.967,27.967,0,0,0-3.2-.429" transform="translate(88.928 -26.935)" fill="#13a4b2"/>
          <path id="Trazado_655538" data-name="Trazado 655538" d="M107.308,51.89l3.667-.61a18.8,18.8,0,0,0-2.554-1.369,26.256,26.256,0,0,0-2.931-1.1,29.432,29.432,0,0,0-3.138-.783,27.96,27.96,0,0,0-3.2-.429l.983,2a16.739,16.739,0,0,1,1.968.272,17.573,17.573,0,0,1,1.919.491,15.435,15.435,0,0,1,1.77.68,10.848,10.848,0,0,1,1.513.839" transform="translate(88.928 -26.935)" fill="#13a4b2"/>
          <path id="Trazado_655539" data-name="Trazado 655539" d="M276.3,50.085l-.075-7.541a15.45,15.45,0,0,0-2.9.269,11.111,11.111,0,0,0-2.429.744,5.7,5.7,0,0,0-1.724,1.133,2.379,2.379,0,0,0-.743,1.434,2.08,2.08,0,0,0,.489,1.493,4.874,4.874,0,0,0,1.636,1.265,10.412,10.412,0,0,0,2.557.876,15.265,15.265,0,0,0,3.193.327" transform="translate(-149.881 -24.073)" fill="#13a4b2"/>
          <path id="Trazado_655540" data-name="Trazado 655540" d="M241.825,61.473h2.542l-.1-.647h-2.522Z" transform="translate(-106.372 -34.417)" fill="#fc611f"/>
          <path id="Trazado_655541" data-name="Trazado 655541" d="M241.767,61.473h7.172l-.08-.647h2.522l.1.647-.1-.647h-9.636Z" transform="translate(-113.486 -34.417)" fill="#ff9f1e"/>
          <path id="Trazado_655542" data-name="Trazado 655542" d="M278.229,61.6h1.715l.028-.65h-1.7Z" transform="translate(-157.815 -34.485)" fill="#9b1a00"/>
          <path id="Trazado_655543" data-name="Trazado 655543" d="M278.228,61.6h8.006l.043-.65h1.7l-.029.65.029-.65h-9.642Z" transform="translate(-165.821 -34.485)" fill="#fc611f"/>
          <path id="Trazado_655544" data-name="Trazado 655544" d="M283.949,63.364c.147,0,.294,0,.442.009s.3.013.442.024.3.026.443.043.294.037.441.059c-.146-.023-.293-.042-.441-.059s-.3-.031-.443-.043-.295-.019-.442-.024-.3-.009-.442-.009" transform="translate(-166.044 -35.854)" fill="#fc611f"/>
          <path id="Trazado_655545" data-name="Trazado 655545" d="M253.455,64.171a7.488,7.488,0,0,1,.926-.356,9.037,9.037,0,0,1,1-.251,10.545,10.545,0,0,1,1.057-.15c.358-.033.721-.049,1.086-.049-.365,0-.728.017-1.086.049a10.545,10.545,0,0,0-1.057.15,9.037,9.037,0,0,0-1,.251,7.488,7.488,0,0,0-.926.356" transform="translate(-124.616 -35.854)" fill="#ff9f1e"/>
          <path id="Trazado_655546" data-name="Trazado 655546" d="M279.433,65.077a4.549,4.549,0,0,0-.658-.467,6.2,6.2,0,0,0-.8-.4,8.1,8.1,0,0,0-.94-.316,9.9,9.9,0,0,0-1.062-.223,9.9,9.9,0,0,1,1.062.223,8.1,8.1,0,0,1,.94.316,6.2,6.2,0,0,1,.8.4,4.549,4.549,0,0,1,.658.467" transform="translate(-156.296 -36.029)" fill="#fff"/>
          <path id="Trazado_655547" data-name="Trazado 655547" d="M262.835,66.083c.083-.079.174-.157.27-.233s.2-.15.308-.222.224-.142.346-.209.249-.133.383-.195q-.2.093-.383.195c-.122.067-.237.138-.346.209s-.212.146-.308.222-.187.154-.27.233" transform="translate(-135.303 -36.906)" fill="#ff9f1e"/>
          <path id="Trazado_655548" data-name="Trazado 655548" d="M302.321,68c-.028.03-.056.059-.083.089s-.053.06-.079.091-.051.061-.075.092-.048.062-.071.094c.023-.032.047-.063.071-.094s.049-.063.075-.092.052-.061.079-.091.055-.059.083-.089" transform="translate(-190.49 -38.477)" fill="#fc611f"/>
          <path id="Trazado_655549" data-name="Trazado 655549" d="M237.785,68.091a3.2,3.2,0,0,1,.261.316,2.684,2.684,0,0,1,.2.326,2.225,2.225,0,0,1,.145.333,2.036,2.036,0,0,1,.086.337,2.036,2.036,0,0,0-.086-.337,2.225,2.225,0,0,0-.145-.333,2.684,2.684,0,0,0-.2-.326,3.2,3.2,0,0,0-.261-.316" transform="translate(-98.765 -38.528)" fill="#fff"/>
          <path id="Trazado_655550" data-name="Trazado 655550" d="M237.785,68.091a3.2,3.2,0,0,1,.261.316,2.684,2.684,0,0,1,.2.326,2.225,2.225,0,0,1,.145.333,2.036,2.036,0,0,1,.086.337,2.036,2.036,0,0,0-.086-.337,2.225,2.225,0,0,0-.145-.333,2.684,2.684,0,0,0-.2-.326,3.2,3.2,0,0,0-.261-.316" transform="translate(-98.765 -38.528)" fill="#ff9f1e"/>
          <path id="Trazado_655551" data-name="Trazado 655551" d="M274.724,68.881a1.867,1.867,0,0,0-.024-.535,2.047,2.047,0,0,0-.172-.513,2.532,2.532,0,0,0-.309-.482,3.336,3.336,0,0,0-.435-.446,3.336,3.336,0,0,1,.435.446,2.532,2.532,0,0,1,.309.482,2.047,2.047,0,0,1,.172.513,1.867,1.867,0,0,1,.024.535" transform="translate(-150.647 -37.857)" fill="#fff"/>
          <path id="Trazado_655552" data-name="Trazado 655552" d="M260.518,76.574q.161.1.331.193t.351.177q.18.084.369.161c.126.051.254.1.386.146-.131-.046-.259-.095-.386-.146s-.249-.105-.369-.161-.237-.115-.351-.177-.224-.125-.331-.193" transform="translate(-132.109 -43.328)" fill="#fff"/>
          <path id="Trazado_655553" data-name="Trazado 655553" d="M247.787,78.449c-.244.078-.5.147-.753.205s-.523.108-.793.147-.544.068-.821.088-.556.03-.836.03c.28,0,.56-.01.836-.03s.551-.049.821-.088.534-.088.793-.147.51-.127.753-.205" transform="translate(-111.024 -44.389)" fill="#ff9f1e"/>
          <path id="Trazado_655554" data-name="Trazado 655554" d="M234.557,71.114a2.649,2.649,0,0,1,0,1.006,2.963,2.963,0,0,1-.394.992,4.18,4.18,0,0,1-.807.936,6.479,6.479,0,0,1-1.233.84,6.479,6.479,0,0,0,1.233-.84,4.18,4.18,0,0,0,.807-.936,2.963,2.963,0,0,0,.394-.992,2.649,2.649,0,0,0,0-1.006" transform="translate(-92.433 -40.239)" fill="#fc611f"/>
          <path id="Trazado_655555" data-name="Trazado 655555" d="M232.124,74.888a6.461,6.461,0,0,0,1.233-.841,4.174,4.174,0,0,0,.807-.936,2.951,2.951,0,0,0,.394-.991,2.64,2.64,0,0,0,0-1.006,2.64,2.64,0,0,1,0,1.006,2.951,2.951,0,0,1-.394.991,4.174,4.174,0,0,1-.807.936,6.461,6.461,0,0,1-1.233.841" transform="translate(-92.432 -40.239)" fill="#fff"/>
          <path id="Trazado_655556" data-name="Trazado 655556" d="M237.046,75.535q.21-.068.411-.143t.4-.155q.193-.081.379-.169t.364-.183a6.475,6.475,0,0,0,1.233-.841,4.184,4.184,0,0,0,.807-.936,2.96,2.96,0,0,0,.394-.991,2.632,2.632,0,0,0,0-1.006h-2.408l-6.5,0,3.543,3.187Z" transform="translate(-98.904 -40.235)" fill="#fc611f"/>
          <path id="Trazado_655557" data-name="Trazado 655557" d="M237.839,80.457q.21-.068.411-.143t.4-.155q.193-.081.379-.169t.364-.183q-.178.1-.364.183t-.379.169q-.194.081-.4.155t-.411.143" transform="translate(-99.697 -45.157)" fill="#fff"/>
          <path id="Trazado_655558" data-name="Trazado 655558" d="M295.546,71.458A2.8,2.8,0,0,0,295.812,73a4.275,4.275,0,0,0,1.143,1.413,7.714,7.714,0,0,0,1.968,1.158,12.621,12.621,0,0,0,2.713.769,12.621,12.621,0,0,1-2.713-.769,7.714,7.714,0,0,1-1.968-1.158A4.275,4.275,0,0,1,295.812,73a2.8,2.8,0,0,1-.266-1.543" transform="translate(-186.99 -40.433)" fill="#fff"/>
          <path id="Trazado_655559" data-name="Trazado 655559" d="M292,82.941c-.226,0-.452-.007-.678-.016s-.454-.025-.679-.045-.451-.043-.675-.072-.448-.063-.67-.1c.222.039.445.073.67.1s.449.053.675.072.452.034.679.045.452.016.678.016" transform="translate(-174.656 -46.798)" fill="#9b1a00"/>
          <path id="Trazado_655560" data-name="Trazado 655560" d="M255.076,50.183a11.391,11.391,0,0,0,2.348-.237,7.776,7.776,0,0,0,1.886-.64,3.634,3.634,0,0,0,1.216-.929,1.545,1.545,0,0,0,.372-1.108,1.774,1.774,0,0,0-.55-1.075,4.3,4.3,0,0,0-1.3-.855,8.361,8.361,0,0,0-1.835-.565,11.465,11.465,0,0,0-2.195-.205Z" transform="translate(-128.67 -25.219)" fill="#16c5d5"/>
          <path id="Trazado_655561" data-name="Trazado 655561" d="M390.8,55.733h4.649l1.574-2.282h-4.513Z" transform="translate(-323.735 -30.244)" fill="#16c5d5"/>
          <path id="Trazado_655562" data-name="Trazado 655562" d="M364.088,55.733h4.657l1.226-2.282H365.45Z" transform="translate(-285.092 -30.244)" fill="#d1e9f5"/>
          <path id="Trazado_655563" data-name="Trazado 655563" d="M444.2,55.733h4.661l2.272-2.282h-4.525Z" transform="translate(-401.036 -30.244)" fill="#13a4b2"/>
          <path id="Trazado_655564" data-name="Trazado 655564" d="M151.579,57.4h9.661l-.862-1.3h-9.5Z" transform="translate(16.206 -31.738)" fill="#9b1a00"/>
          <path id="Trazado_655565" data-name="Trazado 655565" d="M136.29,54.493a1.67,1.67,0,0,0-.361.464,1.3,1.3,0,0,0-.142.531,1.526,1.526,0,0,0,.1.588,2.515,2.515,0,0,0,.355.64,2.515,2.515,0,0,1-.355-.64,1.526,1.526,0,0,1-.1-.588,1.3,1.3,0,0,1,.142-.531,1.67,1.67,0,0,1,.361-.464" transform="translate(47.71 -30.834)" fill="#9b1a00"/>
          <path id="Trazado_655566" data-name="Trazado 655566" d="M66.75,58.138h9.7l-1.489-1.317H65.425Z" transform="translate(138.095 -32.151)" fill="#fc611f"/>
          <path id="Trazado_655567" data-name="Trazado 655567" d="M132.028,59.614a4.019,4.019,0,0,0,.318.374c.119.123.249.246.391.366s.294.238.457.354.336.231.518.341c-.182-.11-.355-.225-.518-.341s-.315-.235-.457-.354-.272-.243-.391-.366a4.019,4.019,0,0,1-.318-.374" transform="translate(51.92 -33.732)" fill="#9b1a00"/>
          <path id="Trazado_655568" data-name="Trazado 655568" d="M423.23,62.715h4.844l2.078-2.467h-4.7Z" transform="translate(-370.95 -34.09)" fill="#d1e9f5"/>
          <path id="Trazado_655569" data-name="Trazado 655569" d="M108.649,65.537a2.865,2.865,0,0,1-.644.406,5,5,0,0,1-.873.308,7.978,7.978,0,0,1-1.088.2,11.727,11.727,0,0,1-1.286.068,11.727,11.727,0,0,0,1.286-.068,7.978,7.978,0,0,0,1.088-.2,5,5,0,0,0,.873-.308,2.865,2.865,0,0,0,.644-.406" transform="translate(88.822 -37.083)" fill="#fff"/>
          <path id="Trazado_655570" data-name="Trazado 655570" d="M95.764,69.07a19.06,19.06,0,0,0,2.207-.121,12.846,12.846,0,0,0,1.855-.346,7.972,7.972,0,0,0,1.472-.542,4.592,4.592,0,0,0,1.065-.71l-4.824-1.815a2.854,2.854,0,0,1-.644.406,4.945,4.945,0,0,1-.873.308,7.922,7.922,0,0,1-1.088.2,11.622,11.622,0,0,1-1.286.068Z" transform="translate(99.932 -37.083)" fill="#16c5d5"/>
          <path id="Trazado_655571" data-name="Trazado 655571" d="M126.079,74h10.568L135.5,72.446H125.126Z" transform="translate(51.98 -40.992)" fill="#073856"/>
          <path id="Trazado_655572" data-name="Trazado 655572" d="M70.395,77.013H81.128L79.513,75.4H68.979Z" transform="translate(131.877 -42.666)" fill="#16c5d5"/>
          <path id="Trazado_655573" data-name="Trazado 655573" d="M280.237,70.381a11.832,11.832,0,0,0,1.719-.167,10.517,10.517,0,0,0,1.581-.4,7.937,7.937,0,0,0,1.353-.6,5.1,5.1,0,0,0,1.044-.765c.059-.056.115-.114.168-.172s.1-.118.15-.178.092-.121.133-.182.081-.125.118-.188a2.2,2.2,0,0,0,.272-.766,1.875,1.875,0,0,0-.039-.742,2.222,2.222,0,0,0-.319-.7,3.176,3.176,0,0,0-.571-.63,4.526,4.526,0,0,0-.658-.467,6.2,6.2,0,0,0-.8-.4,8.1,8.1,0,0,0-.94-.316,9.99,9.99,0,0,0-1.062-.224c-.146-.022-.293-.042-.441-.059s-.3-.031-.443-.043-.295-.019-.442-.024-.3-.008-.442-.008a11.9,11.9,0,0,0-1.975.164,10.354,10.354,0,0,0-1.81.47,7.183,7.183,0,0,0-1.517.747,4.152,4.152,0,0,0-1.081,1,2.974,2.974,0,0,0-.171.266,2.491,2.491,0,0,0-.13.268,2.219,2.219,0,0,0-.092.269,2.105,2.105,0,0,0-.054.269l6.868-.173Z" transform="translate(-162.709 -35.854)" fill="#fc611f"/>
          <path id="Trazado_655574" data-name="Trazado 655574" d="M244.621,70.383c.28,0,.56-.01.836-.03s.551-.049.821-.088.534-.088.793-.147.51-.127.753-.205l-3.543-3.187,6.5,0a2.152,2.152,0,0,0-.2-.609,2.805,2.805,0,0,0-.392-.586,3.973,3.973,0,0,0-.582-.551,5.637,5.637,0,0,0-.768-.5,7.808,7.808,0,0,0-1.091-.49,9.883,9.883,0,0,0-1.2-.348,11.559,11.559,0,0,0-1.27-.209,12.131,12.131,0,0,0-1.3-.07c-.364,0-.728.017-1.086.049s-.712.083-1.056.15a9.085,9.085,0,0,0-1,.251,7.562,7.562,0,0,0-.926.356q-.2.094-.384.2c-.122.067-.237.138-.346.209s-.212.146-.308.222-.186.154-.27.233a2.687,2.687,0,0,0-.676.972,1.931,1.931,0,0,0-.1,1.055,2.427,2.427,0,0,0,.508,1.06,4.407,4.407,0,0,0,1.145.983q.161.1.331.193t.351.177c.12.056.243.11.369.161s.254.1.385.146c.281.1.574.188.874.263s.608.138.922.19.632.089.953.115.644.039.966.039" transform="translate(-111.061 -35.854)" fill="#ff9f1e"/>
          <path id="Trazado_655575" data-name="Trazado 655575" d="M481.238,78.463h5.27l3.115-2.908h-5.1Z" transform="translate(-455.607 -42.752)" fill="#fc611f"/>
          <path id="Trazado_655576" data-name="Trazado 655576" d="M451.165,78.463h5.261l2.671-2.908h-5.088Z" transform="translate(-412.023 -42.752)" fill="#d1e9f5"/>
          <path id="Trazado_655577" data-name="Trazado 655577" d="M436.124,78.463h5.266l2.449-2.908h-5.092Z" transform="translate(-390.235 -42.752)" fill="#d1e9f5"/>
          <path id="Trazado_655578" data-name="Trazado 655578" d="M296.747,76.268l.179-1.616.414-3.739-6.868.173-2.518.063a2.8,2.8,0,0,0,.266,1.543,4.275,4.275,0,0,0,1.143,1.413,7.713,7.713,0,0,0,1.968,1.158,12.62,12.62,0,0,0,2.713.769c.222.039.445.073.67.1s.449.053.675.072.452.034.679.045.452.016.678.017" transform="translate(-179.399 -40.125)" fill="#9b1a00"/>
        </g>
      </g>
    </g>
  </g>
</svg>
