<svg xmlns="http://www.w3.org/2000/svg" xmlns:xlink="http://www.w3.org/1999/xlink" width="295" height="155.521" viewBox="0 0 295 155.521">
  <defs>
    <clipPath id="clip-path">
      <rect id="Rectángulo_298199" data-name="Rectángulo 298199" width="261.774" height="155.521" fill="none"/>
    </clipPath>
    <clipPath id="clip-path-5">
      <rect id="Rectángulo_298206" data-name="Rectángulo 298206" width="21.603" height="4.479" fill="none"/>
    </clipPath>
    <clipPath id="clip-path-6">
      <rect id="Rectángulo_298207" data-name="Rectángulo 298207" width="20.555" height="2.159" fill="none"/>
    </clipPath>
    <clipPath id="clip-path-8">
      <rect id="Rectángulo_298209" data-name="Rectángulo 298209" width="24.795" height="11.896" fill="#fff"/>
    </clipPath>
    <clipPath id="clip-path-9">
      <rect id="Rectángulo_298210" data-name="Rectángulo 298210" width="5.02" height="5.02" fill="#fff"/>
    </clipPath>
    <clipPath id="clip-path-11">
      <rect id="Rectángulo_298212" data-name="Rectángulo 298212" width="10.727" height="4.659" fill="none"/>
    </clipPath>
    <clipPath id="clip-path-12">
      <rect id="Rectángulo_298213" data-name="Rectángulo 298213" width="12.54" height="7.243" fill="none"/>
    </clipPath>
    <clipPath id="clip-path-13">
      <rect id="Rectángulo_298214" data-name="Rectángulo 298214" width="12.18" height="15.208" fill="none"/>
    </clipPath>
  </defs>
  <g id="_20" data-name="20" transform="translate(-1125.117 -6646.4)">
    <rect id="Rectángulo_356449" data-name="Rectángulo 356449" width="295" height="74" rx="10" transform="translate(1125.117 6714.455)" fill="#f0bd51"/>
    <g id="Grupo_878543" data-name="Grupo 878543" transform="translate(1141.113 6651.463)">
      <g id="Grupo_1099198" data-name="Grupo 1099198">
        <path id="Trazado_601710" data-name="Trazado 601710" d="M2.19,318.25s-1.985.8.3,5.018a55.47,55.47,0,0,0,3.853,6.289s.412.981-.418,1.157-2.676-.07-3.021.961c-.358,1.069.437,2.048,2.02,2.884s4.982,2.795,5.289,2.973.61.629.064.839-4.669.749-4.3,2.689,5.164,3.545,5.684,3.731.649.4.615.685-1.437.334-2.6.535-2.483.639-2.174,1.74,3.181,3.359,10.025,3.851l3.186.02,1.663-2.734c3.2-6.069,2.805-9.7,2.034-10.545s-1.839.041-2.627.925-1.572,2.047-1.831,1.926-.374-.344-.256-.884,1.29-5.455-.16-6.8-4.087,1.871-4.554,2.224-.689-.15-.678-.5c.008-.258.082-2.4.186-4.559.017-.369.053-1.015.088-1.5.127-1.785-.283-2.978-1.38-3.239-1.058-.252-1.825,1.444-2.413,2.056s-1.2-.257-1.2-.257a55.514,55.514,0,0,0-3.3-6.6c-2.366-4.172-4.135-2.872-4.135-2.872" transform="translate(-0.862 -202.008)" fill="#f7e9e1"/>
        <path id="Trazado_601711" data-name="Trazado 601711" d="M25.523,358.79c-1.725-3.071-4.7-8.579-7.278-13.3s-4.915-8.981-6.624-12.06L9.592,329.79l-.551-.991L8.9,328.54c-.031-.059-.045-.09-.045-.09s.019.028.054.085l.15.254.567.982c.492.853,1.194,2.094,2.056,3.629,1.726,3.07,4.073,7.332,6.65,12.046s5.543,10.23,7.253,13.309" transform="translate(-5.483 -208.43)" fill="#ef8b53"/>
        <path id="Trazado_601712" data-name="Trazado 601712" d="M12.117,354.954a1.015,1.015,0,0,1,.224.056c.142.042.346.108.6.192.5.169,1.189.421,1.941.713l1.925.753.584.224a1.042,1.042,0,0,1,.212.091,1.043,1.043,0,0,1-.224-.054c-.142-.042-.346-.108-.6-.2-.5-.175-1.183-.435-1.936-.727l-1.929-.739-.586-.222a1.032,1.032,0,0,1-.211-.092" transform="translate(-7.502 -224.84)" fill="#ef8b53"/>
        <path id="Trazado_601713" data-name="Trazado 601713" d="M27.07,349.335c-.026-.009.431-1.448,1.019-3.214s1.088-3.191,1.114-3.183-.431,1.448-1.02,3.214-1.087,3.191-1.113,3.182" transform="translate(-16.761 -217.401)" fill="#ef8b53"/>
        <path id="Trazado_601714" data-name="Trazado 601714" d="M36.609,371.024a1.1,1.1,0,0,1,.124-.2l.364-.526c.306-.444.727-1.06,1.166-1.756s.818-1.339,1.088-1.806l.32-.554a1.074,1.074,0,0,1,.127-.2,1.065,1.065,0,0,1-.093.216c-.066.136-.165.331-.292.569-.254.477-.623,1.128-1.065,1.825s-.872,1.309-1.193,1.743c-.162.217-.294.391-.39.508a1.061,1.061,0,0,1-.155.177" transform="translate(-22.667 -231.67)" fill="#ef8b53"/>
        <path id="Trazado_601715" data-name="Trazado 601715" d="M22.131,377.864a.916.916,0,0,1,.217,0l.591.032c.5.031,1.186.08,1.945.141s1.446.121,1.943.17l.588.062a.93.93,0,0,1,.215.037.918.918,0,0,1-.218,0l-.59-.031c-.5-.031-1.186-.08-1.945-.141s-1.446-.121-1.943-.17l-.588-.063a.919.919,0,0,1-.214-.037" transform="translate(-13.703 -239.022)" fill="#ef8b53"/>
        <path id="Trazado_601716" data-name="Trazado 601716" d="M28.367,396.135a1.473,1.473,0,0,1,.278,0l.757.037c.639.036,1.521.093,2.494.161s1.855.136,2.493.19l.754.069a1.526,1.526,0,0,1,.276.039,1.469,1.469,0,0,1-.278,0l-.756-.037c-.639-.036-1.521-.092-2.5-.161s-1.855-.136-2.492-.19l-.755-.069a1.5,1.5,0,0,1-.275-.039" transform="translate(-17.564 -250.335)" fill="#ef8b53"/>
        <path id="Trazado_601717" data-name="Trazado 601717" d="M46.45,386.719a1.632,1.632,0,0,1,.151-.257l.437-.684c.369-.577.874-1.377,1.408-2.275s1-1.723,1.329-2.322l.392-.71a1.642,1.642,0,0,1,.155-.255,1.751,1.751,0,0,1-.12.273c-.083.173-.207.421-.365.726-.316.609-.77,1.441-1.305,2.34s-1.051,1.694-1.435,2.263c-.193.284-.351.511-.463.666a1.8,1.8,0,0,1-.183.236" transform="translate(-28.76 -240.482)" fill="#e0e0e0"/>
        <path id="Trazado_601727" data-name="Trazado 601727" d="M650.093,214H633.179a2.25,2.25,0,0,1-2.25-2.25V196.76a2.25,2.25,0,0,1,2.25-2.25h16.914a2.25,2.25,0,0,1,2.25,2.25v14.995a2.25,2.25,0,0,1-2.25,2.25" transform="translate(-390.654 -125.498)" fill="#fff"/>
        <path id="Trazado_601728" data-name="Trazado 601728" d="M652.343,197.828H630.929v-1.006a2.312,2.312,0,0,1,2.312-2.312h16.973a2.129,2.129,0,0,1,2.129,2.129Z" transform="translate(-390.654 -125.498)" fill="#e0e0e0"/>
        <path id="Trazado_601729" data-name="Trazado 601729" d="M637.318,198.914a.526.526,0,1,1-.525-.494.51.51,0,0,1,.525.494" transform="translate(-393.96 -127.919)" fill="#fff"/>
        <path id="Trazado_601730" data-name="Trazado 601730" d="M641.076,198.914a.526.526,0,1,1-.525-.494.51.51,0,0,1,.525.494" transform="translate(-396.287 -127.919)" fill="#fff"/>
        <path id="Trazado_601731" data-name="Trazado 601731" d="M644.831,198.914a.526.526,0,1,1-.525-.494.51.51,0,0,1,.525.494" transform="translate(-398.612 -127.919)" fill="#fff"/>
        <path id="Trazado_601732" data-name="Trazado 601732" d="M649.932,213.843a2.707,2.707,0,0,0,.768-.159,2.228,2.228,0,0,0,1.395-1.632,3.656,3.656,0,0,0,.044-.769q0-.411,0-.861,0-.9-.008-1.952c0-1.4-.009-3-.015-4.759s-.008-3.7-.012-5.768c-.007-.515.01-1.055-.015-1.572a2.174,2.174,0,0,0-.7-1.368c-.8-.806-2.058-.508-3.2-.563l-15.169.008a2.147,2.147,0,0,0-2.09,1.644,3.9,3.9,0,0,0-.063.958q0,1.966,0,3.87c0,2.537,0,4.985-.006,7.317q0,1.747,0,3.405a2.139,2.139,0,0,0,.575,1.422,2.162,2.162,0,0,0,1.326.68c2.053.037,4,.017,5.758.029l8.352.032,2.271.019.591.01c.133,0,.2.01.2.01s-.068.007-.2.01l-.591.009-2.271.019-8.352.032c-1.767,0-3.686.027-5.777-.006a2.335,2.335,0,0,1-2.056-2.262q0-1.658-.007-3.409c0-2.332,0-4.779-.006-7.317q0-1.9,0-3.87a4.078,4.078,0,0,1,.068-1,2.346,2.346,0,0,1,2.282-1.8l15.169.008,1.726,0a2.343,2.343,0,0,1,2.338,2.094c.026.553.006,1.068.011,1.59,0,2.072-.009,4-.012,5.768s-.01,3.357-.014,4.759q0,1.05-.008,1.952,0,.45,0,.861a3.716,3.716,0,0,1-.055.785,2.311,2.311,0,0,1-.637,1.147,2.288,2.288,0,0,1-.819.507,2.113,2.113,0,0,1-.58.121c-.134,0-.2,0-.2,0" transform="translate(-390.493 -125.336)" fill="#e0e0e0"/>
        <path id="Trazado_601733" data-name="Trazado 601733" d="M651.573,220.121H636.728a1.7,1.7,0,0,1-1.7-1.7v-9.58a1.7,1.7,0,0,1,1.7-1.7h14.845a1.7,1.7,0,0,1,1.7,1.7v9.58a1.7,1.7,0,0,1-1.7,1.7" transform="translate(-393.194 -133.322)" fill="#f5f5f5"/>
        <path id="Trazado_601734" data-name="Trazado 601734" d="M638.9,228.432l4.452-6.336a.5.5,0,0,1,.8-.027l3.059,3.793a.5.5,0,0,0,.741.047l1.792-1.721a.5.5,0,0,1,.734.039L654,228.4a.5.5,0,0,1-.385.829h-14.3a.5.5,0,0,1-.412-.794" transform="translate(-395.533 -142.445)" fill="#ebebeb"/>
        <path id="Trazado_601735" data-name="Trazado 601735" d="M660.707,215.4a1.55,1.55,0,1,1-1.286-1.286,1.551,1.551,0,0,1,1.286,1.286" transform="translate(-407.184 -137.623)" fill="#ebebeb"/>
        <path id="Trazado_601736" data-name="Trazado 601736" d="M25.7,233.226H2.51a2.25,2.25,0,0,1-2.25-2.25V205.335a2.25,2.25,0,0,1,2.25-2.25H25.7a2.25,2.25,0,0,1,2.25,2.25v25.641a2.25,2.25,0,0,1-2.25,2.25" transform="translate(-0.161 -130.807)" fill="#fff"/>
        <path id="Trazado_601737" data-name="Trazado 601737" d="M27.945,208.213H.26V205.4a2.312,2.312,0,0,1,2.312-2.312H25.816a2.129,2.129,0,0,1,2.129,2.129Z" transform="translate(-0.161 -130.806)" fill="#e0e0e0"/>
        <path id="Trazado_601738" data-name="Trazado 601738" d="M10.138,209.893a.813.813,0,1,1-.812-.764.789.789,0,0,1,.812.764" transform="translate(-5.272 -134.549)" fill="#fff"/>
        <path id="Trazado_601739" data-name="Trazado 601739" d="M15.946,209.893a.813.813,0,1,1-.812-.764.789.789,0,0,1,.812.764" transform="translate(-8.868 -134.549)" fill="#fff"/>
        <path id="Trazado_601740" data-name="Trazado 601740" d="M21.754,209.893a.813.813,0,1,1-.812-.764.789.789,0,0,1,.812.764" transform="translate(-12.465 -134.549)" fill="#fff"/>
        <path id="Trazado_601741" data-name="Trazado 601741" d="M25.534,233.065c0-.006.1-.006.286-.03a2.235,2.235,0,0,0,1.708-1.248,2.2,2.2,0,0,0,.215-.833c.013-.309,0-.646,0-1-.008-2.835-.018-6.925-.032-11.979,0-2.529-.008-5.3-.012-8.272q0-2.228-.009-4.6a2.16,2.16,0,0,0-1.19-1.856,2.305,2.305,0,0,0-1.152-.23H24.105l-21.754.008A2.167,2.167,0,0,0,.29,204.552,5.118,5.118,0,0,0,.2,205.939v1.415q0,2.818,0,5.551c0,3.639,0,7.149-.006,10.493q0,2.508,0,4.886,0,1.188,0,2.341a2.211,2.211,0,0,0,.859,1.918,2.1,2.1,0,0,0,.969.413,9.155,9.155,0,0,0,1.072.03l2.112,0,3.969.006,11.978.032,3.257.019.847.01c.191,0,.289.01.289.01s-.1.007-.289.01l-.847.01-3.257.018-11.978.032-3.969.006-2.112,0a9.137,9.137,0,0,1-1.1-.03,2.262,2.262,0,0,1-1.043-.442,2.379,2.379,0,0,1-.929-2.049q0-1.152,0-2.341,0-2.376,0-4.886c0-3.344,0-6.854-.006-10.493q0-2.729,0-5.551,0-.7,0-1.415v-.711a2.573,2.573,0,0,1,.1-.733,2.365,2.365,0,0,1,2.251-1.67l21.754.008h1.246a2.479,2.479,0,0,1,1.232.251,2.337,2.337,0,0,1,1.285,2.009q0,2.377,0,4.611c0,2.973-.008,5.743-.012,8.272-.013,5.053-.024,9.144-.032,11.979,0,.354,0,.685-.011,1a2.273,2.273,0,0,1-1.179,1.843,2.161,2.161,0,0,1-.808.253,1.89,1.89,0,0,1-.289.01" transform="translate(0 -130.646)" fill="#e0e0e0"/>
        <path id="Trazado_601742" data-name="Trazado 601742" d="M18.394,232.463,11.435,225.4A9.917,9.917,0,1,1,8.928,235.42Z" transform="translate(-5.528 -142.862)" fill="#f5f5f5"/>
        <path id="Trazado_601743" data-name="Trazado 601743" d="M15.549,237.827,7.287,240.3a8.623,8.623,0,0,1,2.128-8.539Z" transform="translate(-4.287 -148.564)" fill="#f5f5f5"/>
        <g id="Grupo_1099202" data-name="Grupo 1099202" transform="translate(148.669 0)">
          <path id="Trazado_601744" data-name="Trazado 601744" d="M404.468,22.114H387.778a2.712,2.712,0,0,1-2.712-2.712V2.712A2.712,2.712,0,0,1,387.778,0h16.691a2.712,2.712,0,0,1,2.712,2.712V19.4a2.712,2.712,0,0,1-2.712,2.712" transform="translate(-385.066 0)" fill="#f5f5f5"/>
          <path id="Trazado_601745" data-name="Trazado 601745" d="M394.05,20.749l2.228-2.227,4.3,3.819,7.174-7.2,2.068,2.227-9.561,9.27Z" transform="translate(-390.629 -9.373)" fill="#fff"/>
        </g>
        <g id="Grupo_1099203" data-name="Grupo 1099203" transform="translate(211.859 2.025)">
          <path id="Trazado_601746" data-name="Trazado 601746" d="M565.894,20.772l-.268-15.114.268,0a15.116,15.116,0,1,1-14.428,19.625Z" transform="translate(-550.562 -5.656)" fill="#ebebeb"/>
          <path id="Trazado_601747" data-name="Trazado 601747" d="M562.878,20.309l-12.95,4.108A13.145,13.145,0,0,1,562.237,6.659q.174,0,.347,0Z" transform="translate(-549.092 -6.277)" fill="#ebebeb"/>
        </g>
        <g id="Grupo_1099199" data-name="Grupo 1099199" transform="translate(0 2.025)">
          <g id="Grupo_1099200" data-name="Grupo 1099200">
            <path id="Trazado_601718" data-name="Trazado 601718" d="M68.454,36.564H42.118a2.25,2.25,0,0,1-2.25-2.25V10.741a2.25,2.25,0,0,1,2.25-2.25H68.454a2.25,2.25,0,0,1,2.25,2.25V34.314a2.25,2.25,0,0,1-2.25,2.25" transform="translate(-24.685 -5.257)" fill="#fff"/>
            <path id="Trazado_601719" data-name="Trazado 601719" d="M70.7,13.268H39.868V10.8A2.312,2.312,0,0,1,42.18,8.491h26.4A2.129,2.129,0,0,1,70.7,10.62Z" transform="translate(-24.685 -5.257)" fill="#ebebeb"/>
            <path id="Trazado_601720" data-name="Trazado 601720" d="M49.07,14.832a.757.757,0,1,1-.756-.711.735.735,0,0,1,.756.711" transform="translate(-29.446 -8.743)" fill="#fff"/>
            <path id="Trazado_601721" data-name="Trazado 601721" d="M54.479,14.832a.757.757,0,1,1-.756-.711.735.735,0,0,1,.756.711" transform="translate(-32.796 -8.743)" fill="#fff"/>
            <path id="Trazado_601722" data-name="Trazado 601722" d="M59.889,14.832a.757.757,0,1,1-.756-.711.735.735,0,0,1,.756.711" transform="translate(-36.145 -8.743)" fill="#fff"/>
            <path id="Trazado_601723" data-name="Trazado 601723" d="M68.293,36.4c0-.006.1-.005.292-.031a2.17,2.17,0,0,0,.805-.279,2.225,2.225,0,0,0,1.115-1.865c.006-.317,0-.659,0-1.019-.008-2.889-.018-7.059-.032-12.211,0-2.578-.008-5.4-.012-8.432q0-.568,0-1.146c-.01-.381.021-.785-.027-1.152A2.166,2.166,0,0,0,68.5,8.428c-.192-.014-.4-.01-.6-.01H66.658l-2.524,0-22.175.008a2.16,2.16,0,0,0-2.075,1.581,2.321,2.321,0,0,0-.079.693v.725q0,.724,0,1.442,0,2.873,0,5.658c0,3.709,0,7.288-.006,10.7q0,2.555,0,4.979a2.171,2.171,0,0,0,1.148,1.863,2.226,2.226,0,0,0,1.083.253h1.146l8.432.012,12.21.032,3.32.019.863.01c.194,0,.294.01.294.01s-.1.007-.294.01l-.863.01-3.32.019-12.21.032-8.432.012H42.027a2.389,2.389,0,0,1-1.163-.27,2.343,2.343,0,0,1-1.243-2.008q0-2.423-.007-4.983c0-3.409,0-6.987-.006-10.7q0-2.782,0-5.658,0-.719,0-1.442V10.7a2.538,2.538,0,0,1,.086-.746,2.358,2.358,0,0,1,2.266-1.727l22.175.008,2.524,0H67.9c.205,0,.406,0,.62.012a2.34,2.34,0,0,1,2.086,1.99,11.561,11.561,0,0,1,.026,1.176q0,.578,0,1.146c0,3.031-.008,5.854-.012,8.432-.013,5.152-.024,9.322-.032,12.211,0,.361,0,.7-.008,1.021a2.267,2.267,0,0,1-1.163,1.9,2.122,2.122,0,0,1-.822.264,1.8,1.8,0,0,1-.294.011" transform="translate(-24.524 -5.096)" fill="#ebebeb"/>
            <path id="Trazado_601724" data-name="Trazado 601724" d="M70.342,45.372H47.471a1.7,1.7,0,0,1-1.7-1.7V28.386a1.7,1.7,0,0,1,1.7-1.7H70.342a1.7,1.7,0,0,1,1.7,1.7V43.675a1.7,1.7,0,0,1-1.7,1.7" transform="translate(-28.342 -16.525)" fill="#f5f5f5"/>
            <path id="Trazado_601725" data-name="Trazado 601725" d="M51.349,57.341l6.411-9.125a.726.726,0,0,1,1.159-.038l4.405,5.463a.726.726,0,0,0,1.068.068l2.58-2.478a.726.726,0,0,1,1.058.056l5.059,6a.726.726,0,0,1-.555,1.194H51.943a.726.726,0,0,1-.594-1.143" transform="translate(-31.711 -29.663)" fill="#ebebeb"/>
            <path id="Trazado_601726" data-name="Trazado 601726" d="M82.749,38.571A2.233,2.233,0,1,1,80.9,36.719a2.234,2.234,0,0,1,1.852,1.852" transform="translate(-48.489 -22.719)" fill="#ebebeb"/>
          </g>
        </g>
      </g>
    </g>
    <g id="Grupo_878545" data-name="Grupo 878545" transform="translate(1141.113 6646.4)">
      <g id="Grupo_878544" data-name="Grupo 878544" clip-path="url(#clip-path)">
        <path id="Trazado_601748" data-name="Trazado 601748" d="M263.628,407.957c0,.055-56.122.1-125.337.1-69.239,0-125.349-.044-125.349-.1s56.11-.1,125.349-.1c69.215,0,125.337.044,125.337.1" transform="translate(-8.013 -252.535)" fill="#263238"/>
      </g>
    </g>
    <g id="Grupo_878547" data-name="Grupo 878547" transform="translate(1141.113 6646.4)">
      <g id="Grupo_878546" data-name="Grupo 878546" clip-path="url(#clip-path)">
        <path id="Trazado_601749" data-name="Trazado 601749" d="M188.442,61.014H153.9a2.25,2.25,0,0,1-2.25-2.25V27.718a2.25,2.25,0,0,1,2.25-2.25h34.546a2.25,2.25,0,0,1,2.25,2.25V58.764a2.25,2.25,0,0,1-2.25,2.25" transform="translate(-93.896 -15.769)" fill="#fff"/>
        <path id="Trazado_601750" data-name="Trazado 601750" d="M190.692,31.518H151.647V27.781a2.311,2.311,0,0,1,2.312-2.312h34.6a2.129,2.129,0,0,1,2.129,2.129Z" transform="translate(-93.896 -15.77)" fill="#e0e0e0"/>
        <path id="Trazado_601751" data-name="Trazado 601751" d="M163.3,33.5a.959.959,0,1,1-.957-.9.93.93,0,0,1,.957.9" transform="translate(-99.924 -20.183)" fill="#fff"/>
        <path id="Trazado_601752" data-name="Trazado 601752" d="M170.146,33.5a.959.959,0,1,1-.957-.9.93.93,0,0,1,.957.9" transform="translate(-104.165 -20.183)" fill="#fff"/>
        <path id="Trazado_601753" data-name="Trazado 601753" d="M177,33.5a.959.959,0,1,1-.957-.9.93.93,0,0,1,.957.9" transform="translate(-108.406 -20.183)" fill="#fff"/>
        <path id="Trazado_601754" data-name="Trazado 601754" d="M162.922,49.73V71.473c0-.2,31.385,0,31.385,0" transform="translate(-100.877 -30.791)" fill="#fff"/>
        <path id="Trazado_601755" data-name="Trazado 601755" d="M194.138,71.473a.7.7,0,0,1-.137.009l-.4.008-1.548.009h-5.693l-18.784-.013-2.716.017-1.328.02c-.219.006-.439.011-.651.026l-.074.008-.009,0h0c.226-.006-.176-.113-.141-.087v-.529c0-1.729,0-3.4.006-4.987.008-3.176.015-6.037.021-8.445s.024-4.337.032-5.693c.008-.663.014-1.182.019-1.548,0-.169.007-.3.01-.4a.692.692,0,0,1,.01-.137.709.709,0,0,1,.01.137c0,.1.006.234.01.4,0,.366.011.885.019,1.548.007,1.356.018,3.3.031,5.693s.013,5.269.021,8.445c0,1.59,0,3.258.006,4.987v.529c.033.036-.359-.087-.129-.093l.021-.006a.263.263,0,0,1,.03-.006l.089-.01c.224-.016.441-.021.662-.027l1.331-.022,2.718-.018c7.336-.016,13.977.032,18.784.071l5.693.062,1.548.028.4.012a.7.7,0,0,1,.137.011" transform="translate(-100.708 -30.791)" fill="#263238"/>
        <rect id="Rectángulo_298200" data-name="Rectángulo 298200" width="6.696" height="8.722" transform="translate(65.242 29.518)" fill="#455a64"/>
        <rect id="Rectángulo_298201" data-name="Rectángulo 298201" width="6.696" height="13.388" transform="translate(74.337 24.852)" fill="#455a64"/>
        <rect id="Rectángulo_298202" data-name="Rectángulo 298202" width="6.696" height="17.295" transform="translate(83.432 20.945)" fill="#455a64"/>
        <path id="Trazado_601756" data-name="Trazado 601756" d="M188.273,60.854c0-.01.128,0,.372-.043a2.242,2.242,0,0,0,1.832-1.944c.031-.7,0-1.522.008-2.439-.008-3.682-.018-9-.032-15.572,0-3.288-.008-6.888-.012-10.753q0-.725,0-1.462,0-.368,0-.74a3.89,3.89,0,0,0-.037-.729,2.168,2.168,0,0,0-2.044-1.773h-6.348l-28.279.008a2.15,2.15,0,0,0-1.592.7,2.217,2.217,0,0,0-.562,1.649q0,1.857,0,3.691,0,3.665,0,7.215c0,4.731,0,9.293-.006,13.64q0,3.258,0,6.35a2.162,2.162,0,0,0,1.743,2.072,3.662,3.662,0,0,0,.727.042h2.2l10.753.012,15.571.032,4.233.018,1.1.01c.248,0,.375.01.375.01s-.127.007-.375.01l-1.1.01-4.233.019-15.571.032-10.753.012h-2.2a3.822,3.822,0,0,1-.76-.044,2.334,2.334,0,0,1-1.885-2.234q0-3.09-.007-6.354c0-4.347,0-8.91-.006-13.64q0-3.548,0-7.215,0-1.833,0-3.691a2.42,2.42,0,0,1,.614-1.783,2.347,2.347,0,0,1,1.739-.769l28.279.008,6.354.009a2.34,2.34,0,0,1,2.2,1.917,4.01,4.01,0,0,1,.038.759q0,.372,0,.74,0,.737,0,1.462c0,3.865-.008,7.465-.012,10.753-.013,6.571-.024,11.89-.032,15.572-.011.92.011,1.733-.026,2.446a2.273,2.273,0,0,1-.879,1.527,2.192,2.192,0,0,1-1.009.43,1.669,1.669,0,0,1-.28.024c-.063,0-.095,0-.095,0" transform="translate(-93.726 -15.609)" fill="#263238"/>
      </g>
    </g>
    <g id="Grupo_878549" data-name="Grupo 878549" transform="translate(1141.113 6646.4)">
      <g id="Grupo_878548" data-name="Grupo 878548" clip-path="url(#clip-path)">
        <path id="Trazado_601757" data-name="Trazado 601757" d="M630.054,125.579l-.5-3.473a11.7,11.7,0,1,1,3.563,2.21l0,0Z" transform="translate(-387.425 -63.009)" fill="#fff"/>
        <path id="Trazado_601758" data-name="Trazado 601758" d="M640.061,124.489l1.761-1.761,3.4,3.02,5.672-5.694,1.636,1.761-7.56,7.33Z" transform="translate(-396.308 -74.334)" fill="#0a763d"/>
        <path id="Trazado_601759" data-name="Trazado 601759" d="M629.931,125.418s.071-.035.2-.093l.59-.254,2.255-.955-.01.08-.005,0a.046.046,0,0,1,.045-.081,11.575,11.575,0,0,0,7.344.361c.3-.079.594-.2.9-.3a6.418,6.418,0,0,0,.9-.377,11.494,11.494,0,0,0,3.426-2.438,11.549,11.549,0,0,0,1.634-13.962,11.768,11.768,0,0,0-1.689-2.213,12,12,0,0,0-4.794-2.93,11.659,11.659,0,0,0-2.715-.5,11.453,11.453,0,0,0-5.215.865,11.625,11.625,0,0,0-3.329,19.3c.15,1.123.265,1.991.345,2.588l.086.672c.019.152.026.236.026.236s-.015-.069-.039-.214l-.106-.657c-.093-.6-.229-1.47-.4-2.595l.015.028a11.628,11.628,0,0,1-3.189-4.724,11.788,11.788,0,0,1,6.51-14.84,11.661,11.661,0,0,1,5.314-.889,11.875,11.875,0,0,1,2.769.505,11.642,11.642,0,0,1,6.609,5.245,11.784,11.784,0,0,1-1.692,14.211,11.64,11.64,0,0,1-3.491,2.46,6.536,6.536,0,0,1-.92.378c-.31.1-.608.222-.914.3a11.9,11.9,0,0,1-1.785.343,11.713,11.713,0,0,1-5.635-.772l.045-.081.005,0a.047.047,0,0,1,.011.065.051.051,0,0,1-.021.016l-2.3.916-.586.229c-.131.05-.2.074-.194.071" transform="translate(-387.302 -62.848)" fill="#263238"/>
      </g>
    </g>
    <g id="Grupo_878551" data-name="Grupo 878551" transform="translate(1141.113 6646.4)">
      <g id="Grupo_878550" data-name="Grupo 878550" clip-path="url(#clip-path)">
        <path id="Trazado_601760" data-name="Trazado 601760" d="M22.21,140.281l.084-3.471c3.014-3.462,4.055-8.811,1-14.565-10.664-11.293-26.726.206-19.47,13.942,4.87,5.175,10.844,5.584,15.23,3.214l0,0Z" transform="translate(-1.24 -72.856)" fill="#fff"/>
        <path id="Trazado_601761" data-name="Trazado 601761" d="M22.044,140.115s-.074-.026-.212-.067l-.609-.18-2.327-.674.019.078,0,0a.046.046,0,0,0,0-.065.046.046,0,0,0-.056-.009,11.444,11.444,0,0,1-7.172,1.219c-.3-.042-.607-.127-.919-.191a6.328,6.328,0,0,1-.933-.264,11.372,11.372,0,0,1-3.653-1.992,11.429,11.429,0,0,1-3.248-13.524,11.649,11.649,0,0,1,1.4-2.373A11.869,11.869,0,0,1,8.7,118.626a11.538,11.538,0,0,1,2.609-.808,11.335,11.335,0,0,1,5.225.236,11.5,11.5,0,0,1,5.543,18.572c-.015,1.121-.026,1.987-.034,2.584,0,.287,0,.51-.005.671s0,.235,0,.235.007-.069.013-.216.015-.376.027-.658c.021-.6.052-1.471.091-2.6l-.011.03a11.507,11.507,0,0,0,2.577-5.017A11.663,11.663,0,0,0,16.6,117.845a11.53,11.53,0,0,0-5.326-.248,11.757,11.757,0,0,0-2.661.822,11.52,11.52,0,0,0-5.876,5.931A11.66,11.66,0,0,0,6.07,138.112a11.511,11.511,0,0,0,3.72,2.006,6.474,6.474,0,0,0,.948.263c.317.062.624.147.933.188a11.765,11.765,0,0,0,1.794.127,11.594,11.594,0,0,0,5.445-1.422l-.054-.074,0,0a.046.046,0,0,0,0,.065.048.048,0,0,0,.022.013l2.371.629.6.156a1.933,1.933,0,0,0,.2.047" transform="translate(-1.073 -72.69)" fill="#263238"/>
        <path id="Trazado_601762" data-name="Trazado 601762" d="M41.883,145.165a1.459,1.459,0,0,0,2.062,2.062,1.459,1.459,0,0,0-2.062-2.062" transform="translate(-25.7 -89.649)" fill="#263238"/>
        <path id="Trazado_601763" data-name="Trazado 601763" d="M29.022,145.165a1.459,1.459,0,0,0,2.062,2.062,1.459,1.459,0,0,0-2.062-2.062" transform="translate(-17.737 -89.649)" fill="#263238"/>
        <path id="Trazado_601764" data-name="Trazado 601764" d="M16.162,145.165a1.459,1.459,0,0,0,2.062,2.062,1.459,1.459,0,0,0-2.062-2.062" transform="translate(-9.774 -89.649)" fill="#263238"/>
      </g>
    </g>
    <g id="Grupo_878559" data-name="Grupo 878559" transform="translate(1141.113 6646.4)">
      <g id="Grupo_1099204" data-name="Grupo 1099204">
        <path id="Trazado_601765" data-name="Trazado 601765" d="M162.038,236.751l-7.451-2.009-1.483,6.743-3.72-10.17c-1.734-4.862-4.107-6.537-5.744-6.99l-.592.77,1.568,26.9,4.968,6.178a4.893,4.893,0,0,0,8.353-1.134c2.79-7.178,3.737-18.1,4.1-20.289" transform="translate(-88.572 -138.896)" fill="#ef8b53"/>
        <path id="Trazado_601766" data-name="Trazado 601766" d="M55.1,361.563H92.376L88.469,334.8,64.71,333.1s-4.1,4.017-5.456,8.734S55.1,361.563,55.1,361.563" transform="translate(-34.115 -206.246)" fill="#263238"/>
        <path id="Trazado_601767" data-name="Trazado 601767" d="M62.327,148.276c.88-7.939,2.611-16.682,13.929-16.245,0,0,8.524.3,11.237,6.356,1.469,3.28,1.055,15.742,1.728,26.015l1.654,13.183L56.648,172.3s5.131-19.085,5.679-24.022" transform="translate(-35.075 -81.741)" fill="#263238"/>
        <path id="Trazado_601768" data-name="Trazado 601768" d="M95.762,139.256l-.729-.65L87.5,141.933a2.132,2.132,0,0,0-1.944,2.129l1.722,25.263c.046,1.687-.407,2.743.656,4.054l7.3,8.733c2.55,3.147,2.091-3.951,3.91-7.57.127-.253-.489-1.16-.454-1.337a5.049,5.049,0,0,0,.1-.56c.161-2.008.117-3.744.117-3.744.064-2.2.079-3.1.08-3.084,0,0,4.658-.691,5.725-6.734.53-3.005.277-7.108-.032-11.143-.428-5.585-4.419-8.836-8.914-8.683" transform="translate(-52.975 -85.821)" fill="#ffc09d"/>
        <path id="Trazado_601769" data-name="Trazado 601769" d="M109.977,174.033a.777.777,0,0,1-.763.771.743.743,0,0,1-.789-.715.777.777,0,0,1,.762-.771.744.744,0,0,1,.79.715" transform="translate(-67.134 -107.313)" fill="#263238"/>
        <path id="Trazado_601770" data-name="Trazado 601770" d="M129.641,173.834a.777.777,0,0,1-.763.771.744.744,0,0,1-.789-.714.778.778,0,0,1,.762-.772.744.744,0,0,1,.79.715" transform="translate(-79.309 -107.19)" fill="#263238"/>
        <path id="Trazado_601771" data-name="Trazado 601771" d="M128.811,166.008c-.1.1-.679-.346-1.516-.358s-1.456.4-1.545.291c-.044-.046.057-.227.328-.417a2.138,2.138,0,0,1,1.239-.359,2.049,2.049,0,0,1,1.2.412c.254.2.338.387.289.431" transform="translate(-77.855 -102.266)" fill="#263238"/>
        <path id="Trazado_601772" data-name="Trazado 601772" d="M106.612,166.7c-.108.089-.641-.414-1.471-.512s-1.489.244-1.567.131c-.038-.051.08-.22.369-.382a2.135,2.135,0,0,1,1.269-.23,2.051,2.051,0,0,1,1.156.534c.231.227.3.419.244.459" transform="translate(-64.125 -102.59)" fill="#263238"/>
        <path id="Trazado_601773" data-name="Trazado 601773" d="M119.3,172.705a5.542,5.542,0,0,1,1.362-.222c.214-.018.417-.057.455-.2a1.086,1.086,0,0,0-.132-.636l-.6-1.637a27.969,27.969,0,0,1-1.345-4.278,28.03,28.03,0,0,1,1.686,4.159q.3.862.577,1.646a1.236,1.236,0,0,1,.1.84.538.538,0,0,1-.356.306,1.464,1.464,0,0,1-.364.044,5.438,5.438,0,0,1-1.377-.022" transform="translate(-73.702 -102.616)" fill="#263238"/>
        <path id="Trazado_601774" data-name="Trazado 601774" d="M107.681,206.309A15.421,15.421,0,0,1,99.6,204s1.968,4.23,8.043,3.768Z" transform="translate(-61.671 -126.314)" fill="#ff9b6c"/>
        <path id="Trazado_601775" data-name="Trazado 601775" d="M107.146,158.358c-.109.216-.925.01-1.913.01-.989-.019-1.809.172-1.914-.046-.046-.1.116-.3.46-.48a3.33,3.33,0,0,1,2.916.027c.34.187.5.386.451.489" transform="translate(-63.968 -97.532)" fill="#263238"/>
        <path id="Trazado_601776" data-name="Trazado 601776" d="M128.553,156.521c-.15.187-.723-.02-1.416-.041-.692-.045-1.282.105-1.413-.1-.057-.1.038-.286.3-.462a2.051,2.051,0,0,1,2.279.11c.241.2.319.4.252.488" transform="translate(-77.835 -96.362)" fill="#263238"/>
        <path id="Trazado_601777" data-name="Trazado 601777" d="M84.441,154.007s4.32,1.19,6.393-9.443c.709-3.636,3.958-6.668,3.958-6.668l-1.37-.363s-8.355,2.652-8.493,2.763-1.984,4.431-1.984,4.431Z" transform="translate(-51.357 -85.157)" fill="#263238"/>
        <path id="Trazado_601778" data-name="Trazado 601778" d="M82.536,176.951c.007-.451-.5-1.524-.941-1.6-1.187-.206-3.334-.147-3.406,2.874-.1,4.131,4.069,3.378,4.079,3.26.008-.092.244-2.974.267-4.533" transform="translate(-48.412 -108.528)" fill="#ffc09d"/>
        <path id="Trazado_601779" data-name="Trazado 601779" d="M82.749,182.039c-.018-.014-.073.049-.2.1a.72.72,0,0,1-.538,0,1.781,1.781,0,0,1-.786-1.617,2.374,2.374,0,0,1,.226-1.026.83.83,0,0,1,.554-.539.367.367,0,0,1,.42.207c.053.117.024.2.046.206s.09-.067.061-.238a.459.459,0,0,0-.157-.263.544.544,0,0,0-.4-.115,1.013,1.013,0,0,0-.767.623,2.443,2.443,0,0,0-.277,1.146,1.868,1.868,0,0,0,1.007,1.809.77.77,0,0,0,.661-.094c.131-.1.154-.19.14-.2" transform="translate(-50.116 -110.678)" fill="#ff9b6c"/>
        <path id="Trazado_601780" data-name="Trazado 601780" d="M94.315,153.144a6.019,6.019,0,0,0,.614-.145,3.725,3.725,0,0,0,1.441-.9,5.1,5.1,0,0,0,.736-.922,6.9,6.9,0,0,0,.583-1.226,25.806,25.806,0,0,0,.79-3.028c.254-1.085.535-2.111.85-3.026a17.252,17.252,0,0,1,1-2.365,12.359,12.359,0,0,1,.9-1.48c.116-.168.219-.29.283-.376a.955.955,0,0,1,.106-.125.913.913,0,0,1-.088.138c-.059.09-.156.216-.266.387a14.134,14.134,0,0,0-.863,1.491,18.094,18.094,0,0,0-.971,2.362c-.308.912-.585,1.935-.839,3.018a24.8,24.8,0,0,1-.8,3.038,6.891,6.891,0,0,1-.6,1.239,5.112,5.112,0,0,1-.76.93,3.66,3.66,0,0,1-1.481.885,2.294,2.294,0,0,1-.626.1" transform="translate(-58.397 -86.407)" fill="#263238"/>
        <path id="Trazado_601781" data-name="Trazado 601781" d="M77.112,168.629a1.163,1.163,0,0,1-.051-.2c-.031-.144-.072-.337-.123-.583l-.444-2.226.1-.018c.026.149.054.314.084.485l0-.015.092.182-.1.041a39.77,39.77,0,0,1-1.54-6.594,40.312,40.312,0,0,1-.393-4.285,19.665,19.665,0,0,1,.253-4.72,7.412,7.412,0,0,1,.689-1.9,10.223,10.223,0,0,1,1.088-1.625c.807-1,1.682-1.859,2.48-2.713l4.284-4.5,2.9-3.023.8-.815.21-.209a.4.4,0,0,1,.077-.067.425.425,0,0,1-.062.08l-.2.222-.77.84-2.856,3.064-4.255,4.528c-.794.858-1.668,1.724-2.462,2.709a8.137,8.137,0,0,0-1.737,3.447,19.692,19.692,0,0,0-.254,4.673,41.108,41.108,0,0,0,.376,4.268,41.557,41.557,0,0,0,1.48,6.584l-.1.042-.089-.184,0-.008v-.008c-.027-.171-.053-.337-.077-.486l.1-.018c.17.955.3,1.707.4,2.235.041.248.073.443.1.588a1.155,1.155,0,0,1,.024.2" transform="translate(-46.252 -84.113)" fill="#455a64"/>
        <path id="Trazado_601782" data-name="Trazado 601782" d="M81.158,191.405a1.7,1.7,0,1,0,1.642-1.754,1.7,1.7,0,0,0-1.642,1.754" transform="translate(-50.251 -117.426)" fill="#455a64"/>
        <path id="Trazado_601783" data-name="Trazado 601783" d="M146.568,241.514a1.955,1.955,0,0,1,.063.39l.12,1.124c.107.976.205,2.394.3,4.148.18,3.508.176,8.364,0,13.715s-.318,10.2-.27,13.7c.019,1.753.052,3.172.1,4.151.015.465.027.84.036,1.129a1.909,1.909,0,0,1-.008.4,1.9,1.9,0,0,1-.053-.391l-.093-1.127c-.082-.978-.148-2.4-.194-4.154-.1-3.511.006-8.364.18-13.715s.214-10.194.089-13.7c-.064-1.751-.129-3.169-.2-4.147-.026-.465-.047-.839-.063-1.128a1.888,1.888,0,0,1,0-.4" transform="translate(-90.723 -149.539)" fill="#263238"/>
        <path id="Trazado_601784" data-name="Trazado 601784" d="M73.185,226.209l4.167,32.933,22.537,1.615,1.459.744L99.86,234.289l-7.825-18.6-.786-.479s-.656,5.5-2.774,5.407c-1.443-.063-6.9-2.653-8.1-3.457l-1.2-3.5Z" transform="translate(-45.314 -132.289)" fill="#fff"/>
        <path id="Trazado_601785" data-name="Trazado 601785" d="M50.487,264.437l4.793-10.992-4.643-35.181,8.082-3.387,2.648-2.857s2.457,9.076,3.224,12.255,2.961,10.168,3.94,16.433-.289,18.129-1.262,22.138S62.358,286.7,62.358,286.7H44.266s2.924-15.306,6.221-22.262" transform="translate(-27.408 -131.277)" fill="#ef8b53"/>
        <path id="Trazado_601786" data-name="Trazado 601786" d="M120.685,212.6l1.917,1.954,7.142,2.511s2.1,8.238,2.187,10.776-.039,30.711,0,32.036,5.062,25.958,4.657,27.076h-4.9s-2.63-20.243-2.8-25.54-.823-18.313-2.136-24.678-6.151-22.02-6.151-22.02Z" transform="translate(-74.675 -131.636)" fill="#ef8b53"/>
        <path id="Trazado_601787" data-name="Trazado 601787" d="M132.354,267.544a.471.471,0,0,1-.014-.132c0-.1-.008-.231-.014-.387-.007-.363-.016-.86-.028-1.487-.013-1.316-.032-3.178-.055-5.469-.043-4.617-.067-11-.183-18.039-.021-.88-.037-1.75-.073-2.6s-.145-1.685-.236-2.512c-.187-1.651-.371-3.242-.576-4.753s-.424-2.943-.7-4.269a18.3,18.3,0,0,0-1.147-3.568,46.707,46.707,0,0,0-2.475-4.861l-.753-1.281-.2-.333a.492.492,0,0,1-.06-.118.45.45,0,0,1,.084.1l.22.318c.189.283.463.7.8,1.255a41.842,41.842,0,0,1,2.564,4.838,18.2,18.2,0,0,1,1.193,3.6c.283,1.333.513,2.769.724,4.282s.4,3.106.593,4.757c.092.823.216,1.662.242,2.531s.053,1.73.074,2.612c.117,7.047.108,13.426.1,18.044-.014,2.291-.026,4.153-.034,5.469-.011.627-.019,1.124-.025,1.487-.006.156-.01.283-.014.387a.47.47,0,0,1-.014.132" transform="translate(-77.921 -134.813)" fill="#263238"/>
        <path id="Trazado_601788" data-name="Trazado 601788" d="M90.745,260.788a1.977,1.977,0,0,1-.075-.395c-.037-.26-.085-.645-.135-1.141-.1-.993-.208-2.434-.235-4.218-.015-.892-.008-1.87.028-2.919a12.688,12.688,0,0,0-.521-3.261A53.8,53.8,0,0,0,87.03,241.7c-1.144-2.482-2.322-4.809-3.412-6.917a28.457,28.457,0,0,1-1.46-3.047,26.048,26.048,0,0,1-.813-2.817c-.412-1.74-.651-3.166-.809-4.151-.077-.493-.13-.877-.162-1.137a2.027,2.027,0,0,1-.033-.4,2.215,2.215,0,0,1,.089.391l.214,1.128c.191.978.46,2.4.895,4.124a27.074,27.074,0,0,0,.839,2.785,29.223,29.223,0,0,0,1.473,3.011c1.1,2.1,2.29,4.431,3.438,6.919a51.924,51.924,0,0,1,2.769,7.2,12.7,12.7,0,0,1,.5,3.333c-.046,1.045-.064,2.019-.062,2.909,0,1.779.082,3.218.145,4.212.034.476.062.856.082,1.144a2.348,2.348,0,0,1,.018.4" transform="translate(-49.743 -138.221)" fill="#263238"/>
        <path id="Trazado_601789" data-name="Trazado 601789" d="M147.72,237.455a1.951,1.951,0,0,1,.2.335c.127.222.288.562.488,1a20.2,20.2,0,0,1,1.222,3.917,29.806,29.806,0,0,1,.59,6.057c-.008,2.294-.187,4.805-.416,7.434-.487,5.255-.794,10.017-.9,13.472-.061,1.727-.1,3.125-.116,4.092-.014.46-.025.83-.034,1.113a1.961,1.961,0,0,1-.031.388,2.018,2.018,0,0,1-.026-.388c0-.283-.011-.653-.02-1.113-.013-.967-.01-2.367.025-4.1.052-3.459.328-8.237.815-13.491.229-2.626.415-5.131.438-7.41a30.869,30.869,0,0,0-.525-6.017,22.12,22.12,0,0,0-1.127-3.914c-.184-.446-.328-.791-.438-1.021a2.012,2.012,0,0,1-.146-.361" transform="translate(-91.464 -147.025)" fill="#263238"/>
        <path id="Trazado_601790" data-name="Trazado 601790" d="M111.873,187.922a2.429,2.429,0,0,0-.258,1.41,1.16,1.16,0,0,0,.283.763.987.987,0,0,0,.722.266,1.973,1.973,0,0,0,.76-.2,2.693,2.693,0,0,0,1.027-1.314c-.665-.23-1.835-.707-2.534-.928" transform="translate(-69.105 -116.356)" fill="#ff9b6c"/>
        <path id="Trazado_601791" data-name="Trazado 601791" d="M113.356,189.9a1.062,1.062,0,0,1-.926.331,1.337,1.337,0,0,1-.5-.14.975.975,0,0,1-.425-.437,1.342,1.342,0,0,1-.139-.65,3.7,3.7,0,0,1,.076-.685,2.772,2.772,0,0,1,.193-.634l.037-.079.079.03c.722.269,1.352.513,1.8.7a3.416,3.416,0,0,1,.7.326,3.389,3.389,0,0,1-.746-.206c-.458-.15-1.1-.37-1.818-.63l.117-.049a2.756,2.756,0,0,0-.174.586,2.007,2.007,0,0,0,.032,1.214.958.958,0,0,0,.778.519,1.453,1.453,0,0,0,.673-.089,2.256,2.256,0,0,1,.239-.1" transform="translate(-68.954 -116.157)" fill="#263238"/>
        <path id="Trazado_601792" data-name="Trazado 601792" d="M292.34,248.534H174.45a5.826,5.826,0,0,1-5.826-5.826v-86.5a5.826,5.826,0,0,1,5.826-5.826H292.34a5.826,5.826,0,0,1,5.826,5.826v86.5a5.826,5.826,0,0,1-5.826,5.826" transform="translate(-104.407 -93.111)" fill="#fff"/>
        <path id="Trazado_601793" data-name="Trazado 601793" d="M298.216,163.63H168.624v-7.51a5.741,5.741,0,0,1,5.741-5.741H292.213a6,6,0,0,1,6,6Z" transform="translate(-104.407 -93.111)" fill="#e0e0e0"/>
        <path id="Trazado_601794" data-name="Trazado 601794" d="M292.178,248.372s.1-.008.289-.02c.1-.008.216-.007.358-.026l.494-.078c.185-.043.391-.1.617-.161a6.3,6.3,0,0,0,.718-.29,5.637,5.637,0,0,0,1.593-1.112,5.7,5.7,0,0,0,1.342-2.059l.118-.325c.035-.111.059-.227.09-.342a5.337,5.337,0,0,0,.134-.718,14.064,14.064,0,0,0,.043-1.559c0-2.169-.006-4.672-.009-7.489-.008-11.271-.018-27.576-.032-47.725q0-7.556-.006-15.814,0-4.124,0-8.412,0-2.143,0-4.326c-.008-.725.016-1.464-.017-2.188a5.728,5.728,0,0,0-3.67-5.04,5.971,5.971,0,0,0-2.189-.386H289.76l-9.325,0-19.465,0-86.672.008a5.72,5.72,0,0,0-4.782,2.562,5.832,5.832,0,0,0-.928,2.625c-.033.464-.028.942-.027,1.417v1.425q0,5.695,0,11.311,0,11.231,0,22.114c0,14.5,0,28.484-.006,41.806q0,2.5,0,4.964,0,1.233,0,2.459a18.941,18.941,0,0,0,.074,2.424,5.71,5.71,0,0,0,4.658,4.766,14.623,14.623,0,0,0,2.354.094l18.362,0,32.958.012,47.723.032,12.974.018,3.374.01c.76,0,1.15.01,1.15.01s-.39.007-1.15.01l-3.374.009-12.974.019-47.723.032L194,248.454l-18.362,0a14.723,14.723,0,0,1-2.385-.1,5.887,5.887,0,0,1-4.8-4.912,19.069,19.069,0,0,1-.077-2.451q0-1.225,0-2.459,0-2.467,0-4.964c0-13.322,0-27.307-.006-41.806q0-10.874,0-22.114,0-5.616,0-11.311v-1.425c0-.475-.006-.949.028-1.435a6.032,6.032,0,0,1,.96-2.716,5.921,5.921,0,0,1,4.947-2.651l86.672.008,19.465,0,9.325,0h2.286a6.148,6.148,0,0,1,2.25.4,5.894,5.894,0,0,1,3.773,5.188c.032.742.008,1.467.015,2.2q0,2.183,0,4.326,0,4.287,0,8.412,0,8.248-.006,15.814c-.013,20.148-.024,36.454-.031,47.725,0,2.817-.006,5.32-.009,7.489a14.124,14.124,0,0,1-.048,1.565,5.472,5.472,0,0,1-.138.724c-.032.116-.057.233-.092.345l-.121.327a5.72,5.72,0,0,1-1.36,2.07,5.634,5.634,0,0,1-1.608,1.111,6.211,6.211,0,0,1-.723.287c-.228.062-.435.115-.621.157l-.5.073c-.142.017-.263.014-.359.021-.193.008-.29.01-.29.01" transform="translate(-104.245 -92.95)" fill="#263238"/>
        <path id="Trazado_601795" data-name="Trazado 601795" d="M186,167.4a1.518,1.518,0,1,1-1.518-1.518A1.518,1.518,0,0,1,186,167.4" transform="translate(-113.285 -102.708)" fill="#fff"/>
        <path id="Trazado_601796" data-name="Trazado 601796" d="M197.95,167.4a1.518,1.518,0,1,1-1.518-1.518,1.518,1.518,0,0,1,1.518,1.518" transform="translate(-120.685 -102.708)" fill="#fff"/>
        <path id="Trazado_601797" data-name="Trazado 601797" d="M209.9,167.4a1.518,1.518,0,1,1-1.518-1.518A1.518,1.518,0,0,1,209.9,167.4" transform="translate(-128.086 -102.708)" fill="#fff"/>
        <path id="Trazado_601798" data-name="Trazado 601798" d="M306.729,274.923h-95.29a1.7,1.7,0,0,1-1.7-1.7v-66.8a1.7,1.7,0,0,1,1.7-1.7h95.29a1.7,1.7,0,0,1,1.7,1.7v66.8a1.7,1.7,0,0,1-1.7,1.7" transform="translate(-129.866 -126.761)" fill="#f5f5f5"/>
        <path id="Trazado_601799" data-name="Trazado 601799" d="M230.687,319.894l24.088-34.284a2.728,2.728,0,0,1,4.355-.144l16.553,20.525a2.728,2.728,0,0,0,4.012.255l9.7-9.311a2.728,2.728,0,0,1,3.975.21L312.375,319.7a2.728,2.728,0,0,1-2.086,4.485h-77.37a2.728,2.728,0,0,1-2.232-4.3" transform="translate(-142.525 -176.124)" fill="#ebebeb"/>
        <path id="Trazado_601800" data-name="Trazado 601800" d="M348.668,249.371a8.389,8.389,0,1,1-6.958-6.958,8.395,8.395,0,0,1,6.958,6.958" transform="translate(-205.565 -150.033)" fill="#ebebeb"/>
        <path id="Trazado_601801" data-name="Trazado 601801" d="M140.386,298.893s1.136-1.249-.7-1.606-11.178-.192-14.5.884l-4.5.766.79,7.4,2.813-.648,6.712,1.016c.772.117,3.13-.868,1.265-2.1,0,0,2.216-1.085.54-2.523,0,0,1.63-.858.308-2.558Z" transform="translate(-74.721 -183.966)" fill="#ffc09d"/>
        <path id="Trazado_601802" data-name="Trazado 601802" d="M118.419,300.957l1.747-.141-.195,7.94-1.7.352Z" transform="translate(-73.229 -186.257)" fill="#ebebeb"/>
        <path id="Trazado_601803" data-name="Trazado 601803" d="M52.611,227.941s-4.263,1.466-5.148,7.314c-.964,6.369,1.549,17.475,1.654,21.5.078,2.975,2.03,9.831,8.379,9.594a99.387,99.387,0,0,0,17.05-2.274l-.029-8.338-15.1.01-1.5-14.15" transform="translate(-29.251 -141.135)" fill="#ef8b53"/>
        <path id="Trazado_601804" data-name="Trazado 601804" d="M57.817,241.6s.016.083.036.246.05.412.087.726l.316,2.8c.267,2.444.652,5.979,1.131,10.37l-.07-.063,15.1-.032h.092v.092c.011,2.646.022,5.441.035,8.338v.079l-.076.017a101.9,101.9,0,0,1-12.208,1.948c-1.722.162-3.424.282-5.113.332a7.4,7.4,0,0,1-2.494-.391,6.875,6.875,0,0,1-2.156-1.237A9.764,9.764,0,0,1,49.8,260.86a13.222,13.222,0,0,1-.9-4.514c-.091-1.486-.305-2.932-.494-4.336l-.565-4.087c-.346-2.64-.624-5.108-.72-7.373a24.955,24.955,0,0,1,.34-6.1,5.218,5.218,0,0,1,.163-.645c.063-.209.115-.416.184-.615a10.919,10.919,0,0,1,.467-1.116,9.152,9.152,0,0,1,1.123-1.788,8.291,8.291,0,0,1,2.194-1.911,5.758,5.758,0,0,1,.675-.347,1.888,1.888,0,0,1,.243-.09s-.08.035-.234.109a6.617,6.617,0,0,0-.663.364,8.452,8.452,0,0,0-2.154,1.925,9.147,9.147,0,0,0-1.1,1.78,10.92,10.92,0,0,0-.454,1.108c-.066.2-.117.4-.178.61a5.277,5.277,0,0,0-.158.639,25.054,25.054,0,0,0-.308,6.068c.105,2.258.391,4.721.744,7.357l.575,4.084c.192,1.405.409,2.849.5,4.351a13.041,13.041,0,0,0,.9,4.453,9.582,9.582,0,0,0,2.642,3.883,6.685,6.685,0,0,0,2.094,1.2,7.22,7.22,0,0,0,2.427.379c1.673-.05,3.379-.171,5.1-.332a102.758,102.758,0,0,0,12.182-1.937l-.075.1c-.008-2.9-.016-5.691-.023-8.338l.092.092-15.1-.011h-.064l-.006-.063c-.452-4.395-.816-7.931-1.067-10.377-.121-1.215-.214-2.157-.278-2.8-.029-.315-.051-.557-.067-.728s-.016-.248-.016-.248" transform="translate(-29.151 -141.135)" fill="#263238"/>
        <path id="Trazado_601805" data-name="Trazado 601805" d="M75.005,304.955a4.744,4.744,0,0,1,1.574-3.993,7.57,7.57,0,0,0-1.574,3.993" transform="translate(-46.413 -186.346)" fill="#263238"/>
        <path id="Trazado_601806" data-name="Trazado 601806" d="M66.433,241.908a8.05,8.05,0,0,1-.272-1.005,16.03,16.03,0,0,0-1.984-4.565,7.984,7.984,0,0,1-.549-.884,4.014,4.014,0,0,1,.668.805,12.485,12.485,0,0,1,2,4.611,4.012,4.012,0,0,1,.133,1.038" transform="translate(-39.396 -145.786)" fill="#263238"/>
        <path id="Trazado_601807" data-name="Trazado 601807" d="M328.59,69.812,322.362,47c-1.365-5.725-5.833-9.7-11.519-8.18l-.517.171a10.521,10.521,0,0,0-6.914,12.482c1.21,4.956,2.611,10.415,3.5,12.994,1.842,5.338,7.48,4.4,7.48,4.4s.978,3.291,1.431,4.885l-.209,4.087,4.153-2.365Z" transform="translate(-187.678 -23.834)" fill="#ae7461"/>
        <path id="Trazado_601808" data-name="Trazado 601808" d="M332.74,111.124a13.643,13.643,0,0,0,6.3-4.376s-.344,4.587-5.853,5.877Z" transform="translate(-206.023 -66.095)" fill="#6f4439"/>
        <path id="Trazado_601809" data-name="Trazado 601809" d="M313.3,83.153a.807.807,0,0,0,.994.528.771.771,0,0,0,.56-.952.806.806,0,0,0-.993-.529.772.772,0,0,0-.561.952" transform="translate(-193.967 -50.878)" fill="#263238"/>
        <path id="Trazado_601810" data-name="Trazado 601810" d="M308.908,75.5c.128.068.566-.553,1.39-.824s1.564-.059,1.62-.19c.029-.059-.128-.208-.454-.312a2.217,2.217,0,0,0-1.339.028,2.128,2.128,0,0,0-1.065.781c-.189.278-.215.487-.153.516" transform="translate(-191.249 -45.872)" fill="#263238"/>
        <path id="Trazado_601811" data-name="Trazado 601811" d="M331.442,77.293a.806.806,0,0,0,.994.527.771.771,0,0,0,.561-.951A.807.807,0,0,0,332,76.34a.772.772,0,0,0-.561.952" transform="translate(-205.201 -47.249)" fill="#263238"/>
        <path id="Trazado_601812" data-name="Trazado 601812" d="M330.278,68.976c.128.069.567-.553,1.391-.824s1.564-.059,1.62-.19c.029-.059-.126-.207-.454-.312a2.212,2.212,0,0,0-1.338.028,2.129,2.129,0,0,0-1.065.78c-.188.278-.215.487-.153.516" transform="translate(-204.481 -41.832)" fill="#263238"/>
        <path id="Trazado_601813" data-name="Trazado 601813" d="M324.259,79.107a5.754,5.754,0,0,0-1.418.2c-.218.048-.431.072-.514-.059a1.132,1.132,0,0,1-.066-.67q.044-.861.091-1.808a29.019,29.019,0,0,0,.009-4.653,29.049,29.049,0,0,0-.383,4.641c-.022.632-.043,1.233-.062,1.809a1.286,1.286,0,0,0,.165.862.556.556,0,0,0,.448.193,1.5,1.5,0,0,0,.374-.069,5.635,5.635,0,0,0,1.357-.447" transform="translate(-199.319 -44.654)" fill="#263238"/>
        <path id="Trazado_601814" data-name="Trazado 601814" d="M327.335,61.977c.182.173.908-.313,1.874-.656.96-.363,1.828-.462,1.854-.711.009-.118-.218-.252-.617-.309a3.451,3.451,0,0,0-2.84,1.042c-.268.3-.354.551-.271.635" transform="translate(-202.658 -37.322)" fill="#263238"/>
        <path id="Trazado_601815" data-name="Trazado 601815" d="M306.657,68.98c.231.134.844-.273,1.651-.538.8-.288,1.536-.345,1.633-.591.039-.117-.128-.272-.484-.355a2.736,2.736,0,0,0-1.444.116,2.688,2.688,0,0,0-1.2.794c-.225.283-.259.507-.154.574" transform="translate(-189.839 -41.76)" fill="#263238"/>
        <path id="Trazado_601816" data-name="Trazado 601816" d="M355.966,70.441c.078-.07,3.322-2.31,4.419,1.394s-2.847,4.041-2.885,3.937-1.534-5.331-1.534-5.331" transform="translate(-220.404 -43.16)" fill="#ae7461"/>
        <path id="Trazado_601817" data-name="Trazado 601817" d="M361.03,75.925c.013-.017.078.026.2.044a.675.675,0,0,0,.485-.133,1.666,1.666,0,0,0,.314-1.651,2.217,2.217,0,0,0-.454-.87.776.776,0,0,0-.632-.352.342.342,0,0,0-.329.29c-.019.118.027.185.009.2s-.1-.038-.113-.2a.431.431,0,0,1,.077-.275.506.506,0,0,1,.329-.2.947.947,0,0,1,.844.374,2.285,2.285,0,0,1,.529.966,1.747,1.747,0,0,1-.467,1.878.721.721,0,0,1-.619.077c-.142-.057-.186-.134-.175-.145" transform="translate(-223.219 -45.052)" fill="#6f4439"/>
        <path id="Trazado_601818" data-name="Trazado 601818" d="M332.215,89.854c-.13.029.108.883-.452,1.694s-1.5.973-1.469,1.095c0,.057.249.109.637.011a2.211,2.211,0,0,0,1.24-.866,1.924,1.924,0,0,0,.324-1.405c-.068-.366-.223-.551-.279-.53" transform="translate(-204.509 -55.634)" fill="#263238"/>
        <path id="Trazado_601819" data-name="Trazado 601819" d="M280.551,42.876a.915.915,0,0,1,.259-.635,2.82,2.82,0,0,1,1.317-.638,8.134,8.134,0,0,0,3.133-1.861,4.036,4.036,0,0,1-1.2-.4,2.424,2.424,0,0,1-1.358-2.111.537.537,0,0,1,.184-.441c.219-.146.5.028.723.165a2.086,2.086,0,0,0,2.12.235,3.426,3.426,0,0,0,1.283-.836c.011-.021.02-.044.031-.065.133-.256.265-.5.395-.741v0h0a12.782,12.782,0,0,1,2.977-3.975,13.127,13.127,0,0,1,6.556-2.532,5.3,5.3,0,0,1,5.019,2.808,4.078,4.078,0,0,1,3.82-1.542l.028-.024c1.585.083,2.852,1.354,3.711,2.69.047.073.091.148.137.222a5.936,5.936,0,0,0,2.491,1.308c.163.039.351.091.415.245a.483.483,0,0,1-.132.455,2.984,2.984,0,0,1-1.016.828,6.677,6.677,0,0,0,.776.865c.244.226.534.5.478.824a.631.631,0,0,1-.551.465,1.845,1.845,0,0,1-.757-.1l.822,1.005a3.54,3.54,0,0,1-1.59.361c.1,1.457.63,4.057.554,5.089a5.876,5.876,0,0,0-1.694.587c-.577.4.006,1.466-.925,1.392-.473-.037-1.606-1.452-1.877-1.842A22.061,22.061,0,0,1,303.092,36a7.1,7.1,0,0,0-2.55-.888l.081.039c-1.67-.074-3.536-.08-4.76,1.059-.949.884-1.259,2.235-1.817,3.406a8.085,8.085,0,0,1-4.887,4.489c.275,1.7,1.01,4.389,1.386,5.937l-2.213-2.664,0,.013c-.158-.147-.3-.3-.437-.457l-.045-.046,0-.007a9.968,9.968,0,0,0-.688-.739l-.011.017a.994.994,0,0,1-1.772-.858,2.247,2.247,0,0,1,.322-.6,1.572,1.572,0,0,1-1.325.8,1.234,1.234,0,0,1-1.185-.92,1.049,1.049,0,0,1,.358-.986,3.544,3.544,0,0,1-2.059.151c-.446-.1-.927-.35-.941-.868" transform="translate(-173.709 -17.977)" fill="#263238"/>
        <path id="Trazado_601820" data-name="Trazado 601820" d="M332.849,39.385a4.925,4.925,0,0,1,.692.335,4.055,4.055,0,0,1,1.368,1.55,7.115,7.115,0,0,1,.55,1.336c.151.5.27,1.044.4,1.619a14.916,14.916,0,0,0,.49,1.788,6.474,6.474,0,0,0,.4.9,2.034,2.034,0,0,0,.654.795.852.852,0,0,0,.841.029,1.268,1.268,0,0,0,.572-.594,2.929,2.929,0,0,0,.111-1.533l-.11.048a4.74,4.74,0,0,0,1,.938,1.686,1.686,0,0,0,1.225.259,1.087,1.087,0,0,0,.529-.265.942.942,0,0,0,.268-.487.966.966,0,0,0-.029-.514.7.7,0,0,0-.3-.369l-.042.069a3.64,3.64,0,0,0,1.424.526,3.314,3.314,0,0,0,.4.033.615.615,0,0,0,.139-.007.721.721,0,0,0-.138-.016c-.09-.009-.225-.022-.4-.053a3.754,3.754,0,0,1-1.388-.551l-.042.069a.725.725,0,0,1,.276.794.844.844,0,0,1-.245.433.985.985,0,0,1-.481.233,1.577,1.577,0,0,1-1.141-.253,4.66,4.66,0,0,1-.966-.921l-.13-.15.02.2a2.831,2.831,0,0,1-.1,1.464,1.14,1.14,0,0,1-.512.531.719.719,0,0,1-.715-.024,1.929,1.929,0,0,1-.607-.745,6.456,6.456,0,0,1-.4-.882,15.138,15.138,0,0,1-.492-1.771c-.133-.573-.257-1.121-.414-1.624a7.094,7.094,0,0,0-.572-1.348,4,4,0,0,0-1.423-1.549,2.292,2.292,0,0,0-.719-.291" transform="translate(-206.091 -24.386)" fill="#455a64"/>
        <path id="Trazado_601821" data-name="Trazado 601821" d="M292.976,46.026a.205.205,0,0,0,.054.024l.165.058a1.885,1.885,0,0,0,.273.079,3.057,3.057,0,0,0,.381.075,5.016,5.016,0,0,0,2.443-.275A6.407,6.407,0,0,0,299.2,43.8a11.1,11.1,0,0,0,1.842-4.076c.2-.773.318-1.542.487-2.269a7.5,7.5,0,0,1,.718-2.01,3.862,3.862,0,0,1,1.278-1.414,2.769,2.769,0,0,1,.795-.34,3.046,3.046,0,0,1,.8-.08,3.275,3.275,0,0,1,2.181.953,3.889,3.889,0,0,1,.522.729.179.179,0,0,0-.021-.056l-.075-.158a2.826,2.826,0,0,0-.388-.55,3.219,3.219,0,0,0-.852-.641,3.308,3.308,0,0,0-1.362-.371,3.127,3.127,0,0,0-.825.075,2.848,2.848,0,0,0-.829.347,3.947,3.947,0,0,0-1.326,1.446,7.553,7.553,0,0,0-.738,2.041c-.172.732-.293,1.5-.489,2.266a11.106,11.106,0,0,1-1.811,4.034,6.365,6.365,0,0,1-2.844,2.169,5.092,5.092,0,0,1-2.4.312,7.963,7.963,0,0,1-.881-.185" transform="translate(-181.403 -20.754)" fill="#455a64"/>
        <path id="Trazado_601822" data-name="Trazado 601822" d="M289.816,58.008a.855.855,0,0,0,.235.077,4.347,4.347,0,0,0,.663.12,5.832,5.832,0,0,0,1,.027,6.148,6.148,0,0,0,2.36-.623,5.858,5.858,0,0,0,.857-.518,4.34,4.34,0,0,0,.516-.431c.113-.112.173-.176.166-.183s-.27.225-.736.538a6.653,6.653,0,0,1-.856.484,6.588,6.588,0,0,1-2.315.611,6.71,6.71,0,0,1-.983,0c-.559-.042-.9-.129-.906-.1" transform="translate(-179.446 -34.969)" fill="#455a64"/>
        <path id="Trazado_601823" data-name="Trazado 601823" d="M294.978,127.689s-.551-1.558,1.32-3.656,13.633-6.525,13.633-6.525,4.363,4.249,9.3,1.563c3.843-2.091,3.545-5.368,3.545-5.368l14.947,2.5.508,11.294-5.356.031Z" transform="translate(-182.595 -70.402)" fill="#f7e9e1"/>
        <path id="Trazado_601824" data-name="Trazado 601824" d="M363.426,167.655l18.438-5.782-6.022-14.59,11.626.222s8.39,16.369,5.216,21.147C389.793,173,366,173.882,366,173.882Z" transform="translate(-225.023 -91.194)" fill="#ae7461"/>
        <path id="Trazado_601825" data-name="Trazado 601825" d="M342.775,221.384l-.078.995a1.7,1.7,0,0,1-2.161,1.258l-18.881-1.912.347-2.989,19.063.657c1.267-.01,1.8.848,1.71,1.991" transform="translate(-199.16 -135.435)" fill="#455a64"/>
        <path id="Trazado_601826" data-name="Trazado 601826" d="M277.458,211.744a11.6,11.6,0,1,1,7.016-7.952,11.534,11.534,0,0,1-7.016,7.952m-8.178-20.872a10.815,10.815,0,1,0,6.6-.419,10.817,10.817,0,0,0-6.6.419" transform="translate(-161.989 -117.237)" fill="#263238"/>
        <path id="Trazado_601827" data-name="Trazado 601827" d="M277.284,209.931a11.595,11.595,0,1,1,7.016-7.952,11.534,11.534,0,0,1-7.016,7.952m-8.178-20.872a10.815,10.815,0,1,0,6.6-.419,10.817,10.817,0,0,0-6.6.419" transform="translate(-161.881 -116.114)" fill="#455a64"/>
        <path id="Trazado_601828" data-name="Trazado 601828" d="M283.081,195.026a1.123,1.123,0,0,1-.155-.111c-.1-.071-.236-.2-.436-.326a8.3,8.3,0,0,0-1.762-.936,10.368,10.368,0,0,0-1.315-.414,11.21,11.21,0,0,0-1.563-.248,10.742,10.742,0,0,0-1.748-.016,10.279,10.279,0,0,0-1.853.289,9.541,9.541,0,0,0-1.761.639,10.32,10.32,0,0,0-1.493.905,9.836,9.836,0,0,0-2.083,2.092,9.424,9.424,0,0,0-1.007,1.725c-.105.212-.16.388-.212.5a1.154,1.154,0,0,1-.079.174,1.052,1.052,0,0,1,.055-.183c.044-.117.092-.3.191-.513a8.794,8.794,0,0,1,.98-1.757,9.693,9.693,0,0,1,2.086-2.132,10.221,10.221,0,0,1,1.508-.923,9.548,9.548,0,0,1,1.784-.65,10.257,10.257,0,0,1,1.874-.29,10.608,10.608,0,0,1,1.766.024,11.053,11.053,0,0,1,1.577.261,10.171,10.171,0,0,1,1.324.433,7.819,7.819,0,0,1,1.758.979,4.964,4.964,0,0,1,.424.346,1.052,1.052,0,0,1,.139.13" transform="translate(-165.699 -119.394)" fill="#fff"/>
        <path id="Trazado_601829" data-name="Trazado 601829" d="M307.433,224.85c-.017-.024.47-.311,1.128-.928l.254-.246c.087-.086.168-.185.258-.283.183-.192.351-.42.534-.654a9,9,0,0,0,1.563-3.508c.052-.293.11-.57.13-.834.012-.132.032-.259.037-.381s.009-.24.013-.353c.018-.9-.094-1.455-.065-1.459a2.494,2.494,0,0,1,.075.387,3.428,3.428,0,0,1,.053.46,5.575,5.575,0,0,1,.024.613q0,.171,0,.357c0,.125-.021.253-.031.386a8.174,8.174,0,0,1-.12.847,8.728,8.728,0,0,1-1.583,3.553,8.335,8.335,0,0,1-.549.655c-.093.1-.176.2-.267.281l-.262.243a5.594,5.594,0,0,1-.473.392,3.433,3.433,0,0,1-.377.268,2.4,2.4,0,0,1-.338.2" transform="translate(-190.354 -133.868)" fill="#fff"/>
        <path id="Trazado_601830" data-name="Trazado 601830" d="M290.031,210.332c0,.034-2.125.254-4.753.49s-4.761.4-4.765.366,2.125-.253,4.753-.49,4.761-.4,4.764-.366" transform="translate(-173.686 -130.229)" fill="#fff"/>
        <path id="Trazado_601831" data-name="Trazado 601831" d="M284.248,219a.728.728,0,0,1-.153.018l-.439.026-1.615.081c-1.364.067-3.248.164-5.328.294s-3.962.269-5.324.374l-1.613.121-.439.029a.737.737,0,0,1-.154,0,.724.724,0,0,1,.152-.027l.437-.051c.38-.043.93-.1,1.61-.161,1.36-.127,3.242-.279,5.324-.41s3.967-.214,5.332-.258c.683-.022,1.236-.036,1.618-.041l.44,0a.709.709,0,0,1,.154.007" transform="translate(-166.67 -135.592)" fill="#fff"/>
        <g id="Grupo_878554" data-name="Grupo 878554" transform="translate(100.395 80.488)" opacity="0.3">
          <g id="Grupo_878553" data-name="Grupo 878553">
            <g id="Grupo_878552" data-name="Grupo 878552" clip-path="url(#clip-path-5)">
              <path id="Trazado_601832" data-name="Trazado 601832" d="M263.815,212.65l20.99-1.3a11.238,11.238,0,0,1,.4,3.174l-21.46,1.305a8.313,8.313,0,0,1,.067-3.179" transform="translate(-263.623 -211.35)" fill="#fff"/>
            </g>
          </g>
        </g>
        <g id="Grupo_878557" data-name="Grupo 878557" transform="translate(101.132 85.673)" opacity="0.3">
          <g id="Grupo_878556" data-name="Grupo 878556">
            <g id="Grupo_878555" data-name="Grupo 878555" clip-path="url(#clip-path-6)">
              <path id="Trazado_601833" data-name="Trazado 601833" d="M265.559,226.334l20.533-1.369s.137-.056-.283.847L265.9,227.123a1.924,1.924,0,0,1-.344-.789" transform="translate(-265.559 -224.965)" fill="#fff"/>
            </g>
          </g>
        </g>
        <path id="Trazado_601834" data-name="Trazado 601834" d="M338.351,200.776s-10.574,3.069-10.875,3.242-4.466,3.138-4.544,4.209,1.325,5.864,1.325,5.864,1.427.2,1.532-2.356l.105-2.561,1.755-1.572a17.826,17.826,0,0,0-.484,3.8c.164.837,1.555,2.953,2.333,2.786a2.265,2.265,0,0,0,1.205-.7,1.7,1.7,0,0,0,2.668.777,3.152,3.152,0,0,0,2.323.028,6.393,6.393,0,0,0,1.946-2.17.887.887,0,0,0-1-.971,4.066,4.066,0,0,0-2.04.8l-.1-1.074a12.369,12.369,0,0,1,2.6-2.353c.835-.5,4.3-.582,5.373-1.676.912-.927-.81-2.971-1.952-3.591a1.973,1.973,0,0,0-.549-.2Z" transform="translate(-199.948 -124.315)" fill="#ae7461"/>
        <path id="Trazado_601835" data-name="Trazado 601835" d="M346.837,223.176a.766.766,0,0,0-.116.188,3.423,3.423,0,0,0-.225.558,3.869,3.869,0,0,0,.82,3.728,3.393,3.393,0,0,0,.438.412.762.762,0,0,0,.184.122c.013-.016-.242-.2-.563-.585a4.022,4.022,0,0,1-.8-3.657c.13-.483.284-.758.266-.767" transform="translate(-214.435 -138.184)" fill="#6f4439"/>
        <path id="Trazado_601836" data-name="Trazado 601836" d="M341.331,219.2a.986.986,0,0,0-.121.2,2.163,2.163,0,0,0-.12.249,3.645,3.645,0,0,0-.136.341,5.412,5.412,0,0,0-.237.926,5.666,5.666,0,0,0,.106,2.327,5.376,5.376,0,0,0,.32.9c.052.126.115.232.166.327a2.246,2.246,0,0,0,.142.238.967.967,0,0,0,.139.19c.019-.011-.168-.291-.376-.786a5.986,5.986,0,0,1-.293-.894,6.55,6.55,0,0,1-.163-1.139,7.722,7.722,0,0,1,.018-1.226,4.688,4.688,0,0,1,.251-.84c.163-.512.323-.808.3-.817" transform="translate(-210.918 -135.726)" fill="#6f4439"/>
        <path id="Trazado_601837" data-name="Trazado 601837" d="M335.924,213.985c-.008-.009-.111.06-.236.215a1.718,1.718,0,0,0-.325.7,1.442,1.442,0,0,0,.013.772.628.628,0,0,0,.128.292,2.182,2.182,0,0,1,.42-1.98" transform="translate(-207.62 -132.493)" fill="#6f4439"/>
        <path id="Trazado_601838" data-name="Trazado 601838" d="M417.029,187.832c-.032.016-.219-.417-.684-1a5.74,5.74,0,0,0-2.293-1.726,4.892,4.892,0,0,0-2.844-.219c-.732.151-1.165.337-1.177.3a.987.987,0,0,1,.293-.155,5.516,5.516,0,0,1,.854-.286,4.722,4.722,0,0,1,2.948.172,5.446,5.446,0,0,1,2.33,1.823,4.627,4.627,0,0,1,.461.775.965.965,0,0,1,.112.312" transform="translate(-253.879 -114.295)" fill="#6f4439"/>
        <path id="Trazado_601839" data-name="Trazado 601839" d="M389.154,126.755a6.345,6.345,0,0,1,11.446-3.9l.061.086c3.393,4.833,7.493,16.259,7.493,16.259l-14.526,2.256L390,131.541a18.479,18.479,0,0,1-.849-4.786" transform="translate(-240.952 -74.464)" fill="#f7e9e1"/>
        <path id="Trazado_601840" data-name="Trazado 601840" d="M269.841,145.346c.023.052.045.1.064.158a2.783,2.783,0,0,1,.154.757,2.527,2.527,0,0,0,.017.365,1.4,1.4,0,0,0,.1.215,3.669,3.669,0,0,1,.133,1.508,2.893,2.893,0,0,0,.279,1.616,1.066,1.066,0,0,0,1.419.438.726.726,0,0,0,.543.792,1.049,1.049,0,0,0,.967-.3,1.954,1.954,0,0,0,.485-.926.8.8,0,0,0,.8.775,1.235,1.235,0,0,0,1.014-.622,2.838,2.838,0,0,0,.349-1.183,14.092,14.092,0,0,1,.251-1.584s.521.083.757.106l.07.007a9.655,9.655,0,0,0,.5-.864c.332-.682.585-1.115.838-1.735.19-.464.313-.928.026-1.23-.691-.727-2.042.751-2.042.751-.191-.515-1.761-.6-2.067.087-.124-.377-.077-.6-.383-.85a1.266,1.266,0,0,0-1.113-.28.906.906,0,0,0-.676.872,1.491,1.491,0,0,0-2.7.446.593.593,0,0,0-.037.205.249.249,0,0,0,.032.09c.07.132.162.248.224.386" transform="translate(-166.919 -88.734)" fill="#ae7461"/>
        <path id="Trazado_601841" data-name="Trazado 601841" d="M263.883,146.018a1.189,1.189,0,0,0-.942.313,1.948,1.948,0,0,0-.294,1.306c.474.09.719.107,1.193.2.1.019.184-.006.266.053.219.155.183.678.271.931a.912.912,0,0,0,1.152.492,1.223,1.223,0,0,0,.739-1.09,1.89,1.89,0,0,0-.482-1.275,2.64,2.64,0,0,0-1.9-.928" transform="translate(-162.619 -90.409)" fill="#ae7461"/>
        <path id="Trazado_601842" data-name="Trazado 601842" d="M276.166,145.335a15.694,15.694,0,0,1,0,3.168,15.681,15.681,0,0,1-.322,3.151,15.7,15.7,0,0,1,0-3.168,15.69,15.69,0,0,1,.322-3.151" transform="translate(-170.753 -89.987)" fill="#6f4439"/>
        <path id="Trazado_601843" data-name="Trazado 601843" d="M281.682,146.124a13.438,13.438,0,0,1-.491,5.7,23.314,23.314,0,0,1,.232-2.85,23.422,23.422,0,0,1,.259-2.847" transform="translate(-174.091 -90.476)" fill="#6f4439"/>
        <path id="Trazado_601844" data-name="Trazado 601844" d="M287.241,146.89a6.676,6.676,0,0,1-.039,2.375,9.3,9.3,0,0,1-.45,2.328,8.385,8.385,0,0,1,.131-2.366,13.12,13.12,0,0,1,.358-2.336" transform="translate(-177.522 -90.95)" fill="#6f4439"/>
        <path id="Trazado_601845" data-name="Trazado 601845" d="M267.7,146.537c0-.038.227-.089.555.061a1.779,1.779,0,0,1,.871,1.019,3.568,3.568,0,0,1,.216,1.3c-.039.393-.324.507-.33.456-.025-.036.129-.171.1-.463a6.405,6.405,0,0,0-.29-1.184,1.936,1.936,0,0,0-.683-.936c-.247-.174-.447-.209-.442-.258" transform="translate(-165.752 -90.707)" fill="#6f4439"/>
        <path id="Trazado_601846" data-name="Trazado 601846" d="M398.041,121.385a16.525,16.525,0,0,0-1.561.653,7.79,7.79,0,0,0-4.233,6.5,16.532,16.532,0,0,0,.035,1.691,1.768,1.768,0,0,1-.1-.447,6.751,6.751,0,0,1-.072-1.251,7.573,7.573,0,0,1,4.31-6.623,6.731,6.731,0,0,1,1.173-.44,1.767,1.767,0,0,1,.451-.087" transform="translate(-242.78 -75.156)" fill="#263238"/>
        <path id="Trazado_601847" data-name="Trazado 601847" d="M164.4,230.408c-.348-.123-.553-.083-.783-.372a1.176,1.176,0,0,1-.238-1.04.843.843,0,0,1,.824-.61,1.386,1.386,0,0,1,.468-2.5.547.547,0,0,1,.191-.03.223.223,0,0,1,.083.032c.121.068.227.155.354.216.048.023.1.043.145.063a2.586,2.586,0,0,0,.7.158,2.28,2.28,0,0,1,.339.023,1.252,1.252,0,0,1,.2.1,3.414,3.414,0,0,0,1.4.154,2.684,2.684,0,0,1,1.5.291.99.99,0,0,1,.379,1.328.675.675,0,0,1,.725.52.976.976,0,0,1-.3.893,1.819,1.819,0,0,1-.871.432.745.745,0,0,1,.7.757,1.145,1.145,0,0,1-.6.93,2.627,2.627,0,0,1-1.106.3c-.383.036-1.6.211-1.973.3l-1.415.019a1.142,1.142,0,0,1-1.089-1.58.73.73,0,0,1,.364-.381" transform="translate(-101.138 -139.84)" fill="#ffc09d"/>
        <path id="Trazado_601848" data-name="Trazado 601848" d="M166.129,220.557a1.105,1.105,0,0,1,.31-.869.947.947,0,0,1,.852-.257,7.323,7.323,0,0,0,.417,1.148,1.36,1.36,0,0,0,.154.222c.14.206.626.184.86.27a.847.847,0,0,1,.435,1.08.779.779,0,0,1-.825.554,2.6,2.6,0,0,1-1.468-.5,2.087,2.087,0,0,1-.734-1.651" transform="translate(-102.862 -135.859)" fill="#ffc09d"/>
        <path id="Trazado_601849" data-name="Trazado 601849" d="M165.278,232.2c0,.037,1.318.027,2.941-.021s2.939-.117,2.938-.153-1.318-.027-2.942.021-2.938.117-2.937.153" transform="translate(-102.336 -143.647)" fill="#ff9b6c"/>
        <path id="Trazado_601850" data-name="Trazado 601850" d="M165.9,237.279a3.925,3.925,0,0,0,.779.064c.483.017,1.15.014,1.886-.033s1.4-.131,1.875-.21a3.912,3.912,0,0,0,.764-.164,5.4,5.4,0,0,0-.777.072c-.478.055-1.139.123-1.871.17s-1.4.064-1.877.072a5.363,5.363,0,0,0-.78.029" transform="translate(-102.718 -146.702)" fill="#ff9b6c"/>
        <path id="Trazado_601851" data-name="Trazado 601851" d="M167.707,242.532a4.058,4.058,0,0,0,.575-.013c.356-.02.848-.061,1.39-.118s1.031-.117,1.385-.161a4.993,4.993,0,0,0,.572-.084,4.476,4.476,0,0,0-.576.035c-.355.032-.845.083-1.386.141s-1.029.106-1.384.138a5.64,5.64,0,0,0-.575.062" transform="translate(-103.84 -149.935)" fill="#ff9b6c"/>
        <path id="Trazado_601852" data-name="Trazado 601852" d="M166.615,224.084a.719.719,0,0,0,.1.489,1.675,1.675,0,0,0,.909.781,3.509,3.509,0,0,0,.637.181,2.584,2.584,0,0,0,.539.065.572.572,0,0,0,.354-.125c.069-.06.083-.11.077-.114a.639.639,0,0,1-.432.145,3.149,3.149,0,0,1-.513-.091,4.108,4.108,0,0,1-.613-.184,1.732,1.732,0,0,1-.877-.7,2.894,2.894,0,0,1-.179-.444" transform="translate(-103.156 -138.747)" fill="#ff9b6c"/>
      </g>
    </g>
    <g id="Grupo_878567" data-name="Grupo 878567" transform="translate(1141.113 6646.4)">
      <g id="Grupo_878566" data-name="Grupo 878566" clip-path="url(#clip-path)">
        <path id="Trazado_601853" data-name="Trazado 601853" d="M480.418,114.118H450.237a2.25,2.25,0,0,1-2.25-2.25V84.795a2.25,2.25,0,0,1,2.25-2.25h30.181a2.25,2.25,0,0,1,2.25,2.25v27.073a2.25,2.25,0,0,1-2.25,2.25" transform="translate(-277.381 -51.11)" fill="#fff"/>
        <path id="Trazado_601854" data-name="Trazado 601854" d="M482.668,87.917H447.987V84.856a2.312,2.312,0,0,1,2.312-2.312h30.24a2.129,2.129,0,0,1,2.129,2.129Z" transform="translate(-277.381 -51.109)" fill="#e0e0e0"/>
        <path id="Trazado_601855" data-name="Trazado 601855" d="M458.335,89.677a.852.852,0,1,1-.85-.8.826.826,0,0,1,.85.8" transform="translate(-282.736 -55.03)" fill="#fff"/>
        <path id="Trazado_601856" data-name="Trazado 601856" d="M464.419,89.677a.852.852,0,1,1-.85-.8.826.826,0,0,1,.85.8" transform="translate(-286.503 -55.03)" fill="#fff"/>
        <path id="Trazado_601857" data-name="Trazado 601857" d="M470.5,89.677a.852.852,0,1,1-.85-.8.826.826,0,0,1,.85.8" transform="translate(-290.27 -55.03)" fill="#fff"/>
        <path id="Trazado_601858" data-name="Trazado 601858" d="M480.256,113.957c0-.008.113,0,.329-.037a2.238,2.238,0,0,0,1.8-1.589,3.233,3.233,0,0,0,.086-.994q0-.541,0-1.152c-.008-3.26-.018-7.968-.032-13.785,0-2.91-.008-6.1-.012-9.519q0-.641,0-1.294,0-.326,0-.655a3.71,3.71,0,0,0-.031-.645,2.171,2.171,0,0,0-1.678-1.767,8.56,8.56,0,0,0-1.355-.048h-1.4l-2.849,0-25.034.008a2.158,2.158,0,0,0-2.143,1.935c-.022,1.076-.006,2.18-.011,3.257q0,3.244,0,6.387c0,4.188,0,8.227-.006,12.075q0,2.885,0,5.621a2.169,2.169,0,0,0,1.419,1.981,3.369,3.369,0,0,0,1.27.134H451.9l9.52.012,13.784.032,3.748.018.975.01c.22,0,.332.01.332.01s-.112.007-.332.01l-.975.01L475.2,114l-13.784.032-9.52.012H450.6a3.522,3.522,0,0,1-1.328-.142,2.341,2.341,0,0,1-1.536-2.136q0-2.735-.007-5.625c0-3.848,0-7.887-.006-12.075q0-3.141,0-6.387c.005-1.085-.012-2.161.011-3.277a2.356,2.356,0,0,1,2.34-2.114l25.034.008,2.849,0h2.087a3.222,3.222,0,0,1,.7.054,2.344,2.344,0,0,1,1.809,1.911,3.877,3.877,0,0,1,.032.672q0,.329,0,.655,0,.652,0,1.294c0,3.422-.008,6.609-.012,9.519-.013,5.817-.024,10.525-.032,13.785q0,.61,0,1.152a3.283,3.283,0,0,1-.1,1.011,2.276,2.276,0,0,1-.941,1.256,2.221,2.221,0,0,1-.913.337,1.627,1.627,0,0,1-.332.017" transform="translate(-277.219 -50.949)" fill="#263238"/>
        <path id="Trazado_601859" data-name="Trazado 601859" d="M482.471,124.024H456.326a1.7,1.7,0,0,1-1.7-1.7V104.709a1.7,1.7,0,0,1,1.7-1.7h26.145a1.7,1.7,0,0,1,1.7,1.7v17.618a1.7,1.7,0,0,1-1.7,1.7" transform="translate(-281.494 -63.782)" fill="#fed5b1"/>
        <g id="Grupo_878562" data-name="Grupo 878562" transform="translate(175.466 48.317)" opacity="0.3">
          <g id="Grupo_878561" data-name="Grupo 878561">
            <g id="Grupo_878560" data-name="Grupo 878560" clip-path="url(#clip-path-8)">
              <path id="Trazado_601860" data-name="Trazado 601860" d="M460.9,137.484l7.211-10.262a.816.816,0,0,1,1.3-.043l4.955,6.144a.816.816,0,0,0,1.2.077l2.9-2.787a.816.816,0,0,1,1.19.063l5.69,6.753a.817.817,0,0,1-.624,1.343h-23.16a.816.816,0,0,1-.668-1.286" transform="translate(-460.749 -126.875)" fill="#fff"/>
            </g>
          </g>
        </g>
        <g id="Grupo_878565" data-name="Grupo 878565" transform="translate(187.072 43.514)" opacity="0.3">
          <g id="Grupo_878564" data-name="Grupo 878564">
            <g id="Grupo_878563" data-name="Grupo 878563" clip-path="url(#clip-path-9)">
              <path id="Trazado_601861" data-name="Trazado 601861" d="M496.244,116.771a2.51,2.51,0,1,1-2.51-2.51,2.51,2.51,0,0,1,2.51,2.51" transform="translate(-491.224 -114.261)" fill="#fff"/>
            </g>
          </g>
        </g>
      </g>
    </g>
    <path id="Trazado_601862" data-name="Trazado 601862" d="M542.185,382.188h41.759l-4.5-15.655-37.911-.151Z" transform="translate(805.813 6419.547)" fill="#263238"/>
    <g id="Grupo_878578" data-name="Grupo 878578" transform="translate(1141.113 6646.4)">
      <g id="Grupo_878577" data-name="Grupo 878577" clip-path="url(#clip-path)">
        <path id="Trazado_601863" data-name="Trazado 601863" d="M564.5,392.484a1.484,1.484,0,0,1-.141-.365c-.076-.24-.176-.59-.287-1.025-.223-.871-.487-2.082-.764-3.422l-.707-3.431-.224-1.037a1.51,1.51,0,0,1-.067-.385,1.473,1.473,0,0,1,.141.365c.076.24.176.59.287,1.025.224.87.487,2.082.764,3.423l.707,3.43.225,1.037a1.5,1.5,0,0,1,.067.385" transform="translate(-348.164 -237.032)" fill="#455a64"/>
        <path id="Trazado_601864" data-name="Trazado 601864" d="M619.208,381.115c0,.006-.039.031-.121.072a3.932,3.932,0,0,1-.367.166,6.944,6.944,0,0,1-1.428.4,10.808,10.808,0,0,1-4.844-.388,26.994,26.994,0,0,1-4.484-1.906l-1.307-.681a2.893,2.893,0,0,1-.469-.271,2.835,2.835,0,0,1,.5.2c.318.142.773.358,1.335.625a31.617,31.617,0,0,0,4.478,1.841,11.311,11.311,0,0,0,4.766.44,12.029,12.029,0,0,0,1.938-.5" transform="translate(-375.334 -234.358)" fill="#455a64"/>
        <path id="Trazado_601865" data-name="Trazado 601865" d="M570.539,381.877a1.236,1.236,0,1,1-1.236-1.236,1.236,1.236,0,0,1,1.236,1.236" transform="translate(-351.731 -235.683)" fill="#455a64"/>
        <path id="Trazado_601866" data-name="Trazado 601866" d="M605.835,149.573a42.8,42.8,0,0,0,2.353-6.992,14.939,14.939,0,0,0-.075-7.31c-.106-.358-1.048-2.777-1.421-2.766-.267.008.262,2.239.112,2.46a12.664,12.664,0,0,0-1.936,7.267,33.341,33.341,0,0,0,.968,7.341" transform="translate(-374.516 -82.043)" fill="#263238"/>
        <path id="Trazado_601867" data-name="Trazado 601867" d="M559.428,155.091c.1-1.736.179-3.107.166-3.108s-5.911-1.018-5.888-6.944c.011-2.861.513-8.752,1.03-14.079a11.043,11.043,0,0,1,11.17-9.976l.572.01c6.159.46,9.208,5.947,8.578,12.091l-1.52,21.559-4.529,4.691a5.577,5.577,0,0,1-9.577-4.243" transform="translate(-342.839 -74.909)" fill="#ffc09d"/>
        <path id="Trazado_601868" data-name="Trazado 601868" d="M569,198.879a14.315,14.315,0,0,0,7.751-2.156S574.8,201,568.9,200.372Z" transform="translate(-352.245 -121.805)" fill="#ff9b6c"/>
        <path id="Trazado_601869" data-name="Trazado 601869" d="M560.087,159.677a.846.846,0,0,0,.8.867.81.81,0,0,0,.885-.749.847.847,0,0,0-.8-.867.81.81,0,0,0-.885.749" transform="translate(-346.79 -98.403)" fill="#263238"/>
        <path id="Trazado_601870" data-name="Trazado 601870" d="M559.61,152.278c.1.112.752-.352,1.662-.335s1.571.483,1.671.373c.05-.048-.054-.249-.341-.466a2.322,2.322,0,0,0-1.336-.435,2.228,2.228,0,0,0-1.325.4c-.283.21-.382.408-.331.459" transform="translate(-346.487 -93.752)" fill="#263238"/>
        <path id="Trazado_601871" data-name="Trazado 601871" d="M581.4,161a.846.846,0,0,0,.8.867.809.809,0,0,0,.885-.749.847.847,0,0,0-.8-.867.81.81,0,0,0-.885.749" transform="translate(-359.986 -99.221)" fill="#263238"/>
        <path id="Trazado_601872" data-name="Trazado 601872" d="M581.855,153.482c.1.112.753-.352,1.663-.335s1.57.483,1.671.374c.049-.049-.053-.249-.342-.466a2.325,2.325,0,0,0-1.335-.436,2.234,2.234,0,0,0-1.325.4c-.283.21-.381.408-.331.459" transform="translate(-360.261 -94.497)" fill="#263238"/>
        <path id="Trazado_601873" data-name="Trazado 601873" d="M570.406,160.936a6.018,6.018,0,0,0-1.474-.291c-.232-.027-.451-.077-.488-.236a1.182,1.182,0,0,1,.166-.687l.716-1.759a30.47,30.47,0,0,0,1.62-4.606,30.4,30.4,0,0,0-1.986,4.464c-.24.618-.469,1.207-.687,1.77a1.347,1.347,0,0,0-.135.911.582.582,0,0,0,.376.346,1.578,1.578,0,0,0,.394.061,5.93,5.93,0,0,0,1.5.026" transform="translate(-351.75 -94.954)" fill="#263238"/>
        <path id="Trazado_601874" data-name="Trazado 601874" d="M582.194,145.232c.126.231,1.007-.023,2.083-.058,1.075-.057,1.974.121,2.08-.12.046-.115-.137-.322-.518-.506a3.623,3.623,0,0,0-3.171.135c-.364.216-.529.438-.473.548" transform="translate(-360.472 -89.314)" fill="#263238"/>
        <path id="Trazado_601875" data-name="Trazado 601875" d="M560.44,143.835c.157.209.787,0,1.542.007.754-.024,1.39.161,1.541-.053.066-.1-.031-.313-.306-.513a2.233,2.233,0,0,0-2.485.037c-.27.208-.361.42-.292.522" transform="translate(-346.995 -88.491)" fill="#263238"/>
        <path id="Trazado_601876" data-name="Trazado 601876" d="M607.779,163.989c.1-.042,4.091-1.138,3.9,2.91s-4.219,3.018-4.221,2.9.325-5.811.325-5.811" transform="translate(-376.119 -101.435)" fill="#ffc09d"/>
        <path id="Trazado_601877" data-name="Trazado 601877" d="M610.889,170.5c.018-.012.068.053.184.113a.706.706,0,0,0,.527.036,1.746,1.746,0,0,0,.883-1.527,2.335,2.335,0,0,0-.148-1.019.817.817,0,0,0-.5-.567.359.359,0,0,0-.425.173c-.06.11-.038.193-.06.2s-.083-.072-.043-.238a.45.45,0,0,1,.172-.246.534.534,0,0,1,.395-.084.993.993,0,0,1,.707.663,2.4,2.4,0,0,1,.19,1.14,1.832,1.832,0,0,1-1.113,1.7.756.756,0,0,1-.639-.138c-.121-.106-.138-.2-.123-.2" transform="translate(-378.243 -103.607)" fill="#ff9b6c"/>
        <path id="Trazado_601878" data-name="Trazado 601878" d="M564.1,123.3c-.634-.4,1.452-2.408,3.1-3.046,2.5-.965,6.248-1.432,8.455-.669a9.764,9.764,0,0,1,6.039,4.926,15.941,15.941,0,0,1,1.323,8.229,4.84,4.84,0,0,1-.711,2.44c-.616.862-1.733,1.364-1.756,2.6a1.7,1.7,0,0,1-.491,1.211c-.785.746-1.649-.046-2.023-.812a11.725,11.725,0,0,1-.765-5.354,11.848,11.848,0,0,1,.475-3.834c.237-.663.591-1.282.79-1.958a2.435,2.435,0,0,0-.172-2.036,2.517,2.517,0,0,0-.31-.352,4.227,4.227,0,0,0-4.141-1.035c-2.325.676-6.285,1.658-7.257.827a6.243,6.243,0,0,1-1.707-1.941Z" transform="translate(-349.203 -73.807)" fill="#263238"/>
        <path id="Trazado_601879" data-name="Trazado 601879" d="M574.591,178.331c0,.072.2.162.552.152a2.412,2.412,0,0,0,2.086-1.543c.113-.333.086-.555.016-.572-.155-.038-.438.678-1.166,1.2-.711.543-1.479.6-1.488.764" transform="translate(-355.771 -109.202)" fill="#263238"/>
        <path id="Trazado_601880" data-name="Trazado 601880" d="M467.189,231.919c-.829-1.363-1.813-2.849-1.813-2.849l-.8-1.367a1.765,1.765,0,0,0-.183.26,1.188,1.188,0,0,1-.385.454.946.946,0,0,1-1.043-.253,2.315,2.315,0,0,1-.7-2.18,2.285,2.285,0,0,1,1.473-1.628,1.674,1.674,0,0,1,.418-.5c1.156-.939,3.224-.3,3.224-.3l-.215-.518s-1.234-1.219-3.956-.265a1.774,1.774,0,0,1-1.259-.016.9.9,0,0,1-.554-.534c-.216-.668.2-.991,1.893-1.61s3.531-.656,4.546.007a12.043,12.043,0,0,1,1.368.987s-1.664-4.782-1.757-5.088c-.27-.887-.1-1.749.477-1.982.369-.15.946-.066,1.291.958.3.886,4.517,9.58,4.517,9.58l1.641,3.955.823,3.481-5.925,1.669-.428-.144a4.955,4.955,0,0,1-2.652-2.118" transform="translate(-285.65 -132.8)" fill="#ffc09d"/>
        <path id="Trazado_601881" data-name="Trazado 601881" d="M484.262,244.908a1.326,1.326,0,0,1-1.519-.249c-.422-.355-.713-.842-1.108-1.226-1.183-1.149-3.133-1.241-4.261-2.445-.157-.168-.3-.424-.169-.611s.38-.153.589-.114l5.366,1.008" transform="translate(-295.441 -148.747)" fill="#ffc09d"/>
        <path id="Trazado_601882" data-name="Trazado 601882" d="M482.91,241.023a2.206,2.206,0,0,0-.569-.168c-.371-.088-.908-.206-1.574-.345l-2.341-.473-.677-.133a1.081,1.081,0,0,0-.816.034.454.454,0,0,0-.166.485.944.944,0,0,0,.216.391,3.6,3.6,0,0,0,.611.525,21.13,21.13,0,0,0,2.665,1.249,4.156,4.156,0,0,1,1.027.681c.28.263.5.564.734.82a1.937,1.937,0,0,0,1.43.78c.41-.011.574-.205.561-.208a1.585,1.585,0,0,1-.558.088,1.876,1.876,0,0,1-1.267-.8c-.215-.255-.426-.566-.722-.861a4.283,4.283,0,0,0-1.077-.752,24.583,24.583,0,0,1-2.618-1.249,3.389,3.389,0,0,1-.554-.472c-.153-.168-.209-.371-.1-.428.107-.081.353-.035.583.011l.679.122,2.352.408c.671.112,1.214.2,1.591.249a2.193,2.193,0,0,0,.591.05" transform="translate(-295.191 -148.5)" fill="#ff9b6c"/>
        <path id="Trazado_601883" data-name="Trazado 601883" d="M467.424,235.623a2.263,2.263,0,0,0-.628-.819,1.752,1.752,0,0,0-1.039-.329,4.447,4.447,0,0,0-1.36.241,7.074,7.074,0,0,1-1.395.329,2.3,2.3,0,0,1-1.178-.17.9.9,0,0,1-.511-.619.522.522,0,0,1,0-.293c.019,0,.02.1.074.273a.85.85,0,0,0,.494.511,2.287,2.287,0,0,0,1.1.115,7.84,7.84,0,0,0,1.355-.337,4.316,4.316,0,0,1,1.423-.233,1.838,1.838,0,0,1,1.122.4,1.637,1.637,0,0,1,.476.645.56.56,0,0,1,.064.285" transform="translate(-285.623 -144.863)" fill="#ff9b6c"/>
        <path id="Trazado_601884" data-name="Trazado 601884" d="M477.1,218.933a5.672,5.672,0,0,1,.337.949l.753,2.3.788,2.291a5.653,5.653,0,0,1,.3.959,4.522,4.522,0,0,1-.435-.91c-.24-.575-.543-1.379-.845-2.278s-.544-1.724-.7-2.326a4.5,4.5,0,0,1-.2-.987" transform="translate(-295.403 -135.557)" fill="#ff9b6c"/>
        <path id="Trazado_601885" data-name="Trazado 601885" d="M470.182,241.542a1.226,1.226,0,0,1-.315-.016.932.932,0,0,0-.749.208.494.494,0,0,0-.113.479,2.661,2.661,0,0,0,.255.6,1.127,1.127,0,0,1,.141.788.951.951,0,0,1-.6.62,1.1,1.1,0,0,1-.861-.077,1.38,1.38,0,0,1-.581-.55,4.432,4.432,0,0,1-.4-1.233,2.579,2.579,0,0,1-.024-.869.568.568,0,0,1,.116-.3c.017.007-.024.111-.039.307a3.06,3.06,0,0,0,.086.833,4.757,4.757,0,0,0,.418,1.17,1.09,1.09,0,0,0,1.211.527.764.764,0,0,0,.482-.485.961.961,0,0,0-.118-.657,2.686,2.686,0,0,1-.252-.654.643.643,0,0,1,.177-.61.976.976,0,0,1,.858-.184.83.83,0,0,1,.306.093" transform="translate(-289.098 -149.345)" fill="#ff9b6c"/>
        <path id="Trazado_601886" data-name="Trazado 601886" d="M465.612,243.645c.008,0,.069.088.065.28a.865.865,0,0,1-.39.676,1.171,1.171,0,0,1-1.16.022,1.929,1.929,0,0,1-.9-1.107,2.3,2.3,0,0,1-.024-1.415,2.186,2.186,0,0,1,.623-.968,2.075,2.075,0,0,1,.659-.405.594.594,0,0,1,.276-.062,3.6,3.6,0,0,0-.837.57,2.149,2.149,0,0,0-.545.919,2.186,2.186,0,0,0,.036,1.3,1.791,1.791,0,0,0,.791,1.007,1.041,1.041,0,0,0,1,.02.82.82,0,0,0,.388-.564c.027-.169,0-.267.013-.271" transform="translate(-286.743 -149.011)" fill="#ff9b6c"/>
        <path id="Trazado_601887" data-name="Trazado 601887" d="M481.211,249.541a.818.818,0,0,1,.46-.145,1.912,1.912,0,0,1,1.2.274l-.146.1a5.633,5.633,0,0,1-.11-.674,4.283,4.283,0,0,1,.311-2.326,10.836,10.836,0,0,0-.111,2.307c.024.23.058.451.1.654l.045.224-.19-.124a2.008,2.008,0,0,0-1.093-.315c-.289,0-.46.05-.468.025" transform="translate(-297.952 -152.793)" fill="#ff9b6c"/>
        <path id="Trazado_601888" data-name="Trazado 601888" d="M471.847,232.7c.053.008-.016.412-.376.732s-.769.347-.771.294.326-.16.636-.443.456-.6.511-.582" transform="translate(-291.444 -144.082)" fill="#ff9b6c"/>
        <path id="Trazado_601889" data-name="Trazado 601889" d="M510.67,213.791s-3.015.364-3.344.384c-2.544.157-6.693,1.658-8.642,5.3-1.422,2.655-4.129,13.464-4.855,16.385l-1.05,3.441-6.353-10.081L477.4,234.37s9.383,22.7,15.456,22.7,8.89-6.063,8.89-6.063l-.094-13.653Z" transform="translate(-295.59 -132.374)" fill="#e0e0e0"/>
        <path id="Trazado_601890" data-name="Trazado 601890" d="M534.776,238.705a1.2,1.2,0,0,0-.026.306c0,.234-.01.524-.017.877-.011.762,0,1.863.023,3.225.049,2.723.215,6.481.447,10.627s.431,7.9.533,10.619c.049,1.328.088,2.417.117,3.22.015.353.028.642.039.876a1.236,1.236,0,0,0,.033.305,1.186,1.186,0,0,0,.026-.306c.005-.233.011-.523.017-.877.011-.761,0-1.863-.023-3.225-.049-2.723-.215-6.482-.447-10.629s-.431-7.9-.533-10.618c-.049-1.327-.088-2.417-.117-3.22-.016-.353-.028-.642-.038-.876a1.236,1.236,0,0,0-.033-.305" transform="translate(-331.089 -147.8)" fill="#263238"/>
        <path id="Trazado_601891" data-name="Trazado 601891" d="M639.259,228.9c-1.542-6.9-9.167-8.814-9.167-8.814l-2.59,24.9,1.605,4.042,13.643-2.946s-1.557-8.532-3.491-17.183" transform="translate(-388.532 -136.269)" fill="#e0e0e0"/>
        <path id="Trazado_601892" data-name="Trazado 601892" d="M615.815,267.527l5.1,4.913-1.648-9.4,10.348-3.273s2.748,12.9,3.226,15.948c.858,5.474-.2,13.254-5.3,13.8-5.518.593-9.684-4.85-12.336-8.421-2.039-2.745-5.328-7.546-5.328-7.546Z" transform="translate(-377.622 -160.843)" fill="#e0e0e0"/>
        <path id="Trazado_601893" data-name="Trazado 601893" d="M575.512,245.8l-.4-11.7.61-27.108-10.869-4.942-1.44-4.253-12.153,5.415-2.437-2.554-1.407,2.732-4.329.979-3.534,10-3,7.874s.866,27.308,1.611,37.325c.1,1.314-1.611,1.885.284,3.35,0,0,2.845,1.67,9.012,1.831,17.547.458,28.327-2.344,28.9-2.6a3.612,3.612,0,0,0,1.068-3.022c-.052-.414-.139-.861-.219-1.425Z" transform="translate(-332.218 -122.474)" fill="#e0e0e0"/>
        <path id="Trazado_601894" data-name="Trazado 601894" d="M562.337,281.3a.5.5,0,0,1-.023-.15c-.009-.12-.02-.265-.033-.442l-.1-1.7c-.067-1.509-.161-3.639-.277-6.257-.2-5.285-.447-12.591-.364-20.668.049-4.039.185-7.892.571-11.381.4-3.485,1-6.583,1.541-9.173s1.05-4.668,1.4-6.1l.415-1.651c.046-.171.085-.311.116-.427a.529.529,0,0,1,.051-.143.51.51,0,0,1-.018.151l-.085.435-.354,1.665c-.311,1.445-.778,3.532-1.3,6.123s-1.084,5.689-1.468,9.158c-.368,3.469-.495,7.315-.544,11.348-.083,8.066.131,15.371.268,20.656.073,2.62.131,4.75.173,6.261q.021,1.074.034,1.7c0,.177,0,.323,0,.443a.542.542,0,0,1-.011.152" transform="translate(-347.683 -138.204)" fill="#263238"/>
        <path id="Trazado_601895" data-name="Trazado 601895" d="M581.783,256.414a5.522,5.522,0,0,1,.72.021l2.1.126,7.653.524.145.01-.011.147c-.265,3.507-.581,7.7-.923,12.236l-.006.081-.065.048c-.358.26-.746.523-1.144.781a22.406,22.406,0,0,1-2.152,1.247,6.335,6.335,0,0,1-2.333.751,4.647,4.647,0,0,1-2.313-.536,10.135,10.135,0,0,1-1.871-1.251c-.281-.233-.552-.47-.811-.712a1.576,1.576,0,0,1-.363-.439,2.33,2.33,0,0,1-.2-.514,7.873,7.873,0,0,1-.188-2.018,29.141,29.141,0,0,1,.323-3.574c.316-2.167.692-3.9.961-5.09.137-.6.252-1.056.335-1.367a2.457,2.457,0,0,1,.146-.47,2.668,2.668,0,0,1-.077.486c-.069.35-.158.808-.27,1.38-.228,1.2-.566,2.935-.848,5.1a29.862,29.862,0,0,0-.278,3.542,7.667,7.667,0,0,0,.194,1.933,1.5,1.5,0,0,0,.483.8q.385.356.8.694a9.869,9.869,0,0,0,1.815,1.2,4.32,4.32,0,0,0,2.144.493,6.049,6.049,0,0,0,2.2-.72,22.559,22.559,0,0,0,2.117-1.229c.392-.255.779-.517,1.127-.769l-.072.129.985-12.231.134.157-7.559-.663-2.124-.2-.566-.062a1.062,1.062,0,0,1-.2-.033" transform="translate(-359.131 -158.761)" fill="#263238"/>
        <path id="Trazado_601896" data-name="Trazado 601896" d="M593.922,265.438a87.182,87.182,0,0,1-11.067-.863,87.162,87.162,0,0,1,11.067.863" transform="translate(-360.888 -163.796)" fill="#263238"/>
        <g id="Grupo_878570" data-name="Grupo 878570" transform="translate(221.437 110.654)" opacity="0.3">
          <g id="Grupo_878569" data-name="Grupo 878569">
            <g id="Grupo_878568" data-name="Grupo 878568" clip-path="url(#clip-path-11)">
              <path id="Trazado_601897" data-name="Trazado 601897" d="M581.464,290.563a16.721,16.721,0,0,0,1.97,3.148,4.825,4.825,0,0,0,3.025,1.505,4.961,4.961,0,0,0,2.869-.853,7.583,7.583,0,0,0,2.86-3.752c.087-.111-1.986,1.273-3.111,1.872a5.073,5.073,0,0,1-3.186.684c-1.667-.135-3.162-1.51-4.427-2.6" transform="translate(-581.464 -290.563)"/>
            </g>
          </g>
        </g>
        <g id="Grupo_878573" data-name="Grupo 878573" transform="translate(219.245 79.985)" opacity="0.3">
          <g id="Grupo_878572" data-name="Grupo 878572">
            <g id="Grupo_878571" data-name="Grupo 878571" clip-path="url(#clip-path-12)">
              <path id="Trazado_601898" data-name="Trazado 601898" d="M575.708,211.575l.444,5.7,12.1-7.243-11.669,6.157Z" transform="translate(-575.708 -210.03)"/>
            </g>
          </g>
        </g>
        <path id="Trazado_601899" data-name="Trazado 601899" d="M560.384,232.1a195.038,195.038,0,0,0-4.427,28.9c-.511,6.753-.889,15.7-.889,15.7l3.918,4.853,4.683-4.649s-.953-19.424-.933-25.933c.016-5.241-.2-18.766-.2-18.766Z" transform="translate(-343.682 -143.712)" fill="#583cb6"/>
        <path id="Trazado_601900" data-name="Trazado 601900" d="M630.473,254.3a3.231,3.231,0,0,1,.123.541l.269,1.486.844,4.91c.334,1.917.619,3.657.806,4.918.094.631.167,1.142.212,1.5a.278.278,0,1,1-.071.011c-.069-.383-.16-.883-.27-1.486-.225-1.287-.526-3.007-.859-4.908-.331-1.918-.6-3.659-.791-4.92-.086-.607-.156-1.11-.211-1.5a3.209,3.209,0,0,1-.052-.553" transform="translate(-390.369 -157.457)" fill="#263238"/>
        <path id="Trazado_601901" data-name="Trazado 601901" d="M634.4,224.007c.02.026-.359.321-.894.873a10.825,10.825,0,0,0-2.806,5.22c-.165.752-.2,1.23-.235,1.228a1.182,1.182,0,0,1,0-.339,6.957,6.957,0,0,1,.11-.915,9.76,9.76,0,0,1,2.842-5.287,6.964,6.964,0,0,1,.7-.6,1.2,1.2,0,0,1,.284-.184" transform="translate(-390.359 -138.699)" fill="#263238"/>
        <path id="Trazado_601902" data-name="Trazado 601902" d="M571.472,218.5l-1.214-.269-1.18,2.125-.05,3.158,2.156.109,1.337-2.5Z" transform="translate(-352.327 -135.123)" fill="#583cb6"/>
        <path id="Trazado_601903" data-name="Trazado 601903" d="M570.743,232.512c-.027.043-.328-.1-.671-.315s-.6-.427-.573-.47.328.1.671.315.6.427.573.47" transform="translate(-352.617 -143.475)" fill="#263238"/>
        <path id="Trazado_601904" data-name="Trazado 601904" d="M571.161,225.963a17.417,17.417,0,0,1-1.437-3.271,17.367,17.367,0,0,1,1.437,3.271" transform="translate(-352.754 -137.884)" fill="#263238"/>
        <g id="Grupo_878576" data-name="Grupo 878576" transform="translate(232.064 114.791)" opacity="0.3">
          <g id="Grupo_878575" data-name="Grupo 878575">
            <g id="Grupo_878574" data-name="Grupo 878574" clip-path="url(#clip-path-13)">
              <path id="Trazado_601905" data-name="Trazado 601905" d="M610.691,303.16a29.043,29.043,0,0,1,4.224,5c.882,1.539,3.377,3.595,6.193,5.394l.439,3.082c-1.561-.31-4.3-2.339-5.356-3.528a22.692,22.692,0,0,1-2.948-3.822c-1.423-2.543-3.376-4.987-3.876-7.858Z" transform="translate(-609.367 -301.425)"/>
            </g>
          </g>
        </g>
        <path id="Trazado_601906" data-name="Trazado 601906" d="M620.065,297.359a1.625,1.625,0,0,0-.263-.2c-.173-.129-.447-.294-.774-.545a28.914,28.914,0,0,1-2.656-2.315,78.027,78.027,0,0,1-7.771-9.157l.017.139,1.725-4.179c.72-1.751,1.417-3.448,2.069-5.034l-.224.054,12.168,10.292a1.114,1.114,0,0,0-.2-.235c-.145-.142-.361-.35-.648-.612-.572-.525-1.418-1.277-2.484-2.211-2.134-1.869-5.152-4.471-8.65-7.452l-.149-.127-.075.181-2.078,5.03-1.719,4.182-.031.075.048.064a72.2,72.2,0,0,0,7.875,9.122,25.117,25.117,0,0,0,2.726,2.262c.338.24.623.392.806.508a1.557,1.557,0,0,0,.29.157" transform="translate(-376.655 -170.754)" fill="#263238"/>
        <path id="Trazado_601907" data-name="Trazado 601907" d="M530.841,249.51l4.255,16.075a2,2,0,0,0,1.972,1.487l22.035-.433a2,2,0,0,0,1.917-2.411l-3.245-15.4a2,2,0,0,0-1.956-1.587H532.583a1.8,1.8,0,0,0-1.743,2.264" transform="translate(-328.644 -153.088)" fill="#263238"/>
        <path id="Trazado_601908" data-name="Trazado 601908" d="M560.814,267.255a.426.426,0,0,1-.033-.1c-.02-.081-.045-.184-.077-.311l-.275-1.2-.977-4.418c-.406-1.871-.888-4.092-1.423-6.557-.266-1.235-.545-2.531-.834-3.873a.9.9,0,0,0-.568-.7,1.221,1.221,0,0,0-.484-.056h-2.688l-14.928-.029L534,249.981l-1.23-.019-.32-.01a.452.452,0,0,1-.109-.01.447.447,0,0,1,.109-.01l.32-.01L534,249.9l4.524-.032,14.928-.029h2.688a1.409,1.409,0,0,1,.553.069,1.094,1.094,0,0,1,.69.839l.823,3.876,1.382,6.566.915,4.431.239,1.207.057.315a.458.458,0,0,1,.013.109" transform="translate(-329.613 -154.696)" fill="#455a64"/>
        <path id="Trazado_601909" data-name="Trazado 601909" d="M566.852,260.217a1.145,1.145,0,1,1-1.5-.767,1.192,1.192,0,0,1,1.5.767" transform="translate(-349.602 -160.604)" fill="#e0e0e0"/>
        <path id="Trazado_601910" data-name="Trazado 601910" d="M603.058,268.322l-1.046-.978a12.126,12.126,0,0,0-1.132-2.745,4.839,4.839,0,0,0-1.611-.763l-2.631-2.416.479,2.155-3.817-.028a1.086,1.086,0,0,0-1.039.667.432.432,0,0,0-.033.209,1.4,1.4,0,0,0,.763,1l.549.259a1.3,1.3,0,0,0-.9.937,1.2,1.2,0,0,0,.795,1.287,1.057,1.057,0,0,0-.4,1.545s-.873,1.035-.368,1.736,3.4,1.874,3.4,1.874l1.605.729a2.718,2.718,0,0,0,1.2.068l.627.088.669.555s3.83-2.092,2.884-6.178" transform="translate(-366.69 -161.864)" fill="#ffc09d"/>
        <path id="Trazado_601911" data-name="Trazado 601911" d="M600.517,273.3a2.893,2.893,0,0,1-.867.008,16.262,16.262,0,0,1-4.089-.826,2.9,2.9,0,0,1-.8-.343c.023-.065,1.273.347,2.86.663s2.9.43,2.893.5" transform="translate(-368.262 -168.495)" fill="#ff9b6c"/>
        <path id="Trazado_601912" data-name="Trazado 601912" d="M601.96,280.209a50.465,50.465,0,0,1-6.558-1.77,50.3,50.3,0,0,1,6.558,1.77" transform="translate(-368.657 -172.397)" fill="#ff9b6c"/>
        <path id="Trazado_601913" data-name="Trazado 601913" d="M600.818,284.921a4.082,4.082,0,0,1-1.058-.137A16.969,16.969,0,0,1,594.946,283a4.081,4.081,0,0,1-.892-.586,6.162,6.162,0,0,1,.967.442c.588.285,1.41.657,2.344,1s1.8.6,2.432.766a6.217,6.217,0,0,1,1.021.3" transform="translate(-367.822 -174.861)" fill="#ff9b6c"/>
        <path id="Trazado_601914" data-name="Trazado 601914" d="M613.166,278.288c-.063-.022.06-.448-.032-.965s-.336-.882-.283-.923.414.3.51.885a1.133,1.133,0,0,1-.195,1" transform="translate(-379.456 -171.137)" fill="#ff9b6c"/>
        <path id="Trazado_601915" data-name="Trazado 601915" d="M613.784,271.969c-.043-.049.155-.284.185-.639s-.1-.625-.051-.663c.024-.018.1.031.173.152a.925.925,0,0,1-.107,1.035c-.1.1-.181.136-.2.114" transform="translate(-380.034 -167.587)" fill="#ff9b6c"/>
        <path id="Trazado_601916" data-name="Trazado 601916" d="M613.1,286.688c-.049-.044.1-.28.191-.6s.1-.6.163-.608.168.3.057.672-.37.58-.411.535" transform="translate(-379.612 -176.762)" fill="#ff9b6c"/>
        <path id="Trazado_601917" data-name="Trazado 601917" d="M597.631,266.83a95.8,95.8,0,0,0,4.469.315,9.476,9.476,0,0,0-4.469-.315" transform="translate(-370.037 -165.126)" fill="#ff9b6c"/>
        <path id="Trazado_601918" data-name="Trazado 601918" d="M565.651,211.145a1.5,1.5,0,0,1,.108.265l.274.774c.237.7.567,1.669.974,2.866l-.129-.011,2.268-4.276.117-.221.056.244,1.073,4.733.058.258-.143-.066,8.506-4.455,2.58-1.326.7-.351a1.469,1.469,0,0,1,.252-.111,1.452,1.452,0,0,1-.234.146l-.688.383-2.55,1.381-8.478,4.507-.115.061-.029-.126c-.018-.081-.038-.169-.058-.258l-1.061-4.736.172.024L567,215.1l-.08.147-.05-.158-.914-2.886-.238-.786a1.574,1.574,0,0,1-.07-.278" transform="translate(-350.235 -129.697)" fill="#263238"/>
      </g>
    </g>
  </g>
</svg>
