<svg xmlns="http://www.w3.org/2000/svg" width="121" height="86.075" viewBox="0 0 121 86.075">
  <g id="_21" data-name="21" transform="translate(-187.117 -4633.463)">
    <rect id="Rectángulo_392705" data-name="Rectángulo 392705" width="121" height="33" rx="5" transform="translate(187.117 4660)" fill="#f0bd51"/>
    <g id="Grupo_1099188" data-name="Grupo 1099188" transform="translate(170.671 3979.804)">
      <path id="Trazado_637431" data-name="Trazado 637431" d="M90.225,690.452c.175-.281.346-.565.525-.843a5.808,5.808,0,0,1,10.118.017c2.265,3.593,4.486,7.214,6.727,10.822q9.378,15.1,18.753,30.2a5.8,5.8,0,0,1-3.047,8.8,6.111,6.111,0,0,1-1.9.286q-25.581,0-51.161,0a5.835,5.835,0,0,1-5.05-8.943c.924-1.531,1.885-3.039,2.827-4.56.141-.229.266-.468.405-.715a1.8,1.8,0,0,0-.949-.1q-10.039-.009-20.078-.007a5.758,5.758,0,0,1-6-4.883,7.42,7.42,0,0,1-.068-1.255q0-27.593,0-55.187a5.709,5.709,0,0,1,6.037-6.06q3.318-.02,6.637,0a1.012,1.012,0,0,0,.93-.407,2.723,2.723,0,0,1,2.276-1.049c.364,0,.73-.024,1.092,0a4.029,4.029,0,0,0,3.631-1.313,5.456,5.456,0,0,1,8.308.719,1.312,1.312,0,0,0,1.239.594c.922-.037,1.848-.01,2.772,0a2.683,2.683,0,0,1,2.205,1.018,1.088,1.088,0,0,0,1,.437Q80.726,658,84,658.02a5.7,5.7,0,0,1,6.067,6.107q.007,12.725,0,25.451v.821ZM71.39,659.458a3.35,3.35,0,0,1-3.155-1.348c-1.433-2.066-3.611-2.054-5.075,0a2.925,2.925,0,0,1-2.567,1.324c-.98-.014-1.96.01-2.94-.009-.377-.007-.555.082-.55.506q.029,2.352,0,4.7c0,.4.123.532.526.53q6.887-.032,13.775-.038c.753.008,1.507,0,2.258.032.466.022.638-.135.63-.616q-.036-2.26,0-4.52c.009-.5-.194-.62-.644-.6C72.9,659.458,72.143,659.449,71.39,659.458ZM84.332,665.9v33.744c.952-1.232,1.724-2.491,2.519-3.735a2.211,2.211,0,0,0,.362-1.254q-.017-15.317-.009-30.633a3.569,3.569,0,0,0-.116-1.078c-.474-1.534-1.645-2.169-3.753-2.014-1.339-.013-2.679-.035-4.018-.039-2.248-.006-2.235,0-2.169,2.248.013.466.136.639.618.624,1-.031,2.015.049,3.015-.022A3.212,3.212,0,0,1,84.332,665.9ZM69.388,719.7c-.335-.01-.671-.029-1.006-.029q-8.9,0-17.807,0c-2.469,0-3.524-1.057-3.524-3.523q0-24.439,0-48.879c0-.252-.009-.5.006-.755a2.837,2.837,0,0,1,2.831-2.749c.755-.022,1.512-.007,2.268-.007,2.105,0,2.082,0,2.1-2.072.006-.608-.125-.823-.779-.808-1.959.045-3.919.015-5.879.016-2.378,0-3.411,1.042-3.411,3.436q0,27.337,0,54.674c0,2.477,1.048,3.535,3.509,3.536q9.618,0,19.235,0c.306,0,.613-.032.919-.049a12.284,12.284,0,0,0,2.081.068.5.5,0,0,0,.506-.22c.535-.862,1.074-1.72,1.706-2.73A25.218,25.218,0,0,0,69.388,719.7Zm2.186-2.982a11.366,11.366,0,0,1,1.249.071c.813.132,1.234-.243,1.647-.923,2.131-3.513,4.312-7,6.5-10.475a3.2,3.2,0,0,0,.525-1.8q-.028-17.174-.02-34.347c0-.857.384-2.056-.16-2.484-.616-.483-1.767-.151-2.686-.108-.974-.1-1.9-.175-2.615.772a2.047,2.047,0,0,1-1.69.6q-8.607,0-17.214,0a2.078,2.078,0,0,1-1.7-.586,2.629,2.629,0,0,0-2.529-.824,17.582,17.582,0,0,1-2.1-.009c-.68-.059-.888.125-.887.851q.035,24.222,0,48.445c0,.788.249.9.943.9,6.577-.025,13.155-.014,19.733-.017C70.907,716.782,71.241,716.741,71.575,716.719Zm23.153-26.907a2.923,2.923,0,0,0-1.675,1.544Q83.078,707.419,73.1,723.479c-1.814,2.92-3.637,5.835-5.431,8.768a2.932,2.932,0,0,0,.9,4.177,3.557,3.557,0,0,0,1.932.448q24.732-.008,49.465-.005c.223,0,.446-.02.67-.031,2.119.13,3.345-.611,3.772-2.26a3.316,3.316,0,0,0-.653-2.679q-9.478-15.244-18.944-30.5-3.186-5.13-6.377-10.258A2.818,2.818,0,0,0,94.727,689.812Z" transform="translate(0 0)" fill="#020201"/>
      <path id="Trazado_637432" data-name="Trazado 637432" d="M171.537,808.065c-.223.011-.446.031-.67.031q-24.732,0-49.465.005a3.556,3.556,0,0,1-1.932-.448,2.932,2.932,0,0,1-.9-4.177c1.794-2.932,3.617-5.847,5.431-8.768q9.976-16.062,19.952-32.124a2.923,2.923,0,0,1,1.675-1.544c.4.05.522.4.692.672q2.8,4.469,5.571,8.951,5.116,8.25,10.228,16.5,4.77,7.676,9.563,15.338a4.468,4.468,0,0,1-.073,5.322A.809.809,0,0,0,171.537,808.065ZM142.43,780.822q0,3.44,0,6.88a5.288,5.288,0,0,0,.128,1.414,4.3,4.3,0,0,0,8.46-1.1c.028-4.671.014-9.341.008-14.012a4.319,4.319,0,1,0-8.616.022C142.5,776.288,142.429,778.556,142.43,780.822Zm4.316,22.953a4.293,4.293,0,0,0,4.281-4.271,4.34,4.34,0,0,0-4.334-4.322,4.3,4.3,0,0,0,.053,8.593Z" transform="translate(-50.902 -71.23)" fill="#f8db49"/>
      <path id="Trazado_637433" data-name="Trazado 637433" d="M88.462,742.214c-.334.022-.668.063-1,.063-6.578,0-13.155-.007-19.733.018-.695,0-.945-.107-.943-.9q.041-24.222,0-48.445c0-.726.207-.91.887-.851a17.582,17.582,0,0,0,2.1.009,2.628,2.628,0,0,1,2.529.824,2.077,2.077,0,0,0,1.7.586q8.607-.005,17.214,0a2.047,2.047,0,0,0,1.69-.6c.718-.947,1.641-.871,2.615-.772-.041,2.7.1,5.4-.073,8.094a1.643,1.643,0,0,0-1.685-.988c-3.631.009-7.263,0-10.895.008-1.072,0-1.691.556-1.693,1.437s.624,1.441,1.687,1.444c3.659.012,7.319,0,10.978.006a1.583,1.583,0,0,0,1.6-.983c.154,3.527.094,7.054.033,10.581a1.676,1.676,0,0,0-1.673-1c-3.665.023-7.33.011-11,.009a1.581,1.581,0,0,0-1.166.365,1.364,1.364,0,0,0-.376,1.535,1.488,1.488,0,0,0,1.594.97q5.456-.007,10.912,0a1.665,1.665,0,0,0,1.681-1c.129,3.528.105,7.055.013,10.583A1.732,1.732,0,0,0,93.7,722.2c-3.581.025-7.162.009-10.743.012-1.136,0-1.778.524-1.778,1.431s.639,1.428,1.776,1.429c3.581,0,7.162-.013,10.743.012a1.729,1.729,0,0,0,1.764-1c.02,2.015.037,4.029.063,6.043a1.245,1.245,0,0,1-.254.691q-2.958,4.768-5.9,9.548C89.015,740.952,88.468,741.455,88.462,742.214ZM78.274,700.8a4.3,4.3,0,1,0-8.6-.18,4.35,4.35,0,0,0,4.26,4.4A4.306,4.306,0,0,0,78.274,700.8ZM74,739.4a4.258,4.258,0,0,0,4.274-4.26,4.3,4.3,0,0,0-4.3-4.334,4.349,4.349,0,0,0-4.294,4.281A4.3,4.3,0,0,0,74,739.4Zm4.271-27.1a4.25,4.25,0,0,0-4.125-4.4,4.3,4.3,0,0,0-4.47,4.161,4.349,4.349,0,0,0,4.231,4.426A4.293,4.293,0,0,0,78.271,712.3Zm-4.3,15.637a4.291,4.291,0,0,0,.02-8.582,4.291,4.291,0,1,0-.02,8.582Zm12.2,8.6c1.145,0,2.291.014,3.436,0a1.384,1.384,0,0,0,1.559-1.376,1.417,1.417,0,0,0-1.559-1.481q-3.436-.033-6.872,0a1.416,1.416,0,0,0-1.562,1.479,1.4,1.4,0,0,0,1.561,1.377C83.884,736.551,85.03,736.537,86.175,736.537Z" transform="translate(-16.887 -25.496)" fill="#f7deb5"/>
      <path id="Trazado_637434" data-name="Trazado 637434" d="M73.5,736.707c-.306.017-.613.049-.919.049q-9.617,0-19.235,0c-2.461,0-3.509-1.058-3.509-3.535q0-27.337,0-54.674c0-2.394,1.033-3.434,3.411-3.436,1.96,0,3.92.029,5.879-.016.653-.015.785.2.779.808-.022,2.072,0,2.072-2.1,2.072-.756,0-1.512-.015-2.268.007a2.837,2.837,0,0,0-2.831,2.749c-.015.251-.006.5-.006.755q0,24.439,0,48.879c0,2.466,1.055,3.522,3.524,3.523q8.9,0,17.807,0c.335,0,.671.019,1.006.029C74.674,734.934,73.834,735.683,73.5,736.707Z" transform="translate(-5.643 -14.219)" fill="#ef9b37"/>
      <path id="Trazado_637435" data-name="Trazado 637435" d="M138.167,723.025c.092-3.528.116-7.056-.013-10.583q.012-.437.025-.873c.061-3.527.121-7.054-.033-10.581a1.95,1.95,0,0,0,.006-.924c.171-2.7.032-5.4.073-8.094.919-.044,2.07-.376,2.686.108.544.428.159,1.627.16,2.484q.016,17.174.02,34.347a3.2,3.2,0,0,1-.525,1.8c-2.186,3.479-4.367,6.962-6.5,10.475-.412.68-.834,1.055-1.647.922a11.411,11.411,0,0,0-1.249-.071c.006-.76.553-1.263.909-1.846q2.925-4.788,5.9-9.548a1.245,1.245,0,0,0,.254-.691c-.026-2.014-.043-4.029-.063-6.043Q138.167,723.464,138.167,723.025Z" transform="translate(-59.596 -25.312)" fill="#d9c2a0"/>
      <path id="Trazado_637436" data-name="Trazado 637436" d="M225.847,807.576a.806.806,0,0,1,.072-.238,4.468,4.468,0,0,0,.073-5.322q-4.788-7.665-9.563-15.338-5.123-8.244-10.228-16.5-2.778-4.48-5.571-8.951c-.17-.272-.294-.621-.692-.672a2.818,2.818,0,0,1,3.706,1.33q3.2,5.12,6.377,10.258,9.471,15.249,18.944,30.5a3.316,3.316,0,0,1,.653,2.679C229.192,806.964,227.966,807.706,225.847,807.576Z" transform="translate(-105.212 -70.74)" fill="#f1c043"/>
      <path id="Trazado_637437" data-name="Trazado 637437" d="M166.1,675.22c2.108-.156,3.279.48,3.753,2.014a3.569,3.569,0,0,1,.116,1.078q0,15.317.009,30.633a2.211,2.211,0,0,1-.362,1.254c-.8,1.244-1.567,2.5-2.519,3.735V680.19C167.129,678.461,167.348,676.693,166.1,675.22Z" transform="translate(-82.767 -14.287)" fill="#e58031"/>
      <path id="Trazado_637438" data-name="Trazado 637438" d="M102.488,670.854q-6.887.015-13.775.038c-.4,0-.53-.132-.526-.53q.026-2.352,0-4.7c-.005-.424.173-.514.55-.506.98.019,1.96-.006,2.94.009a2.925,2.925,0,0,0,2.567-1.324c1.464-2.055,3.642-2.068,5.075,0a3.35,3.35,0,0,0,3.155,1.348Q102.482,668.018,102.488,670.854Zm-5.68-5.691a1.417,1.417,0,0,0-1.43,1.435,1.378,1.378,0,0,0,1.35,1.416,1.432,1.432,0,0,0,1.492-1.377A1.462,1.462,0,0,0,96.808,665.163Z" transform="translate(-31.085 -5.725)" fill="#9c9c9c"/>
      <path id="Trazado_637439" data-name="Trazado 637439" d="M153.877,675.188c1.246,1.473,1.027,3.241,1,4.97a3.213,3.213,0,0,0-3.55-2.159c-1,.071-2.01-.009-3.015.022-.482.015-.605-.158-.618-.624-.066-2.25-.08-2.254,2.169-2.248C151.2,675.153,152.537,675.174,153.877,675.188Z" transform="translate(-70.542 -14.255)" fill="#ef9b37"/>
      <path id="Trazado_637440" data-name="Trazado 637440" d="M130.637,676.485q-.007-2.836-.013-5.671c.753-.009,1.506,0,2.258-.033.45-.02.652.1.644.6q-.038,2.26,0,4.52c.008.48-.164.637-.63.616C132.144,676.483,131.39,676.493,130.637,676.485Z" transform="translate(-59.234 -11.357)" fill="#707070"/>
      <path id="Trazado_637441" data-name="Trazado 637441" d="M120.117,852.418c.338-1.024,1.178-1.773,1.535-2.787a25.232,25.232,0,0,1,2.757-.095c-.632,1.01-1.171,1.868-1.706,2.73a.5.5,0,0,1-.506.22A12.284,12.284,0,0,1,120.117,852.418Z" transform="translate(-52.264 -129.93)" fill="#c57229"/>
      <path id="Trazado_637442" data-name="Trazado 637442" d="M190.394,797.27c0-2.265.069-4.534-.018-6.8a4.319,4.319,0,1,1,8.616-.022c.006,4.671.02,9.342-.008,14.012a4.3,4.3,0,0,1-8.46,1.1,5.286,5.286,0,0,1-.128-1.414Q190.389,800.71,190.394,797.27Zm2.886.083c0,2.321,0,4.642,0,6.963a1.333,1.333,0,0,0,.59,1.3,1.347,1.347,0,0,0,1.424.131,1.647,1.647,0,0,0,.845-1.612q0-6.879,0-13.758c0-1.073-.56-1.651-1.489-1.626-.9.024-1.36.57-1.363,1.64C193.276,792.711,193.28,795.032,193.28,797.353Z" transform="translate(-98.866 -87.678)" fill="#020201"/>
      <path id="Trazado_637443" data-name="Trazado 637443" d="M194.76,871.035a4.3,4.3,0,0,1-.053-8.593,4.34,4.34,0,0,1,4.334,4.322A4.293,4.293,0,0,1,194.76,871.035Zm-.042-5.731a1.518,1.518,0,0,0-1.383,1.4,1.341,1.341,0,0,0,1.379,1.443,1.422,1.422,0,1,0,0-2.843Z" transform="translate(-98.917 -138.49)" fill="#020201"/>
      <path id="Trazado_637444" data-name="Trazado 637444" d="M83.967,709.28a4.305,4.305,0,0,1-4.338,4.218,4.308,4.308,0,1,1,.1-8.615A4.3,4.3,0,0,1,83.967,709.28Zm-2.884-.062a1.407,1.407,0,0,0-1.4-1.452,1.457,1.457,0,0,0-1.443,1.436,1.43,1.43,0,0,0,1.385,1.4A1.372,1.372,0,0,0,81.084,709.217Z" transform="translate(-22.581 -33.978)" fill="#030302"/>
      <path id="Trazado_637445" data-name="Trazado 637445" d="M79.695,815.671a4.3,4.3,0,0,1-4.325-4.313,4.349,4.349,0,0,1,4.294-4.281,4.3,4.3,0,0,1,4.3,4.334A4.258,4.258,0,0,1,79.695,815.671Zm-.052-5.723a1.48,1.48,0,0,0-1.4,1.491,1.439,1.439,0,0,0,1.511,1.354,1.365,1.365,0,0,0,1.328-1.507A1.418,1.418,0,0,0,79.643,809.948Z" transform="translate(-22.582 -101.766)" fill="#030302"/>
      <path id="Trazado_637446" data-name="Trazado 637446" d="M83.964,743.431a4.293,4.293,0,0,1-4.364,4.186,4.348,4.348,0,0,1-4.231-4.426,4.3,4.3,0,0,1,4.47-4.161A4.25,4.25,0,0,1,83.964,743.431Zm-4.2-1.53a1.435,1.435,0,0,0-1.517,1.347,1.477,1.477,0,0,0,1.388,1.5,1.421,1.421,0,0,0,1.447-1.33A1.369,1.369,0,0,0,79.762,741.9Z" transform="translate(-22.58 -56.628)" fill="#030302"/>
      <path id="Trazado_637447" data-name="Trazado 637447" d="M79.67,781.642a4.291,4.291,0,1,1,.02-8.582,4.291,4.291,0,0,1-.02,8.582Zm1.419-4.306a1.4,1.4,0,0,0-1.446-1.413,1.426,1.426,0,0,0,.031,2.852A1.392,1.392,0,0,0,81.089,777.337Z" transform="translate(-22.582 -79.202)" fill="#020201"/>
      <path id="Trazado_637448" data-name="Trazado 637448" d="M123.786,714.362a1.95,1.95,0,0,1-.006.924,1.583,1.583,0,0,1-1.6.983c-3.659,0-7.319.007-10.978-.006-1.063,0-1.689-.568-1.687-1.444s.621-1.433,1.693-1.437c3.632-.012,7.263,0,10.895-.008A1.643,1.643,0,0,1,123.786,714.362Z" transform="translate(-45.23 -39.611)" fill="#0c0b09"/>
      <path id="Trazado_637449" data-name="Trazado 637449" d="M123.8,748.5q-.013.437-.025.873a1.665,1.665,0,0,1-1.681,1q-5.456-.018-10.912,0a1.488,1.488,0,0,1-1.594-.97,1.364,1.364,0,0,1,.376-1.535,1.581,1.581,0,0,1,1.166-.365c3.665,0,7.331.014,11-.009A1.676,1.676,0,0,1,123.8,748.5Z" transform="translate(-45.222 -62.246)" fill="#030302"/>
      <path id="Trazado_637450" data-name="Trazado 637450" d="M123.81,782.528q0,.439,0,.877a1.729,1.729,0,0,1-1.764,1c-3.581-.026-7.162-.009-10.743-.012-1.138,0-1.777-.522-1.776-1.429s.642-1.43,1.778-1.43c3.581,0,7.162.013,10.743-.012A1.732,1.732,0,0,1,123.81,782.528Z" transform="translate(-45.239 -84.815)" fill="#020201"/>
      <path id="Trazado_637451" data-name="Trazado 637451" d="M114.533,818.428c-1.145,0-2.291.014-3.436,0a1.4,1.4,0,0,1-1.561-1.377,1.416,1.416,0,0,1,1.562-1.479q3.436-.033,6.872,0a1.417,1.417,0,0,1,1.559,1.481,1.384,1.384,0,0,1-1.559,1.376C116.824,818.443,115.678,818.428,114.533,818.428Z" transform="translate(-45.245 -107.387)" fill="#030302"/>
      <path id="Trazado_637452" data-name="Trazado 637452" d="M110.976,670.824a1.462,1.462,0,0,1,1.412,1.474,1.432,1.432,0,0,1-1.492,1.378,1.378,1.378,0,0,1-1.35-1.416A1.417,1.417,0,0,1,110.976,670.824Z" transform="translate(-45.252 -11.386)" fill="#030302"/>
      <path id="Trazado_637453" data-name="Trazado 637453" d="M199,803.087c0-2.321,0-4.642,0-6.963,0-1.07.467-1.616,1.363-1.64.929-.025,1.487.553,1.489,1.626q.017,6.879,0,13.758a1.647,1.647,0,0,1-.845,1.612,1.348,1.348,0,0,1-1.424-.131,1.332,1.332,0,0,1-.59-1.3C199.008,807.73,199,805.408,199,803.087Z" transform="translate(-104.59 -93.412)" fill="#39464d"/>
      <path id="Trazado_637454" data-name="Trazado 637454" d="M200.4,870.945a1.422,1.422,0,1,1,0,2.843,1.341,1.341,0,0,1-1.379-1.443A1.518,1.518,0,0,1,200.4,870.945Z" transform="translate(-104.603 -144.131)" fill="#39464d"/>
      <path id="Trazado_637455" data-name="Trazado 637455" d="M86.746,714.9a1.372,1.372,0,0,1-1.457,1.381,1.43,1.43,0,0,1-1.385-1.4,1.456,1.456,0,0,1,1.443-1.436A1.407,1.407,0,0,1,86.746,714.9Z" transform="translate(-28.243 -39.657)" fill="#a6bb3b"/>
      <path id="Trazado_637456" data-name="Trazado 637456" d="M85.3,815.6a1.418,1.418,0,0,1,1.44,1.338,1.365,1.365,0,0,1-1.328,1.507A1.439,1.439,0,0,1,83.9,817.1,1.48,1.48,0,0,1,85.3,815.6Z" transform="translate(-28.243 -107.422)" fill="#a6bb3b"/>
      <path id="Trazado_637457" data-name="Trazado 637457" d="M85.43,747.558a1.369,1.369,0,0,1,1.318,1.517A1.421,1.421,0,0,1,85.3,750.4a1.477,1.477,0,0,1-1.388-1.5A1.435,1.435,0,0,1,85.43,747.558Z" transform="translate(-28.248 -62.284)" fill="#a6bb3b"/>
      <path id="Trazado_637458" data-name="Trazado 637458" d="M86.749,782.977a1.392,1.392,0,0,1-1.415,1.44,1.454,1.454,0,0,1-1.431-1.45,1.468,1.468,0,0,1,1.4-1.4A1.4,1.4,0,0,1,86.749,782.977Z" transform="translate(-28.242 -84.843)" fill="#a6bb3b"/>
    </g>
  </g>
</svg>
