<svg xmlns="http://www.w3.org/2000/svg" width="82" height="82" viewBox="0 0 82 82">
  <g id="_39" data-name="39" transform="translate(-303 -3929)">
    <g id="Grupo_951854" data-name="Grupo 951854" transform="translate(303 3929)">
      <path id="Trazado_621807" data-name="Trazado 621807" d="M41,0A41,41,0,1,1,0,41,41,41,0,0,1,41,0Z" fill="#ef8b53"/>
    </g>
    <g id="Grupo_982825" data-name="Grupo 982825" transform="translate(-764.976 3227.038)">
      <path id="Trazado_641911" data-name="Trazado 641911" d="M1143,756.923c.9-.22,1.176-.115,1.636.677,1.392,2.4,2.8,4.788,4.158,7.2a8.217,8.217,0,0,1-5.862,12.417,7.767,7.767,0,0,1-1.373.082c-5.744.005-11.487.018-17.231,0a8.2,8.2,0,0,1-8.326-6.862c-.2-1.015-.2-1.015-1.216-1.015h-3.106c.439,1.161-.133,1.845-.93,2.513-1.548,1.3-3.039,2.664-4.556,4-.776.684-1.149.7-1.909.033-1.71-1.5-3.408-3.011-5.117-4.511a1.316,1.316,0,0,1-.512-1.46c.165-.532-.078-.586-.535-.585q-8.546.02-17.093.009c-1.372,0-1.693-.3-1.606-1.666.71-11.185,6.185-19.024,16.51-23.443l.693-.3a6.252,6.252,0,0,1-2.763-3.321,6.378,6.378,0,0,0-1.955-3.147,5.431,5.431,0,0,1-1.6-3.206.863.863,0,0,0-.493-.669,4.705,4.705,0,0,1-.051-8.242.745.745,0,0,0,.4-.77c-.012-2.251-.022-4.5,0-6.754a9.177,9.177,0,0,1,6.856-9.054,8.908,8.908,0,0,1,2.251-.242c3.952,0,7.9.008,11.855,0a8.857,8.857,0,0,1,5.242,1.586c.771.539.88.854.516,1.732a1.245,1.245,0,0,1-1.69-.025,6.835,6.835,0,0,0-4.144-1.224c-3.9.018-7.8,0-11.7.01a6.68,6.68,0,0,0-1.368.09,6.882,6.882,0,0,0-5.569,5.578,68.716,68.716,0,0,0-.17,8.111c-.013.521.491.373.791.419.381.06.292-.264.294-.471.008-1.056-.013-2.113.01-3.169a1.072,1.072,0,0,1,1.428-1.109c.2.041.4.1.6.146a64.758,64.758,0,0,0,11.544,1.725c.665.039,1-.046.911-.85a.969.969,0,0,1,1.4-1.034,21.909,21.909,0,0,0,6.752,1.476,1.139,1.139,0,0,1,1.167,1.2c.033.5,0,1.01.016,1.515.009.241-.134.609.34.582.384-.022.714-.065.706-.609-.03-2.135-.026-4.27-.036-6.4a6.028,6.028,0,0,0-.335-2.345,1.252,1.252,0,0,1,.448-1.564c.909-.143,1.234.067,1.536.936a10.157,10.157,0,0,1,.487,3.32c.009,2.112.011,4.224,0,6.337a.894.894,0,0,0,.492.923,4.712,4.712,0,0,1-.128,8.173.949.949,0,0,0-.522.717,6.81,6.81,0,0,1-2.719,4.238c-.162.12-.342.21-.375.456a6.819,6.819,0,0,1-3.194,4.918c7.609,3.552,7.843,4.516,10.909,7.45.457-.745.885-1.5,1.364-2.214a8.2,8.2,0,0,1,13.618-.012c.846,1.278,1.575,2.633,2.35,3.958a1.135,1.135,0,0,1-.277,1.59c-.922.186-1.144.088-1.622-.734-.622-1.07-1.22-2.155-1.862-3.213a6.151,6.151,0,0,0-10.795.028q-4.392,7.468-8.667,15a6.148,6.148,0,0,0,5.454,9.386c5.742.023,11.483,0,17.225.006a6.489,6.489,0,0,0,1.967-.264,6.151,6.151,0,0,0,3.5-9.122c-1.36-2.417-2.759-4.812-4.163-7.2A1.24,1.24,0,0,1,1143,756.923Zm-29.777-10.867-.311-.1a9.709,9.709,0,0,0-2.349-.664c-1.168-.393-1.175-.393-1.175.8a3.445,3.445,0,0,1-.751,2.436.83.83,0,0,0-.12.778q1.375,8.732,2.753,17.464c.066.424.189.685.679.591a3.952,3.952,0,0,1,.548-.031l2.2,0a5.044,5.044,0,0,1,.617.028c.574.094.855-.122.974-.711a7.247,7.247,0,0,1,.952-2.121q3.054-5.3,6.11-10.6c.13-.226.4-.425.1-.776a23.408,23.408,0,0,0-10.207-7.1Zm-13.416-.749a22.112,22.112,0,0,0-10.216,5.261,23.706,23.706,0,0,0-8.08,16.356c-.034.42.134.437.45.436,2.114-.007,4.228-.022,6.341.009.5.007.551-.19.546-.6-.019-1.355-.011-2.711,0-4.066a10.324,10.324,0,0,1,.055-1.236.906.906,0,0,1,.95-.825.928.928,0,0,1,1.014.834,4.824,4.824,0,0,1,.051.754c0,1.54.012,3.079,0,4.618,0,.37.073.522.485.516,2.159-.027,4.318-.025,6.478-.032.114.008.229.007.342.025.617.1.89-.082,1-.782.857-5.657,1.761-11.307,2.672-16.956a1.619,1.619,0,0,0-.315-1.446,2.681,2.681,0,0,1-.51-1.682c-.014-.478,0-.956,0-1.513Zm-4.391-21.644c-.007.6-.021,1.194-.021,1.79q0,6.2,0,12.406c0,2.866,1.752,4.881,4.586,4.979,3.487.12,6.982.033,10.474.023a3.958,3.958,0,0,0,1.017-.143,4.724,4.724,0,0,0,3.585-4.918c.012-2.987.007-5.973,0-8.96,0-1.354-.026-2.708-.04-4.062.143-1.144.143-1.139-.961-1.292a20.282,20.282,0,0,1-2.945-.567c-.6-.178-1.228-.49-1.2.589,0,.082-.067.166-.1.249a1.64,1.64,0,0,1-.9.375,62.693,62.693,0,0,1-7.745-.615c-1.92-.272-3.824-.643-5.748-1.074Zm9.778,26.058a2.055,2.055,0,0,1-.413,0c-.73-.152-.912.223-.989.874-.157,1.32-.4,2.63-.6,3.945q-1.2,7.543-2.4,15.086a.762.762,0,0,0,.3.774c1.266,1.1,2.526,2.206,3.768,3.332.283.256.456.255.735,0,1.088-.988,2.156-2.006,3.314-2.907a1.685,1.685,0,0,0,.658-1.864q-1.465-8.964-2.857-17.94C1106.5,749.725,1106.521,749.721,1105.194,749.721Zm-11.869-20.129c0-.665-.027-1.332.01-2,.021-.382-.152-.52-.471-.616a2.7,2.7,0,0,0-2.935.985,2.725,2.725,0,0,0-.025,3.1,2.69,2.69,0,0,0,2.849,1.054c.408-.1.621-.267.583-.739C1093.289,730.787,1093.325,730.188,1093.325,729.592Zm23.806-.077c0,.641.017,1.282-.007,1.922a.551.551,0,0,0,.44.647,2.693,2.693,0,0,0,2.933-.965,2.642,2.642,0,0,0-.016-3.2,2.7,2.7,0,0,0-2.947-.931.527.527,0,0,0-.412.6C1117.148,728.232,1117.13,728.874,1117.13,729.515Zm-11.923,18.136c1.91,0,2.151-.258,2.11-2.135-.009-.413-.119-.569-.547-.554-.78.028-1.562.008-2.343.008-1.407,0-1.407,0-1.307,1.415a1.219,1.219,0,0,0,1.329,1.264C1104.7,747.657,1104.954,747.65,1105.207,747.651Zm-11.884-11.71c0-.51.011-.906-.005-1.3-.006-.162.1-.39-.142-.466a.707.707,0,0,0-.585.116c-.206.135-.049.32,0,.484A2.626,2.626,0,0,0,1093.324,735.941Zm23.824.014a3.166,3.166,0,0,0,.717-1.222c.04-.138.219-.3.039-.432a.74.74,0,0,0-.59-.129c-.226.047-.158.251-.162.4C1117.14,734.976,1117.147,735.384,1117.147,735.955Z" fill="#030303"/>
      <path id="Trazado_641912" data-name="Trazado 641912" d="M1126.455,721.781a6.882,6.882,0,0,1,5.569-5.578,6.674,6.674,0,0,1,1.368-.09c3.9-.006,7.8.009,11.7-.01a6.835,6.835,0,0,1,4.144,1.224,1.245,1.245,0,0,0,1.69.025,8.215,8.215,0,0,1,1.4,2.042,1.252,1.252,0,0,0-.448,1.564,6.025,6.025,0,0,1,.335,2.345,4.71,4.71,0,0,0-.67-.14,31.065,31.065,0,0,1-4.927-.786c-1.412-.327-1.451-.321-1.116,1.121.152.656-.172.693-.6.606a34.778,34.778,0,0,0-4.106-.219c-1.979-.17-3.96-.337-5.92-.628C1132.058,722.838,1129.261,722.28,1126.455,721.781Z" transform="translate(-34.05 -5.423)" fill="#5d889d"/>
      <path id="Trazado_641913" data-name="Trazado 641913" d="M1244,859.136a1.24,1.24,0,0,0-.153,1.726c1.4,2.392,2.8,4.787,4.163,7.2a6.151,6.151,0,0,1-3.5,9.122,6.49,6.49,0,0,1-1.968.264c-5.742,0-11.484.017-17.225-.006a6.148,6.148,0,0,1-5.454-9.386q4.281-7.533,8.667-15a6.151,6.151,0,0,1,10.795-.028c.641,1.058,1.24,2.143,1.862,3.213.477.822.7.919,1.622.734Zm-10.071,16.78h8.818c.046,0,.092,0,.138,0a4.97,4.97,0,0,0,.751-.058,4.657,4.657,0,0,0,3.058-7.07c-2.47-4.258-4.92-8.527-7.394-12.783a21.726,21.726,0,0,0-1.85-3.051,4.61,4.61,0,0,0-7.262.365c-1.175,1.8-2.2,3.7-3.282,5.557-1.828,3.148-3.625,6.314-5.478,9.446a5.325,5.325,0,0,0-.8,4.2,4.577,4.577,0,0,0,4.548,3.4Q1229.554,875.918,1233.928,875.916Z" transform="translate(-101 -102.213)" fill="#f8e080"/>
      <path id="Trazado_641914" data-name="Trazado 641914" d="M1150.782,763.567a1.639,1.639,0,0,0,.9-.375,16.282,16.282,0,0,0,5.213,1.021c.014,1.354.037,2.708.04,4.062.006,2.987.011,5.973,0,8.96a4.724,4.724,0,0,1-3.585,4.918,3.955,3.955,0,0,1-1.017.143c-3.492.01-6.986.1-10.474-.023-2.835-.1-4.581-2.113-4.586-4.979q-.01-6.2,0-12.406c0-.6.014-1.194.021-1.79.976.213,1.949.447,2.93.634a49.279,49.279,0,0,0,9.343,1.019C1150.768,764.748,1150.768,764.751,1150.782,763.567Zm-2.166,7.9h-.014c0-1.17.017-2.341-.007-3.511a.935.935,0,0,0-.958-.976.949.949,0,0,0-1.047.88,4.145,4.145,0,0,0-.047.683c0,1.584-.012,3.168.005,4.752,0,.379-.048.557-.5.589a.923.923,0,0,0-.888,1.036.979.979,0,0,0,.967.983,10.741,10.741,0,0,0,1.17.015c.931-.012,1.3-.363,1.312-1.282C1148.627,773.576,1148.616,772.52,1148.616,771.464Zm-7.478-2.449a1.028,1.028,0,0,0,.025-2.052,1.027,1.027,0,0,0-.025,2.052Zm11.847-2.052a1.028,1.028,0,0,0-.026,2.053,1.027,1.027,0,0,0,.026-2.053Z" transform="translate(-41.874 -39.434)" fill="#f6cfb1"/>
      <path id="Trazado_641915" data-name="Trazado 641915" d="M1103.368,863.47c-2.159.008-4.319.005-6.478.032-.412.005-.49-.147-.485-.516.017-1.539.009-3.079,0-4.618a4.824,4.824,0,0,0-.051-.754.928.928,0,0,0-1.014-.834.906.906,0,0,0-.95.825,10.274,10.274,0,0,0-.055,1.236c-.006,1.356-.014,2.711,0,4.066.005.408-.047.606-.546.6-2.113-.031-4.228-.017-6.341-.009-.316,0-.484-.016-.45-.436a23.706,23.706,0,0,1,8.08-16.356,22.112,22.112,0,0,1,10.216-5.261,6.274,6.274,0,0,0,.85,3.68c.122.177.061.335.029.519q-.382,2.258-.736,4.521-.61,3.883-1.209,7.767Q1103.805,860.7,1103.368,863.47Z" transform="translate(-5.497 -96.138)" fill="#a8eef3"/>
      <path id="Trazado_641916" data-name="Trazado 641916" d="M1194.045,863.43l-2.2,0a6.053,6.053,0,0,0-.03-.754c-.305-1.887-.631-3.77-.933-5.657-.553-3.46-1.114-6.918-1.619-10.385-.073-.5-.393-1.051-.084-1.538a6.1,6.1,0,0,0,.732-3.7,9.7,9.7,0,0,1,2.349.664c.063.158.174.169.311.1l.016,0c.086.331.4.41.641.552.4.229.817.418,1.2.661a24.571,24.571,0,0,1,6.432,5.713.883.883,0,0,1,.141,1.153q-2.471,4.243-4.918,8.5A14.017,14.017,0,0,0,1194.045,863.43Z" transform="translate(-79.354 -96.098)" fill="#a8eff4"/>
      <path id="Trazado_641917" data-name="Trazado 641917" d="M1161.161,857.324c1.327,0,1.3,0,1.507,1.3q1.409,8.973,2.857,17.94a1.686,1.686,0,0,1-.658,1.864c-1.158.9-2.226,1.919-3.314,2.907-.279.253-.452.254-.735,0-1.242-1.126-2.5-2.232-3.768-3.332a.762.762,0,0,1-.3-.774q1.21-7.542,2.4-15.086c.208-1.314.447-2.625.6-3.945.078-.651.259-1.026.989-.874A2.055,2.055,0,0,0,1161.161,857.324Z" transform="translate(-55.967 -107.603)" fill="#ea6964"/>
      <path id="Trazado_641918" data-name="Trazado 641918" d="M1125.91,736.655c2.806.5,5.6,1.057,8.421,1.475,1.96.291,3.941.458,5.92.628a34.778,34.778,0,0,1,4.106.219c.426.088.75.051.6-.606-.335-1.442-.3-1.448,1.116-1.121a31.064,31.064,0,0,0,4.927.786,4.712,4.712,0,0,1,.67.14c.009,2.135.005,4.27.036,6.4.007.544-.323.588-.706.609-.474.027-.331-.341-.34-.582-.019-.5.017-1.012-.016-1.515a1.139,1.139,0,0,0-1.167-1.2,21.913,21.913,0,0,1-6.752-1.476.969.969,0,0,0-1.4,1.034c.086.8-.246.89-.911.85a64.758,64.758,0,0,1-11.544-1.725c-.2-.049-.4-.1-.6-.146a1.072,1.072,0,0,0-1.428,1.109c-.023,1.056,0,2.113-.01,3.169,0,.207.087.531-.294.471-.3-.047-.8.1-.791-.419A68.716,68.716,0,0,1,1125.91,736.655Z" transform="translate(-33.505 -20.297)" fill="#416d82"/>
      <path id="Trazado_641919" data-name="Trazado 641919" d="M1203.319,865.445a14.017,14.017,0,0,1,2.047-4.693q2.454-4.253,4.918-8.5a.883.883,0,0,0-.141-1.153,24.567,24.567,0,0,0-6.432-5.713c-.387-.243-.808-.432-1.2-.661-.246-.142-.555-.221-.641-.552a23.405,23.405,0,0,1,10.207,7.1c.3.351.03.549-.1.776q-3.047,5.3-6.11,10.6a7.243,7.243,0,0,0-.952,2.121c-.119.589-.4.8-.974.711A5.047,5.047,0,0,0,1203.319,865.445Z" transform="translate(-88.628 -98.112)" fill="#7edee9"/>
      <path id="Trazado_641920" data-name="Trazado 641920" d="M1186.713,840.774a6.1,6.1,0,0,1-.732,3.7c-.31.487.011,1.04.084,1.538.505,3.467,1.066,6.925,1.619,10.385.3,1.887.627,3.77.933,5.657a6.076,6.076,0,0,1,.03.754,3.955,3.955,0,0,0-.548.031c-.49.094-.613-.166-.679-.591q-1.367-8.733-2.753-17.464a.83.83,0,0,1,.12-.778,3.445,3.445,0,0,0,.751-2.436C1185.538,840.381,1185.544,840.381,1186.713,840.774Z" transform="translate(-76.151 -95.483)" fill="#7edee9"/>
      <path id="Trazado_641921" data-name="Trazado 641921" d="M1146.241,862.611q.435-2.769.869-5.538.605-3.883,1.209-7.767.355-2.262.736-4.521c.031-.184.093-.343-.029-.519a6.273,6.273,0,0,1-.85-3.68l1.246-.328c0,.557-.011,1.035,0,1.513a2.682,2.682,0,0,0,.51,1.682,1.619,1.619,0,0,1,.315,1.446c-.911,5.649-1.815,11.3-2.672,16.956-.106.7-.379.88-1,.782C1146.47,862.618,1146.355,862.619,1146.241,862.611Z" transform="translate(-48.37 -95.278)" fill="#7edee9"/>
      <path id="Trazado_641922" data-name="Trazado 641922" d="M1119.587,777.427c0,.6-.036,1.2.012,1.788.038.472-.175.635-.583.739a2.69,2.69,0,0,1-2.849-1.054,2.725,2.725,0,0,1,.025-3.1,2.7,2.7,0,0,1,2.935-.985c.319.1.492.234.471.616C1119.561,776.095,1119.587,776.762,1119.587,777.427Z" transform="translate(-26.263 -47.835)" fill="#f1bd95"/>
      <path id="Trazado_641923" data-name="Trazado 641923" d="M1215.933,777.336c0-.641.018-1.282-.008-1.922a.526.526,0,0,1,.412-.6,2.7,2.7,0,0,1,2.947.931,2.642,2.642,0,0,1,.016,3.2,2.693,2.693,0,0,1-2.934.965.551.551,0,0,1-.44-.647C1215.95,778.618,1215.933,777.976,1215.933,777.336Z" transform="translate(-98.803 -47.821)" fill="#f1bd95"/>
      <path id="Trazado_641924" data-name="Trazado 641924" d="M1150.846,760.375c-.015,1.183-.015,1.18-1.22,1.182a49.269,49.269,0,0,1-9.343-1.019c-.981-.188-1.954-.422-2.93-.634v-1.219c1.924.431,3.828.8,5.748,1.074A62.689,62.689,0,0,0,1150.846,760.375Z" transform="translate(-41.937 -36.242)" fill="#f1bd95"/>
      <path id="Trazado_641925" data-name="Trazado 641925" d="M1167.23,842.883c-.253,0-.505.007-.758,0a1.219,1.219,0,0,1-1.329-1.264c-.1-1.415-.1-1.415,1.307-1.415.781,0,1.563.021,2.343-.007.427-.016.538.141.547.554C1169.382,842.626,1169.14,842.884,1167.23,842.883Z" transform="translate(-62.023 -95.233)" fill="#ea6964"/>
      <path id="Trazado_641926" data-name="Trazado 641926" d="M1194.655,761.788a16.278,16.278,0,0,1-5.213-1.021c.036-.083.106-.167.1-.249-.025-1.079.6-.766,1.2-.589a20.279,20.279,0,0,0,2.945.567C1194.8,760.649,1194.8,760.644,1194.655,761.788Z" transform="translate(-79.636 -37.008)" fill="#d9ac8a"/>
      <path id="Trazado_641927" data-name="Trazado 641927" d="M1127.588,802.848a2.629,2.629,0,0,1-.73-1.168c-.052-.164-.209-.349,0-.484a.707.707,0,0,1,.585-.116c.242.076.136.3.142.466C1127.6,801.942,1127.588,802.338,1127.588,802.848Z" transform="translate(-34.265 -66.907)" fill="#416d82"/>
      <path id="Trazado_641928" data-name="Trazado 641928" d="M1216.009,802.881c0-.572-.007-.979,0-1.387,0-.146-.064-.349.162-.4a.74.74,0,0,1,.59.129c.18.133,0,.294-.039.432A3.166,3.166,0,0,1,1216.009,802.881Z" transform="translate(-98.862 -66.926)" fill="#416d82"/>
      <path id="Trazado_641929" data-name="Trazado 641929" d="M1201,843.893c-.137.069-.248.058-.311-.1Z" transform="translate(-87.773 -97.837)" fill="#7edee9"/>
      <path id="Trazado_641930" data-name="Trazado 641930" d="M1237.9,879.893q-4.375,0-8.749,0a4.577,4.577,0,0,1-4.548-3.4,5.325,5.325,0,0,1,.8-4.2c1.853-3.132,3.65-6.3,5.478-9.447,1.08-1.861,2.107-3.758,3.282-5.557a4.61,4.61,0,0,1,7.262-.365,21.718,21.718,0,0,1,1.85,3.051c2.474,4.255,4.924,8.525,7.394,12.783a4.657,4.657,0,0,1-3.058,7.07,4.962,4.962,0,0,1-.751.058c-.046,0-.092,0-.138,0Zm-.007-1.343q4.17,0,8.34,0a4.521,4.521,0,0,0,1.5-.16c2.134-.736,2.885-2.964,1.675-5.067q-4.22-7.335-8.464-14.656a4.1,4.1,0,0,0-.878-1.138,3.267,3.267,0,0,0-5.069.94c-2.919,4.987-5.792,10-8.675,15.011a3.349,3.349,0,0,0-.457,1.214,3.26,3.26,0,0,0,3.414,3.85C1232.151,878.57,1235.023,878.55,1237.895,878.55Z" transform="translate(-104.973 -106.191)" fill="#f3cb61"/>
      <path id="Trazado_641931" data-name="Trazado 641931" d="M1169.307,781.622c0,1.056.01,2.112,0,3.168-.012.919-.381,1.27-1.312,1.282a10.725,10.725,0,0,1-1.17-.015.979.979,0,0,1-.968-.983.923.923,0,0,1,.888-1.036c.449-.031.5-.21.5-.589-.018-1.584-.009-3.168-.005-4.752a4.132,4.132,0,0,1,.047-.683.949.949,0,0,1,1.047-.88.934.934,0,0,1,.958.976c.025,1.17.008,2.341.008,3.511Z" transform="translate(-62.564 -49.592)" fill="#060504"/>
      <path id="Trazado_641932" data-name="Trazado 641932" d="M1148.7,779.141a1.028,1.028,0,1,1,.974-1.013A.983.983,0,0,1,1148.7,779.141Z" transform="translate(-49.435 -49.56)" fill="#060504"/>
      <path id="Trazado_641933" data-name="Trazado 641933" d="M1191.6,777.09a1.028,1.028,0,1,1-.98,1.015A.991.991,0,0,1,1191.6,777.09Z" transform="translate(-80.489 -49.561)" fill="#060504"/>
      <path id="Trazado_641934" data-name="Trazado 641934" d="M1241.5,882.134c-2.872,0-5.744.02-8.615-.007a3.26,3.26,0,0,1-3.414-3.85,3.348,3.348,0,0,1,.457-1.214c2.882-5.009,5.755-10.024,8.675-15.011a3.267,3.267,0,0,1,5.069-.94,4.1,4.1,0,0,1,.878,1.138q4.235,7.327,8.464,14.656c1.21,2.1.459,4.331-1.675,5.067a4.526,4.526,0,0,1-1.5.161Q1245.671,882.138,1241.5,882.134Zm-.019-2.071c2.825,0,5.651-.057,8.474.025a1.354,1.354,0,0,0,1.262-2.2c-2.855-4.839-5.636-9.721-8.449-14.585-.739-1.277-1.772-1.28-2.508-.005-2.812,4.864-5.594,9.746-8.445,14.587-.617,1.047-.211,2.242,1.262,2.2C1235.878,880.008,1238.681,880.063,1241.483,880.063Z" transform="translate(-108.58 -109.775)" fill="#030402"/>
      <path id="Trazado_641935" data-name="Trazado 641935" d="M1247,885.45c-2.8,0-5.605-.055-8.405.022-1.473.041-1.879-1.154-1.262-2.2,2.851-4.841,5.633-9.723,8.445-14.587.737-1.274,1.769-1.272,2.508.005,2.813,4.864,5.595,9.746,8.449,14.585a1.354,1.354,0,0,1-1.262,2.2C1252.648,885.393,1249.821,885.45,1247,885.45Zm-3.484-6.32a1.029,1.029,0,0,0-.7,1.746c.469.5.962.986,1.451,1.47.756.746,1.232.75,1.985,0q2.392-2.381,4.774-4.773a2.673,2.673,0,0,0,.315-.363.945.945,0,0,0-.091-1.312.975.975,0,0,0-1.37-.073,3.9,3.9,0,0,0-.453.422c-1.251,1.249-2.515,2.486-3.742,3.758-.343.356-.544.347-.86-.01A1.888,1.888,0,0,0,1243.512,879.13Z" transform="translate(-114.094 -115.161)" fill="#66d2a3"/>
      <path id="Trazado_641936" data-name="Trazado 641936" d="M1257.825,899.7a1.888,1.888,0,0,1,1.309.865c.316.356.517.365.86.01,1.227-1.272,2.491-2.509,3.742-3.758a3.9,3.9,0,0,1,.453-.422.975.975,0,0,1,1.37.073.945.945,0,0,1,.091,1.313,2.673,2.673,0,0,1-.315.363q-2.385,2.389-4.774,4.773c-.753.749-1.23.746-1.985,0-.49-.484-.982-.966-1.451-1.47a1.029,1.029,0,0,1,.7-1.746Z" transform="translate(-128.406 -135.728)" fill="#030402"/>
    </g>
  </g>
</svg>
