<svg xmlns="http://www.w3.org/2000/svg" width="82" height="82" viewBox="0 0 82 82">
  <g id="_45" data-name="45" transform="translate(-498 -22866.387)">
    <g id="Grupo_956681" data-name="Grupo 956681" transform="translate(195 18937.387)">
      <g id="Grupo_951854" data-name="Grupo 951854" transform="translate(303 3929)">
        <path id="Trazado_621807" data-name="Trazado 621807" d="M41,0A41,41,0,1,1,0,41,41,41,0,0,1,41,0Z" fill="#ef8b53"/>
      </g>
    </g>
    <g id="Grupo_1099428" data-name="Grupo 1099428" transform="translate(-911.563 22261.508)">
      <path id="Trazado_641965" data-name="Trazado 641965" d="M1427.771,645.855q0-14.509,0-29.018a3.2,3.2,0,0,1,2.605-3.473,4.875,4.875,0,0,1,.949-.069q19.243-.005,38.487,0a3.2,3.2,0,0,1,3.532,3.436q.01,24.341.01,48.681a1,1,0,0,1-.315.779q-5.991,5.975-11.963,11.97a.925.925,0,0,1-.719.3q-14.6-.011-29.2-.01a3.2,3.2,0,0,1-3.387-3.516Q1427.766,660.4,1427.771,645.855Zm40.138,19.607c.053,1.04.053,1.04-1,1.04q-1.97,0-3.941,0c-1.253,0-1.562.314-1.563,1.591q0,2.957,0,5.913c0,.2-.08.417.1.639.159-.148.313-.284.458-.429q3.035-3.034,6.066-6.071c.88-.884,1.747-1.781,2.62-2.673a1.053,1.053,0,0,0,.533-1.046q-.018-23.733-.01-47.465c0-1.2-.3-1.5-1.5-1.5h-38.227c-1.2,0-1.507.3-1.507,1.5q0,28.918,0,57.836c0,1.194.3,1.493,1.51,1.493q13.58,0,27.16.015c.559,0,.643-.17.638-.672-.026-2.566-.018-5.133-.01-7.7a3.272,3.272,0,0,1,3.585-3.6c1.251,0,2.5,0,3.753,0C1467.781,664.333,1467.781,664.333,1467.908,665.462Z" transform="translate(0 0)" fill="#020202"/>
      <path id="Trazado_641966" data-name="Trazado 641966" d="M1474.248,671.8c-.127-1.128-.127-1.128-1.332-1.128-1.251,0-2.5,0-3.753,0a3.272,3.272,0,0,0-3.585,3.6c-.007,2.566-.016,5.133.01,7.7.005.5-.079.674-.638.672q-13.58-.031-27.16-.015c-1.207,0-1.51-.3-1.51-1.494q0-28.918,0-57.836c0-1.2.3-1.5,1.507-1.5h38.227c1.2,0,1.5.3,1.5,1.5q0,23.732.01,47.465a1.053,1.053,0,0,1-.533,1.046Zm-27.131-29.96c0,2.015.016,4.03-.012,6.045a.847.847,0,0,0,.551.914q4.385,2.15,8.739,4.364a.965.965,0,0,0,.993.011q4.385-2.221,8.794-4.394a.767.767,0,0,0,.514-.809q-.031-6.077,0-12.153a.767.767,0,0,0-.52-.806q-4.409-2.177-8.794-4.4a.93.93,0,0,0-.943-.011q-4.416,2.235-8.851,4.429a.729.729,0,0,0-.48.768C1447.129,637.807,1447.117,639.822,1447.117,641.837Zm9.777,15.821h12.656c1.472,0,1.432,0,1.49-1.474.025-.652-.2-.736-.777-.735q-12.974.028-25.947.019c-.5,0-1.167-.231-1.457.111-.244.288-.024.938-.089,1.417-.083.607.184.676.706.673C1447.947,657.65,1452.42,657.658,1456.893,657.658Zm.007,5.413h12.654c1.467,0,1.439,0,1.479-1.473.016-.57-.125-.731-.717-.729q-13,.032-26.008.015c-1.532,0-1.507,0-1.543,1.541-.012.527.119.663.653.66C1447.912,663.06,1452.406,663.071,1456.9,663.071Zm-.022,5.43h12.653c1.49,0,1.456,0,1.5-1.507.019-.585-.165-.675-.7-.674q-13,.026-26.005.017c-.5,0-1.184-.225-1.454.1-.254.305-.048.969-.107,1.467-.062.524.153.61.627.608C1447.892,668.494,1452.385,668.5,1456.878,668.5Zm-4.893,5.448h7.75c1.5,0,1.468,0,1.519-1.5.021-.619-.2-.7-.742-.7-5.357.019-10.715.008-16.073.017-.543,0-1.267-.242-1.577.116-.266.306-.043,1.013-.092,1.538-.044.473.151.548.574.545C1446.224,673.94,1449.1,673.949,1451.985,673.949Zm4.878-45.634c1.654,0,3.308,0,4.962,0,.5,0,1.18.167,1.469-.09.344-.3.05-1,.119-1.518.066-.491-.127-.589-.593-.586-3.583.02-7.166.006-10.75.017-.543,0-1.285-.245-1.577.108-.274.334-.062,1.051-.109,1.6-.036.411.123.487.5.484C1452.877,628.305,1454.87,628.315,1456.863,628.315Z" transform="translate(-6.339 -6.335)" fill="#e7e7e7"/>
      <path id="Trazado_641967" data-name="Trazado 641967" d="M1566.125,817.852l2.748.01c-.873.891-1.74,1.789-2.62,2.673q-3.027,3.041-6.066,6.071c-.145.145-.3.281-.458.43-.183-.222-.1-.441-.1-.639q-.011-2.956,0-5.913c0-1.276.31-1.59,1.563-1.591q1.97,0,3.941,0C1566.179,818.892,1566.179,818.892,1566.125,817.852Z" transform="translate(-98.217 -152.39)" fill="#b0b0b1"/>
      <path id="Trazado_641968" data-name="Trazado 641968" d="M1478.735,667.182c0-2.015.012-4.03-.01-6.045a.729.729,0,0,1,.48-.768q4.436-2.194,8.851-4.429a.93.93,0,0,1,.943.011q4.388,2.218,8.794,4.4a.767.767,0,0,1,.52.806q-.029,6.076,0,12.153a.767.767,0,0,1-.514.809q-4.408,2.174-8.795,4.394a.965.965,0,0,1-.993-.011q-4.357-2.207-8.739-4.364a.848.848,0,0,1-.551-.914C1478.752,671.212,1478.735,669.2,1478.735,667.182Zm9.782,9.1c.042,0,.091.016.124,0q3.605-1.793,7.211-3.585c.264-.13.278-.324.277-.568q-.008-4.324-.007-8.648a.632.632,0,0,0-.057-.172.9.9,0,0,0-.192.061c-1.982,1.22-3.959,2.448-5.949,3.655a.671.671,0,0,0-.317.689c.007,1.526,0,3.052,0,4.578,0,1.16,0,1.16-1.086,1.278a1.072,1.072,0,0,0-.311-.04c-.638.109-.826-.132-.805-.786.051-1.651,0-3.305.027-4.958a.858.858,0,0,0-.478-.858c-1.866-1.126-3.713-2.282-5.571-3.423-.132-.081-.251-.247-.478-.135,0,2.868.011,5.747-.012,8.626a.771.771,0,0,0,.51.814c2.22,1.091,4.427,2.207,6.641,3.31C1488.2,676.2,1488.33,676.325,1488.518,676.286Zm6.526-14.923a9.136,9.136,0,0,0-2.7-1.172c-.757-.056-1.467.734-2.215,1.12-.075.038-.147.083-.221.124l-4.1,2.328c.868.521,1.664,1,2.456,1.478a.387.387,0,0,0,.463.022C1490.789,663.986,1492.854,662.715,1495.044,661.363Zm-5.119-2.489c-.41-.22-.745-.389-1.068-.578a.56.56,0,0,0-.59-.065c-2.049,1.033-4.1,2.06-6.245,3.136.565.358,1.059.669,1.549.985.154.1.274.034.408-.044C1485.93,661.18,1487.882,660.053,1489.925,658.874Z" transform="translate(-37.958 -31.68)" fill="#030303"/>
      <path id="Trazado_641969" data-name="Trazado 641969" d="M1475.762,755.792c-4.473,0-8.946-.008-13.419.011-.522,0-.79-.067-.706-.674.066-.479-.155-1.129.09-1.417.289-.342.956-.11,1.456-.111q12.974-.012,25.947-.019c.578,0,.8.082.777.735-.058,1.472-.018,1.474-1.49,1.474Z" transform="translate(-25.208 -104.469)" fill="#040404"/>
      <path id="Trazado_641970" data-name="Trazado 641970" d="M1475.844,777.2c-4.494,0-8.987-.01-13.481.013-.534,0-.665-.133-.653-.66.036-1.541.011-1.541,1.543-1.541q13,0,26.008-.015c.592,0,.732.16.717.729-.04,1.472-.013,1.473-1.479,1.473Z" transform="translate(-25.283 -120.467)" fill="#030303"/>
      <path id="Trazado_641971" data-name="Trazado 641971" d="M1475.772,798.384c-4.493,0-8.986-.007-13.479.01-.474,0-.689-.084-.627-.608.058-.5-.147-1.162.107-1.467.27-.324.953-.1,1.454-.1q13-.01,26.006-.017c.533,0,.718.089.7.674-.049,1.506-.015,1.507-1.505,1.507Z" transform="translate(-25.233 -136.218)"/>
      <path id="Trazado_641972" data-name="Trazado 641972" d="M1470.824,819.658c-2.88,0-5.76-.008-8.64.009-.423,0-.618-.073-.574-.545.049-.525-.174-1.232.092-1.538.311-.358,1.035-.116,1.577-.116,5.358-.009,10.715,0,16.073-.017.544,0,.764.084.742.7-.051,1.5-.016,1.5-1.519,1.5Z" transform="translate(-25.178 -152.044)" fill="#040404"/>
      <path id="Trazado_641973" data-name="Trazado 641973" d="M1497.964,640.749c-1.993,0-3.986-.01-5.979.008-.377,0-.536-.073-.5-.484.048-.544-.165-1.261.109-1.6.291-.354,1.033-.107,1.577-.108,3.583-.01,7.167,0,10.75-.017.466,0,.659.1.593.586-.069.518.225,1.213-.119,1.518-.29.257-.965.089-1.469.09C1501.272,640.752,1499.618,640.749,1497.964,640.749Z" transform="translate(-47.44 -18.769)" fill="#020202"/>
      <path id="Trazado_641974" data-name="Trazado 641974" d="M1494.869,698.251c-.188.039-.323-.089-.469-.161-2.214-1.1-4.422-2.219-6.641-3.31a.771.771,0,0,1-.51-.814c.023-2.879.012-5.758.012-8.627.227-.111.345.054.477.135,1.857,1.14,3.7,2.3,5.571,3.422a.858.858,0,0,1,.478.858c-.025,1.653.024,3.307-.027,4.958-.021.654.167.895.805.786a1.074,1.074,0,0,1,.311.04Z" transform="translate(-44.31 -53.644)" fill="#c5ae95"/>
      <path id="Trazado_641975" data-name="Trazado 641975" d="M1517.129,698.18l.007-2.712c1.086-.118,1.086-.118,1.086-1.278,0-1.526,0-3.052,0-4.578a.671.671,0,0,1,.317-.689c1.99-1.208,3.966-2.436,5.949-3.655a.9.9,0,0,1,.192-.061.631.631,0,0,1,.057.172q0,4.324.007,8.648c0,.244-.014.438-.277.568q-3.61,1.784-7.211,3.585C1517.22,698.2,1517.171,698.181,1517.129,698.18Z" transform="translate(-66.57 -53.574)" fill="#dbc6ad"/>
      <path id="Trazado_641976" data-name="Trazado 641976" d="M1515.746,674.131c-2.19,1.351-4.254,2.622-6.314,3.9a.387.387,0,0,1-.463-.022c-.792-.483-1.588-.957-2.456-1.478l4.1-2.328c.073-.042.146-.086.221-.124.748-.386,1.458-1.176,2.215-1.12A9.133,9.133,0,0,1,1515.746,674.131Z" transform="translate(-58.661 -44.447)" fill="#e5d5bd"/>
      <path id="Trazado_641977" data-name="Trazado 641977" d="M1499.562,665.755c-2.042,1.179-3.995,2.305-5.946,3.435-.134.078-.253.144-.408.044-.49-.317-.984-.627-1.549-.985,2.144-1.076,4.2-2.1,6.245-3.136a.56.56,0,0,1,.59.065C1498.818,665.366,1499.153,665.534,1499.562,665.755Z" transform="translate(-47.596 -38.56)" fill="#e5d4bd"/>
    </g>
  </g>
</svg>
