<svg xmlns="http://www.w3.org/2000/svg" width="85" height="85" viewBox="0 0 85 85">
  <g id="Grupo_968840" data-name="Grupo 968840" transform="translate(-180 -6099)">
    <rect id="Rectángulo_34178" data-name="Rectángulo 34178" width="85" height="85" transform="translate(180 6099)" fill="none"/>
    <g id="Grupo_956689" data-name="Grupo 956689" transform="translate(-1218.781 5388.815)">
      <path id="Trazado_631444" data-name="Trazado 631444" d="M1470.911,745.982l.695.015c.109.838.69,1.079,1.428,1.191a19.464,19.464,0,0,1,12.63,7.2,19.14,19.14,0,0,1,4.156,9.667c.1.77.386,1.361,1.26,1.451q.007,1.45.014,2.9c-.9.134-1.126.36-1.286,1.389a19.861,19.861,0,0,1-3.774,9,22.333,22.333,0,0,1-5.472,5.021,7.416,7.416,0,0,0-3.352,6.47c-.007,1.366-.019,2.733-.029,4.1l-.128.113-12.021,0q0-1.977,0-3.954a6.61,6.61,0,0,0-3.223-5.99,19.669,19.669,0,0,1-4.879-4.353,20.272,20.272,0,0,1-4.452-16.719,20.638,20.638,0,0,1,10.186-14.69c.211-.128.516-.189.535-.525l.031-.005c.148.08.264.066.323-.112a15.139,15.139,0,0,1,3.769-.967,1.617,1.617,0,0,0,1.317-.763A17.975,17.975,0,0,0,1470.911,745.982Zm-.815,36.978h1.759c.049,0,.1,0,.147,0a1.584,1.584,0,0,0,1.672-1.653,8.157,8.157,0,0,0-.009-1.61,1.672,1.672,0,0,1,1.413-2.2.753.753,0,0,1,.877.2c.6.64,1.223,1.265,1.864,1.866a1.562,1.562,0,0,0,2.344.022q1.361-1.279,2.644-2.641a1.57,1.57,0,0,0-.02-2.348,9.213,9.213,0,0,0-1.2-1.185,1.577,1.577,0,0,1-.545-2.366c.248-.414.422-.614.913-.588.8.043,1.612.027,2.417.008a1.609,1.609,0,0,0,1.79-1.758c.02-1.221.026-2.444-.005-3.664a1.532,1.532,0,0,0-1.621-1.608c-.536-.021-1.074-.005-1.612-.005-1.589,0-1.577-.006-2.22-1.454a.558.558,0,0,1,.132-.757q.986-.929,1.919-1.915a1.543,1.543,0,0,0,.068-2.341q-1.3-1.387-2.694-2.694a1.525,1.525,0,0,0-2.238-.024c-.425.366-.8.784-1.2,1.181-1.126,1.125-1.122,1.116-2.587.543a.563.563,0,0,1-.437-.63c.027-.9.026-1.808,0-2.711a1.526,1.526,0,0,0-1.545-1.686c-1.316-.058-2.638-.057-3.954,0a1.516,1.516,0,0,0-1.528,1.627,8.111,8.111,0,0,0,.009,1.61,1.679,1.679,0,0,1-1.4,2.2c-.385.094-.6.109-.871-.185q-.9-.965-1.863-1.867a1.55,1.55,0,0,0-2.348-.049q-1.388,1.3-2.693,2.7a1.535,1.535,0,0,0-.009,2.234,8.049,8.049,0,0,0,1.193,1.187,1.664,1.664,0,0,1,.553,2.547c-.208.329-.338.512-.746.5-.854-.032-1.71-.021-2.564-.006a1.566,1.566,0,0,0-1.754,1.7q-.035,1.795,0,3.591a1.6,1.6,0,0,0,1.734,1.74,7.409,7.409,0,0,0,1.536-.01,1.672,1.672,0,0,1,2.193,1.424.694.694,0,0,1-.178.814c-.639.6-1.264,1.224-1.866,1.864a1.589,1.589,0,0,0,0,2.455c.827.864,1.672,1.714,2.54,2.538a1.58,1.58,0,0,0,2.4,0,7.605,7.605,0,0,0,1.13-1.146,1.626,1.626,0,0,1,2.5-.533c.326.2.528.315.51.738-.038.878-.029,1.759-.007,2.638a1.582,1.582,0,0,0,1.692,1.7C1468.922,782.973,1469.509,782.959,1470.1,782.96Z" transform="translate(-28.878 -21.776)" fill="#f5c765"/>
      <path id="Trazado_631445" data-name="Trazado 631445" d="M1458.662,743.938a1.617,1.617,0,0,1-1.317.763,15.14,15.14,0,0,0-3.769.967l-.323.113-.031.006a19.392,19.392,0,0,0-8.726,6.4,19.821,19.821,0,0,0,5.054,28.977,7.4,7.4,0,0,1,3.588,6.7c-.006.781,0,1.562,0,2.343,0,1.913,0,1.913,1.924,1.808l12.021,0c.094.021.145-.008.128-.113.01-1.366.022-2.733.029-4.1a7.416,7.416,0,0,1,3.352-6.47,22.329,22.329,0,0,0,5.472-5.021,19.859,19.859,0,0,0,3.775-9c.16-1.028.385-1.255,1.286-1.389.851.334,1.049.617.918,1.486a21.754,21.754,0,0,1-8.729,14.682c-.526.4-1.072.766-1.609,1.147a5.053,5.053,0,0,0-2.239,4.08c-.062,1.487-.01,2.979-.03,4.469a.606.606,0,0,0,.393.611,2.753,2.753,0,0,1,1.533,2.626c-.021,1.037.18,2.114-.486,3.05-.107.15-.022.271.052.4a5.566,5.566,0,0,1,.327,3.784,2.618,2.618,0,0,1-2.56,2.117c-1.048.043-2.1.034-3.149.017-.379-.006-.519.1-.5.495.025.707.023,1.417-.006,2.125a2.514,2.514,0,0,1-2.42,2.465q-2.416.075-4.835,0a2.52,2.52,0,0,1-2.437-2.45,18.648,18.648,0,0,1-.007-1.977c.029-.5-.1-.69-.638-.663-.9.044-1.807.027-2.71.008a2.807,2.807,0,0,1-2.966-2.995,4.683,4.683,0,0,1,.46-2.98c.154-.216,0-.357-.084-.525a5.968,5.968,0,0,1-.25-3.8,2.4,2.4,0,0,1,1.324-1.665c.2-.107.473-.154.465-.487-.041-1.733.116-3.472-.078-5.2a5.067,5.067,0,0,0-2.575-3.794,20.376,20.376,0,0,1-6.349-6.191c-4.7-7.319-5.209-14.957-1.205-22.685a21.394,21.394,0,0,1,15.159-11.365c.428-.093.863-.165,1.3-.219.96-.12,1.246.074,1.554,1.013Q1458.7,743.724,1458.662,743.938Zm1.538,60.491c-2.709-.24-2.772-.189-2.663,2.165,0,.024,0,.048,0,.073-.021.431.2.628.615.626.68,0,1.361-.013,2.041-.02l2.036.021c.419,0,.59-.2.621-.622.168-2.3.175-2.3-2.072-2.278C1460.587,804.4,1460.393,804.417,1460.2,804.429Zm-8.952-8.714c-.1,1.285.022,1.424,1.26,1.425h15.361c1.239,0,1.362-.141,1.259-1.425.1-1.389.025-1.472-1.339-1.472h-4.6q-5.444,0-10.889,0c-.968,0-1.088.127-1.079,1.109C1451.218,795.474,1451.237,795.595,1451.248,795.716Zm0,5.131c-.1,1.249-.007,1.351,1.24,1.351h15.391c1.246,0,1.341-.1,1.239-1.351.118-1.417.036-1.507-1.369-1.507H1456.5c-1.437,0-2.875-.006-4.313,0-.838,0-.966.144-.967,1C1451.217,800.508,1451.24,800.677,1451.253,800.846Z" transform="translate(-18.908 -19.292)" fill="#040303"/>
      <path id="Trazado_631446" data-name="Trazado 631446" d="M1537.836,763.005c-.873-.091-1.157-.681-1.259-1.451a19.141,19.141,0,0,0-4.156-9.667,19.464,19.464,0,0,0-12.63-7.2c-.739-.112-1.319-.353-1.428-1.191.311-.956.6-1.163,1.622-1.012a21.744,21.744,0,0,1,13.906,7.762,21.337,21.337,0,0,1,4.892,11.152C1538.906,762.34,1538.75,762.618,1537.836,763.005Z" transform="translate(-75.635 -19.272)" fill="#040403"/>
      <path id="Trazado_631447" data-name="Trazado 631447" d="M1511.856,718.05c0,.586.026,1.173-.007,1.758a1.137,1.137,0,0,1-1.062,1.179,1.123,1.123,0,0,1-1.126-1.187c-.031-1.171-.032-2.344.006-3.515a1.09,1.09,0,1,1,2.177.008c.036.583.007,1.171.007,1.757Z" transform="translate(-69.474 0)" fill="#0c0d0d"/>
      <path id="Trazado_631448" data-name="Trazado 631448" d="M1414.155,815.737c-.586,0-1.172.008-1.757,0a1.065,1.065,0,0,1-1.129-1.021,1.034,1.034,0,0,1,1-1.133c1.265-.056,2.536-.058,3.8,0a1.009,1.009,0,0,1,1.016,1.118,1.048,1.048,0,0,1-1.1,1.037C1415.376,815.759,1414.765,815.737,1414.155,815.737Z" transform="translate(0 -69.484)" fill="#060607"/>
      <path id="Trazado_631449" data-name="Trazado 631449" d="M1598.632,815.737c-.586,0-1.172.021-1.756-.006a1.076,1.076,0,0,1-1.106-1.037,1.045,1.045,0,0,1,1.021-1.118c1.265-.051,2.536-.051,3.8.006a1.033,1.033,0,0,1,1,1.133,1.064,1.064,0,0,1-1.129,1.02C1599.852,815.745,1599.242,815.737,1598.632,815.737Z" transform="translate(-130.299 -69.484)" fill="#060607"/>
      <path id="Trazado_631450" data-name="Trazado 631450" d="M1441.223,879.17a1.22,1.22,0,0,1-1.018-.614.906.906,0,0,1,.074-1.1c.923-.97,1.863-1.928,2.843-2.84a1.058,1.058,0,0,1,1.516,1.429,24.765,24.765,0,0,1-2.88,2.9A1.691,1.691,0,0,1,1441.223,879.17Z" transform="translate(-20.336 -112.436)" fill="#040404"/>
      <path id="Trazado_631451" data-name="Trazado 631451" d="M1575.281,877.947a1.145,1.145,0,0,1-.56,1.053.944.944,0,0,1-1.161-.068,26.539,26.539,0,0,1-2.831-2.847.962.962,0,0,1,.138-1.384.937.937,0,0,1,1.329-.1,29.864,29.864,0,0,1,2.892,2.891A1.386,1.386,0,0,1,1575.281,877.947Z" transform="translate(-112.45 -112.441)" fill="#040404"/>
      <path id="Trazado_631452" data-name="Trazado 631452" d="M1571.749,748.666a1.031,1.031,0,0,1-1.05-.533.951.951,0,0,1,.071-1.161c.924-.968,1.862-1.927,2.846-2.834a1.062,1.062,0,0,1,1.52,1.413,25.519,25.519,0,0,1-2.924,2.954A.682.682,0,0,1,1571.749,748.666Z" transform="translate(-112.48 -20.306)" fill="#040404"/>
      <path id="Trazado_631453" data-name="Trazado 631453" d="M1441.257,744a1.115,1.115,0,0,1,.791.41c.8.79,1.6,1.575,2.378,2.38a1.1,1.1,0,1,1-1.513,1.58c-.844-.81-1.668-1.641-2.48-2.484a1.027,1.027,0,0,1-.253-1.209A1.115,1.115,0,0,1,1441.257,744Z" transform="translate(-20.351 -20.376)" fill="#040404"/>
      <path id="Trazado_631454" data-name="Trazado 631454" d="M1508.242,746.174l.078-.429c.734.06,1.465-.276,2.2-.011A17.982,17.982,0,0,1,1508.242,746.174Z" transform="translate(-68.488 -21.527)" fill="#ebb249"/>
      <path id="Trazado_631455" data-name="Trazado 631455" d="M1474.859,794.789c-.586,0-1.173.014-1.758,0a1.582,1.582,0,0,1-1.692-1.7c-.022-.879-.031-1.76.007-2.638.018-.423-.184-.54-.51-.738a1.626,1.626,0,0,0-2.5.533,7.614,7.614,0,0,1-1.13,1.146,1.58,1.58,0,0,1-2.4,0c-.868-.824-1.713-1.673-2.54-2.538a1.589,1.589,0,0,1,0-2.455c.6-.64,1.227-1.26,1.866-1.864a.694.694,0,0,0,.178-.814,1.672,1.672,0,0,0-2.193-1.424,7.413,7.413,0,0,1-1.536.01,1.6,1.6,0,0,1-1.734-1.74q-.032-1.795,0-3.591a1.566,1.566,0,0,1,1.754-1.7c.855-.014,1.711-.026,2.564.006.408.015.538-.167.746-.5a1.664,1.664,0,0,0-.553-2.547,8.043,8.043,0,0,1-1.193-1.187,1.535,1.535,0,0,1,.009-2.234q1.3-1.387,2.693-2.7a1.55,1.55,0,0,1,2.348.049q.964.9,1.863,1.867c.274.295.486.279.871.185a1.679,1.679,0,0,0,1.4-2.2,8.12,8.12,0,0,1-.009-1.61,1.516,1.516,0,0,1,1.528-1.627c1.316-.06,2.638-.061,3.954,0a1.526,1.526,0,0,1,1.545,1.686c.022.9.023,1.808,0,2.711a.563.563,0,0,0,.437.63c1.465.573,1.461.582,2.587-.543.4-.4.777-.815,1.2-1.181a1.525,1.525,0,0,1,2.238.024q1.388,1.3,2.694,2.694a1.543,1.543,0,0,1-.068,2.341q-.932.983-1.919,1.915a.558.558,0,0,0-.132.757c.643,1.449.631,1.454,2.22,1.454.537,0,1.075-.016,1.612.005a1.532,1.532,0,0,1,1.621,1.608c.032,1.221.025,2.443.005,3.664a1.609,1.609,0,0,1-1.79,1.758c-.806.019-1.614.036-2.417-.008-.491-.026-.666.173-.913.588a1.577,1.577,0,0,0,.545,2.366,9.217,9.217,0,0,1,1.2,1.185,1.57,1.57,0,0,1,.02,2.348q-1.281,1.359-2.644,2.641a1.562,1.562,0,0,1-2.344-.022c-.642-.6-1.262-1.226-1.864-1.866a.753.753,0,0,0-.877-.2,1.672,1.672,0,0,0-1.413,2.2,8.158,8.158,0,0,1,.009,1.61,1.584,1.584,0,0,1-1.672,1.653c-.049,0-.1,0-.147,0Zm-11.946-14.713a7.267,7.267,0,0,0,1.083.021,1.5,1.5,0,0,1,1.851,1.193,7.478,7.478,0,0,0,.953,2.347,1.262,1.262,0,0,1-.238,1.652q-.565.569-1.132,1.136c-1.212,1.213-1.212,1.213-.005,2.418.671.669.671.669,1.3-.06.558-.542,1.128-1.071,1.67-1.628a1.247,1.247,0,0,1,1.649-.258,10.99,10.99,0,0,0,2.487,1.025,1.312,1.312,0,0,1,1.1,1.282c-.009.583-.025,1.166-.026,1.749,0,1.71,0,1.71,1.762,1.611.71.178.942-.094.888-.815-.062-.826,0-1.659-.018-2.489a1.2,1.2,0,0,1,.892-1.269,10.922,10.922,0,0,0,1.583-.557c2.292-1.226,2.08-.894,3.688.687,1.407,1.383,1.383,1.378,2.788-.036.376-.379.336-.6-.025-.932-.644-.6-1.245-1.24-1.871-1.857a1.26,1.26,0,0,1-.253-1.656,8.85,8.85,0,0,0,.69-1.449c.763-2.357.67-2.075,2.965-2.082,2.141-.007,2.127,0,2.043-2.122-.017-.433-.173-.533-.566-.524-.878.021-1.758-.011-2.636.011a1.332,1.332,0,0,1-1.458-1.059,8.6,8.6,0,0,0-.54-1.511c-1.089-2.085-.962-1.914.627-3.516.463-.466,1.255-.943,1.268-1.432.017-.62-.881-1.007-1.325-1.548-.251-.306-.432-.266-.688,0-.622.655-1.283,1.272-1.908,1.924a1.3,1.3,0,0,1-1.766.3,11.043,11.043,0,0,0-2.559-1.064,1.2,1.2,0,0,1-.95-1.3c.012-.805-.052-1.616.019-2.416.065-.739-.2-.973-.891-.827-.413-.017-.827-.018-1.239-.054-.435-.038-.538.169-.528.562.024,1,.018,2,.024,3a1.294,1.294,0,0,1-1,1.043,10.109,10.109,0,0,0-2.491,1.035,1.328,1.328,0,0,1-1.826-.313c-.5-.529-1.049-1.018-1.575-1.525-.629-.729-.629-.729-1.268-.091-.275.275-.535.568-.828.821-.333.287-.346.512-.012.825.656.614,1.268,1.275,1.916,1.9a1.276,1.276,0,0,1,.258,1.707,8.154,8.154,0,0,0-.992,2.491,1.5,1.5,0,0,1-1.744,1.039,10.625,10.625,0,0,0-1.149.019c-.242-.008-.484-.024-.725-.022-1.195.012-1.051-.142-1.056,1.029C1461.117,780.2,1461.122,780.2,1462.913,780.077Z" transform="translate(-33.642 -33.605)" fill="#030202"/>
      <path id="Trazado_631456" data-name="Trazado 631456" d="M1460.569,800c-1.924.106-1.924.106-1.924-1.808,0-.781-.005-1.562,0-2.343a7.4,7.4,0,0,0-3.588-6.7,19.821,19.821,0,0,1-5.054-28.977,19.391,19.391,0,0,1,8.726-6.4c-.018.336-.324.4-.535.525a20.638,20.638,0,0,0-10.186,14.69,20.272,20.272,0,0,0,4.452,16.719,19.669,19.669,0,0,0,4.879,4.353,6.61,6.61,0,0,1,3.223,5.99Q1460.568,798.023,1460.569,800Z" transform="translate(-24.417 -27.275)" fill="#ebb249"/>
      <path id="Trazado_631457" data-name="Trazado 631457" d="M1489.833,753.48l.323-.113C1490.1,753.545,1489.982,753.559,1489.833,753.48Z" transform="translate(-55.487 -26.991)" fill="#ebb249"/>
      <path id="Trazado_631458" data-name="Trazado 631458" d="M1537.027,910.749c.016.105-.035.133-.128.113Z" transform="translate(-88.725 -138.134)" fill="#ebb249"/>
      <path id="Trazado_631459" data-name="Trazado 631459" d="M1482.937,937.547c-.013-.169-.036-.339-.036-.508,0-.853.129-.992.967-1,1.438-.008,2.875,0,4.313,0h11.257c1.406,0,1.487.09,1.369,1.507Z" transform="translate(-50.592 -155.993)" fill="#e4e9f6"/>
      <path id="Trazado_631460" data-name="Trazado 631460" d="M1482.931,920.172c-.011-.121-.03-.241-.031-.362-.009-.982.111-1.109,1.079-1.109q5.444,0,10.889,0h4.6c1.364,0,1.44.083,1.339,1.472Z" transform="translate(-50.591 -143.749)" fill="#e4e9f6"/>
      <path id="Trazado_631461" data-name="Trazado 631461" d="M1482.941,923.71h17.88c.1,1.284-.02,1.425-1.259,1.425H1484.2C1482.962,925.135,1482.84,925,1482.941,923.71Z" transform="translate(-50.6 -147.287)" fill="#d0d3db"/>
      <path id="Trazado_631462" data-name="Trazado 631462" d="M1482.952,941.175h17.87c.1,1.247.007,1.351-1.239,1.351h-15.391C1482.945,942.526,1482.852,942.424,1482.952,941.175Z" transform="translate(-50.607 -159.621)" fill="#d7dbe3"/>
      <path id="Trazado_631463" data-name="Trazado 631463" d="M1507,955.986c-.681.007-1.361.016-2.041.02-.415,0-.636-.2-.615-.626,0-.024,0-.049,0-.073-.109-2.354-.046-2.406,2.663-2.165Q1507,954.564,1507,955.986Z" transform="translate(-65.714 -168.004)" fill="#595b6b"/>
      <path id="Trazado_631464" data-name="Trazado 631464" d="M1513.457,956.125q0-1.422.006-2.845c.193-.012.386-.033.579-.034,2.247-.019,2.24-.019,2.072,2.278-.031.423-.2.626-.621.622Z" transform="translate(-72.171 -168.143)" fill="#6f7383"/>
      <path id="Trazado_631465" data-name="Trazado 631465" d="M1472.536,782.924a10.641,10.641,0,0,1,1.149-.018,1.5,1.5,0,0,0,1.744-1.039c.17.006.34.017.511.018,1.076.008,1.165-.073,1.531-1.069a10.052,10.052,0,0,1,.693-1.523.794.794,0,0,0-.161-1.1c-.592-.578-1.172-1.169-1.757-1.754-.95-.951-.949-.95-.041-1.979a1.621,1.621,0,0,0,.151-.247c.527.507,1.072,1,1.575,1.525a1.328,1.328,0,0,0,1.826.313,10.106,10.106,0,0,1,2.491-1.035,1.3,1.3,0,0,0,1-1.043l.731-.005c.89-.007,1.005-.12,1.009-1.019,0-.829,0-1.657,0-2.486.689-.146.956.088.891.827-.07.8-.006,1.61-.019,2.416a1.2,1.2,0,0,0,.95,1.3,11.04,11.04,0,0,1,2.559,1.064,1.3,1.3,0,0,0,1.766-.3c.625-.652,1.286-1.27,1.908-1.924.256-.27.437-.311.688,0,.443.541,1.342.928,1.325,1.548-.013.489-.806.966-1.268,1.432-1.589,1.6-1.716,1.431-.627,3.516a8.6,8.6,0,0,1,.54,1.511,1.332,1.332,0,0,0,1.458,1.059c.878-.023,1.758.01,2.636-.011.392-.009.548.091.566.524.084,2.121.1,2.115-2.043,2.122-2.3.008-2.2-.274-2.965,2.082a8.85,8.85,0,0,1-.69,1.449,1.26,1.26,0,0,0,.253,1.656c.626.617,1.227,1.26,1.871,1.857.36.334.4.553.025.932-1.4,1.415-1.381,1.42-2.788.036-1.609-1.581-1.4-1.914-3.688-.687a10.916,10.916,0,0,1-1.583.557,1.2,1.2,0,0,0-.892,1.269c.016.83-.044,1.664.018,2.489.054.72-.178.993-.888.815,0-.535,0-1.07,0-1.605-.018-2.061.232-1.707-1.731-1.754a1.313,1.313,0,0,0-1.1-1.282,10.99,10.99,0,0,1-2.487-1.025,1.247,1.247,0,0,0-1.649.258c-.542.557-1.112,1.086-1.671,1.628a4.288,4.288,0,0,1-.342-.268c-.771-.735-.774-.911-.036-1.652a10.889,10.889,0,0,1,1.039-1.025,2.059,2.059,0,0,0,.706-3c-.885-1.777-.312-1.492-2.248-1.545a1.5,1.5,0,0,0-1.851-1.193,7.259,7.259,0,0,1-1.083-.021Q1472.539,784.216,1472.536,782.924Zm12.036-4.583a5.875,5.875,0,1,0,5.853,5.863A5.857,5.857,0,0,0,1484.572,778.341Z" transform="translate(-43.272 -39.036)" fill="#6f7383"/>
      <path id="Trazado_631466" data-name="Trazado 631466" d="M1479.882,781.987a1.62,1.62,0,0,1-.151.247c-.909,1.029-.909,1.028.041,1.979.585.585,1.166,1.176,1.757,1.754a.794.794,0,0,1,.161,1.1,10.052,10.052,0,0,0-.693,1.523c-.366,1-.456,1.076-1.531,1.069-.17,0-.34-.012-.511-.018a8.159,8.159,0,0,1,.992-2.491,1.276,1.276,0,0,0-.258-1.707c-.648-.623-1.26-1.284-1.916-1.9-.334-.312-.321-.538.012-.825.293-.253.553-.546.828-.821C1479.252,781.258,1479.252,781.258,1479.882,781.987Z" transform="translate(-46.798 -46.808)" fill="#5a5c6c"/>
      <path id="Trazado_631467" data-name="Trazado 631467" d="M1479.36,825.893c1.936.053,1.363-.232,2.248,1.545a2.059,2.059,0,0,1-.706,3,10.876,10.876,0,0,0-1.039,1.025c-.738.741-.735.917.036,1.652a4.3,4.3,0,0,0,.342.268c-.633.729-.633.729-1.3.06-1.207-1.205-1.207-1.205.005-2.418l1.132-1.136a1.262,1.262,0,0,0,.238-1.652A7.474,7.474,0,0,1,1479.36,825.893Z" transform="translate(-47.154 -78.209)" fill="#595b6b"/>
      <path id="Trazado_631468" data-name="Trazado 631468" d="M1510.7,770.422c0,.828,0,1.657,0,2.486,0,.9-.119,1.012-1.009,1.019l-.731.005c-.006-1,0-2-.024-3-.009-.393.094-.6.528-.562C1509.869,770.4,1510.283,770.405,1510.7,770.422Z" transform="translate(-68.972 -38.994)" fill="#5a5c6c"/>
      <path id="Trazado_631469" data-name="Trazado 631469" d="M1508.98,852.829c1.963.048,1.713-.307,1.731,1.754,0,.535,0,1.07,0,1.605-1.763.1-1.765.1-1.762-1.611C1508.955,853.995,1508.971,853.412,1508.98,852.829Z" transform="translate(-68.99 -97.231)" fill="#5a5c6c"/>
      <path id="Trazado_631470" data-name="Trazado 631470" d="M1468.247,812.92l.007,2.582c-1.791.124-1.8.124-1.789-1.575.005-1.171-.138-1.018,1.056-1.029C1467.763,812.9,1468.005,812.912,1468.247,812.92Z" transform="translate(-38.983 -69.031)" fill="#595b6b"/>
      <path id="Trazado_631471" data-name="Trazado 631471" d="M1499.34,797.374a5.875,5.875,0,1,1-5.891,5.826A5.855,5.855,0,0,1,1499.34,797.374Zm3.656,5.838a3.675,3.675,0,1,0-3.65,3.713A3.7,3.7,0,0,0,1503,803.212Z" transform="translate(-58.041 -58.069)" fill="#030202"/>
      <path id="Trazado_631472" data-name="Trazado 631472" d="M1508.28,808.484a3.675,3.675,0,1,1-7.35.049,3.675,3.675,0,0,1,7.35-.049Z" transform="translate(-63.324 -63.341)" fill="#f4c665"/>
    </g>
  </g>
</svg>
