<svg xmlns="http://www.w3.org/2000/svg" width="70" height="69" viewBox="0 0 70 69">
  <g id="Grupo_980782" data-name="Grupo 980782" transform="translate(0.172 -0.417)">
    <rect id="Rectángulo_308310" data-name="Rectángulo 308310" width="70" height="69" transform="translate(-0.172 0.417)" fill="none"/>
    <g id="Grupo_980783" data-name="Grupo 980783" transform="translate(6.744 5.648)">
      <path id="Trazado_640855" data-name="Trazado 640855" d="M407.421,907.183a.91.91,0,0,1-.307,1.284,24.823,24.823,0,0,1-16.919,5.514A25.105,25.105,0,0,1,366.732,893.7a24.292,24.292,0,0,1,2.252-16.025.556.556,0,0,0-.161-.822c-3.624-3.285-5.026-7.367-3.766-12.087a11.341,11.341,0,0,1,9.3-8.649,11.78,11.78,0,0,1,13.345,7.511c.108.289.2.48.585.407a20.709,20.709,0,0,1,3.846-.24c5.072,0,10.144-.01,15.216.012.537,0,.713-.156.636-.664a2.128,2.128,0,0,1,0-.453,1.2,1.2,0,0,1,1.871-1.012q2.929,1.888,5.806,3.858a1.185,1.185,0,0,1-.009,2.013q-2.859,1.945-5.759,3.828a1.213,1.213,0,0,1-1.915-1.011c-.024-.351.165-.829-.091-1.017-.237-.174-.69-.065-1.048-.065q-7.551,0-15.1,0a22.458,22.458,0,0,0-3.055.192c-.279.038-.372.147-.418.413a11.559,11.559,0,0,1-3.706,6.715c-.262.24-.316.385-.017.6a2.138,2.138,0,0,1,.162.159c.449.4.778,1.117,1.319,1.171s1.1-.414,1.668-.616c.281-.1.242-.295.242-.5,0-.87,0-1.741,0-2.611a1.624,1.624,0,0,1,1.639-1.782,16.612,16.612,0,0,1,3.681.005,1.608,1.608,0,0,1,1.579,1.723c.011.87.015,1.741,0,2.611-.007.326.055.52.414.605a3.085,3.085,0,0,1,.938.386c.477.3.781.178,1.133-.224.522-.6,1.108-1.139,1.678-1.692a1.552,1.552,0,0,1,2.24-.12,15.76,15.76,0,0,1,2.726,2.718,1.563,1.563,0,0,1-.12,2.285q-.948.978-1.929,1.924a.4.4,0,0,0-.1.577,4.48,4.48,0,0,1,.289.613c.434,1.035.432,1.036,1.53,1.036.662,0,1.325-.013,1.987,0a1.527,1.527,0,0,1,1.625,1.475,15.14,15.14,0,0,1,0,3.96,1.531,1.531,0,0,1-1.607,1.431c-.889.013-1.779.019-2.668,0-.349-.009-.559.054-.64.437a2.2,2.2,0,0,1-.336.835c-.41.558-.188.915.259,1.308.553.486,1.056,1.03,1.572,1.558a1.558,1.558,0,0,1,.155,2.28,14.9,14.9,0,0,1-2.764,2.759,1.548,1.548,0,0,1-2.2-.119c-.614-.589-1.227-1.183-1.8-1.809-.287-.313-.528-.412-.909-.173a2.777,2.777,0,0,1-.88.378c-.476.1-.62.332-.595.811.044.811.019,1.627.01,2.44a1.577,1.577,0,0,1-1.5,1.731,14.255,14.255,0,0,1-3.961-.015,1.552,1.552,0,0,1-1.433-1.672c-.012-.889-.016-1.779,0-2.668.007-.31-.062-.5-.386-.562a3.147,3.147,0,0,1-.532-.189c-1.088-.437-1.088-.438-1.9.377-.428.428-.852.861-1.286,1.283a1.584,1.584,0,0,1-2.33.144,15.27,15.27,0,0,1-2.752-2.771,1.529,1.529,0,0,1,.129-2.152q.945-.98,1.928-1.925c.216-.208.3-.362.136-.665-.231-.429-.377-.9-.566-1.355-.047-.111-.052-.267-.245-.259-.146.006-.188.111-.239.206a2.608,2.608,0,0,1-2.639,1.4c-.6-.028-1.211,0-1.817-.008a2.488,2.488,0,0,1-2.4-1.891,17.921,17.921,0,0,1-.431-1.992c-.059-.426-.3-.476-.616-.461-.429.02-.19.355-.18.505a19.706,19.706,0,0,0,17.566,18.315,19.6,19.6,0,0,0,21.02-14.673,19.143,19.143,0,0,0,.582-4.031,1.51,1.51,0,0,1,1.726-1.642q1.135.018,2.27.053a1.449,1.449,0,0,1,1.511,1.6,25.021,25.021,0,0,1-5.843,15.27c-.072.087-.146.174-.219.261-.512.609-.759.661-1.465.31a1.032,1.032,0,0,1,.164-1.422,22.739,22.739,0,0,0,3.923-6.4,23.02,23.02,0,0,0,1.7-7.479c.019-.349-.064-.475-.419-.459a8.562,8.562,0,0,1-1.248-.028c-.349-.036-.4.115-.419.415a21.314,21.314,0,0,1-42.589-1.486,1.641,1.641,0,0,0-.131-.713,2.714,2.714,0,0,1,.3-2.888c.14-.192.181-.3.028-.527a2.761,2.761,0,0,1,.48-3.944c.109-.1.252-.157.176-.362a10.111,10.111,0,0,0-.559-1.553c-.075.146-.129.244-.177.346a22.485,22.485,0,0,0-1.985,13.148,23.4,23.4,0,0,0,37.676,15.05C406.585,906.707,406.845,906.7,407.421,907.183Zm-28.6-17.466-.1-.089-2.379,0c-.414-.007-.828-.019-1.243-.02-.863,0-.85,0-.663.856.392,1.808.186,1.81,2.358,1.734.151.007.3.018.453.02.917.007,1.066-.108,1.266-1.009C378.628,890.715,378.721,890.215,378.822,889.717Zm-4.3-7.949c-.7-.009-1.392-.042-2.086-.021a1.1,1.1,0,0,0,0,2.2c.694.026,1.39-.008,2.086-.016,2.04.008,4.08.031,6.12.017a1.1,1.1,0,0,0,0-2.2C378.6,881.735,376.564,881.758,374.524,881.768Zm0,6.118c2.02.008,4.041.026,6.061.019A1.069,1.069,0,0,0,381.7,886.8a1.082,1.082,0,0,0-1.106-1.119c-.811-.033-1.624-.021-2.436-.009-1.207.019-2.415-.062-3.62.044a10.263,10.263,0,0,0-2.144-.023,1.1,1.1,0,0,0-1.019,1.153,1.113,1.113,0,0,0,1.116,1.06C373.169,887.921,373.848,887.894,374.527,887.886Zm.566-30.168c-4.49.379-8.594,4.838-8.745,9.5a10.132,10.132,0,0,0,3.883,8.595,5.964,5.964,0,0,1,2.045,3.053c.083.29.2.57.276.862a.344.344,0,0,0,.394.305c.717-.021,1.434-.029,2.151-.041.425.126.608.018.6-.475-.03-1.342-.016-2.685-.006-4.028,0-.319-.033-.484-.429-.555a7.26,7.26,0,1,1,8.107-9.647c.243.673.116.976-.554,1.317-.663.062-.911-.363-1.126-.9a5.539,5.539,0,0,0-5.752-3.443,5.564,5.564,0,0,0-1.4,10.719c1.152.452,1.152.452,1.152-.749a1.376,1.376,0,0,1,0-.17.766.766,0,0,0-.582-.948,3.564,3.564,0,0,1-2.152-3.962,3.675,3.675,0,0,1,3.278-2.983,3.634,3.634,0,0,1,3.791,2.539,3.415,3.415,0,0,1-1.63,4.174,1.542,1.542,0,0,0-1,1.893.205.205,0,0,1,0,.057c-.063.416.111.477.484.374a5.483,5.483,0,0,0,3.907-3.543,1,1,0,0,1,1.035-.78c.684.316.838.642.572,1.347a7.08,7.08,0,0,1-5.559,4.708c-.374.074-.449.209-.445.547.016,1.342.026,2.685,0,4.026-.01.445.142.545.551.525a15.1,15.1,0,0,1,1.927,0,.633.633,0,0,0,.779-.578,6.641,6.641,0,0,1,2.266-3.69,9.949,9.949,0,0,0,3.65-10A10.164,10.164,0,0,0,375.093,857.718Zm18.024,19.629c.006-.737,0-1.475.024-2.211.011-.321-.108-.41-.414-.442a13.144,13.144,0,0,0-2.659,0c-.343.034-.444.144-.435.483.022.888.014,1.778.005,2.667a1.508,1.508,0,0,1-1.128,1.578,17.008,17.008,0,0,0-1.778.737,1.514,1.514,0,0,1-1.96-.331c-.488-.475-.975-.952-1.442-1.447-.235-.249-.362-.251-.523.068-.256.511-.38,1.066-.582,1.593a.5.5,0,0,0,.189.665,2.759,2.759,0,0,1,.5,3.731.564.564,0,0,0,0,.777,2.789,2.789,0,0,1-.672,3.878,2.629,2.629,0,0,1-1.361.515c-.509.042-.3.491-.423.746s.131.291.308.335a1.568,1.568,0,0,1,1.157,1.134,13.213,13.213,0,0,0,.712,1.727,1.55,1.55,0,0,1-.321,1.965c-.609.621-1.215,1.248-1.851,1.84-.3.276-.268.454-.014.734.547.6,1.123,1.173,1.719,1.728.338.314.538.254.824-.053.581-.622,1.189-1.218,1.8-1.808a1.518,1.518,0,0,1,1.919-.312,17.541,17.541,0,0,0,1.78.732A1.52,1.52,0,0,1,389.638,900c.008.889.011,1.778,0,2.667,0,.3.06.441.4.459a23.756,23.756,0,0,0,2.72,0c.292-.018.395-.12.387-.411-.021-.737-.018-1.474-.024-2.211.006-.094.017-.188.019-.282.018-1.177.278-1.526,1.373-1.917a14.341,14.341,0,0,0,1.358-.568,1.652,1.652,0,0,1,2.287.387c.577.573,1.163,1.139,1.721,1.731.233.247.392.264.651.035a22.04,22.04,0,0,0,1.808-1.8c.255-.284.276-.458-.017-.732-.65-.606-1.271-1.244-1.89-1.882a1.522,1.522,0,0,1-.308-1.874,16.316,16.316,0,0,0,.743-1.775,1.564,1.564,0,0,1,1.659-1.185c.87-.008,1.741-.018,2.612.006.343.01.474-.1.491-.438.043-.852.04-1.7,0-2.553-.015-.353-.148-.492-.519-.481-.851.025-1.7.021-2.555,0a1.6,1.6,0,0,1-1.718-1.269,14.019,14.019,0,0,0-.677-1.619,1.562,1.562,0,0,1,.325-2.014c.581-.6,1.154-1.2,1.773-1.759.357-.321.325-.529.022-.859a21.258,21.258,0,0,0-1.778-1.75c-.235-.2-.374-.215-.6.018-.626.657-1.273,1.3-1.924,1.93a1.507,1.507,0,0,1-1.917.313,14.451,14.451,0,0,0-1.831-.756,1.58,1.58,0,0,1-.979-.883A3.935,3.935,0,0,1,393.117,877.347Zm20.992-10.81c-.77-.513-1.472-.984-2.176-1.451s-1.435-.948-2.182-1.441c-.246,1.8-.324,1.863-2.125,1.863q-7.945,0-15.889,0c-.965,0-1.927.048-2.888.14-.381.036-.6.115-.492.575a4.672,4.672,0,0,1,.1,1.071c0,.355.075.485.48.43a23.946,23.946,0,0,1,3.227-.15q7.86.01,15.719,0c1.525,0,1.685.149,1.82,1.692,0,.031.034.06.083.143Zm-37.544,3.2a1.932,1.932,0,0,0-.006-3.864,1.932,1.932,0,1,0,.006,3.864Z" transform="translate(-364.604 -855.888)" fill="#030403"/>
      <path id="Trazado_640856" data-name="Trazado 640856" d="M418.823,984.676c-.576-.484-.836-.476-1.532.073a23.359,23.359,0,0,1-35.691-28.2c.048-.1.1-.2.177-.346a10.109,10.109,0,0,1,.559,1.553c.076.2-.067.262-.176.361a2.761,2.761,0,0,0-.48,3.944c.153.225.112.335-.028.527a2.714,2.714,0,0,0-.3,2.888,1.641,1.641,0,0,1,.131.713,21.314,21.314,0,0,0,42.589,1.486c.016-.3.07-.451.419-.415a8.545,8.545,0,0,0,1.248.028c.356-.016.438.11.419.459a23.019,23.019,0,0,1-1.7,7.479,22.739,22.739,0,0,1-3.923,6.4,1.031,1.031,0,0,0-.164,1.422C419.944,983.68,419.253,984.055,418.823,984.676Z" transform="translate(-376.005 -933.381)" fill="#65db9e"/>
      <path id="Trazado_640857" data-name="Trazado 640857" d="M556.4,944.558c-.87,0-1.741,0-2.611,0a1.5,1.5,0,0,1-1.4-.794q-1.332-2.3-2.662-4.607a1.5,1.5,0,0,1,.007-1.611q1.334-2.3,2.666-4.605a1.459,1.459,0,0,1,1.353-.773q2.667.006,5.335,0a1.466,1.466,0,0,1,1.361.763c.9,1.549,1.794,3.1,2.688,4.658a1.472,1.472,0,0,1-.007,1.561q-1.328,2.306-2.658,4.61a1.507,1.507,0,0,1-1.4.8C558.181,944.554,557.291,944.558,556.4,944.558Zm-.782-1.727c1.039.008,2.079.006,3.118.03.261.006.363-.133.471-.321.742-1.293,1.483-2.587,2.237-3.873a.524.524,0,0,0,0-.611c-.755-1.285-1.5-2.579-2.236-3.873a.487.487,0,0,0-.474-.317c-1.039.023-2.079.023-3.118.031-.472-.008-.945,0-1.416-.03a.546.546,0,0,0-.575.335q-1.086,1.924-2.211,3.825a.575.575,0,0,0,0,.671c.542.908,1.062,1.828,1.591,2.744C553.881,942.943,553.881,942.943,555.621,942.831Z" transform="translate(-507.428 -914.811)" fill="#030403"/>
      <path id="Trazado_640858" data-name="Trazado 640858" d="M470.328,950.179a3.932,3.932,0,0,0,.132,1.175,1.58,1.58,0,0,0,.979.883,14.456,14.456,0,0,1,1.831.756,1.507,1.507,0,0,0,1.917-.313c.651-.633,1.3-1.272,1.924-1.929.223-.233.362-.221.6-.018a21.242,21.242,0,0,1,1.778,1.75c.3.331.335.539-.022.859-.618.556-1.192,1.162-1.773,1.759a1.562,1.562,0,0,0-.325,2.014,14.011,14.011,0,0,1,.677,1.619A1.6,1.6,0,0,0,479.761,960c.851.018,1.7.021,2.555,0,.372-.011.5.128.519.481.037.852.039,1.7,0,2.553-.017.336-.148.448-.491.438-.87-.024-1.741-.014-2.612-.006a1.564,1.564,0,0,0-1.659,1.185,16.328,16.328,0,0,1-.743,1.775,1.522,1.522,0,0,0,.308,1.874c.619.638,1.24,1.276,1.89,1.882.293.274.272.448.017.732a22.065,22.065,0,0,1-1.808,1.8c-.259.229-.418.212-.651-.035-.558-.592-1.144-1.157-1.721-1.731a1.653,1.653,0,0,0-2.287-.387,14.337,14.337,0,0,1-1.358.568c-1.1.391-1.355.74-1.373,1.917,0,.094-.012.188-.019.282a.78.78,0,0,1-.432-.112,13.064,13.064,0,0,1-5.155-4.45c-.082-.119-.26-.268-.045-.435.119.056.24.106.355.168a7.655,7.655,0,0,0,10.643-3.922c.272-.689.175-.992-.437-1.366a14.467,14.467,0,0,0,.12-2.336c.625-.306.753-.572.575-1.21a7.148,7.148,0,0,0-2.767-4.034,7.561,7.561,0,0,0-8.628-.4,1.023,1.023,0,0,1,.2-.521,12.85,12.85,0,0,1,4.977-4.392A.976.976,0,0,1,470.328,950.179Z" transform="translate(-441.815 -928.72)" fill="#819ead"/>
      <path id="Trazado_640859" data-name="Trazado 640859" d="M397.115,872.339c.669-.341.8-.644.554-1.317a7.261,7.261,0,1,0-8.107,9.647c.4.07.432.236.429.555-.01,1.343-.024,2.686.006,4.028.011.494-.171.6-.6.475-.085-.288-.17-.577-.256-.865a4.636,4.636,0,0,0-1.491-2.414,11.165,11.165,0,0,1-2.139-2.073,10.828,10.828,0,0,1-1.294-11.544,10.5,10.5,0,0,1,4.824-5.05c.145-.076.332-.114.352-.327a10.164,10.164,0,0,1,11.457,8.051,9.949,9.949,0,0,1-3.65,10,6.64,6.64,0,0,0-2.266,3.69.633.633,0,0,1-.779.578,15.083,15.083,0,0,0-1.927,0c-.408.02-.561-.08-.551-.525.031-1.341.02-2.684,0-4.026,0-.338.071-.473.445-.547a7.08,7.08,0,0,0,5.559-4.708c.266-.7.113-1.031-.572-1.347A4.788,4.788,0,0,0,397.115,872.339Z" transform="translate(-378.907 -861.624)" fill="#f4d147"/>
      <path id="Trazado_640860" data-name="Trazado 640860" d="M440.591,959.112c-.215.167-.037.317.045.435a13.061,13.061,0,0,0,5.155,4.45.781.781,0,0,0,.432.112c.006.737,0,1.474.024,2.211.008.291-.094.392-.387.411a23.757,23.757,0,0,1-2.72,0c-.338-.018-.4-.162-.4-.459.014-.889.01-1.778,0-2.667a1.52,1.52,0,0,0-1.147-1.623,17.545,17.545,0,0,1-1.78-.732,1.518,1.518,0,0,0-1.919.313c-.613.59-1.222,1.187-1.8,1.808-.287.306-.486.367-.824.053-.6-.554-1.172-1.125-1.719-1.728-.254-.28-.283-.459.014-.734.637-.592,1.242-1.219,1.851-1.84a1.55,1.55,0,0,0,.321-1.965,13.218,13.218,0,0,1-.712-1.727,1.568,1.568,0,0,0-1.156-1.134c-.177-.044-.435-.065-.308-.335s-.085-.7.423-.746a2.631,2.631,0,0,0,1.361-.515,2.789,2.789,0,0,0,.672-3.878.564.564,0,0,1,0-.777,2.759,2.759,0,0,0-.5-3.731.5.5,0,0,1-.189-.665c.2-.527.326-1.082.582-1.594.16-.319.288-.317.523-.068.467.5.954.972,1.442,1.447a1.514,1.514,0,0,0,1.96.331,16.972,16.972,0,0,1,1.778-.737,1.507,1.507,0,0,0,1.128-1.578c.009-.889.017-1.778-.005-2.667-.009-.339.092-.449.435-.483a13.144,13.144,0,0,1,2.659,0c.306.032.425.121.414.442-.026.736-.018,1.474-.024,2.211a.975.975,0,0,0-.595.135,12.851,12.851,0,0,0-4.977,4.392,1.023,1.023,0,0,0-.2.521c-.075.057-.147.117-.224.17a7.59,7.59,0,0,0-3.175,8.074A7.738,7.738,0,0,0,440.591,959.112Z" transform="translate(-417.711 -919.501)" fill="#6d8a95"/>
      <path id="Trazado_640861" data-name="Trazado 640861" d="M494.664,892.876l-4.324,2.875c-.05-.083-.081-.112-.083-.143-.135-1.543-.295-1.692-1.819-1.692q-7.86,0-15.719,0a23.924,23.924,0,0,0-3.227.15c-.4.054-.481-.076-.48-.43a4.675,4.675,0,0,0-.1-1.071c-.107-.459.111-.538.492-.575.961-.092,1.923-.141,2.888-.14q7.944,0,15.889,0c1.8,0,1.88-.066,2.125-1.863.747.493,1.465.966,2.182,1.441S493.894,892.362,494.664,892.876Z" transform="translate(-445.158 -882.226)" fill="#66dd9f"/>
      <path id="Trazado_640862" data-name="Trazado 640862" d="M404.461,888.116a4.788,4.788,0,0,1,0,2.28,1,1,0,0,0-1.034.78,5.483,5.483,0,0,1-3.907,3.543c-.373.1-.547.042-.484-.374a.2.2,0,0,0,0-.057,1.542,1.542,0,0,1,1-1.893,3.415,3.415,0,0,0,1.63-4.174,3.634,3.634,0,0,0-3.791-2.538,3.675,3.675,0,0,0-3.278,2.983,3.564,3.564,0,0,0,2.152,3.962.766.766,0,0,1,.582.948,1.371,1.371,0,0,0,0,.17c0,1.2,0,1.2-1.152.749a5.561,5.561,0,1,1,7.152-7.276C403.55,887.754,403.8,888.178,404.461,888.116Z" transform="translate(-386.254 -877.4)" fill="#f6e489"/>
      <path id="Trazado_640863" data-name="Trazado 640863" d="M380.992,863.933c-.02.213-.207.251-.352.327a10.5,10.5,0,0,0-4.824,5.05,10.828,10.828,0,0,0,1.294,11.544,11.167,11.167,0,0,0,2.139,2.073,4.637,4.637,0,0,1,1.491,2.414c.086.288.171.576.256.865-.717.013-1.434.02-2.151.041a.344.344,0,0,1-.394-.305c-.075-.292-.193-.572-.276-.862a5.964,5.964,0,0,0-2.045-3.053,10.132,10.132,0,0,1-3.883-8.595C372.4,868.771,376.5,864.312,380.992,863.933Z" transform="translate(-370.503 -862.102)" fill="#efc343"/>
      <path id="Trazado_640864" data-name="Trazado 640864" d="M407.493,986.791c1.206-.107,2.414-.026,3.62-.044.812-.013,1.625-.024,2.436.009a1.081,1.081,0,0,1,1.106,1.119,1.069,1.069,0,0,1-1.111,1.106c-2.02.008-4.041-.011-6.061-.019A2.792,2.792,0,0,1,407.493,986.791Z" transform="translate(-397.56 -956.963)" fill="#ceecfa"/>
      <path id="Trazado_640865" data-name="Trazado 640865" d="M407.524,969.551c2.04-.01,4.08-.032,6.12-.021a1.1,1.1,0,0,1,0,2.2c-2.04.015-4.08-.009-6.12-.017A3.022,3.022,0,0,1,407.524,969.551Z" transform="translate(-397.604 -943.67)" fill="#adced3"/>
      <path id="Trazado_640866" data-name="Trazado 640866" d="M410.573,903.625a1.932,1.932,0,1,1-.006-3.864,1.932,1.932,0,0,1,.006,3.864Z" transform="translate(-398.611 -889.779)" fill="#ed9a38"/>
      <path id="Trazado_640867" data-name="Trazado 640867" d="M397.517,986.755a2.793,2.793,0,0,0-.009,2.171c-.679.008-1.359.035-2.037.019a1.113,1.113,0,0,1-1.116-1.06,1.1,1.1,0,0,1,1.019-1.153A10.275,10.275,0,0,1,397.517,986.755Z" transform="translate(-387.585 -956.927)" fill="#adced3"/>
      <path id="Trazado_640868" data-name="Trazado 640868" d="M397.5,969.539a3.022,3.022,0,0,0,0,2.16c-.7.008-1.392.042-2.085.016a1.1,1.1,0,0,1,0-2.2C396.11,969.5,396.806,969.529,397.5,969.539Z" transform="translate(-387.581 -943.659)" fill="#94b6bf"/>
      <path id="Trazado_640869" data-name="Trazado 640869" d="M416.212,1004.182l2.379,0,.1.089c-.1.5-.194,1-.3,1.5-.2.9-.349,1.016-1.266,1.009-.151,0-.3-.013-.453-.02-.027-.164-.054-.328-.08-.493A10.891,10.891,0,0,1,416.212,1004.182Z" transform="translate(-404.468 -970.439)" fill="#435657"/>
      <path id="Trazado_640870" data-name="Trazado 640870" d="M409.4,1004.125a10.889,10.889,0,0,0,.372,2.077c.026.164.053.329.08.493-2.171.076-1.966.074-2.358-1.733-.186-.86-.2-.859.663-.856C408.568,1004.106,408.982,1004.118,409.4,1004.125Z" transform="translate(-397.653 -970.381)" fill="#3a4747"/>
      <path id="Trazado_640871" data-name="Trazado 640871" d="M426.77,1004.268l-.1-.089Z" transform="translate(-412.551 -970.439)" fill="#3a4747"/>
      <path id="Trazado_640872" data-name="Trazado 640872" d="M574.088,939.667c1.039-.008,2.079-.007,3.118-.031a.487.487,0,0,1,.474.317c.741,1.294,1.481,2.588,2.236,3.873a.524.524,0,0,1,0,.611c-.755,1.286-1.5,2.579-2.237,3.873-.108.188-.209.327-.471.321-1.039-.023-2.079-.022-3.118-.03-.091-.585-.663-.962-.686-1.577.159.056.317.115.477.168a3.225,3.225,0,0,0,3.859-4.58c-.825-1.543-2.464-2.063-4.335-1.374C573.411,940.618,573.988,940.247,574.088,939.667Z" transform="translate(-525.896 -920.581)" fill="#adced3"/>
      <path id="Trazado_640873" data-name="Trazado 640873" d="M561.1,947.021c.023.615.594.992.685,1.577-1.74.112-1.74.112-2.608-1.39-.529-.915-1.05-1.836-1.591-2.744a.575.575,0,0,1,0-.671q1.123-1.9,2.211-3.825a.546.546,0,0,1,.575-.335c.471.029.944.022,1.416.03-.1.579-.678.951-.684,1.571a3.476,3.476,0,0,0-1.587,1.917A3.3,3.3,0,0,0,561.1,947.021Z" transform="translate(-513.595 -920.578)" fill="#94b6bf"/>
      <path id="Trazado_640874" data-name="Trazado 640874" d="M452.464,981.567a7.738,7.738,0,0,1-3.537-4.86,7.59,7.59,0,0,1,3.175-8.074c.078-.053.15-.113.224-.17a7.562,7.562,0,0,1,8.629.4,7.148,7.148,0,0,1,2.767,4.034c.177.638.05.9-.575,1.21a.957.957,0,0,1-1.094-.82,5.833,5.833,0,0,0-6.531-4.179.718.718,0,0,0-.169-.008,5.944,5.944,0,0,0-3.889,9.2,5.329,5.329,0,0,0,4.051,2.481,4.293,4.293,0,0,0,.553.1,5.89,5.89,0,0,0,5.782-3.644c.227-.574.545-.883,1.177-.8.612.374.709.677.437,1.366a7.655,7.655,0,0,1-10.643,3.922C452.7,981.674,452.583,981.623,452.464,981.567Z" transform="translate(-429.584 -941.956)" fill="#010202"/>
      <path id="Trazado_640875" data-name="Trazado 640875" d="M478.477,982.367c-.631-.084-.95.224-1.177.8a5.89,5.89,0,0,1-5.782,3.644,4.25,4.25,0,0,1-.553-.1c.009-.188-.147-.25-.266-.331a6.713,6.713,0,0,1-1.791-1.916c-.09-.136-.3-.276-.1-.483a4.316,4.316,0,0,0,7.232-2.23,4.325,4.325,0,0,0-7.222-3.973.941.941,0,0,1,.226-.672c.272-.384.629-.692.921-1.052.3-.376.825-.529,1.009-1.016a5.833,5.833,0,0,1,6.531,4.178.957.957,0,0,0,1.094.82A14.48,14.48,0,0,1,478.477,982.367Z" transform="translate(-445.036 -947.875)" fill="#435657"/>
      <path id="Trazado_640876" data-name="Trazado 640876" d="M567.472,951.449a3.3,3.3,0,0,1-1.586-3.869,3.476,3.476,0,0,1,1.587-1.917c1.871-.688,3.51-.168,4.335,1.374a3.225,3.225,0,0,1-3.859,4.58C567.789,951.564,567.631,951.5,567.472,951.449Zm1.5-1.367a1.525,1.525,0,0,0,.021-3.051,1.525,1.525,0,1,0-.021,3.051Z" transform="translate(-519.965 -925.006)" fill="#030403"/>
      <path id="Trazado_640877" data-name="Trazado 640877" d="M459.13,984.151c-.2.208.012.347.1.483a6.71,6.71,0,0,0,1.791,1.916c.119.081.275.143.266.331a5.328,5.328,0,0,1-4.051-2.481,5.944,5.944,0,0,1,3.889-9.2.724.724,0,0,1,.169.008c-.184.487-.7.64-1.009,1.016-.292.36-.649.669-.921,1.052a.94.94,0,0,0-.226.672,4.4,4.4,0,0,0-.01,6.2Z" transform="translate(-435.358 -948.05)" fill="#3a4747"/>
      <path id="Trazado_640878" data-name="Trazado 640878" d="M464.762,989.435a4.4,4.4,0,0,1,.01-6.2,4.325,4.325,0,0,1,7.222,3.974,4.316,4.316,0,0,1-7.232,2.23Zm.43-3.063a2.584,2.584,0,1,0,2.56-2.615A2.6,2.6,0,0,0,465.192,986.372Z" transform="translate(-440.991 -953.334)" fill="#010202"/>
    </g>
  </g>
</svg>
