<svg xmlns="http://www.w3.org/2000/svg" width="70" height="69" viewBox="0 0 70 69">
  <g id="Grupo_980781" data-name="Grupo 980781" transform="translate(0.438 -0.417)">
    <rect id="Rectángulo_308310" data-name="Rectángulo 308310" width="70" height="69" transform="translate(-0.438 0.417)" fill="none"/>
    <g id="Grupo_980780" data-name="Grupo 980780" transform="translate(5.598 5.583)">
      <path id="Trazado_640826" data-name="Trazado 640826" d="M756.173,734.526A15.055,15.055,0,0,1,759,729.221c4.375-5.119,9.922-7.147,16.435-5.45,6.544,1.706,10.563,6.148,11.731,12.836A15.817,15.817,0,0,1,774.7,754.776c-.331.069-.449.176-.441.525.024,1.056.03,2.112,0,3.168-.012.4.143.432.471.429,1.545-.015,3.09.009,4.635-.017.421-.007.562.072.552.531-.034,1.544,0,3.09-.021,4.634,0,.369.073.5.471.489,1.369-.027,2.738-.016,4.107-.009a2.812,2.812,0,0,1,2.94,2.957q.01,3.608,0,7.216a2.823,2.823,0,0,1-2.988,2.97h-.293c-1.556,0-1.549,0-1.419,1.583.019.225.072.325.3.295a.823.823,0,0,1,.176,0c.46.041,1.091-.212,1.335.1.229.3.044.9.078,1.364.025.339-.1.419-.422.416-1.838-.015-3.677-.007-5.516-.007-1.623,0-3.247-.014-4.87.01-.391.006-.478-.109-.476-.484.008-1.4-.006-1.42,1.365-1.391.454.01.541-.124.533-.549-.024-1.34-.008-1.4-1.37-1.328a2.9,2.9,0,0,1-3.3-2.463,17.851,17.851,0,0,1-.03-1.934c0-.861-.035-1.723.012-2.581.027-.489-.154-.571-.585-.555a24.67,24.67,0,0,1-2.58-.006c-.555-.038-.626.169-.614.648.032,1.309.017,2.62.01,3.931a2.821,2.821,0,0,1-2.952,2.947c-.45,0-.9.016-1.349,0-.291-.014-.425.052-.4.379.039.482-.14,1.1.1,1.413.223.294.877.092,1.339.08.354-.01.458.074.457.447,0,1.442.015,1.442-1.446,1.442-3.11,0-6.22-.008-9.33.01-.407,0-.556-.087-.51-.508.048-.441-.128-1.031.1-1.294s.846-.1,1.286-.076c.415.024.517-.1.511-.511-.019-1.377,0-1.434-1.393-1.364a2.9,2.9,0,0,1-3.285-2.485,20.036,20.036,0,0,1-.027-2.052c0-.861-.017-1.721.008-2.581.01-.342-.1-.42-.426-.413-.977.02-1.956.023-2.933,0-.346-.008-.415.109-.411.429.016,1.369.011,2.738.006,4.107a2.823,2.823,0,0,1-2.975,2.983,11.425,11.425,0,0,1-1.231-.008c-.435-.044-.5.131-.5.522.017,1.359,0,1.376,1.346,1.354.415-.007.566.063.555.528-.031,1.36-.006,1.361-1.354,1.361-3.129,0-6.259-.008-9.388.01-.418,0-.563-.069-.553-.529.03-1.353.006-1.372,1.355-1.348.425.007.559-.08.549-.534-.029-1.354-.006-1.355-1.359-1.355-1.85,0-2.965-.762-3.288-2.263a3.671,3.671,0,0,1-.059-.757q-.006-3.55,0-7.1a2.827,2.827,0,0,1,3.049-3.024c1.35,0,2.7-.011,4.049.007.331,0,.424-.086.42-.419-.017-1.584.005-3.168-.017-4.752-.005-.385.1-.485.481-.479,1.564.022,3.129,0,4.694.019.387.006.489-.1.478-.482-.028-.957-.024-1.917,0-2.874.008-.339-.1-.41-.424-.417a17.136,17.136,0,0,1-4.085-.217,6.562,6.562,0,0,1,.445-12.79c.311-.055.467-.139.538-.477a11.2,11.2,0,0,1,17.011-7.3C755.936,734.406,756.04,734.455,756.173,734.526Zm3.062,10.038c0-.39.015-.736,0-1.08a9.377,9.377,0,0,0-12.964-8.284,9.094,9.094,0,0,0-5.785,8.2c-.034.4-.119.554-.541.5a4.117,4.117,0,0,0-1.682.155,4.688,4.688,0,0,0,1.286,9.2q11.235.018,22.47,0a5.254,5.254,0,0,0,.988-.1,4.683,4.683,0,0,0-1.789-9.193C760.561,744.079,759.968,744.387,759.235,744.564Zm.012,15.23c0,1.407.016,2.814-.01,4.221-.007.4.076.529.5.52,1.387-.03,2.775-.012,4.163-.011a2.77,2.77,0,0,1,2.207,1.026,2.887,2.887,0,0,1,.645,2.187c-.034.414.052.583.523.555.8-.048,1.6-.013,2.4-.013.829,0,.829,0,.835-.808a2.818,2.818,0,0,1,2.948-2.946c1.349-.006,2.7-.025,4.045.012.462.013.543-.135.528-.553-.032-.917-.033-1.837,0-2.755.015-.4-.127-.473-.491-.469-1.563.019-3.127-.007-4.69.018-.4.007-.476-.119-.472-.488.02-1.583,0-3.166.018-4.749.005-.371-.095-.446-.456-.428a14.125,14.125,0,0,1-5.192-.714,1.938,1.938,0,0,0-1.95.113,3.63,3.63,0,0,1-1.148.41,15.536,15.536,0,0,1-3.966.2c-.355.006-.46.08-.453.449C759.261,756.98,759.247,758.388,759.247,759.795Zm-8.452-4.659c-2.034,0-4.068.01-6.1-.009-.382,0-.486.1-.48.479.023,1.564,0,3.128.019,4.692.005.383-.1.486-.48.48-1.583-.023-3.168,0-4.752-.017-.331,0-.427.087-.42.419.022.958.028,1.916,0,2.874-.012.386.1.485.481.479,1.408-.023,2.816-.02,4.224-.005a2.806,2.806,0,0,1,2.78,2.377,4.428,4.428,0,0,1,.029.994c-.021.312.087.395.391.388.86-.02,1.721-.007,2.581-.007.785,0,.785,0,.79-.8a2.818,2.818,0,0,1,2.938-2.958c1.369-.007,2.738-.017,4.106.008.389.007.478-.106.476-.483q-.024-4.223,0-8.446c0-.387-.1-.481-.482-.477C754.862,755.146,752.829,755.136,750.8,755.136Zm-13.148,16.9c2.034,0,4.067-.01,6.1.009.38,0,.492-.093.485-.481-.025-1.349,0-2.7-.012-4.047,0-.765-.347-1.111-1.112-1.112q-5.455-.007-10.911,0c-.77,0-1.114.343-1.118,1.1-.007,1.349.011,2.7-.011,4.047-.006.374.083.493.477.489C733.58,772.023,735.613,772.034,737.647,772.034Zm20.631,0c2.053,0,4.106-.01,6.159.009.366,0,.457-.1.451-.455-.022-1.349,0-2.7-.01-4.047,0-.8-.339-1.137-1.145-1.138q-5.426-.005-10.852,0c-.806,0-1.141.336-1.144,1.138-.006,1.33.016,2.659-.012,3.988-.008.41.1.52.511.515C754.25,772.021,756.264,772.034,758.278,772.034Zm20.683,0c2.034,0,4.067-.01,6.1.009.38,0,.492-.093.485-.48-.024-1.349,0-2.7-.012-4.047,0-.766-.347-1.111-1.111-1.112q-5.455-.007-10.911,0c-.77,0-1.114.342-1.118,1.1-.007,1.349.011,2.7-.011,4.047-.006.373.083.493.476.489C774.893,772.023,776.927,772.034,778.961,772.034Zm-7.505-33.8c2.033,0,4.066,0,6.1,0,.279,0,.478.013.448-.387a32.819,32.819,0,0,0-.668-4.869c-.075-.33-.224-.385-.519-.385q-5.367.012-10.733,0c-.357,0-.449.132-.524.452a32.784,32.784,0,0,0-.646,4.577c-.041.471.036.635.56.626C767.467,738.216,769.461,738.236,771.455,738.236Zm-.006,1.878c-2.015,0-4.029.012-6.044-.01-.424,0-.535.107-.472.525a17.012,17.012,0,0,1,.149,1.752.647.647,0,0,0,.389.579,6.191,6.191,0,0,1,2.323,2.427.6.6,0,0,0,.633.366c2.778-.011,5.555-.015,8.333,0,.4,0,.516-.131.6-.505a35.05,35.05,0,0,0,.638-4.581c.045-.495-.122-.57-.562-.566C775.44,740.127,773.444,740.114,771.449,740.114Zm5.2-9.4a10.982,10.982,0,0,0-2.805-4.6,3.31,3.31,0,0,0-4.793,0,9.808,9.808,0,0,0-2.417,3.625,2.673,2.673,0,0,0-.323.974Zm-9.405,21.893a13.806,13.806,0,0,0,4.159.649,3.04,3.04,0,0,0,1.619-.441c1.952-1.191,2.826-3.128,3.636-5.192h-7.719c-.2,0-.379-.04-.345.29A6.635,6.635,0,0,1,767.247,752.609Zm15.411-14.372c.82,0,1.64-.011,2.459.006.283.006.362-.065.336-.361a14.009,14.009,0,0,0-1.4-4.976.467.467,0,0,0-.49-.307c-1.347.012-2.694.009-4.04,0-.238,0-.36.025-.291.319a26.5,26.5,0,0,1,.627,4.924c.015.349.153.406.458.4C781.1,738.224,781.878,738.237,782.659,738.237Zm.043,1.878c-.8,0-1.6.016-2.4-.008-.326-.009-.429.085-.443.415a26.1,26.1,0,0,1-.619,4.866c-.091.385.1.363.356.362,1.308-.005,2.616-.009,3.923,0a.5.5,0,0,0,.542-.319,14.259,14.259,0,0,0,1.391-4.92c.036-.373-.1-.411-.408-.4C784.264,740.125,783.483,740.114,782.7,740.114Zm-18.969-7.51c-1.527,0-3.008,0-4.489,0-.223,0-.3.126-.38.291a14.628,14.628,0,0,0-1.015,2.674.531.531,0,0,0,.169.572,9.383,9.383,0,0,1,1.393,1.8.52.52,0,0,0,.509.3c.918-.017,1.837-.012,2.756,0,.229,0,.351-.033.364-.307A28.821,28.821,0,0,1,763.733,732.6Zm15.28,41.308c-2.053,0-4.106,0-6.16.007-.158,0-.388-.139-.465.182a1.219,1.219,0,0,0,1.306,1.688h10.5c1.071,0,1.32-.281,1.355-1.355.015-.459-.133-.537-.553-.532C783,773.925,781.008,773.912,779.013,773.912Zm-20.705,0c-2.034,0-4.067,0-6.1.007-.159,0-.39-.14-.474.171a1.223,1.223,0,0,0,1.293,1.7h10.442c1.156,0,1.407-.268,1.421-1.4,0-.381-.1-.487-.481-.483C762.376,773.923,760.342,773.912,758.308,773.912Zm-20.633,0c-2.034,0-4.068,0-6.1.007-.164,0-.4-.135-.493.148a1.226,1.226,0,0,0,1.206,1.722q5.309,0,10.618,0c1.037,0,1.292-.285,1.33-1.321.017-.469-.126-.573-.577-.568C741.664,773.926,739.669,773.912,737.675,773.912ZM766.5,726.064a13.588,13.588,0,0,0-6.291,4.662c1.353,0,2.579-.009,3.8.007.281,0,.312-.181.371-.356A17.962,17.962,0,0,1,766.5,726.064Zm16.192,4.662a14.241,14.241,0,0,0-6.426-4.767,16.463,16.463,0,0,1,2.29,4.49c.049.145.087.283.3.281C780.095,730.721,781.334,730.726,782.689,730.726Zm0,16.9c-1.289,0-2.439.016-3.589-.009a.532.532,0,0,0-.612.438,15.412,15.412,0,0,1-1.639,3.476c-.157.246-.319.49-.557.853A14.332,14.332,0,0,0,782.691,747.624Zm-3.732,31.92h.467c1.458,0,1.458,0,1.415-1.459a.808.808,0,0,1,0-.117c.025-.223-.066-.306-.3-.3q-1.577.013-3.154,0c-.218,0-.289.064-.312.294-.158,1.587-.164,1.586,1.412,1.586Zm-41.309,0h.467c1.456,0,1.456,0,1.41-1.465a.809.809,0,0,1,0-.117c.027-.229-.078-.3-.3-.3-1.052.008-2.1,0-3.154,0-.17,0-.308.011-.3.239.017.522-.136,1.132.087,1.539.164.3.827.066,1.266.1C737.3,779.555,737.476,779.545,737.651,779.545Zm20.624,0h.467c1.5,0,1.491,0,1.451-1.49-.008-.3-.082-.4-.393-.394-.642.023-1.285.007-1.927.007-1.555,0-1.547,0-1.45,1.549.016.249.075.342.333.333C757.262,779.532,757.768,779.544,758.275,779.545Zm4.824-38.331c-.068-1.1-.068-1.1-1.141-1.1h-.468c-.97,0-.969,0-.735.926.081.319.058.734.256.936.237.242.656-.033,1,.015.134.019.273.006.409.013.73.036.73.036.684-.732C763.1,741.252,763.1,741.232,763.1,741.213Z" transform="translate(-729.198 -723.183)" fill="#010101"/>
      <path id="Trazado_640827" data-name="Trazado 640827" d="M777.521,781.25c.733-.178,1.327-.485,1.98-.608a4.683,4.683,0,0,1,1.789,9.193,5.239,5.239,0,0,1-.988.1q-11.235.009-22.47,0a4.688,4.688,0,0,1-1.286-9.2,4.114,4.114,0,0,1,1.682-.155c.422.056.508-.1.541-.5a9.094,9.094,0,0,1,5.785-8.2,9.377,9.377,0,0,1,12.964,8.284C777.536,780.514,777.521,780.859,777.521,781.25Zm-15.954,6.815a2.816,2.816,0,1,0-2.812-2.849A2.83,2.83,0,0,0,761.567,788.065Zm7.517-5.631a2.816,2.816,0,1,0,2.814,2.846A2.828,2.828,0,0,0,769.084,782.433Zm7.486,5.631a2.816,2.816,0,1,0-2.792-2.869A2.831,2.831,0,0,0,776.57,788.065Zm-8.054-15.012c-.3-.086-.4.06-.378.4a6.411,6.411,0,0,1,0,.994c-.029.355.062.471.457.51a5.63,5.63,0,0,1,4.487,2.884c.21.352.19.963.607,1.03a3.49,3.49,0,0,0,1.282-.334c.261-.072.364-.15.259-.477A7.643,7.643,0,0,0,768.516,773.052Z" transform="translate(-747.485 -759.868)" fill="#e4e7ea"/>
      <path id="Trazado_640828" data-name="Trazado 640828" d="M743.731,912.573c-2.034,0-4.067-.011-6.1.01-.393,0-.483-.115-.477-.489.022-1.349,0-2.7.011-4.047,0-.762.348-1.1,1.118-1.1q5.455-.006,10.911,0c.765,0,1.107.346,1.112,1.112.007,1.349-.013,2.7.011,4.047.007.387-.1.484-.485.481C747.8,912.563,745.764,912.573,743.731,912.573Z" transform="translate(-735.282 -863.722)" fill="#83d3ef"/>
      <path id="Trazado_640829" data-name="Trazado 640829" d="M831.531,912.573c-2.014,0-4.028-.013-6.042.011-.415,0-.52-.106-.511-.515.028-1.329.006-2.659.012-3.988,0-.8.338-1.137,1.144-1.138q5.426-.005,10.853,0c.806,0,1.141.336,1.145,1.138.006,1.349-.012,2.7.01,4.047.006.36-.085.458-.451.455C835.637,912.563,833.584,912.573,831.531,912.573Z" transform="translate(-802.451 -863.722)" fill="#83d3ef"/>
      <path id="Trazado_640830" data-name="Trazado 640830" d="M919.4,912.573c-2.034,0-4.067-.011-6.1.01-.394,0-.482-.115-.476-.489.022-1.349,0-2.7.011-4.047,0-.762.349-1.1,1.118-1.1q5.456-.006,10.911,0c.765,0,1.107.346,1.111,1.112.007,1.349-.013,2.7.011,4.047.007.388-.106.484-.485.48C923.462,912.563,921.429,912.573,919.4,912.573Z" transform="translate(-869.633 -863.722)" fill="#83d3ef"/>
      <path id="Trazado_640831" data-name="Trazado 640831" d="M887.567,768.844c-1.994,0-3.989-.021-5.982.014-.523.009-.6-.155-.56-.626a32.793,32.793,0,0,1,.646-4.577c.074-.32.167-.453.524-.452q5.366.021,10.733,0c.294,0,.444.055.519.385a32.823,32.823,0,0,1,.668,4.869c.03.4-.169.388-.448.387C891.633,768.841,889.6,768.844,887.567,768.844Z" transform="translate(-845.31 -753.791)" fill="#83d3ee"/>
      <path id="Trazado_640832" data-name="Trazado 640832" d="M887.6,795.141c2,0,3.99.012,5.985-.009.441,0,.607.071.562.566a35.05,35.05,0,0,1-.638,4.581c-.084.374-.2.508-.6.5-2.777-.018-5.555-.014-8.333,0a.6.6,0,0,1-.633-.366,6.191,6.191,0,0,0-2.323-2.427.646.646,0,0,1-.389-.579,17.007,17.007,0,0,0-.149-1.752c-.062-.418.049-.529.472-.525C883.572,795.153,885.587,795.141,887.6,795.141Z" transform="translate(-845.351 -778.21)" fill="#83d3ee"/>
      <path id="Trazado_640833" data-name="Trazado 640833" d="M897.353,736.918H887.016a2.673,2.673,0,0,1,.323-.974,9.808,9.808,0,0,1,2.417-3.625,3.31,3.31,0,0,1,4.793,0A10.983,10.983,0,0,1,897.353,736.918Z" transform="translate(-849.899 -729.385)" fill="#83d2ee"/>
      <path id="Trazado_640834" data-name="Trazado 640834" d="M890.979,832.086a6.635,6.635,0,0,0,1.35-4.694c-.034-.33.15-.289.345-.289h7.719c-.81,2.064-1.684,4-3.636,5.192a3.039,3.039,0,0,1-1.619.441A13.8,13.8,0,0,1,890.979,832.086Z" transform="translate(-852.93 -802.66)" fill="#83d2ee"/>
      <path id="Trazado_640835" data-name="Trazado 640835" d="M945.3,768.853c-.781,0-1.562-.012-2.342.006-.3.007-.443-.05-.458-.4a26.5,26.5,0,0,0-.627-4.924c-.069-.294.053-.32.291-.319,1.347.007,2.694.009,4.04,0a.467.467,0,0,1,.49.307,14.011,14.011,0,0,1,1.4,4.976c.026.3-.053.367-.336.361C946.942,768.843,946.122,768.853,945.3,768.853Z" transform="translate(-891.842 -753.8)" fill="#83d2ee"/>
      <path id="Trazado_640836" data-name="Trazado 640836" d="M945.358,795.146c.781,0,1.562.011,2.342-.005.306-.006.443.032.408.4a14.259,14.259,0,0,1-1.391,4.92.5.5,0,0,1-.542.319c-1.307-.012-2.615-.008-3.923,0-.258,0-.447.023-.356-.362a26.092,26.092,0,0,0,.619-4.866c.015-.33.118-.424.443-.415C943.757,795.162,944.558,795.146,945.358,795.146Z" transform="translate(-891.854 -778.215)" fill="#83d2ee"/>
      <path id="Trazado_640837" data-name="Trazado 640837" d="M856.818,763.226a28.829,28.829,0,0,0-.695,5.329c-.013.274-.135.31-.364.307-.919-.009-1.838-.014-2.756,0a.52.52,0,0,1-.509-.3,9.383,9.383,0,0,0-1.393-1.8.532.532,0,0,1-.169-.572,14.626,14.626,0,0,1,1.015-2.674c.084-.166.157-.293.38-.291C853.81,763.23,855.291,763.226,856.818,763.226Z" transform="translate(-822.284 -753.805)" fill="#83d2ee"/>
      <path id="Trazado_640838" data-name="Trazado 640838" d="M919.254,938.8c1.995,0,3.989.012,5.984-.01.42-.005.568.073.553.532-.035,1.074-.284,1.355-1.355,1.355h-10.5c-1.068,0-1.557-.645-1.306-1.688.077-.321.307-.181.465-.182C915.148,938.8,917.2,938.8,919.254,938.8Z" transform="translate(-869.439 -888.075)" fill="#ccd0d7"/>
      <path id="Trazado_640839" data-name="Trazado 640839" d="M831.353,938.8c2.034,0,4.068.01,6.1-.009.386,0,.485.1.481.483-.014,1.135-.265,1.4-1.421,1.4H826.072a1.224,1.224,0,0,1-1.293-1.7c.084-.31.315-.17.474-.171C827.286,938.8,829.32,938.8,831.353,938.8Z" transform="translate(-802.243 -888.072)" fill="#ccd0d7"/>
      <path id="Trazado_640840" data-name="Trazado 640840" d="M743.508,938.8c1.994,0,3.989.014,5.983-.011.45-.006.594.1.577.568-.038,1.036-.293,1.32-1.33,1.321q-5.309,0-10.618,0a1.226,1.226,0,0,1-1.206-1.722c.1-.284.328-.147.493-.148C739.44,938.793,741.474,938.8,743.508,938.8Z" transform="translate(-735.031 -888.067)" fill="#ccd0d7"/>
      <path id="Trazado_640841" data-name="Trazado 640841" d="M867.33,735.433a17.963,17.963,0,0,0-2.117,4.313c-.059.175-.089.36-.371.356-1.225-.016-2.451-.007-3.8-.007A13.587,13.587,0,0,1,867.33,735.433Z" transform="translate(-830.032 -732.552)" fill="#81d0eb"/>
      <path id="Trazado_640842" data-name="Trazado 640842" d="M935.74,739.753c-1.356,0-2.595,0-3.833,0-.215,0-.254-.136-.3-.282a16.458,16.458,0,0,0-2.29-4.49A14.24,14.24,0,0,1,935.74,739.753Z" transform="translate(-882.249 -732.21)" fill="#81d0eb"/>
      <path id="Trazado_640843" data-name="Trazado 640843" d="M935.847,827.073a14.331,14.331,0,0,1-6.4,4.758c.238-.364.4-.607.557-.853a15.411,15.411,0,0,0,1.639-3.476.532.532,0,0,1,.612-.438C933.408,827.089,934.558,827.073,935.847,827.073Z" transform="translate(-882.354 -802.632)" fill="#81d0eb"/>
      <path id="Trazado_640844" data-name="Trazado 640844" d="M934.447,956.712h-.467c-1.576,0-1.57,0-1.412-1.587.023-.229.094-.295.312-.293q1.577.012,3.154,0c.23,0,.321.082.3.3a.808.808,0,0,0,0,.117c.043,1.459.043,1.459-1.415,1.459Z" transform="translate(-884.686 -900.351)" fill="#aab1bb"/>
      <path id="Trazado_640845" data-name="Trazado 640845" d="M758.913,956.713c-.175,0-.351.01-.526,0-.439-.031-1.1.2-1.267-.1-.223-.407-.07-1.017-.087-1.539-.008-.228.131-.239.3-.239,1.051,0,2.1.006,3.154,0,.223,0,.328.069.3.3a.791.791,0,0,0,0,.117c.046,1.465.046,1.465-1.41,1.465Z" transform="translate(-750.461 -900.352)" fill="#aab1bb"/>
      <path id="Trazado_640846" data-name="Trazado 640846" d="M846.691,956.7c-.506,0-1.013-.012-1.519,0-.258.009-.318-.084-.333-.333-.1-1.549-.1-1.549,1.45-1.549.643,0,1.286.016,1.927-.007.311-.011.384.091.393.394.04,1.49.05,1.49-1.451,1.49Z" transform="translate(-817.615 -900.337)" fill="#aab1bb"/>
      <path id="Trazado_640847" data-name="Trazado 640847" d="M865.3,796.269c0,.019,0,.039,0,.058.046.768.046.768-.684.732-.136-.007-.275.006-.409-.013-.343-.048-.762.227-1-.015-.2-.2-.175-.617-.256-.936-.234-.926-.235-.926.735-.926h.468C865.23,795.17,865.23,795.17,865.3,796.269Z" transform="translate(-831.397 -778.24)" fill="#81d0eb"/>
      <path id="Trazado_640848" data-name="Trazado 640848" d="M779.929,824.758a2.816,2.816,0,1,1,2.82-2.783A2.829,2.829,0,0,1,779.929,824.758Zm-.018-3.753a.937.937,0,1,0,.958.9A.945.945,0,0,0,779.911,821.005Z" transform="translate(-765.847 -796.562)" fill="#030303"/>
      <path id="Trazado_640849" data-name="Trazado 640849" d="M811.873,819.127a2.816,2.816,0,1,1-2.817,2.784A2.826,2.826,0,0,1,811.873,819.127Zm-.938,2.77a.937.937,0,1,0,.967-.892A.949.949,0,0,0,810.935,821.9Z" transform="translate(-790.274 -796.562)" fill="#030303"/>
      <path id="Trazado_640850" data-name="Trazado 640850" d="M843.786,824.758a2.816,2.816,0,1,1,2.84-2.763A2.829,2.829,0,0,1,843.786,824.758Zm.049-3.753a.938.938,0,1,0,.912.948A.946.946,0,0,0,843.836,821.005Z" transform="translate(-814.701 -796.562)" fill="#030303"/>
      <path id="Trazado_640851" data-name="Trazado 640851" d="M817.372,779.16a7.643,7.643,0,0,1,6.713,5c.105.327,0,.405-.259.477a3.489,3.489,0,0,1-1.282.334c-.417-.067-.4-.678-.607-1.03a5.63,5.63,0,0,0-4.487-2.884c-.4-.039-.486-.154-.457-.51a6.389,6.389,0,0,0,0-.994C816.969,779.22,817.074,779.074,817.372,779.16Z" transform="translate(-796.341 -765.976)" fill="#040404"/>
      <path id="Trazado_640852" data-name="Trazado 640852" d="M786.022,827.113a.937.937,0,1,1-.915.944A.947.947,0,0,1,786.022,827.113Z" transform="translate(-771.958 -802.67)" fill="#e3816e"/>
      <path id="Trazado_640853" data-name="Trazado 640853" d="M817.042,828a.937.937,0,1,1,.877.981A.946.946,0,0,1,817.042,828Z" transform="translate(-796.382 -802.669)" fill="#e3816e"/>
      <path id="Trazado_640854" data-name="Trazado 640854" d="M849.944,827.113a.938.938,0,1,1-.962.9A.945.945,0,0,1,849.944,827.113Z" transform="translate(-820.81 -802.67)" fill="#e3816e"/>
    </g>
  </g>
</svg>
