<svg xmlns="http://www.w3.org/2000/svg" width="69" height="69" viewBox="0 0 69 69">
  <g id="Grupo_980788" data-name="Grupo 980788" transform="translate(-0.417 -0.417)">
    <rect id="Rectángulo_308310" data-name="Rectángulo 308310" width="69" height="69" transform="translate(0.417 0.417)" fill="none"/>
    <g id="Grupo_980789" data-name="Grupo 980789" transform="translate(6.96 6.965)">
      <path id="Trazado_640957" data-name="Trazado 640957" d="M403.238,653.564q3.887,0,7.775,0a2.7,2.7,0,0,1,2.939,2.908q0,5.145,0,10.291a2.7,2.7,0,0,1-2.937,2.911c-1.268,0-2.536.014-3.8-.009-.349-.006-.463.086-.424.432.049.439-.181,1.022.092,1.283.229.218.811.105,1.231.074.4-.03.487.109.482.492-.018,1.308,0,1.309-1.332,1.309-.914,0-1.828.02-2.741-.01-.363-.012-.425.108-.421.438.019,1.3.013,2.61.007,3.915a2.685,2.685,0,0,1-2.808,2.815c-1.622.007-3.244.01-4.866-.006-.322,0-.444.071-.49.414a9.82,9.82,0,0,1-19.424.326c-.1-.636-.3-.76-.881-.747-1.789.038-3.579.017-5.369.013a2.664,2.664,0,0,1-2.845-2.876c.01-.56-.091-.761-.711-.854a9.853,9.853,0,1,1,2.925.039c-.361.045-.449.17-.447.518.009,1.137.236,1.383,1.363,1.383,1.809,0,3.617-.008,5.426.008.326,0,.437-.083.491-.417a9.632,9.632,0,0,1,6.6-8,.57.57,0,0,0,.464-.667,4.54,4.54,0,0,1,.068-1.39,2.7,2.7,0,0,1,2.873-2.053,2.606,2.606,0,0,1,2.391,2.635,1.538,1.538,0,0,0,1.176,1.766,9.47,9.47,0,0,1,5.9,7.685c.048.305.112.447.467.443,1.622-.021,3.244,0,4.866-.011a.911.911,0,0,0,1.04-1.023c.009-1.324-.011-2.647.011-3.971.006-.347-.131-.383-.421-.379-1.212.014-2.424-.006-3.635.014-.332.006-.471-.059-.435-.422.044-.44-.131-1.025.093-1.289s.839-.09,1.279-.077c.338.01.436-.072.436-.426,0-1.373.014-1.373-1.38-1.373-.988,0-1.976,0-2.964,0a2.682,2.682,0,0,1-2.825-2.8q-.01-5.257,0-10.514a2.677,2.677,0,0,1,2.823-2.8C397.943,653.56,400.591,653.564,403.238,653.564Zm-.025,10.739c2.815,0,5.63-.01,8.445.011.424,0,.518-.109.514-.521-.021-2.423-.009-4.846-.011-7.269,0-.872-.3-1.168-1.178-1.168q-7.773,0-15.547,0c-.878,0-1.174.3-1.174,1.172,0,2.423.011,4.846-.011,7.269,0,.419.1.521.518.518C397.583,664.294,400.4,664.3,403.213,664.3Zm-34.867-5.369A8.055,8.055,0,1,0,376.359,667,8.069,8.069,0,0,0,368.346,658.934Zm20.545,13c0,.528.029.959-.009,1.383a.757.757,0,0,0,.463.823,6.159,6.159,0,0,1,3.027,6.395,6.248,6.248,0,0,1-11.993,1.265,6.051,6.051,0,0,1,2.162-7.282,2,2,0,0,0,1-2.063c-.028-.521-.176-.479-.545-.323a8.033,8.033,0,0,0-4.69,8.922,7.694,7.694,0,0,0,6.251,6.318,7.553,7.553,0,0,0,8.148-3.154,7.642,7.642,0,0,0,.45-8.725A7.756,7.756,0,0,0,388.89,671.936Zm0,4.078c0,.574,0,1.076,0,1.577a2.688,2.688,0,1,1-5.369-.012c0-.509,0-1.019,0-1.581a4.392,4.392,0,0,0-1.571,4.887,4.467,4.467,0,0,0,8.544-.118A4.347,4.347,0,0,0,388.89,676.014Zm14.378-9.92h-3.02c-1.845,0-3.691.01-5.536-.009-.364,0-.465.091-.46.458.013,1.083.253,1.339,1.353,1.339h15.268c1.027,0,1.271-.267,1.3-1.281.013-.418-.1-.522-.516-.519C408.861,666.1,406.064,666.094,403.268,666.094ZM387.1,673.305c0-1.436,0-2.871,0-4.307,0-.7-.34-1.114-.9-1.111s-.889.412-.89,1.118q0,4.251,0,8.5c0,.7.339,1.113.9,1.111s.889-.412.89-1.118C387.1,676.1,387.1,674.7,387.1,673.305Zm16.14-3.631h-.445c-1.43,0-1.43,0-1.373,1.423a.3.3,0,0,1,0,.056c-.035.245.072.321.314.315.631-.014,1.262,0,1.893,0,1.43,0,1.43,0,1.373-1.423a.331.331,0,0,1,0-.056c.035-.245-.072-.323-.314-.315C404.206,669.685,403.723,669.674,403.24,669.674Z" transform="translate(-358.457 -633.874)" fill="#020202"/>
      <path id="Trazado_640958" data-name="Trazado 640958" d="M490.208,582.907c0-2.088,0-4.176,0-6.264a2.683,2.683,0,0,1,2.834-2.843c1.6-.005,3.207-.011,4.81.006.341,0,.475-.073.525-.44a8.948,8.948,0,1,1,0,2.664c-.048-.356-.163-.454-.516-.45-1.585.02-3.169.006-4.755.01-.8,0-1.107.317-1.108,1.125,0,4.213-.01,8.427.012,12.64,0,.478-.127.577-.581.565-1.222-.033-1.223-.01-1.223-1.252Q490.208,585.788,490.208,582.907Zm16.985-7.319c-.428,0-.856-.014-1.283.007-.179.009-.567-.129-.443.254.163.506-.322,1.2.433,1.526a.454.454,0,0,0,.166,0h1.562c1.222,0,1.209,0,1.339-1.232.043-.408-.006-.619-.492-.567A12.1,12.1,0,0,1,507.193,575.588Zm.031-1.79c.446,0,.893.01,1.339,0,.17-.006.508.1.4-.247-.15-.508.248-1.152-.373-1.532-.068-.041-.183-.006-.275-.006h-1.4c-1.445,0-1.437,0-1.479,1.444-.008.271.057.36.329.351C506.257,573.786,506.741,573.8,507.224,573.8Zm5.271,0c.484,0,.969.005,1.453,0,.112,0,.313.076.315-.109a3.76,3.76,0,0,0-.362-1.508c-.143-.335-.5-.14-.752-.162-.37-.031-.745-.008-1.117-.008-1.462,0-1.455,0-1.27,1.487.03.239.1.315.336.307C511.564,573.787,512.03,573.8,512.5,573.8Zm-10.542,1.79h-.5c-1.5,0-1.558.091-.972,1.5a.252.252,0,0,1,.018.053c.032.178.14.24.317.239.894,0,1.788,0,2.682,0,.127,0,.28.023.262-.184a4.459,4.459,0,0,0-.188-1.527c-.123-.247-.726-.05-1.113-.076C502.289,575.579,502.12,575.588,501.953,575.588Zm10.6,0H512.1c-1.365,0-1.365,0-1.418,1.364a.7.7,0,0,1-.007.111c-.049.245.05.325.3.318.558-.014,1.117,0,1.676,0,1.374,0,1.37,0,1.6-1.345.053-.308.04-.489-.362-.453C513.446,575.618,513,575.588,512.549,575.588Zm-10.67-1.79v-.044H503.6q.074-.687.148-1.375c0-.019,0-.038,0-.056.049-.243-.046-.326-.294-.32-.577.015-1.155,0-1.732,0-1.258,0-1.258,0-1.521,1.235-.008.036-.015.073-.024.109-.072.3-.047.49.358.454C500.982,573.768,501.432,573.8,501.879,573.8Zm6.625,5.37c-.807,0-1.566.005-2.325,0-.221,0-.246.1-.2.274a6.654,6.654,0,0,0,.895,2.142c.238.338.459.322.685-.009A6.752,6.752,0,0,0,508.5,579.168Zm0-8.949a6.741,6.741,0,0,0-.945-2.406c-.228-.333-.448-.343-.685-.005a6.658,6.658,0,0,0-.894,2.143c-.048.177-.017.274.2.272C506.939,570.214,507.7,570.219,508.5,570.219Zm1.259-2.187c.2.721.386,1.357.559,2,.034.124.081.193.22.192.714,0,1.427,0,2.258,0A7.132,7.132,0,0,0,509.762,568.031Zm3.032,11.136c-.8,0-1.472,0-2.139,0-.117,0-.267-.055-.318.134-.181.664-.367,1.327-.57,2.062A7.276,7.276,0,0,0,512.794,579.167Zm-8.122,2.2c-.2-.718-.375-1.323-.543-1.929-.04-.143-.057-.279-.27-.276-.7.011-1.4,0-2.226,0A7.251,7.251,0,0,0,504.672,581.367Zm-3-11.148c.775,0,1.459,0,2.144,0,.1,0,.227.027.269-.125.184-.668.371-1.335.565-2.034A6.369,6.369,0,0,0,501.677,570.219Z" transform="translate(-460.67 -565.742)" fill="#010202"/>
      <path id="Trazado_640959" data-name="Trazado 640959" d="M358.45,576.451q0-3.914,0-7.828a2.694,2.694,0,0,1,2.9-2.888q4.278,0,8.556,0a2.687,2.687,0,0,1,2.864,2.869c0,2.125.015,4.25-.01,6.374-.005.461.066.622.586.616,2.721-.033,5.443-.017,8.164-.015a2.691,2.691,0,0,1,2.9,2.893c0,3.634-.009,7.269.013,10.9,0,.457-.137.541-.554.532-1.248-.024-1.248-.007-1.248-1.279q0-5.032,0-10.064c0-.91-.288-1.195-1.206-1.2-2.721,0-5.443.009-8.164-.01-.394,0-.489.1-.485.488.021,2.143.012,4.286.009,6.43a2.7,2.7,0,0,1-2.91,2.937q-4.25,0-8.5,0a2.7,2.7,0,0,1-2.911-2.934Q358.447,580.365,358.45,576.451Zm7.134,5.393c1.658,0,3.316-.01,4.974.008.348,0,.433-.091.431-.434q-.02-4.945,0-9.891c0-.347-.091-.433-.434-.431q-4.946.02-9.892,0c-.347,0-.433.091-.431.434q.02,4.945,0,9.891c0,.348.091.435.434.432C362.305,581.834,363.944,581.844,365.584,581.844Zm.027,1.79c-1.64,0-3.279,0-4.919.007-.153,0-.371-.126-.453.166a1.165,1.165,0,0,0,1.234,1.617q4.108,0,8.217,0c1.042,0,1.289-.273,1.3-1.336,0-.364-.093-.467-.46-.463C368.89,583.646,367.251,583.634,365.611,583.634Zm0-14.319c1.64,0,3.279,0,4.919-.006.153,0,.371.126.452-.167a1.165,1.165,0,0,0-1.235-1.616q-4.108,0-8.217,0c-1.043,0-1.287.272-1.3,1.336,0,.365.095.467.461.462C362.331,569.3,363.971,569.315,365.611,569.315Z" transform="translate(-358.449 -565.734)"/>
      <path id="Trazado_640960" data-name="Trazado 640960" d="M468.047,682.438c0,.868,0,.868-.866.868-.924,0-.924,0-.924-.922,0-.868,0-.868.866-.868C468.047,681.516,468.047,681.516,468.047,682.438Z" transform="translate(-442.089 -655.561)"/>
      <path id="Trazado_640961" data-name="Trazado 640961" d="M491.107,683.306c-.893,0-.893,0-.893-.9s0-.893.9-.893.893,0,.893.9S492,683.306,491.107,683.306Z" transform="translate(-460.676 -655.561)"/>
      <path id="Trazado_640962" data-name="Trazado 640962" d="M468.047,698.329c0,.946,0,.946-.956.946-.835,0-.835,0-.835-.844,0-.946,0-.946.956-.946C468.047,697.485,468.047,697.485,468.047,698.329Z" transform="translate(-442.089 -667.95)"/>
      <path id="Trazado_640963" data-name="Trazado 640963" d="M492,698.391c0,.884,0,.884-.907.884-.883,0-.883,0-.883-.907,0-.883,0-.883.907-.883C492,697.485,492,697.485,492,698.391Z" transform="translate(-460.676 -667.95)"/>
      <path id="Trazado_640964" data-name="Trazado 640964" d="M527.079,670.5c-2.815,0-5.63-.01-8.444.01-.419,0-.522-.1-.518-.518.022-2.423.01-4.846.011-7.269,0-.876.3-1.171,1.174-1.172q7.773,0,15.547,0c.878,0,1.177.3,1.178,1.168,0,2.423-.01,4.846.011,7.269,0,.412-.09.525-.514.521C532.709,670.494,529.894,670.5,527.079,670.5Z" transform="translate(-482.323 -640.075)" fill="#83d3ef"/>
      <path id="Trazado_640965" data-name="Trazado 640965" d="M374.537,677.524a8.055,8.055,0,1,1-8.1,7.984A8.07,8.07,0,0,1,374.537,677.524Zm.407,1.793a10.221,10.221,0,0,0-6.746,2.273c-.7.577-.7.577-.08,1.194a3.328,3.328,0,0,1,.314.318c.234.308.4.337.733.041a8.007,8.007,0,0,1,10.094-.477c.324.238.676.722.948.678.347-.056.607-.558.939-.823s.223-.439-.045-.674A9.672,9.672,0,0,0,374.944,679.317Zm2.234,9.864a2.684,2.684,0,1,0-2.679,2.661A2.7,2.7,0,0,0,377.178,689.181Zm-2.647-6.29a6.343,6.343,0,0,0-3.771,1.244c-.74.547-.74.547-.111,1.176a4.856,4.856,0,0,1,.352.358c.211.259.363.289.662.045a4.447,4.447,0,0,1,5.113-.409c.328.19.6.675.943.566s.582-.551.892-.817c.276-.236.283-.385-.011-.633A6.389,6.389,0,0,0,374.532,682.891Z" transform="translate(-364.648 -652.463)" fill="#f8e7ac"/>
      <path id="Trazado_640966" data-name="Trazado 640966" d="M456.994,735.523a7.756,7.756,0,0,1,4.265,3.559,7.642,7.642,0,0,1-.45,8.725,7.553,7.553,0,0,1-8.148,3.154,7.694,7.694,0,0,1-6.251-6.318,8.033,8.033,0,0,1,4.689-8.922c.368-.156.516-.2.544.323a2,2,0,0,1-1,2.063,6.051,6.051,0,0,0-2.162,7.282,6.248,6.248,0,0,0,11.993-1.265,6.159,6.159,0,0,0-3.027-6.395.757.757,0,0,1-.463-.823C457.022,736.482,456.994,736.051,456.994,735.523Z" transform="translate(-426.561 -697.461)" fill="#eb8572"/>
      <path id="Trazado_640967" data-name="Trazado 640967" d="M527.138,709.426c2.8,0,5.592.01,8.389-.011.42,0,.529.1.516.518-.03,1.015-.274,1.281-1.3,1.281H519.474c-1.1,0-1.339-.257-1.353-1.339,0-.367.1-.462.46-.458,1.845.019,3.691.009,5.536.009Z" transform="translate(-482.327 -677.205)" fill="#ccd0d7"/>
      <path id="Trazado_640968" data-name="Trazado 640968" d="M480.023,722.881c0,1.4,0,2.8,0,4.2,0,.706-.333,1.116-.89,1.118s-.9-.409-.9-1.111q0-4.251,0-8.5c0-.706.333-1.116.89-1.118s.9.409.9,1.111C480.026,720.01,480.023,721.445,480.023,722.881Z" transform="translate(-451.381 -683.449)" fill="#e97559"/>
      <path id="Trazado_640969" data-name="Trazado 640969" d="M551.865,725.416c.482,0,.966.011,1.448,0,.241-.008.349.071.314.315a.337.337,0,0,0,0,.056c.058,1.423.058,1.423-1.373,1.423-.631,0-1.262-.009-1.893,0-.241.005-.349-.07-.313-.315a.312.312,0,0,0,0-.056c-.057-1.423-.057-1.423,1.373-1.423Z" transform="translate(-507.082 -689.616)" fill="#aab1bb"/>
      <path id="Trazado_640970" data-name="Trazado 640970" d="M559.924,609.6a12.12,12.12,0,0,0,1.282-.009c.486-.052.535.159.492.567-.13,1.231-.117,1.232-1.339,1.232H558.8a.451.451,0,0,1-.166,0c-.755-.326-.269-1.02-.433-1.526-.124-.384.265-.246.443-.254C559.068,609.582,559.5,609.6,559.924,609.6Z" transform="translate(-513.402 -599.75)" fill="#83d2ee"/>
      <path id="Trazado_640971" data-name="Trazado 640971" d="M559.958,595.429c-.484,0-.968-.013-1.451,0-.272.01-.337-.08-.329-.351.042-1.444.034-1.444,1.479-1.444h1.4c.093,0,.208-.035.276.006.621.38.223,1.024.373,1.532.1.351-.234.241-.4.247C560.851,595.438,560.4,595.429,559.958,595.429Z" transform="translate(-513.404 -587.372)" fill="#83d2ee"/>
      <path id="Trazado_640972" data-name="Trazado 640972" d="M583.34,595.376c-.466,0-.932-.011-1.4,0-.236.008-.306-.068-.336-.307-.185-1.488-.193-1.487,1.27-1.487.373,0,.747-.023,1.117.008.256.022.609-.173.752.162a3.76,3.76,0,0,1,.362,1.508c0,.185-.2.107-.315.109C584.309,595.381,583.825,595.376,583.34,595.376Z" transform="translate(-531.515 -587.32)" fill="#83d2ee"/>
      <path id="Trazado_640973" data-name="Trazado 640973" d="M536.306,609.487c.167,0,.336-.009.5,0,.386.025.99-.172,1.113.075a4.46,4.46,0,0,1,.188,1.527c.018.207-.134.184-.262.184-.894,0-1.788,0-2.682,0-.176,0-.284-.061-.317-.239a.252.252,0,0,0-.017-.053c-.586-1.408-.527-1.5.971-1.5Z" transform="translate(-495.023 -599.64)" fill="#83d2ee"/>
      <path id="Trazado_640974" data-name="Trazado 640974" d="M583.353,609.611c.447,0,.9.03,1.34-.009.4-.035.415.146.362.453-.232,1.345-.228,1.345-1.6,1.345-.559,0-1.118-.01-1.676,0-.246.007-.345-.073-.3-.318a.7.7,0,0,0,.007-.111c.053-1.364.053-1.364,1.418-1.364Z" transform="translate(-531.474 -599.765)" fill="#83d2ee"/>
      <path id="Trazado_640975" data-name="Trazado 640975" d="M536.288,595.46c-.447,0-.9-.03-1.34.009-.4.035-.43-.153-.358-.454.008-.036.016-.073.023-.109.263-1.235.263-1.235,1.521-1.235.578,0,1.155.01,1.732,0,.248-.006.343.077.294.32,0,.018,0,.037,0,.056q-.074.687-.147,1.375h-1.721Z" transform="translate(-495.08 -587.404)" fill="#83d2ee"/>
      <path id="Trazado_640976" data-name="Trazado 640976" d="M563.021,625.612a6.752,6.752,0,0,1-.944,2.4c-.226.331-.447.348-.685.009a6.653,6.653,0,0,1-.895-2.142c-.047-.174-.023-.276.2-.274C561.455,625.617,562.214,625.612,563.021,625.612Z" transform="translate(-515.188 -612.187)" fill="#81cfea"/>
      <path id="Trazado_640977" data-name="Trazado 640977" d="M563.022,576.5c-.806,0-1.565-.005-2.323,0-.218,0-.249-.094-.2-.272a6.657,6.657,0,0,1,.894-2.143c.237-.338.457-.327.685.005A6.74,6.74,0,0,1,563.022,576.5Z" transform="translate(-515.189 -572.022)" fill="#81cfea"/>
      <path id="Trazado_640978" data-name="Trazado 640978" d="M577.441,575.946a7.131,7.131,0,0,1,3.038,2.186c-.831,0-1.545,0-2.258,0-.139,0-.186-.068-.22-.192C577.827,577.3,577.644,576.667,577.441,575.946Z" transform="translate(-528.349 -573.657)" fill="#80cee9"/>
      <path id="Trazado_640979" data-name="Trazado 640979" d="M580.488,625.605a7.277,7.277,0,0,1-3.028,2.2c.2-.735.39-1.4.57-2.062.051-.188.2-.133.318-.134C579.016,625.6,579.683,625.605,580.488,625.605Z" transform="translate(-528.364 -612.18)" fill="#80cee9"/>
      <path id="Trazado_640980" data-name="Trazado 640980" d="M544.216,627.807a7.25,7.25,0,0,1-3.039-2.2c.826,0,1.526.007,2.226,0,.213,0,.23.133.27.276C543.841,626.484,544.013,627.089,544.216,627.807Z" transform="translate(-500.214 -612.182)" fill="#80cee9"/>
      <path id="Trazado_640981" data-name="Trazado 640981" d="M541.372,578.228a6.369,6.369,0,0,1,2.977-2.16c-.195.7-.381,1.366-.565,2.034-.042.152-.164.125-.269.125C542.831,578.23,542.147,578.228,541.372,578.228Z" transform="translate(-500.366 -573.751)" fill="#80cee9"/>
      <path id="Trazado_640982" data-name="Trazado 640982" d="M371.754,600.406c-1.639,0-3.279-.01-4.918.008-.343,0-.435-.084-.434-.432q.021-4.945,0-9.891c0-.343.084-.435.431-.434q4.946.021,9.892,0c.343,0,.435.084.434.431q-.021,4.945,0,9.89c0,.343-.083.438-.431.434C375.07,600.4,373.412,600.406,371.754,600.406Z" transform="translate(-364.619 -584.295)" fill="#bbda89"/>
      <path id="Trazado_640983" data-name="Trazado 640983" d="M371.561,645.516c1.64,0,3.279.011,4.919-.009.368,0,.464.1.46.463-.011,1.062-.258,1.336-1.3,1.336q-4.108,0-8.217,0a1.165,1.165,0,0,1-1.234-1.617c.081-.292.3-.165.453-.166C368.282,645.512,369.921,645.516,371.561,645.516Z" transform="translate(-364.399 -627.615)" fill="#aab1bb"/>
      <path id="Trazado_640984" data-name="Trazado 640984" d="M371.776,575.514c-1.64,0-3.279-.011-4.919.009-.367,0-.465-.1-.461-.462.012-1.064.256-1.336,1.3-1.336q4.108,0,8.217,0a1.165,1.165,0,0,1,1.235,1.616c-.08.293-.3.166-.452.167C375.055,575.518,373.415,575.514,371.776,575.514Z" transform="translate(-364.614 -571.933)" fill="#aab1bb"/>
      <path id="Trazado_640985" data-name="Trazado 640985" d="M379.185,685.521a9.672,9.672,0,0,1,6.156,2.531c.268.236.391.4.045.674s-.592.766-.939.823c-.272.044-.623-.44-.948-.678a8.007,8.007,0,0,0-10.094.477c-.33.3-.5.267-.733-.041a3.325,3.325,0,0,0-.314-.318c-.617-.617-.617-.617.08-1.194A10.221,10.221,0,0,1,379.185,685.521Z" transform="translate(-368.889 -658.668)" fill="#050504"/>
      <path id="Trazado_640986" data-name="Trazado 640986" d="M395.769,720.158a2.684,2.684,0,1,1-2.633-2.706A2.7,2.7,0,0,1,395.769,720.158Zm-1.792-.019a.892.892,0,1,0-.882.888A.9.9,0,0,0,393.977,720.139Z" transform="translate(-383.239 -683.44)" fill="#020202"/>
      <path id="Trazado_640987" data-name="Trazado 640987" d="M387.514,701.466A6.388,6.388,0,0,1,391.582,703c.294.248.287.4.011.633-.31.266-.544.708-.892.817s-.615-.377-.943-.567a4.448,4.448,0,0,0-5.113.409c-.3.244-.451.214-.662-.045a4.866,4.866,0,0,0-.352-.358c-.628-.628-.628-.628.111-1.176A6.343,6.343,0,0,1,387.514,701.466Z" transform="translate(-377.631 -671.039)" fill="#050504"/>
      <path id="Trazado_640988" data-name="Trazado 640988" d="M400.178,726.341a.892.892,0,1,1-.874-.9A.9.9,0,0,1,400.178,726.341Z" transform="translate(-389.44 -689.642)" fill="#eb8572"/>
    </g>
  </g>
</svg>
