<svg xmlns="http://www.w3.org/2000/svg" width="92" height="92" viewBox="0 0 92 92">
  <g id="Grupo_963290" data-name="Grupo 963290" transform="translate(-743.379 -963.556)">
    <g id="Grupo_963195" data-name="Grupo 963195" transform="translate(308.379 -3377.444)">
      <circle id="Elipse_7706" data-name="Elipse 7706" cx="46" cy="46" r="46" transform="translate(435 4341)" fill="#449c6e"/>
      <g id="Grupo_980777" data-name="Grupo 980777" transform="translate(81.904 3786.901)">
        <path id="Trazado_640708" data-name="Trazado 640708" d="M371.1,600.335c-.952-.008-1.2-.22-1.5-1.211-.135-.446-.013-1.083-.371-1.308s-.912-.077-1.383-.09a2.619,2.619,0,0,1-2.659-2.645c-.023-1.12,0-2.242-.006-3.363a2.507,2.507,0,0,1,1.147-2.219.825.825,0,0,0,.395-.786,49.378,49.378,0,0,1,.114-5.521,9.233,9.233,0,0,1,8.725-7.885q5.3-.1,10.61,0a9.2,9.2,0,0,1,8.791,8.631c.068,1.566.038,3.138.03,4.707a.868.868,0,0,0,.42.858,2.556,2.556,0,0,1,1.156,2.223c.02,1.1.026,2.192,0,3.288a2.665,2.665,0,0,1-2.764,2.712c-1.334.025-1.32.029-1.661,1.252a9.111,9.111,0,0,1-5.781,6.364.772.772,0,0,0-.561.788,2.747,2.747,0,0,0,.985,2.467,6.721,6.721,0,0,0,3.122,1.88c1.394.348,2.744.867,4.117,1.3a9.716,9.716,0,0,1,4.245,2.634c.018-.388.038-.643.04-.9.015-2.415.007-4.831.051-7.246.017-.962.334-1.225,1.328-1.335a1.364,1.364,0,0,1,.921,1.514c-.041,1.837-.019,3.676-.043,5.514-.005.4.1.578.538.568,1.118-.026,2.237-.03,3.353,0,.468.013.516-.2.512-.58-.015-1.615,0-3.23-.011-4.844a1.206,1.206,0,0,1,1.051-1.384c.918.161,1.193.471,1.195,1.388,0,3.213.013,6.426-.01,9.639,0,.526.147.678.669.666,1.419-.033,2.839,0,4.259-.011a1.9,1.9,0,0,1,1.48.59,2.071,2.071,0,0,1,.325,2.359c-1.256,3.167-2.483,6.344-3.748,9.507-.226.565-.149.726.483.715q2.764-.051,5.529,0c.557.01.72-.149.717-.711-.022-4.334-.016-8.667-.006-13a1.382,1.382,0,0,0-.33-.948c-1.312-1.6-2.555-3.254-3.927-4.8a3.694,3.694,0,0,1-.968-3.764c.152-.507.03-.783-.57-.81a2.729,2.729,0,0,1-2.6-2c-.464-1.286-.988-2.552-1.417-3.849-.194-.588-.454-.682-.943-.385l-.145.074a6.021,6.021,0,0,0-3.1,1.5,1.925,1.925,0,0,1-1.866.589c-.672-1.1-.619-1.444.355-2.278a8.97,8.97,0,0,1,3.1-1.735,46.391,46.391,0,0,1,4.472-1.4c1.725-.37,2.741-1.6,3.893-2.712a.714.714,0,0,0,.19-.537c.087-1.556.08-1.535-1.3-2.218a9.09,9.09,0,0,1-5.147-6.636c-.11-.546-.309-.737-.86-.689a4.691,4.691,0,0,1-1.41-.065,2.645,2.645,0,0,1-2.033-2.622c-.024-1.1-.018-2.191,0-3.287a2.564,2.564,0,0,1,1.147-2.227.873.873,0,0,0,.432-.853c-.013-1.518-.038-3.039.02-4.556a9.212,9.212,0,0,1,9.08-8.807q5-.048,10.01,0a9.261,9.261,0,0,1,9.152,8.989c.045,1.443.02,2.888.01,4.332a.9.9,0,0,0,.429.917,2.387,2.387,0,0,1,1.1,2.087c0,1.17.025,2.341,0,3.511a2.609,2.609,0,0,1-2.629,2.593c-.472.013-1.034-.135-1.391.073-.372.217-.251.853-.387,1.3a9.221,9.221,0,0,1-5.732,6.238.849.849,0,0,0-.623.907,2.676,2.676,0,0,0,.925,2.273,7.157,7.157,0,0,0,3.3,2.013c1.582.415,3.132.96,4.674,1.51a8.721,8.721,0,0,1,5.872,8.19q.05,5.789,0,11.578a7.687,7.687,0,0,1-5.93,7.474c-.542.134-.745.319-.737.919.04,2.838.022,5.677.016,8.515,0,2.085-1.031,3.1-3.13,3.1-5.329,0-10.657-.006-15.986.007-.769,0-1.313-.224-1.47-1.042.152-.945.455-1.2,1.442-1.207q6.772-.016,13.544-.026c.894.008,1.788,0,2.682.03.484.014.676-.2.67-.668-.009-.72-.013-1.442,0-2.162.007-.33-.064-.505-.448-.493-.968.03-1.936.028-2.9.039q-8.014-.017-16.028-.04a.5.5,0,0,0-.535.393q-.775,2.05-1.561,4.1a1.561,1.561,0,0,1-1.713,1.09q-20.692-.035-41.383-.017c-2.013,0-3.043-1.021-3.044-3.016q0-7.32,0-14.64a8.846,8.846,0,0,1,6.481-8.888c1.652-.535,3.293-1.115,4.968-1.567,1.262-.34,1.887-1.4,2.778-2.161a1.4,1.4,0,0,0,.552-.989c.111-1.061-.1-1.818-1.284-2.036a2.515,2.515,0,0,1-.731-.363c-.9-.516-1.034-.93-.641-1.9a1.381,1.381,0,0,1,1.77-.046,5.867,5.867,0,0,0,2.947.917c1.659.042,3.32,0,4.979,0a7.017,7.017,0,0,0,7.024-5.409c.345-1.5.025-3.036.218-4.53a6.29,6.29,0,0,0-2.074-5.786,1.935,1.935,0,0,1-.138-.176.852.852,0,0,0-1.29-.222,12.925,12.925,0,0,1-11.752-.048.937.937,0,0,0-1.3.3c-.644.82-1.295,1.635-1.965,2.433a1.162,1.162,0,0,0-.221.833c0,1.764.007,3.528,0,5.292a8.616,8.616,0,0,0,.3,2.28C372.056,599.565,371.932,599.862,371.1,600.335Zm31.622,14.456c-.566-.009-1.133,0-1.7-.033-.359-.019-.479.117-.465.467.109,2.659-.592,2.146,2.162,2.138a.431.431,0,0,0,.072.017c2.27.138,2.261.138,2.188-2.116-.012-.364-.075-.541-.486-.512C403.91,614.792,403.317,614.78,402.726,614.791Zm-21.073-8.827c-1.014-.009-2.028-.008-3.042-.031-.308-.007-.421.071-.442.4a2.092,2.092,0,0,0,.73,2.034,11,11,0,0,1,1.193,1.218c.808.842.808.842,1.573-.061.505-.5,1.013-1,1.515-1.512a2.361,2.361,0,0,0,.379-1.914c-.3-.379-.775-.111-1.169-.162A4.423,4.423,0,0,0,381.653,605.963Zm33.78-13.449c-.1-.025-.136.01-.109.11a2.31,2.31,0,0,0,.892,2.49,8.3,8.3,0,0,1,.945.954c.9.925.9.925,1.739-.091.458-.455.886-.946,1.38-1.357a1.743,1.743,0,0,0,.364-1.93c-.111-.489-.776-.115-1.185-.2a2.551,2.551,0,0,0-.594.021Zm15.656,30.593c-.129.44-.094.673.47.477a5.51,5.51,0,0,0,3.76-4.066,10.041,10.041,0,0,0,.134-2.669c-.01-.683.325-1.644-.144-1.977s-1.379-.079-2.095-.081c-.57-.009-1.14,0-1.709-.034-.364-.021-.471.12-.468.469C431.063,617.853,431.074,620.48,431.089,623.107ZM423.5,604.4c.148,0,.3,0,.445.006a1.469,1.469,0,0,0,1.7-1.25,24.765,24.765,0,0,1,.943-2.578c.477-1.278.476-1.278-.861-1.581a.673.673,0,0,0-1.014.127c-1.738,1.977-3.511,3.924-5.28,5.872a.986.986,0,0,0-.3.724c.019,1.614.023,3.227.032,4.841v2.129c1.044-1.291,1.974-2.444,2.909-3.594a.912.912,0,0,0,.148-.837c-.191-.922-.348-1.852-.519-2.779C421.952,604.528,422.722,604.457,423.5,604.4Zm-50.218,31.686c.915.01,1.83.014,2.746.034a.458.458,0,0,0,.515-.314c.193-.525.4-1.045.617-1.606-.213-.013-.335-.028-.458-.027q-1.41.009-2.821.024-4.63-.013-9.261-.025c-1.269,0-1.252,0-1.2,1.3.018.485.212.656.681.653C367.159,636.1,370.221,636.094,373.283,636.084Zm41.534-25.962,1.944,2.469c.141-2.233.13-4.388.149-6.542a1.6,1.6,0,0,0-.444-1.2c-1.616-1.756-3.239-3.508-4.788-5.322-.556-.652-1.055-.89-1.8-.418-.235.23-1.025-.151-.737.648.478,1.329.983,2.648,1.465,3.976a.828.828,0,0,0,.834.6c.545.021,1.091.065,1.634.124a1.148,1.148,0,0,1,1.151,1.473,6.936,6.936,0,0,1-.277,1.384A2.344,2.344,0,0,0,414.817,610.121Zm-51.37,21.66c-.021.1.018.147.124.122l11.355,0c.917.01,1.834.014,2.752.034a.455.455,0,0,0,.52-.3c.48-1.247.971-2.489,1.462-3.731.111-.281.055-.417-.273-.409-.99.022-1.981.033-2.971.049q-6.274-.021-12.548-.048c-.379,0-.457.143-.451.482C363.44,629.242,363.44,630.512,363.447,631.781Zm59.455-67.67c-3.407-.007-6.817-.091-10.222,0a6.854,6.854,0,0,0-6.377,5.46,28.81,28.81,0,0,0-.165,5.208c-.007.258-.182.641.23.76a.829.829,0,0,0,.953-.389c.519-.7,1.082-1.363,1.625-2.043a3.215,3.215,0,0,1,4.409-.963,10.226,10.226,0,0,0,9.271.007,3.475,3.475,0,0,1,3.725.142c.2.221.406.435.593.664.628.772,1.259,1.541,1.866,2.329a.861.861,0,0,0,.874.264c.246-.02.238-.22.233-.392a40.375,40.375,0,0,0-.141-5.363A6.979,6.979,0,0,0,422.9,564.112Zm-33.651,21.658c.757.921,1.526,1.831,2.264,2.767.269.341.551.6.994.457s.229-.552.232-.835c.016-1.392.046-2.787-.02-4.177a6.943,6.943,0,0,0-7.033-6.419c-3.383-.007-6.768-.089-10.148,0a6.922,6.922,0,0,0-6.454,5.828,36.757,36.757,0,0,0-.111,4.842c-.005.256-.2.648.22.761a.851.851,0,0,0,.971-.364c.533-.719,1.107-1.407,1.672-2.1a3.214,3.214,0,0,1,4.419-.916,10.2,10.2,0,0,0,9.2,0A3.509,3.509,0,0,1,389.252,585.769Zm39.5,27.932c.012-.273.034-.546.034-.818q0-2.874,0-5.748c0-.614.15-1.154.817-1.35a1.1,1.1,0,0,1,1.436,1.153c.045,1.193.02,2.388.021,3.582,0,2.1,0,2.1,2.154,1.97.571.009,1.143,0,1.711.034.436.029.544-.147.539-.557-.02-1.788.066-3.581-.033-5.363a6.205,6.205,0,0,0-3.242-5.351,9.5,9.5,0,0,0-2.393-1c-.461-.184-.688-.114-.86.4-.444,1.319-.945,2.619-1.434,3.923a2.733,2.733,0,0,1-2.548,1.969c-.65.032-.8.262-.6.879a3.477,3.477,0,0,1-.88,3.568c-1.383,1.567-2.652,3.234-3.97,4.858a1.2,1.2,0,0,0-.359.789q.013,6.724,0,13.449c0,.348.107.487.47.483,1.942-.023,3.883-.028,5.825-.04.895.012,1.791,0,2.683.046.53.028.677-.165.67-.679-.025-1.915-.007-3.831-.011-5.746Q428.77,618.924,428.751,613.7Zm-8.683-23.484a6.973,6.973,0,0,0,7.172-5.854,63.856,63.856,0,0,0,.138-7.079.6.6,0,0,0-.157-.406c-.7-.871-1.4-1.747-2.107-2.612a.792.792,0,0,0-1.17-.2,12.918,12.918,0,0,1-11.834-.031,1.008,1.008,0,0,0-.792-.085,11.7,11.7,0,0,0-2.65,3.486c0,2.065-.037,4.132.032,6.195a6.927,6.927,0,0,0,5.058,6.317C415.837,590.512,417.963,590.17,420.068,590.217ZM383.5,618.505a3.881,3.881,0,0,1,2.969-1.119c2.087.036,4.175,0,6.262-.009l.06.025.06-.025,2.994-.017c.418.013.836.021,1.253.042.439.022.455-.159.248-.475a5.725,5.725,0,0,0-2.242-2.181,3.651,3.651,0,0,0-.694-.42c-2.048-.69-4.107-1.35-6.154-2.043-.332-.112-.453.079-.612.264-.683.792-1.352,1.6-2.047,2.378a2.274,2.274,0,0,1-3.679.019c-.333-.366-.645-.995-1.009-1.027-.465-.042-.726.644-1.066,1.023a2.3,2.3,0,0,1-3.689,0q-1.033-1.181-2.033-2.39a.584.584,0,0,0-.753-.227c-1.86.628-3.755,1.157-5.6,1.836a6.216,6.216,0,0,0-4.223,5.076,42.736,42.736,0,0,0-.125,5.667c-.012.4.27.341.511.342.946,0,1.893.008,2.839,0,1.184-.01,1.043.15,1.052-1.015.01-1.295-.023-2.591.024-3.884a1.1,1.1,0,0,1,1.605-1.051,1.241,1.241,0,0,1,.637,1.255c0,1.37.008,2.74,0,4.109,0,.373.039.6.512.6,2.29-.032,4.58-.034,6.87-.046.818.011,1.639-.02,2.451.048.608.051.846-.194,1.067-.732A49.513,49.513,0,0,1,383.5,618.505Zm18.629,17.585c.5.008.994.023,1.49.024,1.712,0,1.713,0,2.329-1.567q2.777-7.065,5.552-14.13c.3-.773.3-.779-.557-.774s-1.689.02-2.533.031c-.223-.011-.446-.031-.67-.031q-10.608,0-21.215,0c-1.141,0-1.265.087-1.693,1.177q-2.845,7.247-5.681,14.5c-.094.241-.293.474-.169.8q4.509,0,9.03,0Q395.071,636.105,402.129,636.09Zm-9.672-42.746c0,.57.013,1.141-.005,1.711-.01.316.1.458.423.435a4.861,4.861,0,0,1,.743,0c.564.047.741-.235.729-.758-.019-.892-.031-1.786,0-2.677.023-.618-.219-.837-.83-.814-1.291.049-1.037-.132-1.063,1.062C392.451,592.649,392.457,593,392.457,593.344Zm13.97-13.461a10.947,10.947,0,0,1,.01-1.338c.081-.65-.193-.784-.789-.759-1.105.045-1.107.011-1.107,1.127,0,.744.033,1.49-.01,2.231-.039.675.194.94.893.9,1.183-.061.982.122,1-.975C406.433,580.677,406.427,580.28,406.427,579.883Zm-37.164,13.5c0-.572-.016-1.144.006-1.715.013-.33-.107-.443-.427-.418a7.083,7.083,0,0,1-.82,0c-.4-.014-.6.16-.592.573.008,1.044,0,2.089.005,3.133a.458.458,0,0,0,.336.509c1.006.315,1.492-.02,1.492-1.041Zm60.357-13.492c0,.547.02,1.1-.007,1.641-.019.375.08.556.488.506a4.517,4.517,0,0,1,.745,0c.4.019.608-.139.605-.558-.006-1.044,0-2.088,0-3.133a.465.465,0,0,0-.4-.533c-1.13-.255-1.432-.029-1.432,1.11Zm-52.459,29.731-.314.2c-1.115.707-1.176,1.116-.315,2.114.147.169.294.339.438.51,1.086,1.287,1.074,1.278,2.118-.058.228-.292.181-.445-.051-.675-.566-.561-1.115-1.139-1.66-1.72A1.792,1.792,0,0,1,377.162,609.622Zm8.853,1.325c-.324-.327-.664-.644-.972-.99-.225-.252-.376-.293-.628-.013-.564.626-1.166,1.216-1.75,1.824-.1.1-.3.219-.189.355.382.485.8.947,1.214,1.4.066.072.176-.012.246-.093q.965-1.131,1.934-2.259A2.44,2.44,0,0,0,386.015,610.947Zm37.083-13.4c-.017-.059-.016-.116-.044-.144a4.84,4.84,0,0,0-1.128-1.065c-.347-.166-.529.409-.8.632a7.331,7.331,0,0,0-.626.638c-1.023,1.063-1.013,1.054.013,2.156.246.264.372.3.62.011.562-.664,1.159-1.3,1.741-1.945C422.953,597.734,423.025,597.634,423.1,597.544Zm-7.909,2.541c1.369-1.423,1.369-1.423.066-2.766l-.156-.161c-1.011-1.042-1-1.035-1.991.074-.191.214-.208.331-.014.54C413.8,598.533,414.491,599.311,415.189,600.085Zm4.048,1.722a6.967,6.967,0,0,0-1.188-1.418,6.307,6.307,0,0,0-1.25,1.339,4.854,4.854,0,0,0,1.179,1.386A5.683,5.683,0,0,0,419.237,601.807Z" transform="translate(0)" fill="#030303"/>
        <path id="Trazado_640709" data-name="Trazado 640709" d="M406.222,663.4c-1.66,0-3.321.042-4.979,0a5.867,5.867,0,0,1-2.947-.917,1.381,1.381,0,0,0-1.77.046,6.462,6.462,0,0,1-1.714-1.923c-.133-.212-.239-.436-.487-.538.828-.473.951-.771.7-1.7a8.615,8.615,0,0,1-.3-2.28c.008-1.764,0-3.528,0-5.291a1.162,1.162,0,0,1,.221-.833c.67-.8,1.321-1.613,1.965-2.433a.937.937,0,0,1,1.3-.3,12.926,12.926,0,0,0,11.752.048c.2.173.144.411.144.628,0,2.934.034,5.869-.016,8.8a7.482,7.482,0,0,1-.7,2.94A9.414,9.414,0,0,1,406.222,663.4Zm-2.148-2.525a3.46,3.46,0,0,0,2.387-.945,1.148,1.148,0,0,0,.142-1.605,1.057,1.057,0,0,0-1.533-.129,1.318,1.318,0,0,1-1.926-.025,1.053,1.053,0,0,0-1.536.077,1.1,1.1,0,0,0,.081,1.6A3.459,3.459,0,0,0,404.074,660.878Zm1.124-6.693h0c0-.471.022-.943-.006-1.412a1.01,1.01,0,0,0-1.038-1.042.984.984,0,0,0-1.147.921,20.816,20.816,0,0,0,0,3.043,1.03,1.03,0,0,0,1.139.952,1.084,1.084,0,0,0,1.053-1.124C405.216,655.079,405.2,654.632,405.2,654.185Z" transform="translate(-23.22 -59.736)" fill="#f8decf"/>
        <path id="Trazado_640710" data-name="Trazado 640710" d="M515.273,803.325q.781-2.048,1.561-4.1a.5.5,0,0,1,.535-.393q8.014.031,16.028.04,0,1.627,0,3.255-6.772.013-13.544.026c-.987,0-1.29.261-1.442,1.207Z" transform="translate(-107.951 -166.041)" fill="#c9beba"/>
        <path id="Trazado_640711" data-name="Trazado 640711" d="M496.13,695.936a1.206,1.206,0,0,0-1.051,1.384c.015,1.615,0,3.23.011,4.844,0,.381-.045.593-.512.58-1.117-.031-2.236-.028-3.353,0-.44.01-.543-.164-.538-.568.024-1.838,0-3.677.043-5.514a1.364,1.364,0,0,0-.921-1.514,7.746,7.746,0,0,1,.848-1.978c.125-.2.178-.485.5-.482a1.924,1.924,0,0,0,1.866-.589,6.022,6.022,0,0,1,3.1-1.5q.01,2.6.02,5.2C496.139,695.848,496.134,695.892,496.13,695.936Z" transform="translate(-90.112 -90.216)" fill="#8f8a8a"/>
        <path id="Trazado_640712" data-name="Trazado 640712" d="M443.687,771.355q-7.058.013-14.117.024-4.518.005-9.03,0c-.124-.326.075-.559.169-.8q2.831-7.252,5.681-14.5c.428-1.09.551-1.177,1.693-1.177q10.607,0,21.215,0c.223,0,.446.021.67.031a5.522,5.522,0,0,1-.187.79c-1.444,3.662-2.917,7.312-4.338,10.982C444.846,768.254,444.155,769.763,443.687,771.355Zm-6.074-12.248A6.437,6.437,0,0,0,433.8,760.2a2.97,2.97,0,0,0,.025,5.191,7.3,7.3,0,0,0,7.569.046,3,3,0,0,0-.027-5.318A6.563,6.563,0,0,0,437.613,759.108Z" transform="translate(-41.558 -135.266)" fill="#c9beba"/>
        <path id="Trazado_640713" data-name="Trazado 640713" d="M382.641,743.188c-2.29.013-4.581.014-6.87.046-.473.007-.516-.223-.512-.6.012-1.37.005-2.739,0-4.109a1.241,1.241,0,0,0-.637-1.255,1.1,1.1,0,0,0-1.605,1.051c-.047,1.293-.014,2.59-.024,3.884-.009,1.165.132,1-1.052,1.015-.946.008-1.893,0-2.839,0-.241,0-.523.056-.511-.342a42.74,42.74,0,0,1,.125-5.667,6.216,6.216,0,0,1,4.223-5.076c1.84-.679,3.735-1.208,5.6-1.836a.584.584,0,0,1,.753.227q1,1.21,2.033,2.39a2.3,2.3,0,0,0,3.689,0c.34-.379.6-1.065,1.066-1.023.364.033.677.661,1.009,1.027a2.274,2.274,0,0,0,3.679-.019c.695-.781,1.364-1.586,2.047-2.378.159-.185.28-.376.612-.264,2.048.693,4.106,1.354,6.154,2.043a3.658,3.658,0,0,1,.694.42,25.933,25.933,0,0,1,.741,2.614l-2.994.017h-.12c-2.087.007-4.175.045-6.262.009a3.882,3.882,0,0,0-2.969,1.119c-.5-.008-.995,0-1.491-.027a2.381,2.381,0,0,0-2.6,1.667Z" transform="translate(-5.17 -117.977)" fill="#5d8bcf"/>
        <path id="Trazado_640714" data-name="Trazado 640714" d="M531.148,618.481c-2.105-.048-4.231.295-6.309-.27a6.927,6.927,0,0,1-5.058-6.317c-.069-2.063-.031-4.13-.032-6.195a11.694,11.694,0,0,1,2.65-3.486,1.008,1.008,0,0,1,.792.085,12.918,12.918,0,0,0,11.834.031q0,4.928.005,9.856a3.428,3.428,0,0,1-.059.59A8.509,8.509,0,0,1,531.148,618.481Zm-2.062-2.561a3.46,3.46,0,0,0,2.419-.992,1.091,1.091,0,0,0,.111-1.544,1.045,1.045,0,0,0-1.529-.16,1.35,1.35,0,0,1-1.985-.041,1.026,1.026,0,0,0-1.48.1,1.1,1.1,0,0,0,.013,1.545A3.444,3.444,0,0,0,529.086,615.92Zm1.135-6.644h0c0-.471.033-.945-.008-1.412a1.09,1.09,0,0,0-1.194-1.057,1.051,1.051,0,0,0-1.026,1.135c-.021.867-.02,1.736,0,2.6a1.116,1.116,0,0,0,1.069,1.191,1.149,1.149,0,0,0,1.157-1.121C530.249,610.17,530.221,609.722,530.221,609.276Z" transform="translate(-111.08 -28.264)" fill="#f8decf"/>
        <path id="Trazado_640715" data-name="Trazado 640715" d="M568.825,702.18c-2.154.129-2.153.129-2.154-1.97,0-1.194.024-2.39-.021-3.582a1.1,1.1,0,0,0-1.436-1.153c-.668.2-.817.736-.817,1.35q0,2.874,0,5.748c0,.272-.022.545-.034.818-.472,0-.944,0-1.417,0-1.316,0-1.886.581-1.887,1.916q0,7.455-.009,14.91c-1.942.012-3.884.017-5.825.04-.363,0-.47-.135-.47-.483q.012-6.724,0-13.449a1.2,1.2,0,0,1,.359-.789c1.319-1.624,2.588-3.291,3.97-4.858a3.477,3.477,0,0,0,.88-3.568c-.194-.617-.046-.847.6-.879a2.733,2.733,0,0,0,2.548-1.969c.489-1.3.99-2.6,1.434-3.923.171-.509.4-.579.86-.4a9.5,9.5,0,0,1,2.393,1,2.275,2.275,0,0,0,.107.426,10.582,10.582,0,0,1,.914,4.4C568.844,697.9,568.826,700.042,568.825,702.18Z" transform="translate(-135.608 -89.69)" fill="#8f8a8a"/>
        <path id="Trazado_640716" data-name="Trazado 640716" d="M407.375,622.5a3.509,3.509,0,0,0-3.79-.155,10.2,10.2,0,0,1-9.2,0,3.214,3.214,0,0,0-4.419.916c-.565.694-1.139,1.383-1.672,2.1a.851.851,0,0,1-.971.364c-.419-.113-.225-.5-.22-.761a36.758,36.758,0,0,1,.111-4.842,6.922,6.922,0,0,1,6.454-5.828c3.38-.089,6.765-.007,10.148,0,.047.084.073.2.144.248a8.016,8.016,0,0,1,3.515,5.713A3.793,3.793,0,0,1,407.375,622.5Z" transform="translate(-18.124 -36.727)" fill="#8f8a8a"/>
        <path id="Trazado_640717" data-name="Trazado 640717" d="M531.435,577.553a3.475,3.475,0,0,0-3.725-.142,10.226,10.226,0,0,1-9.271-.007,3.215,3.215,0,0,0-4.409.963c-.543.68-1.106,1.345-1.625,2.043a.829.829,0,0,1-.953.389c-.412-.119-.237-.5-.23-.76a28.81,28.81,0,0,1,.165-5.208,6.854,6.854,0,0,1,6.377-5.46c3.4-.094,6.814-.009,10.222,0,.053.108.079.252.164.318a8.7,8.7,0,0,1,2.663,3.138A7.133,7.133,0,0,1,531.435,577.553Z" transform="translate(-105.083 -5.258)" fill="#8f8a8a"/>
        <path id="Trazado_640718" data-name="Trazado 640718" d="M510.921,695.38c0-.044.009-.088.015-.132.212-.171.127-.41.128-.62.005-1.553,0-3.105,0-4.658.489-.3.748-.2.943.385.429,1.3.953,2.563,1.417,3.849a2.729,2.729,0,0,0,2.6,2c.6.027.722.3.57.81a3.694,3.694,0,0,0,.968,3.764c1.372,1.542,2.614,3.2,3.927,4.8a1.382,1.382,0,0,1,.33.948c-.01,4.334-.016,8.667.006,13,0,.563-.16.721-.717.711q-2.764-.049-5.529,0c-.632.011-.709-.15-.483-.715,1.265-3.163,2.492-6.34,3.748-9.507a2.071,2.071,0,0,0-.325-2.359,1.9,1.9,0,0,0-1.48-.59c-1.42.007-2.84-.021-4.259.011-.522.012-.673-.14-.669-.666.023-3.213.014-6.426.01-9.639C512.114,695.851,511.838,695.541,510.921,695.38Z" transform="translate(-104.902 -89.66)" fill="#8e8989"/>
        <path id="Trazado_640719" data-name="Trazado 640719" d="M575.776,751.888q0-7.455.009-14.91c0-1.336.571-1.915,1.887-1.916.472,0,.944,0,1.417,0q.016,5.223.031,10.445c0,1.915-.015,3.831.011,5.746.007.514-.14.706-.67.679C577.567,751.888,576.671,751.9,575.776,751.888Z" transform="translate(-150.337 -121.363)" fill="#7d7b7b"/>
        <path id="Trazado_640720" data-name="Trazado 640720" d="M380.163,785.53l-11.355,0-.124-.122c-.008-1.27-.007-2.539-.029-3.809-.006-.339.071-.484.451-.482q6.274.038,12.548.048a3.769,3.769,0,0,1-.292.979A25.46,25.46,0,0,0,380.163,785.53Z" transform="translate(-5.236 -153.632)" fill="#f8decf"/>
        <path id="Trazado_640721" data-name="Trazado 640721" d="M497.932,771.359c.468-1.592,1.159-3.1,1.756-4.644,1.421-3.671,2.894-7.321,4.338-10.982a5.525,5.525,0,0,0,.187-.79c.844-.011,1.689-.027,2.533-.031s.861,0,.557.774q-2.775,7.065-5.552,14.13c-.616,1.568-.617,1.57-2.329,1.567C498.926,771.382,498.429,771.367,497.932,771.359Z" transform="translate(-95.803 -135.269)" fill="#b5aaaa"/>
        <path id="Trazado_640722" data-name="Trazado 640722" d="M557.839,618.448a8.509,8.509,0,0,0,3.823-5.706,3.429,3.429,0,0,0,.059-.59q0-4.928-.005-9.856a.792.792,0,0,1,1.17.2c.709.865,1.4,1.741,2.107,2.612a.6.6,0,0,1,.157.406,63.843,63.843,0,0,1-.138,7.079A6.973,6.973,0,0,1,557.839,618.448Z" transform="translate(-137.771 -28.231)" fill="#f4cdbf"/>
        <path id="Trazado_640723" data-name="Trazado 640723" d="M434.057,663.361a9.415,9.415,0,0,0,3.17-3.752,7.483,7.483,0,0,0,.7-2.94c.051-2.933.019-5.868.016-8.8,0-.217.059-.454-.144-.628a.852.852,0,0,1,1.29.222,1.947,1.947,0,0,0,.138.175,6.29,6.29,0,0,1,2.074,5.786c-.193,1.494.127,3.032-.218,4.53A7.017,7.017,0,0,1,434.057,663.361Z" transform="translate(-51.055 -59.694)" fill="#f4cdbf"/>
        <path id="Trazado_640724" data-name="Trazado 640724" d="M570.755,577.64a7.133,7.133,0,0,0-.622-4.727,8.7,8.7,0,0,0-2.663-3.138c-.086-.066-.111-.21-.164-.318a6.979,6.979,0,0,1,6.875,5.685,40.365,40.365,0,0,1,.141,5.363c.005.172.013.373-.233.392a.861.861,0,0,1-.874-.264c-.607-.788-1.238-1.557-1.866-2.329C571.161,578.074,570.953,577.861,570.755,577.64Z" transform="translate(-144.403 -5.345)" fill="#7d7b7b"/>
        <path id="Trazado_640725" data-name="Trazado 640725" d="M446.591,622.576a3.792,3.792,0,0,0,.1-2.246,8.016,8.016,0,0,0-3.515-5.713c-.071-.048-.1-.164-.144-.248a6.943,6.943,0,0,1,7.033,6.419c.066,1.39.036,2.785.02,4.177,0,.284.21.692-.232.835s-.725-.116-.994-.457C448.117,624.407,447.347,623.5,446.591,622.576Z" transform="translate(-57.339 -36.807)" fill="#7d7b7b"/>
        <path id="Trazado_640726" data-name="Trazado 640726" d="M523.821,685.765c.743-.471,1.242-.233,1.8.418,1.549,1.814,3.171,3.567,4.787,5.322a1.6,1.6,0,0,1,.444,1.2c-.02,2.154-.008,4.31-.149,6.542l-1.944-2.469a.431.431,0,0,0,.167-.393c0-1.444.012-2.888-.009-4.331a1.576,1.576,0,0,0-.456-1.068c-.979-1.053-1.99-2.085-2.883-3.209A16.728,16.728,0,0,1,523.821,685.765Z" transform="translate(-113.94 -86.656)" fill="#b5aaaa"/>
        <path id="Trazado_640727" data-name="Trazado 640727" d="M415.587,757.74l1.936-5.067a2.381,2.381,0,0,1,2.6-1.667c.5.031.994.019,1.491.027a49.5,49.5,0,0,0-2.511,6.022c-.221.539-.459.783-1.067.732C417.226,757.72,416.4,757.751,415.587,757.74Z" transform="translate(-38.116 -132.528)" fill="#3f73c4"/>
        <path id="Trazado_640728" data-name="Trazado 640728" d="M599.353,704.737c0-2.138.019-4.276,0-6.414a10.583,10.583,0,0,0-.915-4.4,2.284,2.284,0,0,1-.107-.426,6.2,6.2,0,0,1,3.242,5.351c.1,1.783.013,3.575.033,5.363,0,.41-.1.586-.539.557C600.5,704.734,599.924,704.746,599.353,704.737Z" transform="translate(-166.136 -92.247)" fill="#7d7b7b"/>
        <path id="Trazado_640729" data-name="Trazado 640729" d="M378.479,805.339c-3.062.01-6.124.016-9.186.035-.47,0-.664-.168-.681-.653-.047-1.3-.064-1.3,1.2-1.3q4.63.011,9.261.025C378.942,804.1,378.463,804.641,378.479,805.339Z" transform="translate(-5.197 -169.255)" fill="#8f8a8a"/>
        <path id="Trazado_640730" data-name="Trazado 640730" d="M554.777,697.117c-.009-1.614-.013-3.228-.032-4.841a.985.985,0,0,1,.3-.724c1.77-1.949,3.542-3.9,5.28-5.872a.673.673,0,0,1,1.014-.127c-.583.4-.627,1.095-.851,1.672a20.7,20.7,0,0,0-1.38,3.731c-.778.059-1.549.13-1.789,1.08-.148,0-.3,0-.444,0-1.028.023-1.359.454-1.133,1.474.069.311.148.621.206.934A2.364,2.364,0,0,1,554.777,697.117Z" transform="translate(-135.603 -86.558)" fill="#c9beba"/>
        <path id="Trazado_640731" data-name="Trazado 640731" d="M596.625,738.493c.716,0,1.618-.258,2.095.081s.133,1.294.144,1.977a10.041,10.041,0,0,1-.134,2.669,5.51,5.51,0,0,1-3.76,4.066c-.564.2-.6-.037-.47-.477a5.328,5.328,0,0,0,1.961-3.21A27.638,27.638,0,0,0,596.625,738.493Z" transform="translate(-163.41 -123.703)" fill="#ebc5b7"/>
        <path id="Trazado_640732" data-name="Trazado 640732" d="M521.95,686.343a16.719,16.719,0,0,0,1.755,2.011c.894,1.124,1.9,2.156,2.883,3.209a1.576,1.576,0,0,1,.456,1.068c.02,1.443.008,2.888.009,4.331a.431.431,0,0,1-.167.393,2.344,2.344,0,0,1-.865-2.8,6.928,6.928,0,0,0,.277-1.384,1.148,1.148,0,0,0-1.151-1.473c-.543-.06-1.089-.1-1.634-.124a.828.828,0,0,1-.834-.6c-.482-1.328-.987-2.647-1.465-3.976C520.925,686.192,521.715,686.573,521.95,686.343Z" transform="translate(-112.069 -87.233)" fill="#c9beba"/>
        <path id="Trazado_640733" data-name="Trazado 640733" d="M596.652,738.628a27.643,27.643,0,0,1-.165,5.107,5.328,5.328,0,0,1-1.961,3.21c-.015-2.627-.026-5.254-.051-7.881,0-.349.1-.49.468-.469C595.512,738.627,596.083,738.619,596.652,738.628Z" transform="translate(-163.437 -123.837)" fill="#f8decf"/>
        <path id="Trazado_640734" data-name="Trazado 640734" d="M407.089,785.529a25.455,25.455,0,0,1,1.2-3.38,3.768,3.768,0,0,0,.292-.979c.99-.016,1.981-.027,2.971-.049.327-.008.384.128.273.409-.492,1.242-.982,2.485-1.462,3.731a.455.455,0,0,1-.52.3C408.923,785.543,408.006,785.539,407.089,785.529Z" transform="translate(-32.162 -153.631)" fill="#ebc5b7"/>
        <path id="Trazado_640735" data-name="Trazado 640735" d="M545.431,667.78c-.841,1.016-.841,1.016-1.739.091a8.3,8.3,0,0,0-.945-.954,2.31,2.31,0,0,1-.892-2.49l.109-.11H545.4Q545.414,666.049,545.431,667.78Z" transform="translate(-126.531 -71.803)" fill="#f4cdbf"/>
        <path id="Trazado_640736" data-name="Trazado 640736" d="M421.384,712.722c-.765.9-.765.9-1.573.061a11,11,0,0,0-1.193-1.218,2.092,2.092,0,0,1-.73-2.034c.021-.333.134-.412.442-.4,1.014.023,2.028.023,3.042.031Q421.378,710.94,421.384,712.722Z" transform="translate(-39.719 -103.195)" fill="#f4cdbf"/>
        <path id="Trazado_640737" data-name="Trazado 640737" d="M575.794,802.132q0-1.627,0-3.255c.968-.011,1.937-.008,2.9-.039.384-.012.455.163.448.493-.016.72-.012,1.441,0,2.162.006.464-.186.682-.67.668C577.582,802.137,576.688,802.141,575.794,802.132Z" transform="translate(-150.35 -166.043)" fill="#b5aaaa"/>
        <path id="Trazado_640738" data-name="Trazado 640738" d="M554.853,712.69a2.364,2.364,0,0,0,1.167-2.672c-.058-.314-.137-.623-.206-.934-.227-1.019.1-1.451,1.133-1.474.148,0,.3,0,.444,0,.17.927.327,1.857.519,2.779a.912.912,0,0,1-.148.837c-.935,1.15-1.865,2.3-2.909,3.594Z" transform="translate(-135.679 -102.131)" fill="#b5aaaa"/>
        <path id="Trazado_640739" data-name="Trazado 640739" d="M569.3,691.362a20.7,20.7,0,0,1,1.38-3.731c.224-.578.267-1.27.851-1.672,1.337.3,1.338.3.861,1.581a24.778,24.778,0,0,0-.943,2.578,1.469,1.469,0,0,1-1.7,1.25C569.6,691.361,569.45,691.364,569.3,691.362Z" transform="translate(-145.802 -86.964)" fill="#b5aaaa"/>
        <path id="Trazado_640740" data-name="Trazado 640740" d="M465.619,662.165c0-.347-.007-.694,0-1.041.026-1.194-.228-1.012,1.063-1.062.611-.023.853.2.83.814-.034.891-.023,1.785,0,2.677.011.523-.165.8-.729.758a4.853,4.853,0,0,0-.744,0c-.327.023-.433-.119-.423-.435C465.631,663.306,465.619,662.735,465.619,662.165Z" transform="translate(-73.162 -68.821)" fill="#ebc5b7"/>
        <path id="Trazado_640741" data-name="Trazado 640741" d="M507.842,617.223c0,.4.006.794,0,1.19-.019,1.1.181.914-1,.975-.7.036-.932-.229-.893-.9.042-.741.01-1.487.01-2.231,0-1.116,0-1.083,1.107-1.127.6-.024.869.11.789.759A10.947,10.947,0,0,0,507.842,617.223Z" transform="translate(-101.415 -37.34)" fill="#ebc5b7"/>
        <path id="Trazado_640742" data-name="Trazado 640742" d="M383.888,662.219v1.044c0,1.021-.486,1.355-1.492,1.041a.458.458,0,0,1-.336-.509c0-1.044,0-2.089-.005-3.133,0-.413.19-.588.592-.573a7.1,7.1,0,0,0,.82,0c.32-.026.44.087.427.418C383.872,661.075,383.888,661.647,383.888,662.219Z" transform="translate(-14.624 -68.836)" fill="#f4cdbf"/>
        <path id="Trazado_640743" data-name="Trazado 640743" d="M589.719,617.074v-.97c0-1.139.3-1.365,1.432-1.11a.465.465,0,0,1,.4.533c0,1.044,0,2.088,0,3.132,0,.42-.209.577-.605.558a4.51,4.51,0,0,0-.745,0c-.408.049-.507-.131-.488-.506C589.739,618.169,589.719,617.621,589.719,617.074Z" transform="translate(-160.098 -37.183)" fill="#f4cdbf"/>
        <path id="Trazado_640744" data-name="Trazado 640744" d="M411.7,721.45a1.8,1.8,0,0,0,.216.372c.545.581,1.094,1.159,1.66,1.72.232.23.28.383.051.675-1.044,1.336-1.032,1.345-2.118.058-.144-.171-.291-.34-.438-.51-.861-1-.8-1.407.315-2.114Z" transform="translate(-34.537 -111.828)" fill="#e4eef5"/>
        <path id="Trazado_640745" data-name="Trazado 640745" d="M435.763,723.073a2.389,2.389,0,0,1-.146.227q-.966,1.131-1.934,2.259c-.069.081-.179.165-.246.093-.418-.456-.832-.917-1.214-1.4-.107-.136.092-.255.189-.355.584-.608,1.187-1.2,1.75-1.824.253-.281.4-.24.628.013C435.1,722.429,435.439,722.746,435.763,723.073Z" transform="translate(-49.749 -112.127)" fill="#e4eef5"/>
        <path id="Trazado_640746" data-name="Trazado 640746" d="M560.09,678.216c-.072.09-.145.19-.227.282-.581.647-1.179,1.281-1.741,1.945-.248.293-.375.253-.62-.011-1.026-1.1-1.036-1.093-.013-2.156a7.335,7.335,0,0,1,.626-.638c.274-.222.455-.8.8-.632a4.841,4.841,0,0,1,1.128,1.065C560.073,678.1,560.073,678.156,560.09,678.216Z" transform="translate(-136.992 -80.672)" fill="#e4eef5"/>
        <path id="Trazado_640747" data-name="Trazado 640747" d="M536.324,680.951c-.7-.774-1.388-1.552-2.1-2.313-.194-.209-.176-.326.014-.54.988-1.109.98-1.116,1.991-.074l.156.161C537.693,679.528,537.693,679.528,536.324,680.951Z" transform="translate(-121.134 -80.866)" fill="#e4eef5"/>
        <path id="Trazado_640748" data-name="Trazado 640748" d="M401.6,805.343c-.016-.7.463-1.24.6-1.89q1.41-.013,2.821-.024c.122,0,.245.014.458.027-.216.561-.423,1.08-.617,1.606a.458.458,0,0,1-.515.314C403.429,805.358,402.513,805.353,401.6,805.343Z" transform="translate(-28.315 -169.259)" fill="#7d7b7b"/>
        <path id="Trazado_640749" data-name="Trazado 640749" d="M499.923,738.613c.591-.01,1.183,0,1.772-.039.412-.029.475.148.486.512.073,2.254.082,2.254-2.188,2.116a.437.437,0,0,1-.072-.017Q499.922,739.9,499.923,738.613Z" transform="translate(-97.197 -123.822)" fill="#ebc5b7"/>
        <path id="Trazado_640750" data-name="Trazado 640750" d="M494.851,738.629q0,1.286,0,2.572c-2.755.008-2.054.521-2.162-2.138-.014-.35.106-.487.465-.467C493.718,738.626,494.285,738.62,494.851,738.629Z" transform="translate(-92.125 -123.838)" fill="#f8decf"/>
        <path id="Trazado_640751" data-name="Trazado 640751" d="M429.564,712.637q-.006-1.782-.012-3.564a4.417,4.417,0,0,1,.737-.023c.394.051.87-.218,1.169.162a2.361,2.361,0,0,1-.379,1.914C430.577,711.632,430.069,712.133,429.564,712.637Z" transform="translate(-47.899 -103.109)" fill="#ebaf9f"/>
        <path id="Trazado_640752" data-name="Trazado 640752" d="M553.858,667.589q-.017-1.731-.034-3.462a2.545,2.545,0,0,1,.594-.021c.409.08,1.073-.294,1.185.2a1.743,1.743,0,0,1-.364,1.93C554.744,666.643,554.316,667.134,553.858,667.589Z" transform="translate(-134.958 -71.612)" fill="#ebaf9f"/>
        <path id="Trazado_640753" data-name="Trazado 640753" d="M549.359,692.034a5.683,5.683,0,0,1-1.26,1.308,4.854,4.854,0,0,1-1.179-1.386,6.3,6.3,0,0,1,1.25-1.339A6.967,6.967,0,0,1,549.359,692.034Z" transform="translate(-130.122 -90.227)" fill="#d25b68"/>
        <path id="Trazado_640754" data-name="Trazado 640754" d="M475.213,741.178a25.943,25.943,0,0,0-.741-2.614,5.725,5.725,0,0,1,2.242,2.181c.207.316.191.5-.248.475C476.049,741.2,475.631,741.191,475.213,741.178Z" transform="translate(-79.368 -123.817)" fill="#3f73c4"/>
        <path id="Trazado_640755" data-name="Trazado 640755" d="M511.05,690.353c0,1.553.008,3.105,0,4.658,0,.21.084.449-.128.62q-.01-2.6-.02-5.2Z" transform="translate(-104.891 -90.043)" fill="#b5aaaa"/>
        <path id="Trazado_640756" data-name="Trazado 640756" d="M466.547,747.348h.12l-.06.025Z" transform="translate(-73.816 -129.971)" fill="#3f73c4"/>
        <path id="Trazado_640757" data-name="Trazado 640757" d="M368.741,795.452l.124.122C368.759,795.6,368.72,795.556,368.741,795.452Z" transform="translate(-5.293 -163.671)" fill="#ebc5b7"/>
        <path id="Trazado_640758" data-name="Trazado 640758" d="M542.085,664.3l-.109.11C541.949,664.309,541.986,664.274,542.085,664.3Z" transform="translate(-126.652 -71.785)" fill="#ebaf9f"/>
        <path id="Trazado_640759" data-name="Trazado 640759" d="M420.391,686.114A3.458,3.458,0,0,1,418,685.086a1.1,1.1,0,0,1-.081-1.6,1.053,1.053,0,0,1,1.536-.077,1.318,1.318,0,0,0,1.926.025,1.057,1.057,0,0,1,1.533.129,1.148,1.148,0,0,1-.142,1.6A3.46,3.46,0,0,1,420.391,686.114Z" transform="translate(-39.536 -84.972)" fill="#060505"/>
        <path id="Trazado_640760" data-name="Trazado 640760" d="M425.374,665.033c0,.446.017.894,0,1.339a1.084,1.084,0,0,1-1.053,1.123,1.03,1.03,0,0,1-1.139-.952,20.812,20.812,0,0,1,0-3.043.984.984,0,0,1,1.147-.921,1.01,1.01,0,0,1,1.038,1.041c.028.469.006.941.006,1.412Z" transform="translate(-43.395 -70.583)" fill="#060505"/>
        <path id="Trazado_640761" data-name="Trazado 640761" d="M465.2,768.937a6.562,6.562,0,0,1,3.759,1.011,3,3,0,0,1,.027,5.318,7.3,7.3,0,0,1-7.569-.046,2.97,2.97,0,0,1-.025-5.191A6.438,6.438,0,0,1,465.2,768.937Zm.2,5.115a4.138,4.138,0,0,0,2.506-.764c.578-.441.564-.878.007-1.34a5.083,5.083,0,0,0-5.35-.009c-.563.462-.577.9,0,1.338A4.448,4.448,0,0,0,465.4,774.052Z" transform="translate(-69.143 -145.095)" fill="#030303"/>
        <path id="Trazado_640762" data-name="Trazado 640762" d="M544.463,641.056a3.441,3.441,0,0,1-2.451-1.093,1.1,1.1,0,0,1-.013-1.545,1.026,1.026,0,0,1,1.48-.1,1.35,1.35,0,0,0,1.985.041,1.045,1.045,0,0,1,1.529.16,1.091,1.091,0,0,1-.111,1.545A3.457,3.457,0,0,1,544.463,641.056Z" transform="translate(-126.458 -53.4)" fill="#060505"/>
        <path id="Trazado_640763" data-name="Trazado 640763" d="M549.485,620.122c0,.446.028.895-.007,1.338a1.149,1.149,0,0,1-1.157,1.121,1.116,1.116,0,0,1-1.069-1.191c-.019-.868-.02-1.736,0-2.6a1.051,1.051,0,0,1,1.026-1.135,1.09,1.09,0,0,1,1.194,1.057c.041.467.008.941.008,1.412Z" transform="translate(-130.344 -39.11)" fill="#060505"/>
        <path id="Trazado_640764" data-name="Trazado 640764" d="M470.673,779.305a4.448,4.448,0,0,1-2.836-.775c-.578-.439-.563-.876,0-1.338a5.083,5.083,0,0,1,5.35.009c.557.462.57.9-.007,1.34A4.138,4.138,0,0,1,470.673,779.305Z" transform="translate(-74.42 -150.348)" fill="#e4eef5"/>
      </g>
    </g>
  </g>
</svg>
