<svg xmlns="http://www.w3.org/2000/svg" width="92" height="92" viewBox="0 0 92 92">
  <g id="Grupo_963289" data-name="Grupo 963289" transform="translate(-1058 -963.556)">
    <g id="Grupo_963196" data-name="Grupo 963196" transform="translate(623 -3377.444)">
      <circle id="Elipse_7706" data-name="Elipse 7706" cx="46" cy="46" r="46" transform="translate(435 4341)" fill="#449c6e"/>
    </g>
    <g id="Grupo_980779" data-name="Grupo 980779" transform="translate(1027.488 147.127)">
      <path id="Trazado_640793" data-name="Trazado 640793" d="M99.968,844.647a16.136,16.136,0,0,0,.082,2.623q-3.348,5.8-6.689,11.614a.817.817,0,0,1-.846.483c-.766-.033-1.534-.027-2.3-.006a9.522,9.522,0,0,0-8.41,4.766c-2.634,4.4-5.151,8.879-7.686,13.342a3.665,3.665,0,0,0,1.68,5.238,6.519,6.519,0,0,0,3.377.6c-.58,3.461-1.153,6.879-1.726,10.3-.11.653-.167,1.3.522,1.694a1.42,1.42,0,0,0,1.737-.348c2.124-1.764,4.233-3.547,6.408-5.247a9.911,9.911,0,0,0,2.663-3.2c.477-.887.757-2.13,1.631-2.493.892-.371,2.061-.076,3.109-.072a20.317,20.317,0,0,1-2.457,3.633c-.2.008-.4.021-.607.024-1.4.02-1.887.864-1.217,2.113-.773,1.022-1.815,1.789-2.628,2.774-.353.008-.706.021-1.058.025-1.324.013-1.808.728-1.335,1.977a43.247,43.247,0,0,1-7.866,4.932,51.667,51.667,0,0,1-7.694,2.888,1.133,1.133,0,0,1-.152.021c-6.93,0-13.86-.006-20.791.021-.637,0-.549-.332-.549-.715q0-26.311-.012-52.623c0-.574.14-.719.714-.714,3.734.028,7.467.016,11.2.014a2.508,2.508,0,0,0,2.833-2.829c0-3.733.014-7.466-.013-11.2,0-.567.129-.719.71-.718q17.721.028,35.443,0c.579,0,.717.148.711.717-.03,2.94-.017,5.881-.013,8.822C98.74,844.076,99,844.39,99.968,844.647Zm-41.752,6.116c-1.534,0-3.068,0-4.6,0-1.106,0-1.534.427-1.535,1.527q-.007,4.6,0,9.2c0,1.109.426,1.542,1.519,1.544q4.6.008,9.2,0c1.136,0,1.55-.429,1.553-1.59,0-1.968.012-3.937-.008-5.905a1.26,1.26,0,0,1,.416-1q1.838-1.795,3.635-3.632a1.23,1.23,0,1,0-1.726-1.74c-.593.563-1.169,1.145-1.735,1.736-.35.365-.631.8-1.112.109-.189-.272-.588-.256-.929-.255C61.335,850.767,59.775,850.763,58.216,850.763Zm6.112,18.022a1.588,1.588,0,0,0-1.6-.842c-3.042.019-6.084.005-9.126.01-1.1,0-1.526.429-1.527,1.535q-.007,4.6,0,9.2c0,1.1.428,1.536,1.525,1.538q4.6.007,9.2,0c1.132,0,1.547-.431,1.549-1.593,0-1.968.012-3.936-.007-5.9a1.259,1.259,0,0,1,.415-1c1.19-1.159,2.36-2.34,3.527-3.522a1.277,1.277,0,0,0,.206-1.891c-.525-.555-1.275-.5-1.944.165C65.814,867.222,65.1,867.986,64.328,868.786Zm0,17.187a1.5,1.5,0,0,0-1.434-.839c-3.118.016-6.237,0-9.356.01-1.005,0-1.455.448-1.458,1.449q-.012,4.678,0,9.355c0,1.011.445,1.466,1.439,1.468q4.678.012,9.356,0c1.041,0,1.476-.449,1.48-1.507.007-1.994.013-3.988-.006-5.981a1.254,1.254,0,0,1,.408-1.005c1.191-1.158,2.36-2.339,3.528-3.521.666-.674.72-1.419.164-1.946a1.271,1.271,0,0,0-1.889.208C65.819,884.4,65.1,885.168,64.326,885.972Zm17.138-45.031q6.516,0,13.032,0a3.6,3.6,0,0,0,.764-.028,1.219,1.219,0,0,0-.029-2.405,3.434,3.434,0,0,0-.688-.022H68.557c-.179,0-.359-.009-.536.005a1.223,1.223,0,0,0,.029,2.446c.2.014.409,0,.613,0Zm.07,2.455H68.579a3.425,3.425,0,0,0-.763.03,1.219,1.219,0,0,0-.015,2.392,3.225,3.225,0,0,0,.763.033q12.993,0,25.986,0a4.974,4.974,0,0,0,.613-.012,1.208,1.208,0,0,0,1.108-1.247,1.186,1.186,0,0,0-1.093-1.183,4.316,4.316,0,0,0-.689-.013Zm.006,9.822H71.04a3.94,3.94,0,0,0-.688.016,1.22,1.22,0,0,0-.026,2.418,3.508,3.508,0,0,0,.688.021H92.09c.179,0,.359.01.536-.006a1.222,1.222,0,0,0,.026-2.442c-.2-.019-.408-.008-.613-.008Zm-4.908,4.911c-1.965,0-3.931,0-5.9,0a1.41,1.41,0,0,0-1.063.335,1.143,1.143,0,0,0-.313,1.325,1.281,1.281,0,0,0,1.343.8c3.931-.006,7.862,0,11.793,0,.95,0,1.516-.483,1.5-1.249s-.571-1.2-1.545-1.2Q79.541,858.125,76.631,858.13Zm-3.7,31.921c.815,0,1.632.02,2.446-.006a1.221,1.221,0,1,0-.008-2.441q-2.408-.035-4.817,0a1.224,1.224,0,1,0,.008,2.444C71.354,890.069,72.145,890.052,72.935,890.051Zm-.61-17.189c.611,0,1.224.021,1.834-.005a1.221,1.221,0,1,0-.016-2.442q-1.8-.037-3.591,0a1.212,1.212,0,0,0-1.28,1.229,1.226,1.226,0,0,0,1.3,1.216C71.153,872.88,71.739,872.863,72.325,872.863Zm-.063,22.1c.611,0,1.224.015,1.834,0a1.229,1.229,0,0,0,1.306-1.208,1.212,1.212,0,0,0-1.272-1.237q-1.8-.035-3.591,0a1.21,1.21,0,0,0-1.267,1.242,1.227,1.227,0,0,0,1.31,1.2C71.141,894.978,71.7,894.964,72.262,894.964Zm-1.168-17.188c1.256,0,1.829-.37,1.852-1.2.024-.854-.579-1.262-1.862-1.262-1.239,0-1.817.394-1.813,1.233S69.856,877.776,71.094,877.776Z" transform="translate(-5.519 -5.519)" fill="#f5c481"/>
      <path id="Trazado_640794" data-name="Trazado 640794" d="M153.055,897.055c-1.048,0-2.217-.3-3.109.072-.874.363-1.154,1.607-1.631,2.493a9.912,9.912,0,0,1-2.663,3.2c-2.174,1.7-4.284,3.483-6.408,5.247a1.42,1.42,0,0,1-1.737.348c-.689-.39-.631-1.041-.522-1.694.573-3.418,1.146-6.836,1.726-10.3a6.519,6.519,0,0,1-3.377-.6,3.665,3.665,0,0,1-1.68-5.238c2.535-4.463,5.052-8.937,7.686-13.342a9.522,9.522,0,0,1,8.41-4.766c.767-.02,1.535-.026,2.3.006A.817.817,0,0,0,152.9,872q3.33-5.816,6.689-11.614c1.076-1.854,2.11-3.734,3.239-5.554a4.621,4.621,0,0,1,4.839-2.272A4.676,4.676,0,0,1,171.676,856a4.907,4.907,0,0,1-.572,4.115q-3.354,5.8-6.688,11.608a1.3,1.3,0,0,0-.312.736,11.452,11.452,0,0,1,2.487.237,8.687,8.687,0,0,1,4.726,2.946c.574.686,1.137,1.382,1.725,2.056a5.984,5.984,0,0,0,4.347,2.127c.7.037,1.286.2,1.466.951.189.791-.241,1.254-.932,1.536a8.755,8.755,0,0,1-7.215-3.553c-.2-.261-.448-.495-.635-.768-1.734-2.538-4.212-3.322-7.146-3.064a.6.6,0,0,0-.555.308q-1.98,3.454-3.985,6.894c-.175.3-.107.4.185.567a3.584,3.584,0,0,1,2.036,4.175,3.693,3.693,0,0,1-3.892,2.795q-6.212,0-12.423,0c-.256,0-.513-.011-.766.013a2.683,2.683,0,0,0-2.436,2.359,2.458,2.458,0,0,0,1.981,2.478,4.922,4.922,0,0,0,.991.057c4.55,0,9.1.03,13.65-.01a12.633,12.633,0,0,1,6.19,1.445,8.964,8.964,0,0,0,4.35,1.028c2.684-.017,5.368.012,8.052-.016a1.606,1.606,0,0,1,1.589.824c.053,1.2-.358,1.641-1.547,1.643-2.736,0-5.472-.006-8.208,0a11.54,11.54,0,0,1-5.312-1.262,7.9,7.9,0,0,0-3.318-1.071,3.2,3.2,0,0,0-.588-.11C156.964,897.042,155.01,897.05,153.055,897.055Zm-3.226-9.847c.69,0,1.383-.035,2.071.011a1.027,1.027,0,0,0,1.085-.626c1.229-2.182,2.494-4.343,3.746-6.512q4.16-7.2,8.331-14.4c.3-.516.27-.766-.274-1.051-1.017-.534-2.016-1.11-2.984-1.729-.5-.321-.7-.215-.983.277q-4.731,8.244-9.506,16.464-1.976,3.418-3.949,6.837c-.41.713-.4.723.392.727C148.448,887.21,149.138,887.208,149.829,887.208Zm1.226-12.2a7.468,7.468,0,0,0-7.653,3.551c-.827,1.38-1.611,2.786-2.413,4.181q-2.539,4.418-5.074,8.839c-.578,1.011-.337,1.676.726,2.131a3.861,3.861,0,0,0,1.727.258c.405-.018.564-.077.448-.586a4.936,4.936,0,0,1,4.693-6.149,1,1,0,0,0,.938-.592c2.07-3.613,4.161-7.213,6.237-10.822C150.83,875.564,151.061,875.336,151.055,875.007Zm16.021-20.039a2.287,2.287,0,0,0-2.13,1.115c-.78,1.287-1.507,2.607-2.278,3.9-.2.338-.161.515.185.708,1.136.634,2.258,1.295,3.382,1.95.243.141.443.226.627-.1.788-1.4,1.669-2.756,2.367-4.2A2.389,2.389,0,0,0,167.075,854.968ZM146.937,897.03c-.634,0-1.136.012-1.637,0a12.868,12.868,0,0,1-2.892-.148c-.954-.245-1.281-.023-1.454.984q-.476,2.782-.925,5.569a.7.7,0,0,0,.115.7c1.392-1.145,2.723-2.329,4.147-3.385C145.567,899.8,146.082,898.392,146.937,897.03Zm8.529-9.836a14.326,14.326,0,0,0,1.753-.015,1.134,1.134,0,0,0,1.041-1.144,1.233,1.233,0,0,0-.957-1.236.42.42,0,0,0-.58.2C156.329,885.708,155.919,886.405,155.466,887.195Z" transform="translate(-65.056 -18.636)" fill="#242021"/>
      <path id="Trazado_640795" data-name="Trazado 640795" d="M94.448,839.128c-.97-.257-1.228-.571-1.23-1.547,0-2.941-.018-5.881.013-8.822.006-.569-.132-.718-.711-.717q-17.722.028-35.443,0c-.582,0-.714.152-.71.718.027,3.733.015,7.466.013,11.2a2.508,2.508,0,0,1-2.833,2.829c-3.734,0-7.467.014-11.2-.014-.574,0-.714.141-.714.714q.025,26.311.012,52.623c0,.383-.088.717.549.715,6.93-.027,13.86-.019,20.791-.021a1.133,1.133,0,0,0,.152-.021c.1.008.2.025.305.025q14.577,0,29.154.016c.6,0,.631-.247.63-.72q-.02-6.866-.006-13.732c0-.978.26-1.293,1.229-1.547.968.259,1.224.572,1.224,1.552q0,7.672,0,15.344c0,1.107-.429,1.543-1.522,1.543q-26.7,0-53.4,0c-1.143,0-1.558-.423-1.558-1.583q0-27.849-.01-55.7a2.037,2.037,0,0,1,.654-1.557q7.133-7.08,14.239-14.188a2.04,2.04,0,0,1,1.558-.649q19.182.02,38.363.01c1.3,0,1.677.381,1.678,1.694q0,5.14,0,10.28C95.671,838.553,95.416,838.865,94.448,839.128ZM53.925,830.02,43.7,840.332c3.234,0,6.544,0,9.854,0,.468,0,.369-.323.37-.583.006-1.4,0-2.808,0-4.212Z" transform="translate(0 0)" fill="#221f20"/>
      <path id="Trazado_640796" data-name="Trazado 640796" d="M195.794,948.214a1.606,1.606,0,0,0-1.589-.824c-2.684.028-5.368,0-8.052.016a8.966,8.966,0,0,1-4.35-1.028,12.633,12.633,0,0,0-6.19-1.445c-4.55.04-9.1.013-13.65.01a4.935,4.935,0,0,1-.991-.057,2.458,2.458,0,0,1-1.981-2.478,2.683,2.683,0,0,1,2.436-2.359c.254-.024.511-.013.766-.013q6.212,0,12.423,0a3.693,3.693,0,0,0,3.892-2.795,3.584,3.584,0,0,0-2.036-4.175c-.292-.162-.36-.266-.185-.567q2.007-3.438,3.985-6.894a.6.6,0,0,1,.555-.308c2.934-.258,5.412.525,7.146,3.064.186.273.43.506.635.768a8.755,8.755,0,0,0,7.215,3.553Q195.808,940.447,195.794,948.214Z" transform="translate(-82.958 -69.007)" fill="#f4bdad"/>
      <path id="Trazado_640797" data-name="Trazado 640797" d="M148.379,999.74c-.969.254-1.228.569-1.229,1.547q-.005,6.866.006,13.732c0,.472-.026.721-.63.72q-14.577-.032-29.154-.016c-.1,0-.2-.016-.305-.025a51.673,51.673,0,0,0,7.694-2.888,43.245,43.245,0,0,0,7.866-4.932,1.407,1.407,0,0,0,.857.462c3.366.01,6.733.023,10.1,0a1.152,1.152,0,0,0,1.1-1.242,1.184,1.184,0,0,0-1.094-1.178,4.414,4.414,0,0,0-.687-.014l-7.88-.026c.813-.985,1.855-1.751,2.628-2.774a1.969,1.969,0,0,0,1.148.352c1.483-.018,2.966,0,4.449-.009.9-.006,1.447-.488,1.442-1.235s-.552-1.209-1.458-1.219c-1.252-.014-2.5-.018-3.757-.026a20.311,20.311,0,0,0,2.457-3.633c1.955,0,3.909-.012,5.863-.009a3.21,3.21,0,0,1,.588.11Q148.38,998.587,148.379,999.74Z" transform="translate(-53.932 -118.914)" fill="#f4b766"/>
      <path id="Trazado_640798" data-name="Trazado 640798" d="M69.3,884.935c1.56,0,3.119,0,4.679,0,.341,0,.74-.018.929.255.481.691.762.255,1.112-.109.566-.59,1.142-1.172,1.735-1.736a1.23,1.23,0,1,1,1.726,1.74q-1.8,1.837-3.635,3.632a1.26,1.26,0,0,0-.416,1c.02,1.968.012,3.937.008,5.905,0,1.161-.417,1.588-1.553,1.59q-4.6.006-9.2,0c-1.094,0-1.518-.435-1.519-1.544q-.006-4.6,0-9.2c0-1.1.43-1.523,1.535-1.527C66.231,884.931,67.765,884.935,69.3,884.935Zm.011,2.457c-1.047,0-2.094,0-3.141,0-.293,0-.617-.014-.542.413.066.374-.3.941.364,1.073a2.072,2.072,0,0,1,1.08.673q.918.924,1.844,1.841c.171.168.33.445.622.153l3.3-3.306a.629.629,0,0,0,.119-.647c-.085-.318-.378-.191-.583-.194C71.353,887.384,70.331,887.391,69.309,887.392Zm3.672,4.275-3,3.09c.8,0,1.658-.011,2.519.006.362.007.5-.122.491-.487C72.969,893.458,72.982,892.641,72.982,891.666Zm-4.657,3.091-2.709-3c0,.851.018,1.638-.007,2.424-.013.415.1.6.551.58C67,894.736,67.835,894.757,68.325,894.757Z" transform="translate(-16.602 -39.691)" fill="#232020"/>
      <path id="Trazado_640799" data-name="Trazado 640799" d="M75.411,941.673c.77-.8,1.486-1.564,2.224-2.3.668-.67,1.418-.721,1.944-.165a1.277,1.277,0,0,1-.206,1.891c-1.168,1.182-2.337,2.362-3.527,3.522a1.259,1.259,0,0,0-.415,1c.019,1.968.011,3.936.007,5.9,0,1.162-.417,1.592-1.549,1.593q-4.6.007-9.2,0c-1.1,0-1.524-.433-1.525-1.538q-.007-4.6,0-9.2c0-1.106.427-1.533,1.527-1.535,3.042,0,6.084.009,9.126-.01A1.588,1.588,0,0,1,75.411,941.673ZM69.3,943.3c-1.047,0-2.095,0-3.142,0-.3,0-.614-.005-.537.418.067.373-.3.939.372,1.068a2.044,2.044,0,0,1,1.08.675q.916.926,1.84,1.844c.172.171.332.438.623.146q1.649-1.655,3.3-3.308a.625.625,0,0,0,.114-.648c-.088-.316-.38-.187-.585-.19C71.348,943.288,70.327,943.3,69.3,943.3Zm-.9,7.365L65.617,947.6c0,.932.011,1.746-.005,2.559-.007.349.094.512.474.5C66.95,950.647,67.815,950.66,68.4,950.66Zm4.577-2.874-2.8,2.873c.612,0,1.5-.009,2.38,0,.353.006.425-.172.422-.475C72.976,949.371,72.982,948.554,72.982,947.786Z" transform="translate(-16.602 -78.406)" fill="#232020"/>
      <path id="Trazado_640800" data-name="Trazado 640800" d="M75.407,997.554c.776-.8,1.493-1.568,2.232-2.308a1.271,1.271,0,0,1,1.889-.208c.556.527.5,1.271-.164,1.946-1.168,1.182-2.337,2.363-3.528,3.521a1.254,1.254,0,0,0-.408,1.005c.019,1.994.013,3.987.006,5.981,0,1.058-.439,1.5-1.48,1.507q-4.678.01-9.356,0c-.994,0-1.437-.458-1.439-1.469q-.01-4.677,0-9.355c0-1,.452-1.446,1.458-1.448,3.119-.007,6.237.006,9.356-.01A1.5,1.5,0,0,1,75.407,997.554Zm-6.049,1.625H66.523c-.977,0-.973.007-.914.977.018.292.071.5.406.524a1.635,1.635,0,0,1,1.021.621q.943.953,1.893,1.9c.181.182.343.4.626.116q1.618-1.632,3.25-3.251a.651.651,0,0,0,.141-.71c-.1-.3-.393-.167-.6-.17C71.351,999.171,70.354,999.179,69.358,999.179Zm-.946,7.366-2.8-3.033c0,.9.018,1.717-.008,2.529-.014.424.173.517.549.509C67,1006.532,67.836,1006.544,68.412,1006.544Zm1.594,0h2.5c.24,0,.472,0,.471-.341,0-.877,0-1.754,0-2.844Z" transform="translate(-16.6 -117.101)" fill="#232020"/>
      <path id="Trazado_640801" data-name="Trazado 640801" d="M125.736,852.016h-12.8c-.2,0-.41.01-.613,0a1.223,1.223,0,0,1-.029-2.446c.178-.014.358-.005.536-.005h25.986a3.434,3.434,0,0,1,.688.022,1.219,1.219,0,0,1,.029,2.405,3.6,3.6,0,0,1-.764.028Q132.252,852.018,125.736,852.016Z" transform="translate(-49.791 -16.594)" fill="#231f20"/>
      <path id="Trazado_640802" data-name="Trazado 640802" d="M125.823,865.526h12.955a4.316,4.316,0,0,1,.689.014,1.186,1.186,0,0,1,1.093,1.183,1.208,1.208,0,0,1-1.108,1.247,4.974,4.974,0,0,1-.613.012q-12.993,0-25.986,0a3.222,3.222,0,0,1-.763-.033,1.219,1.219,0,0,1,.015-2.392,3.428,3.428,0,0,1,.763-.03Z" transform="translate(-49.808 -27.649)" fill="#231f20"/>
      <path id="Trazado_640803" data-name="Trazado 640803" d="M131.361,897.461h10.5c.2,0,.41-.012.613.008a1.222,1.222,0,0,1-.026,2.442c-.177.015-.357.006-.536.006H120.836a3.512,3.512,0,0,1-.688-.021,1.22,1.22,0,0,1,.026-2.418,3.94,3.94,0,0,1,.688-.016Z" transform="translate(-55.341 -49.762)" fill="#231f20"/>
      <path id="Trazado_640804" data-name="Trazado 640804" d="M126.413,913.436q2.91,0,5.82,0c.975,0,1.531.442,1.545,1.2s-.551,1.248-1.5,1.249c-3.931,0-7.862,0-11.793.005a1.281,1.281,0,0,1-1.343-.8,1.143,1.143,0,0,1,.313-1.325,1.41,1.41,0,0,1,1.063-.335C122.482,913.44,124.448,913.436,126.413,913.436Z" transform="translate(-55.301 -60.825)" fill="#232020"/>
      <path id="Trazado_640805" data-name="Trazado 640805" d="M169.656,1025.134l7.88.025a4.414,4.414,0,0,1,.687.014,1.184,1.184,0,0,1,1.094,1.178,1.152,1.152,0,0,1-1.1,1.242c-3.366.026-6.733.014-10.1,0a1.408,1.408,0,0,1-.857-.462c-.472-1.249.011-1.963,1.335-1.977C168.951,1025.155,169.3,1025.142,169.656,1025.134Z" transform="translate(-88.566 -138.171)" fill="#232020"/>
      <path id="Trazado_640806" data-name="Trazado 640806" d="M122.734,1011.684c-.79,0-1.581.017-2.37,0a1.224,1.224,0,1,1-.008-2.444q2.408-.029,4.817,0a1.221,1.221,0,1,1,.008,2.441C124.366,1011.7,123.55,1011.684,122.734,1011.684Z" transform="translate(-55.319 -127.152)" fill="#252121"/>
      <path id="Trazado_640807" data-name="Trazado 640807" d="M185.141,1009.165c1.252.008,2.5.013,3.757.026.905.01,1.452.473,1.458,1.219s-.543,1.229-1.442,1.235c-1.483.009-2.966-.008-4.449.009a1.969,1.969,0,0,1-1.148-.352c-.67-1.249-.184-2.093,1.217-2.113C184.736,1009.187,184.938,1009.173,185.141,1009.165Z" transform="translate(-99.599 -127.113)" fill="#252121"/>
      <path id="Trazado_640808" data-name="Trazado 640808" d="M122.124,955.793c-.586,0-1.172.017-1.758,0a1.225,1.225,0,0,1-1.3-1.216,1.212,1.212,0,0,1,1.28-1.229q1.8-.033,3.591,0a1.221,1.221,0,1,1,.016,2.442C123.347,955.814,122.735,955.793,122.124,955.793Z" transform="translate(-55.318 -88.45)" fill="#252221"/>
      <path id="Trazado_640809" data-name="Trazado 640809" d="M122.06,1027.648c-.56,0-1.121.015-1.681,0a1.227,1.227,0,0,1-1.31-1.2,1.21,1.21,0,0,1,1.267-1.242q1.8-.036,3.591,0a1.211,1.211,0,0,1,1.272,1.237,1.229,1.229,0,0,1-1.306,1.208C123.284,1027.663,122.672,1027.648,122.06,1027.648Z" transform="translate(-55.317 -138.204)" fill="#252221"/>
      <path id="Trazado_640810" data-name="Trazado 640810" d="M120.893,971.785c-1.239,0-1.819-.39-1.823-1.225s.575-1.233,1.813-1.233c1.283,0,1.886.408,1.862,1.262C122.721,971.415,122.149,971.785,120.893,971.785Z" transform="translate(-55.318 -99.528)" fill="#252221"/>
      <path id="Trazado_640811" data-name="Trazado 640811" d="M181.267,910.208c-.69,0-1.381,0-2.071,0-.79,0-.8-.013-.392-.726q1.967-3.423,3.949-6.837,4.758-8.228,9.506-16.464c.282-.491.481-.6.983-.277.968.619,1.967,1.2,2.984,1.729.544.285.575.535.274,1.051q-4.188,7.186-8.331,14.4c-1.252,2.168-2.517,4.33-3.746,6.511a1.027,1.027,0,0,1-1.085.626C182.651,910.173,181.958,910.208,181.267,910.208Z" transform="translate(-96.495 -41.637)" fill="#225fc5"/>
      <path id="Trazado_640812" data-name="Trazado 640812" d="M156.629,925.469c.006.329-.225.556-.371.81-2.076,3.609-4.168,7.209-6.237,10.822a1,1,0,0,1-.938.592,4.935,4.935,0,0,0-4.693,6.149c.117.509-.042.568-.447.586a3.861,3.861,0,0,1-1.727-.258c-1.062-.455-1.3-1.12-.726-2.131q2.528-4.424,5.074-8.839c.8-1.4,1.586-2.8,2.413-4.181A7.468,7.468,0,0,1,156.629,925.469Z" transform="translate(-70.63 -69.097)" fill="#f0a894"/>
      <path id="Trazado_640813" data-name="Trazado 640813" d="M233.29,860.515a2.389,2.389,0,0,1,2.153,3.372c-.7,1.443-1.579,2.8-2.367,4.2-.184.327-.384.242-.627.1-1.125-.655-2.246-1.315-3.382-1.95-.346-.193-.386-.37-.185-.708.771-1.293,1.5-2.612,2.278-3.9A2.287,2.287,0,0,1,233.29,860.515Z" transform="translate(-131.271 -24.183)" fill="#c42931"/>
      <path id="Trazado_640814" data-name="Trazado 640814" d="M162.366,996.729c-.855,1.362-1.37,2.769-2.646,3.714-1.424,1.057-2.755,2.24-4.147,3.385a.7.7,0,0,1-.115-.7q.45-2.787.925-5.569c.172-1.007.5-1.23,1.454-.984a12.868,12.868,0,0,0,2.892.148C161.23,996.741,161.732,996.729,162.366,996.729Z" transform="translate(-80.485 -118.334)" fill="#225fc5"/>
      <path id="Trazado_640815" data-name="Trazado 640815" d="M205.741,959.805c.454-.789.864-1.486,1.257-2.194a.42.42,0,0,1,.58-.2,1.233,1.233,0,0,1,.957,1.236,1.134,1.134,0,0,1-1.041,1.145A14.339,14.339,0,0,1,205.741,959.805Z" transform="translate(-115.332 -91.246)" fill="#edaf9d"/>
      <path id="Trazado_640816" data-name="Trazado 640816" d="M64.1,839.994v5.519c0,1.4,0,2.808,0,4.212,0,.26.1.584-.37.583-3.31-.007-6.62,0-9.854,0Z" transform="translate(-10.172 -9.974)" fill="#e95c37"/>
      <path id="Trazado_640817" data-name="Trazado 640817" d="M74.77,897.44c1.021,0,2.043-.007,3.065.006.2,0,.5-.125.583.193a.629.629,0,0,1-.119.647l-3.3,3.306c-.292.292-.451.015-.622-.153q-.928-.914-1.844-1.841a2.072,2.072,0,0,0-1.08-.673c-.665-.133-.3-.7-.364-1.073-.075-.427.249-.414.542-.413C72.675,897.442,73.722,897.44,74.77,897.44Z" transform="translate(-22.062 -49.739)" fill="#70a83e"/>
      <path id="Trazado_640818" data-name="Trazado 640818" d="M88.335,911.377c0,.975-.012,1.792.006,2.608.008.365-.128.495-.491.488-.861-.017-1.722-.005-2.519-.005Z" transform="translate(-31.956 -59.402)" fill="#70a83e"/>
      <path id="Trazado_640819" data-name="Trazado 640819" d="M73.842,914.683c-.491,0-1.329-.021-2.165.008-.449.016-.564-.165-.551-.579.025-.786.007-1.573.007-2.424Z" transform="translate(-22.119 -59.617)" fill="#70a83e"/>
      <path id="Trazado_640820" data-name="Trazado 640820" d="M74.767,953.325c1.022,0,2.043-.007,3.065.006.2,0,.5-.126.585.19a.625.625,0,0,1-.114.648q-1.651,1.654-3.3,3.308c-.291.292-.45.025-.623-.146q-.925-.917-1.84-1.844a2.044,2.044,0,0,0-1.08-.675c-.674-.13-.3-.7-.372-1.068-.076-.424.241-.42.537-.418C72.672,953.327,73.72,953.325,74.767,953.325Z" transform="translate(-22.064 -88.436)" fill="#70a83e"/>
      <path id="Trazado_640821" data-name="Trazado 640821" d="M73.928,970.426c-.59,0-1.455-.013-2.319.006-.38.008-.481-.156-.474-.5.016-.814.005-1.628.005-2.56Z" transform="translate(-22.126 -98.172)" fill="#70a83e"/>
      <path id="Trazado_640822" data-name="Trazado 640822" d="M88.8,967.967c0,.767-.006,1.585,0,2.4,0,.3-.069.481-.422.475-.884-.013-1.768,0-2.38,0Z" transform="translate(-32.419 -98.587)" fill="#70a83e"/>
      <path id="Trazado_640823" data-name="Trazado 640823" d="M74.834,1009.206c1,0,1.992-.008,2.988.006.207,0,.5-.128.6.17a.651.651,0,0,1-.141.71q-1.629,1.622-3.25,3.251c-.282.285-.445.065-.626-.116q-.947-.949-1.893-1.9a1.635,1.635,0,0,0-1.021-.621c-.335-.026-.388-.232-.406-.524-.058-.97-.063-.976.914-.977Z" transform="translate(-22.077 -127.128)" fill="#70a83e"/>
      <path id="Trazado_640824" data-name="Trazado 640824" d="M73.931,1026.372c-.576,0-1.416-.013-2.256.005-.376.008-.563-.085-.549-.509.026-.813.008-1.626.008-2.529Z" transform="translate(-22.12 -136.928)" fill="#70a83e"/>
      <path id="Trazado_640825" data-name="Trazado 640825" d="M85.432,1026.029l2.97-3.184c0,1.089,0,1.966,0,2.843,0,.341-.231.341-.471.341Z" transform="translate(-32.026 -136.586)" fill="#70a83e"/>
    </g>
  </g>
</svg>
