<svg xmlns="http://www.w3.org/2000/svg" width="92" height="92" viewBox="0 0 92 92">
  <g id="Grupo_974500" data-name="Grupo 974500" transform="translate(-743.379 -963.556)">
    <g id="Grupo_963195" data-name="Grupo 963195" transform="translate(308.379 -3377.444)">
      <circle id="Elipse_7706" data-name="Elipse 7706" cx="46" cy="46" r="46" transform="translate(435 4341)" fill="#449c6e"/>
      <g id="Grupo_980778" data-name="Grupo 980778" transform="translate(66.95 3451.177)">
        <path id="Trazado_640765" data-name="Trazado 640765" d="M477.852,1058.655c-.035.072-.075.142-.1.217-.358.973-.931,1.438-1.711,1.387-.8-.052-1.289-.562-1.521-1.592.068-.313.123-.63.2-.939,1.109-4.165,2.229-8.327,3.329-12.494a2.258,2.258,0,1,0-4.34-1.238c-1.324,4.881-2.61,9.773-3.91,14.661a5.041,5.041,0,0,1-.477,1,1.443,1.443,0,0,1-1.561.555,1.6,1.6,0,0,1-1.266-1.55c.05-.262.086-.528.154-.785q1.288-4.852,2.584-9.7c.79-2.976,1.6-5.947,2.345-8.934a2.164,2.164,0,0,0-1.591-2.6,2.227,2.227,0,0,0-2.685,1.343,7.716,7.716,0,0,0-.282.92q-1.5,5.584-3,11.17c-.752,2.814-1.731,5.595-1.326,8.588-.285,1.077-.86,1.625-1.677,1.6-.794-.023-1.318-.548-1.6-1.6q.011-10.758.013-21.515a2.255,2.255,0,1,0-4.509.08c-.017,2.417-.008,4.835,0,7.253q.009,7.091.024,14.181c-.319,1.087-.832,1.609-1.635,1.6-1.052-.016-1.449-.761-1.725-1.62-.642-2.429-1.234-4.873-1.945-7.282a2.19,2.19,0,0,0-3.327-1.2,2.237,2.237,0,0,0-.955,2.518c.5,2,1.014,3.99,1.523,5.984-.242,1.071-.774,1.6-1.608,1.6a1.7,1.7,0,0,1-1.643-1.493c-.5-1.945-1.13-3.859-1.493-5.838a5.348,5.348,0,0,1,3.068-5.807.987.987,0,0,0,.7-1.12c-.031-2.606-.019-5.214-.012-7.82a15.158,15.158,0,0,1,11.93-15.1c.516-.124,1.3-.04,1.5-.349.272-.425.112-1.133.122-1.72s-.007-1.183,0-1.774a1.626,1.626,0,1,1,3.223-.032c.017.914.045,1.83-.01,2.74-.039.639.112.892.809,1.014a14.832,14.832,0,0,1,11.565,9.073,14.135,14.135,0,0,1,1.182,6.2c-.015.594.071.851.765.967a5.4,5.4,0,0,1,4.309,6.266c-.043.233-.059.47-.1.776a5.636,5.636,0,0,1,3.455.623,5.491,5.491,0,0,1,2.642,6.331c-.469,1.871-.988,3.73-1.5,5.589-.272.988-.853,1.489-1.647,1.477-.826-.013-1.4-.581-1.613-1.608.55-2.124,1.114-4.246,1.645-6.375a2.245,2.245,0,1,0-4.319-1.227C479.15,1053.575,478.515,1056.119,477.852,1058.655Zm-28.1-11.619a9.393,9.393,0,0,1,1.908,1.349v-1.362c.008-.965.022-1.931.023-2.9,0-1.966,0-1.95-1.949-1.944-.473,0-.656.086-.636.609.044,1.152.038,2.308,0,3.461C449.088,1046.759,449.271,1047,449.757,1047.035Zm13.413-6.444c.27-.95.548-1.9.809-2.85a5.547,5.547,0,0,1,4.556-4.34,5.608,5.608,0,0,1,3.8.753c-1.413-4.342-5.666-7.838-9.641-7.994v16.1l.09.018Zm-3.727-11.486c0-.805-.017-1.611.007-2.416.014-.45,0-.642-.592-.532a11.977,11.977,0,0,0-9.735,11.435c-.034,1.374-.034,1.374,1.287,1.374,1.277,0,1.334,0,1.269-1.314a5.5,5.5,0,0,1,7.279-5.662c.407.148.5.006.492-.391C459.427,1030.769,459.443,1029.937,459.443,1029.1Z" transform="translate(-46.696 -83.141)" fill="#020202"/>
        <path id="Trazado_640766" data-name="Trazado 640766" d="M535.286,916.954q0-6.894,0-13.787c0-1.651.53-2.184,2.164-2.187.994,0,1.99-.026,2.983.01.5.018.7-.086.677-.643-.047-1.288-.022-2.579-.013-3.869.01-1.321.612-1.947,1.914-1.948q10.281-.011,20.564,0a1.67,1.67,0,0,1,1.883,1.9q.01,14.069,0,28.137a1.678,1.678,0,0,1-1.878,1.9c-1.075.015-2.152.034-3.225-.01-.543-.022-.742.093-.719.685.051,1.261.022,2.526.014,3.789-.008,1.4-.606,1.991-2.034,1.991q-10.161,0-20.322,0c-1.42,0-2.005-.591-2.006-2.019Q535.282,923.927,535.286,916.954Zm3.227-.031q0,6.047,0,12.094c0,.373-.086.7.535.695q8.427-.041,16.855-.006c.429,0,.532-.125.531-.54q-.02-8.345.005-16.69c0-.545-.2-.6-.651-.59-1.612.022-3.226.013-4.839.007-1.576-.005-2.145-.566-2.15-2.119-.005-1.64-.024-3.279.012-4.918.012-.538-.151-.667-.675-.663-2.984.026-5.968.031-8.951,0-.591-.006-.688.179-.684.719C538.525,908.914,538.514,912.918,538.514,916.923Zm23.72-6.365c0-4.031-.01-8.063.012-12.094,0-.537-.094-.729-.687-.726q-8.306.037-16.612,0c-.476,0-.675.088-.636.611a14.242,14.242,0,0,1,0,2.014c-.034.5.129.633.625.624,1.666-.032,3.333.008,5-.021a2.5,2.5,0,0,1,1.935.805q3.479,3.533,7,7.029a2.539,2.539,0,0,1,.794,1.939c-.021,3.547-.009,7.095-.009,10.643,0,1.87,0,1.837,1.867,1.875.642.013.731-.2.727-.771C562.223,918.513,562.234,914.535,562.234,910.558Zm-10.145-3.814c-.331,1.871-.246,1.978,1.6,1.934.1,0,.214.014.253-.073Z" transform="translate(-109.792)"/>
        <path id="Trazado_640767" data-name="Trazado 640767" d="M401.615,912.255c1.271.344,1.609.781,1.61,2.114q0,5,0,10c0,1.537-.561,2.1-2.086,2.1-1.021,0-2.044.027-3.064-.011-.507-.019-.692.1-.673.647.045,1.288.022,2.58.012,3.869-.01,1.321-.613,1.943-1.918,1.945q-10.281.011-20.564,0a1.67,1.67,0,0,1-1.879-1.9q-.01-14.069,0-28.137a1.679,1.679,0,0,1,1.882-1.9c1.1-.014,2.2-.027,3.306.008.478.016.65-.084.632-.606-.043-1.288-.02-2.58-.013-3.869.008-1.373.6-1.985,1.958-1.986q10.241-.008,20.483,0c1.309,0,1.913.621,1.921,1.942.01,1.8.007,3.6,0,5.4,0,1.255-.368,1.706-1.609,2.031-1.241-.321-1.608-.776-1.615-2.027-.006-1.129-.038-2.259.013-3.386.027-.6-.133-.757-.744-.754-4.893.028-9.786.014-14.679.018-.8,0-1.88-.281-2.335.125-.522.465-.081,1.568-.179,2.384-.077.644.192.743.763.729,1.585-.038,3.172.013,4.758-.024a2.643,2.643,0,0,1,2.081.847q3.444,3.512,6.939,6.974a2.621,2.621,0,0,1,.809,2.014c-.023,3.521-.01,7.042-.01,10.563,0,1.9,0,1.883,1.929,1.889.527,0,.67-.139.665-.666-.027-2.741-.015-5.483-.012-8.225C400,913.036,400.345,912.595,401.615,912.255Zm-25.337,4.694q0,6.047-.005,12.095c0,.414-.012.671.566.669q8.387-.038,16.775-.006c.44,0,.589-.094.587-.565q-.025-8.345,0-16.69c0-.478-.155-.571-.594-.564q-2.54.036-5.081,0c-1.37-.016-1.951-.612-1.96-1.979-.012-1.666-.026-3.333.01-5,.012-.552-.119-.727-.7-.721q-4.435.047-8.871,0c-.605-.007-.747.143-.743.744C376.293,908.94,376.279,912.944,376.279,916.949Zm13.553-10.121c-.092,2.341-.378,1.8,1.835,1.831.015,0,.03-.041.02-.026Z" transform="translate(0 -0.001)"/>
        <path id="Trazado_640768" data-name="Trazado 640768" d="M420.344,918.821c-1.271.34-1.614.781-1.615,2.111,0,2.742-.015,5.483.012,8.225,0,.527-.138.668-.665.666-1.929-.006-1.929.015-1.929-1.889,0-3.521-.013-7.042.01-10.563a2.621,2.621,0,0,0-.809-2.014q-3.493-3.464-6.939-6.974a2.642,2.642,0,0,0-2.081-.847c-1.586.037-3.173-.014-4.758.024-.571.014-.839-.086-.763-.729.1-.816-.343-1.919.179-2.384.455-.405,1.532-.124,2.335-.125,4.893,0,9.786.01,14.679-.018.611,0,.771.154.744.753-.051,1.127-.02,2.257-.013,3.386.007,1.252.374,1.706,1.615,2.027q0,1.212-.007,2.424c-1.1.334-1.625.889-1.6,1.694s.58,1.363,1.611,1.583Q420.345,917.5,420.344,918.821Z" transform="translate(-18.728 -6.566)" fill="#809cf6"/>
        <path id="Trazado_640769" data-name="Trazado 640769" d="M481.869,1095.344q-.012-7.09-.024-14.181c0-2.417-.012-4.835,0-7.252a2.255,2.255,0,1,1,4.509-.08q.016,10.757-.013,21.515Z" transform="translate(-73.623 -119.829)" fill="#f6cdaf"/>
        <path id="Trazado_640770" data-name="Trazado 640770" d="M505.71,1098.788c-.406-2.993.573-5.774,1.326-8.588q1.494-5.587,3-11.17a7.724,7.724,0,0,1,.282-.92,2.227,2.227,0,0,1,2.685-1.343,2.164,2.164,0,0,1,1.591,2.6c-.745,2.987-1.555,5.958-2.345,8.934q-1.288,4.853-2.584,9.7c-.069.257-.1.523-.154.784Z" transform="translate(-89.713 -123.273)" fill="#f4cbae"/>
        <path id="Trazado_640771" data-name="Trazado 640771" d="M527.894,1110.8c1.3-4.888,2.586-9.78,3.91-14.661a2.258,2.258,0,1,1,4.34,1.238c-1.1,4.167-2.22,8.329-3.329,12.494-.082.309-.137.626-.2.939Z" transform="translate(-104.79 -135.282)" fill="#f4cbae"/>
        <path id="Trazado_640772" data-name="Trazado 640772" d="M552.8,1125.718c.663-2.536,1.3-5.079,2-7.6a2.245,2.245,0,1,1,4.319,1.227c-.532,2.129-1.1,4.25-1.645,6.375Z" transform="translate(-121.646 -150.205)" fill="#f4cbae"/>
        <path id="Trazado_640773" data-name="Trazado 640773" d="M453.63,1126.508c-.509-1.995-1.026-3.987-1.523-5.984a2.237,2.237,0,0,1,.955-2.518,2.19,2.19,0,0,1,3.327,1.2c.711,2.409,1.3,4.853,1.945,7.282Z" transform="translate(-53.447 -150.992)" fill="#f4cbae"/>
        <path id="Trazado_640774" data-name="Trazado 640774" d="M499.062,963.975c0,1.046.015,2.092,0,3.137a1.619,1.619,0,1,1-3.218.035q-.029-3.218,0-6.436a1.619,1.619,0,1,1,3.218.045C499.076,961.829,499.062,962.9,499.062,963.975Z" transform="translate(-83.087 -43.593)" fill="#020202"/>
        <path id="Trazado_640775" data-name="Trazado 640775" d="M514.289,996.461c.046-.95,2.7-3.614,3.657-3.665a1.5,1.5,0,0,1,1.474.786,1.4,1.4,0,0,1-.059,1.662,16.163,16.163,0,0,1-2.608,2.61,1.415,1.415,0,0,1-1.663.076A1.544,1.544,0,0,1,514.289,996.461Z" transform="translate(-95.581 -66.502)" fill="#060606"/>
        <path id="Trazado_640776" data-name="Trazado 640776" d="M474.016,998.29a1.573,1.573,0,0,1-1.029-.528c-.659-.629-1.314-1.264-1.934-1.93a1.615,1.615,0,1,1,2.268-2.287c.722.677,1.421,1.384,2.084,2.119a1.461,1.461,0,0,1,.216,1.723A1.643,1.643,0,0,1,474.016,998.29Z" transform="translate(-65.938 -66.635)" fill="#060606"/>
        <path id="Trazado_640777" data-name="Trazado 640777" d="M497.5,1000.944a1.652,1.652,0,0,1-1.626-1.561,1.606,1.606,0,1,1,3.213-.043A1.657,1.657,0,0,1,497.5,1000.944Z" transform="translate(-83.123 -69.861)" fill="#060606"/>
        <path id="Trazado_640778" data-name="Trazado 640778" d="M458.05,934.316c-1.031-.22-1.589-.767-1.611-1.583s.5-1.361,1.6-1.694a1.958,1.958,0,0,1,1.417.917C459.995,933,459.383,934.028,458.05,934.316Z" transform="translate(-56.432 -24.711)" fill="#060606"/>
        <path id="Trazado_640779" data-name="Trazado 640779" d="M505.919,1058.966v-14.423c3.975.156,8.229,3.652,9.641,7.994a5.607,5.607,0,0,0-3.8-.753,5.547,5.547,0,0,0-4.556,4.34c-.262.952-.539,1.9-.809,2.85Z" transform="translate(-89.918 -101.524)" fill="#b6e1f9"/>
        <path id="Trazado_640780" data-name="Trazado 640780" d="M474.23,1047.42c0,.832-.017,1.665.007,2.5.011.4-.085.539-.492.391a5.5,5.5,0,0,0-7.279,5.661c.065,1.311.008,1.314-1.269,1.314-1.321,0-1.321,0-1.287-1.374a11.977,11.977,0,0,1,9.736-11.435c.593-.11.605.082.592.532C474.213,1045.809,474.23,1046.615,474.23,1047.42Z" transform="translate(-61.483 -101.456)" fill="#b5e1f8"/>
        <path id="Trazado_640781" data-name="Trazado 640781" d="M464.516,1098.96c-.485-.039-.668-.277-.652-.784.037-1.153.042-2.309,0-3.461-.02-.523.163-.607.636-.609,1.95-.006,1.953-.022,1.949,1.944,0,.966-.015,1.931-.023,2.9Z" transform="translate(-61.455 -135.066)" fill="#8ad4f8"/>
        <path id="Trazado_640782" data-name="Trazado 640782" d="M465.888,1109.1l1.908-.013v1.362A9.393,9.393,0,0,0,465.888,1109.1Z" transform="translate(-62.828 -145.201)" fill="#ecf0f7"/>
        <path id="Trazado_640783" data-name="Trazado 640783" d="M505.919,1089.16l.473.009-.382,1.689-.091-.018Z" transform="translate(-89.918 -131.719)" fill="#8ad4f8"/>
        <path id="Trazado_640784" data-name="Trazado 640784" d="M545.245,937.159c0-4,.011-8.009-.013-12.013,0-.54.094-.725.684-.719,2.983.034,5.968.029,8.951,0,.524,0,.686.125.675.663-.036,1.639-.017,3.278-.012,4.918,0,1.553.573,2.114,2.15,2.119,1.613.006,3.226.015,4.839-.007.448-.006.654.045.651.59q-.034,8.345-.005,16.69c0,.414-.1.541-.531.54q-8.427-.022-16.855.006c-.621,0-.536-.322-.535-.695Q545.247,943.206,545.245,937.159Zm8.947-.3h2.74c.054,0,.108,0,.161,0a1.62,1.62,0,0,0,1.727-1.624,1.593,1.593,0,0,0-1.747-1.6q-2.86-.031-5.721,0a1.6,1.6,0,0,0-1.77,1.577,1.618,1.618,0,0,0,1.79,1.641C552.311,936.879,553.252,936.863,554.192,936.863Zm.016,3.225c-.94,0-1.88-.013-2.82,0a1.617,1.617,0,1,0-.052,3.217q2.86.035,5.721,0a1.617,1.617,0,1,0-.028-3.218C556.089,940.074,555.148,940.088,554.208,940.088Z" transform="translate(-116.524 -20.236)" fill="#edf0f7"/>
        <path id="Trazado_640785" data-name="Trazado 640785" d="M581.119,917.287c0,3.977-.011,7.955.013,11.932,0,.567-.085.784-.727.771-1.867-.038-1.867,0-1.867-1.875,0-3.548-.012-7.1.009-10.643a2.539,2.539,0,0,0-.794-1.939q-3.517-3.5-7-7.03a2.5,2.5,0,0,0-1.935-.805c-1.666.029-3.333-.011-5,.021-.5.009-.659-.12-.625-.624a14.235,14.235,0,0,0,0-2.014c-.039-.523.16-.613.636-.611q8.306.024,16.612,0c.593,0,.69.189.687.726C581.109,909.224,581.119,913.255,581.119,917.287Z" transform="translate(-128.677 -6.729)" fill="#809cf6"/>
        <path id="Trazado_640786" data-name="Trazado 640786" d="M586.954,932.325l1.858,1.861c-.039.087-.151.071-.253.073C586.708,934.3,586.623,934.2,586.954,932.325Z" transform="translate(-144.657 -25.581)" fill="#e3b770"/>
        <path id="Trazado_640787" data-name="Trazado 640787" d="M383.005,937.183c0-4,.015-8.009-.016-12.013,0-.6.138-.752.743-.744q4.435.053,8.871,0c.58-.006.712.168.7.721-.036,1.665-.022,3.332-.01,5,.009,1.367.59,1.962,1.96,1.979q2.54.031,5.081,0c.44-.006.6.086.594.564q-.026,8.345,0,16.69c0,.471-.147.567-.587.565q-8.388-.021-16.775.006c-.577,0-.567-.254-.566-.668Q383.014,943.231,383.005,937.183Zm8.5-.322c.967,0,1.934.017,2.9,0a1.62,1.62,0,1,0-.025-3.218q-2.82-.025-5.641,0a1.625,1.625,0,1,0,.025,3.22C389.682,936.874,390.6,936.862,391.509,936.861Zm.127,3.226c-.967,0-1.934-.013-2.9,0a1.619,1.619,0,1,0-.038,3.218q2.86.033,5.721,0a1.62,1.62,0,1,0-.043-3.218C393.463,940.074,392.549,940.087,391.636,940.087Z" transform="translate(-6.727 -20.235)" fill="#ecf0f7"/>
        <path id="Trazado_640788" data-name="Trazado 640788" d="M424.83,932.583l1.855,1.805c.01-.015-.005.027-.02.026C424.451,934.383,424.737,934.924,424.83,932.583Z" transform="translate(-34.998 -25.756)" fill="#e3b770"/>
        <path id="Trazado_640789" data-name="Trazado 640789" d="M563.3,956.122c-.94,0-1.881.016-2.82,0a1.618,1.618,0,0,1-1.789-1.641,1.6,1.6,0,0,1,1.769-1.577q2.86-.028,5.721,0a1.593,1.593,0,0,1,1.747,1.6,1.62,1.62,0,0,1-1.727,1.624c-.053,0-.107,0-.161,0Z" transform="translate(-125.63 -39.496)" fill="#020202"/>
        <path id="Trazado_640790" data-name="Trazado 640790" d="M563.315,972.865c.94,0,1.88-.014,2.82,0a1.617,1.617,0,1,1,.028,3.218q-2.86.033-5.721,0a1.617,1.617,0,1,1,.052-3.217C561.434,972.852,562.375,972.865,563.315,972.865Z" transform="translate(-125.63 -53.013)" fill="#020202"/>
        <path id="Trazado_640791" data-name="Trazado 640791" d="M399.723,956.125c-.913,0-1.827.013-2.74,0a1.625,1.625,0,1,1-.025-3.22q2.821-.023,5.641,0a1.62,1.62,0,1,1,.025,3.218C401.657,956.142,400.689,956.125,399.723,956.125Z" transform="translate(-14.94 -39.499)" fill="#020202"/>
        <path id="Trazado_640792" data-name="Trazado 640792" d="M399.85,972.866c.913,0,1.827-.013,2.74,0a1.62,1.62,0,1,1,.043,3.218q-2.86.033-5.721,0a1.619,1.619,0,1,1,.037-3.218C397.915,972.852,398.883,972.866,399.85,972.866Z" transform="translate(-14.94 -53.014)" fill="#020202"/>
      </g>
    </g>
  </g>
</svg>
