<svg xmlns="http://www.w3.org/2000/svg" width="92" height="92" viewBox="0 0 92 92">
  <g id="Grupo_978943" data-name="Grupo 978943" transform="translate(-743.379 -963.556)">
    <g id="Grupo_963195" data-name="Grupo 963195" transform="translate(308.379 -3377.444)">
      <circle id="Elipse_7706" data-name="Elipse 7706" cx="46" cy="46" r="46" transform="translate(435 4341)" fill="#449c6e"/>
      <g id="Grupo_980591" data-name="Grupo 980591" transform="translate(405.66 3811.656)">
        <path id="Trazado_640403" data-name="Trazado 640403" d="M108.667,593.7c.711.738.767,1.138.2,1.99A29.386,29.386,0,0,1,86.92,609.212a27.94,27.94,0,0,1-9.794-.6.752.752,0,0,0-.866.287,21.632,21.632,0,0,1-1.592,1.618,2.094,2.094,0,0,1-3.033.212c-1.249-1.155-2.376-1.345-3.784-.333a6.122,6.122,0,0,1-1.9.675.729.729,0,0,0-.636.74,12.913,12.913,0,0,1-.293,1.852,2.2,2.2,0,0,1-2.171,1.789c-.756.025-1.515.022-2.272,0a2.1,2.1,0,0,1-2.245-1.965,2.614,2.614,0,0,0-2.485-2.945,2.465,2.465,0,0,1-1.127-.518c-.872-.718-1.578-.453-2.287.236a5.267,5.267,0,0,1-.822.6,2.239,2.239,0,0,1-1.254.376c-1.423-.008-3.866-2.495-3.855-3.919a2.229,2.229,0,0,1,.444-1.309c.318-.446.625-.9.979-1.32a.808.808,0,0,0,.083-1.1,11.482,11.482,0,0,1-1.336-3.236.8.8,0,0,0-.779-.691,15.157,15.157,0,0,1-1.852-.292,2.168,2.168,0,0,1-1.758-2.193q-.028-1.135,0-2.272a2.184,2.184,0,0,1,1.834-2.207,15.182,15.182,0,0,1,1.776-.278.732.732,0,0,0,.76-.614,12.243,12.243,0,0,1,1.431-3.449.624.624,0,0,0-.069-.831c-.377-.466-.73-.953-1.065-1.45a2.218,2.218,0,0,1,.192-2.935c.511-.558,1.048-1.094,1.6-1.609a2.225,2.225,0,0,1,3-.221c.517.352,1,.755,1.515,1.108.473.323.915.084.936-.484,0-.026,0-.052,0-.078,0-1.84,0-1.836-1.718-2.456a13.257,13.257,0,0,1-2.614-1.22.707.707,0,0,0-.964.071c-.5.414-1.034.8-1.571,1.165a2.344,2.344,0,0,1-3.139-.216c-.59-.554-1.162-1.129-1.716-1.718a2.343,2.343,0,0,1-.217-3.138c.384-.559.784-1.108,1.208-1.636a.616.616,0,0,0,.067-.827,14.819,14.819,0,0,1-1.674-4.023.606.606,0,0,0-.634-.527c-.648-.069-1.29-.187-1.933-.292a2.364,2.364,0,0,1-2.136-2.317c-.041-.859-.043-1.725,0-2.584a2.37,2.37,0,0,1,2.075-2.3c.8-.137,1.795,0,2.34-.438s.581-1.437.881-2.176a10.563,10.563,0,0,1,.865-1.832,1.081,1.081,0,0,0-.089-1.559,9.862,9.862,0,0,1-1.028-1.378,2.348,2.348,0,0,1,.235-3.017c.586-.631,1.195-1.244,1.83-1.825A2.271,2.271,0,0,1,47.2,547.4c.609.4,1.193.843,1.767,1.293a.629.629,0,0,0,.828.043,14.747,14.747,0,0,1,3.955-1.638.674.674,0,0,0,.6-.676c.063-.7.181-1.4.311-2.088a2.235,2.235,0,0,1,2.15-1.925,24.58,24.58,0,0,1,2.816,0,2.182,2.182,0,0,1,2.128,1.845,19.537,19.537,0,0,1,.364,2.236.618.618,0,0,0,.56.6,14.639,14.639,0,0,1,3.954,1.638.675.675,0,0,0,.9-.078c.552-.437,1.117-.859,1.7-1.249a2.245,2.245,0,0,1,2.884.171c.7.626,1.346,1.311,2,1.987a2.63,2.63,0,0,1,.619,1.747c1.2-.288,2.371-.588,3.554-.844.3-.064.379-.176.378-.456-.009-1.41-.013-2.82,0-4.23,0-.327-.129-.391-.417-.382A3.953,3.953,0,0,1,74.237,541c.045-.65,0-1.305.011-1.958a3.835,3.835,0,0,1,3.794-3.8q5.8-.044,11.594,0a3.806,3.806,0,0,1,3.761,3.744c.028.808.022,1.619.008,2.428a3.847,3.847,0,0,1-3.795,3.961c-.5.026-.658.132-.642.648.04,1.252.027,2.507.005,3.76-.007.416.054.624.543.717a27.564,27.564,0,0,1,7.862,2.735c.356.19.53.115.762-.183q1.274-1.637,2.6-3.236a3.682,3.682,0,0,1,5.295-.592q1.084.838,2.138,1.714a3.692,3.692,0,0,1,.562,5.357c-.788,1.007-1.57,2.021-2.408,2.985-.35.4-.325.629.01,1.016A28.957,28.957,0,0,1,112.7,572.6a29.438,29.438,0,0,1-1.3,18.186c-.342.863-.744,1.055-1.721.865a1.448,1.448,0,0,1-.629-1.423,26.906,26.906,0,0,0,1.416-16.849c-3.6-15.943-21.188-25.336-36.371-19.268C64.364,558,58.609,565.275,56.765,575.592a20.931,20.931,0,0,0-.24,5.611c1.427-.262,1.425-.262,1.606-1.557.04-.284.095-.566.137-.849a2.249,2.249,0,0,1,1.958-2.125c.365-.075.563-.165.564-.569a4.53,4.53,0,0,1,.131-.769A23.337,23.337,0,0,1,91.3,557.582c1.039.359,1.217.643,1.087,1.737a1.4,1.4,0,0,1-1.845.5,21.021,21.021,0,0,0-4.877-1.056c-.5-.062-.7.055-.66.6.047.728.026,1.461.008,2.192-.021.841-.491,1.38-1.175,1.388s-1.16-.53-1.178-1.368c-.016-.757-.028-1.515.005-2.271.019-.443-.1-.588-.563-.543a21.136,21.136,0,0,0-11.86,4.938c-.337.284-.3.439-.017.708.569.538,1.125,1.09,1.661,1.662a1.179,1.179,0,1,1-1.663,1.663c-.583-.561-1.157-1.132-1.713-1.72-.235-.248-.373-.257-.6.015a21.006,21.006,0,0,0-4.752,10.134c-.04.222-.117.471.227.563a2.4,2.4,0,0,1,1.777,2.548c.041,1.106.367,1.883,1.609,2a2.85,2.85,0,0,1,.876.32c.707.33,1.408.956,2.1.946.741-.01,1.3-.862,1.983-1.29a2.179,2.179,0,0,1,2.806.217c.6.543,1.173,1.117,1.718,1.714a2.183,2.183,0,0,1,.192,2.872,11.441,11.441,0,0,1-.976,1.319.836.836,0,0,0-.1,1.159,9.875,9.875,0,0,1,1.26,3.012,1.018,1.018,0,0,0,1.116.914,8.755,8.755,0,0,1,1.693.286,1.85,1.85,0,0,1,1.482,1.367,6.793,6.793,0,0,1-.243,4.433c-.735.945-1.868.894-2.992,1.144a16.766,16.766,0,0,0,3.35.742c1.758.213,1.758.212,1.566-1.59.019-.413.029-.827.058-1.239A1.168,1.168,0,0,1,85,597.532c.046.437.041.879.059,1.319a6.831,6.831,0,0,1-.049.93c-.14.76.225.84.863.767a21.163,21.163,0,0,0,11.148-4.611c.812-.658.813-.657.01-1.337-.429-.452-.864-.9-1.286-1.358a1.176,1.176,0,0,1-.084-1.738,1.189,1.189,0,0,1,1.741.067c.478.439.937.9,1.4,1.35.3.143.389.961.886.4a16.678,16.678,0,0,0,3.08-4.815,19.165,19.165,0,0,0,1.958-7.263c.035-.4-.145-.414-.44-.411q-1.174.015-2.35,0c-.859-.009-1.363-.444-1.368-1.16s.506-1.174,1.349-1.187c.783-.013,1.567-.019,2.35,0,.368.011.484-.066.451-.475a20.887,20.887,0,0,0-4.862-11.886c-.335-.4-.512-.362-.827-.011-.47.524-.984,1.01-1.49,1.5-.679.659-1.348.726-1.843.2a1.258,1.258,0,0,1,.173-1.861c.511-.523,1.011-1.059,1.557-1.543.365-.324.291-.511-.06-.76-.722-.513-1.415-1.069-2.142-1.574-.892-.621-1-.859-.742-1.883.831-.673,1.105-.688,2.014-.107a23.306,23.306,0,0,1-11.94,42.868,23.007,23.007,0,0,1-7.713-1.051c-.433-.139-.649-.095-.824.35-.237.6-.548,1.176-.827,1.762.334.924.758,1.864,1.767,2.131a26.251,26.251,0,0,0,11.7.444,27.019,27.019,0,0,0,18.227-12.2A1.385,1.385,0,0,1,108.667,593.7ZM86.48,545.43c-1.662-.011-3.323-.013-4.985-.039-.385-.006-.491.145-.477.5.029.726.027,1.453.038,2.179-.012.521-.014,1.042-.038,1.562-.016.35.121.452.467.409,1.117-.14,2.242-.058,3.362-.1.584-.02,1.389.391,1.684-.044s.068-1.2.07-1.828v-2.508C86.623,545.468,86.594,545.413,86.48,545.43Zm14.71,7.637c-.3.355-.593.723-.913,1.061-.338.356-.376.591.109.884a20.481,20.481,0,0,1,2.565,1.917c1.419,1.195,1.421,1.192,2.5-.38.5-.6,1.021-1.18,1.487-1.8a1.31,1.31,0,0,0-.223-1.943c-.714-.607-1.445-1.2-2.2-1.759a1.276,1.276,0,0,0-1.881.188C102.127,551.818,101.672,552.454,101.191,553.068ZM91.015,541.027c.009-.651.047-1.3.021-1.952a1.444,1.444,0,0,0-1.5-1.48q-5.71-.032-11.421,0a1.476,1.476,0,0,0-1.511,1.557c-.018.624.012,1.25.021,1.875-.066,1.4.476,2,1.841,2.006q5.36.01,10.72,0C90.562,543.031,91.1,542.429,91.015,541.027Zm-38.7,35.721a6.612,6.612,0,0,0,1.35.571c.386.158.519.09.57-.363.125-1.131.312-2.257.5-3.38.1-.583.5-1.268.308-1.7s-.959-.6-1.476-.885a.708.708,0,0,0-.148-.043c-.3-.243-.612-.478-.906-.731a8.821,8.821,0,0,1-3.153-6.394c-.064-1.063.309-1.45,1.381-1.539a1.338,1.338,0,0,1,.978,1.412,6.49,6.49,0,0,0,3.59,5.581c.457.249.623.152.805-.321a28.8,28.8,0,0,1,6.212-9.761c.4-.418.277-.594-.091-.884a6.524,6.524,0,0,0-9.053,1.032c-.493.6-.987,1-1.795.679-.752-.758-.789-1.207-.154-2.027a8.527,8.527,0,0,1,3.565-2.716,9,9,0,0,1,8.174.634,8.745,8.745,0,0,1,1.026.83c.355.382.586.3.948,0a25.849,25.849,0,0,1,5.125-3.4,5.306,5.306,0,0,0,1.751-1.479c.537-.652.468-1.057-.218-1.449a6.478,6.478,0,0,1-.514-.58c-.355-.508-.685-.441-1.122-.068-.575.49-1.228.886-1.814,1.364a1.482,1.482,0,0,1-1.99.081,12.767,12.767,0,0,0-3.816-1.761c-2.409-.67-2.153-.11-2.615-2.943-.295-1.808-.308-1.782-2.155-1.778-.525,0-.671.2-.72.665-.084.8-.237,1.6-.332,2.4a1.459,1.459,0,0,1-1.343,1.387,12.475,12.475,0,0,0-4.078,1.528c-1.938,1.137-1.648,1.287-3.67-.226-1.637-1.225-1.629-1.208-3.012.267-.291.311-.236.494-.015.78.558.723,1.085,1.469,1.635,2.2a1.243,1.243,0,0,1,.052,1.587,14.536,14.536,0,0,0-2.206,5.306,1.284,1.284,0,0,1-1.231,1.1c-.9.121-1.805.271-2.706.42-.165.027-.436-.029-.444.216a7.6,7.6,0,0,0,.047,2.177c.112.418.82.269,1.265.35a13.754,13.754,0,0,0,1.622.254,1.477,1.477,0,0,1,1.519,1.377,12.491,12.491,0,0,0,1.532,4.077c1.1,1.879,1.345,1.531-.249,3.661-1.22,1.63-1.2,1.627.3,3.013a.449.449,0,0,0,.713.025c.7-.545,1.434-1.046,2.133-1.591a1.383,1.383,0,0,1,1.792-.075A7.954,7.954,0,0,0,52.314,576.748ZM72.958,608.8l.192.136a11.2,11.2,0,0,1,.935-1.147c.331-.317.379-.539.073-.906-.467-.56-.862-1.18-1.313-1.755a1.366,1.366,0,0,1-.06-1.791,10.959,10.959,0,0,0,1.612-3.459c.637-2.531.434-2.134,2.914-2.558,1.49-.255,1.477-.233,1.46-1.733-.005-.449-.115-.649-.6-.688-.726-.059-1.445-.206-2.167-.312a1.387,1.387,0,0,1-1.315-1.221,11.368,11.368,0,0,0-1.338-3.656c-1.179-2.011-1.322-1.658.28-3.8.882-1.178.863-1.166-.147-2.2-.354-.363-.607-.456-1.027-.092-.531.46-1.135.835-1.69,1.267a1.378,1.378,0,0,1-1.793.062,8.748,8.748,0,0,0-3.613-1.624c-1.761-.232-2.322-1.194-2.412-2.82-.089-1.608-.177-1.586-1.811-1.536-.4.012-.545.148-.594.526-.1.775-.259,1.543-.353,2.319a1.313,1.313,0,0,1-1.2,1.229,11.512,11.512,0,0,0-3.652,1.347c-2.012,1.191-1.73,1.244-3.74-.251-1.342-1-1.335-.989-2.432.3a.443.443,0,0,0-.03.67c.447.577.844,1.2,1.311,1.756a1.456,1.456,0,0,1,.09,1.985,8.256,8.256,0,0,0-1.589,3.543c-.225,1.736-1.164,2.282-2.751,2.4-1.608.115-1.576.2-1.581,1.753,0,.487.171.624.605.669.674.069,1.34.21,2.014.281a1.515,1.515,0,0,1,1.491,1.419,9.8,9.8,0,0,0,1.3,3.5c1.274,2.058,1.155,1.8-.258,3.733-.92,1.261-.912,1.238.174,2.322a.567.567,0,0,0,.912.055c.569-.458,1.18-.863,1.754-1.315a1.362,1.362,0,0,1,1.79-.052,11.749,11.749,0,0,0,3.459,1.614c2.354.657,2.1.132,2.556,2.915.241,1.468.245,1.451,1.733,1.443.44,0,.653-.085.688-.583.051-.726.21-1.444.3-2.168a1.35,1.35,0,0,1,1.144-1.3,12.838,12.838,0,0,0,4.74-1.954,1.336,1.336,0,0,1,1.724.085c.576.448,1.171.874,1.761,1.306C72.658,608.606,72.81,608.7,72.958,608.8Z" fill="#040303"/>
        <path id="Trazado_640404" data-name="Trazado 640404" d="M191.851,713.876a1.385,1.385,0,0,0-1.778.689,27.019,27.019,0,0,1-18.227,12.2,26.251,26.251,0,0,1-11.7-.444c-1.009-.267-1.433-1.207-1.767-2.131a28.771,28.771,0,0,0,12.331,1.074,27.434,27.434,0,0,0,11.624-4.247,28.922,28.922,0,0,0,6.48-5.7,47.407,47.407,0,0,0,3.416-4.92,1.448,1.448,0,0,0,.629,1.423Z" transform="translate(-83.185 -120.173)" fill="#efcb6a"/>
        <path id="Trazado_640405" data-name="Trazado 640405" d="M155.6,644.326c-.467-.451-.926-.911-1.4-1.35a1.189,1.189,0,0,0-1.741-.067,1.176,1.176,0,0,0,.084,1.738c.422.459.857.906,1.286,1.358-.089.052-.181.1-.266.158a21.551,21.551,0,0,1-11.706,4.093c-.018-.44-.013-.882-.059-1.319a1.168,1.168,0,0,0-2.335.068c-.029.412-.04.826-.058,1.239-.654-.014-1.337.151-1.924-.3a6.793,6.793,0,0,0,.243-4.433,1.85,1.85,0,0,0-1.482-1.367,8.75,8.75,0,0,0-1.693-.286,1.018,1.018,0,0,1-1.116-.914,9.876,9.876,0,0,0-1.26-3.012.836.836,0,0,1,.1-1.159,11.44,11.44,0,0,0,.976-1.319,2.183,2.183,0,0,0-.192-2.872c-.545-.6-1.119-1.171-1.718-1.714a2.179,2.179,0,0,0-2.806-.217c-.679.428-1.242,1.28-1.983,1.29-.7.01-1.4-.616-2.1-.946a2.85,2.85,0,0,0-.876-.32c-1.242-.122-1.568-.9-1.609-2a2.4,2.4,0,0,0-1.777-2.548c-.344-.092-.266-.341-.227-.563a21.006,21.006,0,0,1,4.752-10.134c.231-.272.369-.263.6-.015.556.587,1.13,1.158,1.713,1.72a1.179,1.179,0,1,0,1.663-1.663c-.535-.571-1.092-1.124-1.661-1.661-.284-.269-.32-.425.017-.708a21.136,21.136,0,0,1,11.859-4.938c.462-.045.583.1.563.543-.033.756-.021,1.514-.005,2.271.017.838.493,1.376,1.178,1.368s1.154-.546,1.175-1.388c.018-.73.039-1.464-.008-2.192-.035-.541.156-.658.66-.6a21.021,21.021,0,0,1,4.877,1.056,1.394,1.394,0,0,0,1.845-.5c.74.2,1.338.732,2.1.879-.261,1.024-.15,1.263.742,1.883.728.506,1.42,1.061,2.142,1.575.351.249.425.436.06.76-.545.484-1.046,1.021-1.557,1.543a1.258,1.258,0,0,0-.173,1.861c.5.525,1.164.458,1.843-.2.506-.491,1.02-.976,1.49-1.5.315-.351.492-.393.827.011a20.887,20.887,0,0,1,4.862,11.886c.033.409-.083.485-.451.474-.783-.023-1.567-.017-2.35,0-.844.013-1.354.473-1.349,1.187s.509,1.151,1.368,1.16q1.175.013,2.35,0c.295,0,.475.009.44.411a19.166,19.166,0,0,1-1.958,7.263c-.369.057-.456.4-.624.643A15.858,15.858,0,0,1,155.6,644.326ZM141.817,622.97c0-1.2.019-2.4-.007-3.6-.019-.895-.625-1.451-1.378-1.3s-.982.678-.98,1.385c.008,2.3-.01,4.594.013,6.891a.837.837,0,0,1-.585.926,4.2,4.2,0,1,0,3.423-.028.733.733,0,0,1-.492-.825C141.831,625.268,141.818,624.119,141.817,622.97Z" transform="translate(-56.799 -51.404)" fill="#fbf3f3"/>
        <path id="Trazado_640406" data-name="Trazado 640406" d="M89.343,704.328c-.148-.1-.3-.19-.443-.3-.589-.432-1.185-.857-1.761-1.306a1.336,1.336,0,0,0-1.724-.085,12.838,12.838,0,0,1-4.74,1.954,1.35,1.35,0,0,0-1.144,1.3c-.094.724-.254,1.442-.3,2.168-.035.5-.248.581-.688.583-1.488.008-1.493.025-1.733-1.443-.456-2.783-.2-2.258-2.556-2.915a11.749,11.749,0,0,1-3.459-1.613,1.362,1.362,0,0,0-1.79.052c-.574.452-1.185.857-1.754,1.315a.567.567,0,0,1-.912-.055c-1.086-1.084-1.094-1.061-.174-2.322,1.412-1.934,1.531-1.676.257-3.734a9.8,9.8,0,0,1-1.3-3.5,1.515,1.515,0,0,0-1.491-1.419c-.674-.071-1.34-.212-2.014-.281-.435-.044-.607-.181-.605-.668,0-1.554-.028-1.638,1.581-1.753,1.587-.114,2.526-.66,2.751-2.4a8.256,8.256,0,0,1,1.589-3.543,1.456,1.456,0,0,0-.09-1.985c-.467-.561-.863-1.179-1.311-1.756a.443.443,0,0,1,.03-.669c1.1-1.285,1.09-1.294,2.432-.3,2.01,1.5,1.728,1.443,3.74.251a11.512,11.512,0,0,1,3.652-1.347,1.313,1.313,0,0,0,1.2-1.229c.095-.776.253-1.544.353-2.319.049-.377.19-.513.594-.526,1.634-.05,1.722-.072,1.811,1.536.089,1.626.651,2.588,2.412,2.82a8.748,8.748,0,0,1,3.613,1.624,1.378,1.378,0,0,0,1.793-.062c.556-.433,1.159-.808,1.69-1.267.42-.364.673-.271,1.027.092,1.01,1.036,1.029,1.024.147,2.2-1.6,2.139-1.458,1.786-.28,3.8a11.368,11.368,0,0,1,1.338,3.656,1.387,1.387,0,0,0,1.315,1.221c.723.105,1.441.253,2.167.312.482.039.592.238.6.688.017,1.5.03,1.478-1.46,1.733-2.48.424-2.276.027-2.914,2.558a10.96,10.96,0,0,1-1.612,3.459,1.366,1.366,0,0,0,.06,1.791c.451.575.845,1.195,1.313,1.755.306.367.258.589-.073.906a11.2,11.2,0,0,0-.935,1.147ZM73.1,695.944l-.006-.008a1.53,1.53,0,0,0,.289,1.021,5.343,5.343,0,0,0,9.891-1.315c.15-.243.305-.483.45-.729a6.561,6.561,0,1,0-10.781.844Z" transform="translate(-16.385 -95.532)" fill="#ea555a"/>
        <path id="Trazado_640407" data-name="Trazado 640407" d="M136.692,597.412c-.761-.147-1.358-.682-2.1-.879.131-1.093-.047-1.377-1.087-1.737a23.337,23.337,0,0,0-30.381,17.75,4.53,4.53,0,0,0-.131.769c0,.4-.2.494-.564.569a2.249,2.249,0,0,0-1.958,2.125c-.042.284-.1.566-.137.849-.18,1.295-.179,1.3-1.606,1.557a20.932,20.932,0,0,1,.24-5.611c1.843-10.318,7.6-17.592,17.326-21.479,15.183-6.067,32.776,3.326,36.371,19.268a26.906,26.906,0,0,1-1.416,16.849,47.416,47.416,0,0,1-3.416,4.92,28.923,28.923,0,0,1-6.48,5.7,27.435,27.435,0,0,1-11.624,4.247,28.771,28.771,0,0,1-12.331-1.074c.279-.586.59-1.159.827-1.762.175-.444.39-.489.824-.35a23.007,23.007,0,0,0,7.713,1.051,23.306,23.306,0,0,0,11.94-42.868C137.8,596.725,137.523,596.739,136.692,597.412Z" transform="translate(-42.206 -37.215)" fill="#f8df87"/>
        <path id="Trazado_640408" data-name="Trazado 640408" d="M55.847,583.041c-1.072.089-1.445.476-1.381,1.539a8.82,8.82,0,0,0,3.153,6.394c.294.253.6.488.906.731a32.745,32.745,0,0,0-1.105,5.8,7.951,7.951,0,0,1-2.129-1.123,1.383,1.383,0,0,0-1.792.075c-.7.545-1.433,1.046-2.133,1.591a.449.449,0,0,1-.713-.025c-1.5-1.387-1.522-1.383-.3-3.013,1.594-2.129,1.345-1.782.249-3.661a12.49,12.49,0,0,1-1.532-4.077,1.477,1.477,0,0,0-1.519-1.377,13.755,13.755,0,0,1-1.622-.254c-.445-.082-1.152.068-1.265-.35a7.6,7.6,0,0,1-.047-2.177c.008-.244.279-.189.444-.216.9-.149,1.8-.3,2.706-.42A1.284,1.284,0,0,0,49,581.38a14.534,14.534,0,0,1,2.206-5.306,1.243,1.243,0,0,0-.052-1.587c-.55-.729-1.077-1.476-1.635-2.2-.22-.286-.276-.469.015-.78,1.383-1.475,1.375-1.491,3.012-.267,2.021,1.513,1.732,1.363,3.67.226a12.476,12.476,0,0,1,4.078-1.528,1.459,1.459,0,0,0,1.343-1.387c.1-.8.248-1.6.332-2.4.049-.469.2-.664.72-.665,1.847,0,1.86-.03,2.155,1.778.462,2.833.206,2.272,2.615,2.943a12.766,12.766,0,0,1,3.816,1.761,1.482,1.482,0,0,0,1.99-.081c.586-.478,1.239-.874,1.813-1.363.437-.372.767-.439,1.122.068a6.479,6.479,0,0,0,.514.58,3.021,3.021,0,0,1-.323.2,32.188,32.188,0,0,0-8.308,5.3,9,9,0,0,0-8.174-.634,8.528,8.528,0,0,0-3.565,2.716c-.635.82-.6,1.269.154,2.027A6.181,6.181,0,0,0,55.847,583.041Z" transform="translate(-5.105 -20.763)" fill="#96c7f7"/>
        <path id="Trazado_640409" data-name="Trazado 640409" d="M162.878,546.185c-.008-.625-.038-1.251-.021-1.875a1.476,1.476,0,0,1,1.511-1.557q5.71-.033,11.421,0a1.444,1.444,0,0,1,1.5,1.48c.026.649-.012,1.3-.021,1.952a3.9,3.9,0,0,1-1.948.473q-5.247-.011-10.494,0A3.8,3.8,0,0,1,162.878,546.185Z" transform="translate(-86.251 -5.158)" fill="#fae188"/>
        <path id="Trazado_640410" data-name="Trazado 640410" d="M162.923,553.718a3.8,3.8,0,0,0,1.946.472q5.247-.01,10.494,0a3.906,3.906,0,0,0,1.948-.473c.084,1.4-.453,2-1.827,2.007q-5.36.01-10.72,0C163.4,555.722,162.857,555.12,162.923,553.718Z" transform="translate(-86.297 -12.691)" fill="#efcb6a"/>
        <path id="Trazado_640411" data-name="Trazado 640411" d="M241.158,586.927c.481-.613.937-1.25,1.451-1.834a1.276,1.276,0,0,1,1.881-.188c.75.562,1.481,1.152,2.2,1.76a1.309,1.309,0,0,1,.223,1.943c-.466.623-.989,1.2-1.487,1.8-.8-.663-1.6-1.315-2.386-1.993A10.264,10.264,0,0,1,241.158,586.927Z" transform="translate(-139.967 -33.86)" fill="#ea555a"/>
        <path id="Trazado_640412" data-name="Trazado 640412" d="M189.615,728.572a21.552,21.552,0,0,0,11.706-4.093c.085-.058.177-.105.266-.158.8.68.8.68-.01,1.337a21.162,21.162,0,0,1-11.148,4.61c-.638.073-1-.007-.863-.767A6.829,6.829,0,0,0,189.615,728.572Z" transform="translate(-104.556 -129.72)" fill="#e9dfdb"/>
        <path id="Trazado_640413" data-name="Trazado 640413" d="M119.458,589.091a32.19,32.19,0,0,1,8.308-5.3,3.011,3.011,0,0,0,.323-.2c.686.392.756.8.218,1.449a5.306,5.306,0,0,1-1.751,1.479,25.843,25.843,0,0,0-5.125,3.4c-.362.3-.593.386-.948,0A8.745,8.745,0,0,0,119.458,589.091Z" transform="translate(-56.484 -33.183)" fill="#73b4f5"/>
        <path id="Trazado_640414" data-name="Trazado 640414" d="M182.5,567.793V570.3l-5.545,0c-.011-.726-.009-1.453-.038-2.179-.014-.359.092-.51.477-.5,1.661.026,3.323.028,4.985.039Z" transform="translate(-95.899 -22.224)" fill="#f4bb68"/>
        <path id="Trazado_640415" data-name="Trazado 640415" d="M85.513,654.789a32.747,32.747,0,0,1,1.105-5.8.712.712,0,0,1,.148.043c.517.283,1.286.456,1.476.885s-.211,1.121-.308,1.7c-.188,1.123-.375,2.248-.5,3.38-.05.453-.184.521-.57.363A6.618,6.618,0,0,1,85.513,654.789Z" transform="translate(-33.199 -78.041)" fill="#73b4f5"/>
        <path id="Trazado_640416" data-name="Trazado 640416" d="M176.954,576.16l5.545,0c0,.624.221,1.4-.07,1.829s-1.1.024-1.684.044c-1.12.038-2.245-.043-3.362.1-.346.043-.483-.059-.467-.409C176.94,577.2,176.943,576.681,176.954,576.16Z" transform="translate(-95.898 -28.086)" fill="#eba954"/>
        <path id="Trazado_640417" data-name="Trazado 640417" d="M238.607,592.061a10.261,10.261,0,0,0,1.877,1.489c.783.679,1.59,1.33,2.386,1.993-1.081,1.572-1.084,1.575-2.5.38a20.481,20.481,0,0,0-2.565-1.917c-.485-.293-.447-.528-.109-.884C238.014,592.784,238.3,592.416,238.607,592.061Z" transform="translate(-137.416 -38.993)" fill="#e44142"/>
        <path id="Trazado_640418" data-name="Trazado 640418" d="M169.316,736.873c.588.448,1.27.282,1.924.3.192,1.8.192,1.8-1.566,1.59a16.77,16.77,0,0,1-3.35-.742C167.447,737.767,168.581,737.818,169.316,736.873Z" transform="translate(-88.633 -138.331)" fill="#e9dfdb"/>
        <path id="Trazado_640419" data-name="Trazado 640419" d="M233.563,709.33a15.857,15.857,0,0,0,3.343-3.772c.167-.246.255-.586.624-.643a16.677,16.677,0,0,1-3.08,4.815C233.952,710.29,233.861,709.472,233.563,709.33Z" transform="translate(-134.757 -116.408)" fill="#e9dfdb"/>
        <path id="Trazado_640420" data-name="Trazado 640420" d="M194.435,567.872l-.122-.139C194.427,567.716,194.456,567.772,194.435,567.872Z" transform="translate(-107.833 -22.303)" fill="#eba954"/>
        <path id="Trazado_640421" data-name="Trazado 640421" d="M177.861,640.2c0,1.149.013,2.3-.006,3.445a.733.733,0,0,0,.492.825,4.125,4.125,0,0,1,2.381,4.9,4.2,4.2,0,1,1-5.8-4.869.837.837,0,0,0,.585-.926c-.024-2.3-.006-4.594-.013-6.891,0-.706.228-1.235.98-1.385s1.358.407,1.378,1.3C177.88,637.8,177.86,639,177.861,640.2Zm-2.952,7.842a1.563,1.563,0,0,0,.773,1.785,1.683,1.683,0,0,0,1.916.04,1.63,1.63,0,0,0,.851-1.838,1.753,1.753,0,0,0-1.825-1.552A1.719,1.719,0,0,0,174.909,648.045Z" transform="translate(-92.842 -68.637)" fill="#050404"/>
        <path id="Trazado_640422" data-name="Trazado 640422" d="M95.844,718.746a6.622,6.622,0,0,1-.892-6.8,6.565,6.565,0,1,1,11.674,5.955c-.144.247-.3.486-.45.729a6.7,6.7,0,0,1-5.568,2.495,6.943,6.943,0,0,1-4.611-2.2l.006.008ZM99,710.927c-.105.177.043.293.112.419a28.313,28.313,0,0,0,4.281,5.84c.474.5.706.334.944-.163a3.884,3.884,0,0,0,.723-3.453A4.119,4.119,0,0,0,99,710.927Zm2.629,7.812a32.519,32.519,0,0,1-4.459-5.978C95.877,715.958,98.067,718.95,101.632,718.739Z" transform="translate(-39.284 -118.522)" fill="#030202"/>
        <path id="Trazado_640423" data-name="Trazado 640423" d="M99.5,742.158a6.943,6.943,0,0,0,4.611,2.2,6.7,6.7,0,0,0,5.568-2.495,5.343,5.343,0,0,1-9.891,1.315A1.53,1.53,0,0,1,99.5,742.158Z" transform="translate(-42.783 -141.754)" fill="#e44142"/>
        <path id="Trazado_640424" data-name="Trazado 640424" d="M99.035,742.229l.157.188Z" transform="translate(-42.475 -142.005)" fill="#e44142"/>
        <path id="Trazado_640425" data-name="Trazado 640425" d="M183.671,675.9a1.63,1.63,0,0,1-.851,1.838,1.683,1.683,0,0,1-1.916-.04,1.563,1.563,0,0,1-.773-1.785A3.873,3.873,0,0,0,183.671,675.9Z" transform="translate(-98.063 -96.503)" fill="#e44142"/>
        <path id="Trazado_640426" data-name="Trazado 640426" d="M183.8,672.507a3.873,3.873,0,0,1-3.541.013,1.719,1.719,0,0,1,1.715-1.565A1.753,1.753,0,0,1,183.8,672.507Z" transform="translate(-98.193 -93.113)" fill="#ea555a"/>
        <path id="Trazado_640427" data-name="Trazado 640427" d="M109.1,716.058a4.119,4.119,0,0,1,6.06,2.643,3.885,3.885,0,0,1-.723,3.453,1.937,1.937,0,0,0-.631-.777,33.355,33.355,0,0,1-3.769-4.229C109.753,716.766,109.631,716.227,109.1,716.058Z" transform="translate(-49.376 -123.653)" fill="#f8df87"/>
        <path id="Trazado_640428" data-name="Trazado 640428" d="M109.016,717.329c.535.169.657.708.937,1.09a33.35,33.35,0,0,0,3.769,4.229,1.936,1.936,0,0,1,.631.777c-.238.5-.47.668-.944.163a28.308,28.308,0,0,1-4.281-5.84C109.059,717.622,108.911,717.506,109.016,717.329Z" transform="translate(-49.296 -124.924)" fill="#efcb6a"/>
      </g>
    </g>
  </g>
</svg>
