<svg xmlns="http://www.w3.org/2000/svg" width="92" height="92" viewBox="0 0 92 92">
  <g id="Grupo_978942" data-name="Grupo 978942" transform="translate(-743.379 -963.556)">
    <g id="Grupo_963195" data-name="Grupo 963195" transform="translate(308.379 -3377.444)">
      <circle id="Elipse_7706" data-name="Elipse 7706" cx="46" cy="46" r="46" transform="translate(435 4341)" fill="#449c6e"/>
      <g id="Grupo_980590" data-name="Grupo 980590" transform="translate(76.673 3722.018)">
        <path id="Trazado_640377" data-name="Trazado 640377" d="M459.067,666.2c-4.73,0-9.461-.011-14.191.014-.562,0-.705-.132-.694-.694.039-1.9.007-3.8.017-5.706a6.213,6.213,0,0,1,4.127-5.943q2.589-.977,5.181-1.944a.876.876,0,0,0,.338-1.532,7.377,7.377,0,0,1-1.649-2.478.784.784,0,0,0-.574-.51,4.808,4.808,0,0,1-3.686-4.935,43.8,43.8,0,0,1,.171-6.82,11.149,11.149,0,0,1,21.938.022,32.747,32.747,0,0,1,.1,7.715,4.5,4.5,0,0,1-3.412,3.966,1.128,1.128,0,0,0-.846.716A6.582,6.582,0,0,1,464.4,650.3c-.654.679-.517,1.332.342,1.656,1.68.634,3.366,1.25,5.041,1.9a6.19,6.19,0,0,1,4.177,6.058c.007,1.852-.035,3.705.02,5.556.02.671-.213.748-.8.745C468.477,666.193,463.772,666.2,459.067,666.2Zm.012-2.458c3.9,0,7.808-.011,11.711.013.557,0,.744-.138.721-.709-.044-1.074.011-2.152-.02-3.228a3.7,3.7,0,0,0-2.268-3.5c-.453-.209-.946-.331-1.393-.55-.462-.227-.642-.087-.791.373-.677,2.091-1.4,4.167-2.068,6.26-.155.485-.3.57-.761.33-1.529-.8-3.087-1.536-4.616-2.331a.991.991,0,0,0-1.032.012c-1.486.768-3,1.475-4.478,2.266-.595.32-.771.176-.955-.419-.514-1.67-1.091-3.321-1.646-4.979-.583-1.743-.585-1.743-2.274-1.081a3.618,3.618,0,0,0-2.508,3.325c-.072,1.172,0,2.352-.055,3.526-.024.57.163.712.72.709C451.271,663.734,455.175,663.746,459.079,663.746Zm.028-34.728a8.7,8.7,0,0,0-8.731,8.644c0,.515.084.693.613.424a4.006,4.006,0,0,1,1.887-.421,7.212,7.212,0,0,0,5.659-2.457c.436-.476.685-.436,1.1.015a7.193,7.193,0,0,0,5.591,2.44,3.754,3.754,0,0,1,1.82.375c.719.381.747.05.732-.548A8.7,8.7,0,0,0,459.106,629.018Zm4.932,14.212c0-1-.008-1.824,0-2.65,0-.334-.028-.52-.457-.577a8.946,8.946,0,0,1-4.135-1.647.551.551,0,0,0-.779.027A9.1,9.1,0,0,1,454.6,640c-.378.056-.5.162-.493.545.021,1.577-.015,3.155.018,4.732a4.95,4.95,0,0,0,9.782.924A17.825,17.825,0,0,0,464.038,643.23Zm-9.013,16.18c.611-.3,1.206-.622,1.82-.9.375-.167.47-.32.226-.705q-1-1.581-1.928-3.211c-.226-.4-.448-.553-.876-.3a2.845,2.845,0,0,1-.629.235c-.279.083-.405.19-.287.527.471,1.341.909,2.693,1.356,4.043C454.763,659.266,454.781,659.457,455.026,659.411Zm9.83-4.533c.068-.213-.1-.231-.231-.3-1.145-.613-1.227-.594-1.889.507-.27.449-.548.894-.805,1.351-.34.6-1.129,1.308-.926,1.773.225.516,1.185.7,1.812,1.054.357.2.542.213.678-.263.274-.958.628-1.893.945-2.838C464.582,655.734,464.717,655.305,464.855,654.878Zm-5.775,1.478,2.535-4.231a8.251,8.251,0,0,1-5.065.021Zm-7.513-11.691V640.6A2.351,2.351,0,0,0,451.567,644.665Zm15,.059a2.345,2.345,0,0,0,1.182-2.25,2.176,2.176,0,0,0-1.182-1.881Z" transform="translate(-54.751)" fill="#020202"/>
        <path id="Trazado_640378" data-name="Trazado 640378" d="M538.982,775.061c-.083.147-.154.277-.23.4-.472.795-.924,1.6-1.424,2.378-.286.445-.151.6.307.7.877.2,1.744.436,2.618.644.343.082.536.194.532.628q-.038,4.206,0,8.412c0,.432-.183.541-.535.623-.9.21-1.788.464-2.689.667-.416.094-.489.246-.263.61.5.807.96,1.638,1.464,2.443a.5.5,0,0,1-.08.757q-3.022,2.979-6,6a.466.466,0,0,1-.7.067c-.742-.462-1.525-.861-2.244-1.355-.6-.412-.776-.24-.9.4-.161.832-.434,1.641-.619,2.469-.077.345-.188.493-.574.491-2.829-.017-5.658-.022-8.487,0-.421,0-.5-.205-.571-.5-.223-.9-.456-1.791-.667-2.69-.1-.426-.259-.533-.661-.276-.8.511-1.63.972-2.436,1.474a.469.469,0,0,1-.7-.09q-2.983-3.018-6-6c-.283-.279-.251-.468-.066-.764.477-.762.905-1.555,1.39-2.312.27-.422.288-.626-.283-.745-.9-.188-1.785-.476-2.686-.676-.339-.075-.44-.2-.439-.542.012-2.829.017-5.659,0-8.488,0-.394.163-.514.487-.592.874-.21,1.741-.451,2.617-.649.475-.107.646-.248.328-.73-.495-.75-.913-1.55-1.4-2.308a.544.544,0,0,1,.09-.819q2.969-2.926,5.893-5.9a.576.576,0,0,1,.881-.09c.732.476,1.521.866,2.244,1.356.528.358.656.153.766-.35.186-.853.43-1.694.628-2.546a.556.556,0,0,1,.649-.514q4.168.033,8.337,0c.449,0,.6.153.688.557.184.828.468,1.637.613,2.471.125.72.39.637.873.323.733-.476,1.505-.889,2.248-1.35a.471.471,0,0,1,.7.064c2.007,2.03,4.03,4.043,6.047,6.062C538.811,774.862,538.888,774.957,538.982,775.061Zm-.7,9.049c0-.776-.02-1.552.008-2.327a.556.556,0,0,0-.511-.672c-.66-.136-1.307-.33-1.966-.471-.381-.082-.524-.329-.721-.644a2.911,2.911,0,0,1,.346-3.826c.1-.11.14-.268.233-.383.2-.248.138-.429-.076-.641q-1.657-1.634-3.289-3.293a.474.474,0,0,0-.7-.092c-.61.39-1.255.725-1.867,1.112a.941.941,0,0,1-.822.063,3.017,3.017,0,0,1-2.568-3.047c-.005-.1-.055-.193-.066-.291-.045-.406-.274-.508-.664-.494-.85.03-1.7,0-2.552.013-.8.016-1.815-.325-2.323.127s-.52,1.46-.69,2.239c-.1.469-.382.644-.769.881a2.78,2.78,0,0,1-3.632-.327c-.111-.1-.265-.144-.381-.237-.316-.252-.545-.185-.823.1q-1.539,1.592-3.132,3.132c-.308.3-.369.516-.124.883.388.581.713,1.2,1.082,1.8a.694.694,0,0,1,.088.69c-.79,2.057-.784,2.059-2.907,2.616a1.21,1.21,0,0,1-.215.063c-.581.035-.778.311-.755.911a37.65,37.65,0,0,1-.008,3.9c-.049.757.247,1,.909,1.1.54.086,1.058.3,1.6.4.4.074.518.337.717.648a2.894,2.894,0,0,1-.345,3.827c-.1.11-.137.269-.229.385-.2.256-.11.434.1.639q1.654,1.636,3.286,3.3a.472.472,0,0,0,.7.084c.61-.391,1.25-.734,1.862-1.121a.94.94,0,0,1,.822-.06,3.057,3.057,0,0,1,2.564,3.051c.005.074.034.147.041.221.042.445.3.554.718.537.775-.031,1.552,0,2.327-.01.848-.008,1.882.263,2.493-.126s.5-1.542.756-2.343a.43.43,0,0,0,.013-.074c.043-.3.234-.423.494-.58a3.006,3.006,0,0,1,3.96.289c.09.083.222.12.317.2.3.25.511.147.756-.112.566-.6,1.166-1.17,1.746-1.758s1.5-1.114,1.629-1.791c.14-.726-.739-1.445-1.125-2.194a1.538,1.538,0,0,0-.117-.191.517.517,0,0,1-.036-.548c.8-2.115.79-2.117,2.954-2.665a3.269,3.269,0,0,1,.367-.076c.425-.057.566-.285.543-.716C538.259,785.513,538.286,784.811,538.286,784.11Z" transform="translate(-97.982 -97.953)" fill="#030302"/>
        <path id="Trazado_640379" data-name="Trazado 640379" d="M390.672,791c0,5.131-.008,10.261.012,15.391,0,.53-.081.711-.675.709q-11.749-.037-23.5,0c-.517,0-.659-.112-.658-.647q.027-15.466,0-30.932c0-.616.188-.722.751-.721q11.674.027,23.348,0c.593,0,.74.153.737.74C390.662,780.686,390.672,785.842,390.672,791Zm-22.318-.074c0,4.3.015,8.609-.016,12.913,0,.643.188.772.8.77q9.159-.034,18.318,0c.64,0,.772-.2.771-.8q-.03-12.876,0-25.752c0-.567-.111-.758-.726-.755q-9.234.038-18.468,0c-.585,0-.688.169-.686.711C368.364,782.314,368.354,786.618,368.354,790.923Z" transform="translate(0 -103.643)" fill="#040505"/>
        <path id="Trazado_640380" data-name="Trazado 640380" d="M412.361,669.744c-.9-.9-1.656-1.689-2.454-2.429-.345-.32-.322-.508.013-.8.47-.408.9-1.2,1.349-1.2s.915.749,1.357,1.187c1.35,1.34,2.68,2.7,4.043,4.025.349.34.446.53.036.926q-2.534,2.455-4.991,4.989c-.367.378-.572.323-.865-.031-.4-.478-1.2-.841-1.176-1.365.022-.447.754-.865,1.184-1.284.463-.453.939-.891,1.415-1.341-.238-.267-.476-.158-.679-.16-1.451-.011-2.9-.007-4.354-.006s-1.781.325-1.781,1.817c0,6.957-.011,13.915.016,20.872,0,.695-.117.944-.876.913-1.647-.067-1.648-.02-1.648-1.706q0-10.023,0-20.046c0-2.913,1.458-4.359,4.394-4.36Z" transform="translate(-25.931 -27.122)" fill="#060606"/>
        <path id="Trazado_640381" data-name="Trazado 640381" d="M546.417,699.4c0-5.352.007-10.455-.007-15.559,0-.878-.475-1.3-1.385-1.3-1.8-.01-3.6-.017-5.4.007-.464.006-.639-.082-.638-.6,0-1.919-.02-1.919,1.873-1.919,1.351,0,2.7-.011,4.053,0a3.769,3.769,0,0,1,4.013,4.054c0,5.027,0,10.054,0,15.287.836-.835,1.6-1.524,2.271-2.3.457-.526.709-.435,1.143.021,1.16,1.219,1.182,1.2-.022,2.4-1.4,1.4-2.8,2.787-4.187,4.2-.312.319-.494.43-.871.042q-2.485-2.557-5.04-5.044c-.328-.322-.359-.5,0-.809.477-.4.894-1.182,1.358-1.2.435-.014.9.746,1.344,1.18C545.379,698.313,545.818,698.78,546.417,699.4Z" transform="translate(-121.013 -37.399)" fill="#060707"/>
        <path id="Trazado_640382" data-name="Trazado 640382" d="M455.776,809.835h5.442c.7,0,1.4-.006,2.1,0,.6.006,1.384-.2,1.74.1.421.355.066,1.174.149,1.784.078.576-.207.635-.689.631-2.578-.021-5.156-.01-7.734-.01h-.959c.833.834,1.519,1.568,2.258,2.243.448.409.626.711.03,1.136-.46.328-.764,1.1-1.263,1.062-.422-.034-.795-.7-1.184-1.084-1.418-1.414-2.825-2.838-4.257-4.237-.3-.291-.306-.451,0-.747,1.714-1.684,3.418-3.378,5.1-5.1.35-.359.539-.3.813.033.391.481,1.2.831,1.177,1.365-.022.45-.74.873-1.161,1.3C456.872,808.776,456.4,809.225,455.776,809.835Z" transform="translate(-59.645 -125.019)" fill="#040505"/>
        <path id="Trazado_640383" data-name="Trazado 640383" d="M464.8,731.429c-3.9,0-7.808-.011-11.711.013-.558,0-.744-.138-.72-.709.05-1.174-.017-2.354.055-3.526a3.618,3.618,0,0,1,2.508-3.325c1.69-.662,1.691-.662,2.274,1.081.555,1.658,1.131,3.309,1.646,4.979.183.595.36.738.955.419,1.473-.791,2.992-1.5,4.478-2.266a.991.991,0,0,1,1.032-.012c1.53.794,3.088,1.534,4.616,2.331.46.24.606.155.761-.33.668-2.093,1.391-4.169,2.068-6.26.149-.461.329-.6.791-.373.446.219.94.341,1.393.55a3.7,3.7,0,0,1,2.268,3.5c.03,1.075-.024,2.153.02,3.228.023.571-.163.712-.721.709C472.608,731.418,468.7,731.429,464.8,731.429Z" transform="translate(-60.472 -67.684)" fill="#6dc7ab"/>
        <path id="Trazado_640384" data-name="Trazado 640384" d="M473.49,634.841a8.7,8.7,0,0,1,8.674,8.472c.015.6-.014.929-.732.548a3.753,3.753,0,0,0-1.82-.375,7.193,7.193,0,0,1-5.591-2.44c-.417-.451-.666-.491-1.1-.015a7.212,7.212,0,0,1-5.659,2.457,4,4,0,0,0-1.887.421c-.53.269-.614.091-.614-.424A8.7,8.7,0,0,1,473.49,634.841Z" transform="translate(-69.134 -5.823)" fill="#a8794d"/>
        <path id="Trazado_640385" data-name="Trazado 640385" d="M487.093,670.388a17.831,17.831,0,0,1-.128,2.972,4.95,4.95,0,0,1-9.782-.924c-.033-1.577,0-3.155-.018-4.732-.005-.383.115-.489.493-.545a9.1,9.1,0,0,0,4.068-1.62.551.551,0,0,1,.779-.027,8.945,8.945,0,0,0,4.135,1.647c.428.057.461.244.457.577C487.086,668.563,487.093,669.39,487.093,670.388Z" transform="translate(-77.806 -27.157)" fill="#e9cfb5"/>
        <path id="Trazado_640386" data-name="Trazado 640386" d="M476.216,723.643c-.245.047-.263-.144-.318-.311-.447-1.35-.886-2.7-1.356-4.043-.118-.337.008-.444.287-.527a2.845,2.845,0,0,0,.629-.235c.428-.25.65-.094.876.3q.927,1.627,1.928,3.211c.244.385.15.538-.226.705C477.422,723.021,476.827,723.339,476.216,723.643Z" transform="translate(-75.941 -64.233)" fill="#dfe2e5"/>
        <path id="Trazado_640387" data-name="Trazado 640387" d="M503.841,719.106c-.138.427-.273.856-.416,1.281-.317.946-.671,1.881-.945,2.838-.136.475-.321.462-.678.263-.628-.351-1.587-.538-1.812-1.054-.2-.465.586-1.169.926-1.773.257-.457.535-.9.805-1.351.662-1.1.744-1.12,1.889-.507C503.742,718.874,503.909,718.892,503.841,719.106Z" transform="translate(-93.736 -64.227)" fill="#dfe2e5"/>
        <path id="Trazado_640388" data-name="Trazado 640388" d="M487.8,715.831l-2.529-4.211a8.251,8.251,0,0,0,5.065-.021Z" transform="translate(-83.472 -59.475)" fill="#e2c9b0"/>
        <path id="Trazado_640389" data-name="Trazado 640389" d="M466,677.37a2.351,2.351,0,0,1,0-4.069Z" transform="translate(-69.178 -32.705)" fill="#e2c9b0"/>
        <path id="Trazado_640390" data-name="Trazado 640390" d="M518.555,677.421V673.29a2.176,2.176,0,0,1,1.182,1.881A2.345,2.345,0,0,1,518.555,677.421Z" transform="translate(-106.736 -32.698)" fill="#e2c9b0"/>
        <path id="Trazado_640391" data-name="Trazado 640391" d="M543.951,789.588c0,.7-.027,1.4.01,2.1.023.431-.117.66-.543.716a3.266,3.266,0,0,0-.367.076c-2.164.547-2.158.55-2.954,2.665a.517.517,0,0,0,.036.548,1.538,1.538,0,0,1,.117.191c.386.749,1.265,1.468,1.125,2.194-.131.677-1.05,1.2-1.629,1.791s-1.179,1.157-1.746,1.758c-.244.259-.456.362-.756.112-.1-.079-.226-.116-.317-.2a3.006,3.006,0,0,0-3.96-.289c-.26.157-.451.281-.494.58a.43.43,0,0,1-.013.074c-.259.8-.135,1.947-.756,2.343s-1.644.118-2.493.126c-.775.008-1.552-.021-2.327.01-.42.017-.675-.092-.718-.537-.007-.074-.036-.147-.041-.221a3.057,3.057,0,0,0-2.564-3.051.94.94,0,0,0-.822.06c-.612.388-1.252.731-1.862,1.121a.472.472,0,0,1-.7-.084q-1.627-1.664-3.286-3.3c-.206-.2-.3-.383-.1-.639.092-.116.132-.275.229-.385a2.894,2.894,0,0,0,.345-3.827c-.2-.31-.313-.573-.717-.648-.539-.1-1.057-.315-1.6-.4-.662-.1-.958-.344-.909-1.1a37.667,37.667,0,0,0,.008-3.9c-.023-.6.174-.876.755-.911a1.21,1.21,0,0,0,.215-.063c2.124-.557,2.117-.559,2.907-2.616a.694.694,0,0,0-.088-.69c-.368-.595-.693-1.217-1.082-1.8-.245-.367-.184-.586.124-.883q1.6-1.535,3.132-3.132c.278-.287.507-.355.823-.1.116.093.27.139.381.237a2.78,2.78,0,0,0,3.632.327c.387-.237.667-.412.769-.881.17-.779.189-1.794.69-2.239s1.528-.111,2.323-.127c.85-.017,1.7.017,2.552-.013.39-.013.619.088.664.494.011.1.061.193.066.291a3.018,3.018,0,0,0,2.568,3.047.941.941,0,0,0,.822-.063c.612-.387,1.257-.722,1.867-1.112a.474.474,0,0,1,.7.092q1.63,1.661,3.289,3.293c.215.212.277.393.076.641-.093.115-.136.273-.233.383a2.911,2.911,0,0,0-.346,3.826c.2.315.341.562.721.644.659.141,1.306.335,1.966.471a.556.556,0,0,1,.511.672C543.931,788.036,543.951,788.812,543.951,789.588Zm-4.971-.125a9.924,9.924,0,1,0-9.883,9.952A9.936,9.936,0,0,0,538.981,789.464Z" transform="translate(-103.648 -103.431)" fill="#f2d47d"/>
        <path id="Trazado_640392" data-name="Trazado 640392" d="M374.13,796.746c0-4.3.01-8.609-.013-12.913,0-.541.1-.713.686-.711q9.234.037,18.468,0c.615,0,.728.188.726.755q-.026,12.876,0,25.752c0,.605-.131.8-.771.8q-9.159-.037-18.318,0c-.607,0-.8-.127-.8-.77C374.145,805.355,374.13,801.05,374.13,796.746Zm9.88-8.646h5.7c1.8,0,1.769,0,1.8-1.835.009-.586-.177-.69-.717-.687-4.1.023-8.2.012-12.294.012-1.94,0-1.92,0-1.906,1.955,0,.489.165.567.6.564C379.462,788.089,381.736,788.1,384.01,788.1Zm.031,7.418h-5.634c-1.817,0-1.791,0-1.821,1.824-.009.569.144.7.7.694,4.106-.026,8.213-.014,12.319-.014,1.912,0,1.893,0,1.894-1.888,0-.493-.129-.634-.625-.628C388.6,795.533,386.319,795.518,384.041,795.518Zm-.078,7.465h5.708c1.828,0,1.794,0,1.835-1.8.015-.646-.229-.714-.772-.712-4.081.019-8.162,0-12.242.018-.616,0-1.437-.284-1.793.135-.3.354-.058,1.15-.107,1.745-.04.485.11.631.61.625C379.456,802.967,381.71,802.983,383.963,802.983Zm2.6-12.429h-3.154c-1.864,0-1.842,0-1.859,1.861-.005.527.133.666.661.66,2.478-.029,4.956-.013,7.434-.013,1.89,0,1.875,0,1.856-1.925,0-.452-.109-.6-.583-.593C389.466,790.574,388.014,790.554,386.562,790.554Zm-5.07,17.39c1.051,0,2.1.019,3.153-.007.615-.015,1.433.284,1.787-.132.3-.352.054-1.146.1-1.74.042-.5-.126-.633-.62-.628-2.477.024-4.955.011-7.432.011-1.94,0-1.925,0-1.894,1.971.007.431.131.541.548.534C378.589,807.93,380.04,807.944,381.492,807.944Zm-3.64-14.883c1.245,0,1.245,0,1.245-1.259v-.075c0-1.173,0-1.173-1.191-1.173-1.3,0-1.3,0-1.3,1.269C376.6,793.061,376.6,793.061,377.852,793.061Zm12.407,14.883c1.229,0,1.229,0,1.229-1.241s0-1.254-1.234-1.254-1.234,0-1.234,1.259C389.021,807.944,389.021,807.944,390.259,807.944Z" transform="translate(-5.777 -109.466)" fill="#e4e7ea"/>
        <path id="Trazado_640393" data-name="Trazado 640393" d="M550.577,801.241a9.924,9.924,0,1,1-9.946-9.9A9.907,9.907,0,0,1,550.577,801.241Zm-9.87-7.4a7.439,7.439,0,1,0,7.4,7.473A7.415,7.415,0,0,0,540.707,793.844Z" transform="translate(-115.244 -115.209)" fill="#040302"/>
        <path id="Trazado_640394" data-name="Trazado 640394" d="M389.746,793.8c-2.274,0-4.548-.011-6.821.009-.436,0-.6-.075-.6-.564-.014-1.955-.034-1.955,1.906-1.955,4.1,0,8.2.01,12.294-.012.539,0,.726.1.717.687-.028,1.834,0,1.835-1.8,1.835Z" transform="translate(-11.513 -115.171)" fill="#060707"/>
        <path id="Trazado_640395" data-name="Trazado 640395" d="M389.779,824.274c2.279,0,4.557.014,6.836-.011.5-.005.625.135.625.628,0,1.888.017,1.888-1.894,1.888-4.106,0-8.213-.012-12.319.014-.557,0-.711-.125-.7-.694.03-1.824,0-1.824,1.821-1.824Z" transform="translate(-11.515 -138.222)" fill="#060707"/>
        <path id="Trazado_640396" data-name="Trazado 640396" d="M389.609,843.094c-2.253,0-4.507-.016-6.76.012-.5.006-.65-.14-.61-.625.049-.6-.194-1.391.107-1.745.356-.419,1.176-.133,1.793-.135,4.081-.014,8.162,0,12.242-.018.542,0,.787.066.772.712-.042,1.8-.007,1.8-1.835,1.8Z" transform="translate(-11.423 -149.577)" fill="#060707"/>
        <path id="Trazado_640397" data-name="Trazado 640397" d="M403.823,807.784c1.452,0,2.9.02,4.355-.011.474-.01.578.141.583.593.018,1.925.034,1.925-1.856,1.925-2.478,0-4.956-.017-7.434.013-.528.006-.666-.132-.661-.66.017-1.86,0-1.861,1.859-1.861Z" transform="translate(-23.038 -126.696)" fill="#060707"/>
        <path id="Trazado_640398" data-name="Trazado 640398" d="M387.223,859.758c-1.452,0-2.9-.014-4.354.009-.417.007-.541-.1-.548-.534-.031-1.971-.046-1.971,1.894-1.971,2.478,0,4.955.013,7.432-.011.494,0,.663.13.62.628-.051.594.2,1.389-.1,1.74-.355.416-1.172.116-1.787.132C389.325,859.777,388.273,859.758,387.223,859.758Z" transform="translate(-11.507 -161.28)" fill="#060707"/>
        <path id="Trazado_640399" data-name="Trazado 640399" d="M383.626,810.318c-1.25,0-1.25,0-1.25-1.238,0-1.269,0-1.269,1.3-1.269,1.191,0,1.191,0,1.191,1.173v.075C384.872,810.318,384.872,810.318,383.626,810.318Z" transform="translate(-11.551 -126.723)" fill="#060707"/>
        <path id="Trazado_640400" data-name="Trazado 640400" d="M424.868,859.785c-1.238,0-1.238,0-1.238-1.237,0-1.259,0-1.259,1.234-1.259s1.234,0,1.234,1.254S426.1,859.785,424.868,859.785Z" transform="translate(-40.386 -161.307)" fill="#060707"/>
        <path id="Trazado_640401" data-name="Trazado 640401" d="M546.522,799.664a7.439,7.439,0,1,1-7.474,7.388A7.448,7.448,0,0,1,546.522,799.664Zm-.01,12.377a4.958,4.958,0,0,0-.067-9.915,4.958,4.958,0,1,0,.067,9.915Z" transform="translate(-121.059 -121.029)" fill="#f7e6ac"/>
        <path id="Trazado_640402" data-name="Trazado 640402" d="M552.227,817.757a4.958,4.958,0,1,1,4.913-4.981A4.967,4.967,0,0,1,552.227,817.757Zm-.005-7.419a2.479,2.479,0,0,0-.056,4.957,2.513,2.513,0,0,0,2.514-2.456A2.485,2.485,0,0,0,552.222,810.337Z" transform="translate(-126.774 -126.744)" fill="#030302"/>
      </g>
    </g>
  </g>
</svg>
