<svg xmlns="http://www.w3.org/2000/svg" width="85" height="85" viewBox="0 0 85 85">
  <g id="Grupo_974493" data-name="Grupo 974493" transform="translate(-180 -6099)">
    <rect id="Rectángulo_34178" data-name="Rectángulo 34178" width="85" height="85" transform="translate(180 6099)" fill="none"/>
    <g id="Grupo_978944" data-name="Grupo 978944" transform="translate(-649.088 6053.556)">
      <path id="Trazado_639893" data-name="Trazado 639893" d="M874.559,70.852c-.6-.7-.636-1.022-.136-1.74a22.557,22.557,0,0,1,17.422-10.1c.458-.038.526-.193.519-.59-.022-1.294-.013-2.589-.006-3.883,0-.838.383-1.284,1.069-1.288s1.061.442,1.061,1.28q.005,7.66,0,15.321v.718c.293-.106.3-.372.386-.567q1.848-4.184,3.679-8.376c.5-1.134.9-1.29,2.026-.8,1.312.571,2.621,1.152,3.937,1.713.209.089.555.386.642.142.146-.41.66-.8.217-1.339-.479-.579-.927-1.185-1.387-1.781-.624-.809-.614-1.167.055-1.905s1.359-1.5,2.041-2.247a1.171,1.171,0,0,1,1.787-.274,13.75,13.75,0,0,1,1.433.9,1.423,1.423,0,0,0,1.759.151,1.214,1.214,0,0,0,.764-1.1c.061-.7.181-1.4.264-2.1a1.054,1.054,0,0,1,1.071-1.014c1.2-.08,2.4-.131,3.6-.175a1.066,1.066,0,0,1,1.145.933c.193.8.37,1.6.567,2.4a1.765,1.765,0,0,0,1.962.713c.66-.491,1.31-1,1.959-1.5a1.115,1.115,0,0,1,1.589.05c.842.753,1.688,1.5,2.519,2.267a1.087,1.087,0,0,1,.2,1.624c-.389.643-.8,1.276-1.192,1.915a1.516,1.516,0,0,0,.973,2.017c.769.1,1.539.206,2.31.29a1.07,1.07,0,0,1,1.057,1.1c.075,1.174.145,2.349.185,3.524a1.1,1.1,0,0,1-.988,1.18c-.733.165-1.466.331-2.2.507a1.473,1.473,0,0,0-.739,2.182c.431.558.873,1.109,1.3,1.67a1.1,1.1,0,0,1-.037,1.69q-1.078,1.214-2.184,2.4a1.146,1.146,0,0,1-1.74.232,6.84,6.84,0,0,1-1.13-.714,1.873,1.873,0,0,0-2.512-.121c-.268.164-.306.27-.2.53.244.584.436,1.192.705,1.764a1.972,1.972,0,0,1-.056,1.811c-.609,1.29-1.156,2.61-1.772,4.02h.81q5.509,0,11.017,0c1.176,0,1.518.336,1.518,1.507q0,8.684.009,17.369a1.943,1.943,0,0,1-.587,1.446q-1.96,2.033-3.873,4.111a1.892,1.892,0,0,1-1.537.676c-2.705-.033-5.411-.014-8.139.13.38.068.761.129,1.139.206a1.122,1.122,0,0,1,1.077,1.308q.018,1.271.012,2.542c-.005.873-.278,1.191-1.118,1.341-.44.078-.879.156-1.318.24-1.036.2-1.329.906-.73,1.765.283.4.569.807.85,1.213a1.08,1.08,0,0,1-.113,1.526c-.663.668-1.326,1.337-2,2a1.075,1.075,0,0,1-1.472.137c-.452-.3-.887-.618-1.331-.926a1.014,1.014,0,0,0-1.7.735c-.084.51-.182,1.017-.272,1.526a1.048,1.048,0,0,1-1.112.963c-.965.011-1.93.013-2.9-.007a1.06,1.06,0,0,1-1.109-.972c-.087-.486-.188-.969-.271-1.455-.183-1.077-.926-1.383-1.832-.75-.4.282-.809.565-1.217.843a1.056,1.056,0,0,1-1.467-.132c-.689-.675-1.375-1.354-2.047-2.046a1.033,1.033,0,0,1-.133-1.411c.273-.411.559-.814.84-1.219.671-.967.36-1.681-.815-1.88-.463-.078-.923-.175-1.386-.258a1.087,1.087,0,0,1-.965-1.19q-.016-1.377-.007-2.754a1.085,1.085,0,0,1,.985-1.173c.486-.087.97-.178,1.456-.263,1.038-.182,1.342-.911.738-1.777-.282-.405-.569-.807-.848-1.214a1.1,1.1,0,0,1,.116-1.53q.991-1.006,2-1.994a1.069,1.069,0,0,1,1.471-.127,7.277,7.277,0,0,1,1.205.855,1.082,1.082,0,0,0,1.508.064c.454-.282.273-.851.394-1.287.06-.218-.162-.26-.3-.321q-5.19-2.268-10.385-4.528c-.018-.008-.044.006-.159.026V98.3q0,12.179,0,24.358c0,.509,0,1-.537,1.277a1.069,1.069,0,0,1-1.592-.962q-.045-1.587,0-3.177c.013-.43-.1-.567-.541-.549a8.187,8.187,0,0,1-3.2-.357,5.915,5.915,0,0,1-3.9-5.441c-.022-1.529-.017-3.06,0-4.589a.713.713,0,0,0-.482-.786,3.629,3.629,0,0,1-2.215-3.473c-.01-.824-.023-1.648.008-2.471a.776.776,0,0,0-.446-.777,22.5,22.5,0,0,1-10.8-16.392,21.7,21.7,0,0,1,.737-9.7c.261-.854.562-1.038,1.451-.924.776.518.836.708.544,1.722a20.7,20.7,0,0,0,9.7,23.762,1.606,1.606,0,0,1,.948,1.634c-.053.985-.019,1.976-.011,2.963a1.68,1.68,0,0,0,1.872,1.871c1.859.007,3.718-.026,5.576.018.613.015.77-.13.769-.759q-.032-18.491-.016-36.982c0-2.282-.013-4.564.011-6.846.005-.475-.07-.671-.6-.6a28.937,28.937,0,0,0-3.061.49,20.617,20.617,0,0,0-12.457,8.615C875.662,71.073,875.436,71.152,874.559,70.852Zm37.845,47.3a7.288,7.288,0,0,1,1.651,1.068c.407.318.639.245,1-.091.388-.367.277-.618.006-.937-.121-.142-.2-.321-.328-.458a1.808,1.808,0,0,1-.231-2.535,2.448,2.448,0,0,0,.317-.852,1.344,1.344,0,0,1,1.327-1.139c.4-.032.785-.138,1.179-.2.314-.046.432-.167.491-.525.132-.8-.368-.9-.922-.944a2.466,2.466,0,0,1-2.32-1.709,2.754,2.754,0,0,1,.479-3.461c.351-.373.182-.61-.114-.925-.33-.35-.563-.335-.94-.073a4.4,4.4,0,0,1-1.873,1.069,5,5,0,0,0-1.091-.481,2.556,2.556,0,0,1-2.244-2.817c-.008-.41-.206-.495-.611-.549-.755-.1-.8.377-.841.867a2.454,2.454,0,0,1-1.673,2.345,2.815,2.815,0,0,1-3.531-.5c-.333-.322-.564-.221-.866.079-.322.319-.427.56-.1.939.29.337.513.731.777,1.091a1.164,1.164,0,0,1,.1,1.38,6.673,6.673,0,0,0-.666,1.625,1.141,1.141,0,0,1-.989.882c-.51.085-1.016.194-1.528.261-.491.064-.409.41-.417.734s0,.612.443.639c.3.017.6.122.9.142.959.065,1.354.616,1.807,1.461a2.863,2.863,0,0,1-.466,3.78c-.229.235-.153.413.048.655.384.462.731.569,1.2.122.944-.89,1.964-1.26,3.127-.364a.735.735,0,0,0,.326.129,1.668,1.668,0,0,1,1.5,1.816c.008.185.093.367.106.553.033.467.121.759.737.76s.673-.311.724-.768.166-.877.242-1.316a.807.807,0,0,1,.45-.679A25.1,25.1,0,0,1,912.4,118.152Zm13.852-17.24c.883.207,1.091.453,1.1,1.348.007,1.06,0,2.12,0,3.339.753-.8,1.353-1.459,1.984-2.089a1.205,1.205,0,0,0,.351-.943c-.009-4.606,0-9.212-.011-13.818,0-.166.1-.373-.143-.526-.609.648-1.2,1.308-1.832,1.936a1.191,1.191,0,0,0-.353.938c.014,1.668.01,3.337,0,5.005,0,.9-.23,1.161-1.1,1.342a1.071,1.071,0,0,1-1.044-1.239c.018-1.458-.023-2.917.019-4.374.016-.55-.161-.674-.675-.649-.892.043-1.787.012-2.681.012q-6.069,0-12.138.007c-.25,0-.634-.193-.631.368.012,2.822,0,5.644,0,8.466,0,.2-.049.442.288.444.926,0,1.26.569,1.338,1.4a10.176,10.176,0,0,0,.192,1.038c.218,1.083.92,1.366,1.829.739.387-.267.777-.528,1.161-.8a1.115,1.115,0,0,1,1.583.144c.5.5,1,1,1.5,1.5,1.06,1.059,1.069,1.155.258,2.445a.215.215,0,0,0,.006.3c2.5,0,5.034-.006,7.567.005.456,0,.394-.292.394-.57,0-1.482.018-2.964-.007-4.445C925.2,101.472,925.484,101.015,926.257,100.912Zm-21.34-1.249c.505.236,1.013.467,1.514.712.35.171.506.116.5-.313-.025-1.5-.028-3-.039-4.5.011-1.595.034-3.19.029-4.784a2.452,2.452,0,0,1,.722-1.829c1.336-1.381,2.625-2.808,3.932-4.217a1.793,1.793,0,0,1,1.348-.465c.937.029,1.874.006,2.812.01.242,0,.429-.007.55-.294q.8-1.905,1.659-3.786c.145-.317.019-.4-.232-.505-1.16-.491-2.314-.994-3.471-1.492q-1.245-.569-2.489-1.138c-.915-.421-1.1-.875-.693-1.8.836-1.913,1.658-3.832,2.54-5.723.238-.51.108-.641-.35-.839q-6.2-2.687-12.368-5.434c-.546-.244-.694-.085-.9.383q-2.59,5.97-5.223,11.921a3.251,3.251,0,0,0-.277,1.359c.01,5.5.057,11.011-.031,16.515a2.1,2.1,0,0,0,1.545,2.4C899.007,97.025,901.948,98.379,904.917,99.663Zm10.745-39.731a6.131,6.131,0,0,1,3.381,11.279c-.407.269-1.119.336-1.2.746-.08.434.3.956.487,1.437.377.976.458,1.084,1.271.5a2.262,2.262,0,0,1,3.16.164,1.37,1.37,0,0,0,.18.111c1.123.693,1.1.676,1.99-.282a.571.571,0,0,0,0-.929c-.422-.472-.773-1.008-1.181-1.494a1.243,1.243,0,0,1-.172-1.5,7.69,7.69,0,0,0,.71-1.984,1.214,1.214,0,0,1,1.028-1.021c.689-.143,1.372-.319,2.06-.473.207-.046.392-.056.444-.347.231-1.3-.027-1.727-1.323-1.768-1.432-.045-2.53-.429-2.81-2.019a.274.274,0,0,0-.061-.126c-1.031-1.183-.7-2.246.163-3.386.814-1.082.73-1.119-.293-2.022a.52.52,0,0,0-.827-.017c-.537.456-1.117.861-1.673,1.3a1.131,1.131,0,0,1-1.315.138,9.287,9.287,0,0,0-2.185-.777,1.1,1.1,0,0,1-.889-.889c-.141-.618-.32-1.229-.422-1.854-.092-.562-.3-.777-.924-.717-1.193.115-1.2.07-1.322,1.278a3.159,3.159,0,0,0-.054.419c.044,1.289-.712,1.777-1.78,2.4a3.137,3.137,0,0,1-4.108-.376c-.5-.423-.861-.418-1.3.152-.651.848-.7.812-.016,1.677a6.732,6.732,0,0,0,.524.664,1.775,1.775,0,0,1,.316,2.4c-.55,1-.476,1.041.544,1.489.3.132.614.243.9.4.439.246.634.213.815-.341A6.069,6.069,0,0,1,915.661,59.932Zm-23.3,52.862c0-1.293-.008-2.586.006-3.879,0-.331-.034-.508-.444-.5-1.552.024-3.1.02-4.656,0-.355,0-.427.131-.424.452.015,1.528-.02,3.057.018,4.584a3.775,3.775,0,0,0,2.832,3.541,10.928,10.928,0,0,0,2.177.142c.428.018.5-.154.5-.533C892.345,115.333,892.357,114.063,892.357,112.794Zm35.895-26.325a2.645,2.645,0,0,0-.321-.058q-7.262,0-14.523,0c-.16,0-.344-.051-.471.082-.762.8-1.518,1.6-2.293,2.413.138.084.156.106.175.106q7.331.009,14.663.017a.7.7,0,0,0,.566-.218C926.75,88.054,927.461,87.307,928.251,86.469ZM919.733,66c-.034-.226-.065-.506-.12-.781a4,4,0,0,0-3.884-3.156,4.071,4.071,0,0,0-4.012,3.018.6.6,0,0,0,.447.837c.68.251,1.315.629,2,.846a3.373,3.373,0,0,1,2.624,2.684c.083.451.333.387.646.223A4.119,4.119,0,0,0,919.733,66Zm-4.547,5.214c-.367.827-.69,1.545-1,2.267-.269.621-.852,1.342-.7,1.844.169.572,1.147.645,1.769.94.719.341,1.455.647,2.311,1.025Z" transform="translate(-24.721 0)" fill="#090909"/>
      <path id="Trazado_639894" data-name="Trazado 639894" d="M879.994,94.459c.877.3,1.1.221,1.686-.624a20.617,20.617,0,0,1,12.457-8.615,28.931,28.931,0,0,1,3.061-.49c.534-.071.609.125.6.6-.024,2.282-.011,4.564-.011,6.846q0,18.491.016,36.982c0,.629-.156.774-.769.759-1.858-.044-3.718-.011-5.576-.018a1.68,1.68,0,0,1-1.872-1.871c-.007-.988-.041-1.978.011-2.963a1.606,1.606,0,0,0-.948-1.634,20.7,20.7,0,0,1-9.7-23.762c.292-1.014.232-1.2-.544-1.722A23.174,23.174,0,0,1,879.994,94.459Z" transform="translate(-30.156 -23.607)" fill="#fbf294"/>
      <path id="Trazado_639895" data-name="Trazado 639895" d="M870.578,226.79a1.091,1.091,0,0,1-1.01-.618.9.9,0,0,1,.124-1.113c1.254-1.274,2.512-2.546,3.8-3.786a.916.916,0,0,1,1.385.1.932.932,0,0,1,.086,1.392c-1.237,1.29-2.515,2.542-3.786,3.8A.761.761,0,0,1,870.578,226.79Z" transform="translate(-23.929 -121.318)" fill="#0d0d0d"/>
      <path id="Trazado_639896" data-name="Trazado 639896" d="M839.612,156.7c-.8,0-1.6.01-2.4,0-.746-.011-1.143-.377-1.155-1.033a1.008,1.008,0,0,1,1.109-1.09q2.505-.025,5.011,0a1.061,1.061,0,1,1-.024,2.121C841.307,156.709,840.459,156.7,839.612,156.7Z" transform="translate(0 -73.684)" fill="#09090a"/>
      <path id="Trazado_639897" data-name="Trazado 639897" d="M869.361,74.757a1.164,1.164,0,0,1,.833.4c1.148,1.147,2.3,2.287,3.443,3.442a1.073,1.073,0,0,1,.08,1.623,1.013,1.013,0,0,1-1.55-.09c-1.173-1.154-2.331-2.325-3.495-3.489a.964.964,0,0,1-.271-1.206A1.171,1.171,0,0,1,869.361,74.757Z" transform="translate(-23.109 -16.467)" fill="#09090a"/>
      <path id="Trazado_639898" data-name="Trazado 639898" d="M972.156,113.527c-1.308,1.409-2.6,2.836-3.932,4.217a2.453,2.453,0,0,0-.722,1.829c.006,1.595-.017,3.189-.029,4.784-.234.006-.312.189-.385.359q-.8,1.867-1.589,3.739c-2.968-1.284-5.909-2.638-8.918-3.818a2.1,2.1,0,0,1-1.545-2.4c.089-5.5.041-11.01.031-16.515a3.252,3.252,0,0,1,.277-1.359q2.626-5.954,5.223-11.921c.2-.468.351-.627.9-.383q6.166,2.757,12.368,5.434c.457.2.587.329.35.839-.882,1.891-1.7,3.81-2.54,5.723-.4.924-.222,1.377.693,1.8q1.243.572,2.489,1.138c-.43,1.316-1.13,2.518-1.615,3.809A10.881,10.881,0,0,0,972.156,113.527Z" transform="translate(-85.304 -28.793)" fill="#eeeefc"/>
      <path id="Trazado_639899" data-name="Trazado 639899" d="M1023.943,200.669c-.773.1-1.06.56-1.048,1.317.025,1.481.007,2.963.007,4.445,0,.278.062.572-.394.57-2.533-.011-5.067-.005-7.567-.005a.215.215,0,0,1-.006-.3c.811-1.29.8-1.386-.258-2.445-.5-.5-1-1-1.5-1.5a1.115,1.115,0,0,0-1.583-.144c-.384.27-.774.532-1.161.8-.91.627-1.611.344-1.829-.739a10.174,10.174,0,0,1-.192-1.038c-.078-.83-.412-1.4-1.338-1.4-.336,0-.288-.239-.288-.444,0-2.822.016-5.644,0-8.466,0-.561.381-.367.631-.368q6.069-.015,12.138-.007c.894,0,1.789.031,2.681-.012.515-.025.691.1.675.649-.042,1.457,0,2.916-.019,4.374a1.071,1.071,0,0,0,1.044,1.239Q1023.943,198.934,1023.943,200.669Z" transform="translate(-122.408 -99.756)" fill="#a4ddfa"/>
      <path id="Trazado_639900" data-name="Trazado 639900" d="M1006,65.5a6.069,6.069,0,0,0-5.871,4.235c-.181.554-.375.587-.814.341-.286-.16-.6-.271-.9-.4-1.02-.449-1.094-.489-.544-1.489a1.775,1.775,0,0,0-.316-2.4,6.724,6.724,0,0,1-.524-.664c-.681-.865-.636-.829.016-1.677.438-.57.8-.575,1.3-.152a3.137,3.137,0,0,0,4.108.376c1.068-.627,1.823-1.115,1.78-2.4a3.128,3.128,0,0,1,.054-.419c.125-1.208.129-1.163,1.322-1.278.62-.059.832.155.923.717.1.624.281,1.236.422,1.854a1.1,1.1,0,0,0,.889.889,9.283,9.283,0,0,1,2.185.777,1.131,1.131,0,0,0,1.315-.138c.556-.434,1.136-.839,1.673-1.3a.52.52,0,0,1,.827.017c1.023.9,1.107.94.293,2.022-.858,1.14-1.193,2.2-.163,3.386a.274.274,0,0,1,.061.126c.279,1.591,1.378,1.974,2.81,2.019,1.3.041,1.555.471,1.323,1.768-.052.291-.237.3-.444.347-.687.154-1.37.329-2.06.473a1.215,1.215,0,0,0-1.028,1.021,7.683,7.683,0,0,1-.71,1.984,1.243,1.243,0,0,0,.172,1.5c.408.486.758,1.022,1.18,1.494a.571.571,0,0,1,0,.929c-.886.958-.867.975-1.99.282a1.391,1.391,0,0,1-.18-.111,2.262,2.262,0,0,0-3.16-.164c-.812.587-.893.479-1.271-.5-.186-.481-.568-1-.487-1.437.076-.41.788-.478,1.2-.746A6.131,6.131,0,0,0,1006,65.5Z" transform="translate(-115.063 -5.568)" fill="#7575d8"/>
      <path id="Trazado_639901" data-name="Trazado 639901" d="M983.087,246.829a25.106,25.106,0,0,0-2.813,1.076.807.807,0,0,0-.45.679c-.075.44-.192.874-.242,1.316-.051.457-.1.77-.724.768s-.7-.292-.737-.76c-.013-.186-.1-.367-.106-.553a1.668,1.668,0,0,0-1.5-1.816.735.735,0,0,1-.326-.128c-1.163-.9-2.184-.525-3.127.364-.474.446-.821.339-1.2-.122-.2-.242-.277-.419-.048-.655a2.863,2.863,0,0,0,.466-3.78c-.452-.845-.847-1.4-1.807-1.461-.3-.021-.6-.125-.9-.142-.446-.026-.452-.311-.443-.638s-.075-.67.417-.734c.512-.067,1.018-.175,1.528-.261a1.141,1.141,0,0,0,.989-.882,6.67,6.67,0,0,1,.666-1.625,1.164,1.164,0,0,0-.1-1.38c-.264-.36-.487-.754-.777-1.091-.326-.378-.221-.62.1-.939.3-.3.534-.4.866-.079a2.815,2.815,0,0,0,3.531.5,2.454,2.454,0,0,0,1.673-2.345c.041-.49.086-.967.841-.867.4.054.6.139.611.548a2.556,2.556,0,0,0,2.244,2.817,5,5,0,0,1,1.091.481c.05.4.395.623.568.955a10.727,10.727,0,0,1,1.288,6.006A10.166,10.166,0,0,1,983.087,246.829ZM974,240.894a4.88,4.88,0,0,0,4.871,4.907A4.846,4.846,0,1,0,974,240.894Z" transform="translate(-95.404 -128.677)" fill="#7575d8"/>
      <path id="Trazado_639902" data-name="Trazado 639902" d="M933.651,256.235c0,1.269-.012,2.539.007,3.808.006.379-.071.551-.5.533a10.925,10.925,0,0,1-2.176-.142,3.775,3.775,0,0,1-2.832-3.541c-.039-1.527,0-3.056-.018-4.584,0-.321.068-.456.424-.452,1.552.017,3.1.022,4.655,0,.41-.007.448.171.444.5C933.643,253.649,933.651,254.942,933.651,256.235Z" transform="translate(-66.015 -143.441)" fill="#cccef8"/>
      <path id="Trazado_639903" data-name="Trazado 639903" d="M1029.851,174.147c-.79.837-1.5,1.585-2.2,2.341a.7.7,0,0,1-.566.218q-7.332-.011-14.663-.017c-.019,0-.037-.021-.175-.106.774-.816,1.531-1.618,2.293-2.413.128-.133.311-.082.471-.082q7.261,0,14.523,0A2.646,2.646,0,0,1,1029.851,174.147Z" transform="translate(-126.321 -87.678)" fill="#e273b7"/>
      <path id="Trazado_639904" data-name="Trazado 639904" d="M1067.406,193.207q0-1.734,0-3.469c.867-.181,1.094-.447,1.1-1.342.007-1.668.012-3.337,0-5.005a1.191,1.191,0,0,1,.353-.938c.628-.627,1.223-1.288,1.832-1.936.24.153.143.36.143.526.007,4.606,0,9.212.011,13.818a1.205,1.205,0,0,1-.351.943c-.631.63-1.231,1.291-1.984,2.089,0-1.219.006-2.279,0-3.339C1068.5,193.66,1068.29,193.414,1067.406,193.207Z" transform="translate(-165.871 -92.295)" fill="#faf194"/>
      <path id="Trazado_639905" data-name="Trazado 639905" d="M1015.529,151.643a10.886,10.886,0,0,1,1.052-2.724c.485-1.29,1.185-2.493,1.615-3.809,1.156.5,2.311,1,3.471,1.492.25.106.377.189.232.505q-.861,1.879-1.659,3.786c-.121.287-.308.295-.55.294-.938,0-1.876.019-2.812-.01A1.793,1.793,0,0,0,1015.529,151.643Z" transform="translate(-128.676 -66.909)" fill="#e6e6fa"/>
      <path id="Trazado_639906" data-name="Trazado 639906" d="M1017.746,253.41a10.165,10.165,0,0,0,1.572-4.746,10.727,10.727,0,0,0-1.288-6.006c-.173-.332-.518-.556-.568-.955a4.4,4.4,0,0,0,1.873-1.069c.378-.262.611-.277.94.073.3.315.465.552.114.925a2.754,2.754,0,0,0-.479,3.461,2.466,2.466,0,0,0,2.32,1.709c.554.041,1.054.14.922.944-.058.358-.177.479-.491.525-.395.058-.784.164-1.179.2a1.344,1.344,0,0,0-1.327,1.139,2.446,2.446,0,0,1-.317.852,1.808,1.808,0,0,0,.231,2.535c.126.136.206.315.327.458.271.318.382.57-.006.937-.356.337-.588.409-1,.091A7.289,7.289,0,0,0,1017.746,253.41Z" transform="translate(-130.062 -135.258)" fill="#6666db"/>
      <path id="Trazado_639907" data-name="Trazado 639907" d="M1023.907,120.414l2.373,6.076c-.856-.378-1.592-.684-2.311-1.025-.623-.3-1.6-.368-1.769-.94-.149-.5.434-1.223.7-1.844C1023.217,121.959,1023.541,121.241,1023.907,120.414Z" transform="translate(-133.443 -49.202)" fill="#c9cbf4"/>
      <path id="Trazado_639908" data-name="Trazado 639908" d="M992.008,210.557q.793-1.87,1.589-3.739c.073-.17.151-.353.385-.359.011,1.5.015,3,.039,4.5.007.429-.15.483-.5.313C993.021,211.024,992.513,210.793,992.008,210.557Z" transform="translate(-111.813 -110.894)" fill="#e6e6fa"/>
      <path id="Trazado_639909" data-name="Trazado 639909" d="M986.343,253.179a4.786,4.786,0,0,1,4.815-4.784,4.846,4.846,0,1,1-4.815,4.784Zm2.133.016a2.7,2.7,0,0,0,2.718,2.739,2.668,2.668,0,0,0,2.68-2.694,2.758,2.758,0,0,0-2.7-2.715A2.663,2.663,0,0,0,988.476,253.194Z" transform="translate(-107.751 -140.961)" fill="#09090a"/>
    </g>
  </g>
</svg>
