<svg id="Grupo_963310" data-name="Grupo 963310" xmlns="http://www.w3.org/2000/svg" width="144.902" height="144.902" viewBox="0 0 144.902 144.902">
  <g id="Grupo_94722" data-name="Grupo 94722">
    <g id="_240_F_327287600_TyhZPz7Qge3YOTv4dab7M9xRDBiZxF9G" data-name="240_F_327287600_TyhZPz7Qge3YOTv4dab7M9xRDBiZxF9G" fill="#e0dafc" stroke="#e28f5e" stroke-width="3">
      <circle cx="72.451" cy="72.451" r="72.451" stroke="none"/>
      <circle cx="72.451" cy="72.451" r="70.951" fill="none"/>
    </g>
  </g>
  <g id="Grupo_982372" data-name="Grupo 982372" transform="translate(-62.406 -817.731)">
    <path id="Trazado_641273" data-name="Trazado 641273" d="M97.774,905.7c-4.357-3.39-6.586-7.638-6.545-12.988a15.413,15.413,0,0,1,10.476-14.276.948.948,0,0,0,.794-1.086c-.031-4.983,0-9.965-.033-14.948a1.784,1.784,0,0,1,.757-1.608q6.8-5.359,13.535-10.8a2.456,2.456,0,0,1,1.659-.594q20.406.027,40.812.025a1.862,1.862,0,0,0,1.584-.652,5.916,5.916,0,0,1,4.045-2.08,36.319,36.319,0,0,1,7.895.073,6.817,6.817,0,0,1,5.726,6.794c.025,11.138.009,22.276.015,33.414a3.514,3.514,0,0,1-.417,1.6q-3.023,6.038-6.044,12.077a2.986,2.986,0,0,1-1.286,1.512c-.667.307-.712.775-.711,1.392q.02,13.5.009,26.994c0,2.218-1.072,3.3-3.278,3.3h-72.3q-3.24,0-3.244-3.24,0-10.859,0-21.719a2.872,2.872,0,0,1,3.211-3.183C95.482,905.7,96.531,905.7,97.774,905.7Zm63.977-12.02-.152.057c0,5.569-.016,11.138.019,16.706,0,.73-.169.905-.9.9q-18.692-.039-37.384-.018a4.982,4.982,0,0,1-.615,0c-.429-.054-.544.124-.538.541.023,1.495.032,2.99,0,4.484-.012.519.169.627.647.617,1.466-.028,2.932,0,4.4-.019.431-.007.615.071.61.564q-.039,3.649,0,7.3c.007.547-.212.605-.666.6-1.466-.024-2.932.008-4.4-.019-.456-.008-.6.118-.59.584.03,1.377.066,2.758-.011,4.131-.044.794.2.942.957.941q21.595-.037,43.189-.018a2.242,2.242,0,0,1,.351,0c.482.078.575-.148.574-.591q-.017-13.674,0-27.348c0-.313-.03-.547-.36-.7a3.948,3.948,0,0,1-1.767-2C164,898.151,162.872,895.92,161.752,893.683Zm-22.673-4.863c0,6.3.011,12.6-.017,18.9,0,.661.159.812.813.809q9.059-.042,18.119,0c.665,0,.807-.166.806-.815q-.032-18.9,0-37.809c0-.66-.159-.812-.813-.809q-9.059.042-18.118,0c-.665,0-.81.166-.807.815C139.089,876.218,139.079,882.519,139.079,888.82ZM106.666,905.7a12.664,12.664,0,1,0-12.629-12.747A12.7,12.7,0,0,0,106.666,905.7Zm8.942,0c1.393,0,2.561-.014,3.729,0a2.706,2.706,0,0,1,2.742,2.149c.13.621.392.675.92.672q6.2-.031,12.4,0c.641,0,.881-.1.88-.83q-.04-18.907-.006-37.815c0-.589-.1-.786-.746-.784q-10.512.039-21.025,0c-.6,0-.788.116-.779.752q.057,4.353,0,8.706a1.045,1.045,0,0,0,.653,1.073,13.451,13.451,0,0,1,3.757,3,1.5,1.5,0,0,0,1.274.566c4.428-.022,8.856,0,13.283-.028.609,0,.783.134.772.761q-.062,3.472,0,6.947c.011.618-.149.773-.767.766-3.079-.035-6.158-.016-9.237-.016-1.286,0-1.285,0-1.276,1.241a4.435,4.435,0,0,1-.019.878c-.121.616.154.71.7.706,3.225-.023,6.452.024,9.676-.035.821-.015.939.246.924.971q-.071,3.3,0,6.595c.015.7-.116.93-.882.922-4.4-.043-8.8-.022-13.2-.018-.367,0-.734-.079-1.034.3A15.5,15.5,0,0,1,115.608,905.7Zm43.287-53.471H138.669c-6.183,0-12.366.01-18.549-.016-.624,0-.784.16-.763.772.048,1.4.045,2.813,0,4.218-.018.565.167.666.69.665q19.032-.022,38.064,0c.528,0,.692-.11.689-.668A39.4,39.4,0,0,1,158.895,852.233Zm-52.283,78.8c4.013,0,8.027-.011,12.04.012.556,0,.754-.118.736-.713-.046-1.434-.036-2.87,0-4.3.012-.5-.134-.635-.634-.633q-12.04.023-24.08,0c-.482,0-.657.11-.645.623.035,1.4.05,2.813,0,4.216-.026.66.157.821.815.816C98.76,931.015,102.686,931.032,106.612,931.032Zm.093-14.071c-3.985,0-7.97.012-11.954-.013-.566,0-.746.134-.728.718.044,1.434.036,2.871,0,4.305-.012.5.145.629.636.628q12.043-.022,24.085,0c.49,0,.649-.123.637-.627-.033-1.405-.051-2.813.006-4.217.027-.668-.167-.816-.818-.811C114.616,916.977,110.661,916.961,106.7,916.961Zm-.06-2.815c4.013,0,8.027-.008,12.04.011.505,0,.721-.076.7-.656-.046-1.463-.031-2.928-.006-4.392.008-.446-.1-.6-.577-.6q-12.084.022-24.168,0c-.531,0-.618.191-.609.657.026,1.376.045,2.754-.006,4.128-.025.667.135.88.846.873C98.793,914.126,102.719,914.146,106.644,914.146Zm61.987-56.285c2.138,0,4.276-.014,6.414.01.49.006.655-.125.641-.63-.035-1.229.011-2.46-.019-3.689a4.2,4.2,0,0,0-4.17-4.128q-2.855-.043-5.711,0a4.2,4.2,0,0,0-4.183,4.206c-.02,1.171.026,2.343-.017,3.513-.02.567.135.742.72.732C164.414,857.839,166.523,857.861,168.632,857.861Zm-7.032,18.2c0,3.074.013,6.148-.012,9.222,0,.557.12.754.714.736,1.433-.045,2.87-.036,4.3,0,.5.011.636-.134.635-.634q-.025-9.222,0-18.444c0-.6-.232-.651-.716-.642-1.405.026-2.812.037-4.216,0-.575-.017-.731.149-.726.724C161.615,870.029,161.6,873.045,161.6,876.06Zm8.446.1c0,3.044.016,6.088-.014,9.131-.006.581.161.738.73.722,1.433-.039,2.869-.036,4.3,0,.519.012.62-.177.619-.652q-.021-9.219,0-18.438c0-.5-.145-.643-.64-.632-1.434.031-2.87.042-4.3,0-.6-.019-.714.194-.71.743C170.058,870.075,170.045,873.119,170.045,876.163ZM149.01,866.3c3.048,0,6.1-.01,9.145.011.48,0,.655-.1.642-.617-.036-1.464-.032-2.93,0-4.395.01-.485-.112-.64-.622-.638q-9.232.026-18.465,0c-.6,0-.649.226-.64.711.026,1.406.036,2.813,0,4.219-.016.56.122.735.711.729C142.854,866.286,145.932,866.3,149.01,866.3ZM125,866.3c3.517,0,7.033-.013,10.55.013.569,0,.742-.136.723-.717-.044-1.375-.054-2.755,0-4.13.027-.66-.153-.816-.811-.812-4.6.032-9.2.01-13.8.024-.749,0-1.718-.32-2.182.159-.356.367-.1,1.331-.112,2.03a.487.487,0,0,0,0,.088c.067.421-.106.553-.53.54-1-.029-1.993-.009-2.989-.009-2.139,0-2.115,0-2.127,2.113,0,.584.164.718.728.714C117.971,866.291,121.487,866.3,125,866.3Zm-14.077,4.5c0-2.227-.013-4.455.01-6.682,0-.478-.1-.658-.618-.646-1.494.035-2.99.026-4.485,0-.416-.006-.547.11-.546.537q.022,6.506,0,13.012c0,.471.131.593.6.558a12.967,12.967,0,0,1,4.356.41c.684.184.7-.067.7-.6C110.916,875.2,110.927,873,110.927,870.805Zm51.554,18.032c.911,1.818,1.775,3.5,2.6,5.212.205.427.511.4.862.4,1.785,0,3.571-.019,5.356.01a.921.921,0,0,0,1.012-.6c.416-.933.9-1.834,1.356-2.749.365-.735.724-1.474,1.116-2.27Zm6.239-28.162h-5.01c-2.139,0-2.114,0-2.126,2.116,0,.589.173.715.732.711,3.75-.024,7.5-.012,11.25-.012,2.173,0,2.154,0,2.124-2.2-.007-.507-.157-.626-.641-.621C172.938,860.69,170.829,860.675,168.719,860.675Zm-60.739,0c2.833,0,5.436,0,8.038,0,.321,0,.552,0,.548-.445-.019-2.093-.008-4.187-.008-6.448-2.7,2.154-5.278,4.2-7.85,6.256C108.51,860.2,108.328,860.371,107.98,860.675Zm12.581,39.4h7.961c2.269,0,2.261,0,2.121-2.307-.022-.359-.088-.517-.489-.515-2.7.015-5.4.007-8.093.009-.229,0-.459-.034-.567.276C121.208,898.359,120.9,899.17,120.561,900.075ZM120.544,886c.309.8.618,1.464.816,2.159a.781.781,0,0,0,.916.668c2.081-.032,4.163-.013,6.245-.013,2.269,0,2.261,0,2.121-2.307-.022-.359-.087-.517-.488-.515C126.988,886.01,123.823,886,120.544,886ZM125,921.228c0-1.453,0-1.453-1.449-1.453-1.366,0-1.366,0-1.366,1.36,0,1.453,0,1.453,1.448,1.453C125,922.589,125,922.589,125,921.228Zm45.531-23.894h-3.8c.393.786.711,1.507,1.1,2.185a.869.869,0,0,0,1.6,0C169.84,898.824,170.163,898.081,170.534,897.334Z" transform="translate(0 0)" fill="#010100"/>
    <path id="Trazado_641274" data-name="Trazado 641274" d="M218.576,980.3c1.12,2.237,2.252,4.467,3.356,6.712a3.948,3.948,0,0,0,1.767,2c.329.158.36.392.36.7q-.008,13.674,0,27.348c0,.443-.092.669-.574.591a2.25,2.25,0,0,0-.351,0q-21.595,0-43.189.018c-.755,0-1-.147-.957-.941.077-1.373.041-2.754.011-4.131-.01-.466.134-.593.59-.584,1.466.027,2.932,0,4.4.019.454.007.673-.051.666-.6q-.047-3.649,0-7.3c.005-.494-.178-.571-.61-.564-1.466.023-2.932-.009-4.4.019-.478.009-.659-.1-.647-.617.035-1.494.026-2.99,0-4.484-.006-.416.109-.595.538-.541a4.97,4.97,0,0,0,.615,0q18.692,0,37.384.018c.733,0,.907-.174.9-.9-.034-5.568-.019-11.137-.019-16.706Zm-8.6,27.5c0,1.23.017,2.46-.009,3.689-.009.423.122.543.542.54q3.691-.027,7.381,0c.423,0,.543-.122.54-.542q-.027-3.689,0-7.378c0-.423-.122-.543-.542-.54q-3.69.027-7.381,0c-.423,0-.549.121-.54.542C209.995,1005.342,209.978,1006.572,209.978,1007.8Zm-2.815,0c0-1.23-.016-2.46.009-3.689.009-.421-.118-.545-.541-.542q-3.69.028-7.381,0c-.421,0-.545.119-.542.541q.027,3.689,0,7.378c0,.421.118.545.541.542q3.69-.027,7.381,0c.421,0,.551-.118.542-.541C207.146,1010.261,207.163,1009.031,207.163,1007.8Zm-15.484-4.222c-1.23,0-2.461.017-3.69-.009-.424-.009-.544.122-.54.542q.027,3.689,0,7.378c0,.423.122.543.542.54q3.691-.027,7.381,0c.423,0,.543-.122.54-.542q-.027-3.689,0-7.378c0-.423-.121-.549-.542-.54C194.14,1003.6,192.909,1003.58,191.679,1003.58Z" transform="translate(-56.824 -86.619)" fill="#ead0b6"/>
    <path id="Trazado_641275" data-name="Trazado 641275" d="M226.94,930.294c0-6.3.011-12.6-.016-18.9,0-.65.142-.819.807-.815q9.059.044,18.118,0c.654,0,.814.149.813.809q-.033,18.9,0,37.809c0,.649-.141.818-.806.815q-9.059-.044-18.119,0c-.654,0-.816-.148-.813-.809C226.951,942.9,226.94,936.6,226.94,930.294Zm9.85,2.812h4.923c2.143,0,2.121,0,2.132-2.108,0-.573-.146-.724-.721-.72-3.751.027-7.5.014-11.253.014-2.175,0-2.158,0-2.13,2.2.006.494.133.636.631.63C232.511,933.09,234.651,933.105,236.79,933.105Zm-.038,11.257h5.011c2.084,0,2.055,0,2.085-2.069.009-.626-.164-.765-.772-.76-3.721.03-7.443.015-11.165.015-2.194,0-2.171,0-2.171,2.157,0,.552.149.679.683.671C232.532,944.343,234.642,944.362,236.752,944.362Zm-.012-22.514h5.011c2.094,0,2.068,0,2.1-2.057.008-.606-.131-.779-.759-.773-3.751.032-7.5.016-11.253.016-2.115,0-2.1,0-2.094,2.145,0,.528.111.694.669.684C232.519,921.826,234.63,921.848,236.74,921.848Zm4.234,5.628h.7c2.233,0,2.233,0,2.154-2.244a.455.455,0,0,1,0-.088c.061-.389-.109-.5-.49-.491-1,.024-1.991.008-2.987.008-2.233,0-2.233,0-2.154,2.244a.485.485,0,0,1,0,.088c-.061.389.109.5.49.491C239.45,927.458,240.212,927.477,240.973,927.477Zm-8.4,8.443h-.7c-2.229,0-2.229,0-2.115,2.283a.484.484,0,0,1,0,.087c-.046.34.1.454.44.451q2.372-.023,4.744,0c.337,0,.427-.1.457-.443.206-2.378.215-2.377-2.12-2.377Zm8.445,2.814h.615c2.316,0,2.316,0,2.2-2.288a.487.487,0,0,1,0-.088c.048-.347-.109-.447-.446-.444q-2.372.021-4.744,0c-.345,0-.423.116-.451.45-.2,2.372-.207,2.371,2.125,2.371Zm.083-25.329h-.7c-2.316,0-2.316,0-2.2,2.288a.456.456,0,0,1,0,.088c-.048.345.106.448.445.445q2.372-.021,4.744,0c.344,0,.423-.114.451-.448.2-2.373.208-2.372-2.124-2.372Zm-8.568,2.814h.7c2.232,0,2.232,0,2.149-2.249a.458.458,0,0,1,0-.088c.063-.4-.122-.494-.495-.485-1,.022-1.992.007-2.987.007-2.232,0-2.232,0-2.149,2.249a.458.458,0,0,1,0,.088c-.063.4.122.5.495.485C231.01,916.2,231.772,916.22,232.533,916.22Zm.034,11.257h.7c2.229,0,2.229,0,2.115-2.283a.456.456,0,0,1,0-.088c.046-.34-.1-.453-.441-.45q-2.372.023-4.744,0c-.338,0-.427.1-.457.444-.205,2.378-.215,2.377,2.12,2.377Z" transform="translate(-87.861 -41.473)" fill="#e5e8eb"/>
    <path id="Trazado_641276" data-name="Trazado 641276" d="M111.838,967.882A12.664,12.664,0,1,1,124.545,955.3,12.691,12.691,0,0,1,111.838,967.882Zm4.215-8.093h.046q0-.439,0-.879c0-3.3-1.111-4.606-4.362-5.108a2.017,2.017,0,0,1-1.248-2.675.38.38,0,0,1,.128-.113,1.986,1.986,0,0,1,2.661,1.27c.073.5-.262,1.2.189,1.467.39.234,1.027.057,1.554.061.234,0,.469-.008.7,0s.337-.078.383-.34a4.487,4.487,0,0,0-2.12-4.668,1.194,1.194,0,0,1-.718-1.281c.035-2.339.014-2.326-2.329-2.167-.4.027-.484.16-.478.52.013.73.265,1.694-.1,2.13-.424.509-1.424.15-2.172.165-.415.008-.558.115-.546.543.029,1.025.009,2.051.009,3.077,0,2.979,1.338,4.492,4.275,4.839a1.977,1.977,0,0,1,1.336,2.681.38.38,0,0,1-.128.114,1.988,1.988,0,0,1-2.662-1.271c-.073-.5.262-1.2-.189-1.467-.39-.234-1.026-.057-1.554-.061-.234,0-.47.008-.7,0s-.362.069-.378.342c-.1,1.647.06,3.347,1.568,4.222,1.289.748,1.345,1.693,1.253,2.869-.013.175.017.354-.005.527-.049.395.129.473.5.494,2.293.132,2.293.142,2.319-2.1a1.166,1.166,0,0,0,0-.176c-.056-.4.079-.56.52-.562.75,0,1.812.346,2.167-.15C116.342,961.569,116.053,960.576,116.053,959.789Z" transform="translate(-5.172 -62.179)" fill="#f4d57e"/>
    <path id="Trazado_641277" data-name="Trazado 641277" d="M156.938,947.179a15.5,15.5,0,0,0,2.747-2.512c.3-.378.667-.3,1.034-.3,4.4,0,8.8-.025,13.2.018.766.008.9-.222.882-.922q-.071-3.3,0-6.595c.016-.725-.1-.986-.924-.971-3.224.059-6.451.013-9.676.035-.546,0-.821-.091-.7-.706a4.437,4.437,0,0,0,.019-.878c-.009-1.241-.01-1.241,1.276-1.241,3.079,0,6.158-.019,9.237.016.618.007.777-.148.767-.766q-.06-3.473,0-6.947c.011-.627-.163-.765-.772-.761-4.428.028-8.856.005-13.283.027a1.5,1.5,0,0,1-1.274-.565,13.45,13.45,0,0,0-3.757-3,1.046,1.046,0,0,1-.653-1.073q.055-4.353,0-8.706c-.008-.636.183-.754.779-.752q10.512.033,21.025,0c.643,0,.747.2.746.784q-.026,18.907.006,37.815c0,.732-.238.834-.88.83q-6.2-.039-12.4,0c-.528,0-.79-.051-.921-.672a2.706,2.706,0,0,0-2.742-2.149C159.5,947.164,158.331,947.179,156.938,947.179Zm9.394-33.771c-2.579,0-5.159.018-7.738-.014-.575-.007-.729.147-.72.721q.05,3.516,0,7.032c-.008.579.153.72.723.717q7.738-.034,15.476,0c.574,0,.728-.146.72-.72q-.051-3.516,0-7.032c.009-.579-.153-.725-.723-.718C171.491,913.425,168.911,913.408,166.332,913.408Z" transform="translate(-41.33 -41.475)" fill="#e5e8eb"/>
    <path id="Trazado_641278" data-name="Trazado 641278" d="M210.566,862.7a39.4,39.4,0,0,0-.094,4.972c0,.558-.161.668-.689.668q-19.032-.023-38.064,0c-.522,0-.708-.1-.69-.665.045-1.4.048-2.813,0-4.217-.021-.612.139-.775.763-.772,6.183.026,12.366.016,18.548.016h20.226Z" transform="translate(-51.671 -10.466)" fill="#ead0b6"/>
    <path id="Trazado_641279" data-name="Trazado 641279" d="M111.749,1075.886c-3.926,0-7.851-.017-11.776.016-.658.006-.842-.155-.815-.816.055-1.4.039-2.811,0-4.216-.012-.513.163-.623.645-.623q12.04.021,24.08,0c.5,0,.646.133.634.634-.033,1.434-.042,2.871,0,4.3.019.594-.179.716-.736.713C119.775,1075.875,115.762,1075.886,111.749,1075.886Z" transform="translate(-5.137 -144.854)" fill="#f6c74f"/>
    <path id="Trazado_641280" data-name="Trazado 641280" d="M111.848,1046.3c3.956,0,7.911.017,11.867-.016.651-.006.845.143.818.811-.057,1.4-.039,2.812-.006,4.217.012.5-.147.628-.637.627q-12.043-.021-24.085,0c-.491,0-.648-.125-.636-.628.033-1.434.041-2.871,0-4.305-.018-.584.162-.721.728-.718C103.879,1046.311,107.864,1046.3,111.848,1046.3Z" transform="translate(-5.144 -129.338)" fill="#f5d67f"/>
    <path id="Trazado_641281" data-name="Trazado 641281" d="M111.785,1027.988c-3.926,0-7.851-.02-11.776.019-.712.007-.871-.206-.846-.873.05-1.375.032-2.753.006-4.128-.009-.466.079-.659.609-.657q12.084.025,24.168,0c.479,0,.585.155.577.6-.025,1.464-.04,2.929.006,4.392.018.581-.2.659-.7.656C119.811,1027.979,115.8,1027.988,111.785,1027.988Z" transform="translate(-5.14 -113.842)" fill="#f6c74f"/>
    <path id="Trazado_641282" data-name="Trazado 641282" d="M297.857,863.16c-2.109,0-4.217-.022-6.326.014-.585.01-.74-.165-.72-.732.043-1.17,0-2.342.017-3.513a4.2,4.2,0,0,1,4.183-4.206q2.855-.042,5.711,0a4.2,4.2,0,0,1,4.17,4.128c.03,1.229-.017,2.46.019,3.689.014.5-.151.635-.641.63C302.133,863.146,300,863.16,297.857,863.16Z" transform="translate(-129.225 -5.299)" fill="#aab1bb"/>
    <path id="Trazado_641283" data-name="Trazado 641283" d="M290.827,912.37c0-3.015.016-6.031-.013-9.046-.006-.575.151-.741.726-.724,1.4.042,2.811.03,4.216,0,.485-.009.718.044.716.642q-.037,9.222,0,18.444c0,.5-.135.645-.635.634-1.434-.033-2.871-.042-4.3,0-.594.019-.719-.179-.714-.736C290.841,918.518,290.827,915.444,290.827,912.37Z" transform="translate(-129.227 -36.309)" fill="#bbda89"/>
    <path id="Trazado_641284" data-name="Trazado 641284" d="M314.783,912.47c0-3.044.012-6.088-.012-9.131,0-.549.107-.762.71-.743,1.433.047,2.869.035,4.3,0,.495-.011.641.128.64.632q-.025,9.219,0,18.438c0,.475-.1.664-.619.652-1.434-.035-2.87-.038-4.3,0-.569.016-.736-.141-.73-.722C314.8,918.558,314.783,915.514,314.783,912.47Z" transform="translate(-144.737 -36.307)" fill="#ee8774"/>
    <path id="Trazado_641285" data-name="Trazado 641285" d="M236.876,892.274c-3.078,0-6.155-.017-9.232.015-.59.006-.727-.169-.711-.729.039-1.406.03-2.813,0-4.219-.009-.485.04-.713.64-.711q9.232.039,18.465,0c.509,0,.631.152.622.638-.03,1.464-.034,2.93,0,4.395.012.515-.163.62-.642.617C242.972,892.264,239.924,892.274,236.876,892.274Z" transform="translate(-87.866 -25.97)" fill="#e5e8eb"/>
    <path id="Trazado_641286" data-name="Trazado 641286" d="M166.337,892.124c-3.517,0-7.034-.013-10.55.013-.564,0-.731-.129-.728-.714.012-2.113-.012-2.113,2.127-2.113,1,0,1.993-.02,2.989.009.424.013.6-.12.53-.54a.487.487,0,0,1,0-.088c.014-.7-.245-1.663.112-2.03.464-.478,1.432-.157,2.182-.159,4.6-.013,9.2.008,13.8-.024.658,0,.839.152.811.812-.057,1.375-.047,2.754,0,4.13.019.581-.154.722-.723.717C173.371,892.111,169.854,892.124,166.337,892.124Z" transform="translate(-41.333 -25.821)" fill="#e5e8eb"/>
    <path id="Trazado_641287" data-name="Trazado 641287" d="M136.761,901.95c0,2.2-.011,4.4.008,6.594,0,.532-.013.783-.7.6a12.967,12.967,0,0,0-4.356-.41c-.464.035-.6-.087-.6-.558q.025-6.506,0-13.012c0-.428.129-.544.546-.537,1.495.023,2.991.031,4.485,0,.518-.012.623.168.618.646C136.748,897.5,136.761,899.723,136.761,901.95Z" transform="translate(-25.834 -31.145)" fill="#ead0b6"/>
    <path id="Trazado_641288" data-name="Trazado 641288" d="M293.351,966.557h12.3c-.391.8-.751,1.534-1.116,2.27-.454.916-.941,1.816-1.356,2.749a.921.921,0,0,1-1.012.6c-1.785-.029-3.571-.013-5.356-.01-.351,0-.657.029-.862-.4C295.126,970.061,294.262,968.375,293.351,966.557Z" transform="translate(-130.87 -77.72)" fill="#aab1bb"/>
    <path id="Trazado_641289" data-name="Trazado 641289" d="M297.942,886.655c2.109,0,4.219.014,6.328-.011.484-.006.634.114.641.621.03,2.2.049,2.2-2.124,2.2-3.75,0-7.5-.012-11.25.012-.558,0-.735-.121-.732-.711.012-2.115-.013-2.116,2.126-2.116Z" transform="translate(-129.222 -25.98)" fill="#fbe9ae"/>
    <path id="Trazado_641290" data-name="Trazado 641290" d="M138.759,874.021c.348-.3.531-.478.727-.634,2.573-2.052,5.147-4.1,7.85-6.256,0,2.261-.01,4.355.008,6.448,0,.441-.227.446-.548.445C144.195,874.019,141.592,874.021,138.759,874.021Z" transform="translate(-30.779 -13.346)" fill="#bad989"/>
    <path id="Trazado_641291" data-name="Trazado 641291" d="M174.445,993.251c.335-.905.647-1.717.932-2.537.108-.31.338-.276.567-.276,2.7,0,5.4.006,8.093-.009.4,0,.467.155.489.515.14,2.307.149,2.307-2.121,2.307Z" transform="translate(-53.884 -93.176)" fill="#ed8773"/>
    <path id="Trazado_641292" data-name="Trazado 641292" d="M174.4,958.506c3.279,0,6.445.006,9.61-.008.4,0,.466.157.488.515.14,2.307.148,2.307-2.121,2.307-2.082,0-4.164-.019-6.245.013a.781.781,0,0,1-.916-.668C175.015,959.97,174.706,959.307,174.4,958.506Z" transform="translate(-53.853 -72.502)" fill="#ed8773"/>
    <path id="Trazado_641293" data-name="Trazado 641293" d="M181.875,1055.765c0,1.361,0,1.361-1.366,1.361-1.448,0-1.448,0-1.448-1.453,0-1.36,0-1.36,1.366-1.36C181.875,1054.312,181.875,1054.312,181.875,1055.765Z" transform="translate(-56.872 -134.537)" fill="#bbda89"/>
    <path id="Trazado_641294" data-name="Trazado 641294" d="M309.21,990.658c-.37.747-.693,1.49-1.1,2.187a.869.869,0,0,1-1.6,0c-.392-.678-.711-1.4-1.1-2.185Z" transform="translate(-138.677 -93.324)" fill="#aab1bb"/>
    <path id="Trazado_641295" data-name="Trazado 641295" d="M266.878,1050.535c0-1.23.017-2.46-.009-3.689-.009-.421.117-.545.54-.542q3.691.028,7.381,0c.42,0,.545.117.542.54q-.028,3.689,0,7.378c0,.42-.117.545-.54.542q-3.69-.027-7.381,0c-.42,0-.551-.117-.542-.54C266.9,1052.995,266.878,1051.765,266.878,1050.535Zm4.235-1.408c-1.419,0-1.419,0-1.42.958,0,1.856,0,1.856,1.045,1.857,1.769,0,1.769,0,1.77-1.045C272.509,1049.127,272.509,1049.127,271.114,1049.127Z" transform="translate(-113.724 -129.352)"/>
    <path id="Trazado_641296" data-name="Trazado 641296" d="M243.384,1050.534c0,1.23-.017,2.46.009,3.689.009.423-.121.544-.542.541q-3.69-.027-7.381,0c-.422,0-.544-.121-.541-.542q.028-3.689,0-7.378c0-.422.121-.544.542-.541q3.69.027,7.381,0c.422,0,.55.12.541.542C243.368,1048.075,243.384,1049.3,243.384,1050.534Zm-2.815.069c0-1.477,0-1.477-1.425-1.477-1.39,0-1.39,0-1.39,1.425,0,1.39,0,1.39,1.425,1.39C240.569,1051.941,240.569,1051.941,240.569,1050.6Z" transform="translate(-93.045 -129.352)"/>
    <path id="Trazado_641297" data-name="Trazado 641297" d="M207.22,1046.311c1.23,0,2.461.017,3.69-.009.421-.009.545.118.542.54q-.028,3.689,0,7.378c0,.42-.117.545-.54.542q-3.69-.027-7.381,0c-.42,0-.545-.117-.542-.54q.028-3.689,0-7.379c0-.42.117-.551.54-.542C204.76,1046.328,205.99,1046.311,207.22,1046.311Zm-.012,5.628c1.419,0,1.419,0,1.42-.958,0-1.856,0-1.856-1.045-1.857-1.769,0-1.769,0-1.77,1.045C205.813,1051.94,205.813,1051.94,207.209,1051.94Z" transform="translate(-72.366 -129.351)"/>
    <path id="Trazado_641298" data-name="Trazado 641298" d="M241.956,969.291c-2.139,0-4.278-.016-6.417.012-.5.006-.625-.136-.631-.63-.027-2.2-.044-2.2,2.13-2.2,3.751,0,7.5.013,11.253-.014.575,0,.723.148.721.72-.012,2.108.011,2.108-2.132,2.108Z" transform="translate(-93.027 -77.659)"/>
    <path id="Trazado_641299" data-name="Trazado 641299" d="M241.923,1001.219c-2.11,0-4.22-.019-6.33.013-.534.008-.683-.118-.683-.671,0-2.157-.022-2.157,2.171-2.157,3.722,0,7.444.015,11.165-.015.609-.005.781.134.772.76-.03,2.069,0,2.069-2.085,2.069Z" transform="translate(-93.032 -98.33)"/>
    <path id="Trazado_641300" data-name="Trazado 641300" d="M241.914,937.355c-2.11,0-4.22-.022-6.33.015-.559.01-.669-.156-.669-.684,0-2.145-.021-2.145,2.094-2.145,3.751,0,7.5.016,11.253-.016.628-.005.767.168.759.773-.027,2.057,0,2.057-2.1,2.057Z" transform="translate(-93.035 -56.98)"/>
    <path id="Trazado_641301" data-name="Trazado 641301" d="M261.642,953.335c-.762,0-1.523-.019-2.284.008-.381.013-.551-.1-.49-.491a.484.484,0,0,0,0-.088c-.079-2.244-.079-2.244,2.154-2.244,1,0,1.992.016,2.987-.008.381-.009.551.1.49.491a.455.455,0,0,0,0,.088c.079,2.244.079,2.244-2.154,2.244Z" transform="translate(-108.529 -67.331)"/>
    <path id="Trazado_641302" data-name="Trazado 641302" d="M237.7,982.467h.7c2.335,0,2.326,0,2.12,2.377-.03.34-.119.446-.457.443q-2.372-.021-4.744,0c-.345,0-.487-.111-.44-.451a.482.482,0,0,0,0-.087c-.114-2.283-.114-2.283,2.115-2.283Z" transform="translate(-92.992 -88.021)"/>
    <path id="Trazado_641303" data-name="Trazado 641303" d="M261.563,985.27h-.7c-2.332,0-2.323,0-2.125-2.371.028-.334.105-.453.451-.45q2.372.022,4.744,0c.338,0,.494.1.446.444a.487.487,0,0,0,0,.088c.118,2.288.118,2.288-2.2,2.288Z" transform="translate(-108.406 -88.009)"/>
    <path id="Trazado_641304" data-name="Trazado 641304" d="M261.74,918.6h.615c2.332,0,2.323,0,2.124,2.372-.028.335-.108.452-.451.448q-2.372-.022-4.744,0c-.339,0-.493-.1-.445-.445a.458.458,0,0,0,0-.088c-.117-2.288-.117-2.288,2.2-2.288Z" transform="translate(-108.499 -46.673)"/>
    <path id="Trazado_641305" data-name="Trazado 641305" d="M237.689,921.4c-.762,0-1.523-.017-2.284.007-.373.012-.558-.089-.495-.485a.458.458,0,0,0,0-.088c-.083-2.249-.083-2.249,2.149-2.249,1,0,1.992.015,2.987-.007.373-.008.558.09.495.485a.458.458,0,0,0,0,.088c.083,2.249.083,2.249-2.149,2.249Z" transform="translate(-93.016 -46.658)"/>
    <path id="Trazado_641306" data-name="Trazado 641306" d="M237.593,953.339h-.7c-2.335,0-2.325,0-2.12-2.377.03-.34.119-.446.457-.444q2.372.021,4.744,0c.345,0,.487.111.441.45a.457.457,0,0,0,0,.088c.114,2.283.114,2.283-2.115,2.283Z" transform="translate(-92.887 -67.335)"/>
    <path id="Trazado_641307" data-name="Trazado 641307" d="M131.514,964.823c0,.787.289,1.781-.083,2.3-.354.5-1.417.147-2.167.15-.441,0-.576.16-.52.562a1.168,1.168,0,0,1,0,.176c-.026,2.243-.026,2.233-2.319,2.1-.37-.021-.549-.1-.5-.494.022-.173-.008-.352.005-.527.092-1.177.036-2.122-1.253-2.869-1.509-.875-1.664-2.575-1.568-4.222.016-.273.132-.352.378-.342s.469,0,.7,0c.528,0,1.164-.173,1.554.061.451.27.116.964.189,1.467a1.988,1.988,0,0,0,2.662,1.271.38.38,0,0,0,.128-.114,1.977,1.977,0,0,0-1.336-2.681c-2.937-.347-4.274-1.86-4.275-4.839,0-1.026.019-2.052-.009-3.077-.012-.428.131-.535.546-.543.748-.014,1.748.344,2.172-.165.364-.436.112-1.4.1-2.13-.006-.36.078-.492.478-.52,2.343-.159,2.364-.172,2.329,2.167a1.194,1.194,0,0,0,.718,1.281,4.487,4.487,0,0,1,2.12,4.668c-.046.263-.136.351-.383.34s-.469,0-.7,0c-.528,0-1.164.173-1.554-.061-.451-.27-.116-.963-.189-1.467a1.986,1.986,0,0,0-2.661-1.27.378.378,0,0,0-.128.113,2.017,2.017,0,0,0,1.248,2.675c3.251.5,4.362,1.8,4.362,5.108q0,.439,0,.879Z" transform="translate(-20.633 -67.213)" fill="#010101"/>
    <path id="Trazado_641308" data-name="Trazado 641308" d="M171.507,918.58c2.579,0,5.159.018,7.738-.014.57-.007.732.139.723.718q-.051,3.516,0,7.032c.008.574-.146.723-.72.72q-7.738-.035-15.476,0c-.569,0-.731-.139-.723-.717q.051-3.516,0-7.032c-.008-.574.145-.728.72-.721C166.348,918.6,168.927,918.58,171.507,918.58Zm0,5.628h3.6c2.068,0,2.044,0,2.049-2.109,0-.584-.171-.723-.734-.718-2.807.028-5.614.013-8.421.013-2.192,0-2.174,0-2.135,2.2.009.506.154.636.644.628C168.174,924.19,169.842,924.208,171.508,924.208Z" transform="translate(-46.505 -46.647)"/>
    <path id="Trazado_641309" data-name="Trazado 641309" d="M276.3,1054.311c1.4,0,1.4,0,1.4,1.769,0,1.046,0,1.046-1.77,1.045-1.047,0-1.047,0-1.045-1.857C274.882,1054.311,274.882,1054.311,276.3,1054.311Z" transform="translate(-118.912 -134.536)" fill="#bbda89"/>
    <path id="Trazado_641310" data-name="Trazado 641310" d="M245.756,1055.788c0,1.337,0,1.337-1.39,1.337-1.425,0-1.425,0-1.425-1.39,0-1.425,0-1.425,1.39-1.425C245.756,1054.311,245.756,1054.311,245.756,1055.788Z" transform="translate(-98.232 -134.536)" fill="#bbda89"/>
    <path id="Trazado_641311" data-name="Trazado 641311" d="M212.395,1057.125c-1.4,0-1.4,0-1.4-1.769,0-1.045,0-1.045,1.77-1.045,1.047,0,1.047,0,1.045,1.857C213.814,1057.125,213.814,1057.125,212.395,1057.125Z" transform="translate(-77.552 -134.536)" fill="#bbda89"/>
    <path id="Trazado_641312" data-name="Trazado 641312" d="M176.662,929.379c-1.667,0-3.334-.018-5,.011-.49.008-.636-.122-.644-.628-.039-2.2-.057-2.2,2.135-2.2,2.807,0,5.614.015,8.421-.013.563-.005.735.134.734.718,0,2.109.019,2.109-2.049,2.109Z" transform="translate(-51.659 -51.818)" fill="#ee8774"/>
  </g>
</svg>
