<svg xmlns="http://www.w3.org/2000/svg" width="85" height="85" viewBox="0 0 85 85">
  <g id="Grupo_974518" data-name="Grupo 974518" transform="translate(-180 -6099)">
    <rect id="Rectángulo_34178" data-name="Rectángulo 34178" width="85" height="85" transform="translate(180 6099)" fill="none"/>
    <g id="Grupo_982381" data-name="Grupo 982381" transform="translate(-96.734 5198.245)">
      <path id="Trazado_641536" data-name="Trazado 641536" d="M328.462,924.417a1.586,1.586,0,0,1,1.551-.783c2.091.022,4.181.005,6.272.01.908,0,1.266.3,1.419,1.178.227,1.3.438,2.6.673,3.9a1.652,1.652,0,0,0,2.088.832c1.058-.749,2.107-1.51,3.166-2.256a1.2,1.2,0,0,1,1.845.144q2.276,2.26,4.537,4.537a1.213,1.213,0,0,1,.149,1.9c-.733,1.039-1.462,2.082-2.224,3.1a.971.971,0,0,0-.093.962,1.63,1.63,0,0,0,1.728,1.323c1.072.087,2.13.342,3.194.524a1.147,1.147,0,0,1,1.069,1.228q.011,3.388,0,6.776a1.146,1.146,0,0,1-1.068,1.229c-1.207.2-2.412.413-3.623.591a1.278,1.278,0,0,0-1.141.849,1.484,1.484,0,0,0,.217,1.785c.709.875,1.333,1.819,1.98,2.742a1.173,1.173,0,0,1-.139,1.789q-2.283,2.305-4.585,4.59a1.214,1.214,0,0,1-1.85.153,19.456,19.456,0,0,1-2.035-1.481,3.032,3.032,0,0,0-2.4-.648c-.293.012-.384.114-.351.381a1.208,1.208,0,0,1,0,.144c0,.552-.183,1.216.06,1.627s.963.11,1.469.173a3.453,3.453,0,0,1,3.07,3.29q.059,4.757,0,9.515a3.431,3.431,0,0,1-3.328,3.33c-.192.008-.385,0-.577,0H298.952c-2.583,0-3.944-1.366-3.944-3.955q0-4.253,0-8.506a3.429,3.429,0,0,1,3.7-3.668c.737.014.967-.157.928-.917-.07-1.338-.02-1.341-1.351-1.414a3.383,3.383,0,0,1-3.139-2.618.864.864,0,0,0-.809-.784,22.635,22.635,0,0,1-7.2-2.388,6.387,6.387,0,0,1-1.633-1.289,3.325,3.325,0,0,1-.892-2.288q.01-17.121,0-34.241a3.636,3.636,0,0,1,1.6-2.984,14.673,14.673,0,0,1,5.408-2.425,60.657,60.657,0,0,1,17.791-1.669,52.586,52.586,0,0,1,12.028,1.661,17.3,17.3,0,0,1,4.826,2,4.253,4.253,0,0,1,2.214,4.054c-.109,2.422-.027,4.853-.027,7.28Zm9.08,18.814c1.007.025,2.021-.014,3.018.1.52.06.5-.1.446-.467a8.033,8.033,0,0,0-7.647-6.5,7.7,7.7,0,0,0-4.566,1.229.643.643,0,0,0-.337.64c.013,1.509.015,3.019,0,4.529,0,.352.059.5.462.5C331.792,943.238,334.667,943.238,337.542,943.231Zm-18.025-30.943a43.454,43.454,0,0,0-7.177-1.089,63.1,63.1,0,0,0-18.766,1.07,16.469,16.469,0,0,0-5.748,2.182c-1.19.8-1.182,1.426,0,2.232a14.715,14.715,0,0,0,4.633,1.9,55.179,55.179,0,0,0,14.413,1.588,54.165,54.165,0,0,0,12.645-1.326,20.064,20.064,0,0,0,4.5-1.449,5.7,5.7,0,0,0,1.748-1.12c.517-.525.513-.9,0-1.423A4.628,4.628,0,0,0,324.53,914,19.362,19.362,0,0,0,319.518,912.289Zm17.885,33.3c-.1-.008-.191-.023-.286-.023q-19.2,0-38.4,0c-.987,0-1.4.413-1.4,1.405q-.008,4.214,0,8.429c0,1.379.316,1.7,1.687,1.7h37.681c.24,0,.479-.015.719-.023.837.007,1.675.034,2.512.018a1.143,1.143,0,0,0,1.232-1.273q.016-4.488,0-8.977a1.141,1.141,0,0,0-1.231-1.273C339.078,945.551,338.241,945.577,337.4,945.584Zm0,29.942c.837.008,1.675.034,2.512.017a1.143,1.143,0,0,0,1.232-1.273q.016-4.488,0-8.977a1.14,1.14,0,0,0-1.231-1.273c-.837-.016-1.675.01-2.512.018-.1-.008-.191-.022-.286-.022q-19.2,0-38.4,0c-.987,0-1.4.414-1.4,1.406q-.008,4.214,0,8.429c0,1.379.316,1.7,1.687,1.7h37.681C336.923,975.55,337.163,975.535,337.4,975.527Zm-14.7-46.1a8.36,8.36,0,0,0,2.871-1.43,1.4,1.4,0,0,0,.593-1.237c-.029-1.246-.009-2.494-.009-3.74v-4.18a22.588,22.588,0,0,1-3.469,1.58,47.372,47.372,0,0,1-6.1,1.357,69.759,69.759,0,0,1-14.732.563A48.332,48.332,0,0,1,290.8,920.5a21.125,21.125,0,0,1-3.863-1.642c0,2.759,0,5.423,0,8.087a1.327,1.327,0,0,0,.625,1.074,8.882,8.882,0,0,0,2.334,1.259,40.973,40.973,0,0,0,12.187,2.294,65.435,65.435,0,0,0,14.369-.579A26.461,26.461,0,0,0,322.7,929.425Zm0,11.539a8.771,8.771,0,0,0,2.759-1.345,1.518,1.518,0,0,0,.7-1.4c-.041-.982-.011-1.967-.011-2.95v-4.9a22.581,22.581,0,0,1-3.469,1.584,48.365,48.365,0,0,1-6.1,1.357,69.631,69.631,0,0,1-15.02.548,47.27,47.27,0,0,1-10.833-1.84,19.635,19.635,0,0,1-3.794-1.635c0,2.41.106,4.721-.038,7.016a2.593,2.593,0,0,0,1.751,2.853c.2.086.385.2.583.281a34.582,34.582,0,0,0,10.694,2.412,66.76,66.76,0,0,0,16.6-.423A26.25,26.25,0,0,0,322.7,940.964Zm5.76-5.88c.265-.1.441-.167.613-.238a10.384,10.384,0,0,1,14.046,6.864,21.116,21.116,0,0,1,.315,5.214c.082,2.953.02,5.91.025,8.865a2.4,2.4,0,0,1-.27,1.395c-.511.737-.259,1.163.446,1.5a1.491,1.491,0,0,1,.349.253c.266.244.464.208.719-.056.918-.95,1.848-1.89,2.805-2.8.319-.3.3-.5.057-.835-.716-.963-1.387-1.959-2.1-2.927a1.287,1.287,0,0,1-.14-1.475,13.935,13.935,0,0,0,.954-2.324,1.29,1.29,0,0,1,1.14-.95c1.185-.182,2.366-.4,3.552-.578.378-.058.582-.157.569-.618-.037-1.32-.032-2.643,0-3.964.01-.417-.161-.529-.522-.585-1.162-.179-2.316-.412-3.481-.564a1.435,1.435,0,0,1-1.319-1.13,10.14,10.14,0,0,0-.845-2.057,1.407,1.407,0,0,1,.149-1.667c.7-.942,1.359-1.92,2.056-2.867.22-.3.255-.493-.043-.779q-1.431-1.371-2.8-2.8a.491.491,0,0,0-.777-.074c-.985.726-2,1.415-2.988,2.134a1.3,1.3,0,0,1-1.48.119,12.877,12.877,0,0,0-2.258-.924,1.322,1.322,0,0,1-1-1.182c-.175-1.186-.4-2.366-.574-3.552-.06-.4-.205-.555-.641-.544q-1.945.051-3.892,0c-.439-.012-.578.146-.638.547-.173,1.162-.4,2.317-.563,3.481a1.333,1.333,0,0,1-1.012,1.25c-.383.1-.469.3-.461.666C328.476,932.914,328.462,933.947,328.462,935.084Zm-41.529,6.808c0,2.692.017,5.261-.012,7.83a1.636,1.636,0,0,0,.681,1.42,7.929,7.929,0,0,0,1.608.949,25.389,25.389,0,0,0,5.288,1.6c.446.094.521,0,.517-.418-.018-1.826,0-3.652-.012-5.478a4.858,4.858,0,0,1,.651-3.086A25.583,25.583,0,0,1,286.933,941.891Zm32.3,17.511h-8.794c-1.59,0-1.557,0-1.6,1.586-.018.605.145.738.741.736,6.127-.025,12.253-.015,18.38-.015,1.668,0,1.641,0,1.675-1.658.011-.544-.133-.666-.667-.662C325.72,959.416,322.476,959.4,319.232,959.4Zm-15.067,2.306h.647c1.924,0,1.917,0,1.74-1.945-.025-.276-.1-.368-.375-.366q-1.94.016-3.881,0c-.277,0-.349.092-.374.367-.176,1.945-.184,1.944,1.741,1.944ZM334.3,959.4h-.647c-1.927,0-1.919,0-1.735,1.95.027.281.11.363.381.361,1.293-.01,2.587-.006,3.88,0,.213,0,.373-.019.363-.3-.023-.642.165-1.392-.109-1.892-.2-.36-1.018-.078-1.559-.116C334.68,959.391,334.488,959.4,334.3,959.4Zm-10.691-16.15h1.465c1.117,0,1.117,0,1.07-1.148,0-.033-.047-.064-.1-.128C325.251,942.412,324.441,942.83,323.605,943.253Z" fill="#020101"/>
      <path id="Trazado_641537" data-name="Trazado 641537" d="M465.786,916.624q4.289,0,8.577,0c1.131,0,1.514.381,1.515,1.507,0,3.988-.008,7.976.01,11.964a1.873,1.873,0,0,1-.61,1.465c-.969.933-1.916,1.889-2.853,2.855-.259.267-.425.291-.678,0-.389-.451-1.088-.839-1.141-1.311-.041-.37.648-.9,1.1-1.231a4.677,4.677,0,0,0,1.908-4.513c-.179-2.582-.063-5.186-.03-7.781.007-.546-.136-.662-.668-.66-5.31.022-10.62,0-15.929.029-.6,0-.754-.14-.737-.739.045-1.583.014-1.584,1.606-1.584Z" transform="translate(-122.037 -5.669)" fill="#010101"/>
      <path id="Trazado_641538" data-name="Trazado 641538" d="M292.606,1097.057c0-1.418.012-2.835-.008-4.252-.005-.395.029-.584.522-.585,1.793,0,1.793-.027,1.793,1.757,0,1.9.026,3.8-.016,5.693-.012.561.156.683.677.652.766-.046,1.538.014,2.305-.022.428-.02.5.139.5.528.018,1.789.031,1.789-1.755,1.789-.889,0-1.778.007-2.667,0-.933-.01-1.348-.431-1.354-1.377C292.6,1099.844,292.606,1098.451,292.606,1097.057Z" transform="translate(-5.674 -130.526)"/>
      <path id="Trazado_641539" data-name="Trazado 641539" d="M294.933,1077.4c0,1.215,0,1.215-1.236,1.215-1.071,0-1.071,0-1.071-1.092,0-1.215,0-1.215,1.236-1.215C294.933,1076.306,294.933,1076.306,294.933,1077.4Z" transform="translate(-5.693 -119.211)"/>
      <path id="Trazado_641540" data-name="Trazado 641540" d="M441.51,916.626c1.139,0,1.139,0,1.139,1.168,0,1.139,0,1.139-1.169,1.139-1.139,0-1.139,0-1.139-1.168C440.341,916.626,440.341,916.626,441.51,916.626Z" transform="translate(-110.726 -5.671)"/>
      <path id="Trazado_641541" data-name="Trazado 641541" d="M328.279,994.44A26.25,26.25,0,0,1,322.1,996a66.76,66.76,0,0,1-16.6.423,34.582,34.582,0,0,1-10.694-2.412c-.2-.086-.385-.195-.583-.281a2.593,2.593,0,0,1-1.751-2.853c.144-2.295.038-4.606.038-7.016a19.635,19.635,0,0,0,3.794,1.635,47.27,47.27,0,0,0,10.833,1.84,69.631,69.631,0,0,0,15.02-.548,48.365,48.365,0,0,0,6.1-1.357Q328.271,989.934,328.279,994.44Z" transform="translate(-5.578 -53.476)" fill="#bcaa93"/>
      <path id="Trazado_641542" data-name="Trazado 641542" d="M328.388,954.544a26.462,26.462,0,0,1-6.254,1.568,65.435,65.435,0,0,1-14.369.579,40.975,40.975,0,0,1-12.187-2.294,8.88,8.88,0,0,1-2.334-1.259,1.327,1.327,0,0,1-.625-1.074c.006-2.664,0-5.329,0-8.087a21.125,21.125,0,0,0,3.863,1.642,48.332,48.332,0,0,0,11.052,1.838,69.763,69.763,0,0,0,14.732-.563,47.362,47.362,0,0,0,6.1-1.357Q328.38,950.04,328.388,954.544Z" transform="translate(-5.688 -25.119)" fill="#bcaa93"/>
      <path id="Trazado_641543" data-name="Trazado 641543" d="M368.642,1111.77c-.24.008-.479.023-.719.023H330.243c-1.371,0-1.687-.319-1.687-1.7q0-4.214,0-8.429c0-.992.411-1.405,1.4-1.405q19.2,0,38.4,0c.1,0,.191.014.286.022a4.465,4.465,0,0,1,.285,2.259c-1.152.06-1.152.06-1.152,1.105,0,1.189,0,1.189,1.152,1.249v2.259c-1.152.06-1.152.06-1.152,1.106,0,1.189,0,1.189,1.152,1.249A4.456,4.456,0,0,1,368.642,1111.77Zm-21.631-5.727c0-.743.014-1.487,0-2.229a1.132,1.132,0,0,0-1.192-1.24q-2.265-.032-4.531,0a1.109,1.109,0,0,0-1.186,1.169q-.034,2.265,0,4.531a1.126,1.126,0,0,0,1.224,1.207q2.229.027,4.459,0a1.148,1.148,0,0,0,1.228-1.28C347.024,1107.482,347.012,1106.763,347.012,1106.043Zm-9.228-.029c0-.719.012-1.439,0-2.158a1.161,1.161,0,0,0-1.295-1.287q-2.158-.02-4.316,0a1.155,1.155,0,0,0-1.3,1.275q-.022,2.194,0,4.387a1.141,1.141,0,0,0,1.255,1.251q2.193.024,4.387,0a1.164,1.164,0,0,0,1.272-1.311C337.794,1107.453,337.784,1106.734,337.783,1106.014Zm19.61-3.448h-6.407c-1.678,0-1.651,0-1.682,1.659-.01.553.152.663.677.661,4.607-.022,9.215-.012,13.822-.012,1.694,0,1.674,0,1.679-1.731,0-.483-.144-.59-.6-.586C362.384,1102.578,359.888,1102.566,357.393,1102.566Zm.006,6.921h6.407c1.676,0,1.648,0,1.679-1.662.011-.558-.16-.66-.68-.657-4.583.021-9.167.012-13.75.012-1.764,0-1.743,0-1.749,1.734,0,.488.153.587.606.583C352.408,1109.476,354.9,1109.487,357.4,1109.487Z" transform="translate(-31.24 -136.243)" fill="#68a3f7"/>
      <path id="Trazado_641544" data-name="Trazado 641544" d="M368.642,1047.9c-.24.008-.479.023-.719.023H330.243c-1.371,0-1.687-.319-1.687-1.7q0-4.214,0-8.429c0-.992.411-1.405,1.4-1.406q19.2,0,38.4,0c.1,0,.191.015.286.023a4.463,4.463,0,0,1,.285,2.259c-1.152.06-1.152.06-1.152,1.106,0,1.189,0,1.189,1.152,1.249v2.26c-1.152.06-1.152.06-1.152,1.106,0,1.189,0,1.189,1.152,1.249A4.456,4.456,0,0,1,368.642,1047.9Zm-28.552-5.813c0,.743-.011,1.487,0,2.23a1.161,1.161,0,0,0,1.285,1.3c1.462.014,2.925.016,4.387,0a1.143,1.143,0,0,0,1.242-1.265q.023-2.193,0-4.387a1.141,1.141,0,0,0-1.248-1.258q-2.193-.025-4.387,0a1.16,1.16,0,0,0-1.279,1.3C340.081,1040.695,340.091,1041.39,340.091,1042.085Zm-2.307.052c0-.719.012-1.438,0-2.157a1.146,1.146,0,0,0-1.228-1.279q-2.229-.028-4.459,0a1.124,1.124,0,0,0-1.225,1.206q-.029,2.229,0,4.459a1.141,1.141,0,0,0,1.26,1.246q2.194.023,4.387,0a1.164,1.164,0,0,0,1.266-1.316C337.793,1043.576,337.784,1042.856,337.783,1042.137ZM357.4,1041h6.407c1.673,0,1.644,0,1.676-1.665.011-.565-.17-.656-.684-.654-4.583.02-9.166.012-13.75.012-1.761,0-1.74,0-1.746,1.737,0,.494.162.583.61.579C352.411,1040.991,354.907,1041,357.4,1041Zm.066,2.307h-6.479c-1.681,0-1.655,0-1.685,1.655-.01.547.142.667.674.665,4.607-.022,9.214-.013,13.822-.013,1.7,0,1.677,0,1.682-1.728,0-.477-.135-.594-.6-.59C362.411,1043.32,359.94,1043.308,357.468,1043.308Z" transform="translate(-31.24 -90.827)" fill="#68a3f7"/>
      <path id="Trazado_641545" data-name="Trazado 641545" d="M325.221,924.51a54.161,54.161,0,0,1-12.645,1.326,55.184,55.184,0,0,1-14.413-1.587,14.716,14.716,0,0,1-4.633-1.9c-1.182-.805-1.19-1.431,0-2.232a16.471,16.471,0,0,1,5.748-2.182,63.1,63.1,0,0,1,18.766-1.07,43.466,43.466,0,0,1,7.177,1.089c.047.3.327.317.522.436.489.3,1,.563,1.465.9,1.326.961,1.564,2.283.628,3.3a6.737,6.737,0,0,1-1.284,1.023C326.108,923.906,325.529,924.011,325.221,924.51Z" transform="translate(-5.704 -5.662)" fill="#f6cb45"/>
      <path id="Trazado_641546" data-name="Trazado 641546" d="M436.329,977.624c0-1.137.014-2.169-.008-3.2-.008-.364.078-.566.461-.666a1.333,1.333,0,0,0,1.012-1.25c.162-1.164.39-2.318.563-3.481.06-.4.2-.559.638-.547q1.945.051,3.892,0c.436-.011.581.139.641.544.175,1.186.4,2.366.574,3.552a1.322,1.322,0,0,0,1,1.182,12.879,12.879,0,0,1,2.258.924,1.3,1.3,0,0,0,1.48-.119c.99-.72,2-1.409,2.988-2.134a.491.491,0,0,1,.777.074q1.375,1.428,2.8,2.8c.3.285.264.479.043.779-.7.947-1.352,1.925-2.056,2.867a1.407,1.407,0,0,0-.149,1.667,10.138,10.138,0,0,1,.845,2.057,1.435,1.435,0,0,0,1.319,1.13c1.165.152,2.319.385,3.481.564.361.055.532.168.522.585-.03,1.321-.035,2.643,0,3.964.013.461-.191.56-.569.618-1.186.182-2.367.4-3.552.578a1.29,1.29,0,0,0-1.14.95,13.938,13.938,0,0,1-.954,2.324,1.287,1.287,0,0,0,.14,1.475c.708.969,1.379,1.965,2.1,2.927.246.331.262.531-.057.835-.957.91-1.887,1.85-2.805,2.8-.255.264-.453.3-.719.056a1.491,1.491,0,0,0-.349-.253c-.705-.339-.957-.766-.446-1.5a2.4,2.4,0,0,0,.27-1.395c0-2.955.057-5.912-.025-8.865a21.118,21.118,0,0,0-.315-5.214,10.384,10.384,0,0,0-14.046-6.864C436.77,977.457,436.594,977.521,436.329,977.624Z" transform="translate(-107.868 -42.54)" fill="#f9e8a1"/>
      <path id="Trazado_641547" data-name="Trazado 641547" d="M292.6,1023.689a25.583,25.583,0,0,0,8.721,2.82,4.858,4.858,0,0,0-.651,3.086c.014,1.826-.006,3.652.012,5.478,0,.416-.07.512-.517.418a25.388,25.388,0,0,1-5.288-1.6,7.932,7.932,0,0,1-1.608-.949,1.637,1.637,0,0,1-.681-1.42C292.614,1028.95,292.6,1026.381,292.6,1023.689Z" transform="translate(-5.664 -81.798)" fill="#bba993"/>
      <path id="Trazado_641548" data-name="Trazado 641548" d="M445.413,1011.394c-2.875.007-5.75.006-8.625.031-.4,0-.466-.147-.462-.5.016-1.51.014-3.019,0-4.529a.643.643,0,0,1,.337-.64,7.7,7.7,0,0,1,4.566-1.229c.11.453.557.56.854.815A8.845,8.845,0,0,1,445.413,1011.394Z" transform="translate(-107.87 -68.163)" fill="#c5c4c8"/>
      <path id="Trazado_641549" data-name="Trazado 641549" d="M378.819,1084.257c3.243,0,6.487.014,9.73-.014.535,0,.678.118.667.662-.034,1.658-.007,1.658-1.675,1.658-6.127,0-12.253-.009-18.38.015-.6,0-.758-.13-.741-.736.047-1.585.014-1.586,1.6-1.586Z" transform="translate(-59.586 -124.854)" fill="#f7f9fa"/>
      <path id="Trazado_641550" data-name="Trazado 641550" d="M467.577,1038.673a4.462,4.462,0,0,0-.285-2.259c.837-.008,1.675-.034,2.512-.018a1.141,1.141,0,0,1,1.231,1.273q.016,4.488,0,8.977a1.143,1.143,0,0,1-1.232,1.273c-.837.016-1.675-.01-2.512-.018a4.456,4.456,0,0,0,.286-2.259c1.155-.061,1.155-.061,1.155-1.106,0-1.188,0-1.188-1.155-1.249v-2.26c1.155-.061,1.155-.061,1.155-1.106C468.732,1038.734,468.732,1038.734,467.577,1038.673Z" transform="translate(-129.888 -90.829)" fill="#4088f5"/>
      <path id="Trazado_641551" data-name="Trazado 641551" d="M467.577,1102.545a4.464,4.464,0,0,0-.285-2.259c.837-.007,1.675-.033,2.512-.018a1.141,1.141,0,0,1,1.231,1.273q.016,4.488,0,8.977a1.142,1.142,0,0,1-1.232,1.272c-.837.016-1.675-.01-2.512-.017a4.456,4.456,0,0,0,.286-2.259c1.155-.061,1.155-.061,1.155-1.105,0-1.188,0-1.188-1.155-1.249V1104.9c1.155-.061,1.155-.061,1.155-1.105C468.732,1102.605,468.732,1102.605,467.577,1102.545Z" transform="translate(-129.888 -136.245)" fill="#4088f5"/>
      <path id="Trazado_641552" data-name="Trazado 641552" d="M416.373,994.406q-.009-4.506-.017-9.011a22.576,22.576,0,0,0,3.469-1.584v4.9c0,.983-.03,1.968.011,2.95a1.518,1.518,0,0,1-.7,1.4A8.773,8.773,0,0,1,416.373,994.406Z" transform="translate(-93.671 -53.442)" fill="#ad997f"/>
      <path id="Trazado_641553" data-name="Trazado 641553" d="M416.371,954.493q-.007-4.5-.015-9.008a22.589,22.589,0,0,0,3.469-1.58v4.18c0,1.247-.02,2.494.009,3.74a1.4,1.4,0,0,1-.593,1.237A8.359,8.359,0,0,1,416.371,954.493Z" transform="translate(-93.671 -25.068)" fill="#ad997f"/>
      <path id="Trazado_641554" data-name="Trazado 641554" d="M457.48,1011.426a8.845,8.845,0,0,0-3.329-6.051c-.3-.255-.744-.363-.854-.815a8.034,8.034,0,0,1,7.647,6.5c.051.37.075.527-.446.467C459.5,1011.412,458.487,1011.451,457.48,1011.426Z" transform="translate(-119.938 -68.195)" fill="#aaa9ae"/>
      <path id="Trazado_641555" data-name="Trazado 641555" d="M405.4,927.8c.307-.5.886-.6,1.331-.9a6.742,6.742,0,0,0,1.284-1.023c.935-1.019.7-2.341-.628-3.3-.462-.335-.976-.6-1.465-.9-.2-.119-.476-.139-.522-.436a19.362,19.362,0,0,1,5.012,1.71,4.627,4.627,0,0,1,1.236.858c.513.528.516.9,0,1.423a5.7,5.7,0,0,1-1.748,1.12A20.064,20.064,0,0,1,405.4,927.8Z" transform="translate(-85.877 -8.952)" fill="#dfbb3e"/>
      <path id="Trazado_641556" data-name="Trazado 641556" d="M346.562,1086.586h-.5c-1.924,0-1.917,0-1.741-1.944.025-.275.1-.369.374-.367q1.94.016,3.881,0c.277,0,.35.09.375.366.177,1.945.185,1.945-1.74,1.945Z" transform="translate(-42.397 -124.877)" fill="#c5c4c8"/>
      <path id="Trazado_641557" data-name="Trazado 641557" d="M450.488,1084.125c.192,0,.384-.011.575,0,.541.038,1.361-.244,1.559.116.274.5.086,1.25.109,1.892.01.279-.15.3-.363.3-1.293,0-2.587-.008-3.88,0-.271,0-.354-.079-.381-.361-.184-1.951-.192-1.95,1.735-1.95Z" transform="translate(-116.191 -124.722)" fill="#c5c4c8"/>
      <path id="Trazado_641558" data-name="Trazado 641558" d="M419.542,1025.262c.836-.423,1.646-.841,2.438-1.276.05.063.1.095.1.128.047,1.148.046,1.148-1.07,1.148Z" transform="translate(-95.937 -82.009)" fill="#ad997f"/>
      <path id="Trazado_641559" data-name="Trazado 641559" d="M375.381,1111.7c0,.719.012,1.439,0,2.158a1.148,1.148,0,0,1-1.228,1.28q-2.23.029-4.459,0a1.126,1.126,0,0,1-1.224-1.207q-.029-2.265,0-4.531a1.109,1.109,0,0,1,1.186-1.169q2.265-.03,4.531,0a1.132,1.132,0,0,1,1.192,1.24C375.4,1110.212,375.381,1110.956,375.381,1111.7Zm-3.45-1.17c-1.164,0-1.164,0-1.164,1.143,0,1.164,0,1.164,1.143,1.164,1.164,0,1.164,0,1.164-1.143C373.074,1110.529,373.074,1110.529,371.931,1110.529Z" transform="translate(-59.609 -141.899)" fill="#010101"/>
      <path id="Trazado_641560" data-name="Trazado 641560" d="M343.446,1111.675c0,.719.01,1.438,0,2.157a1.164,1.164,0,0,1-1.272,1.311q-2.194.023-4.387,0a1.141,1.141,0,0,1-1.255-1.251q-.025-2.194,0-4.387a1.155,1.155,0,0,1,1.3-1.275q2.158-.018,4.316,0a1.161,1.161,0,0,1,1.294,1.287C343.457,1110.236,343.446,1110.956,343.446,1111.675Zm-2.307-.049c0-1.092,0-1.092-1.071-1.092-1.236,0-1.236,0-1.236,1.214,0,1.092,0,1.092,1.071,1.092C341.138,1112.84,341.138,1112.84,341.138,1111.626Z" transform="translate(-36.902 -141.904)" fill="#010101"/>
      <path id="Trazado_641561" data-name="Trazado 641561" d="M408.453,1108.217c2.5,0,4.991.011,7.487-.01.458,0,.6.1.6.586-.005,1.731.015,1.731-1.679,1.731-4.607,0-9.214-.009-13.822.012-.525,0-.688-.108-.677-.661.031-1.658,0-1.659,1.682-1.659Z" transform="translate(-82.3 -141.894)"/>
      <path id="Trazado_641562" data-name="Trazado 641562" d="M408.465,1126.487c-2.5,0-4.991-.011-7.487.01-.453,0-.608-.1-.606-.583.006-1.734-.015-1.734,1.749-1.734,4.583,0,9.166.009,13.75-.012.52,0,.691.1.68.657-.032,1.661,0,1.662-1.679,1.662Z" transform="translate(-82.306 -153.243)"/>
      <path id="Trazado_641563" data-name="Trazado 641563" d="M465.447,1108.16c1.155.061,1.155.061,1.155,1.249,0,1.045,0,1.045-1.155,1.105-1.152-.06-1.152-.06-1.152-1.249C464.3,1108.22,464.3,1108.22,465.447,1108.16Z" transform="translate(-127.758 -141.861)"/>
      <path id="Trazado_641564" data-name="Trazado 641564" d="M465.447,1124.127c1.155.061,1.155.061,1.155,1.249,0,1.045,0,1.045-1.155,1.106-1.152-.06-1.152-.06-1.152-1.249C464.3,1124.187,464.3,1124.187,465.447,1124.127Z" transform="translate(-127.758 -153.214)"/>
      <path id="Trazado_641565" data-name="Trazado 641565" d="M368.47,1047.743c0-.7-.01-1.391,0-2.085a1.16,1.16,0,0,1,1.279-1.3q2.194-.022,4.387,0a1.141,1.141,0,0,1,1.248,1.258q.024,2.194,0,4.387a1.143,1.143,0,0,1-1.242,1.265q-2.193.026-4.387,0a1.161,1.161,0,0,1-1.285-1.3C368.459,1049.23,368.47,1048.487,368.47,1047.743Zm2.307.022c0,1.2,0,1.2,1.178,1.2,1.129,0,1.129,0,1.129-1.106,0-1.2,0-1.2-1.177-1.2C370.777,1046.66,370.777,1046.66,370.777,1047.765Z" transform="translate(-59.619 -96.485)" fill="#010101"/>
      <path id="Trazado_641566" data-name="Trazado 641566" d="M343.445,1047.794c0,.719.01,1.439,0,2.158a1.164,1.164,0,0,1-1.266,1.316q-2.193.024-4.387,0a1.141,1.141,0,0,1-1.26-1.246q-.025-2.229,0-4.459a1.124,1.124,0,0,1,1.225-1.206q2.23-.026,4.459,0a1.146,1.146,0,0,1,1.228,1.279C343.456,1046.355,343.445,1047.075,343.445,1047.794Zm-3.431-1.135c-1.183,0-1.183,0-1.183,1.2,0,1.111,0,1.111,1.124,1.111,1.183,0,1.183,0,1.183-1.2C341.137,1046.658,341.137,1046.658,340.013,1046.658Z" transform="translate(-36.901 -96.484)" fill="#010101"/>
      <path id="Trazado_641567" data-name="Trazado 641567" d="M408.468,1046.648c-2.5,0-4.991-.01-7.487.009-.448,0-.612-.085-.61-.579.006-1.737-.016-1.737,1.746-1.737,4.583,0,9.167.008,13.75-.012.514,0,.7.089.684.654-.033,1.664,0,1.665-1.676,1.665Z" transform="translate(-82.305 -96.474)"/>
      <path id="Trazado_641568" data-name="Trazado 641568" d="M408.529,1060.312c2.472,0,4.943.012,7.415-.011.464,0,.6.113.6.59-.005,1.727.014,1.728-1.682,1.728-4.607,0-9.215-.01-13.822.013-.532,0-.684-.118-.674-.665.03-1.655,0-1.655,1.685-1.655Z" transform="translate(-82.301 -107.83)"/>
      <path id="Trazado_641569" data-name="Trazado 641569" d="M465.447,1044.288c1.155.061,1.155.061,1.155,1.249,0,1.045,0,1.045-1.155,1.105-1.152-.06-1.152-.06-1.152-1.249C464.3,1044.348,464.3,1044.348,465.447,1044.288Z" transform="translate(-127.758 -96.445)"/>
      <path id="Trazado_641570" data-name="Trazado 641570" d="M465.447,1060.256c1.155.061,1.155.061,1.155,1.249,0,1.044,0,1.044-1.155,1.105-1.152-.06-1.152-.06-1.152-1.249C464.3,1060.316,464.3,1060.316,465.447,1060.256Z" transform="translate(-127.758 -107.799)"/>
      <path id="Trazado_641571" data-name="Trazado 641571" d="M377.629,1116.227c1.143,0,1.143,0,1.143,1.164,0,1.143,0,1.143-1.164,1.143-1.143,0-1.143,0-1.143-1.164C376.465,1116.227,376.465,1116.227,377.629,1116.227Z" transform="translate(-65.307 -147.597)" fill="#fbe9a2"/>
      <path id="Trazado_641572" data-name="Trazado 641572" d="M346.834,1117.319c0,1.214,0,1.214-1.236,1.214-1.071,0-1.071,0-1.071-1.092,0-1.214,0-1.214,1.236-1.214C346.834,1116.227,346.834,1116.227,346.834,1117.319Z" transform="translate(-42.597 -147.597)" fill="#fbe9a2"/>
      <path id="Trazado_641573" data-name="Trazado 641573" d="M376.465,1053.46c0-1.105,0-1.105,1.129-1.105,1.177,0,1.177,0,1.177,1.2,0,1.106,0,1.106-1.129,1.106C376.465,1054.661,376.465,1054.661,376.465,1053.46Z" transform="translate(-65.307 -102.181)" fill="#fbe9a2"/>
      <path id="Trazado_641574" data-name="Trazado 641574" d="M345.71,1052.355c1.124,0,1.124,0,1.124,1.111,0,1.2,0,1.2-1.183,1.2-1.124,0-1.124,0-1.124-1.111C344.527,1052.355,344.527,1052.355,345.71,1052.355Z" transform="translate(-42.597 -102.181)" fill="#fbe9a2"/>
    </g>
  </g>
</svg>
