<svg xmlns="http://www.w3.org/2000/svg" width="82" height="82" viewBox="0 0 82 82">
  <g id="Grupo_956677" data-name="Grupo 956677" transform="translate(-303 -3929)">
    <g id="Grupo_951854" data-name="Grupo 951854" transform="translate(303 3929)">
      <path id="Trazado_621807" data-name="Trazado 621807" d="M41,0A41,41,0,1,1,0,41,41,41,0,0,1,41,0Z" fill="#ef8b53"/>
    </g>
    <g id="Grupo_952067" data-name="Grupo 952067" transform="translate(310.462 3936.503)">
      <g id="Grupo_952066" data-name="Grupo 952066" transform="translate(0)">
        <path id="Trazado_628841" data-name="Trazado 628841" d="M1527.73,174.319a2.111,2.111,0,0,0,1.812,3.1c.584.027,1.171.026,1.755,0,.362-.017.5.063.5.467-.024,1.665.009,3.33-.017,4.995a3.2,3.2,0,0,1-3.19,3.18q-6.515.031-13.031,0a3.208,3.208,0,0,1-3.215-3.224c-.02-1.642.006-3.285-.013-4.928,0-.367.073-.516.473-.493.583.034,1.171.025,1.755,0a2.155,2.155,0,0,0-.015-4.31c-.584-.019-1.171-.022-1.755,0-.338.014-.464-.067-.459-.438.021-1.687-.013-3.375.018-5.062a3.226,3.226,0,0,1,3.157-3.147c.067,0,.135,0,.2,0,.674-.072,1.587.321,1.963-.171.343-.449.3-1.271.605-1.88a.6.6,0,0,0-.046-.458,28.83,28.83,0,0,1,1.9-23.166,1.082,1.082,0,0,0,.046-.248c-1.91,0-3.791.011-5.672-.006-.711-.006-1.662.307-2.063-.132-.351-.384-.1-1.323-.1-2.017,0-2.7.008-5.4-.011-8.1,0-.428.09-.567.545-.56,1.8.028,3.6.025,5.4,0,.429-.006.563.093.559.545-.024,2.52,0,5.04-.022,7.56,0,.432.1.561.547.558,1.623-.011,1.624.008,1.624-1.632,0-3.578.011-7.155-.013-10.733,0-.5.113-.633.621-.623,1.777.035,3.556.029,5.333,0,.441-.007.556.111.552.552-.016,2.384,0,4.769.008,7.154-.006,1.215-.016,2.429-.018,3.643,0,1.715,0,1.7,1.755,1.633.325-.013.414-.1.411-.42-.021-2.069-.022-4.138-.03-6.208.008-3.352.028-6.7.01-10.057,0-.505.118-.632.623-.622,1.777.035,3.556.029,5.334,0,.444-.007.557.116.551.554-.026,1.777-.011,3.554-.011,5.383,1.057-.284,2.074-.591,3.108-.829a28.742,28.742,0,0,1,19.248,2.119c.5.236.614.2.777-.349a9.7,9.7,0,0,1,18.882,1.449,9.4,9.4,0,0,1-4.072,9.374,2.755,2.755,0,0,0-1.227,2.384,11.246,11.246,0,0,0,.679,4.272,25.172,25.172,0,0,1,1.443,7.585.673.673,0,0,0,.557.738,5.3,5.3,0,0,1,3.819,5.144c.013,7.156,0,14.311.01,21.467a1.657,1.657,0,0,1-.191.77c-.868,1.724-1.738,3.446-2.593,5.176a2.851,2.851,0,0,1-5.25-.005q-1.282-2.595-2.6-5.173a1.906,1.906,0,0,1-.184-.907c.006-2.382,0-4.765,0-7.182-.25.063-.327.263-.447.4a29.248,29.248,0,0,1-33.766,7.944c-.606-.256-.879-.5-.438-1.108a1.15,1.15,0,0,0,.108-.315,2.166,2.166,0,0,0,.227-.4c.13-.413.32-.48.735-.294a26.853,26.853,0,0,0,9.239,2.258c.5.035.585-.092.582-.554-.018-3.508,0-7.017-.016-10.525,0-.6.262-1.394-.118-1.738-.326-.295-1.109-.093-1.69-.1-1.1-.006-1.1,0-1.466-1.021-.083-.232-.152-.471-.251-.7a.565.565,0,0,0-.857-.339c-.383.186-.783.343-1.149.557a.605.605,0,0,1-.866-.15c-1.335-1.368-2.7-2.709-4.047-4.063-.4-.4-.973-.75-1.112-1.227s.388-1,.6-1.512c.017-.041.031-.084.05-.125a.565.565,0,0,0-.338-.857,6.843,6.843,0,0,0-1.142-.4c-.494-.105-.618-.372-.586-.843.041-.6-.015-1.215.019-1.821.022-.395-.12-.484-.491-.476-1.012.024-2.024.008-3.037.008-2.946,0-5.893,0-8.84.008-.207,0-.576-.2-.545.318a26.367,26.367,0,0,0,1.189,6.6.693.693,0,0,0,.16-.026,4.3,4.3,0,0,1,6.135,3.576c.023.348.2.327.432.325.63,0,1.26-.019,1.889.005a3.194,3.194,0,0,1,3.08,3c.058,1.752.01,3.508.026,5.262,0,.3-.1.383-.385.374-.607-.019-1.216-.031-1.822,0A1.951,1.951,0,0,0,1527.73,174.319ZM1566.3,151.5c2,0,4-.01,6.006.008.4,0,.539-.065.5-.512a28.73,28.73,0,0,0-.889-5.375c-.1-.367-.1-.856-.338-1.07-.308-.273-.615.26-.972.307-.333.044-.662.143-.995.154-.741.024-1.485.022-2.227,0a3.236,3.236,0,0,1-3.184-3.19c-.018-.9-.029-1.8,0-2.7a2.573,2.573,0,0,0-1.248-2.366,9.378,9.378,0,0,1-4.128-7.3.9.9,0,0,0-.571-.85,27.555,27.555,0,0,0-10.7-2.971c-.535-.038-.666.069-.663.608.025,3.643.013,7.287.013,10.931,0,1.364,0,1.364,1.34,1.364,1.571,0,1.571,0,2.1,1.461.031.084.051.173.088.254a.578.578,0,0,0,.859.345c.386-.181.781-.348,1.149-.56a.607.607,0,0,1,.866.146c1.3,1.339,2.633,2.647,3.953,3.968.413.414,1.005.766,1.183,1.265.2.553-.381,1.086-.609,1.632-.2.469-.1.774.383.944a11.272,11.272,0,0,0,1.145.393c.438.1.546.339.519.762-.038.6.023,1.216-.02,1.821-.033.46.137.548.562.544C1562.385,151.488,1564.342,151.5,1566.3,151.5Zm3.322,2.161h-8.808c-.937,0-.933,0-.939.957a4.358,4.358,0,0,1-.1,1.916c-.217.386-1.026.438-1.57.643-.436.164-.589.449-.371.891.179.363.327.742.529,1.089a.646.646,0,0,1-.147.924c-1.325,1.284-2.618,2.6-3.924,3.9-.43.429-.8,1.045-1.317,1.224-.541.187-1.083-.406-1.635-.633-.5-.2-.763-.04-.925.423-.133.381-.3.754-.4,1.144s-.32.509-.715.49c-.651-.033-1.3,0-1.957-.014-.286-.007-.444.018-.443.384q.02,6.075,0,12.15c0,.329.084.433.422.387.668-.09,1.345-.116,2.012-.21a26.656,26.656,0,0,0,18.944-11.742,1.441,1.441,0,0,0,.24-.881c-.006-3.105.016-6.21-.013-9.315A6.027,6.027,0,0,1,1569.622,153.661Zm-24.872-21.612c0-1.98,0-3.96,0-5.94,0-.321.016-.535-.444-.5a29.39,29.39,0,0,0-7.51,1.513.855.855,0,0,0-.709.974c.033,3.262.005,6.525.027,9.788,0,.5-.091.674-.643.67-4.028-.027-8.057-.007-12.086-.025a.928.928,0,0,0-.943.539,27.406,27.406,0,0,0-3.569,11.826c-.038.543.1.619.59.617,3.714-.019,7.427-.01,11.141-.01,1.177,0,1.174,0,1.178-1.19,0-.562-.165-1.224.076-1.656s1-.4,1.5-.641a.533.533,0,0,1,.065-.018.587.587,0,0,0,.4-.931c-.168-.343-.3-.7-.5-1.028a.67.67,0,0,1,.151-.978c1.375-1.329,2.714-2.7,4.069-4.046.381-.38.719-.938,1.177-1.07.5-.146,1.005.383,1.514.6.594.254.815.163,1.048-.475a11.178,11.178,0,0,0,.375-1.08c.1-.376.3-.478.671-.459.628.033,1.262-.022,1.889.02.455.03.552-.129.547-.559C1544.737,136.01,1544.75,134.029,1544.75,132.049Zm-22.714,51.856c2.092,0,4.184,0,6.275,0,.921,0,1.3-.391,1.311-1.318.006-.495,0-.989,0-1.484a3.334,3.334,0,0,0-.065-1.39c-.167-.32-.78-.156-1.172-.305-.021-.008-.041-.019-.062-.026a4.31,4.31,0,0,1,.781-8.394c.45-.059.542-.2.527-.605-.029-.786-.005-1.574-.009-2.361,0-1.02-.368-1.392-1.369-1.4-1.17,0-2.34-.017-3.509.008-.4.008-.567-.07-.534-.51a15.908,15.908,0,0,0,.006-1.686,2.157,2.157,0,0,0-4.314.018c-.016.562-.025,1.125,0,1.686.019.376-.093.5-.482.493-1.237-.024-2.474-.018-3.711-.005a1.088,1.088,0,0,0-1.214,1.208c-.014.9.01,1.8-.01,2.7-.008.321.09.4.41.435a4.313,4.313,0,0,1,.087,8.578c-.415.056-.514.171-.5.563.03.808.005,1.619.01,2.428.006,1,.377,1.365,1.4,1.367Q1518.966,183.91,1522.036,183.906Zm33.933-37.948c-.067-.082-.128-.172-.2-.248-1.017-1.019-2.038-2.034-3.05-3.057-.167-.169-.318-.236-.52-.081a2.169,2.169,0,0,1-2.41.013c-.7-.3-1.193-.638-1.3-1.409-.062-.432-.336-.491-.72-.484-1.259.021-2.52.033-3.779,0-.486-.015-.77.114-.84.6a1.357,1.357,0,0,1-1.206,1.231.836.836,0,0,0-.313.121,1.586,1.586,0,0,1-2.024-.016c-.274-.2-.494-.15-.744.11-.936.971-1.9,1.915-2.856,2.869-.173.172-.4.321-.181.612a2.165,2.165,0,0,1,.013,2.409,1.793,1.793,0,0,1-1.409,1.309c-.359.058-.5.25-.49.648.031,1.349.022,2.7.005,4.048a.5.5,0,0,0,.408.575c.376.124.971.129,1.073.463.31,1.011,1.392,1.943.457,3.142-.21.269-.151.492.109.743.987.953,1.949,1.931,2.915,2.906.17.171.319.32.567.131a2.138,2.138,0,0,1,2.348-.04,1.913,1.913,0,0,1,1.4,1.5c.045.263.154.429.486.424,1.417-.019,2.834-.013,4.251,0,.264,0,.436-.064.473-.346.124-.953.793-1.291,1.6-1.635a1.839,1.839,0,0,1,2.037.049c.275.2.494.149.744-.111.937-.971,1.9-1.915,2.857-2.868.173-.173.4-.323.18-.613a2.165,2.165,0,0,1-.014-2.409,1.785,1.785,0,0,1,1.41-1.307c.36-.057.5-.253.488-.65-.03-1.349-.021-2.7,0-4.048,0-.323-.08-.515-.411-.566a1.675,1.675,0,0,1-1.5-1.464,2.347,2.347,0,0,0-.328-.735.714.714,0,0,1,.007-.809C1555.669,146.646,1555.8,146.312,1555.969,145.958ZM1569.6,135.17q0,1.485,0,2.97c0,.2-.043.469.277.387.278-.071.749.294.824-.253a5.141,5.141,0,0,1,2.4-3.483,7.532,7.532,0,0,0-6.448-13.283,7.536,7.536,0,0,0-2.508,13.444,4.62,4.62,0,0,1,2.141,3.191c.079.624.5.342.8.39.476.076.344-.292.345-.528.007-1.867,0-3.735.011-5.6a.72.72,0,0,0-.449-.772,3.038,3.038,0,0,1-1.709-2.644,3.232,3.232,0,0,1,6.252-1.321,3.144,3.144,0,0,1-1.438,3.933.808.808,0,0,0-.511.869C1569.622,133.369,1569.6,134.27,1569.6,135.17Zm3.241,33.683v-7.213c0-1.5,0-1.471-1.482-1.512-.569-.016-.694.144-.692.7.023,5.011.014,10.022.014,15.033,0,1.589,0,1.571,1.617,1.576.447,0,.556-.126.552-.561C1572.832,174.2,1572.841,171.527,1572.841,168.853Zm4.322-.014v-7.212c0-1.49,0-1.457-1.5-1.5-.6-.018-.679.186-.677.716.02,4.987.012,9.975.012,14.962,0,1.651,0,1.629,1.63,1.634.473,0,.54-.168.537-.578C1577.156,174.186,1577.163,171.513,1577.163,168.839Zm-43.218-40.031v-6c0-1.569,0-1.542-1.559-1.571-.532-.01-.614.164-.612.643.018,4.29.011,8.58.011,12.87,0,1.653,0,1.632,1.626,1.637.464,0,.545-.157.542-.573C1533.936,133.481,1533.945,131.145,1533.945,128.809Zm39.912,29.172c.943,0,1.887.006,2.83-.006.171,0,.391.112.479-.2a3.438,3.438,0,0,0-3.078-4.107,3.393,3.393,0,0,0-3.416,4.044c.053.315.229.271.422.272C1572.016,157.983,1572.937,157.981,1573.857,157.981ZM1525.3,130.976v-3.838c0-1.573,0-1.547-1.552-1.576-.517-.009-.624.143-.62.635.024,2.85.012,5.7.012,8.552,0,1.684,0,1.67,1.687,1.639.388-.007.484-.125.48-.5C1525.291,134.253,1525.3,132.614,1525.3,130.976Zm-8.644,2.2v-1.681c0-1.63,0-1.613-1.649-1.606-.418,0-.528.113-.521.526.026,1.434.01,2.869.01,4.3,0,1.733,0,1.721,1.717,1.672.354-.01.459-.1.45-.457C1516.643,135.012,1516.658,134.092,1516.658,133.173Zm54.7,46.425c.677,1.354,1.3,2.639,1.964,3.9a.633.633,0,0,0,1.147.07c.7-1.287,1.337-2.609,2.025-3.97Zm-2.837-38.9c-.584,0-1.168,0-1.752,0-.129,0-.278-.043-.376.083a1.521,1.521,0,0,0,.915,2.051,15.92,15.92,0,0,0,2.423,0c.743-.056,1.066-.709.946-1.79-.079-.713-.63-.258-.948-.326A5.808,5.808,0,0,0,1568.521,140.7Zm1.078-11.909a1.079,1.079,0,1,0-1.036,1.105A1.089,1.089,0,0,0,1569.6,128.79Z" transform="translate(-1512.254 -119.08)" fill="#020202"/>
        <path id="Trazado_628842" data-name="Trazado 628842" d="M1545.593,267.491a1.951,1.951,0,0,1,1.855-1.207c.606-.033,1.215-.02,1.822,0,.289.009.388-.072.385-.374-.016-1.754.032-3.509-.026-5.262a3.193,3.193,0,0,0-3.08-3c-.629-.025-1.26-.009-1.889-.005-.234,0-.409.022-.432-.325a4.3,4.3,0,0,0-6.135-3.576.694.694,0,0,1-.16.026,26.367,26.367,0,0,1-1.189-6.6c-.031-.516.338-.317.545-.318,2.947-.012,5.894-.008,8.84-.008,1.012,0,2.025.016,3.037-.008.371-.009.513.081.491.476-.033.605.022,1.216-.019,1.821-.032.471.092.738.586.843a6.837,6.837,0,0,1,1.142.4.565.565,0,0,1,.338.857c-.019.041-.032.084-.05.125-.213.512-.743,1.025-.6,1.512s.716.83,1.112,1.227c1.349,1.354,2.712,2.695,4.047,4.063a.605.605,0,0,0,.866.15c.367-.214.766-.371,1.149-.557a.565.565,0,0,1,.857.339c.1.225.168.464.251.7.362,1.019.362,1.015,1.466,1.021.581,0,1.363-.2,1.689.1.38.344.116,1.139.118,1.738.011,3.508,0,7.017.016,10.525,0,.461-.079.589-.582.554a26.853,26.853,0,0,1-9.239-2.257c-.415-.187-.605-.119-.735.293a2.143,2.143,0,0,1-.227.4,21.783,21.783,0,0,1-4.25-2.382C1546.93,268.332,1546.442,267.624,1545.593,267.491Z" transform="translate(-1530.117 -212.252)" fill="#e5e8eb"/>
        <path id="Trazado_628843" data-name="Trazado 628843" d="M1570.615,158.557c.008,2.069.009,4.139.03,6.208,0,.32-.085.407-.411.42-1.756.071-1.758.081-1.755-1.633,0-1.214.012-2.429.018-3.643.57-.018.821-.538,1.237-.8A3.54,3.54,0,0,1,1570.615,158.557Z" transform="translate(-1553.269 -147.878)" fill="#e5e8eb"/>
        <path id="Trazado_628844" data-name="Trazado 628844" d="M1659.722,169.158c-1.957,0-3.915-.012-5.871.01-.425,0-.595-.084-.562-.544.043-.6-.018-1.216.02-1.821.027-.423-.081-.66-.519-.762a11.267,11.267,0,0,1-1.145-.393c-.485-.17-.579-.474-.383-.944.228-.546.806-1.079.61-1.632-.178-.5-.77-.852-1.183-1.266-1.32-1.321-2.652-2.629-3.953-3.968a.606.606,0,0,0-.866-.146c-.368.212-.763.379-1.149.56a.578.578,0,0,1-.859-.345c-.038-.081-.058-.17-.088-.254-.529-1.461-.529-1.461-2.1-1.461-1.34,0-1.34,0-1.34-1.364,0-3.644.012-7.287-.013-10.931,0-.539.127-.646.663-.608a27.554,27.554,0,0,1,10.7,2.971.9.9,0,0,1,.571.85,9.377,9.377,0,0,0,4.128,7.3,2.573,2.573,0,0,1,1.248,2.366c-.032.9-.021,1.8,0,2.7a3.237,3.237,0,0,0,3.184,3.19c.742.018,1.485.02,2.227,0,.333-.011.662-.11.994-.154.357-.047.664-.581.972-.307.24.213.234.7.338,1.07a28.73,28.73,0,0,1,.889,5.375c.039.447-.1.516-.5.512C1663.727,169.148,1661.724,169.158,1659.722,169.158Z" transform="translate(-1605.676 -136.738)" fill="#e5e8eb"/>
        <path id="Trazado_628845" data-name="Trazado 628845" d="M1663.056,246.91a6.026,6.026,0,0,0-1.111,3.732c.029,3.1.007,6.21.013,9.315a1.437,1.437,0,0,1-.24.881,26.656,26.656,0,0,1-18.944,11.742c-.668.094-1.344.12-2.013.21-.337.045-.423-.059-.422-.387q.014-6.075,0-12.15c0-.366.157-.391.443-.384.653.015,1.307-.019,1.958.014.394.02.614-.089.715-.49s.263-.763.4-1.144c.162-.463.429-.627.925-.423.552.227,1.093.82,1.635.633.518-.179.887-.795,1.317-1.224,1.307-1.3,2.6-2.62,3.924-3.9a.646.646,0,0,0,.147-.924c-.2-.348-.351-.727-.529-1.089a.57.57,0,0,1,.371-.891c.544-.2,1.353-.256,1.57-.642a4.358,4.358,0,0,0,.1-1.916c.006-.957,0-.957.939-.957Zm-20.167,23.5c.165-.025.254-.038.343-.053a24.848,24.848,0,0,0,13.044-6.425c1.217-1.13,1.2-1.117.012-2.263-.35-.339-.524-.291-.841.032a22.682,22.682,0,0,1-11.59,6.353c-.5.108-1.246-.076-1.425.434-.165.47.122,1.092.182,1.651C1642.641,270.391,1642.751,270.446,1642.89,270.414Zm17.8-11.956c.06-.2-.006-.267-.082-.311-.5-.293-1.009-.58-1.513-.872-.112-.065-.193-.066-.273.058-.376.584-.765,1.159-1.138,1.744-.155.243.089.322.224.4.51.28,1.022,1.13,1.44.846A6.337,6.337,0,0,0,1660.69,258.458Z" transform="translate(-1605.688 -212.329)" fill="#e4e7ea"/>
        <path id="Trazado_628846" data-name="Trazado 628846" d="M1562.594,149.642c0,1.98-.013,3.96.01,5.94,0,.43-.092.589-.547.559-.627-.042-1.261.014-1.889-.02-.374-.02-.576.083-.671.459a11.114,11.114,0,0,1-.375,1.08c-.233.638-.455.729-1.049.474-.509-.218-1.01-.747-1.514-.6-.458.133-.8.691-1.177,1.07-1.355,1.35-2.694,2.717-4.069,4.046a.67.67,0,0,0-.151.978c.2.324.333.686.5,1.028a.586.586,0,0,1-.4.931.513.513,0,0,0-.065.018c-.5.242-1.252.2-1.5.641s-.074,1.095-.076,1.656c0,1.19,0,1.19-1.178,1.19-3.714,0-7.427-.009-11.141.01-.487,0-.628-.073-.59-.617a27.4,27.4,0,0,1,3.569-11.826.928.928,0,0,1,.943-.539c4.029.018,8.058,0,12.086.025.553,0,.647-.168.643-.67-.022-3.262.006-6.526-.027-9.788a.854.854,0,0,1,.709-.974,29.389,29.389,0,0,1,7.51-1.513c.461-.034.446.18.444.5C1562.59,145.682,1562.594,147.662,1562.594,149.642Z" transform="translate(-1530.097 -136.673)" fill="#e5e8eb"/>
        <path id="Trazado_628847" data-name="Trazado 628847" d="M1528.06,300.46q-3.07,0-6.141,0c-1.021,0-1.392-.367-1.4-1.367,0-.809.02-1.62-.01-2.428-.015-.392.084-.507.5-.563a4.313,4.313,0,0,0-.088-8.578c-.32-.031-.418-.114-.41-.435.021-.9,0-1.8.01-2.7a1.088,1.088,0,0,1,1.214-1.208c1.237-.013,2.475-.019,3.711.005.389.008.5-.117.482-.493-.029-.561-.02-1.124,0-1.686a2.157,2.157,0,0,1,4.314-.018,15.908,15.908,0,0,1-.006,1.686c-.033.44.137.519.534.51,1.169-.025,2.339-.012,3.509-.008,1,0,1.364.376,1.368,1.4,0,.787-.019,1.575.009,2.361.015.406-.077.546-.527.605a4.31,4.31,0,0,0-.781,8.394c.021.007.042.018.062.026.393.15,1.005-.015,1.172.305a3.33,3.33,0,0,1,.065,1.39c0,.495.006.989,0,1.484-.01.927-.39,1.316-1.311,1.318C1532.243,300.464,1530.151,300.46,1528.06,300.46Z" transform="translate(-1518.277 -235.635)" fill="#bbd989"/>
        <path id="Trazado_628848" data-name="Trazado 628848" d="M1614.43,204.216c-.167.354-.3.689-.477,1a.713.713,0,0,0-.007.809,2.344,2.344,0,0,1,.328.735,1.675,1.675,0,0,0,1.5,1.464c.331.051.415.243.411.566-.017,1.349-.026,2.7,0,4.048.009.4-.129.593-.489.65a1.785,1.785,0,0,0-1.41,1.307,2.166,2.166,0,0,0,.014,2.409c.224.29-.007.44-.18.613-.955.953-1.92,1.9-2.857,2.868-.25.259-.469.315-.744.111a1.839,1.839,0,0,0-2.037-.049c-.81.344-1.479.683-1.6,1.635-.037.282-.208.348-.473.346-1.417-.01-2.834-.016-4.251,0-.332,0-.441-.161-.486-.424a1.913,1.913,0,0,0-1.4-1.5,2.137,2.137,0,0,0-2.348.04c-.248.189-.4.04-.567-.131-.966-.975-1.928-1.953-2.915-2.906-.26-.251-.318-.474-.109-.743.935-1.2-.147-2.131-.457-3.142-.1-.334-.7-.339-1.073-.463a.5.5,0,0,1-.408-.575c.017-1.349.026-2.7,0-4.048-.009-.4.13-.59.49-.648a1.793,1.793,0,0,0,1.409-1.309,2.164,2.164,0,0,0-.013-2.409c-.224-.291.008-.44.181-.612.955-.954,1.92-1.9,2.856-2.869.251-.26.47-.314.744-.11a1.587,1.587,0,0,0,2.024.017.834.834,0,0,1,.313-.121,1.357,1.357,0,0,0,1.206-1.231c.07-.49.354-.619.84-.6,1.259.037,2.52.026,3.779,0,.384-.006.658.052.72.485.111.771.6,1.112,1.3,1.409a2.169,2.169,0,0,0,2.41-.013c.2-.155.353-.088.52.081,1.012,1.024,2.033,2.038,3.05,3.057C1614.3,204.044,1614.363,204.133,1614.43,204.216Zm-18.783,6.585a8.644,8.644,0,1,0,8.715-8.6A8.669,8.669,0,0,0,1595.647,210.8Z" transform="translate(-1570.714 -177.338)" fill="#f3d47d"/>
        <path id="Trazado_628849" data-name="Trazado 628849" d="M1700.92,141.026c0-.9.021-1.8-.009-2.7a.808.808,0,0,1,.512-.869,3.145,3.145,0,0,0,1.438-3.933,3.232,3.232,0,0,0-6.252,1.321,3.038,3.038,0,0,0,1.709,2.644.72.72,0,0,1,.449.772c-.015,1.867,0,3.735-.011,5.6,0,.236.131.6-.345.528-.3-.047-.722.234-.8-.39a4.621,4.621,0,0,0-2.141-3.191,7.536,7.536,0,0,1,2.507-13.444,7.532,7.532,0,0,1,6.448,13.283,5.141,5.141,0,0,0-2.4,3.483c-.075.546-.545.181-.824.253-.32.082-.277-.192-.277-.387Q1700.918,142.511,1700.92,141.026Z" transform="translate(-1643.573 -124.937)" fill="#f9e7ad"/>
        <path id="Trazado_628850" data-name="Trazado 628850" d="M1730.359,279.536c0,2.674-.01,5.348.01,8.022,0,.435-.106.562-.552.561-1.617-.005-1.617.013-1.617-1.576,0-5.011.01-10.023-.014-15.033,0-.555.123-.715.692-.7,1.481.042,1.482.012,1.482,1.512Z" transform="translate(-1669.771 -229.763)" fill="#bbda89"/>
        <path id="Trazado_628851" data-name="Trazado 628851" d="M1746.34,279.519c0,2.673-.008,5.347.008,8.02,0,.41-.064.58-.537.578-1.631,0-1.631.017-1.631-1.634,0-4.987.008-9.974-.012-14.962,0-.53.081-.734.677-.716,1.494.045,1.5.012,1.5,1.5Z" transform="translate(-1681.43 -229.759)" fill="#ee8774"/>
        <path id="Trazado_628852" data-name="Trazado 628852" d="M1586.584,134.633c0,2.336-.009,4.672.009,7.008,0,.417-.078.575-.542.574-1.626,0-1.626.016-1.626-1.637,0-4.29.008-8.58-.011-12.87,0-.479.08-.653.612-.643,1.558.03,1.559,0,1.559,1.571Z" transform="translate(-1564.893 -124.905)" fill="#ee8774"/>
        <path id="Trazado_628853" data-name="Trazado 628853" d="M1731.249,251.232c-.921,0-1.842,0-2.762,0-.193,0-.369.044-.422-.272a3.393,3.393,0,0,1,3.416-4.044,3.438,3.438,0,0,1,3.078,4.107c-.088.315-.308.2-.479.2C1733.136,251.238,1732.193,251.232,1731.249,251.232Z" transform="translate(-1669.646 -212.331)" fill="#a9b0ba"/>
        <path id="Trazado_628854" data-name="Trazado 628854" d="M1554.629,148.454c0,1.639-.01,3.277.008,4.916,0,.371-.093.489-.481.5-1.687.031-1.687.045-1.687-1.639,0-2.85.012-5.7-.012-8.552,0-.492.1-.644.619-.635,1.552.028,1.552,0,1.552,1.576Z" transform="translate(-1541.581 -136.558)" fill="#ee8774"/>
        <path id="Trazado_628855" data-name="Trazado 628855" d="M1522.682,162.308c0,.919-.015,1.838.007,2.757.009.352-.1.447-.45.457-1.717.049-1.717.061-1.717-1.672,0-1.435.016-2.869-.01-4.3-.007-.413.1-.524.521-.526,1.649-.007,1.649-.024,1.649,1.606Z" transform="translate(-1518.278 -148.215)" fill="#ee8774"/>
        <path id="Trazado_628856" data-name="Trazado 628856" d="M1730.736,342.788h5.135c-.688,1.36-1.323,2.683-2.024,3.97a.633.633,0,0,1-1.147-.07C1732.033,345.427,1731.414,344.142,1730.736,342.788Z" transform="translate(-1671.632 -282.27)" fill="#a9b0ba"/>
        <path id="Trazado_628857" data-name="Trazado 628857" d="M1714.093,198.83a5.8,5.8,0,0,1,1.209.02c.318.069.869-.387.948.326.12,1.081-.2,1.733-.946,1.79a15.918,15.918,0,0,1-2.423,0,1.521,1.521,0,0,1-.915-2.051c.1-.125.247-.081.376-.083C1712.925,198.828,1713.509,198.83,1714.093,198.83Z" transform="translate(-1657.826 -177.212)" fill="#a9b0ba"/>
        <path id="Trazado_628858" data-name="Trazado 628858" d="M1718.417,152.134a1.079,1.079,0,1,1-1.088-1.053A1.092,1.092,0,0,1,1718.417,152.134Z" transform="translate(-1661.071 -142.425)" fill="#eacc79"/>
        <path id="Trazado_628859" data-name="Trazado 628859" d="M1648.4,309.594c-.139.032-.249-.023-.275-.272-.06-.558-.347-1.181-.182-1.651.179-.51.929-.325,1.425-.434a22.682,22.682,0,0,0,11.59-6.353c.317-.323.491-.371.841-.032,1.187,1.146,1.2,1.134-.012,2.263a24.848,24.848,0,0,1-13.044,6.425C1648.658,309.556,1648.57,309.568,1648.4,309.594Z" transform="translate(-1611.202 -251.509)" fill="#040404"/>
        <path id="Trazado_628860" data-name="Trazado 628860" d="M1707.334,286.291a6.336,6.336,0,0,1-1.341,1.862c-.418.284-.931-.567-1.44-.846-.135-.074-.379-.152-.223-.4.373-.585.762-1.161,1.138-1.744.08-.124.161-.124.273-.058.5.292,1.01.579,1.513.872C1707.328,286.024,1707.4,286.089,1707.334,286.291Z" transform="translate(-1652.332 -240.162)" fill="#040404"/>
        <path id="Trazado_628861" data-name="Trazado 628861" d="M1604.421,219.576a8.644,8.644,0,1,1,8.573,8.679A8.666,8.666,0,0,1,1604.421,219.576Zm8.623-6.441a6.479,6.479,0,1,0,6.5,6.458A6.5,6.5,0,0,0,1613.044,213.135Z" transform="translate(-1579.488 -186.114)" fill="#040303"/>
        <path id="Trazado_628862" data-name="Trazado 628862" d="M1618.876,218.965a6.479,6.479,0,1,1-6.46,6.5A6.5,6.5,0,0,1,1618.876,218.965Z" transform="translate(-1585.32 -191.944)" fill="#e4e7ea"/>
      </g>
    </g>
  </g>
</svg>
