<svg xmlns="http://www.w3.org/2000/svg" width="82" height="82" viewBox="0 0 82 82">
  <g id="Grupo_956680" data-name="Grupo 956680" transform="translate(-303 -3929)">
    <g id="Grupo_951854" data-name="Grupo 951854" transform="translate(303 3929)">
      <path id="Trazado_621807" data-name="Trazado 621807" d="M41,0A41,41,0,1,1,0,41,41,41,0,0,1,41,0Z" fill="#ef8b53"/>
    </g>
    <g id="Grupo_980594" data-name="Grupo 980594" transform="translate(-482.739 3899.563)">
      <path id="Trazado_640466" data-name="Trazado 640466" d="M841.543,103.561c.308-1.849.61-3.693.925-5.535.142-.832.155-.83-.662-.83H797.257c-2.457,0-3.7-1.241-3.7-3.694q0-23.075,0-46.15c0-2.414,1.251-3.67,3.655-3.672h2.36c-.253-2-.483-3.944-.754-5.882-.062-.447.034-.551.483-.55q6.555.025,13.111,0c.5,0,.566.125.5.595-.264,1.829-.473,3.667-.717,5.5-.036.272.032.366.3.342.155-.014.312,0,.468,0h43.278c2.451,0,3.684,1.242,3.684,3.71q0,23.075,0,46.15c0,2.4-1.26,3.655-3.673,3.656-1.5,0-1.5,0-1.25,1.47s.507,2.939.751,4.411c.042.255.2.554-.334.552-4.548-.019-9.1-.012-13.646-.014A1.162,1.162,0,0,1,841.543,103.561Zm-.634-24.554c1-1.249,1.765-1.363,4.005-.578V75.792c.007-1.047.01-2.095.023-3.142a3.211,3.211,0,1,1,6.421,0c.013,1.047.016,2.094.023,3.142-.007.557.017,1.116-.032,1.669-.038.431.108.6.521.731a4.9,4.9,0,0,1,3.564,3.728,8.761,8.761,0,0,1-1.16,7.109,2.751,2.751,0,0,0-.481,2.456c.129.517.159,1.057.277,1.577.146.649-.024,1.562.434,1.89s1.286.1,1.953.1c.951,0,1.322-.379,1.322-1.347q0-17.251.011-34.5c0-.433-.106-.55-.545-.549q-14.444.02-28.888,0c-.5,0-.557.173-.557.606q.017,17.619,0,35.238c0,.4.043.574.522.572q7.055-.031,14.11,0c.433,0,.57-.138.628-.542.173-1.211.348-2.425.6-3.622.117-.56.054-.948-.47-1.21a8.24,8.24,0,0,1-2.48-5.117c-.106-1.351-.033-2.716-.062-4.074A3.494,3.494,0,0,1,840.909,79.007ZM798.318,58.664c-.724,0-1.372.036-2.014-.012-.5-.037-.62.11-.62.614q.024,17.191.013,34.383c0,1.05.354,1.4,1.4,1.4q13.982,0,27.964.013c.5,0,.62-.111.619-.614q-.024-17.593,0-35.186c0-.5-.122-.618-.619-.615-3.969.023-7.939.012-11.908.014-.172,0-.344.018-.55.029a12.449,12.449,0,0,1,.223,2.623c-.011,2.992-1.172,4.685-3.965,5.716-.21.077-.33.135-.327.4.015,1.248.009,2.5,0,3.746,0,.2.014.345.276.335.6-.023,1.3.154,1.761-.1.328-.18.069-.947.1-1.451.008-.111,0-.223,0-.334a2.177,2.177,0,0,1,2.4-2.4q4.014,0,8.028,0a2.166,2.166,0,0,1,2.416,2.382q.006,4.047,0,8.094a2.159,2.159,0,0,1-2.365,2.366c-1.873,0-3.747.017-5.619-.01-.46-.007-.6.1-.59.576.03,1.939.024,3.88.008,5.819a2.11,2.11,0,0,1-2.15,2.173q-6.422.02-12.845,0a2.1,2.1,0,0,1-2.122-2.13q-.021-6.422,0-12.843a2.117,2.117,0,0,1,2.179-2.143c.58-.011,1.16-.009,1.739,0,.235,0,.366-.03.364-.319-.013-1.484-.006-2.968-.006-4.47-.454.142-.845.3-1.25.387-1.889.42-3.052-.506-3.025-2.442C797.872,62.673,797.616,60.657,798.318,58.664Zm44.487-2.141c4.77,0,9.54-.011,14.31.015.573,0,.685-.158.679-.7-.029-2.875-.012-5.75-.014-8.625,0-1.04-.36-1.393-1.413-1.393q-13.976,0-27.951-.013c-.5,0-.622.127-.618.623q.037,4.747,0,9.494c0,.521.152.611.632.609C833.221,56.516,838.013,56.523,842.805,56.523Zm-24.162,0c2.163,0,4.326-.013,6.488.011.446,0,.549-.129.546-.557q-.026-4.816,0-9.631c0-.466-.16-.535-.569-.533q-6.355.02-12.709,0c-.394,0-.523.1-.57.5-.28,2.412-.568,4.823-.907,7.226a2.668,2.668,0,0,0,.509,2.531,1.138,1.138,0,0,0,.921.467C814.452,56.512,816.548,56.523,818.644,56.523ZM799.979,80c0,2.005.009,4.011-.008,6.016,0,.374.1.485.478.483q5.95-.02,11.9,0c.374,0,.488-.1.484-.478-.019-1.827-.013-3.654,0-5.481,0-.295-.031-.439-.394-.519a2.111,2.111,0,0,1-1.75-2.268c0-.78.013-1.56-.006-2.34-.014-.572.255-1.352-.109-1.657-.345-.289-1.1-.064-1.672-.117-.424-.039-.6.145-.8.5a3.08,3.08,0,0,1-5.231.384,1.836,1.836,0,0,0-1.948-.877,1.835,1.835,0,0,1-.4,0c-.432-.066-.559.1-.553.54C799.993,76.124,799.979,78.062,799.979,80ZM805.9,39.4c-1.426,0-2.852.009-4.278-.007-.352,0-.45.077-.39.447.143.878.236,1.765.346,2.648.465,3.733.937,7.465,1.381,11.2.063.533.207.739.8.713,1.312-.058,2.628-.018,3.943-.018.989,0,.978,0,1.1-.954.555-4.507,1.109-9.014,1.689-13.517.055-.425-.007-.53-.438-.522C808.666,39.415,807.285,39.4,805.9,39.4Zm41.174,37.844v3.343c0,1.7,0,1.686-1.726,1.634-.3-.009-.4-.073-.458-.387a2.118,2.118,0,0,0-1.6-1.706c-.353-.1-.52-.065-.509.375.028,1.158-.027,2.319.022,3.476a6.008,6.008,0,0,0,2.133,4.376,1.08,1.08,0,0,0,.78.285q2.909-.019,5.817,0a.79.79,0,0,0,.713-.37,7.084,7.084,0,0,0,1.126-5.728c-.289-1.617-1.605-2.49-3.477-2.459-.539.009-.71-.1-.7-.676.039-2.183.018-4.368.015-6.552,0-.849-.389-1.335-1.056-1.344s-1.079.48-1.082,1.317C847.074,74.3,847.077,75.771,847.077,77.242ZM805.795,56.523a12.019,12.019,0,0,1-1.936-.018,2.685,2.685,0,0,0-2.83,1.531,6.017,6.017,0,0,0-.944,2.331,25.564,25.564,0,0,0-.1,3.736c-.008.317-.18.794.1.925.352.167.766-.1,1.1-.331s.7-.532.736-.916c.082-.936.682-.89,1.333-.839a1.6,1.6,0,0,0,.4,0c.507-.09.62.118.616.612-.025,2.919-.015,5.839-.011,8.759,0,.844.4,1.331,1.068,1.332s1.069-.489,1.07-1.33q.006-3.176,0-6.352c0-.872,0-.872.87-.876a3.1,3.1,0,0,0,3.305-2.525A7.157,7.157,0,0,0,809.524,57a.965.965,0,0,0-.921-.493C807.668,56.553,806.731,56.523,805.795,56.523Zm42.9,44.953c1.337,0,2.674-.021,4.01.012.483.012.6-.117.519-.589q-.827-4.835-1.615-9.676c-.05-.3-.14-.462-.5-.457q-2.44.029-4.879,0c-.324,0-.421.135-.468.415q-.807,4.906-1.63,9.81c-.062.367.009.5.418.495C845.933,101.461,847.314,101.477,848.7,101.477ZM812.824,73.652c0,1.269.015,2.538-.009,3.806-.007.385.113.482.488.48q3.806-.023,7.612,0c.385,0,.482-.113.48-.487q-.023-3.806,0-7.612c0-.385-.113-.482-.487-.48q-3.806.023-7.612,0c-.385,0-.486.113-.48.487C812.838,71.114,812.824,72.384,812.824,73.652ZM797.531,56.523a2.8,2.8,0,0,0,3.1-1.226.923.923,0,0,0,.3-.747q-.54-4.174-1.046-8.352c-.039-.328-.169-.39-.461-.384-.825.016-1.65,0-2.474.008-.862.01-1.246.4-1.247,1.288-.005,2.964,0,5.929-.01,8.893,0,.392.068.569.505.529S797.085,56.523,797.531,56.523Z" fill="#010101"/>
      <path id="Trazado_640467" data-name="Trazado 640467" d="M804.13,117.1c-.7,1.993-.446,4.009-.474,6-.027,1.937,1.136,2.863,3.025,2.442.405-.09.8-.244,1.25-.387,0,1.5-.007,2.986.006,4.47,0,.289-.129.323-.364.319-.58-.011-1.16-.013-1.739,0a2.117,2.117,0,0,0-2.179,2.143q-.021,6.422,0,12.843a2.1,2.1,0,0,0,2.122,2.13q6.422.023,12.844,0a2.11,2.11,0,0,0,2.15-2.173c.016-1.94.022-3.88-.008-5.819-.008-.48.13-.583.59-.576,1.873.028,3.746.015,5.619.01a2.159,2.159,0,0,0,2.366-2.366q.007-4.047,0-8.094a2.166,2.166,0,0,0-2.416-2.382q-4.014,0-8.028,0a2.177,2.177,0,0,0-2.4,2.4c0,.112.007.223,0,.334-.036.5.224,1.271-.1,1.451-.465.255-1.163.079-1.761.1-.262.01-.277-.137-.276-.335,0-1.249.01-2.5,0-3.746,0-.26.117-.318.327-.4,2.793-1.032,3.954-2.724,3.965-5.716a12.449,12.449,0,0,0-.223-2.623c.205-.011.377-.029.55-.029,3.969,0,7.939.009,11.908-.014.5,0,.62.111.619.615q-.024,17.593,0,35.186c0,.5-.123.615-.619.614q-13.982-.025-27.964-.013c-1.047,0-1.4-.355-1.4-1.4q0-17.192-.013-34.383c0-.5.12-.651.62-.614C802.758,117.133,803.406,117.1,804.13,117.1Zm21.94,25.687h1.671c1.647,0,1.633,0,1.61-1.68-.005-.39-.126-.473-.49-.468-1.426.02-2.852.008-4.277.008-1.761,0-1.75,0-1.676,1.747.014.331.115.406.423.4C824.243,142.772,825.157,142.784,826.07,142.784Zm1.131,4.281h.467c1.761,0,1.761,0,1.671-1.741a.348.348,0,0,1,0-.067c.036-.264-.083-.34-.339-.338q-1.8.016-3.607,0c-.263,0-.321.088-.343.342-.15,1.8-.157,1.8,1.616,1.8Z" transform="translate(-5.812 -58.432)" fill="#e5e8eb"/>
      <path id="Trazado_640468" data-name="Trazado 640468" d="M938.413,134.236v2.637c-2.24-.784-3.005-.671-4.005.578l-2.373-.008a1.033,1.033,0,0,1-.019-.265c.126-.667-.133-.843-.806-.822-1.781.054-3.564.016-5.346.019a2.173,2.173,0,0,0-2.414,2.379q0,4.043,0,8.086a2.167,2.167,0,0,0,2.416,2.378q3.576,0,7.151,0c1.1,0,1.1,0,1.159-1.069l2.514-.013c.524.262.588.65.47,1.21-.251,1.2-.426,2.41-.6,3.622-.058.4-.195.544-.628.542q-7.055-.027-14.11,0c-.479,0-.522-.176-.522-.572q.013-17.619,0-35.238c0-.432.054-.607.557-.606q14.444.025,28.888,0c.439,0,.546.116.545.549q-.018,17.251-.011,34.5c0,.967-.372,1.345-1.322,1.347-.667,0-1.506.219-1.953-.1s-.288-1.24-.434-1.89c-.117-.52-.147-1.061-.277-1.577a2.751,2.751,0,0,1,.481-2.456,8.761,8.761,0,0,0,1.16-7.109,4.9,4.9,0,0,0-3.563-3.728c-.414-.13-.56-.3-.521-.731.049-.553.024-1.112.032-1.669l2.124-.021c.512.006,1.028-.024,1.535.029s.617-.125.613-.617c-.024-3.274-.01-6.549-.013-9.823a2.172,2.172,0,0,0-2.447-2.413q-5.046,0-10.091,0a2.193,2.193,0,0,0-2.447,2.48c0,2.784-.009,5.569.006,8.353,0,.659-.3,1.59.124,1.9.443.331,1.319.083,2.006.087Zm-10.75-2.143H930.4c1.628,0,1.611,0,1.62-1.6,0-.438-.115-.551-.55-.546-2.139.023-4.278.01-6.417.01-1.652,0-1.639,0-1.618,1.671,0,.378.1.485.481.478C925.167,132.078,926.415,132.093,927.663,132.093Zm-.936-6.422h-1.671c-1.652,0-1.639,0-1.618,1.671,0,.377.1.484.481.478,1.448-.021,2.9-.009,4.344-.009,1.7,0,1.686,0,1.617-1.738-.013-.318-.092-.417-.413-.409C928.555,125.684,927.641,125.671,926.727,125.671Z" transform="translate(-93.498 -58.444)" fill="#e5e8eb"/>
      <path id="Trazado_640469" data-name="Trazado 640469" d="M936.29,79.9c-4.792,0-9.584-.007-14.377.011-.48,0-.637-.088-.632-.609q.042-4.747,0-9.494c0-.5.113-.624.618-.623q13.976.025,27.951.013c1.054,0,1.413.353,1.413,1.393,0,2.875-.014,5.75.014,8.625.005.541-.107.7-.679.7C945.83,79.89,941.06,79.9,936.29,79.9Zm-7.554-4.281h3.873c1.544,0,1.515,0,1.547-1.553.011-.538-.179-.6-.642-.6-2.827.02-5.653.01-8.48.01-1.627,0-1.605,0-1.611,1.619,0,.471.17.534.573.529C925.575,75.608,927.155,75.62,928.736,75.62ZM936.28,74.5c0,1.124,0,1.124,1.084,1.124,1.057,0,1.057,0,1.057-1.084,0-1.057,0-1.057-1.084-1.057C936.28,73.479,936.28,73.479,936.28,74.5Zm4.282,0c0,1.124,0,1.124,1.084,1.124,1.057,0,1.057,0,1.057-1.084,0-1.057,0-1.057-1.084-1.057C940.562,73.479,940.562,73.479,940.562,74.5Zm6.423.071c0-1.088,0-1.088-1.119-1.088-1.022,0-1.022,0-1.022,1.052,0,1.088,0,1.088,1.119,1.088C946.985,75.62,946.985,75.62,946.985,74.568Z" transform="translate(-93.485 -23.378)" fill="#bbda89"/>
      <path id="Trazado_640470" data-name="Trazado 640470" d="M865.815,79.908c-2.1,0-4.192-.012-6.287.01a1.138,1.138,0,0,1-.921-.467,2.668,2.668,0,0,1-.509-2.531c.339-2.4.626-4.815.907-7.226.046-.4.176-.5.57-.5q6.355.023,12.709,0c.409,0,.572.067.569.533q-.033,4.816,0,9.631c0,.428-.1.562-.546.557C870.141,79.9,867.978,79.908,865.815,79.908Z" transform="translate(-47.172 -23.385)" fill="#bbda89"/>
      <path id="Trazado_640471" data-name="Trazado 640471" d="M817.485,179.273c0-1.938.014-3.877-.011-5.816-.006-.442.121-.606.553-.54a1.835,1.835,0,0,0,.4,0,1.836,1.836,0,0,1,1.948.877,3.08,3.08,0,0,0,5.231-.384c.2-.355.372-.539.8-.5.571.053,1.328-.173,1.672.117.364.306.1,1.085.109,1.657.019.78,0,1.56.006,2.34a2.111,2.111,0,0,0,1.75,2.268c.364.08.4.225.394.519-.008,1.827-.015,3.654,0,5.481,0,.381-.109.479-.484.478q-5.95-.019-11.9,0c-.381,0-.481-.109-.478-.483C817.495,183.284,817.485,181.279,817.485,179.273Z" transform="translate(-17.506 -99.273)" fill="#f5d67e"/>
      <path id="Trazado_640472" data-name="Trazado 640472" d="M826.822,45.249c1.382,0,2.763.016,4.144-.01.432-.008.493.1.438.522-.58,4.5-1.133,9.011-1.689,13.517-.117.953-.107.954-1.1.954-1.315,0-2.631-.04-3.943.018-.59.026-.734-.18-.8-.713-.444-3.736-.916-7.467-1.381-11.2-.11-.884-.2-1.77-.346-2.648-.06-.37.038-.451.39-.447C823.97,45.258,825.4,45.249,826.822,45.249Z" transform="translate(-20.919 -5.85)" fill="#f4d57e"/>
      <path id="Trazado_640473" data-name="Trazado 640473" d="M981.489,170.8c0-1.471,0-2.942,0-4.413,0-.837.411-1.326,1.082-1.317s1.055.5,1.057,1.344c0,2.184.025,4.369-.015,6.552-.01.577.16.685.7.676,1.871-.032,3.188.842,3.477,2.459a7.084,7.084,0,0,1-1.126,5.728.79.79,0,0,1-.713.37q-2.908-.025-5.817,0a1.08,1.08,0,0,1-.78-.285,6.009,6.009,0,0,1-2.133-4.376c-.049-1.157.006-2.318-.022-3.476-.011-.44.156-.479.509-.375a2.118,2.118,0,0,1,1.6,1.706c.061.314.158.378.458.387,1.726.052,1.726.061,1.726-1.634Z" transform="translate(-134.412 -93.556)" fill="#e9cfb6"/>
      <path id="Trazado_640474" data-name="Trazado 640474" d="M823.19,109c.936,0,1.874.029,2.808-.013a.965.965,0,0,1,.921.493,7.157,7.157,0,0,1,1.052,5.558,3.1,3.1,0,0,1-3.305,2.525c-.87,0-.87,0-.87.876q0,3.176,0,6.352c0,.841-.4,1.331-1.07,1.33s-1.067-.487-1.068-1.332c0-2.92-.014-5.839.011-8.759,0-.494-.108-.7-.615-.612a1.6,1.6,0,0,1-.4,0c-.651-.05-1.251-.1-1.333.839-.034.384-.4.686-.736.916s-.751.5-1.1.331c-.277-.131-.105-.608-.1-.925a25.564,25.564,0,0,1,.1-3.736,6.019,6.019,0,0,1,.944-2.331,2.685,2.685,0,0,1,2.83-1.531A12.019,12.019,0,0,0,823.19,109Z" transform="translate(-17.396 -52.473)" fill="#e9cfb6"/>
      <path id="Trazado_640475" data-name="Trazado 640475" d="M943.72,193l2.373.008a3.5,3.5,0,0,0-.26,1.494c.029,1.358-.044,2.723.062,4.074a8.24,8.24,0,0,0,2.48,5.117l-2.514.013c-.056-1.072-.056-1.072-1.161-1.072-2.295,0-4.589-.012-6.884.01-.434,0-.555-.109-.551-.548q.033-3.742,0-7.485c0-.435.11-.558.549-.551,1.581.027,3.163.011,4.745.011C943.664,194.068,943.664,194.068,943.72,193Z" transform="translate(-105.184 -113.997)" fill="#f5d67e"/>
      <path id="Trazado_640476" data-name="Trazado 640476" d="M986.734,247.6c-1.381,0-2.763-.015-4.144.009-.408.007-.479-.128-.418-.495q.826-4.9,1.63-9.81c.046-.28.144-.418.468-.415q2.44.024,4.88,0c.359,0,.45.154.5.457q.8,4.84,1.615,9.676c.081.472-.037.6-.52.589C989.409,247.579,988.071,247.6,986.734,247.6Z" transform="translate(-138.039 -146.124)" fill="#bbd989"/>
      <path id="Trazado_640477" data-name="Trazado 640477" d="M979.321,151.765l-2.124-.021c0-3.344.014-6.689-.006-10.034,0-.508.106-.669.647-.665q4.716.043,9.432,0c.54,0,.651.156.647.665-.021,3.345-.008,6.689-.006,10.034l-2.124.021c-.007-1.047-.01-2.095-.023-3.142a3.211,3.211,0,1,0-6.421,0C979.332,149.67,979.329,150.718,979.321,151.765Z" transform="translate(-134.407 -75.974)" fill="#ee8773"/>
      <path id="Trazado_640478" data-name="Trazado 640478" d="M865.407,161.33c0-1.269.013-2.538-.008-3.806-.006-.375.095-.49.48-.487q3.806.025,7.612,0c.375,0,.49.095.487.48q-.025,3.806,0,7.612c0,.374-.095.49-.48.487q-3.806-.025-7.612,0c-.374,0-.495-.094-.488-.48C865.422,163.868,865.407,162.6,865.407,161.33Z" transform="translate(-52.583 -87.678)" fill="#ee8774"/>
      <path id="Trazado_640479" data-name="Trazado 640479" d="M803.354,79.918c-.446,0-.895-.032-1.337.009s-.507-.137-.505-.529c.015-2.964.005-5.929.01-8.893,0-.885.385-1.278,1.247-1.288.825-.01,1.65.009,2.474-.008.292-.006.422.056.461.384q.5,4.179,1.046,8.352a.923.923,0,0,1-.3.747A2.8,2.8,0,0,1,803.354,79.918Z" transform="translate(-5.823 -23.394)" fill="#bbd989"/>
      <path id="Trazado_640480" data-name="Trazado 640480" d="M884.462,207.1c-.914,0-1.827-.012-2.74.006-.308.006-.409-.069-.423-.4-.074-1.748-.086-1.747,1.676-1.747,1.426,0,2.852.012,4.277-.008.364-.005.485.078.49.468.023,1.68.037,1.68-1.61,1.68Z" transform="translate(-64.204 -122.746)"/>
      <path id="Trazado_640481" data-name="Trazado 640481" d="M891.344,223.077h-.535c-1.773,0-1.767,0-1.616-1.8.021-.254.08-.344.343-.342q1.8.017,3.607,0c.257,0,.376.074.339.338a.348.348,0,0,0,0,.067c.09,1.741.09,1.741-1.671,1.741Z" transform="translate(-69.954 -134.444)"/>
      <path id="Trazado_640482" data-name="Trazado 640482" d="M981.84,145.935c0-3.344-.015-6.689.006-10.034,0-.509-.107-.669-.647-.665q-4.716.043-9.432,0c-.541,0-.651.156-.647.665.021,3.344.008,6.689.006,10.034-.687,0-1.563.243-2.006-.087-.421-.314-.12-1.246-.124-1.9-.015-2.784-.007-5.568-.006-8.353a2.193,2.193,0,0,1,2.447-2.48q5.046,0,10.091,0a2.172,2.172,0,0,1,2.447,2.413c0,3.274-.011,6.549.013,9.823,0,.492-.1.671-.613.617S982.352,145.942,981.84,145.935Z" transform="translate(-128.335 -70.165)"/>
      <path id="Trazado_640483" data-name="Trazado 640483" d="M937.9,190.023c-.056,1.072-.056,1.072-1.161,1.072-1.582,0-3.164.016-4.745-.011-.439-.007-.552.115-.549.551q.032,3.742,0,7.485c0,.439.117.552.552.548,2.294-.022,4.589-.01,6.884-.01,1.105,0,1.105,0,1.161,1.072-.055,1.069-.055,1.069-1.159,1.069q-3.575,0-7.151,0a2.167,2.167,0,0,1-2.416-2.378q-.005-4.043,0-8.086a2.173,2.173,0,0,1,2.414-2.379c1.782,0,3.565.035,5.346-.019.673-.021.932.155.806.822A1.028,1.028,0,0,0,937.9,190.023Z" transform="translate(-99.363 -111.024)" fill="#010101"/>
      <path id="Trazado_640484" data-name="Trazado 640484" d="M933.493,167.165c-1.248,0-2.5-.014-3.743.009-.377.007-.477-.1-.481-.478-.021-1.672-.034-1.671,1.618-1.671,2.139,0,4.279.013,6.417-.01.435,0,.552.108.55.546-.009,1.6.009,1.6-1.62,1.6Z" transform="translate(-99.328 -93.517)"/>
      <path id="Trazado_640485" data-name="Trazado 640485" d="M932.558,149.063c.913,0,1.827.013,2.74-.007.321-.007.4.091.413.409.069,1.738.079,1.738-1.617,1.738-1.448,0-2.9-.013-4.344.009-.377.006-.476-.1-.481-.478-.021-1.671-.034-1.671,1.618-1.671Z" transform="translate(-99.328 -81.836)"/>
      <path id="Trazado_640486" data-name="Trazado 640486" d="M934.582,87.314c-1.58,0-3.161-.012-4.741.008-.4,0-.575-.058-.573-.529.006-1.619-.016-1.619,1.611-1.619,2.827,0,5.653.01,8.48-.01.463,0,.653.06.642.6-.032,1.552,0,1.553-1.547,1.553Z" transform="translate(-99.331 -35.072)"/>
      <path id="Trazado_640487" data-name="Trazado 640487" d="M977.234,86.218c0-1.017,0-1.017,1.057-1.017,1.084,0,1.084,0,1.084,1.057,0,1.084,0,1.084-1.057,1.084C977.234,87.342,977.234,87.342,977.234,86.218Z" transform="translate(-134.438 -35.1)"/>
      <path id="Trazado_640488" data-name="Trazado 640488" d="M993.206,86.218c0-1.017,0-1.017,1.057-1.017,1.084,0,1.084,0,1.084,1.057,0,1.084,0,1.084-1.057,1.084C993.206,87.342,993.206,87.342,993.206,86.218Z" transform="translate(-146.129 -35.1)"/>
      <path id="Trazado_640489" data-name="Trazado 640489" d="M1011.319,86.289c0,1.052,0,1.052-1.022,1.052-1.119,0-1.119,0-1.119-1.088,0-1.052,0-1.052,1.022-1.052C1011.319,85.2,1011.319,85.2,1011.319,86.289Z" transform="translate(-157.819 -35.1)"/>
    </g>
  </g>
</svg>
