<svg xmlns="http://www.w3.org/2000/svg" width="82" height="82" viewBox="0 0 82 82">
  <g id="Grupo_962297" data-name="Grupo 962297" transform="translate(-498 -22866.387)">
    <g id="Grupo_956681" data-name="Grupo 956681" transform="translate(195 18937.387)">
      <g id="Grupo_951854" data-name="Grupo 951854" transform="translate(303 3929)">
        <path id="Trazado_621807" data-name="Trazado 621807" d="M41,0A41,41,0,1,1,0,41,41,41,0,0,1,41,0Z" fill="#ef8b53"/>
      </g>
    </g>
    <g id="Grupo_980595" data-name="Grupo 980595" transform="translate(-330.222 22505.004)">
      <path id="Trazado_640490" data-name="Trazado 640490" d="M881.968,430.773c-.056,1.179-.056,1.179-1.283,1.179q-10.027,0-20.055-.012a1.539,1.539,0,0,0-1.217.511c-1.464,1.5-2.988,2.944-4.422,4.471-.53.564-.861.562-1.28-.03a1.4,1.4,0,0,0-.281-.234c-.722-.843-.723-.845.087-1.65.984-.979,1.972-1.954,3.086-3.056-2.224,0-4.24,0-6.256,0-1.2,0-1.575-.384-1.577-1.6,0-.992,0-1.983,0-3.081-.247.169-.365.253-.486.331-1.45.935-1.45.935-2-.7a.925.925,0,0,0-.041-.142c-.237-.451-.157-.688.356-.94a3.774,3.774,0,0,0,2.143-3.158,9.349,9.349,0,0,0,.012-1.848,2.4,2.4,0,0,1,.867-2.075c1.828-1.765,3.607-3.58,5.4-5.38a2.181,2.181,0,1,0-3.05-3.066q-2.334,2.324-4.659,4.656c-1.293,1.293-1.282,1.282-2.581-.047-.3-.306-.283-.467.012-.754,1.2-1.17,2.369-2.376,3.571-3.545a1.354,1.354,0,0,0,.464-1.089c-.031-1.7-.008-3.4-.018-5.106,0-.171.116-.391-.122-.526-1.861,1.626-3.711,3.258-5.579,4.868a3.853,3.853,0,0,0-1.408,3.113c.021,2.935-.014,5.871.021,8.806a2.372,2.372,0,0,1-.771,1.894c-1.581,1.523-3.115,3.094-4.668,4.647-.806.806-.806.806-1.654.091-.828-.969-.828-.968.118-1.913,1.379-1.378,2.748-2.766,4.143-4.127a1.366,1.366,0,0,0,.459-1.09c-.023-2.714.016-5.429-.02-8.143a6.293,6.293,0,0,1,2.3-5.133c2.211-1.895,4.373-3.846,6.588-5.734a1.6,1.6,0,0,0,.608-1.38q-.028-12.7-.012-25.392c0-1.316.349-1.667,1.658-1.667,5.676,0,11.353-.007,17.029.012.49,0,.736-.113.9-.6a26.334,26.334,0,0,1,.99-2.463,4.676,4.676,0,0,1,8.6-.036,26.929,26.929,0,0,1,1.016,2.532.734.734,0,0,0,.847.568q8.515-.026,17.029-.011c1.36,0,1.7.339,1.7,1.7q0,9.772,0,19.543c0,1.228,0,1.228-1.18,1.284-1.191-.057-1.191-.057-1.191-1.3,0-6.017-.013-12.034.018-18.051,0-.7-.211-.842-.859-.828-2,.04-4,.015-5.993.015-1.929,0-1.908.009-2.647,1.789-.233.563-.025.592.442.587,1.726-.018,3.453-.011,5.179-.006,1.071,0,1.483.409,1.488,1.467.006,1.455,0,2.91,0,4.365,0,1.24,0,1.24-1.19,1.3a1.592,1.592,0,0,0-.368-.019c-.676.121-.863-.154-.829-.822.059-1.132,0-2.27.026-3.4.011-.424-.121-.532-.534-.526-1.653.023-3.307.029-4.959,0a.669.669,0,0,0-.738.528c-.283.734-.607,1.452-.914,2.176a1.308,1.308,0,0,1-1.322.868q-9.327-.011-18.655,0a1.3,1.3,0,0,1-1.306-.888c-.3-.726-.634-1.441-.912-2.177a.669.669,0,0,0-.754-.5c-1.6.028-3.209.045-4.811-.006-.6-.019-.661.192-.66.705q.023,13.249,0,26.5a1.023,1.023,0,0,0,.5.947,4.476,4.476,0,0,1,1.7,4.912,5.391,5.391,0,0,1-1.735,2.525,1.3,1.3,0,0,0-.468,1.085c.026,2.541.036,5.083,0,7.623-.01.623.154.756.763.754q12.029-.034,24.059-.015c1.227,0,1.227,0,1.284,1.18a1.2,1.2,0,0,0-.019.294c.144.758-.177.916-.91.913-8.637-.028-17.275-.017-25.913-.018-1.254,0-1.616-.367-1.617-1.638,0-2.221,0-4.442-.007-6.662,0-.169.116-.391-.177-.551-.594.612-1.179,1.248-1.8,1.843a1.209,1.209,0,0,0-.391.974c.016,2.541.037,5.084-.011,7.624-.013.682.2.793.823.792q14.363-.03,28.726-.014C881.911,429.582,881.911,429.582,881.968,430.773ZM873.69,375.09c-3.553,0-7.106.008-10.66-.009-.5,0-.59.1-.38.568q1.081,2.428,2.091,4.888a.683.683,0,0,0,.766.484q8.143-.02,16.286,0a.682.682,0,0,0,.768-.481q.991-2.426,2.065-4.817c.239-.531.154-.647-.424-.644C880.7,375.1,877.194,375.09,873.69,375.09Zm-22.55,32.74a4.681,4.681,0,0,1,1.6-.628c.665-.039.787-.363.785-.98q-.032-13.578-.014-27.156c0-1.224.373-1.6,1.573-1.606,1.283,0,2.566.015,3.848-.008.6-.011,1.477.277,1.728-.137s-.4-1.08-.576-1.664c-.137-.458-.4-.578-.862-.573-2.417.025-4.836.038-7.252-.005-.675-.012-.846.168-.844.844q.034,15.539.016,31.078ZM876.635,372.7c-.332-.81-.6-1.576-.954-2.3a2.14,2.14,0,0,0-1.967-1.226,2.089,2.089,0,0,0-2.024,1.121c-.4.753-.678,1.565-1.031,2.4Z" transform="translate(0 0)" fill="#010101"/>
      <path id="Trazado_640491" data-name="Trazado 640491" d="M946.984,485.532c-.761,0-1.729.274-2.222-.091-.467-.346-.126-1.378-.138-2.107-.029-1.627-.022-3.254-.029-4.881q0-2.374,0-4.749c.008-2.466.012-4.932.027-7.4a.817.817,0,0,0-.254-.651q-1.793-1.764-3.557-3.558c-.222-.225-.364-.3-.664-.073a4.4,4.4,0,0,1-5.483.156c-.214-.141-.35-.21-.555.013-.636.691-1.291,1.363-1.921,2.023.542.075,1.328-.247,1.66.125.358.4.055,1.176.114,1.784.039.405-.124.493-.5.483-.937-.024-1.875-.008-2.812-.008-1.37,0-1.37,0-1.456-1.376a.467.467,0,0,0-.037-.094c-.206.058-.418.107-.624.177-.535.183-1.217.235-1.56.6-.379.406-.1,1.121-.125,1.7-.044.913-.459,1.351-1.38,1.357q-2.183.016-4.367,0a1.2,1.2,0,0,1-1.365-1.363q-.016-2.182,0-4.366a1.2,1.2,0,0,1,1.353-1.374c.962-.012,1.924,0,2.886-.006.205,0,.429.069.522-.254.2-.694.446-1.374.69-2.111-1.4,0-2.71.006-4.017,0-1.011-.006-1.431-.428-1.436-1.443q-.01-2.109,0-4.218c.005-1.018.422-1.436,1.433-1.445.79-.007,1.579,0,2.368,0,3.464-.032,3.347-.187,3.308,3.276,0,.278,0,.556,0,.859a2.285,2.285,0,0,0,1.206-2.394c-.1-1.076-.022-2.168-.022-3.254a5.845,5.845,0,0,1,1.738-4.263q2.577-2.6,5.181-5.18a7.033,7.033,0,0,1,5.134-2.076c1.159,0,2.319-.015,3.478.009a1.186,1.186,0,0,0,.964-.4c.837-.872,1.73-1.69,2.554-2.574a4.544,4.544,0,0,1,8.037,1.564,4.492,4.492,0,0,1-1.284,4.529c-.233.235-.472.4-.1.76,1.315,1.26,2.6,2.55,3.9,3.828a28.975,28.975,0,0,1,3.977,4.84,20.745,20.745,0,0,1,3.14,10.782c.038,7.423.009,14.846.027,22.268,0,.481-.118.643-.6.6-.588-.048-1.182-.025-1.773-.032,0-4.886-.012-9.772.009-14.657,0-.563-.119-.739-.716-.735q-7,.041-13.993,0c-.6,0-.719.172-.717.735C947,475.76,946.985,480.646,946.984,485.532Zm.475-36.7h2.5c1.8,0,1.772,0,1.783,1.792,0,.517-.178.591-.629.587-2.639-.019-5.279,0-7.919-.013a3.724,3.724,0,0,0-2.783,1.148c-1.476,1.489-2.967,2.963-4.446,4.45a2.176,2.176,0,1,0,3.056,3.057c1.138-1.129,2.262-2.273,3.4-3.4a1.21,1.21,0,0,1,2.1.169,6.9,6.9,0,0,0,3.881,2.663,10.277,10.277,0,0,0,2.72.207c1.886,0,1.875,0,1.8,1.92-.014.349-.1.468-.456.457-.862-.025-1.727.009-2.59-.015a8.742,8.742,0,0,1-5.958-2.4c-.492-.466-.787-.509-1.167.03a.867.867,0,0,1-.209.208c-.392.275-.32.495,0,.8.928.884,1.76,1.88,2.744,2.695a4.006,4.006,0,0,1,1.7,4.026c-.079.436.071.583.548.581q7.141-.03,14.283,0c.532,0,.585-.2.578-.636-.023-1.43,0-2.861-.013-4.291A18.766,18.766,0,0,0,959.9,453.7c-2.009-3.546-5.246-5.99-7.96-8.9-.2-.217-.33-.1-.483.052C950.172,446.136,948.882,447.417,947.46,448.83Zm-1.608-1.77c-.088-.109-.155-.207-.237-.291-.818-.822-1.653-1.629-2.453-2.468-.315-.331-.48-.151-.708.078q-6.776,6.784-13.562,13.556c-.251.251-.347.416-.039.71.822.783,1.611,1.6,2.416,2.4.1.1.186.243.361.22a2.763,2.763,0,0,0,1.25-1.813,4.354,4.354,0,0,1,1.173-4.091c1.594-1.65,3.226-3.265,4.868-4.869a5.4,5.4,0,0,1,4.074-1.638,2.171,2.171,0,0,0,1.972-.86,8.448,8.448,0,0,1,.623-.632C945.674,447.278,945.747,447.182,945.852,447.06ZM930.4,452.74l11.027-11.017h-1.412a4.655,4.655,0,0,0-3.4,1.389q-2.6,2.582-5.181,5.179a3.465,3.465,0,0,0-1.038,2.528C930.4,451.507,930.4,452.2,930.4,452.74Zm22.505-13.756a2.065,2.065,0,0,0-1.16-1.74,2.009,2.009,0,0,0-2.284.187c-.408.31-.742.716-1.124,1.063-.217.2-.2.342,0,.54.842.827,1.671,1.667,2.508,2.5.114.114.246.319.423.136C951.976,440.937,952.91,440.351,952.906,438.984Zm-6.5,1.5c-.1.079-.173.138-.247.2-1.771,1.352-1.78,1.483-.224,3.04.069.069.136.142.209.208.491.439.9,1.3,1.437,1.267.624-.041,1.019-.906,1.555-1.368.26-.224.283-.393.018-.649-.832-.8-1.64-1.63-2.46-2.446C946.606,440.652,946.51,440.581,946.4,440.489Zm-21.927,15.456c0-1.19,0-1.19-1.178-1.19s-1.19,0-1.19,1.178,0,1.19,1.178,1.19S924.475,457.122,924.475,455.944Zm4.646,6.67-1.815-1.948-.946,2.877Zm-5.5,1.618c-.46,0-.8.005-1.145,0-.218-.005-.336.028-.379.3-.29,1.884-.121,2.1,1.71,2.06.037,0,.074-.038.168-.09C923,465.918,923.291,465.108,923.622,464.232Z" transform="translate(-60.303 -47.679)" fill="#020202"/>
      <path id="Trazado_640492" data-name="Trazado 640492" d="M835.917,515.117c.848.715.848.715,1.654-.091,1.553-1.553,3.087-3.124,4.668-4.647a2.372,2.372,0,0,0,.77-1.894c-.035-2.935,0-5.871-.021-8.806a3.853,3.853,0,0,1,1.408-3.113c1.868-1.61,3.717-3.242,5.579-4.868.238.135.121.355.122.526.01,1.7-.012,3.4.018,5.106a1.354,1.354,0,0,1-.464,1.089c-1.2,1.169-2.369,2.375-3.571,3.545-.295.287-.312.448-.012.754,1.3,1.328,1.288,1.339,2.581.047q2.329-2.329,4.659-4.656a2.181,2.181,0,1,1,3.05,3.066c-1.793,1.8-3.573,3.615-5.4,5.38a2.4,2.4,0,0,0-.867,2.075,9.354,9.354,0,0,1-.012,1.848,3.775,3.775,0,0,1-2.143,3.158c-.513.253-.593.49-.356.94a.926.926,0,0,1,.041.142c.546,1.635.546,1.635,2,.7.121-.078.238-.162.486-.331,0,1.1,0,2.089,0,3.081,0,1.217.377,1.6,1.577,1.6,2.016,0,4.032,0,6.256,0-1.113,1.1-2.1,2.077-3.086,3.056-.81.805-.809.807-.087,1.65-2.2.011-4.392.028-6.588.031-3.85.005-7.7-.01-11.55.013-.578,0-.761-.15-.753-.744C835.913,520.891,835.907,518,835.917,515.117Z" transform="translate(-1.334 -87.818)" fill="#f5ceb8"/>
      <path id="Trazado_640493" data-name="Trazado 640493" d="M1011.534,569.693c0-4.886.012-9.772-.009-14.658,0-.563.119-.738.717-.735q7,.041,13.993,0c.6,0,.719.172.717.735-.021,4.886-.01,9.771-.009,14.657Z" transform="translate(-124.853 -131.84)" fill="#5e8bf6"/>
      <path id="Trazado_640494" data-name="Trazado 640494" d="M924.911,548.157q0,2.374,0,4.749h-2.324c-.056-1.191-.056-1.191-1.3-1.191q-14.363,0-28.726.014c-.624,0-.836-.109-.823-.792.048-2.541.027-5.083.011-7.624a1.209,1.209,0,0,1,.391-.974c.624-.6,1.209-1.231,1.8-1.843.293.16.176.381.177.551.01,2.221.005,4.442.007,6.662,0,1.27.363,1.638,1.617,1.638,8.638,0,17.275-.01,25.913.018.733,0,1.054-.156.91-.913a1.2,1.2,0,0,1,.019-.294Z" transform="translate(-40.62 -122.132)" fill="#bd874d"/>
      <path id="Trazado_640495" data-name="Trazado 640495" d="M1021.974,418.961c-1.3-1.279-2.583-2.569-3.9-3.828-.372-.356-.132-.525.1-.76a4.491,4.491,0,0,0,1.284-4.529,4.75,4.75,0,0,0-2.218-2.835q0-1.425.01-2.85c1.19-.058,1.19-.058,1.19-1.3,0-1.455,0-2.91,0-4.365,0-1.058-.417-1.464-1.488-1.467-1.727-.005-3.453-.012-5.179.006-.467,0-.675-.023-.442-.587.738-1.781.718-1.789,2.647-1.789,2,0,4,.026,5.993-.015.648-.013.862.126.859.828-.031,6.017-.018,12.034-.018,18.051,0,1.24,0,1.24,1.191,1.3Q1021.988,416.891,1021.974,418.961Z" transform="translate(-124.649 -19.57)" fill="#bd874c"/>
      <path id="Trazado_640496" data-name="Trazado 640496" d="M944.458,415.379q0,1.425-.01,2.85a4.724,4.724,0,0,0-5.819,1.271c-.824.884-1.717,1.7-2.554,2.574a1.186,1.186,0,0,1-.964.4c-1.159-.024-2.319-.007-3.478-.009a7.033,7.033,0,0,0-5.134,2.076q-2.61,2.57-5.181,5.18a5.845,5.845,0,0,0-1.738,4.263c0,1.085-.077,2.178.022,3.254a2.285,2.285,0,0,1-1.206,2.394c0-.3,0-.581,0-.859.039-3.463.156-3.309-3.308-3.276-.789.007-1.579,0-2.368,0-1.011.009-1.428.427-1.433,1.445q-.01,2.109,0,4.218c0,1.015.424,1.437,1.436,1.443,1.307.007,2.613,0,4.017,0-.244.737-.49,1.418-.69,2.111-.093.323-.317.253-.522.254-.962.006-1.924-.007-2.886.006a1.2,1.2,0,0,0-1.353,1.374q-.015,2.183,0,4.366a1.2,1.2,0,0,0,1.365,1.363q2.183.016,4.367,0c.921-.007,1.336-.445,1.38-1.357.028-.579-.255-1.295.125-1.7.343-.367,1.025-.419,1.56-.6.205-.07.418-.119.624-.177a.467.467,0,0,1,.037.094c.085,1.376.085,1.376,1.456,1.376.937,0,1.875-.016,2.812.008.373.009.537-.078.5-.483-.058-.608.244-1.384-.114-1.784-.333-.372-1.118-.05-1.66-.125.63-.66,1.286-1.332,1.921-2.023.206-.224.341-.154.555-.013a4.4,4.4,0,0,0,5.483-.156c.3-.225.442-.152.664.073q1.765,1.792,3.557,3.558a.817.817,0,0,1,.254.651c-.014,2.466-.019,4.932-.027,7.4h-2.323c-.057-1.18-.057-1.18-1.284-1.18q-12.029,0-24.059.015c-.608,0-.773-.131-.763-.754.04-2.541.03-5.082,0-7.623a1.3,1.3,0,0,1,.468-1.085,5.39,5.39,0,0,0,1.735-2.525,4.476,4.476,0,0,0-1.7-4.912,1.023,1.023,0,0,1-.5-.947q.026-13.249,0-26.5c0-.513.064-.724.66-.705,1.6.051,3.208.034,4.811.006a.67.67,0,0,1,.755.5c.278.735.61,1.45.912,2.177a1.3,1.3,0,0,0,1.306.888q9.327-.009,18.655,0a1.308,1.308,0,0,0,1.322-.868c.307-.724.631-1.442.914-2.176a.669.669,0,0,1,.738-.528c1.653.033,3.306.027,4.959,0,.414-.006.545.1.534.526-.029,1.134.033,2.272-.026,3.4-.035.668.153.943.829.822A1.593,1.593,0,0,1,944.458,415.379ZM918.4,420.1c0-.739.01-1.478,0-2.216a1.193,1.193,0,0,0-1.312-1.339q-2.254-.021-4.507,0a1.171,1.171,0,0,0-1.283,1.289q-.023,2.253,0,4.507a1.172,1.172,0,0,0,1.271,1.3q2.291.026,4.581,0a1.165,1.165,0,0,0,1.247-1.252C918.411,421.627,918.4,420.863,918.4,420.1Zm-3.481,5.919c-.788,0-1.577-.015-2.365,0a1.159,1.159,0,0,0-1.257,1.239q-.029,2.327,0,4.654a1.141,1.141,0,0,0,1.217,1.2q2.328.031,4.655,0a1.143,1.143,0,0,0,1.22-1.2q.035-2.327,0-4.654a1.162,1.162,0,0,0-1.257-1.241C916.394,426,915.655,426.018,914.916,426.018Zm14.205-7.108h-1.85c-1.791,0-1.768,0-1.78,1.789,0,.509.165.6.622.59,1.578-.026,3.156-.01,4.735-.01,1.791,0,1.768,0,1.781-1.789,0-.509-.164-.605-.622-.59C931.045,418.933,930.082,418.91,929.121,418.91Zm1.061,30.8h.592c1.947,0,1.941,0,1.847-1.935-.014-.286-.034-.446-.391-.441-1.331.02-2.663.011-3.994.005-.225,0-.333.036-.371.31-.265,1.9-.14,2.062,1.725,2.062Zm-7.046-29.678c0-1.122,0-1.122-1.1-1.122-1.27,0-1.27,0-1.27,1.247,0,1.122,0,1.122,1.1,1.122C923.135,421.279,923.135,421.279,923.135,420.032Z" transform="translate(-51.854 -30.789)" fill="#e1ecfc"/>
      <path id="Trazado_640497" data-name="Trazado 640497" d="M941.377,394.67c3.5,0,7.008.011,10.512-.011.578,0,.663.113.424.644q-1.076,2.389-2.065,4.817a.682.682,0,0,1-.768.481q-8.143-.019-16.286,0a.683.683,0,0,1-.766-.484q-1.006-2.46-2.091-4.888c-.21-.472-.121-.571.38-.568C934.27,394.678,937.823,394.67,941.377,394.67Z" transform="translate(-67.687 -19.581)" fill="#f4c451"/>
      <path id="Trazado_640498" data-name="Trazado 640498" d="M891.769,427.4v-.835q0-15.539-.016-31.078c0-.676.169-.855.844-.844,2.417.043,4.835.03,7.252.005.466,0,.725.115.862.573.175.583.823,1.258.576,1.664s-1.127.126-1.728.137c-1.282.023-2.566,0-3.848.008-1.2,0-1.573.382-1.573,1.606q0,13.578.014,27.156c0,.617-.12.941-.785.98A4.683,4.683,0,0,0,891.769,427.4Z" transform="translate(-40.629 -19.565)" fill="#bd874d"/>
      <path id="Trazado_640499" data-name="Trazado 640499" d="M963.547,378.29h-5.975c.354-.837.635-1.65,1.031-2.4a2.089,2.089,0,0,1,2.024-1.121,2.14,2.14,0,0,1,1.967,1.226C962.95,376.714,963.216,377.48,963.547,378.29Z" transform="translate(-86.913 -5.591)" fill="#f0b33e"/>
      <path id="Trazado_640500" data-name="Trazado 640500" d="M983.97,472.674c1.423-1.414,2.713-2.694,4-3.977.153-.152.281-.269.483-.052,2.714,2.913,5.951,5.358,7.96,8.9a18.765,18.765,0,0,1,2.482,9.166c.017,1.43-.01,2.861.013,4.291.007.438-.046.639-.578.636q-7.141-.036-14.284,0c-.477,0-.626-.145-.548-.581a4.006,4.006,0,0,0-1.7-4.026c-.984-.814-1.815-1.81-2.744-2.695-.325-.309-.4-.529,0-.8a.865.865,0,0,0,.209-.208c.38-.538.675-.5,1.167-.03a8.742,8.742,0,0,0,5.958,2.4c.863.023,1.727-.01,2.59.015.359.01.442-.109.456-.457.078-1.921.088-1.923-1.8-1.92a10.28,10.28,0,0,1-2.72-.207,6.9,6.9,0,0,1-3.881-2.663,1.21,1.21,0,0,0-2.1-.169c-1.142,1.125-2.266,2.269-3.4,3.4a2.176,2.176,0,1,1-3.056-3.057c1.479-1.487,2.97-2.961,4.446-4.45a3.723,3.723,0,0,1,2.783-1.148c2.639.012,5.279-.006,7.919.013.451,0,.632-.07.629-.587-.01-1.792.013-1.792-1.783-1.792Z" transform="translate(-96.813 -71.523)" fill="#f5ceb8"/>
      <path id="Trazado_640501" data-name="Trazado 640501" d="M967.005,469.577c-.1.122-.178.217-.262.3a8.449,8.449,0,0,0-.623.632,2.171,2.171,0,0,1-1.972.86,5.4,5.4,0,0,0-4.074,1.638c-1.642,1.6-3.274,3.218-4.868,4.869a4.354,4.354,0,0,0-1.173,4.091,2.763,2.763,0,0,1-1.25,1.813c-.175.023-.26-.12-.361-.22-.8-.8-1.594-1.617-2.416-2.4-.307-.293-.212-.459.039-.71q6.788-6.77,13.562-13.556c.228-.229.393-.408.708-.078.8.839,1.635,1.646,2.453,2.468C966.851,469.369,966.917,469.468,967.005,469.577Z" transform="translate(-81.457 -70.195)" fill="#dc6646"/>
      <path id="Trazado_640502" data-name="Trazado 640502" d="M955.679,469.575c0-.544,0-1.233,0-1.922a3.465,3.465,0,0,1,1.039-2.528q2.585-2.595,5.181-5.179a4.655,4.655,0,0,1,3.4-1.389h1.412Z" transform="translate(-85.581 -64.514)" fill="#f4cdb7"/>
      <path id="Trazado_640503" data-name="Trazado 640503" d="M1020.317,444.567c0,1.367-.93,1.953-1.633,2.685-.176.184-.308-.022-.423-.136-.837-.832-1.666-1.672-2.508-2.5-.2-.2-.221-.343,0-.54.382-.347.716-.752,1.124-1.063a2.009,2.009,0,0,1,2.284-.187A2.065,2.065,0,0,1,1020.317,444.567Z" transform="translate(-127.714 -53.262)" fill="#f4c451"/>
      <path id="Trazado_640504" data-name="Trazado 640504" d="M1005.781,454.4c.108.092.2.163.287.246.819.816,1.628,1.644,2.46,2.446.266.256.242.425-.018.649-.536.462-.931,1.328-1.555,1.368-.538.035-.946-.828-1.437-1.267-.073-.066-.14-.139-.209-.208-1.556-1.556-1.546-1.688.224-3.039C1005.609,454.538,1005.682,454.479,1005.781,454.4Z" transform="translate(-119.682 -61.59)" fill="#f0b33e"/>
      <path id="Trazado_640505" data-name="Trazado 640505" d="M930.1,503.655c0,1.178,0,1.178-1.19,1.178s-1.178,0-1.178-1.19,0-1.178,1.19-1.178S930.1,502.465,930.1,503.655Z" transform="translate(-65.932 -95.389)" fill="#b0c0e3"/>
      <path id="Trazado_640506" data-name="Trazado 640506" d="M944.824,524.331l-2.762.929.947-2.877Z" transform="translate(-76.006 -109.396)" fill="#f4cdb7"/>
      <path id="Trazado_640507" data-name="Trazado 640507" d="M928.962,534.391c-.331.876-.619,1.686.354,2.271-.094.052-.131.09-.168.09-1.831.038-2-.177-1.71-2.06.042-.275.16-.308.379-.3C928.159,534.4,928.5,534.391,928.962,534.391Z" transform="translate(-65.643 -117.838)" fill="#b0c0e3"/>
      <path id="Trazado_640508" data-name="Trazado 640508" d="M926.842,434.16c0,.764.016,1.527-.005,2.29a1.165,1.165,0,0,1-1.247,1.252q-2.29.029-4.581,0a1.173,1.173,0,0,1-1.271-1.3q-.022-2.253,0-4.507a1.171,1.171,0,0,1,1.283-1.289q2.254-.024,4.508,0a1.193,1.193,0,0,1,1.312,1.339C926.853,432.682,926.842,433.421,926.842,434.16Zm-3.539-1.189c-1.2,0-1.2,0-1.2,1.169,0,1.2,0,1.2,1.169,1.2,1.2,0,1.2,0,1.2-1.169C924.472,432.971,924.472,432.971,923.3,432.971Z" transform="translate(-60.3 -44.85)" fill="#010101"/>
      <path id="Trazado_640509" data-name="Trazado 640509" d="M923.359,462.538c.739,0,1.478-.015,2.217,0a1.162,1.162,0,0,1,1.257,1.241q.03,2.327,0,4.654a1.143,1.143,0,0,1-1.22,1.2q-2.328.031-4.655,0a1.141,1.141,0,0,1-1.217-1.2q-.034-2.327,0-4.654a1.159,1.159,0,0,1,1.257-1.239C921.782,462.522,922.57,462.538,923.359,462.538Zm-.109,4.737c1.22,0,1.22,0,1.22-1.223,0-1.146,0-1.146-1.149-1.146-1.22,0-1.22,0-1.22,1.223C922.1,467.275,922.1,467.275,923.249,467.275Z" transform="translate(-60.297 -67.308)" fill="#010101"/>
      <path id="Trazado_640510" data-name="Trazado 640510" d="M971.235,438.574c.962,0,1.924.023,2.885-.01.459-.016.626.08.622.59-.012,1.789.011,1.789-1.78,1.789-1.578,0-3.157-.016-4.735.01-.458.008-.626-.081-.622-.59.012-1.789-.011-1.789,1.781-1.789Z" transform="translate(-93.968 -50.453)"/>
      <path id="Trazado_640511" data-name="Trazado 640511" d="M977.674,536.743h-.591c-1.865,0-1.99-.16-1.725-2.062.038-.274.145-.31.371-.31,1.332.005,2.663.015,3.994-.005.357-.005.377.156.391.441.094,1.936.1,1.935-1.847,1.935Z" transform="translate(-99.346 -117.823)"/>
      <path id="Trazado_640512" data-name="Trazado 640512" d="M954.055,439.723c0,1.247,0,1.247-1.27,1.247-1.1,0-1.1,0-1.1-1.122,0-1.247,0-1.247,1.27-1.247C954.055,438.6,954.055,438.6,954.055,439.723Z" transform="translate(-82.774 -50.48)"/>
      <path id="Trazado_640513" data-name="Trazado 640513" d="M928.934,438.6c1.17,0,1.17,0,1.17,1.2,0,1.169,0,1.169-1.2,1.169-1.169,0-1.169,0-1.169-1.2C927.735,438.6,927.735,438.6,928.934,438.6Z" transform="translate(-65.932 -50.481)" fill="#b0c0e3"/>
      <path id="Trazado_640514" data-name="Trazado 640514" d="M928.884,472.9c-1.149,0-1.149,0-1.149-1.146,0-1.223,0-1.223,1.22-1.223,1.149,0,1.149,0,1.149,1.146C930.1,472.9,930.1,472.9,928.884,472.9Z" transform="translate(-65.932 -72.935)" fill="#b0c0e3"/>
    </g>
  </g>
</svg>
