<svg xmlns="http://www.w3.org/2000/svg" width="82" height="82" viewBox="0 0 82 82">
  <g id="Grupo_956684" data-name="Grupo 956684" transform="translate(-303 -3929)">
    <g id="Grupo_962299" data-name="Grupo 962299">
      <g id="Grupo_951854" data-name="Grupo 951854" transform="translate(303 3929)">
        <path id="Trazado_621807" data-name="Trazado 621807" d="M41,0A41,41,0,1,1,0,41,41,41,0,0,1,41,0Z" fill="#ef8b53"/>
      </g>
      <g id="Grupo_980596" data-name="Grupo 980596" transform="translate(-103.242 3344.821)">
        <path id="Trazado_640515" data-name="Trazado 640515" d="M416.963,621.182q0-12.214,0-24.429a5.892,5.892,0,0,1,3.373-5.635,6.2,6.2,0,0,1,2.883-.594q16.039,0,32.078,0a5.893,5.893,0,0,1,6.287,5.772c.047.59.268.619.72.608a9.092,9.092,0,0,1,2.624.16,4.474,4.474,0,0,1,3.318,4.613q.008,11.436-.014,22.872a1.122,1.122,0,0,0,.675,1.147,31.1,31.1,0,0,1,7.285,5.662,4.354,4.354,0,0,1-.029,6.29,31.731,31.731,0,0,1-7.411,5.72.866.866,0,0,0-.516.893c.021,3.541.013,7.083.011,10.624,0,3.128-1.822,4.937-4.966,4.938-8.459,0-16.919-.014-25.378.009a8.928,8.928,0,0,1-6.578-2.645c-1.686-1.663-3.416-3.281-5.109-4.937a1.166,1.166,0,0,0-.892-.359,16.259,16.259,0,0,1-3.709-.147,5.882,5.882,0,0,1-4.652-6q-.015-9.338,0-18.677Zm27.684,5.521a27.894,27.894,0,0,0-9.408,6.548,1.65,1.65,0,0,0,0,2.469,28.174,28.174,0,0,0,8.971,6.369c.147.065.3.239.488.075,0-.2-.164-.313-.262-.459a12.525,12.525,0,0,1-2.016-9.772,13.715,13.715,0,0,1,2.305-5.122l.082-.122Zm-19.7,10.365c1.039.27,1.349.652,1.35,1.7,0,2.413.015,4.827-.009,7.24,0,.508.1.694.659.685,2.12-.037,4.24-.019,6.36-.014a3.538,3.538,0,0,1,3.859,3.868c.008,1.962.026,3.925-.013,5.886-.011.581.171.693.717.692q12.789-.027,25.578-.013a1.833,1.833,0,0,0,2.087-2.057c0-3.135-.01-6.27.012-9.4,0-.552-.079-.708-.653-.477a25.307,25.307,0,0,1-7.533,1.772c-9.55.74-17.526-2.622-24.136-9.416a4.227,4.227,0,0,1-.09-5.99,29.55,29.55,0,0,1,17.546-9.344,27.532,27.532,0,0,1,14.146,1.568c.7.271.708.257.708-.491q0-10.691,0-21.381c0-1.656-.63-2.291-2.271-2.291H428.558c-1.617,0-2.254.63-2.254,2.23q0,12.687,0,25.373c0,1.125-.288,1.5-1.351,1.773-1.064-.272-1.354-.645-1.355-1.769q0-4.567,0-9.135,0-8.222,0-16.443a4.525,4.525,0,0,1,1.785-3.828,4.905,4.905,0,0,1,3.116-.913q14.854.006,29.708.019c.693,0,.775-.226.682-.814a3.232,3.232,0,0,0-3.438-2.867q-16.14-.006-32.279,0a3.232,3.232,0,0,0-3.494,3.5q0,24.462,0,48.923a4.568,4.568,0,0,0,.086,1.007c.427,1.873,2.062,2.8,4.345,2.45a10.187,10.187,0,0,1-.512-2.906c.007-2.481,0-4.962,0-7.443C423.6,637.717,423.912,637.334,424.952,637.068Zm39.674-2.589a9.884,9.884,0,1,0-9.882,9.9A9.855,9.855,0,0,0,464.625,634.479Zm.129,7.7a.414.414,0,0,0,.424-.032,28.8,28.8,0,0,0,9.141-6.492,1.644,1.644,0,0,0-.031-2.369,28.947,28.947,0,0,0-9.027-6.424c-.186-.083-.366-.271-.614-.151A12.652,12.652,0,0,1,464.755,642.179ZM427.218,649.4c2.4,2.427,4.724,4.64,7.147,6.775.081-2.052.091-4.048.073-6.044a.7.7,0,0,0-.74-.724C431.612,649.391,429.527,649.4,427.218,649.4Z" transform="translate(0)" fill="#010101"/>
        <path id="Trazado_640516" data-name="Trazado 640516" d="M446.424,653.387c1.063-.276,1.351-.648,1.351-1.773q0-12.687,0-25.373c0-1.6.637-2.23,2.254-2.23h34.713c1.641,0,2.271.635,2.271,2.291q0,10.69,0,21.381c0,.748-.006.761-.708.491a27.532,27.532,0,0,0-14.146-1.569,29.55,29.55,0,0,0-17.546,9.344,4.227,4.227,0,0,0,.09,5.99c6.61,6.794,14.586,10.155,24.136,9.415a25.307,25.307,0,0,0,7.533-1.772c.573-.231.657-.075.653.477-.021,3.135-.008,6.27-.012,9.4a1.833,1.833,0,0,1-2.087,2.057q-12.789,0-25.578.013c-.546,0-.728-.111-.717-.692.039-1.961.021-3.924.013-5.886a3.538,3.538,0,0,0-3.859-3.868c-2.12-.005-4.241-.023-6.36.014-.559.01-.663-.177-.659-.685.024-2.413.014-4.826.009-7.24,0-1.053-.311-1.435-1.35-1.7V658.8c.913-.2,1.366-.676,1.349-1.409-.016-.7-.461-1.145-1.349-1.339Zm19.851-21.674h5.746c2.028,0,4.056.011,6.084-.006a1.358,1.358,0,0,0,1.477-1.339,1.372,1.372,0,0,0-1.46-1.36c-.18-.008-.36,0-.541,0H461.02c-2.141,0-4.281-.009-6.422,0a1.389,1.389,0,0,0-1.521,1.374,1.406,1.406,0,0,0,1.5,1.327c.158.006.315,0,.473,0Zm-3.288,7.444h3.446c1.689,0,3.379.017,5.068-.006a1.349,1.349,0,0,0,1.347-1.919,1.491,1.491,0,0,0-1.52-.784q-4.122.009-8.245,0-4.19,0-8.38,0a1.46,1.46,0,0,0-1.5.819c-.436.965.274,1.883,1.471,1.887C457.445,639.164,460.216,639.157,462.987,639.157ZM458.08,646.6c1.15,0,2.3.007,3.45,0,1-.008,1.592-.522,1.588-1.358s-.6-1.342-1.6-1.345q-3.416-.011-6.832,0c-.975,0-1.613.556-1.608,1.357s.64,1.338,1.621,1.345C455.825,646.608,456.952,646.6,458.08,646.6Z" transform="translate(-21.472 -24.404)" fill="#f7d677"/>
        <path id="Trazado_640517" data-name="Trazado 640517" d="M432.235,641.675v2.668c-1.04.266-1.353.648-1.354,1.7,0,2.481,0,4.962,0,7.443a10.182,10.182,0,0,0,.512,2.906c-2.283.346-3.918-.578-4.345-2.45a4.568,4.568,0,0,1-.086-1.007q-.006-24.461,0-48.923a3.232,3.232,0,0,1,3.494-3.5q16.14,0,32.28,0a3.232,3.232,0,0,1,3.438,2.867c.092.588.011.816-.682.814q-14.854-.037-29.708-.019a4.905,4.905,0,0,0-3.116.913,4.525,4.525,0,0,0-1.785,3.828q.012,8.221,0,16.443,0,4.567,0,9.135c0,1.124.291,1.5,1.355,1.769v2.669c-.9.2-1.338.637-1.354,1.34C430.864,641,431.321,641.476,432.235,641.675Z" transform="translate(-7.283 -7.275)" fill="#efb16c"/>
        <path id="Trazado_640518" data-name="Trazado 640518" d="M539.584,726.082a9.884,9.884,0,1,1-9.9-9.864A9.9,9.9,0,0,1,539.584,726.082Zm-9.857,6.852a6.854,6.854,0,1,0-6.862-6.814A6.925,6.925,0,0,0,529.727,732.935Z" transform="translate(-74.958 -91.603)" fill="#4eb2e4"/>
        <path id="Trazado_640519" data-name="Trazado 640519" d="M492.349,724.025a13.715,13.715,0,0,0-2.305,5.122,12.525,12.525,0,0,0,2.016,9.772c.1.145.261.256.262.459-.192.164-.341-.01-.488-.075a28.175,28.175,0,0,1-8.971-6.369,1.65,1.65,0,0,1,0-2.469,27.893,27.893,0,0,1,9.408-6.548A.421.421,0,0,0,492.349,724.025Z" transform="translate(-47.623 -97.213)" fill="#d7ebf6"/>
        <path id="Trazado_640520" data-name="Trazado 640520" d="M592.891,739.307a12.652,12.652,0,0,0-.107-15.468c.248-.121.428.067.614.151a28.946,28.946,0,0,1,9.027,6.424,1.644,1.644,0,0,1,.031,2.369,28.8,28.8,0,0,1-9.141,6.492A.414.414,0,0,1,592.891,739.307Z" transform="translate(-128.136 -97.128)" fill="#d7ebf6"/>
        <path id="Trazado_640521" data-name="Trazado 640521" d="M454.78,807.591c2.309,0,4.394-.009,6.479.007a.7.7,0,0,1,.74.724c.018,2,.008,3.992-.073,6.044C459.5,812.231,457.178,810.017,454.78,807.591Z" transform="translate(-27.562 -158.191)" fill="#edb06c"/>
        <path id="Trazado_640522" data-name="Trazado 640522" d="M519.041,723.881l.161-.013-.082.122A.418.418,0,0,1,519.041,723.881Z" transform="translate(-74.394 -97.178)" fill="#d7ebf6"/>
        <path id="Trazado_640523" data-name="Trazado 640523" d="M484.15,645.127H472.928c-.158,0-.316,0-.473,0a1.406,1.406,0,0,1-1.5-1.327,1.389,1.389,0,0,1,1.521-1.374c2.14-.014,4.281,0,6.422,0h16.563c.18,0,.361-.007.541,0a1.372,1.372,0,0,1,1.46,1.36,1.358,1.358,0,0,1-1.477,1.339c-2.028.017-4.056.006-6.084.006Z" transform="translate(-39.347 -37.818)" fill="#010100"/>
        <path id="Trazado_640524" data-name="Trazado 640524" d="M480.857,672.574c-2.771,0-5.542.007-8.312,0-1.2,0-1.907-.922-1.471-1.887a1.46,1.46,0,0,1,1.5-.819q4.19.009,8.38,0,4.122,0,8.245,0a1.491,1.491,0,0,1,1.52.784,1.349,1.349,0,0,1-1.347,1.919c-1.689.024-3.379.006-5.068.006Z" transform="translate(-39.342 -57.821)" fill="#010100"/>
        <path id="Trazado_640525" data-name="Trazado 640525" d="M475.956,700.02c-1.127,0-2.255.006-3.382,0-.981-.007-1.616-.542-1.621-1.345s.633-1.354,1.608-1.357q3.416-.012,6.832,0c1.006,0,1.6.512,1.6,1.345s-.587,1.35-1.588,1.358C478.255,700.027,477.105,700.02,475.956,700.02Z" transform="translate(-39.348 -77.823)" fill="#010101"/>
        <path id="Trazado_640526" data-name="Trazado 640526" d="M442.786,744.91c-.914-.2-1.37-.675-1.354-1.408.016-.7.457-1.141,1.354-1.34.889.194,1.333.635,1.349,1.339C444.152,744.234,443.7,744.707,442.786,744.91Z" transform="translate(-17.834 -110.51)" fill="#070603"/>
        <path id="Trazado_640527" data-name="Trazado 640527" d="M537.919,741.017a6.854,6.854,0,0,1-.064-13.708,6.854,6.854,0,1,1,.064,13.708Zm-.023-2.711a4.144,4.144,0,1,0-4.13-4.125A4.174,4.174,0,0,0,537.9,738.306Z" transform="translate(-83.151 -99.685)" fill="#020303"/>
        <path id="Trazado_640528" data-name="Trazado 640528" d="M545.176,745.584a4.144,4.144,0,1,1,.048-8.288,4.144,4.144,0,0,1-.048,8.288Z" transform="translate(-90.431 -106.963)" fill="#d8ebf6"/>
      </g>
    </g>
  </g>
</svg>
