<svg xmlns="http://www.w3.org/2000/svg" width="102" height="102" viewBox="0 0 102 102">
  <g id="Grupo_974513" data-name="Grupo 974513" transform="translate(-435 -11599.627)">
    <circle id="Elipse_7772" data-name="Elipse 7772" cx="51" cy="51" r="51" transform="translate(435 11599.627)" fill="#449c6e"/>
    <g id="Grupo_982375" data-name="Grupo 982375" transform="translate(408.812 11073.287)">
      <path id="Trazado_641371" data-name="Trazado 641371" d="M100.732,547.745c-4.285,0-8.571.011-12.856-.013-.542,0-.8.106-.974.671a6.942,6.942,0,0,1-6.717,4.974c-2.554.02-5.108.034-7.661-.015-.69-.013-.816.2-.795.829.048,1.437.031,2.876.006,4.314-.008.456.1.623.594.727a9.469,9.469,0,0,1,6.63,4.9.934.934,0,0,0,1.032.536,6.988,6.988,0,0,1,7.2,6.12,7.06,7.06,0,0,1-5.067,7.677,6.778,6.778,0,0,1-1.907.281c-6.575,0-13.15.017-19.725-.008a7.049,7.049,0,0,1-7.046-6.418,6.828,6.828,0,0,1,5.889-7.505,4.025,4.025,0,0,0,3.3-2.025,8.71,8.71,0,0,1,5.674-3.545c.544-.113.639-.307.63-.789-.026-1.467-.034-2.935,0-4.4.014-.531-.108-.692-.668-.685-2.67.032-5.342.05-8.013,0a7.039,7.039,0,0,1-1.9-13.756,3.916,3.916,0,0,1,1.543-.285,2.075,2.075,0,0,0,2.24-1.24,9.815,9.815,0,0,1,16.758.566,1.062,1.062,0,0,0,1.136.658,6.82,6.82,0,0,1,6.838,4.882c.2.651.505.747,1.094.746q12.768-.024,25.537-.011c3.052,0,4.741,1.684,4.742,4.727,0,4.725.019,9.451-.019,14.175-.006.719.216.844.872.838,3.375-.032,6.751-.019,10.127-.013a4.236,4.236,0,0,1,4.52,4.508c.006,1.731.01,3.463,0,5.195a4.2,4.2,0,0,1-3.678,4.34c-.451.075-.614.2-.549.631a1.826,1.826,0,0,1,0,.264,4.883,4.883,0,0,0,.049,1.742c.209.5.963.3,1.456.5a4.246,4.246,0,0,1,2.713,3.868c.028,1.878.02,3.757,0,5.635a4.161,4.161,0,0,1-3.576,4.243c-.6.1-.714.317-.649.815a1.464,1.464,0,0,1,0,.176,4.543,4.543,0,0,0,.046,1.654c.217.51.956.312,1.446.51a4.248,4.248,0,0,1,2.725,3.859c.029,1.937.034,3.874,0,5.811a4.173,4.173,0,0,1-4.165,4.143q-12.724.033-25.448,0a4.184,4.184,0,0,1-4.193-4.207c-.025-1.849-.017-3.7,0-5.547a4.181,4.181,0,0,1,3.645-4.276c.5-.08.657-.231.58-.691a.521.521,0,0,1,0-.088,5.481,5.481,0,0,0-.047-1.832c-.212-.558-1-.323-1.51-.556a4.159,4.159,0,0,1-2.659-3.9c-.045-1.848-.02-3.7-.008-5.547a4.189,4.189,0,0,1,3.628-4.293c.469-.077.683-.192.6-.673a1.009,1.009,0,0,1,0-.176,5.364,5.364,0,0,0-.042-1.747c-.216-.588-.993-.346-1.5-.562a4.265,4.265,0,0,1-2.679-3.893c-.023-1.908-.028-3.816,0-5.723a4.191,4.191,0,0,1,4.218-4.181q5.239-.037,10.478.009c.651.007.82-.141.816-.807-.033-4.754-.016-9.509-.019-14.264,0-1.383-.466-1.852-1.839-1.853Q107.16,547.741,100.732,547.745ZM70.339,550.56c3.314,0,6.629.034,9.943-.014A3.98,3.98,0,0,0,84.064,548a3.931,3.931,0,0,0-.695-4.424A3.984,3.984,0,0,0,79,542.306c-1.483.426-1.481.43-1.972-1a7.042,7.042,0,0,0-13.378.011,6.306,6.306,0,0,0-.315,1c-.076.48-.307.453-.67.324a7.078,7.078,0,0,0-2.029-.532,4.221,4.221,0,1,0-.235,8.438C63.71,550.587,67.025,550.56,70.339,550.56Zm0,25.364c3.285,0,6.57.024,9.855-.01a4.022,4.022,0,0,0,3.869-2.556,3.923,3.923,0,0,0-.7-4.423,4,4,0,0,0-4.459-1.242c-1.4.426-1.4.427-1.864-.941a7,7,0,0,0-9.411-4.375,6.789,6.789,0,0,0-4.013,4.389c-.444,1.363-.449,1.35-1.793.958a5.269,5.269,0,0,0-1.287-.243,4.217,4.217,0,1,0-.143,8.432C63.712,575.949,67.027,575.923,70.341,575.924Zm46.59-8.453q-6.2,0-12.4,0c-1.277,0-1.772.484-1.778,1.735q-.012,2.507,0,5.014c.007,1.2.512,1.7,1.723,1.7q12.36.006,24.72,0c1.247,0,1.731-.5,1.736-1.779q.009-2.419,0-4.838c0-1.368-.473-1.832-1.858-1.833Q123,567.468,116.931,567.471Zm-.113,25.362q6.158,0,12.316,0c1.314,0,1.79-.485,1.794-1.809,0-1.671.011-3.343,0-5.014a1.431,1.431,0,0,0-1.621-1.625q-12.448-.01-24.9,0c-1.143,0-1.652.522-1.659,1.675-.011,1.642-.006,3.284,0,4.926,0,1.381.466,1.848,1.842,1.849Q110.7,592.836,116.818,592.833Zm.023,16.908q6.2,0,12.4,0c1.153,0,1.673-.516,1.681-1.655q.019-2.55,0-5.1c-.007-1.189-.519-1.691-1.733-1.692q-12.36-.006-24.721,0c-1.213,0-1.718.5-1.724,1.7-.01,1.642-.006,3.284,0,4.926,0,1.364.473,1.825,1.865,1.826Q110.727,609.744,116.841,609.741Zm.088-31h-7.921c-2.045,0-2.013,0-2.052,2.022-.013.66.157.816.814.812,5.6-.029,11.206-.017,16.809-.017,2.149,0,2.126,0,2.137-2.109,0-.575-.149-.727-.724-.721C122.973,578.759,119.951,578.743,116.929,578.743Zm-.087,19.725h7.833c2.039,0,2,0,2.046-2.028.013-.674-.179-.808-.822-.8-5.6.027-11.206.016-16.809.016-2.144,0-2.119,0-2.131,2.116,0,.588.17.719.731.714C110.74,598.454,113.791,598.468,116.842,598.468Z" transform="translate(-12.882)" fill="#010101"/>
      <path id="Trazado_641372" data-name="Trazado 641372" d="M58.86,669.373q10.346,0,20.693,0c2.981,0,4.674,1.706,4.675,4.706q0,12.194,0,24.388c0,3.037-1.7,4.72-4.749,4.721-3.816,0-7.632.012-11.447-.012-.561,0-.733.123-.729.712.014,2.119-.011,2.119,2.126,2.119s2.119,0,2.132,2.112c0,.574-.147.721-.721.72q-11.975-.03-23.951,0c-.569,0-.728-.137-.724-.717.013-2.114-.01-2.115,2.13-2.115s2.115,0,2.129-2.116c0-.583-.16-.719-.726-.715-3.874.025-7.748.016-11.623.012a4.242,4.242,0,0,1-4.575-4.541q-.006-12.37,0-24.74a4.239,4.239,0,0,1,4.58-4.534Q48.469,669.369,58.86,669.373Zm-.086,22.544c7.28,0,14.559-.01,21.839.017.663,0,.816-.163.813-.818-.028-5.664-.016-11.329-.017-16.994,0-1.5-.438-1.931-1.94-1.931H38.256c-1.5,0-1.94.433-1.94,1.93,0,5.635.014,11.271-.019,16.906,0,.727.163.912.9.909C44.391,691.9,51.582,691.917,58.774,691.917Zm.114,2.818c-7.191,0-14.383.019-21.574-.024-.885-.005-1.091.247-1.014,1.064.074.785.016,1.584.016,2.376,0,1.876.338,2.221,2.179,2.221H75.3c1.468,0,2.935.007,4.4,0,1.2-.008,1.692-.513,1.7-1.728.008-1.027-.052-2.058.02-3.081.052-.73-.225-.841-.877-.839C73.329,694.743,66.109,694.735,58.888,694.735Zm-.017,11.272h3.514c2.15,0,2.125,0,2.131-2.119,0-.6-.191-.716-.742-.71-2.811.025-5.622.012-8.433.012-2.189,0-2.169,0-2.129,2.208.009.514.174.627.652.62C55.532,705.992,57.2,706.007,58.871,706.007Z" transform="translate(0 -87.812)"/>
      <path id="Trazado_641373" data-name="Trazado 641373" d="M75.543,555.73c-3.314,0-6.629.027-9.943-.009a4.221,4.221,0,1,1,.235-8.438,7.08,7.08,0,0,1,2.029.532c.363.129.594.156.67-.324a6.3,6.3,0,0,1,.315-1,7.042,7.042,0,0,1,13.378-.011c.491,1.43.49,1.426,1.972,1a3.984,3.984,0,0,1,4.374,1.268,3.931,3.931,0,0,1,.695,4.424,3.98,3.98,0,0,1-3.782,2.548C82.172,555.764,78.857,555.73,75.543,555.73Z" transform="translate(-18.086 -5.169)" fill="#e4e7ea"/>
      <path id="Trazado_641374" data-name="Trazado 641374" d="M75.545,627.564c-3.314,0-6.629.026-9.943-.009a4.217,4.217,0,1,1,.143-8.432,5.269,5.269,0,0,1,1.287.243c1.345.392,1.349.4,1.793-.958a6.789,6.789,0,0,1,4.013-4.389,7,7,0,0,1,9.411,4.375c.46,1.369.46,1.367,1.864.941a4,4,0,0,1,4.459,1.242,3.923,3.923,0,0,1,.7,4.423,4.022,4.022,0,0,1-3.869,2.556C82.116,627.589,78.83,627.565,75.545,627.564Z" transform="translate(-18.087 -51.641)" fill="#e4e7ea"/>
      <path id="Trazado_641375" data-name="Trazado 641375" d="M207.363,629.457q6.071,0,12.14,0c1.384,0,1.854.466,1.858,1.833q.006,2.419,0,4.838c0,1.275-.488,1.778-1.736,1.779q-12.36.006-24.72,0c-1.211,0-1.716-.5-1.723-1.7q-.014-2.507,0-5.014c.006-1.25.5-1.733,1.778-1.735Q201.162,629.452,207.363,629.457ZM196,633.625c0,1.467,0,1.467,1.439,1.467,1.379,0,1.379,0,1.379-1.351,0-1.467,0-1.467-1.438-1.467C196,632.275,196,632.275,196,633.625Zm7.053-1.351c-1.416,0-1.416,0-1.416,1.4s0,1.416,1.4,1.416,1.416,0,1.416-1.4S204.453,632.275,203.051,632.275Z" transform="translate(-103.315 -61.986)" fill="#f5d67e"/>
      <path id="Trazado_641376" data-name="Trazado 641376" d="M207.252,685.81q-6.114,0-12.228,0c-1.376,0-1.839-.468-1.842-1.849,0-1.642-.008-3.284,0-4.926.007-1.153.516-1.674,1.659-1.675q12.448-.008,24.9,0a1.431,1.431,0,0,1,1.621,1.625c.014,1.671.007,3.342,0,5.014,0,1.324-.48,1.808-1.794,1.809Q213.41,685.815,207.252,685.81Zm-8.435-4.209c0-1.427,0-1.427-1.391-1.427-1.427,0-1.427,0-1.427,1.392,0,1.426,0,1.426,1.391,1.426C198.817,682.992,198.817,682.992,198.817,681.6Zm5.637-.082c0-1.345,0-1.345-1.385-1.345-1.433,0-1.433,0-1.433,1.473,0,1.345,0,1.345,1.385,1.345C204.454,682.992,204.454,682.992,204.454,681.52Z" transform="translate(-103.315 -92.978)" fill="#f5d67e"/>
      <path id="Trazado_641377" data-name="Trazado 641377" d="M207.275,733.711q-6.114,0-12.228,0c-1.391,0-1.861-.461-1.865-1.826,0-1.642-.008-3.284,0-4.926.007-1.2.512-1.7,1.724-1.7q12.36-.006,24.721,0c1.214,0,1.726.5,1.733,1.692q.015,2.551,0,5.1c-.008,1.139-.528,1.653-1.681,1.655Q213.477,733.719,207.275,733.711Zm-9.937-2.818c1.479,0,1.479,0,1.479-1.427,0-1.391,0-1.391-1.427-1.391-1.391,0-1.391,0-1.391,1.426C196,730.893,196,730.893,197.338,730.893Zm7.116-1.351c0-1.467,0-1.467-1.439-1.467-1.38,0-1.38,0-1.38,1.351,0,1.467,0,1.467,1.439,1.467C204.454,730.893,204.454,730.893,204.454,729.543Z" transform="translate(-103.316 -123.97)" fill="#f5d67e"/>
      <path id="Trazado_641378" data-name="Trazado 641378" d="M215.084,661.367c3.022,0,6.043.016,9.064-.014.574-.006.726.146.724.721-.011,2.109.012,2.109-2.137,2.109-5.6,0-11.206-.012-16.809.017-.657,0-.827-.152-.814-.812.039-2.021.007-2.021,2.052-2.021Z" transform="translate(-111.037 -82.624)" fill="#fbe9ae"/>
      <path id="Trazado_641379" data-name="Trazado 641379" d="M215,712.081c-3.051,0-6.1-.014-9.153.013-.561,0-.734-.126-.731-.714.012-2.116-.013-2.116,2.131-2.116,5.6,0,11.206.011,16.809-.016.643,0,.836.131.822.8-.041,2.027-.007,2.028-2.046,2.028Z" transform="translate(-111.041 -113.612)" fill="#fbe9ae"/>
      <path id="Trazado_641380" data-name="Trazado 641380" d="M63.909,697.084c-7.192,0-14.383-.012-21.575.019-.739,0-.906-.182-.9-.909.033-5.635.017-11.271.019-16.906,0-1.5.436-1.93,1.94-1.93H84.6c1.5,0,1.94.435,1.94,1.931,0,5.664-.011,11.329.017,16.994,0,.654-.15.82-.813.818C78.469,697.074,71.189,697.084,63.909,697.084Zm11.362-16.908c-2.581,0-5.163.018-7.744-.014-.574-.007-.728.148-.724.724q.038,6.335,0,12.671c0,.576.151.725.724.723q7.744-.034,15.488,0c.574,0,.728-.147.724-.723q-.038-6.335,0-12.671c0-.576-.15-.73-.725-.723C80.434,680.193,77.853,680.176,75.271,680.176Zm-21.045,5.636H46.308c-2.051,0-2.019,0-2.057,2.02-.012.66.158.818.816.815,5.631-.029,11.261-.017,16.892-.017,2.068,0,2.045,0,2.054-2.108,0-.575-.15-.729-.725-.724C60.267,685.827,57.247,685.812,54.226,685.812Zm-.131,8.454h7.918c1.991,0,1.955,0,2-1.986.018-.713-.206-.85-.872-.847-5.6.027-11.2.015-16.8.015-2.092,0-2.063,0-2.09,2.074-.008.634.181.764.782.758C48.055,694.249,51.075,694.266,54.1,694.266Zm2.945-14.09h-5.1c-2.046,0-2.013,0-2.052,2.024-.013.666.169.816.82.81,3.723-.034,7.446-.017,11.169-.017,2.186,0,2.168,0,2.135-2.2-.008-.5-.148-.635-.639-.629C61.262,680.19,59.151,680.176,57.04,680.176Zm-9.953,1.455c0-1.455,0-1.455-1.45-1.455-1.368,0-1.368,0-1.368,1.362,0,1.455,0,1.455,1.45,1.455C47.088,682.993,47.088,682.993,47.088,681.631Z" transform="translate(-5.135 -92.979)" fill="#83d3ef"/>
      <path id="Trazado_641381" data-name="Trazado 641381" d="M64,741.18c7.221,0,14.442.008,21.663-.014.652,0,.928.109.877.839-.072,1.022-.012,2.053-.02,3.081-.009,1.215-.5,1.72-1.7,1.728-1.467.009-2.935,0-4.4,0H43.607c-1.841,0-2.179-.345-2.179-2.221,0-.792.058-1.591-.016-2.376-.078-.816.128-1.069,1.014-1.064C49.616,741.2,56.808,741.18,64,741.18Z" transform="translate(-5.112 -134.257)" fill="#ccd0d7"/>
      <path id="Trazado_641382" data-name="Trazado 641382" d="M94.992,767.971c-1.669,0-3.339-.016-5.007.01-.478.007-.642-.106-.652-.62-.041-2.208-.06-2.208,2.129-2.208,2.811,0,5.622.014,8.433-.012.551-.005.744.112.742.71-.007,2.119.019,2.119-2.131,2.119Z" transform="translate(-36.121 -149.776)" fill="#aab1bb"/>
      <path id="Trazado_641383" data-name="Trazado 641383" d="M201.17,638.792c0-1.351,0-1.351,1.38-1.351,1.438,0,1.438,0,1.438,1.467,0,1.351,0,1.351-1.379,1.351C201.17,640.259,201.17,640.259,201.17,638.792Z" transform="translate(-108.487 -67.152)"/>
      <path id="Trazado_641384" data-name="Trazado 641384" d="M218.555,637.441c1.4,0,1.4,0,1.4,1.416s0,1.4-1.416,1.4-1.4,0-1.4-1.416S217.139,637.441,218.555,637.441Z" transform="translate(-118.819 -67.152)"/>
      <path id="Trazado_641385" data-name="Trazado 641385" d="M203.988,686.768c0,1.391,0,1.391-1.427,1.391-1.391,0-1.391,0-1.391-1.426,0-1.391,0-1.391,1.427-1.391C203.988,685.341,203.988,685.341,203.988,686.768Z" transform="translate(-108.487 -98.144)"/>
      <path id="Trazado_641386" data-name="Trazado 641386" d="M219.957,686.686c0,1.473,0,1.473-1.433,1.473-1.385,0-1.385,0-1.385-1.345,0-1.473,0-1.473,1.433-1.473C219.957,685.341,219.957,685.341,219.957,686.686Z" transform="translate(-118.819 -98.144)"/>
      <path id="Trazado_641387" data-name="Trazado 641387" d="M202.509,736.06c-1.339,0-1.339,0-1.339-1.391,0-1.426,0-1.426,1.391-1.426,1.427,0,1.427,0,1.427,1.391C203.988,736.06,203.988,736.06,202.509,736.06Z" transform="translate(-108.487 -129.137)"/>
      <path id="Trazado_641388" data-name="Trazado 641388" d="M219.957,734.709c0,1.351,0,1.351-1.379,1.351-1.439,0-1.439,0-1.439-1.467,0-1.351,0-1.351,1.379-1.351C219.957,733.242,219.957,733.242,219.957,734.709Z" transform="translate(-118.819 -129.137)"/>
      <path id="Trazado_641389" data-name="Trazado 641389" d="M121.773,685.315c2.581,0,5.163.018,7.744-.014.574-.007.728.148.725.723q-.038,6.335,0,12.671c0,.576-.151.726-.724.723q-7.744-.034-15.488,0c-.574,0-.728-.147-.724-.723q.038-6.335,0-12.671c0-.576.15-.73.724-.724C116.61,685.333,119.192,685.315,121.773,685.315Zm.088,2.818c-1.7,0-3.4.018-5.1-.011-.5-.008-.644.133-.639.635q.038,3.6,0,7.206c-.005.5.14.638.638.635q5.009-.031,10.02,0c.5,0,.644-.132.638-.634q-.038-3.6,0-7.206c.005-.5-.139-.645-.638-.635C125.143,688.152,123.5,688.134,121.861,688.134Z" transform="translate(-51.637 -98.119)"/>
      <path id="Trazado_641390" data-name="Trazado 641390" d="M59.392,701.283c3.021,0,6.041.016,9.062-.014.575-.005.728.149.725.724-.008,2.108.014,2.108-2.054,2.108-5.631,0-11.261-.012-16.892.017-.658,0-.828-.155-.816-.815.037-2.019.006-2.02,2.057-2.02Z" transform="translate(-10.301 -108.45)"/>
      <path id="Trazado_641391" data-name="Trazado 641391" d="M59.263,720.065c-3.021,0-6.041-.017-9.062.014-.6.006-.79-.124-.782-.758.026-2.074,0-2.075,2.09-2.075,5.6,0,11.2.011,16.8-.015.666,0,.89.134.872.847-.048,1.986-.012,1.986-2,1.986Z" transform="translate(-10.303 -118.778)"/>
      <path id="Trazado_641392" data-name="Trazado 641392" d="M72.537,685.321c2.111,0,4.222.015,6.332-.011.492-.006.632.128.639.629.033,2.2.051,2.2-2.135,2.2-3.723,0-7.446-.017-11.169.017-.651.006-.832-.144-.82-.81.038-2.023.006-2.024,2.052-2.024Z" transform="translate(-20.632 -98.124)"/>
      <path id="Trazado_641393" data-name="Trazado 641393" d="M52.287,686.8c0,1.363,0,1.363-1.368,1.363-1.45,0-1.45,0-1.45-1.455,0-1.362,0-1.362,1.368-1.362C52.287,685.341,52.287,685.341,52.287,686.8Z" transform="translate(-10.335 -98.144)"/>
      <path id="Trazado_641394" data-name="Trazado 641394" d="M127.031,693.3c1.641,0,3.282.018,4.922-.011.5-.009.643.133.638.635q-.038,3.6,0,7.206c.005.5-.141.638-.638.634q-5.009-.031-10.02,0c-.5,0-.643-.133-.638-.635q.038-3.6,0-7.206c-.005-.5.14-.643.639-.635C123.632,693.322,125.332,693.3,127.031,693.3Z" transform="translate(-56.807 -103.289)" fill="#ee8774"/>
    </g>
  </g>
</svg>
