<svg xmlns="http://www.w3.org/2000/svg" width="102" height="102" viewBox="0 0 102 102">
  <g id="Grupo_974515" data-name="Grupo 974515" transform="translate(-750 -11599.627)">
    <circle id="Elipse_7776" data-name="Elipse 7776" cx="51" cy="51" r="51" transform="translate(750 11599.627)" fill="#449c6e"/>
    <g id="Grupo_982379" data-name="Grupo 982379" transform="translate(373.86 11013.973)">
      <path id="Trazado_641473" data-name="Trazado 641473" d="M388.434,654.151c0-4.812.03-9.625-.018-14.436a3.69,3.69,0,0,1,1.65-3.242,16.707,16.707,0,0,1,6.095-2.452,36.45,36.45,0,0,1,6.7-.966c.427-.021.572-.151.567-.6-.023-2.159-.031-4.318,0-6.477.009-.53-.2-.572-.628-.569-2.081.019-4.162-.006-6.243.02-.49.006-.65-.1-.649-.627q.028-13.11,0-26.219c0-.488.1-.652.625-.65q8.116.033,16.231,0c.59,0,.651.206.648.708-.021,3.694,0,7.387-.025,11.081,0,.565.1.758.709.73,1.194-.056,2.394-.05,3.589,0,.573.023.732-.116.727-.712-.032-3.693,0-7.387-.031-11.08,0-.574.121-.727.714-.724q8.037.04,16.075,0c.574,0,.729.121.724.714-.032,3.693,0,7.387-.031,11.081,0,.577.123.748.716.722,1.22-.052,2.445-.042,3.666,0,.511.016.641-.129.638-.638-.023-3.719,0-7.439-.028-11.159,0-.586.14-.72.721-.717q8.038.038,16.075,0c.586,0,.718.141.717.721q-.031,13.031,0,26.063c0,.584-.136.73-.719.719-2.054-.04-4.11,0-6.164-.028-.514-.008-.643.136-.636.641.03,2,.052,4.007-.008,6.008-.023.765.172.974.955,1.032a30.742,30.742,0,0,1,10.873,2.461,8.207,8.207,0,0,1,1.9,1.2,3.47,3.47,0,0,1,1.285,2.792q-.031,14.475.009,28.95a3.866,3.866,0,0,1-1.852,3.456,16.654,16.654,0,0,1-5.831,2.3,43.225,43.225,0,0,1-20.762-.294,15.5,15.5,0,0,1-4.511-1.864,3.891,3.891,0,0,1-2.051-3.742c.1-1.633.007-3.276.031-4.915.007-.433-.1-.569-.552-.564q-3.2.036-6.4,0c-.436,0-.568.109-.561.555.026,1.69-.05,3.384.029,5.071a3.732,3.732,0,0,1-1.849,3.456,16.657,16.657,0,0,1-5.831,2.3,43.222,43.222,0,0,1-20.763-.294,15.5,15.5,0,0,1-4.511-1.864,4.033,4.033,0,0,1-2.057-3.741C388.486,663.62,388.434,658.885,388.434,654.151ZM427.2,625.423c-2.653,0-5.306-.022-7.958.015-.646.009-.868-.1-.859-.82.046-3.667.01-7.334.033-11,0-.522-.087-.72-.661-.7-1.194.05-2.394.045-3.588,0-.582-.021-.78.1-.774.742.035,3.693.006,7.386.03,11.079,0,.526-.1.7-.664.693-2.08-.038-4.161,0-6.242-.026-.459-.006-.621.079-.613.585.033,2.106.037,4.214,0,6.32-.011.564.213.606.67.612a42.217,42.217,0,0,1,9.115,1.092,16.479,16.479,0,0,1,6.09,2.461,3.7,3.7,0,0,1,1.642,3.247c-.047,4.967-.009,9.935-.03,14.9,0,.574.094.792.739.777,2-.049,4.005-.039,6.008-.005.579.01.779-.1.774-.742-.031-4.811.076-9.626-.06-14.433a4.379,4.379,0,0,1,2.55-4.328,13.645,13.645,0,0,1,1.688-.792,37.01,37.01,0,0,1,12.368-2.166c.707-.02.97-.116.941-.907-.07-1.922-.049-3.849-.008-5.773.014-.641-.086-.886-.818-.862-1.948.064-3.9,0-5.851.037-.644.014-.869-.092-.86-.818.047-3.641.01-7.282.034-10.923,0-.572-.088-.812-.738-.778-1.167.062-2.341.048-3.51,0-.579-.021-.782.1-.776.741.036,3.667.005,7.334.03,11,0,.577-.1.786-.741.775C432.505,625.4,429.852,625.423,427.2,625.423Zm-28.775-13.816c0,3.537.015,7.074-.015,10.61,0,.577.127.728.716.723q5.539-.046,11.079,0c.581,0,.723-.132.721-.718q-.034-10.532,0-21.064c0-.577-.126-.728-.716-.723q-5.539.046-11.079,0c-.58,0-.727.132-.721.718C398.44,604.638,398.424,608.122,398.424,611.607Zm34.963.159c0-3.537-.015-7.074.015-10.61,0-.581-.134-.726-.719-.721q-5.539.045-11.078,0c-.585,0-.721.139-.719.721q.033,10.532,0,21.064c0,.581.133.726.718.721q5.539-.045,11.079,0c.585,0,.724-.139.719-.721C433.372,618.735,433.387,615.25,433.387,611.766Zm22.477-.079c0-3.511-.015-7.021.015-10.532.005-.582-.134-.725-.719-.721q-5.539.045-11.078,0c-.585-.005-.72.14-.718.721q.034,10.532,0,21.064c0,.581.134.725.719.721q5.539-.045,11.079,0c.585.005.724-.139.719-.721C455.849,618.709,455.864,615.2,455.864,611.687Zm-49.384,31.223a39.28,39.28,0,0,0,10-1.416,12.594,12.594,0,0,0,3.842-1.64c.761-.537.752-.859-.011-1.409a8.445,8.445,0,0,0-2.372-1.147,38.992,38.992,0,0,0-22.927-.37,11.745,11.745,0,0,0-3.417,1.461c-.875.583-.865.944.015,1.544a8.9,8.9,0,0,0,1.949.956A36.751,36.751,0,0,0,406.481,642.911Zm41.652.007a38.629,38.629,0,0,0,11.742-1.716,11.768,11.768,0,0,0,2.693-1.192c1.028-.656,1.02-1.061-.028-1.722a10.091,10.091,0,0,0-1.821-.868,30.882,30.882,0,0,0-7.872-1.762,38.94,38.94,0,0,0-16.013,1.469,11.687,11.687,0,0,0-2.557,1.118c-1.15.7-1.142,1.136.032,1.841a7.753,7.753,0,0,0,.969.491A34.693,34.693,0,0,0,448.133,642.917Zm2.737,16.122c0-4.342-.009-8.684.012-13.026,0-.531-.1-.7-.672-.667-1.219.062-2.444.06-3.663,0-.557-.026-.688.111-.683.657q.04,4.446,0,8.892a1.037,1.037,0,0,0,.593,1.048,3.614,3.614,0,0,1,.079,6.335c-.332.226-.68.375-.674.925.034,3.016.026,6.032.006,9.048,0,.454.155.586.575.582,1.2-.009,2.392-.02,3.587.017.647.02.871-.151.865-.866C450.849,667.672,450.87,663.356,450.87,659.04Zm-23.725,1.346c3.512,0,7.024.016,10.536-.016.6-.005.759.164.715.736-.051.672-.008,1.352-.013,2.028,0,.347.008.672.361.88s.643.029.929-.161c1.838-1.225,3.683-2.44,5.513-3.678.928-.627.94-1.435.026-2.055-1.85-1.255-3.716-2.484-5.577-3.723-.263-.176-.524-.341-.862-.156a.833.833,0,0,0-.391.864c.009.676-.038,1.356.015,2.028.047.605-.135.774-.758.772-6.66-.025-13.319-.015-19.979-.015-1.764,0-1.739,0-1.767,1.776-.009.569.117.742.717.736C420.12,660.369,423.632,660.386,427.144,660.386ZM420.9,642.451c-.534.242-.952.442-1.379.622a30.027,30.027,0,0,1-7.981,1.946c-.539.069-.664.251-.643.764.044,1.063.028,2.13.005,3.194a1.1,1.1,0,0,0,.367.884c1.024,1,1.984,2.061,3.053,3.005a1.1,1.1,0,0,1,.263,1.631c-.408.713-.292.877.554.886,1.766.019,3.532-.005,5.3.014.388,0,.471-.131.47-.491C420.9,650.782,420.9,646.656,420.9,642.451Zm22.477,11.429c0-2.848-.012-5.55.012-8.251,0-.447-.155-.558-.558-.6a38.124,38.124,0,0,1-3.91-.667,23.443,23.443,0,0,1-5.532-1.921v11.075c0,1.934,0,1.918,1.954,1.89.448-.007.54-.137.556-.567a3.139,3.139,0,0,1,4.969-2.611C441.675,652.733,442.462,653.275,443.377,653.881ZM420.9,666.1c0-.857-.025-1.715.01-2.57.019-.48-.08-.673-.621-.66-1.66.039-3.323.008-4.984.016-1.048.005-1.144.12-.651,1.018a1,1,0,0,1-.271,1.435c-1.069.983-2.065,2.046-3.1,3.067a1.01,1.01,0,0,0-.382.8c.027.96.036,1.922,0,2.881-.019.477.177.485.549.429,1.307-.2,2.611-.419,3.892-.745a18.258,18.258,0,0,0,4.717-1.752,1.461,1.461,0,0,0,.857-1.505C420.851,667.712,420.9,666.9,420.9,666.1Zm22.476-1.7c-.954.626-1.792,1.223-2.673,1.747a3.164,3.164,0,0,1-4.747-1.968c-.115-.429.218-1.041-.275-1.254a3.809,3.809,0,0,0-1.388-.041,1.953,1.953,0,0,1-.311,0c-.475-.079-.618.1-.607.589a39.718,39.718,0,0,1-.019,4.518,2.147,2.147,0,0,0,1.506,2.382,29.634,29.634,0,0,0,8.087,2.158c.265.04.436.039.434-.319C443.372,669.646,443.377,667.083,443.377,664.4Zm-39.959.86v1c0,1.619,0,1.567,1.594,1.638.913.041,1.509-.1,1.707-1.132a1.445,1.445,0,0,1,1.82-.817c.97.677,1.585.291,2.177-.487a2.209,2.209,0,0,1,.5-.494,1.15,1.15,0,0,0,.335-1.812c-.367-.59-.011-1.756.624-1.892,1.266-.27,1.373-1.082,1.242-2.106a1.559,1.559,0,0,1,0-.467,1.2,1.2,0,0,0-1.062-1.588c-.655-.151-1.243-1.287-.893-1.786.727-1.034.26-1.67-.533-2.3a3.121,3.121,0,0,1-.657-.663c-.377-.556-.786-.483-1.313-.218a1.519,1.519,0,0,1-2.364-.948.981.981,0,0,0-1.139-.811c-2.118.047-2.11.016-2.042,2.135.013.392.053.527.515.449a5.63,5.63,0,0,1,3.338.512,6.2,6.2,0,0,1,3.386,7.4A6.273,6.273,0,0,1,403.418,665.26Zm59.939-7.79c-.765.319-1.442.632-2.141.888a35.433,35.433,0,0,1-7.335,1.667c-.36.05-.535.12-.525.545.031,1.349.026,2.7,0,4.048-.007.406.131.465.5.407a41.622,41.622,0,0,0,4.122-.785,16.149,16.149,0,0,0,4.614-1.793,1.313,1.313,0,0,0,.779-1.23C463.325,660,463.357,658.778,463.357,657.469Zm0,7.485c-.64.275-1.2.535-1.772.757a34.251,34.251,0,0,1-7.7,1.806c-.362.051-.534.124-.524.547.031,1.349.026,2.7,0,4.05-.007.409.138.477.5.408,1.12-.214,2.254-.363,3.364-.618a18.3,18.3,0,0,0,5.18-1.833c.417-.242.934-.461.945-1.042C463.373,667.689,463.354,666.35,463.354,664.954Zm0-15.006a23.341,23.341,0,0,1-3,1.22,40.1,40.1,0,0,1-6.533,1.37c-.358.049-.474.147-.468.516.023,1.349.03,2.7,0,4.049-.012.484.185.476.553.419,1.306-.2,2.612-.408,3.894-.732a16.984,16.984,0,0,0,4.637-1.74c.408-.244.908-.472.913-1.068C463.364,652.664,463.356,651.347,463.356,649.948Zm-72.425,14.976c0,1.137.081,2.182-.022,3.209a1.854,1.854,0,0,0,1.281,2.116c.286.12.553.284.84.4a31.91,31.91,0,0,0,7.441,1.881c.436.067.459-.117.456-.456-.013-1.272-.033-2.545.008-3.816.017-.512-.107-.692-.642-.767A29.469,29.469,0,0,1,390.931,664.923Zm0-7.489c0,1.268.036,2.454-.014,3.635a1.341,1.341,0,0,0,.721,1.341c.29.17.58.343.882.489a27.641,27.641,0,0,0,8,2.139c.4.062.41-.131.408-.426-.008-1.349-.024-2.7.008-4.048.011-.436-.183-.488-.534-.539A30.327,30.327,0,0,1,390.931,657.435Zm0-7.5a19.275,19.275,0,0,1-.025,2.809,2.321,2.321,0,0,0,1.772,2.755c.29.112.57.246.859.361a31.833,31.833,0,0,0,6.931,1.678c.435.067.461-.111.458-.452-.013-1.271-.033-2.544.008-3.814.016-.51-.1-.694-.641-.768A29.466,29.466,0,0,1,390.931,649.939Zm0-7.5a23.221,23.221,0,0,1-.026,3.035c-.18,1.32.493,1.94,1.549,2.434a28.98,28.98,0,0,0,8.084,2.152c.442.067.383-.194.382-.453,0-1.169-.074-2.344.024-3.5.073-.862-.254-1.072-1.031-1.16A26.447,26.447,0,0,1,390.931,642.436Zm72.424.023c-.617.274-1.149.53-1.7.749a32.427,32.427,0,0,1-7.773,1.837c-.357.049-.541.108-.53.54.032,1.35.026,2.7,0,4.051-.007.412.141.471.5.4,1.374-.267,2.765-.46,4.124-.786a15.43,15.43,0,0,0,4.486-1.71c.386-.235.871-.456.88-1.008C463.369,645.195,463.355,643.856,463.355,642.459Zm-59.936,16.69c0,.986.018,1.972-.009,2.957-.01.4.091.585.513.686a3.733,3.733,0,1,0-.025-7.3c-.38.1-.5.247-.487.626C403.434,657.125,403.419,658.137,403.419,659.149Zm5,10.587a.93.93,0,0,1-1.1.65c-.7-.046-1.4-.011-2.1-.011-1.91,0-1.9,0-1.8,1.961.019.382.146.5.5.5,1.351-.008,2.7-.011,4.052,0,.386,0,.472-.174.464-.525C408.4,671.449,408.414,670.592,408.414,669.736Zm0-21.185c0-.907-.025-1.815.011-2.721.017-.447-.157-.5-.541-.48-.854.042-1.712.019-2.567.051-.614.023-1.478-.32-1.771.061-.318.414-.087,1.237-.133,1.879-.031.429.093.582.547.568,1.114-.033,2.232.015,3.346-.022C407.828,647.87,408.206,647.955,408.413,648.551Z" transform="translate(0)" fill="#010101"/>
      <path id="Trazado_641474" data-name="Trazado 641474" d="M420.405,617.1c0-3.485.016-6.969-.015-10.454-.005-.586.141-.723.722-.718q5.539.044,11.079,0c.59-.005.718.147.716.723q-.033,10.532,0,21.064c0,.586-.14.723-.721.718q-5.539-.044-11.079,0c-.59,0-.721-.146-.717-.723C420.42,624.17,420.405,620.633,420.405,617.1Zm6.165,8.821h1.949c1.927,0,1.912,0,1.887-1.95-.006-.44-.122-.564-.561-.557-1.689.025-3.378.01-5.068.01-1.978,0-1.966,0-1.886,2.029.015.372.109.485.482.477C424.439,625.9,425.5,625.918,426.57,625.918Zm0-4.995h1.949c1.927,0,1.912,0,1.888-1.95-.006-.44-.121-.564-.561-.558-1.689.025-3.378.01-5.068.01-1.979,0-1.967,0-1.887,2.028.015.372.107.486.482.478C424.438,620.908,425.5,620.923,426.569,620.923Zm.081-7.492H424.78c-1.928,0-1.913,0-1.889,1.948.005.437.116.566.559.56,1.689-.026,3.378-.01,5.068-.01,1.978,0,1.967,0,1.888-2.026-.014-.369-.1-.488-.479-.48C428.834,613.446,427.742,613.431,426.651,613.431Zm.076-4.995h-1.949c-1.927,0-1.912,0-1.887,1.95.005.44.121.564.561.558,1.689-.025,3.378-.01,5.068-.01,1.979,0,1.967,0,1.886-2.028-.015-.372-.108-.485-.482-.477C428.858,608.451,427.792,608.436,426.727,608.436Z" transform="translate(-21.981 -5.49)" fill="#e5e8eb"/>
      <path id="Trazado_641475" data-name="Trazado 641475" d="M504.761,617.256c0,3.484-.015,6.969.015,10.454.005.582-.134.725-.719.721q-5.539-.045-11.078,0c-.586.005-.72-.14-.718-.721q.033-10.532,0-21.064c0-.582.134-.725.719-.721q5.539.045,11.078,0c.585-.005.724.14.719.721C504.746,610.182,504.761,613.719,504.761,617.256Zm-6.285,8.662h1.949c1.871,0,1.852,0,1.852-1.908,0-.478-.112-.611-.6-.6-1.663.033-3.326.013-4.99.013-1.985,0-1.972,0-1.928,1.987.009.4.106.531.519.52C496.344,625.9,497.41,625.918,498.476,625.918Zm.005-4.995h1.871c1.945,0,1.925,0,1.925-1.914,0-.488-.129-.6-.6-.6-1.663.031-3.327.012-4.99.012-1.982,0-1.968,0-1.923,1.992.009.413.122.524.525.514C496.35,620.906,497.415,620.924,498.481,620.924Zm.048-7.492h-1.871c-1.933,0-1.908,0-1.9,1.938,0,.529.2.573.632.567,1.663-.021,3.327-.009,4.99-.009,1.933,0,1.919,0,1.9-1.938-.005-.424-.09-.585-.549-.57C500.661,613.455,499.6,613.432,498.53,613.432Zm-.057-2.5h1.949c1.874,0,1.856,0,1.855-1.9,0-.472-.1-.616-.6-.606-1.663.034-3.326.013-4.99.013-1.987,0-1.974,0-1.93,1.984.009.4.1.535.515.524C496.341,610.914,497.407,610.934,498.473,610.934Z" transform="translate(-71.373 -5.49)" fill="#e5e8eb"/>
      <path id="Trazado_641476" data-name="Trazado 641476" d="M576.627,617.177c0,3.511-.015,7.022.015,10.532.005.581-.133.726-.719.721q-5.539-.045-11.079,0c-.585,0-.721-.139-.719-.721q.034-10.532,0-21.064c0-.581.133-.726.718-.721q5.539.045,11.079,0c.585,0,.724.139.719.721C576.612,610.156,576.627,613.667,576.627,617.177Zm-6.28,8.741h1.871c1.945,0,1.925,0,1.926-1.914,0-.489-.129-.6-.605-.6-1.663.031-3.326.012-4.989.012-1.982,0-1.968,0-1.923,1.992.009.413.122.525.525.515C568.216,625.9,569.281,625.918,570.347,625.918Zm-.025-4.995h1.871c2,0,1.978,0,1.95-1.967-.007-.466-.165-.544-.58-.539-1.663.021-3.327.009-4.99.009-2,0-1.978,0-1.95,1.967.007.467.164.55.58.539C568.243,620.906,569.283,620.924,570.322,620.924Zm.14-7.492h-1.949c-1.927,0-1.912,0-1.887,1.95.006.439.12.565.56.558,1.689-.025,3.378-.01,5.068-.01,1.978,0,1.967,0,1.887-2.028-.014-.371-.107-.486-.481-.478C572.594,613.447,571.528,613.432,570.463,613.432Zm-.158-2.5h1.949c1.927,0,1.912,0,1.888-1.949-.006-.44-.12-.565-.56-.558-1.689.025-3.378.01-5.068.01-1.978,0-1.966,0-1.886,2.028.014.372.107.486.481.478C568.173,610.919,569.239,610.934,570.3,610.934Z" transform="translate(-120.763 -5.49)" fill="#e5e8eb"/>
      <path id="Trazado_641477" data-name="Trazado 641477" d="M412.07,725.206a36.751,36.751,0,0,1-12.917-2.019,8.892,8.892,0,0,1-1.949-.956c-.88-.6-.89-.961-.015-1.544a11.744,11.744,0,0,1,3.417-1.461,38.992,38.992,0,0,1,22.927.37,8.444,8.444,0,0,1,2.372,1.147c.763.55.772.872.011,1.409a12.6,12.6,0,0,1-3.842,1.639A39.275,39.275,0,0,1,412.07,725.206Z" transform="translate(-5.589 -82.296)" fill="#f9e7ad"/>
      <path id="Trazado_641478" data-name="Trazado 641478" d="M547.047,725.266a34.69,34.69,0,0,1-12.857-2.341,7.754,7.754,0,0,1-.969-.491c-1.174-.7-1.182-1.138-.032-1.841a11.688,11.688,0,0,1,2.557-1.118,38.94,38.94,0,0,1,16.013-1.469,30.878,30.878,0,0,1,7.872,1.762,10.088,10.088,0,0,1,1.821.868c1.047.661,1.056,1.066.028,1.722a11.767,11.767,0,0,1-2.693,1.192A38.628,38.628,0,0,1,547.047,725.266Z" transform="translate(-98.914 -82.348)" fill="#f9e7ad"/>
      <path id="Trazado_641479" data-name="Trazado 641479" d="M577.116,763.213c0,4.316-.021,8.632.021,12.948.007.715-.217.886-.865.866-1.195-.037-2.391-.027-3.587-.017-.419,0-.578-.128-.575-.582.02-3.016.028-6.032-.006-9.048-.006-.55.342-.7.674-.925a3.614,3.614,0,0,0-.079-6.335,1.037,1.037,0,0,1-.593-1.048q.043-4.445,0-8.892c-.005-.546.126-.683.683-.657,1.219.057,2.445.059,3.663,0,.573-.029.675.136.672.667C577.107,754.528,577.116,758.87,577.116,763.213Z" transform="translate(-126.247 -104.173)" fill="#fae9ae"/>
      <path id="Trazado_641480" data-name="Trazado 641480" d="M487.541,783.929c-3.512,0-7.024-.016-10.536.016-.6.006-.726-.167-.717-.736.028-1.776,0-1.776,1.767-1.776,6.66,0,13.319-.009,19.979.015.622,0,.805-.167.758-.772-.053-.672-.006-1.352-.015-2.028a.833.833,0,0,1,.391-.864c.338-.185.6-.02.862.156,1.86,1.239,3.727,2.468,5.577,3.723.914.62.9,1.428-.026,2.055-1.83,1.238-3.675,2.453-5.513,3.678-.286.19-.562.378-.929.161s-.364-.533-.361-.88c.006-.676-.038-1.355.013-2.028.044-.573-.115-.741-.715-.736C494.565,783.946,491.053,783.929,487.541,783.929Z" transform="translate(-60.396 -123.544)" fill="#ed8773"/>
      <path id="Trazado_641481" data-name="Trazado 641481" d="M470.32,740.268c0,4.205,0,8.331.007,12.457,0,.36-.082.5-.47.491-1.766-.02-3.533,0-5.3-.014-.846-.009-.962-.173-.554-.886a1.1,1.1,0,0,0-.263-1.631c-1.068-.945-2.029-2.009-3.053-3.005a1.1,1.1,0,0,1-.367-.884c.022-1.064.038-2.131-.005-3.194-.021-.513.1-.695.643-.764a30.027,30.027,0,0,0,7.981-1.946C469.367,740.71,469.786,740.51,470.32,740.268Z" transform="translate(-49.419 -97.817)" fill="#f4d57e"/>
      <path id="Trazado_641482" data-name="Trazado 641482" d="M542.221,751.669c-.916-.606-1.7-1.148-2.51-1.656a3.139,3.139,0,0,0-4.969,2.611c-.017.43-.109.561-.556.567-1.954.028-1.954.044-1.954-1.89V740.226a23.443,23.443,0,0,0,5.532,1.921,38.122,38.122,0,0,0,3.91.667c.4.046.562.157.558.6C542.209,746.119,542.221,748.821,542.221,751.669Z" transform="translate(-98.843 -97.788)" fill="#f4d57e"/>
      <path id="Trazado_641483" data-name="Trazado 641483" d="M470.326,808.779c0,.8-.05,1.614.015,2.413a1.461,1.461,0,0,1-.857,1.505,18.258,18.258,0,0,1-4.717,1.752c-1.282.327-2.585.546-3.892.745-.372.057-.568.048-.549-.428.038-.959.029-1.921,0-2.881a1.01,1.01,0,0,1,.382-.8c1.034-1.021,2.029-2.085,3.1-3.067a1,1,0,0,0,.271-1.435c-.493-.9-.4-1.013.651-1.018,1.661-.008,3.324.023,4.984-.016.542-.013.641.18.621.66C470.3,807.065,470.326,807.923,470.326,808.779Z" transform="translate(-49.426 -142.681)" fill="#f3d57e"/>
      <path id="Trazado_641484" data-name="Trazado 641484" d="M542.117,807.011c0,2.683-.005,5.247.006,7.809,0,.358-.169.359-.434.319a29.635,29.635,0,0,1-8.087-2.158A2.147,2.147,0,0,1,532.1,810.6a39.719,39.719,0,0,0,.019-4.518c-.011-.49.132-.667.607-.589a1.953,1.953,0,0,0,.311,0,3.81,3.81,0,0,1,1.388.041c.492.213.159.825.275,1.254a3.165,3.165,0,0,0,4.747,1.968C540.326,808.234,541.164,807.637,542.117,807.011Z" transform="translate(-98.74 -142.611)" fill="#f4d57e"/>
      <path id="Trazado_641485" data-name="Trazado 641485" d="M436.344,780.491a6.273,6.273,0,0,0,7.23-4.381,6.2,6.2,0,0,0-3.386-7.4,5.63,5.63,0,0,0-3.338-.512c-.462.078-.5-.058-.515-.449-.068-2.118-.076-2.088,2.042-2.135a.981.981,0,0,1,1.139.811,1.519,1.519,0,0,0,2.364.948c.527-.265.936-.338,1.313.218a3.119,3.119,0,0,0,.657.663c.794.629,1.26,1.265.533,2.3-.35.5.238,1.635.893,1.786a1.2,1.2,0,0,1,1.062,1.588,1.557,1.557,0,0,0,0,.467c.131,1.023.024,1.836-1.242,2.106-.634.136-.991,1.3-.624,1.892a1.15,1.15,0,0,1-.335,1.812,2.209,2.209,0,0,0-.5.494c-.592.778-1.207,1.164-2.177.487a1.445,1.445,0,0,0-1.82.817c-.2,1.03-.794,1.173-1.707,1.132-1.592-.071-1.594-.02-1.594-1.638Z" transform="translate(-32.927 -115.232)" fill="#b8d687"/>
      <path id="Trazado_641486" data-name="Trazado 641486" d="M606.076,788.286c0,1.309-.032,2.53.013,3.747a1.313,1.313,0,0,1-.779,1.23,16.148,16.148,0,0,1-4.614,1.793,41.621,41.621,0,0,1-4.122.785c-.365.057-.5,0-.5-.407.022-1.349.028-2.7,0-4.048-.01-.425.165-.495.525-.545a35.429,35.429,0,0,0,7.335-1.667C604.633,788.917,605.311,788.605,606.076,788.286Z" transform="translate(-142.719 -130.817)" fill="#f3d57e"/>
      <path id="Trazado_641487" data-name="Trazado 641487" d="M606.073,812.218c0,1.4.018,2.735-.008,4.074-.012.582-.529.8-.945,1.042a18.3,18.3,0,0,1-5.181,1.833c-1.11.255-2.244.4-3.364.618-.36.068-.5,0-.5-.408.023-1.35.028-2.7,0-4.05-.01-.423.162-.5.524-.547a34.254,34.254,0,0,0,7.7-1.806C604.875,812.753,605.433,812.493,606.073,812.218Z" transform="translate(-142.719 -147.264)" fill="#f3d57e"/>
      <path id="Trazado_641488" data-name="Trazado 641488" d="M606.075,764.237c0,1.4.007,2.716,0,4.033,0,.6-.5.824-.913,1.068a16.985,16.985,0,0,1-4.637,1.74c-1.282.324-2.588.53-3.894.732-.367.057-.565.065-.553-.419.033-1.349.025-2.7,0-4.049-.006-.37.11-.467.468-.516a40.1,40.1,0,0,0,6.533-1.37A23.345,23.345,0,0,0,606.075,764.237Z" transform="translate(-142.719 -114.289)" fill="#f3d57e"/>
      <path id="Trazado_641489" data-name="Trazado 641489" d="M396.4,812.119a29.47,29.47,0,0,0,9.361,2.568c.535.076.659.255.642.767-.041,1.271-.022,2.544-.008,3.816,0,.339-.02.523-.456.456a31.909,31.909,0,0,1-7.441-1.881c-.286-.119-.554-.283-.84-.4a1.855,1.855,0,0,1-1.281-2.116C396.479,814.3,396.4,813.255,396.4,812.119Z" transform="translate(-5.466 -147.196)" fill="#f3d57e"/>
      <path id="Trazado_641490" data-name="Trazado 641490" d="M396.446,788.175a30.327,30.327,0,0,0,9.468,2.591c.351.051.544.1.534.539-.033,1.348-.017,2.7-.008,4.048,0,.295-.006.488-.408.426a27.64,27.64,0,0,1-8-2.139c-.3-.146-.592-.319-.882-.489a1.341,1.341,0,0,1-.721-1.341C396.482,790.629,396.446,789.444,396.446,788.175Z" transform="translate(-5.514 -130.74)" fill="#f3d57e"/>
      <path id="Trazado_641491" data-name="Trazado 641491" d="M396.336,764.209a29.464,29.464,0,0,0,9.363,2.568c.537.074.657.258.641.768-.04,1.27-.021,2.543-.008,3.814,0,.341-.023.519-.458.452a31.833,31.833,0,0,1-6.931-1.678c-.289-.114-.57-.249-.859-.361a2.321,2.321,0,0,1-1.772-2.755A19.275,19.275,0,0,0,396.336,764.209Z" transform="translate(-5.405 -114.27)" fill="#f3d57e"/>
      <path id="Trazado_641492" data-name="Trazado 641492" d="M396.362,740.218a26.446,26.446,0,0,0,8.984,2.5c.777.089,1.1.3,1.031,1.16-.1,1.16-.025,2.336-.024,3.5,0,.259.059.519-.382.453a28.978,28.978,0,0,1-8.085-2.152c-1.056-.493-1.729-1.113-1.549-2.434A23.215,23.215,0,0,0,396.362,740.218Z" transform="translate(-5.43 -97.782)" fill="#f3d57e"/>
      <path id="Trazado_641493" data-name="Trazado 641493" d="M606.073,740.292c0,1.4.014,2.736-.007,4.074-.008.551-.494.772-.88,1.008a15.434,15.434,0,0,1-4.486,1.71c-1.359.326-2.75.519-4.124.786-.359.07-.507.011-.5-.4.023-1.35.029-2.7,0-4.051-.01-.432.174-.491.53-.54a32.436,32.436,0,0,0,7.773-1.837C604.924,740.822,605.456,740.566,606.073,740.292Z" transform="translate(-142.718 -97.833)" fill="#f3d57e"/>
      <path id="Trazado_641494" data-name="Trazado 641494" d="M441.3,827.506c0,.857-.014,1.714.007,2.57.008.351-.078.528-.464.525-1.351-.011-2.7-.008-4.052,0-.352,0-.479-.114-.5-.5-.1-1.961-.11-1.961,1.8-1.961.7,0,1.406-.035,2.1.011A.93.93,0,0,0,441.3,827.506Z" transform="translate(-32.89 -157.77)" fill="#f8e6ac"/>
      <path id="Trazado_641495" data-name="Trazado 641495" d="M441.3,752.585c-.207-.6-.585-.681-1.108-.664-1.114.037-2.232-.011-3.346.022-.454.013-.578-.139-.547-.568.047-.642-.185-1.465.133-1.879.293-.382,1.157-.039,1.771-.061.855-.032,1.712-.009,2.567-.051.384-.019.558.033.541.48C441.279,750.77,441.3,751.678,441.3,752.585Z" transform="translate(-32.891 -104.034)" fill="#fae9ae"/>
      <path id="Trazado_641496" data-name="Trazado 641496" d="M432.011,664.342c-1.066,0-2.131-.015-3.2.008-.373.008-.468-.1-.482-.477-.08-2.029-.092-2.029,1.886-2.029,1.689,0,3.379.015,5.068-.01.439-.007.556.117.561.557.024,1.95.04,1.95-1.887,1.95Z" transform="translate(-27.422 -43.914)"/>
      <path id="Trazado_641497" data-name="Trazado 641497" d="M432.011,648.371c-1.066,0-2.131-.015-3.2.008-.374.008-.467-.106-.482-.478-.08-2.029-.092-2.028,1.887-2.028,1.689,0,3.379.015,5.068-.01.44-.006.555.118.561.558.024,1.95.039,1.95-1.888,1.95Z" transform="translate(-27.423 -32.938)"/>
      <path id="Trazado_641498" data-name="Trazado 641498" d="M432.135,629.908c1.091,0,2.183.015,3.275-.008.377-.008.465.11.479.48.079,2.026.091,2.026-1.888,2.026-1.689,0-3.379-.015-5.068.01-.443.007-.554-.123-.559-.56-.024-1.948-.039-1.948,1.889-1.948Z" transform="translate(-27.466 -21.966)"/>
      <path id="Trazado_641499" data-name="Trazado 641499" d="M432.211,613.938c1.066,0,2.131.015,3.2-.008.374-.008.467.105.482.477.08,2.029.092,2.028-1.886,2.028-1.689,0-3.379-.015-5.068.01-.44.006-.555-.118-.561-.558-.024-1.95-.04-1.95,1.887-1.95Z" transform="translate(-27.465 -10.992)"/>
      <path id="Trazado_641500" data-name="Trazado 641500" d="M503.945,664.335c-1.066,0-2.132-.019-3.2.009-.413.011-.51-.118-.519-.52-.044-1.987-.057-1.987,1.928-1.987,1.664,0,3.327.02,4.99-.013.487-.01.6.124.6.6,0,1.908.019,1.908-1.852,1.908Z" transform="translate(-76.843 -43.907)"/>
      <path id="Trazado_641501" data-name="Trazado 641501" d="M503.949,648.367c-1.066,0-2.131-.018-3.2.009-.4.01-.516-.1-.525-.514-.045-1.992-.059-1.992,1.923-1.992,1.663,0,3.327.019,4.99-.012.476-.009.605.107.6.6,0,1.914.02,1.914-1.925,1.914Z" transform="translate(-76.841 -32.934)"/>
      <path id="Trazado_641502" data-name="Trazado 641502" d="M504.011,629.9c1.066,0,2.132.023,3.2-.011.458-.015.544.146.549.57.022,1.939.035,1.938-1.9,1.938-1.663,0-3.326-.012-4.99.008-.431.005-.631-.038-.632-.567,0-1.938-.03-1.938,1.9-1.938Z" transform="translate(-76.855 -21.96)"/>
      <path id="Trazado_641503" data-name="Trazado 641503" d="M503.944,616.424c-1.066,0-2.132-.02-3.2.01-.418.012-.506-.127-.515-.524-.044-1.984-.056-1.983,1.93-1.983,1.663,0,3.327.021,4.99-.013.493-.01.595.134.6.606,0,1.9.019,1.9-1.855,1.9Z" transform="translate(-76.844 -10.98)"/>
      <path id="Trazado_641504" data-name="Trazado 641504" d="M575.815,664.337c-1.066,0-2.131-.018-3.2.009-.4.01-.515-.1-.525-.514-.044-1.992-.059-1.992,1.923-1.992,1.663,0,3.327.019,4.989-.012.476-.009.605.107.605.6,0,1.914.02,1.914-1.926,1.914Z" transform="translate(-126.231 -43.909)"/>
      <path id="Trazado_641505" data-name="Trazado 641505" d="M575.8,648.375c-1.04,0-2.08-.018-3.119.009-.416.011-.573-.073-.58-.539-.028-1.967-.046-1.967,1.95-1.967,1.663,0,3.327.013,4.99-.009.415-.005.573.073.579.539.028,1.968.046,1.967-1.95,1.967Z" transform="translate(-126.239 -32.941)"/>
      <path id="Trazado_641506" data-name="Trazado 641506" d="M575.945,629.908c1.066,0,2.131.015,3.2-.008.374-.008.467.106.481.478.08,2.029.092,2.028-1.887,2.028-1.689,0-3.379-.015-5.068.01-.44.007-.555-.119-.56-.558-.024-1.95-.04-1.95,1.887-1.95Z" transform="translate(-126.245 -21.967)"/>
      <path id="Trazado_641507" data-name="Trazado 641507" d="M575.745,616.432c-1.066,0-2.131-.015-3.2.008-.374.008-.467-.106-.481-.478-.08-2.028-.092-2.028,1.886-2.028,1.69,0,3.379.015,5.068-.01.44-.007.555.118.561.558.024,1.95.04,1.949-1.888,1.949Z" transform="translate(-126.203 -10.988)"/>
    </g>
  </g>
</svg>
