<svg xmlns="http://www.w3.org/2000/svg" width="65" height="65" viewBox="0 0 65 65">
  <g id="_18" data-name="18" transform="translate(-810 -4484)">
    <rect id="Rectángulo_307381" data-name="Rectángulo 307381" width="65" height="65" transform="translate(810 4484)" fill="none"/>
    <g id="Grupo_970479" data-name="Grupo 970479" transform="translate(590.356 3941.271)">
      <path id="Trazado_637808" data-name="Trazado 637808" d="M245.6,589.73a5.283,5.283,0,0,1-3.9,4.548,5.2,5.2,0,0,1-5.464-1.788c-.288-.363-.374-.357-.663,0a5.263,5.263,0,0,1-9.023-1.431.606.606,0,0,0-.709-.469,7.542,7.542,0,0,1-1.434-.039,1.915,1.915,0,0,1-1.733-1.9q-.039-2.76,0-5.521a1.847,1.847,0,0,1,1.077-1.762c.333-.155.3-.39.3-.656q0-7.16-.006-14.32a3.056,3.056,0,0,1,.291-1.328c.95-2.045,1.9-4.092,2.815-6.15a1.525,1.525,0,0,1,1.13-.937c2.643-.629,5.28-1.283,7.922-1.914a6.293,6.293,0,0,1,2.882.336,30.482,30.482,0,0,1,13.078,6.508,13.72,13.72,0,0,1,1.461,1.621c.916,1.058,1.856,2.1,2.709,3.205a4.371,4.371,0,0,1,.643,4.6c-1.164,2.7-2.426,5.361-3.639,8.041a1.587,1.587,0,0,0-.256.719c1.273,0,2.536-.014,3.8.008.366.006.336-.188.335-.428,0-1.169,0-2.339,0-3.508a1.953,1.953,0,0,1,.908-1.862c.263-.154.214-.375.214-.6q0-4.543,0-9.087c0-1.069.245-1.311,1.322-1.312.787,0,1.574-.019,2.359.008.362.013.451-.106.445-.453-.021-1.112.006-2.224-.012-3.335a1.534,1.534,0,0,0-1.437-1.635c-.622-.1-.972-.478-.9-.967.08-.531.529-.813,1.169-.733a3.248,3.248,0,0,1,2.908,3.465c.012,1.84.027,3.681-.012,5.521-.011.534.16.688.644.605a.361.361,0,0,1,.057,0c.441,0,.956.135,1.3-.047.377-.2.1-.768.2-1.17a2.033,2.033,0,0,1,1.518-1.629,3.2,3.2,0,0,1,2.3.158,2.117,2.117,0,0,1,1.133,2.156c-.024.427.091.56.533.544.772-.028.962.142,1.145.831-.164.695-.4.886-1.176.887-2.164.005-4.329,0-6.493,0-1.192,0-1.179,0-1.162,1.221,0,.319.081.431.414.421.785-.023,1.57-.012,2.356-.006.808.006,1.105.295,1.113,1.106.01,1.072,0,2.144,0,3.215.009,1.779.024,3.557.036,5.335-.014.152-.037.3-.039.454-.011.792-.009.792.791.894a6.919,6.919,0,0,1,6.165,6.452c.083,1.35.083,1.35,1.475,1.246a.305.305,0,0,0,.055-.015c1,.011,1.992.009,2.987.038.422.012.321-.264.339-.5.019-.258,0-.444-.35-.422a9.812,9.812,0,0,1-1.207,0,1.547,1.547,0,0,1-1.572-1.625c-.015-.575-.018-1.15.005-1.724a1.48,1.48,0,0,1,1.377-1.5,5.422,5.422,0,0,1,1.2-.026c.477.048.556-.148.553-.576-.017-3.047-.057-6.094,0-9.139a4.523,4.523,0,0,0-4.314-4.845.933.933,0,0,1-1.01-.893c.2-.693.4-.843,1.094-.833a6.109,6.109,0,0,1,5.927,5.875c.055,5.386.026,10.773.016,16.16a1.755,1.755,0,0,1-1.972,1.771c-2.4.008-4.8.027-7.193-.014a1.009,1.009,0,0,0-1.15.758,5.266,5.266,0,0,1-9.713-.251.65.65,0,0,0-.743-.5c-3.894.014-7.788.01-11.682.007-.8,0-1.021-.168-1.2-.857.01-.575,0-1.15.034-1.724a2.817,2.817,0,0,1,2.669-2.673c1.86-.041,3.722-.037,5.581,0a2.876,2.876,0,0,1,2.686,2.423c.053.352-.15.812.146,1.033s.744.05,1.124.076c.038,0,.077,0,.115,0,.865,0,.848,0,1.031-.849a5.271,5.271,0,0,1,10.378.456c.029.173.031.371.262.381.364.015.729.009,1.093,0,.2,0,.24-.147.243-.318a5.3,5.3,0,0,0-5.558-5.727q-6.359-.007-12.718,0H225.23c-.823,0-.831.009-.831.842q0,2.013,0,4.026c0,1.194,0,1.177,1.178,1.2.433.007.607-.086.7-.57a5.281,5.281,0,0,1,9.248-2.535c.331.38.444.418.77,0a5.283,5.283,0,0,1,9.311,3.943Zm15.859-12.984c-.687-.009-1.375-.011-2.062-.028-.307-.008-.459.1-.457.428.008,1.184.01,2.367,0,3.551,0,.3.114.4.405.394.706-.017,1.413-.014,2.12-.019a2.822,2.822,0,0,1,.342.017c.557.092.714-.143.692-.69-.043-1.047-.024-2.1-.007-3.145.006-.383-.107-.585-.52-.538C261.8,576.735,261.633,576.737,261.462,576.746Zm0-10.682c-.21-.011-.42-.029-.63-.03-.752,0-.753,0-.753.723q0,3.447,0,6.894c0,1.4,0,1.4,1.391,1.326,1.013.054,1.013.054,1.013-.962q0-3.555,0-7.111c0-.923,0-.923-.909-.865A.716.716,0,0,0,261.459,566.064Zm6.911,20.11a3.532,3.532,0,0,0-5.147,1.611,3.568,3.568,0,0,0,.993,4.109,3.417,3.417,0,0,0,4.291.148A3.508,3.508,0,0,0,268.37,586.174Zm-34.98.057a1.362,1.362,0,0,0-.589-.342,3.529,3.529,0,0,0-4.851,3.59,3.362,3.362,0,0,0,2.037,2.9,3.261,3.261,0,0,0,3.516-.348,3.188,3.188,0,0,0,1.5-2.9A3.221,3.221,0,0,0,233.391,586.23Zm8.98,5.808a3.448,3.448,0,0,0,1.413-3.751,4.054,4.054,0,0,0-2.1-2.392,3.525,3.525,0,0,0-4.856,3.632,3.344,3.344,0,0,0,2.026,2.854A3.274,3.274,0,0,0,242.371,592.038Zm6.189-19.071a1.554,1.554,0,0,0-.121.188q-1.733,3.773-3.461,7.547c-.037.081-.113.159-.029.245h3.163c.882,0,1.764-.007,2.645.022a.544.544,0,0,0,.592-.394q1.933-4.257,3.892-8.5a3.123,3.123,0,0,0-.52-3.621q-.923-1.064-1.835-2.138c-.858-1-.863-1.006-1.4.176Q250.018,569.726,248.56,572.967Zm-11.516-14.675c-.207.424-.424.843-.62,1.273a.965.965,0,0,1-1.178.648c-1.013-.589-.344-1.337-.115-2.081-.156.024-.229.029-.3.046-1.935.468-3.868.94-5.8,1.4a.667.667,0,0,0-.471.446c-.841,1.844-1.682,3.689-2.537,5.527a.875.875,0,0,0-.008.76c.467,1.172.915,2.352,1.37,3.529l1.1,2.852c.129-.27.212-.441.292-.614q2.02-4.407,4.041-8.813c.333-.724.564-.836,1.355-.687.524.437.454.931.2,1.491-1.566,3.386-3.111,6.782-4.678,10.168a.544.544,0,0,0,.178.8,27.911,27.911,0,0,0,12.667,5.784.492.492,0,0,0,.644-.347c1.03-2.285,2.084-4.559,3.124-6.839.54-1.182,1.066-2.371,1.6-3.556.9-1.938,1.8-3.879,2.711-5.812.153-.325-.045-.436-.244-.593a29.06,29.06,0,0,0-12.648-5.807C237.317,557.786,237.091,557.867,237.044,558.292ZM266.332,576.4h0c0-1.361-.011-2.721.008-4.082,0-.349-.085-.479-.447-.451a7.139,7.139,0,0,1-1.207,0c-.419-.038-.5.128-.5.516.017,2.319,0,4.638.015,6.956,0,.528-.239,1.249.113,1.531.332.266,1.025.06,1.556.1.4.034.469-.139.464-.493C266.321,579.125,266.332,577.764,266.332,576.4ZM236.7,581.095c-1.284-.613-2.556-1.211-3.785-1.9a33.977,33.977,0,0,1-3.639-2.407c0,1.412.006,2.709,0,4.006,0,.282.14.3.358.3Q233.169,581.092,236.7,581.095Zm-10.82-10.3-.1.023v8.992c0,1.306,0,1.286,1.314,1.3.411,0,.455-.153.452-.5-.015-1.571-.02-3.142,0-4.712a3.929,3.929,0,0,0-.286-1.561C226.791,573.164,226.344,571.978,225.885,570.8Zm27.587,18.09c1.093,0,2.185-.01,3.278.006.341.005.473-.09.471-.452a1.242,1.242,0,0,0-1.333-1.38q-2.444-.015-4.888,0a1.2,1.2,0,0,0-1.3,1.338c-.008.379.114.5.491.494C251.287,588.874,252.38,588.887,253.473,588.887Zm25.038-3.405c-.126.539,0,.814.637.765.484-.037.815-.007.759-.678-.043-.514-.024-.838-.708-.791C278.67,584.813,278.333,584.853,278.511,585.482Zm-9.669-18.692c.357-.04.838.2.8-.523-.03-.558-.243-.734-.771-.715-.7.026-.76.095-.812.721C268,567,268.507,566.742,268.842,566.79Z" transform="translate(0)" fill="#030302"/>
      <path id="Trazado_637809" data-name="Trazado 637809" d="M251.4,679.234a5.283,5.283,0,0,0-9.311-3.943c-.326.413-.439.376-.77,0a5.281,5.281,0,0,0-9.248,2.535c-.09.484-.263.577-.7.57-1.177-.018-1.178,0-1.178-1.2q0-2.013,0-4.026c0-.833.008-.842.831-.842h29.811q6.359,0,12.718,0a5.3,5.3,0,0,1,5.558,5.727c0,.17-.04.314-.243.318-.364.006-.729.013-1.093,0-.231-.01-.233-.208-.262-.381a5.271,5.271,0,0,0-10.378-.456c-.183.846-.166.849-1.031.849-.038,0-.077,0-.115,0-.38-.026-.83.144-1.124-.076s-.093-.682-.146-1.034a2.876,2.876,0,0,0-2.686-2.423c-1.86-.036-3.722-.041-5.581,0a2.817,2.817,0,0,0-2.669,2.673c-.029.574-.024,1.149-.034,1.724Z" transform="translate(-5.8 -89.504)" fill="#6c6f7b"/>
      <path id="Trazado_637810" data-name="Trazado 637810" d="M406.6,618.635c-.012-1.778-.027-3.557-.036-5.335-.005-1.072.006-2.144,0-3.215-.008-.811-.305-1.1-1.113-1.106-.785-.005-1.571-.017-2.356.006-.333.01-.41-.1-.414-.421-.017-1.221-.029-1.221,1.162-1.221,2.164,0,4.329,0,6.493,0,.772,0,1.012-.192,1.176-.887h1.553a.933.933,0,0,0,1.01.893,4.523,4.523,0,0,1,4.314,4.845c-.061,3.045-.022,6.093,0,9.139,0,.429-.076.624-.553.577a5.423,5.423,0,0,0-1.2.026,1.48,1.48,0,0,0-1.377,1.5c-.023.574-.02,1.15-.005,1.724a1.547,1.547,0,0,0,1.572,1.625,9.811,9.811,0,0,0,1.207,0c.347-.023.369.164.35.422-.017.234.084.51-.339.5-1-.029-1.992-.027-2.987-.038,0-.706,0-1.412-.01-2.118a6.778,6.778,0,0,0-3.765-6.143c-.176-.1-.413-.122-.49-.358,1.437,0,2.874.005,4.311-.014a1.526,1.526,0,0,0,1.707-1.6c.021-1.742.032-3.485-.027-5.225a3.011,3.011,0,0,0-2.709-3.121,21.185,21.185,0,0,0-3.67-.108c-1.293-.02-1.892.595-1.895,1.894,0,2.068.008,4.136-.007,6.2a2.274,2.274,0,0,0,.489,1.546Z" transform="translate(-138.483 -38.828)" fill="#f7d963"/>
      <path id="Trazado_637811" data-name="Trazado 637811" d="M258.349,567.916a.965.965,0,0,0,1.178-.648c.2-.43.412-.849.62-1.273.469.215.95.41,1.406.65a18.925,18.925,0,0,1,7.459,6.771A14.35,14.35,0,0,1,271,577.779c-.532,1.186-1.059,2.374-1.6,3.556-1.04,2.28-2.094,4.554-3.124,6.839a.492.492,0,0,1-.644.347,27.912,27.912,0,0,1-12.667-5.784.544.544,0,0,1-.178-.8c1.567-3.385,3.112-6.781,4.678-10.168.259-.56.328-1.054-.2-1.491Z" transform="translate(-23.103 -7.703)" fill="#ef9142"/>
      <path id="Trazado_637812" data-name="Trazado 637812" d="M333.438,604.979q1.462-3.239,2.926-6.477c.536-1.182.541-1.179,1.4-.176q.916,1.071,1.835,2.138a3.123,3.123,0,0,1,.52,3.621q-1.956,4.246-3.892,8.5a.544.544,0,0,1-.592.394c-.881-.03-1.763-.018-2.645-.022A18.587,18.587,0,0,0,333.438,604.979Z" transform="translate(-84.878 -32.012)" fill="#f6cc45"/>
      <path id="Trazado_637813" data-name="Trazado 637813" d="M246.147,567.383l-1.075,2.364c-.791-.149-1.022-.037-1.355.687q-2.023,4.405-4.041,8.813c-.079.173-.163.344-.292.614l-1.1-2.852c-.455-1.177-.9-2.357-1.37-3.529a.875.875,0,0,1,.008-.76c.855-1.838,1.7-3.682,2.537-5.527a.667.667,0,0,1,.471-.446c1.937-.46,3.87-.933,5.8-1.4.07-.017.143-.022.3-.046C245.8,566.046,245.134,566.794,246.147,567.383Z" transform="translate(-10.901 -7.17)" fill="#f7d963"/>
      <path id="Trazado_637814" data-name="Trazado 637814" d="M295.871,576.263a14.351,14.351,0,0,0-1.991-4.363,18.926,18.926,0,0,0-7.459-6.771c-.457-.24-.937-.434-1.406-.65.046-.425.273-.507.675-.428a29.06,29.06,0,0,1,12.648,5.807c.2.158.4.269.244.593C297.67,572.384,296.773,574.325,295.871,576.263Z" transform="translate(-47.971 -6.186)" fill="#ed7c33"/>
      <path id="Trazado_637815" data-name="Trazado 637815" d="M289.539,690.943a3.274,3.274,0,0,1-3.519.343,3.344,3.344,0,0,1-2.026-2.854,3.525,3.525,0,0,1,4.856-3.632,3.257,3.257,0,0,1,.445.248.584.584,0,0,0,.172.348,4.367,4.367,0,0,1,.431,4.673C289.77,690.356,289.463,690.574,289.539,690.943Zm-2.05-4.738a1.924,1.924,0,0,0-1.858,1.9,1.952,1.952,0,0,0,1.908,1.855,1.876,1.876,0,1,0-.05-3.751Z" transform="translate(-47.168 -98.905)" fill="#4a4c5c"/>
      <path id="Trazado_637816" data-name="Trazado 637816" d="M251.09,690.934a3.261,3.261,0,0,1-3.516.348,3.362,3.362,0,0,1-2.037-2.9,3.529,3.529,0,0,1,4.851-3.59,1.36,1.36,0,0,1,.589.343c-.041.394.317.589.454.9a4.476,4.476,0,0,1-.239,4.475A.618.618,0,0,0,251.09,690.934Zm-3.91-2.889a1.881,1.881,0,1,0,1.906-1.845A1.936,1.936,0,0,0,247.18,688.044Z" transform="translate(-17.587 -98.899)" fill="#4a4c5c"/>
      <path id="Trazado_637817" data-name="Trazado 637817" d="M402.844,690.909a3.417,3.417,0,0,1-4.291-.148,3.568,3.568,0,0,1-.993-4.109,3.533,3.533,0,0,1,5.147-1.611c-.03.259.162.421.278.611a4.409,4.409,0,0,1,.324,4.188C403.163,690.2,402.779,690.461,402.844,690.909Zm-.108-2.864a1.915,1.915,0,0,0-3.829-.031,1.9,1.9,0,0,0,1.9,1.947A1.879,1.879,0,0,0,402.736,688.045Z" transform="translate(-134.336 -98.868)" fill="#4a4c5c"/>
      <path id="Trazado_637818" data-name="Trazado 637818" d="M423.731,659.64c.077.236.315.258.49.358a6.778,6.778,0,0,1,3.765,6.143c.008.706.007,1.412.01,2.118a.3.3,0,0,1-.055.015c-1.391.1-1.391.1-1.475-1.246a6.919,6.919,0,0,0-6.165-6.453c-.8-.1-.8-.1-.791-.894,0-.152.026-.3.039-.454l2.38-.009A2.679,2.679,0,0,0,423.731,659.64Z" transform="translate(-151.437 -79.419)" fill="#ebc444"/>
      <path id="Trazado_637819" data-name="Trazado 637819" d="M404.618,629.369c0,1.361-.01,2.721.007,4.082,0,.354-.06.526-.464.493-.531-.045-1.224.161-1.556-.1-.352-.282-.11-1-.113-1.531-.015-2.318,0-4.637-.015-6.956,0-.388.08-.554.5-.516a7.145,7.145,0,0,0,1.207,0c.362-.029.452.1.447.451-.019,1.36-.008,2.721-.008,4.082Z" transform="translate(-138.286 -52.966)" fill="#659bf5"/>
      <path id="Trazado_637820" data-name="Trazado 637820" d="M322.764,629.606a18.587,18.587,0,0,1-.448,7.98h-3.163c-.084-.086-.008-.165.029-.245q1.73-3.774,3.461-7.547A1.549,1.549,0,0,1,322.764,629.606Z" transform="translate(-74.204 -56.639)" fill="#f7d963"/>
      <path id="Trazado_637821" data-name="Trazado 637821" d="M343.658,692.5c-1.093,0-2.186-.013-3.278.007-.377.007-.5-.116-.491-.494a1.2,1.2,0,0,1,1.3-1.338q2.444-.019,4.888,0a1.242,1.242,0,0,1,1.333,1.38c0,.361-.131.457-.471.452C345.843,692.49,344.75,692.5,343.658,692.5Z" transform="translate(-90.185 -103.613)" fill="#4a4c5c"/>
      <path id="Trazado_637822" data-name="Trazado 637822" d="M386.244,608.492c-1.391.073-1.391.073-1.391-1.326q0-3.447,0-6.894c0-.725,0-.728.753-.723.21,0,.42.02.63.03Q386.24,604.036,386.244,608.492Z" transform="translate(-124.777 -33.516)" fill="#6c6f7b"/>
      <path id="Trazado_637823" data-name="Trazado 637823" d="M382.458,650.22c-.707,0-1.413,0-2.12.019-.291.007-.408-.091-.405-.394.012-1.184.01-2.367,0-3.551,0-.327.149-.436.457-.428.687.017,1.374.019,2.062.028Q382.456,648.056,382.458,650.22Z" transform="translate(-120.991 -69.148)" fill="#4a4c5c"/>
      <path id="Trazado_637824" data-name="Trazado 637824" d="M390.854,608.441q0-4.457-.008-8.913a.722.722,0,0,1,.112-.025c.909-.058.909-.057.909.865q0,3.555,0,7.111C391.867,608.5,391.867,608.5,390.854,608.441Z" transform="translate(-129.387 -33.465)" fill="#5d5f68"/>
      <path id="Trazado_637825" data-name="Trazado 637825" d="M390.863,650.192q0-2.163,0-4.326c.171-.009.343-.011.513-.03.412-.046.526.155.52.538-.017,1.048-.036,2.1.007,3.145.022.547-.135.782-.692.69A2.81,2.81,0,0,0,390.863,650.192Z" transform="translate(-129.396 -69.12)" fill="#3f404e"/>
      <path id="Trazado_637826" data-name="Trazado 637826" d="M307.288,692.618c-.076-.369.231-.587.358-.874a4.367,4.367,0,0,0-.431-4.673.584.584,0,0,1-.172-.348,3.29,3.29,0,0,1,1.657,2.144A3.448,3.448,0,0,1,307.288,692.618Z" transform="translate(-64.917 -100.58)" fill="#3f404e"/>
      <path id="Trazado_637827" data-name="Trazado 637827" d="M269.279,692.906a.619.619,0,0,1,.1-.432,4.476,4.476,0,0,0,.239-4.475c-.138-.308-.5-.5-.454-.9a3.22,3.22,0,0,1,1.609,2.9A3.188,3.188,0,0,1,269.279,692.906Z" transform="translate(-35.776 -100.871)" fill="#3f404e"/>
      <path id="Trazado_637828" data-name="Trazado 637828" d="M420.932,692.723c-.065-.448.319-.708.464-1.069a4.409,4.409,0,0,0-.324-4.188c-.117-.189-.309-.352-.278-.611A3.508,3.508,0,0,1,420.932,692.723Z" transform="translate(-152.424 -100.681)" fill="#3f404e"/>
      <path id="Trazado_637829" data-name="Trazado 637829" d="M464.6,681.492c-.178-.629.159-.668.688-.7.684-.046.665.277.708.791.056.671-.275.642-.759.678C464.6,682.306,464.477,682.031,464.6,681.492Z" transform="translate(-186.092 -96.011)" fill="#ed9042"/>
      <path id="Trazado_637830" data-name="Trazado 637830" d="M420.221,598.7c-.334-.047-.843.212-.783-.517.052-.627.111-.7.812-.721.527-.019.741.156.771.715C421.059,598.9,420.578,598.657,420.221,598.7Z" transform="translate(-151.379 -31.908)" fill="#ed7c33"/>
      <path id="Trazado_637831" data-name="Trazado 637831" d="M430.177,627.392a2.679,2.679,0,0,1-1.8-.423,2.274,2.274,0,0,1-.489-1.546c.014-2.068,0-4.136.007-6.2,0-1.3.6-1.914,1.895-1.894a21.191,21.191,0,0,1,3.67.108,3.011,3.011,0,0,1,2.709,3.122c.059,1.74.048,3.484.027,5.225a1.526,1.526,0,0,1-1.707,1.6C433.051,627.4,431.614,627.389,430.177,627.392Zm-.548-5.065c0,.959.008,1.917,0,2.876,0,.3.049.456.4.451,1.362-.017,2.724-.013,4.086,0,.277,0,.363-.1.361-.368-.016-1.572,0-3.144-.035-4.715a1.351,1.351,0,0,0-1.336-1.445c-1.012-.146-2.031-.029-3.046-.081-.381-.019-.442.136-.435.467C429.641,620.448,429.629,621.388,429.629,622.327Z" transform="translate(-157.883 -47.172)" fill="#030303"/>
      <path id="Trazado_637832" data-name="Trazado 637832" d="M293.021,691.738a1.876,1.876,0,1,1,.05,3.751,1.952,1.952,0,0,1-1.908-1.855A1.924,1.924,0,0,1,293.021,691.738Z" transform="translate(-52.701 -104.438)" fill="#ed9042"/>
      <path id="Trazado_637833" data-name="Trazado 637833" d="M252.717,693.584a1.881,1.881,0,0,1,3.762.052,1.881,1.881,0,0,1-3.762-.052Z" transform="translate(-23.123 -104.439)" fill="#ed9042"/>
      <path id="Trazado_637834" data-name="Trazado 637834" d="M408.165,693.507a1.879,1.879,0,0,1-1.926,1.916,1.9,1.9,0,0,1-1.9-1.947,1.915,1.915,0,0,1,3.829.031Z" transform="translate(-139.765 -104.329)" fill="#ed9042"/>
      <path id="Trazado_637835" data-name="Trazado 637835" d="M435.414,628.136c0-.939.012-1.879-.007-2.818-.006-.331.054-.486.435-.467,1.014.051,2.034-.065,3.046.081a1.351,1.351,0,0,1,1.336,1.446c.039,1.571.019,3.143.035,4.715,0,.269-.084.37-.361.368-1.362-.01-2.724-.014-4.086,0-.354,0-.407-.153-.4-.451C435.422,630.053,435.414,629.094,435.414,628.136Z" transform="translate(-163.668 -52.98)" fill="#659bf5"/>
    </g>
  </g>
</svg>
