<svg xmlns="http://www.w3.org/2000/svg" width="121" height="81.076" viewBox="0 0 121 81.076">
  <g id="_33" data-name="33" transform="translate(-187.117 -4638.462)">
    <rect id="Rectángulo_392705" data-name="Rectángulo 392705" width="121" height="33" rx="5" transform="translate(187.117 4660)" fill="#f0bd51"/>
    <g id="soporte-tecnico_5_" data-name="soporte-tecnico (5)" transform="translate(198.294 4638.462)">
      <g id="Grupo_1099239" data-name="Grupo 1099239" transform="translate(21.952 1.188)">
        <path id="Trazado_835428" data-name="Trazado 835428" d="M151.69,12.7a25.792,25.792,0,0,1,6.841,2.829l1.975-1.971a2.432,2.432,0,0,1,3.425,0l5.725,5.708a2.428,2.428,0,0,1,0,3.417l-1.98,1.971a25.9,25.9,0,0,1,2.84,6.826h2.789a2.427,2.427,0,0,1,2.424,2.414v8.076a2.428,2.428,0,0,1-2.424,2.418h-2.789a25.8,25.8,0,0,1-2.84,6.821l1.98,1.976a2.428,2.428,0,0,1,0,3.417l-5.725,5.708a2.432,2.432,0,0,1-3.425,0l-1.975-1.971a25.94,25.94,0,0,1-6.841,2.829v2.788a2.423,2.423,0,0,1-2.419,2.414h-8.094a2.427,2.427,0,0,1-2.424-2.414V63.169a25.916,25.916,0,0,1-6.836-2.829l-1.975,1.971a2.432,2.432,0,0,1-3.425,0L120.792,56.6a2.419,2.419,0,0,1,0-3.417l1.975-1.971a26.035,26.035,0,0,1-2.835-6.826h-2.789a2.425,2.425,0,0,1-2.424-2.418V33.9a2.424,2.424,0,0,1,2.424-2.414h2.789a26.041,26.041,0,0,1,2.835-6.826l-1.975-1.971a2.419,2.419,0,0,1,0-3.417l5.725-5.708a2.432,2.432,0,0,1,3.425,0l1.975,1.971a25.974,25.974,0,0,1,6.836-2.829V9.915A2.427,2.427,0,0,1,141.177,7.5h8.094a2.423,2.423,0,0,1,2.419,2.414Z" transform="translate(-114.719 -7.501)" fill="#737a93" fill-rule="evenodd"/>
      </g>
      <g id="Grupo_1099240" data-name="Grupo 1099240" transform="translate(51.026 1.188)">
        <path id="Trazado_835429" data-name="Trazado 835429" d="M324.186,19.268,318.46,13.56a2.432,2.432,0,0,0-3.425,0l-1.975,1.971a25.793,25.793,0,0,0-6.841-2.829V9.915A2.423,2.423,0,0,0,303.8,7.5h-5.478a63.5,63.5,0,0,1,4.052,10.978,19.625,19.625,0,0,1,1.66,38.618c-.233.055-.471.1-.7.146a69.616,69.616,0,0,1-3.343,11.128H303.8a2.423,2.423,0,0,0,2.419-2.414V63.169a25.945,25.945,0,0,0,6.841-2.829l1.975,1.971a2.432,2.432,0,0,0,3.425,0l5.725-5.708a2.428,2.428,0,0,0,0-3.417l-1.98-1.976a25.8,25.8,0,0,0,2.84-6.821h2.789a2.428,2.428,0,0,0,2.424-2.418V33.9a2.427,2.427,0,0,0-2.424-2.414h-2.789a25.9,25.9,0,0,0-2.84-6.826l1.98-1.971a2.428,2.428,0,0,0,0-3.418Z" transform="translate(-298.322 -7.501)" fill="#606b82" fill-rule="evenodd"/>
      </g>
      <g id="Grupo_1099241" data-name="Grupo 1099241" transform="translate(32.785 11.992)">
        <path id="Trazado_835430" data-name="Trazado 835430" d="M202.8,114.988a19.628,19.628,0,1,0-19.672-19.628A19.688,19.688,0,0,0,202.8,114.988Z" transform="translate(-183.129 -75.731)" fill="#fe636e" fill-rule="evenodd"/>
      </g>
      <g id="Grupo_1099242" data-name="Grupo 1099242" transform="translate(40.783 20.845)">
        <path id="Trazado_835431" data-name="Trazado 835431" d="M249.59,152.223a11.245,11.245,0,0,0,2.442-19.884c-3.132-2.135-2.529,1.236-2.529,1.8v6.771a4.2,4.2,0,1,1-8.387,0v-6.771c0-.566.6-3.938-2.529-1.8a11.245,11.245,0,0,0,2.442,19.884v9.353a19.914,19.914,0,0,0,8.56,0Z" transform="translate(-233.636 -131.639)" fill="#c1eaf4" fill-rule="evenodd"/>
      </g>
      <g id="Grupo_1099243" data-name="Grupo 1099243" transform="translate(53.961 20.848)">
        <path id="Trazado_835432" data-name="Trazado 835432" d="M319.632,161.593V152.24a11.245,11.245,0,0,0,2.442-19.884,3.572,3.572,0,0,0-1.536-.7,11.238,11.238,0,0,1-3.183,18.748c-.672.283-.471,1.077-.471,1.884V162A19.577,19.577,0,0,0,319.632,161.593Z" transform="translate(-316.856 -131.658)" fill="#99cfe0" fill-rule="evenodd"/>
      </g>
      <g id="Grupo_1099244" data-name="Grupo 1099244" transform="translate(50.189 11.992)">
        <path id="Trazado_835433" data-name="Trazado 835433" d="M314.977,95.359a19.662,19.662,0,0,0-21.94-19.5,19.621,19.621,0,0,1,6.548,36.756v1.9A19.643,19.643,0,0,0,314.977,95.359Z" transform="translate(-293.037 -75.731)" fill="#f93e55" fill-rule="evenodd"/>
      </g>
      <g id="Grupo_1099245" data-name="Grupo 1099245" transform="translate(10.932 53.927)">
        <path id="Trazado_835434" data-name="Trazado 835434" d="M50.367,345.824l-5.245,8.213,5.245,8.053L60.5,363.842l13.833,2.4a13.257,13.257,0,0,0,6.553-.287l25.169-7.505c4.394-1.309,3.11-7.592-1.884-6.351l-2.584.6-13.458,3.139a8.86,8.86,0,0,1-2.433.21c-1.125-.05-2.231-.251-3.489-.347l-8.981-1.5c-3.594-.849-2.565-5.252.53-5.023h2.858c6.384,0,6.251-7.7.631-8.623H73.528c-1.331,0-2.538.036-3.759.146a46.008,46.008,0,0,0-9.777,2.158l-6.114,1.884Z" transform="translate(-45.122 -340.554)" fill="#ffe5c1" fill-rule="evenodd"/>
      </g>
      <g id="Grupo_1099246" data-name="Grupo 1099246" transform="translate(5.687 57.203)">
        <path id="Trazado_835435" data-name="Trazado 835435" d="M12,363.057v16.795a1.819,1.819,0,0,0,1.815,1.8h6.859a1.819,1.819,0,0,0,1.815-1.816V363.057a1.819,1.819,0,0,0-1.815-1.816H13.815a1.819,1.819,0,0,0-1.815,1.8Z" transform="translate(-12 -361.241)" fill="#6bd9e7" fill-rule="evenodd"/>
      </g>
      <g id="Grupo_1099247" data-name="Grupo 1099247" transform="translate(16.177 66.451)">
        <path id="Trazado_835436" data-name="Trazado 835436" d="M78.245,423.3v5.357l10.133,1.752,13.833,2.4a13.257,13.257,0,0,0,6.553-.287l25.169-7.505a3.375,3.375,0,0,0,1.962-5.366,3.75,3.75,0,0,1-1.962,1.227l-4.468,1.236-14.432,4.622L107.89,428.7c-2.744.757-4.582-.091-5.972-.438C93.93,426.71,86.234,424.862,78.245,423.3Z" transform="translate(-78.245 -419.647)" fill="#fed1a3" fill-rule="evenodd"/>
      </g>
      <g id="Grupo_1099248" data-name="Grupo 1099248" transform="translate(5.687 70.106)">
        <path id="Trazado_835437" data-name="Trazado 835437" d="M22.49,448.083v-5.357a1.819,1.819,0,0,1-1.815,1.816H13.815A1.819,1.819,0,0,1,12,442.74v5.694a1.819,1.819,0,0,0,1.815,1.8h6.859a1.819,1.819,0,0,0,1.815-1.816v-.338Z" transform="translate(-12 -442.726)" fill="#00c7dd" fill-rule="evenodd"/>
      </g>
      <g id="Grupo_1099249" data-name="Grupo 1099249" transform="translate(4.499)">
        <path id="Trazado_835438" data-name="Trazado 835438" d="M196.488,68.23a20.8,20.8,0,0,0-8.765,1.92,1.188,1.188,0,0,0,.994,2.157,18.454,18.454,0,1,1,13.238,34.36V99.653a12.429,12.429,0,0,0,1.923-21.662c-.5-.343-2.038-1.389-3.325-.647-1.26.727-1.061,3.39-1.06,3.43v6.771a3.017,3.017,0,1,1-6.011,0V80.779c0-.044.2-2.708-1.06-3.435-1.287-.742-2.821.3-3.324.646a12.429,12.429,0,0,0,1.922,21.663v7.015a18.424,18.424,0,0,1-6.714-31.487,1.188,1.188,0,0,0-1.564-1.788,20.866,20.866,0,1,0,13.746-5.162Zm-3.092,39V98.856a1.187,1.187,0,0,0-.776-1.114,10.057,10.057,0,0,1-2.185-17.788,4.364,4.364,0,0,1,.709-.408l-.037,8a5.691,5.691,0,0,0,5.3,5.661,1.248,1.248,0,0,0,.158,0,5.691,5.691,0,0,0,5.3-5.661l-.037-8a4.391,4.391,0,0,1,.71.408,10.057,10.057,0,0,1-2.186,17.788,1.188,1.188,0,0,0-.776,1.114v8.376a18.553,18.553,0,0,1-6.185,0Z" transform="translate(-148.53 -57.426)"/>
        <path id="Trazado_835439" data-name="Trazado 835439" d="M80.539,23.982H78.655a26.948,26.948,0,0,0-2.263-5.439L77.73,17.21a3.612,3.612,0,0,0,0-5.1L72,6.406a3.621,3.621,0,0,0-5.1,0L65.566,7.737a27.034,27.034,0,0,0-5.455-2.257V3.6A3.609,3.609,0,0,0,56.5,0H48.41A3.61,3.61,0,0,0,44.8,3.6V5.482a27.146,27.146,0,0,0-5.451,2.255L38.014,6.406a3.619,3.619,0,0,0-5.1,0l-5.726,5.709a3.609,3.609,0,0,0,0,5.1l1.333,1.329a27.2,27.2,0,0,0-2.26,5.439H24.376a3.61,3.61,0,0,0-3.612,3.6v8.076a3.613,3.613,0,0,0,3.612,3.606h1.883a27.2,27.2,0,0,0,2.26,5.438l-1.333,1.33a3.609,3.609,0,0,0,0,5.1l2.722,2.714c-1.3.32-2.762.728-4.455,1.249l-8.405,2.59a3,3,0,0,0-2.687-1.67H7.5a3.007,3.007,0,0,0-3,3V75.8a3.007,3.007,0,0,0,3,3h6.859a3.005,3.005,0,0,0,2.814-1.964l7.36,1.276a1.27,1.27,0,0,0,.2.017,1.188,1.188,0,0,0,.2-2.358l-7.576-1.312V60.074l8.787-2.708c2.3-.706,4.136-1.2,5.747-1.538,1.055-.222,2.009-.378,2.93-.486.491-.059.972-.1,1.452-.136.991-.07,1.983-.092,3.058-.092h3.615A3.47,3.47,0,0,1,46.046,58.7a2.671,2.671,0,0,1-1.1,1.965,4.175,4.175,0,0,1-2.524.7H39.607a3.7,3.7,0,0,0-3.992,3.142,3.767,3.767,0,0,0,3.148,4.225c.025.006.052.011.078.016l8.98,1.5c.035,0,.07.01.1.013.532.04,1.047.1,1.544.162a12.826,12.826,0,0,0,4.74-.052l16.04-3.742.017,0c1.834-.456,2.759.378,3.014,1.313a2.241,2.241,0,0,1-1.756,2.748l-25.168,7.5a12.067,12.067,0,0,1-5.951.268l-.06-.011L30.73,76.775a1.188,1.188,0,0,0-.405,2.341l9.587,1.66a13.456,13.456,0,0,0,2.9.3,14.846,14.846,0,0,0,4.228-.614L72.2,72.955a4.623,4.623,0,0,0,3.368-5.649c-.548-2.006-2.618-3.8-5.869-3l-16.034,3.74a10.786,10.786,0,0,1-3.918.006c-.507-.06-1.029-.122-1.59-.166l-8.889-1.481c-.934-.233-1.424-.808-1.311-1.544a1.339,1.339,0,0,1,1.517-1.131c.03,0,.059,0,.087,0h2.858a6.511,6.511,0,0,0,3.916-1.148,3.578,3.578,0,0,0,2.07.654H56.5a3.608,3.608,0,0,0,3.607-3.6v-1.88a27.221,27.221,0,0,0,5.455-2.257L66.9,56.839a3.619,3.619,0,0,0,5.1,0l5.726-5.71a3.612,3.612,0,0,0,0-5.1L76.391,44.7a26.945,26.945,0,0,0,2.263-5.435h1.884a3.613,3.613,0,0,0,3.611-3.606V27.583a3.61,3.61,0,0,0-3.61-3.6ZM14.361,76.428H7.5a.636.636,0,0,1-.628-.628V59.019a.636.636,0,0,1,.628-.628h6.859a.629.629,0,0,1,.628.628v.158c0,.012,0,.024,0,.036V75.8A.629.629,0,0,1,14.361,76.428Zm67.413-40.77a1.235,1.235,0,0,1-1.235,1.23h-2.79a1.187,1.187,0,0,0-1.15.893,24.627,24.627,0,0,1-2.71,6.507,1.189,1.189,0,0,0,.181,1.449l1.978,1.973a1.236,1.236,0,0,1,0,1.739l-5.726,5.707a1.237,1.237,0,0,1-1.747,0L66.6,53.187a1.191,1.191,0,0,0-1.446-.182,24.727,24.727,0,0,1-6.528,2.7,1.187,1.187,0,0,0-.895,1.151v2.787A1.23,1.23,0,0,1,56.5,60.869H48.41a1.2,1.2,0,0,1-.516-.114,5.127,5.127,0,0,0,.519-1.866,5.81,5.81,0,0,0-5.166-6.135,1.118,1.118,0,0,0-.192-.016H39.338a35.966,35.966,0,0,0-6.657.516L28.864,49.45a1.231,1.231,0,0,1,0-1.736l1.975-1.972a1.186,1.186,0,0,0,.182-1.447,24.85,24.85,0,0,1-2.7-6.513,1.188,1.188,0,0,0-1.151-.893H24.376a1.235,1.235,0,0,1-1.237-1.23V27.583a1.232,1.232,0,0,1,1.237-1.226h2.789a1.188,1.188,0,0,0,1.151-.893,24.833,24.833,0,0,1,2.7-6.515,1.186,1.186,0,0,0-.182-1.447l-1.975-1.97a1.231,1.231,0,0,1,0-1.736l5.725-5.709a1.24,1.24,0,0,1,1.747,0l1.976,1.971a1.186,1.186,0,0,0,1.444.181,24.838,24.838,0,0,1,6.524-2.7,1.187,1.187,0,0,0,.895-1.15V3.6A1.232,1.232,0,0,1,48.41,2.375H56.5A1.23,1.23,0,0,1,57.735,3.6V6.39a1.187,1.187,0,0,0,.9,1.151,24.608,24.608,0,0,1,6.526,2.7,1.188,1.188,0,0,0,1.446-.181l1.975-1.971a1.242,1.242,0,0,1,1.748,0l5.722,5.706a1.234,1.234,0,0,1,0,1.737L74.071,17.5a1.186,1.186,0,0,0-.182,1.449,24.73,24.73,0,0,1,2.71,6.513,1.187,1.187,0,0,0,1.15.893h2.79a1.232,1.232,0,0,1,1.235,1.226Z" transform="translate(-4.499 0)"/>
      </g>
    </g>
  </g>
</svg>
