<svg xmlns="http://www.w3.org/2000/svg" width="295.599" height="315" viewBox="0 0 295.599 315">
  <g id="_36" data-name="36" transform="translate(-179.518 -11874.393)">
    <rect id="Rectángulo_392752" data-name="Rectángulo 392752" width="295" height="257" transform="translate(180.117 11877)" fill="#e6e2f4"/>
    <g id="Grupo_1099387" data-name="Grupo 1099387" transform="translate(151.785 11841.336)">
      <g id="Floor" transform="translate(30.753 337.29)">
        <g id="Grupo_972233" data-name="Grupo 972233">
          <line id="Línea_864" data-name="Línea 864" x2="50.16" transform="translate(240.241)" fill="none" stroke="#263238" stroke-miterlimit="10" stroke-width="1"/>
          <line id="Línea_865" data-name="Línea 865" x2="177.541" transform="translate(56.76)" fill="none" stroke="#263238" stroke-miterlimit="10" stroke-width="1"/>
          <line id="Línea_866" data-name="Línea 866" x2="49.5" fill="none" stroke="#263238" stroke-miterlimit="10" stroke-width="1"/>
        </g>
      </g>
      <g id="Graphics" transform="translate(28.332 23.557)">
        <g id="Grupo_972240" data-name="Grupo 972240" opacity="0.3">
          <g id="Grupo_972234" data-name="Grupo 972234" transform="translate(100.252)">
            <path id="Trazado_638532" data-name="Trazado 638532" d="M449.4,109.885l4.359,1,1.03-4.51-4.069-.929c.009-.175.026-.348.026-.525a9.868,9.868,0,0,0-.789-3.878l3.267-2.605-2.884-3.617L447.2,97.324a9.868,9.868,0,0,0-4.036-2.024V91.092h-4.627V95.3a9.862,9.862,0,0,0-3.868,1.891l-3.521-2.807L428.262,98l3.569,2.846a9.851,9.851,0,0,0-.874,3.9l-4.728,1.079,1.029,4.51,4.707-1.074a9.933,9.933,0,0,0,2.314,3.043l-2.168,4.5,4.169,2.007,2.084-4.329a9.359,9.359,0,0,0,3.9.215l2.1,4.355,4.168-2.007-1.958-4.068A9.934,9.934,0,0,0,449.4,109.885Zm-15.579-4.968a7.026,7.026,0,1,1,7.026,7.026A7.026,7.026,0,0,1,433.823,104.916Z" transform="translate(-263.868 -46.519)" fill="none" stroke="#000" stroke-miterlimit="10" stroke-width="1"/>
            <path id="Trazado_638533" data-name="Trazado 638533" d="M449.4,155.181l4.359.995,1.03-4.51-4.069-.929c.009-.174.026-.347.026-.524a9.864,9.864,0,0,0-.789-3.878l3.267-2.606-2.884-3.617L447.2,142.62a9.861,9.861,0,0,0-4.036-2.025v-4.207h-4.627v4.207a9.854,9.854,0,0,0-3.868,1.892l-3.521-2.808-2.884,3.617,3.569,2.846a9.848,9.848,0,0,0-.874,3.9l-4.728,1.08,1.029,4.51,4.707-1.074a9.933,9.933,0,0,0,2.314,3.043l-2.168,4.5,4.169,2.007,2.084-4.328a9.338,9.338,0,0,0,3.9.214l2.1,4.355,4.168-2.007-1.958-4.068A9.934,9.934,0,0,0,449.4,155.181Zm-15.579-4.969a7.026,7.026,0,1,1,7.026,7.026A7.026,7.026,0,0,1,433.823,150.212Z" transform="translate(-263.868 -61.919)" fill="none" stroke="#000" stroke-miterlimit="10" stroke-width="1"/>
            <path id="Trazado_638535" data-name="Trazado 638535" d="M203.4,42.351l4.359.995,1.03-4.51-4.069-.929c.009-.175.026-.347.026-.525a9.863,9.863,0,0,0-.789-3.877l3.267-2.606-2.884-3.617L201.2,29.789a9.861,9.861,0,0,0-4.036-2.025V23.557h-4.627v4.208a9.854,9.854,0,0,0-3.868,1.892l-3.52-2.808-2.884,3.617,3.569,2.846a9.845,9.845,0,0,0-.874,3.9l-4.728,1.079,1.029,4.51,4.707-1.074a9.925,9.925,0,0,0,2.314,3.043l-2.168,4.5,4.169,2.007,2.084-4.328a9.371,9.371,0,0,0,3.9.214l2.1,4.355,4.168-2.008-1.958-4.067A9.942,9.942,0,0,0,203.4,42.351Zm-15.579-4.969a7.026,7.026,0,1,1,7.026,7.026A7.025,7.025,0,0,1,187.823,37.381Z" transform="translate(-180.229 -13.557)" fill="none" stroke="#000" stroke-miterlimit="10" stroke-width="1"/>
            <g id="Grupo_1099388" data-name="Grupo 1099388" transform="translate(3.77 257.479)">
              <path id="Trazado_638536" data-name="Trazado 638536" d="M86.436,161.728l3.692.843L91,158.751l-3.446-.787c.008-.148.022-.294.022-.444a8.357,8.357,0,0,0-.669-3.284l2.767-2.206-2.443-3.063-2.662,2.123a8.358,8.358,0,0,0-3.418-1.714v-3.563H77.233v3.563a8.345,8.345,0,0,0-3.276,1.6L70.977,148.6l-2.443,3.063,3.022,2.41a8.327,8.327,0,0,0-.74,3.305l-4,.914.871,3.819,3.986-.909a8.406,8.406,0,0,0,1.96,2.577l-1.836,3.813,3.53,1.7,1.765-3.666a8.352,8.352,0,0,0,2.1.277,8.474,8.474,0,0,0,1.2-.1L82.17,169.5l3.53-1.7-1.659-3.445A8.407,8.407,0,0,0,86.436,161.728ZM73.243,157.52a5.95,5.95,0,1,1,5.949,5.95A5.95,5.95,0,0,1,73.243,157.52Z" transform="translate(-41.415 -123.603)" fill="none" stroke="#000" stroke-miterlimit="10" stroke-width="1"/>
              <path id="Trazado_638537" data-name="Trazado 638537" d="M55.459,134.162l5.1,1.165,1.205-5.28L57,128.96c.011-.205.031-.407.031-.614a11.553,11.553,0,0,0-.924-4.539l3.825-3.05-3.377-4.234-3.68,2.935a11.54,11.54,0,0,0-4.725-2.37v-4.926H42.739v4.926A11.538,11.538,0,0,0,38.21,119.3l-4.12-3.286-3.377,4.234,4.177,3.332a11.526,11.526,0,0,0-1.023,4.57l-5.535,1.263,1.205,5.28,5.51-1.258A11.62,11.62,0,0,0,37.756,137l-2.538,5.271,4.879,2.35,2.44-5.067a10.945,10.945,0,0,0,4.569.25l2.455,5.1,4.879-2.35-2.293-4.761A11.641,11.641,0,0,0,55.459,134.162Zm-18.238-5.817a8.225,8.225,0,1,1,8.225,8.225A8.224,8.224,0,0,1,37.222,128.345Z" transform="translate(-28.332 -112.162)" fill="none" stroke="#000" stroke-miterlimit="10" stroke-width="1"/>
            </g>
          </g>
          <g id="Grupo_972235" data-name="Grupo 972235" transform="translate(0 58.479)">
            <path id="Trazado_638536-2" data-name="Trazado 638536" d="M86.436,161.728l3.692.843L91,158.751l-3.446-.787c.008-.148.022-.294.022-.444a8.357,8.357,0,0,0-.669-3.284l2.767-2.206-2.443-3.063-2.662,2.123a8.358,8.358,0,0,0-3.418-1.714v-3.563H77.233v3.563a8.345,8.345,0,0,0-3.276,1.6L70.977,148.6l-2.443,3.063,3.022,2.41a8.327,8.327,0,0,0-.74,3.305l-4,.914.871,3.819,3.986-.909a8.406,8.406,0,0,0,1.96,2.577l-1.836,3.813,3.53,1.7,1.765-3.666a8.352,8.352,0,0,0,2.1.277,8.474,8.474,0,0,0,1.2-.1L82.17,169.5l3.53-1.7-1.659-3.445A8.407,8.407,0,0,0,86.436,161.728ZM73.243,157.52a5.95,5.95,0,1,1,5.949,5.95A5.95,5.95,0,0,1,73.243,157.52Z" transform="translate(-41.415 -123.603)" fill="none" stroke="#000" stroke-miterlimit="10" stroke-width="1"/>
            <path id="Trazado_638537-2" data-name="Trazado 638537" d="M55.459,134.162l5.1,1.165,1.205-5.28L57,128.96c.011-.205.031-.407.031-.614a11.553,11.553,0,0,0-.924-4.539l3.825-3.05-3.377-4.234-3.68,2.935a11.54,11.54,0,0,0-4.725-2.37v-4.926H42.739v4.926A11.538,11.538,0,0,0,38.21,119.3l-4.12-3.286-3.377,4.234,4.177,3.332a11.526,11.526,0,0,0-1.023,4.57l-5.535,1.263,1.205,5.28,5.51-1.258A11.62,11.62,0,0,0,37.756,137l-2.538,5.271,4.879,2.35,2.44-5.067a10.945,10.945,0,0,0,4.569.25l2.455,5.1,4.879-2.35-2.293-4.761A11.641,11.641,0,0,0,55.459,134.162Zm-18.238-5.817a8.225,8.225,0,1,1,8.225,8.225A8.224,8.224,0,0,1,37.222,128.345Z" transform="translate(-28.332 -112.162)" fill="none" stroke="#000" stroke-miterlimit="10" stroke-width="1"/>
          </g>
          <g id="Grupo_972237" data-name="Grupo 972237" transform="translate(65.288 221.593)">
            <g id="Grupo_972236" data-name="Grupo 972236" transform="translate(5.844 4.939)">
              <path id="Trazado_638538" data-name="Trazado 638538" d="M178.56,335.35l1.663,5.119h5.383l-4.355,3.164,1.663,5.119-4.355-3.164-4.355,3.164,1.663-5.119-4.355-3.164H176.9Z" transform="translate(-171.514 -335.35)" fill="none" stroke="#000" stroke-miterlimit="10" stroke-width="1"/>
              <path id="Trazado_638539" data-name="Trazado 638539" d="M200.932,335.35l1.663,5.119h5.383l-4.355,3.164,1.663,5.119-4.355-3.164-4.355,3.164,1.663-5.119-4.355-3.164h5.383Z" transform="translate(-176.485 -335.35)" fill="none" stroke="#000" stroke-miterlimit="10" stroke-width="1"/>
              <path id="Trazado_638540" data-name="Trazado 638540" d="M223.3,335.35l1.663,5.119h5.383L226,343.634l1.663,5.119-4.355-3.164-4.355,3.164,1.663-5.119-4.355-3.164h5.383Z" transform="translate(-181.456 -335.35)" fill="none" stroke="#000" stroke-miterlimit="10" stroke-width="1"/>
              <path id="Trazado_638541" data-name="Trazado 638541" d="M245.676,335.35l1.663,5.119h5.383l-4.355,3.164,1.663,5.119-4.355-3.164-4.355,3.164,1.663-5.119-4.355-3.164h5.383Z" transform="translate(-186.427 -335.35)" fill="none" stroke="#000" stroke-miterlimit="10" stroke-width="1"/>
              <path id="Trazado_638542" data-name="Trazado 638542" d="M268.048,335.35l1.663,5.119h5.383l-4.355,3.164,1.663,5.119-4.355-3.164-4.355,3.164,1.663-5.119L261,340.47h5.383Z" transform="translate(-191.399 -335.35)" fill="none" stroke="#000" stroke-miterlimit="10" stroke-width="1"/>
            </g>
            <rect id="Rectángulo_307442" data-name="Rectángulo 307442" width="94.113" height="24.889" rx="7.5" fill="none" stroke="#000" stroke-miterlimit="10" stroke-width="1"/>
          </g>
          <g id="Grupo_972239" data-name="Grupo 972239" transform="translate(0.283 132.826)">
            <g id="Grupo_972238" data-name="Grupo 972238" transform="translate(3.125 2.641)">
              <path id="Trazado_638543" data-name="Trazado 638543" d="M37.262,228.809l.889,2.737H41.03L38.7,233.238l.889,2.737-2.328-1.692-2.328,1.692.889-2.737L33.5,231.546h2.878Z" transform="translate(-33.495 -228.809)" fill="none" stroke="#000" stroke-miterlimit="10" stroke-width="1"/>
              <path id="Trazado_638544" data-name="Trazado 638544" d="M51.358,228.809l.889,2.737h2.878L52.8,233.238l.889,2.737-2.328-1.692-2.328,1.692.889-2.737-2.328-1.692h2.878Z" transform="translate(-38.288 -228.809)" fill="none" stroke="#000" stroke-miterlimit="10" stroke-width="1"/>
              <path id="Trazado_638545" data-name="Trazado 638545" d="M65.455,228.809l.889,2.737h2.878l-2.328,1.692.889,2.737-2.328-1.692-2.328,1.692.889-2.737-2.328-1.692h2.878Z" transform="translate(-43.08 -228.809)" fill="none" stroke="#000" stroke-miterlimit="10" stroke-width="1"/>
              <path id="Trazado_638546" data-name="Trazado 638546" d="M79.551,228.809l.889,2.737h2.878l-2.328,1.692.889,2.737-2.328-1.692-2.328,1.692.889-2.737-2.328-1.692h2.878Z" transform="translate(-47.873 -228.809)" fill="none" stroke="#000" stroke-miterlimit="10" stroke-width="1"/>
              <path id="Trazado_638547" data-name="Trazado 638547" d="M93.647,228.809l.889,2.737h2.878l-2.328,1.692.889,2.737-2.328-1.692-2.328,1.692.889-2.737-2.328-1.692h2.878Z" transform="translate(-52.666 -228.809)" fill="none" stroke="#000" stroke-miterlimit="10" stroke-width="1"/>
            </g>
            <rect id="Rectángulo_307443" data-name="Rectángulo 307443" width="50.318" height="13.307" rx="6.654" fill="none" stroke="#000" stroke-miterlimit="10" stroke-width="1"/>
          </g>
        </g>
      </g>
      <g id="Plants" transform="translate(40.561 247.53)">
        <g id="Grupo_972241" data-name="Grupo 972241">
          <path id="Trazado_638548" data-name="Trazado 638548" d="M102.064,342.706c.03.019.631-2.3.652-2.455.243-1.747-.314-5.266-2.093-6.125a2.338,2.338,0,0,0-3.181,1.408,4.886,4.886,0,0,0,.844,4.025C99.127,340.856,102.062,342.7,102.064,342.706Z" transform="translate(-64 -326.047)" fill="#263238"/>
          <path id="Trazado_638549" data-name="Trazado 638549" d="M49.855,343.076c1.417.619,4.885.541,4.887.541.036,0-.745-2.27-.811-2.408-.761-1.591-3.166-4.219-5.124-3.954a2.338,2.338,0,0,0-1.876,2.93A4.889,4.889,0,0,0,49.855,343.076Z" transform="translate(-46.86 -327.181)" fill="#263238"/>
          <path id="Trazado_638550" data-name="Trazado 638550" d="M51.2,347.938a16.253,16.253,0,0,0,4.811-.755,41.381,41.381,0,0,0,1.876,5.193c.426.985.885,1.965,1.358,2.94-.282-.413-.538-.781-.579-.828-1.154-1.334-4.169-3.233-5.987-2.461a2.338,2.338,0,0,0-1.036,3.321,4.885,4.885,0,0,0,3.583,2.016,15.493,15.493,0,0,0,4.676-.717c.185.372.366.746.553,1.118.9,1.784,1.8,3.561,2.629,5.33.294.624.559,1.248.828,1.872-.251-.367-.466-.674-.5-.717-1.154-1.334-4.169-3.233-5.986-2.461a2.338,2.338,0,0,0-1.036,3.321,4.886,4.886,0,0,0,3.583,2.016,14.892,14.892,0,0,0,4.55-.682c.255.647.513,1.3.731,1.934.139.44.3.853.418,1.3s.246.88.367,1.314c.2.844.416,1.714.593,2.542.127.575.238,1.125.351,1.679-.284-.624-.867-1.833-.927-1.929-.939-1.494-3.631-3.827-5.545-3.339a2.337,2.337,0,0,0-1.527,3.125,4.887,4.887,0,0,0,3.237,2.536,16.062,16.062,0,0,0,4.842-.014c.184.917.354,1.812.5,2.658.517,2.933.836,5.4,1.036,7.119.035.306.065.579.093.838H62.748l1.309,25.549H75.91l1.309-25.549H71.681l.123-.254c.76-1.583,1.814-3.858,2.952-6.643.362-.878.731-1.825,1.1-2.8a16.06,16.06,0,0,0,4.829.376A4.885,4.885,0,0,0,84.1,374.6a2.337,2.337,0,0,0-1.29-3.231c-1.872-.629-4.731,1.5-5.778,2.917-.062.084-.631,1.067-.979,1.694.149-.4.3-.785.446-1.2.3-.814.574-1.636.871-2.519q.194-.647.391-1.308c.14-.433.232-.909.352-1.367.254-1.069.461-2.165.644-3.274a15.384,15.384,0,0,0,4.583,1.053,4.886,4.886,0,0,0,3.723-1.744,2.338,2.338,0,0,0-.785-3.389c-1.756-.9-4.9.764-6.153,2.008-.078.077-.875,1.071-1.3,1.626.1-.668.213-1.333.3-2.012.244-1.958.428-3.948.622-5.933.059-.608.125-1.213.189-1.819a16.241,16.241,0,0,0,4.738,1.111,4.886,4.886,0,0,0,3.724-1.744,2.338,2.338,0,0,0-.785-3.389c-1.756-.9-4.9.764-6.153,2.008-.094.094-1.238,1.525-1.511,1.9.141-1.335.294-2.663.5-3.967a41.322,41.322,0,0,1,1.138-5.217c.118.045,3.251,1.227,4.765,1.121a4.887,4.887,0,0,0,3.724-1.744,2.337,2.337,0,0,0-.785-3.388c-1.756-.906-4.9.764-6.153,2.008-.082.082-.954,1.171-1.358,1.7l-.1-.052a30.066,30.066,0,0,1,2.072-4.953c.449-.879.928-1.694,1.412-2.477a15.715,15.715,0,0,0,4.511,1.587,4.888,4.888,0,0,0,3.893-1.324,2.338,2.338,0,0,0-.409-3.455c-1.645-1.093-4.957.221-6.336,1.32-.075.06-.77.752-1.27,1.263.224-.35.448-.715.669-1.046.826-1.244,1.66-2.332,2.406-3.291.428-.541.827-1.022,1.2-1.469a15.65,15.65,0,0,0,4.711-.671,4.886,4.886,0,0,0,2.844-2.969,2.337,2.337,0,0,0-1.954-2.878c-1.964-.212-4.3,2.48-5.015,4.091-.062.139-.781,2.428-.745,2.428H89.7c-.372.422-.765.879-1.185,1.387-.768.944-1.628,2.017-2.484,3.249a41.476,41.476,0,0,0-2.575,4.1,30.49,30.49,0,0,0-2.2,4.953c-.007.02-.011.042-.018.063.01-.579-.015-2.2-.032-2.322-.226-1.749-1.693-5-3.635-5.355a2.339,2.339,0,0,0-2.7,2.2,4.89,4.89,0,0,0,1.876,3.658,16.27,16.27,0,0,0,4.429,2.024,41.366,41.366,0,0,0-1.3,5.366c-.189,1.057-.346,2.126-.49,3.2-.007-.5-.017-.948-.026-1.01-.227-1.749-1.693-5-3.635-5.355a2.338,2.338,0,0,0-2.7,2.2,4.886,4.886,0,0,0,1.876,3.659,15.5,15.5,0,0,0,4.3,1.981c-.051.413-.107.825-.156,1.238-.237,1.982-.465,3.961-.748,5.9-.1.682-.222,1.35-.343,2.018-.007-.445-.017-.819-.024-.876-.226-1.75-1.692-5-3.635-5.355a2.338,2.338,0,0,0-2.7,2.2,4.886,4.886,0,0,0,1.877,3.658,14.91,14.91,0,0,0,4.171,1.941c-.145.681-.288,1.363-.458,2.016-.126.443-.217.879-.369,1.318l-.419,1.3c-.3.816-.6,1.659-.908,2.448-.211.55-.422,1.07-.634,1.595.107-.678.288-2.008.291-2.121a9.08,9.08,0,0,0-1.217-4.415,2.832,2.832,0,0,0-.032-.517,2.338,2.338,0,0,0-2.858-1.983c-1.909.508-3.12,3.858-3.21,5.62-.005.1.063,1.238.117,1.953-.1-.416-.185-.82-.288-1.246-.2-.844-.425-1.68-.663-2.582q-.2-.646-.4-1.306c-.122-.439-.308-.887-.461-1.336-.378-1.032-.81-2.059-1.269-3.086a15.357,15.357,0,0,0,4.4-1.649,4.884,4.884,0,0,0,2.144-3.509,2.338,2.338,0,0,0-2.525-2.394c-1.964.214-3.668,3.342-4.024,5.069-.022.108-.139,1.376-.189,2.074-.281-.614-.558-1.23-.862-1.841-.878-1.768-1.821-3.53-2.754-5.292-.286-.539-.565-1.08-.846-1.621a16.231,16.231,0,0,0,4.565-1.688,4.885,4.885,0,0,0,2.144-3.509,2.338,2.338,0,0,0-2.525-2.393c-1.964.214-3.668,3.342-4.025,5.069-.026.13-.191,1.956-.211,2.422-.618-1.191-1.224-2.383-1.773-3.582a41.169,41.169,0,0,1-1.928-4.98c.123-.027,3.388-.77,4.592-1.694a4.888,4.888,0,0,0,2.144-3.509,2.338,2.338,0,0,0-2.525-2.393c-1.964.213-3.668,3.342-4.025,5.069-.024.114-.15,1.506-.2,2.167l-.112.012a30.063,30.063,0,0,1-1.005-5.275c-.11-.981-.16-1.925-.189-2.845a15.738,15.738,0,0,0,4.638-1.166,4.889,4.889,0,0,0,2.517-3.252,2.337,2.337,0,0,0-2.247-2.656c-1.975,0-4.013,2.918-4.557,4.6-.03.091-.228,1.052-.362,1.754-.007-.415-.021-.843-.019-1.241,0-1.494.1-2.862.191-4.072.059-.688.125-1.309.194-1.889a15.643,15.643,0,0,0,3.559-3.159,4.885,4.885,0,0,0,.735-4.045,2.338,2.338,0,0,0-3.218-1.322c-1.755.907-2.216,4.439-1.926,6.179.025.15.688,2.457.718,2.437l.034-.024c-.077.557-.154,1.156-.224,1.81-.12,1.211-.245,2.581-.28,4.08a41.419,41.419,0,0,0,.116,4.843,30.44,30.44,0,0,0,.9,5.345c.006.02.014.041.02.062-.311-.488-1.225-1.824-1.307-1.919-1.154-1.334-4.169-3.233-5.986-2.461a2.338,2.338,0,0,0-1.036,3.321A4.885,4.885,0,0,0,51.2,347.938Zm19.587,25.889a17.12,17.12,0,0,0,3.938,2.539c-.353.867-.7,1.707-1.049,2.493-1.187,2.732-2.279,4.963-3.064,6.51-.158.312-.3.588-.432.843H70.05c-.039-.3-.082-.632-.133-1-.24-1.74-.616-4.219-1.2-7.169-.183-.933-.4-1.926-.627-2.943A25.463,25.463,0,0,0,70.789,373.827Z" transform="translate(-47.011 -322)" fill="#263238"/>
          <path id="Trazado_638551" data-name="Trazado 638551" d="M49.855,343.076c1.417.619,4.885.541,4.887.541.036,0-.745-2.27-.811-2.408-.761-1.591-3.166-4.219-5.124-3.954a2.338,2.338,0,0,0-1.876,2.93A4.889,4.889,0,0,0,49.855,343.076Z" transform="translate(-46.86 -327.181)" fill="#263238" opacity="0.3"/>
          <path id="Trazado_638552" data-name="Trazado 638552" d="M102.064,342.706c.03.019.631-2.3.652-2.455.243-1.747-.314-5.266-2.093-6.125a2.338,2.338,0,0,0-3.181,1.408,4.886,4.886,0,0,0,.844,4.025C99.127,340.856,102.062,342.7,102.064,342.706Z" transform="translate(-64 -326.047)" fill="#263238" opacity="0.3"/>
          <path id="Trazado_638553" data-name="Trazado 638553" d="M51.2,347.938a16.253,16.253,0,0,0,4.811-.755,41.381,41.381,0,0,0,1.876,5.193c.426.985.885,1.965,1.358,2.94-.282-.413-.538-.781-.579-.828-1.154-1.334-4.169-3.233-5.987-2.461a2.338,2.338,0,0,0-1.036,3.321,4.885,4.885,0,0,0,3.583,2.016,15.493,15.493,0,0,0,4.676-.717c.185.372.366.746.553,1.118.9,1.784,1.8,3.561,2.629,5.33.294.624.559,1.248.828,1.872-.251-.367-.466-.674-.5-.717-1.154-1.334-4.169-3.233-5.986-2.461a2.338,2.338,0,0,0-1.036,3.321,4.886,4.886,0,0,0,3.583,2.016,14.892,14.892,0,0,0,4.55-.682c.255.647.513,1.3.731,1.934.139.44.3.853.418,1.3s.246.88.367,1.314c.2.844.416,1.714.593,2.542.127.575.238,1.125.351,1.679-.284-.624-.867-1.833-.927-1.929-.939-1.494-3.631-3.827-5.545-3.339a2.337,2.337,0,0,0-1.527,3.125,4.887,4.887,0,0,0,3.237,2.536,16.062,16.062,0,0,0,4.842-.014c.184.917.354,1.812.5,2.658.517,2.933.836,5.4,1.036,7.119.035.306.065.579.093.838H62.748l1.309,25.549H75.91l1.309-25.549H71.681l.123-.254c.76-1.583,1.814-3.858,2.952-6.643.362-.878.731-1.825,1.1-2.8a16.06,16.06,0,0,0,4.829.376A4.885,4.885,0,0,0,84.1,374.6a2.337,2.337,0,0,0-1.29-3.231c-1.872-.629-4.731,1.5-5.778,2.917-.062.084-.631,1.067-.979,1.694.149-.4.3-.785.446-1.2.3-.814.574-1.636.871-2.519q.194-.647.391-1.308c.14-.433.232-.909.352-1.367.254-1.069.461-2.165.644-3.274a15.384,15.384,0,0,0,4.583,1.053,4.886,4.886,0,0,0,3.723-1.744,2.338,2.338,0,0,0-.785-3.389c-1.756-.9-4.9.764-6.153,2.008-.078.077-.875,1.071-1.3,1.626.1-.668.213-1.333.3-2.012.244-1.958.428-3.948.622-5.933.059-.608.125-1.213.189-1.819a16.241,16.241,0,0,0,4.738,1.111,4.886,4.886,0,0,0,3.724-1.744,2.338,2.338,0,0,0-.785-3.389c-1.756-.9-4.9.764-6.153,2.008-.094.094-1.238,1.525-1.511,1.9.141-1.335.294-2.663.5-3.967a41.322,41.322,0,0,1,1.138-5.217c.118.045,3.251,1.227,4.765,1.121a4.887,4.887,0,0,0,3.724-1.744,2.337,2.337,0,0,0-.785-3.388c-1.756-.906-4.9.764-6.153,2.008-.082.082-.954,1.171-1.358,1.7l-.1-.052a30.066,30.066,0,0,1,2.072-4.953c.449-.879.928-1.694,1.412-2.477a15.715,15.715,0,0,0,4.511,1.587,4.888,4.888,0,0,0,3.893-1.324,2.338,2.338,0,0,0-.409-3.455c-1.645-1.093-4.957.221-6.336,1.32-.075.06-.77.752-1.27,1.263.224-.35.448-.715.669-1.046.826-1.244,1.66-2.332,2.406-3.291.428-.541.827-1.022,1.2-1.469a15.65,15.65,0,0,0,4.711-.671,4.886,4.886,0,0,0,2.844-2.969,2.337,2.337,0,0,0-1.954-2.878c-1.964-.212-4.3,2.48-5.015,4.091-.062.139-.781,2.428-.745,2.428H89.7c-.372.422-.765.879-1.185,1.387-.768.944-1.628,2.017-2.484,3.249a41.476,41.476,0,0,0-2.575,4.1,30.49,30.49,0,0,0-2.2,4.953c-.007.02-.011.042-.018.063.01-.579-.015-2.2-.032-2.322-.226-1.749-1.693-5-3.635-5.355a2.339,2.339,0,0,0-2.7,2.2,4.89,4.89,0,0,0,1.876,3.658,16.27,16.27,0,0,0,4.429,2.024,41.366,41.366,0,0,0-1.3,5.366c-.189,1.057-.346,2.126-.49,3.2-.007-.5-.017-.948-.026-1.01-.227-1.749-1.693-5-3.635-5.355a2.338,2.338,0,0,0-2.7,2.2,4.886,4.886,0,0,0,1.876,3.659,15.5,15.5,0,0,0,4.3,1.981c-.051.413-.107.825-.156,1.238-.237,1.982-.465,3.961-.748,5.9-.1.682-.222,1.35-.343,2.018-.007-.445-.017-.819-.024-.876-.226-1.75-1.692-5-3.635-5.355a2.338,2.338,0,0,0-2.7,2.2,4.886,4.886,0,0,0,1.877,3.658,14.91,14.91,0,0,0,4.171,1.941c-.145.681-.288,1.363-.458,2.016-.126.443-.217.879-.369,1.318l-.419,1.3c-.3.816-.6,1.659-.908,2.448-.211.55-.422,1.07-.634,1.595.107-.678.288-2.008.291-2.121a9.08,9.08,0,0,0-1.217-4.415,2.832,2.832,0,0,0-.032-.517,2.338,2.338,0,0,0-2.858-1.983c-1.909.508-3.12,3.858-3.21,5.62-.005.1.063,1.238.117,1.953-.1-.416-.185-.82-.288-1.246-.2-.844-.425-1.68-.663-2.582q-.2-.646-.4-1.306c-.122-.439-.308-.887-.461-1.336-.378-1.032-.81-2.059-1.269-3.086a15.357,15.357,0,0,0,4.4-1.649,4.884,4.884,0,0,0,2.144-3.509,2.338,2.338,0,0,0-2.525-2.394c-1.964.214-3.668,3.342-4.024,5.069-.022.108-.139,1.376-.189,2.074-.281-.614-.558-1.23-.862-1.841-.878-1.768-1.821-3.53-2.754-5.292-.286-.539-.565-1.08-.846-1.621a16.231,16.231,0,0,0,4.565-1.688,4.885,4.885,0,0,0,2.144-3.509,2.338,2.338,0,0,0-2.525-2.393c-1.964.214-3.668,3.342-4.025,5.069-.026.13-.191,1.956-.211,2.422-.618-1.191-1.224-2.383-1.773-3.582a41.169,41.169,0,0,1-1.928-4.98c.123-.027,3.388-.77,4.592-1.694a4.888,4.888,0,0,0,2.144-3.509,2.338,2.338,0,0,0-2.525-2.393c-1.964.213-3.668,3.342-4.025,5.069-.024.114-.15,1.506-.2,2.167l-.112.012a30.063,30.063,0,0,1-1.005-5.275c-.11-.981-.16-1.925-.189-2.845a15.738,15.738,0,0,0,4.638-1.166,4.889,4.889,0,0,0,2.517-3.252,2.337,2.337,0,0,0-2.247-2.656c-1.975,0-4.013,2.918-4.557,4.6-.03.091-.228,1.052-.362,1.754-.007-.415-.021-.843-.019-1.241,0-1.494.1-2.862.191-4.072.059-.688.125-1.309.194-1.889a15.643,15.643,0,0,0,3.559-3.159,4.885,4.885,0,0,0,.735-4.045,2.338,2.338,0,0,0-3.218-1.322c-1.755.907-2.216,4.439-1.926,6.179.025.15.688,2.457.718,2.437l.034-.024c-.077.557-.154,1.156-.224,1.81-.12,1.211-.245,2.581-.28,4.08a41.419,41.419,0,0,0,.116,4.843,30.44,30.44,0,0,0,.9,5.345c.006.02.014.041.02.062-.311-.488-1.225-1.824-1.307-1.919-1.154-1.334-4.169-3.233-5.986-2.461a2.338,2.338,0,0,0-1.036,3.321A4.885,4.885,0,0,0,51.2,347.938Zm19.587,25.889a17.12,17.12,0,0,0,3.938,2.539c-.353.867-.7,1.707-1.049,2.493-1.187,2.732-2.279,4.963-3.064,6.51-.158.312-.3.588-.432.843H70.05c-.039-.3-.082-.632-.133-1-.24-1.74-.616-4.219-1.2-7.169-.183-.933-.4-1.926-.627-2.943A25.463,25.463,0,0,0,70.789,373.827Z" transform="translate(-47.011 -322)" fill="#263238" opacity="0.3"/>
        </g>
      </g>
      <g id="Page" transform="translate(57.153 45.677)">
        <rect id="Rectángulo_307444" data-name="Rectángulo 307444" width="230.341" height="170.281" transform="translate(0 6.6)" opacity="0.3"/>
        <g id="Grupo_972344" data-name="Grupo 972344" transform="translate(5.707 0)">
          <rect id="Rectángulo_307445" data-name="Rectángulo 307445" width="232.818" height="171.053" fill="#fff" stroke="#263238" stroke-miterlimit="10" stroke-width="1"/>
          <rect id="Rectángulo_307446" data-name="Rectángulo 307446" width="38.358" height="171.053" fill="#449c6e" stroke="#263238" stroke-miterlimit="10" stroke-width="1"/>
          <g id="Grupo_972343" data-name="Grupo 972343">
            <rect id="Rectángulo_307447" data-name="Rectángulo 307447" width="232.818" height="14.044" fill="#263238" stroke="#263238" stroke-linecap="round" stroke-linejoin="round" stroke-width="1"/>
            <path id="Trazado_638554" data-name="Trazado 638554" d="M92.952,94.387a3.866,3.866,0,1,0-3.866,3.866A3.866,3.866,0,0,0,92.952,94.387Z" transform="translate(-82.201 -61.137)" fill="#fff" stroke="#263238" stroke-linecap="round" stroke-linejoin="round" stroke-width="1"/>
            <line id="Línea_867" data-name="Línea 867" x2="19.008" transform="translate(13.972 33.572)" fill="none" stroke="#263238" stroke-linecap="round" stroke-linejoin="round" stroke-width="1"/>
            <path id="Trazado_638555" data-name="Trazado 638555" d="M92.952,121.234a3.866,3.866,0,1,0-3.866,3.866A3.866,3.866,0,0,0,92.952,121.234Z" transform="translate(-82.201 -70.265)" fill="#fff" stroke="#263238" stroke-linecap="round" stroke-linejoin="round" stroke-width="1"/>
            <line id="Línea_868" data-name="Línea 868" x2="19.008" transform="translate(13.972 51.292)" fill="none" stroke="#263238" stroke-linecap="round" stroke-linejoin="round" stroke-width="1"/>
            <path id="Trazado_638556" data-name="Trazado 638556" d="M92.952,148.082a3.866,3.866,0,1,0-3.866,3.866A3.866,3.866,0,0,0,92.952,148.082Z" transform="translate(-82.201 -79.393)" fill="#fff" stroke="#263238" stroke-linecap="round" stroke-linejoin="round" stroke-width="1"/>
            <line id="Línea_869" data-name="Línea 869" x2="19.008" transform="translate(13.972 69.011)" fill="none" stroke="#263238" stroke-linecap="round" stroke-linejoin="round" stroke-width="1"/>
            <path id="Trazado_638557" data-name="Trazado 638557" d="M92.952,174.93a3.866,3.866,0,1,0-3.866,3.866A3.865,3.865,0,0,0,92.952,174.93Z" transform="translate(-82.201 -88.522)" fill="#fff" stroke="#263238" stroke-linecap="round" stroke-linejoin="round" stroke-width="1"/>
            <line id="Línea_870" data-name="Línea 870" x2="19.008" transform="translate(13.972 86.731)" fill="none" stroke="#263238" stroke-linecap="round" stroke-linejoin="round" stroke-width="1"/>
            <path id="Trazado_638558" data-name="Trazado 638558" d="M92.952,201.777a3.866,3.866,0,1,0-3.866,3.866A3.866,3.866,0,0,0,92.952,201.777Z" transform="translate(-82.201 -97.649)" fill="#fff" stroke="#263238" stroke-linecap="round" stroke-linejoin="round" stroke-width="1"/>
            <line id="Línea_871" data-name="Línea 871" x2="19.008" transform="translate(13.972 104.45)" fill="none" stroke="#263238" stroke-linecap="round" stroke-linejoin="round" stroke-width="1"/>
            <g id="Grupo_972242" data-name="Grupo 972242" transform="translate(43.181 116.766)" opacity="0.05">
              <rect id="Rectángulo_307448" data-name="Rectángulo 307448" width="152.404" height="5.466"/>
              <rect id="Rectángulo_307449" data-name="Rectángulo 307449" width="152.404" height="5.466" transform="translate(0 9.646)"/>
              <rect id="Rectángulo_307450" data-name="Rectángulo 307450" width="152.404" height="5.466" transform="translate(0 19.292)"/>
              <rect id="Rectángulo_307451" data-name="Rectángulo 307451" width="152.404" height="5.466" transform="translate(0 28.938)"/>
            </g>
            <g id="Grupo_972257" data-name="Grupo 972257" transform="translate(48.359 120.258)">
              <g id="Grupo_972244" data-name="Grupo 972244" transform="translate(58.257 10.533)">
                <g id="Grupo_972243" data-name="Grupo 972243">
                  <rect id="Rectángulo_307452" data-name="Rectángulo 307452" width="8.739" height="25.523" fill="#449c6e"/>
                </g>
              </g>
              <g id="Grupo_972246" data-name="Grupo 972246" transform="translate(48.547)">
                <g id="Grupo_972245" data-name="Grupo 972245">
                  <rect id="Rectángulo_307453" data-name="Rectángulo 307453" width="8.739" height="36.056" fill="#263238"/>
                </g>
              </g>
              <g id="Grupo_972248" data-name="Grupo 972248" transform="translate(38.838 12.964)">
                <g id="Grupo_972247" data-name="Grupo 972247">
                  <rect id="Rectángulo_307454" data-name="Rectángulo 307454" width="8.739" height="23.092" fill="#449c6e"/>
                </g>
              </g>
              <g id="Grupo_972250" data-name="Grupo 972250" transform="translate(29.128 26.738)">
                <g id="Grupo_972249" data-name="Grupo 972249">
                  <rect id="Rectángulo_307455" data-name="Rectángulo 307455" width="8.739" height="9.318" fill="#263238"/>
                </g>
              </g>
              <g id="Grupo_972252" data-name="Grupo 972252" transform="translate(19.419 8.508)">
                <g id="Grupo_972251" data-name="Grupo 972251">
                  <rect id="Rectángulo_307456" data-name="Rectángulo 307456" width="8.739" height="27.548" fill="#449c6e"/>
                </g>
              </g>
              <g id="Grupo_972254" data-name="Grupo 972254" transform="translate(9.709 14.179)">
                <g id="Grupo_972253" data-name="Grupo 972253">
                  <rect id="Rectángulo_307457" data-name="Rectángulo 307457" width="8.739" height="21.877" fill="#263238"/>
                </g>
              </g>
              <g id="Grupo_972256" data-name="Grupo 972256" transform="translate(0 27.954)">
                <g id="Grupo_972255" data-name="Grupo 972255">
                  <rect id="Rectángulo_307458" data-name="Rectángulo 307458" width="8.738" height="8.103" fill="#449c6e"/>
                </g>
              </g>
            </g>
            <g id="Grupo_972272" data-name="Grupo 972272" transform="translate(126.982 120.258)">
              <g id="Grupo_972259" data-name="Grupo 972259" transform="translate(0 10.533)">
                <g id="Grupo_972258" data-name="Grupo 972258">
                  <rect id="Rectángulo_307459" data-name="Rectángulo 307459" width="8.738" height="25.523" fill="#263238"/>
                </g>
              </g>
              <g id="Grupo_972261" data-name="Grupo 972261" transform="translate(9.709)">
                <g id="Grupo_972260" data-name="Grupo 972260">
                  <rect id="Rectángulo_307460" data-name="Rectángulo 307460" width="8.738" height="36.056" fill="#449c6e"/>
                </g>
              </g>
              <g id="Grupo_972263" data-name="Grupo 972263" transform="translate(19.419 12.964)">
                <g id="Grupo_972262" data-name="Grupo 972262">
                  <rect id="Rectángulo_307461" data-name="Rectángulo 307461" width="8.739" height="23.092" fill="#263238"/>
                </g>
              </g>
              <g id="Grupo_972265" data-name="Grupo 972265" transform="translate(29.128 26.738)">
                <g id="Grupo_972264" data-name="Grupo 972264">
                  <rect id="Rectángulo_307462" data-name="Rectángulo 307462" width="8.739" height="9.318" fill="#449c6e"/>
                </g>
              </g>
              <g id="Grupo_972267" data-name="Grupo 972267" transform="translate(38.838 8.508)">
                <g id="Grupo_972266" data-name="Grupo 972266">
                  <rect id="Rectángulo_307463" data-name="Rectángulo 307463" width="8.739" height="27.548" fill="#263238"/>
                </g>
              </g>
              <g id="Grupo_972269" data-name="Grupo 972269" transform="translate(48.547 14.179)">
                <g id="Grupo_972268" data-name="Grupo 972268">
                  <rect id="Rectángulo_307464" data-name="Rectángulo 307464" width="8.739" height="21.877" fill="#449c6e"/>
                </g>
              </g>
              <g id="Grupo_972271" data-name="Grupo 972271" transform="translate(58.257 27.954)">
                <g id="Grupo_972270" data-name="Grupo 972270">
                  <rect id="Rectángulo_307465" data-name="Rectángulo 307465" width="8.739" height="8.103" fill="#263238"/>
                </g>
              </g>
            </g>
            <g id="Grupo_972273" data-name="Grupo 972273" transform="translate(5.125 129.234)">
              <line id="Línea_872" data-name="Línea 872" x2="28.348" fill="none" stroke="#263238" stroke-linecap="round" stroke-linejoin="round" stroke-width="1"/>
              <line id="Línea_873" data-name="Línea 873" x2="28.348" transform="translate(0 5.088)" fill="none" stroke="#263238" stroke-linecap="round" stroke-linejoin="round" stroke-width="1"/>
              <line id="Línea_874" data-name="Línea 874" x2="28.348" transform="translate(0 10.176)" fill="none" stroke="#263238" stroke-linecap="round" stroke-linejoin="round" stroke-width="1"/>
              <line id="Línea_875" data-name="Línea 875" x2="28.348" transform="translate(0 15.264)" fill="none" stroke="#263238" stroke-linecap="round" stroke-linejoin="round" stroke-width="1"/>
              <line id="Línea_876" data-name="Línea 876" x2="28.348" transform="translate(0 20.352)" fill="none" stroke="#263238" stroke-linecap="round" stroke-linejoin="round" stroke-width="1"/>
              <line id="Línea_877" data-name="Línea 877" x2="28.348" transform="translate(0 25.44)" fill="none" stroke="#263238" stroke-linecap="round" stroke-linejoin="round" stroke-width="1"/>
            </g>
            <g id="Grupo_972274" data-name="Grupo 972274" transform="translate(10.269 4.481)">
              <line id="Línea_878" data-name="Línea 878" x2="12.441" fill="none" stroke="#fff" stroke-linecap="round" stroke-linejoin="round" stroke-width="1"/>
              <line id="Línea_879" data-name="Línea 879" x2="12.441" transform="translate(0 3.38)" fill="none" stroke="#fff" stroke-linecap="round" stroke-linejoin="round" stroke-width="1"/>
              <line id="Línea_880" data-name="Línea 880" x2="12.441" transform="translate(0 6.759)" fill="none" stroke="#fff" stroke-linecap="round" stroke-linejoin="round" stroke-width="1"/>
            </g>
            <g id="Grupo_972275" data-name="Grupo 972275" transform="translate(123.242 79.81)">
              <rect id="Rectángulo_307466" data-name="Rectángulo 307466" width="72.685" height="29.433" opacity="0.05"/>
              <path id="Trazado_638559" data-name="Trazado 638559" d="M340.06,196.325v5.087H267.375V185.058L279,181.791h16.353l6.546,8.353h11.626l9.086,6.18Z" transform="translate(-267.375 -171.978)" fill="#449c6e"/>
            </g>
            <g id="Grupo_972284" data-name="Grupo 972284" transform="translate(41.925 19.912)">
              <g id="Grupo_972283" data-name="Grupo 972283">
                <g id="Grupo_972280" data-name="Grupo 972280" transform="translate(0 8.31)">
                  <g id="Grupo_972277" data-name="Grupo 972277" transform="translate(0 1.814)" opacity="0.3">
                    <line id="Línea_881" data-name="Línea 881" y1="2.603" transform="translate(0.651 34.658)" fill="none" stroke="#000" stroke-linecap="round" stroke-linejoin="round" stroke-width="0.5"/>
                    <g id="Grupo_972276" data-name="Grupo 972276">
                      <line id="Línea_882" data-name="Línea 882" x2="184.354" transform="translate(0 28.475)" fill="none" stroke="#000" stroke-linecap="round" stroke-linejoin="round" stroke-width="0.5" opacity="0.3"/>
                      <line id="Línea_883" data-name="Línea 883" x2="184.354" transform="translate(0 34.495)" fill="none" stroke="#000" stroke-linecap="round" stroke-linejoin="round" stroke-width="0.5" opacity="0.3"/>
                      <line id="Línea_884" data-name="Línea 884" x2="184.354" transform="translate(0 22.78)" fill="none" stroke="#000" stroke-linecap="round" stroke-linejoin="round" stroke-width="0.5" opacity="0.3"/>
                      <line id="Línea_885" data-name="Línea 885" x2="184.354" transform="translate(0 17.085)" fill="none" stroke="#000" stroke-linecap="round" stroke-linejoin="round" stroke-width="0.5" opacity="0.3"/>
                      <line id="Línea_886" data-name="Línea 886" x2="184.354" transform="translate(0 11.39)" fill="none" stroke="#000" stroke-linecap="round" stroke-linejoin="round" stroke-width="0.5" opacity="0.3"/>
                      <line id="Línea_887" data-name="Línea 887" x2="184.354" transform="translate(0 5.695)" fill="none" stroke="#000" stroke-linecap="round" stroke-linejoin="round" stroke-width="0.5" opacity="0.3"/>
                      <line id="Línea_888" data-name="Línea 888" x2="184.354" fill="none" stroke="#000" stroke-linecap="round" stroke-linejoin="round" stroke-width="0.5" opacity="0.3"/>
                      <line id="Línea_889" data-name="Línea 889" y1="2.603" transform="translate(15.837 34.658)" fill="none" stroke="#000" stroke-linecap="round" stroke-linejoin="round" stroke-width="0.5" opacity="0.3"/>
                    </g>
                    <line id="Línea_890" data-name="Línea 890" y1="2.603" transform="translate(31.024 34.658)" fill="none" stroke="#000" stroke-linecap="round" stroke-linejoin="round" stroke-width="0.5"/>
                    <line id="Línea_891" data-name="Línea 891" y1="2.603" transform="translate(46.211 34.658)" fill="none" stroke="#000" stroke-linecap="round" stroke-linejoin="round" stroke-width="0.5"/>
                    <line id="Línea_892" data-name="Línea 892" y1="2.603" transform="translate(61.397 34.658)" fill="none" stroke="#000" stroke-linecap="round" stroke-linejoin="round" stroke-width="0.5"/>
                    <line id="Línea_893" data-name="Línea 893" y1="2.603" transform="translate(76.584 34.658)" fill="none" stroke="#000" stroke-linecap="round" stroke-linejoin="round" stroke-width="0.5"/>
                    <line id="Línea_894" data-name="Línea 894" y1="2.603" transform="translate(91.77 34.658)" fill="none" stroke="#000" stroke-linecap="round" stroke-linejoin="round" stroke-width="0.5"/>
                    <line id="Línea_895" data-name="Línea 895" y1="2.603" transform="translate(106.957 34.658)" fill="none" stroke="#000" stroke-linecap="round" stroke-linejoin="round" stroke-width="0.5"/>
                    <line id="Línea_896" data-name="Línea 896" y1="2.603" transform="translate(122.144 34.658)" fill="none" stroke="#000" stroke-linecap="round" stroke-linejoin="round" stroke-width="0.5"/>
                    <line id="Línea_897" data-name="Línea 897" y1="2.603" transform="translate(137.33 34.658)" fill="none" stroke="#000" stroke-linecap="round" stroke-linejoin="round" stroke-width="0.5"/>
                    <line id="Línea_898" data-name="Línea 898" y1="2.603" transform="translate(152.517 34.658)" fill="none" stroke="#000" stroke-linecap="round" stroke-linejoin="round" stroke-width="0.5"/>
                    <line id="Línea_899" data-name="Línea 899" y1="2.603" transform="translate(167.703 34.658)" fill="none" stroke="#000" stroke-linecap="round" stroke-linejoin="round" stroke-width="0.5"/>
                    <line id="Línea_900" data-name="Línea 900" y1="2.603" transform="translate(182.89 34.658)" fill="none" stroke="#000" stroke-linecap="round" stroke-linejoin="round" stroke-width="0.5"/>
                  </g>
                  <path id="Trazado_638560" data-name="Trazado 638560" d="M326.439,124.126V91.671l.083-2.911L316.8,90.737l-12.2,3.905L289.787,96.27l-15.458,4.556-14.644-1.79-16.6-4.719-15.946,7.3-12.529-4.7-16.76,2.115-13.993-5.858L167.752,115.8,152.62,97.734l-7.522,7.441v18.951Z" transform="translate(-144.484 -88.76)" fill="#449c6e"/>
                  <path id="Trazado_638561" data-name="Trazado 638561" d="M326.439,124.126V91.671l.083-2.911L316.8,90.737l-12.2,3.905L289.787,96.27l-15.458,4.556-14.644-1.79-16.6-4.719-15.946,7.3-12.529-4.7-16.76,2.115-13.993-5.858L167.752,115.8,152.62,97.734l-7.522,7.441v18.951Z" transform="translate(-144.484 -88.76)" fill="#fff" opacity="0.5"/>
                  <path id="Trazado_638562" data-name="Trazado 638562" d="M326.494,132.565V121.651l.039-1.336-9.81-3.966-12.2-2.766-14.807,1.627-15.458,2.766-14.644-2.115-16.6-1.627-15.946.325-12.529,3.58-16.76,2.929-13.993-2.929L167.677,119.6l-15.132,1.627-7.322.976h-.346v10.358Z" transform="translate(-144.409 -97.2)" opacity="0.15"/>
                  <g id="Grupo_972278" data-name="Grupo 972278" transform="translate(7.159 15.407)">
                    <circle id="Elipse_7835" data-name="Elipse 7835" cx="0.976" cy="0.976" r="0.976" transform="translate(0 7.648)" fill="#263238"/>
                    <path id="Trazado_638563" data-name="Trazado 638563" d="M179.9,122.2a.976.976,0,1,0-.977.976A.977.977,0,0,0,179.9,122.2Z" transform="translate(-162.811 -115.205)" fill="#263238"/>
                    <circle id="Elipse_7836" data-name="Elipse 7836" cx="0.976" cy="0.976" r="0.976" transform="translate(31.241 4.556)" fill="#263238"/>
                    <circle id="Elipse_7837" data-name="Elipse 7837" cx="0.976" cy="0.976" r="0.976" transform="translate(45.234 7.485)" fill="#263238"/>
                    <circle id="Elipse_7838" data-name="Elipse 7838" cx="0.976" cy="0.976" r="0.976" transform="translate(61.994 4.556)" fill="#263238"/>
                    <circle id="Elipse_7839" data-name="Elipse 7839" cx="0.976" cy="0.976" r="0.976" transform="translate(74.523 0.976)" fill="#263238"/>
                    <circle id="Elipse_7840" data-name="Elipse 7840" cx="0.976" cy="0.976" r="0.976" transform="translate(90.469 0.651)" fill="#263238"/>
                    <path id="Trazado_638564" data-name="Trazado 638564" d="M319.188,116.532a.976.976,0,1,0-.976.976A.977.977,0,0,0,319.188,116.532Z" transform="translate(-210.17 -113.277)" fill="#263238"/>
                    <circle id="Elipse_7841" data-name="Elipse 7841" cx="0.976" cy="0.976" r="0.976" transform="translate(121.71 4.393)" fill="#263238"/>
                    <circle id="Elipse_7842" data-name="Elipse 7842" cx="0.976" cy="0.976" r="0.976" transform="translate(137.167 1.627)" fill="#263238"/>
                    <circle id="Elipse_7843" data-name="Elipse 7843" cx="0.976" cy="0.976" r="0.976" transform="translate(151.974)" fill="#263238"/>
                    <path id="Trazado_638565" data-name="Trazado 638565" d="M405.722,117.271a.976.976,0,1,0-.977.976A.977.977,0,0,0,405.722,117.271Z" transform="translate(-239.591 -113.529)" fill="#263238"/>
                  </g>
                  <g id="Grupo_972279" data-name="Grupo 972279" transform="translate(7.159 1.001)" opacity="0.3">
                    <circle id="Elipse_7844" data-name="Elipse 7844" cx="0.976" cy="0.976" r="0.976" transform="translate(0 6.997)"/>
                    <circle id="Elipse_7845" data-name="Elipse 7845" cx="0.976" cy="0.976" r="0.976" transform="translate(15.132 25.058)"/>
                    <path id="Trazado_638566" data-name="Trazado 638566" d="M204.3,94.951a.976.976,0,1,0-.977.976A.977.977,0,0,0,204.3,94.951Z" transform="translate(-171.109 -91.534)"/>
                    <circle id="Elipse_7846" data-name="Elipse 7846" cx="0.976" cy="0.976" r="0.976" transform="translate(45.234 8.298)"/>
                    <path id="Trazado_638567" data-name="Trazado 638567" d="M250.9,100.621a.976.976,0,1,0-.977.977A.977.977,0,0,0,250.9,100.621Z" transform="translate(-186.951 -93.462)"/>
                    <circle id="Elipse_7847" data-name="Elipse 7847" cx="0.976" cy="0.976" r="0.976" transform="translate(74.523 10.493)"/>
                    <circle id="Elipse_7848" data-name="Elipse 7848" cx="0.976" cy="0.976" r="0.976" transform="translate(90.469 3.58)"/>
                    <circle id="Elipse_7849" data-name="Elipse 7849" cx="0.976" cy="0.976" r="0.976" transform="translate(107.066 8.298)"/>
                    <circle id="Elipse_7850" data-name="Elipse 7850" cx="0.976" cy="0.976" r="0.976" transform="translate(121.71 10.088)"/>
                    <circle id="Elipse_7851" data-name="Elipse 7851" cx="0.976" cy="0.976" r="0.976" transform="translate(137.167 5.532)"/>
                    <circle id="Elipse_7852" data-name="Elipse 7852" cx="0.976" cy="0.976" r="0.976" transform="translate(151.974 3.905)"/>
                    <circle id="Elipse_7853" data-name="Elipse 7853" cx="0.976" cy="0.976" r="0.976" transform="translate(164.178)"/>
                  </g>
                </g>
                <g id="Grupo_972281" data-name="Grupo 972281" transform="translate(166.955)">
                  <path id="Trazado_638568" data-name="Trazado 638568" d="M400.32,82.14v1.49h-.8V82.14h-2.388v-.75l2.294-5.157h.9V81.39h.592v.75Zm-2.43-.75h1.627V77.775Z" transform="translate(-397.129 -76.191)" fill="#263238"/>
                  <path id="Trazado_638569" data-name="Trazado 638569" d="M404.629,79.245a1.19,1.19,0,0,1,1.1-.612c.95,0,1.374.7,1.374,1.754v1.447c0,1.131-.54,1.87-1.67,1.87s-1.659-.74-1.659-1.87v-.5h.771v.549c0,.666.275,1.067.867,1.067s.867-.4.867-1.067V80.449c0-.665-.275-1.067-.867-1.067a.8.8,0,0,0-.834.793v.169H403.8l.2-4.11h2.917v.74h-2.177Z" transform="translate(-399.388 -76.191)" fill="#263238"/>
                  <path id="Trazado_638570" data-name="Trazado 638570" d="M412.065,77.363V79.7c0,.719-.338,1.194-1.057,1.194s-1.057-.475-1.057-1.194V77.363c0-.708.338-1.194,1.057-1.194S412.065,76.655,412.065,77.363Zm-1.585-.032v2.41c0,.4.148.665.529.665s.528-.264.528-.665v-2.41c0-.4-.158-.677-.528-.677S410.48,76.93,410.48,77.331Zm4.027-1.12-2.917,7.4h-.5l2.917-7.4Zm1.194,3.91v2.325c0,.718-.327,1.194-1.057,1.194s-1.056-.476-1.056-1.194V80.121c0-.708.338-1.183,1.056-1.183S415.7,79.413,415.7,80.121Zm-1.585-.032v2.4c0,.4.159.676.528.676s.529-.275.529-.676v-2.4c0-.4-.159-.666-.529-.666S414.115,79.688,414.115,80.089Z" transform="translate(-401.489 -76.169)" fill="#263238"/>
                </g>
                <g id="Grupo_972282" data-name="Grupo 972282" transform="translate(167.145 32.146)">
                  <path id="Trazado_638571" data-name="Trazado 638571" d="M400.746,126.745c0,2.23-2.5,3.033-2.515,4.734v.116h2.43v.75h-3.244v-.634c0-2.389,2.5-2.854,2.5-4.935,0-.761-.253-1.162-.867-1.162s-.866.433-.866,1.088v.655h-.772v-.6c0-1.131.518-1.881,1.659-1.881S400.746,125.615,400.746,126.745Z" transform="translate(-397.417 -124.875)" fill="#263238"/>
                  <path id="Trazado_638572" data-name="Trazado 638572" d="M403.516,126.735c0-1.131.56-1.86,1.691-1.86s1.7.729,1.7,1.86v3.815c0,1.131-.56,1.87-1.7,1.87s-1.691-.739-1.691-1.87Zm.814,3.868c0,.665.285,1.067.877,1.067s.877-.4.877-1.067v-3.911c0-.676-.275-1.078-.877-1.078s-.877.4-.877,1.078Z" transform="translate(-399.491 -124.875)" fill="#263238"/>
                  <path id="Trazado_638573" data-name="Trazado 638573" d="M411.889,126.117v2.336c0,.719-.338,1.194-1.057,1.194s-1.057-.475-1.057-1.194v-2.336c0-.708.338-1.194,1.057-1.194S411.889,125.409,411.889,126.117Zm-1.585-.032v2.41c0,.4.148.666.529.666s.528-.264.528-.666v-2.41c0-.4-.158-.676-.528-.676S410.3,125.684,410.3,126.085Zm4.027-1.12-2.917,7.4h-.5l2.917-7.4Zm1.194,3.91V131.2c0,.719-.327,1.194-1.057,1.194s-1.057-.475-1.057-1.194v-2.325c0-.708.338-1.183,1.057-1.183S415.525,128.167,415.525,128.875Zm-1.585-.032v2.4c0,.4.159.676.529.676s.529-.275.529-.676v-2.4c0-.4-.159-.665-.529-.665S413.939,128.442,413.939,128.843Z" transform="translate(-401.619 -124.891)" fill="#263238"/>
                </g>
              </g>
            </g>
            <g id="Grupo_972286" data-name="Grupo 972286" transform="translate(45.574 76.588)">
              <rect id="Rectángulo_307467" data-name="Rectángulo 307467" width="4.782" height="4.782" transform="translate(43.733 7.465)" fill="#263238"/>
              <line id="Línea_901" data-name="Línea 901" x2="19.429" transform="translate(51.504 9.856)" fill="none" stroke="#263238" stroke-linejoin="round" stroke-width="1"/>
              <rect id="Rectángulo_307468" data-name="Rectángulo 307468" width="4.782" height="4.782" transform="translate(43.733 16.133)" fill="#449c6e"/>
              <line id="Línea_902" data-name="Línea 902" x2="19.429" transform="translate(51.504 18.524)" fill="none" stroke="#263238" stroke-linejoin="round" stroke-width="1"/>
              <rect id="Rectángulo_307469" data-name="Rectángulo 307469" width="4.782" height="4.782" transform="translate(43.733 24.801)" fill="#7d7d7d"/>
              <line id="Línea_903" data-name="Línea 903" x2="19.429" transform="translate(51.504 27.192)" fill="none" stroke="#263238" stroke-linejoin="round" stroke-width="1"/>
              <g id="Grupo_972285" data-name="Grupo 972285">
                <path id="Trazado_638574" data-name="Trazado 638574" d="M185.56,198.031a17.043,17.043,0,0,0,6.611-26.419" transform="translate(-161.891 -165.296)" fill="none" stroke="#449c6e" stroke-linejoin="round" stroke-width="7"/>
                <path id="Trazado_638575" data-name="Trazado 638575" d="M153.9,201.972a17.055,17.055,0,0,0,20.9,6.382" transform="translate(-151.125 -175.618)" fill="none" stroke="#7d7d7d" stroke-linejoin="round" stroke-width="7"/>
                <path id="Trazado_638576" data-name="Trazado 638576" d="M179.978,168.358A17.039,17.039,0,0,0,152.469,188.4" transform="translate(-149.698 -162.042)" fill="none" stroke="#263238" stroke-linejoin="round" stroke-width="7"/>
                <line id="Línea_904" data-name="Línea 904" x2="14.914" transform="translate(9.838 15.177)" fill="none" stroke="#263238" stroke-linejoin="round" stroke-width="1"/>
                <line id="Línea_905" data-name="Línea 905" x2="14.914" transform="translate(9.838 19.584)" fill="none" stroke="#263238" stroke-linejoin="round" stroke-width="1"/>
              </g>
            </g>
            <g id="Grupo_972300" data-name="Grupo 972300" transform="translate(203.53 75.425)">
              <g id="Grupo_972287" data-name="Grupo 972287" transform="translate(1.058 14.869)">
                <line id="Línea_906" data-name="Línea 906" x2="19.613" fill="none" stroke="#263238" stroke-linecap="round" stroke-linejoin="round" stroke-width="1"/>
                <line id="Línea_907" data-name="Línea 907" x2="19.613" transform="translate(0 2.251)" fill="none" stroke="#263238" stroke-linecap="round" stroke-linejoin="round" stroke-width="1"/>
              </g>
              <path id="Trazado_638577" data-name="Trazado 638577" d="M408.109,164.652a10.55,10.55,0,0,0-19.085,6.2h21.1A10.111,10.111,0,0,0,408.109,164.652Z" transform="translate(-389.024 -160.28)" fill="#449c6e"/>
              <g id="Grupo_972298" data-name="Grupo 972298">
                <g id="Grupo_972289" data-name="Grupo 972289" transform="translate(10.55 4.373)">
                  <g id="Grupo_972288" data-name="Grupo 972288">
                    <path id="Trazado_638578" data-name="Trazado 638578" d="M405.009,173.106l8.535-6.2a10.111,10.111,0,0,1,2.015,6.2Z" transform="translate(-405.009 -166.905)" fill="none" stroke="#fff" stroke-linecap="round" stroke-linejoin="round" stroke-width="0.5"/>
                  </g>
                </g>
                <g id="Grupo_972291" data-name="Grupo 972291" transform="translate(10.55 0.54)">
                  <g id="Grupo_972290" data-name="Grupo 972290">
                    <path id="Trazado_638579" data-name="Trazado 638579" d="M405.009,171.132l3.26-10.034a10.108,10.108,0,0,1,5.275,3.833Z" transform="translate(-405.009 -161.098)" fill="none" stroke="#fff" stroke-linecap="round" stroke-linejoin="round" stroke-width="0.5"/>
                  </g>
                </g>
                <g id="Grupo_972293" data-name="Grupo 972293" transform="translate(7.29)">
                  <g id="Grupo_972292" data-name="Grupo 972292">
                    <path id="Trazado_638580" data-name="Trazado 638580" d="M403.329,170.854l-3.26-10.034a10.11,10.11,0,0,1,6.52,0Z" transform="translate(-400.069 -160.28)" fill="none" stroke="#fff" stroke-linecap="round" stroke-linejoin="round" stroke-width="0.5"/>
                  </g>
                </g>
                <g id="Grupo_972295" data-name="Grupo 972295" transform="translate(2.014 0.54)">
                  <g id="Grupo_972294" data-name="Grupo 972294">
                    <path id="Trazado_638581" data-name="Trazado 638581" d="M400.612,171.132l-8.536-6.2a10.108,10.108,0,0,1,5.275-3.833Z" transform="translate(-392.076 -161.098)" fill="none" stroke="#fff" stroke-linecap="round" stroke-linejoin="round" stroke-width="0.5"/>
                  </g>
                </g>
                <g id="Grupo_972297" data-name="Grupo 972297" transform="translate(0 4.373)">
                  <g id="Grupo_972296" data-name="Grupo 972296">
                    <path id="Trazado_638582" data-name="Trazado 638582" d="M399.574,173.106h-10.55a10.111,10.111,0,0,1,2.014-6.2Z" transform="translate(-389.024 -166.905)" fill="none" stroke="#fff" stroke-linecap="round" stroke-linejoin="round" stroke-width="0.5"/>
                  </g>
                </g>
              </g>
              <g id="Grupo_972299" data-name="Grupo 972299" transform="translate(9.274 4.258)">
                <path id="Trazado_638583" data-name="Trazado 638583" d="M405.628,175.643a1.276,1.276,0,1,0-1.276,1.276A1.277,1.277,0,0,0,405.628,175.643Z" transform="translate(-403.075 -169.328)" fill="#263238"/>
                <line id="Línea_908" data-name="Línea 908" y1="6.316" x2="4.334" transform="translate(1.276)" fill="none" stroke="#263238" stroke-linecap="round" stroke-linejoin="round" stroke-width="1"/>
              </g>
            </g>
            <g id="Grupo_972314" data-name="Grupo 972314" transform="translate(203.53 96.546)">
              <g id="Grupo_972301" data-name="Grupo 972301" transform="translate(1.058 14.869)">
                <line id="Línea_909" data-name="Línea 909" x2="19.613" fill="none" stroke="#263238" stroke-linecap="round" stroke-linejoin="round" stroke-width="1"/>
                <line id="Línea_910" data-name="Línea 910" x2="19.613" transform="translate(0 2.251)" fill="none" stroke="#263238" stroke-linecap="round" stroke-linejoin="round" stroke-width="1"/>
              </g>
              <path id="Trazado_638584" data-name="Trazado 638584" d="M408.109,196.654a10.55,10.55,0,0,0-19.085,6.2h21.1A10.111,10.111,0,0,0,408.109,196.654Z" transform="translate(-389.024 -192.282)" fill="#449c6e"/>
              <g id="Grupo_972312" data-name="Grupo 972312">
                <g id="Grupo_972303" data-name="Grupo 972303" transform="translate(10.55 4.373)">
                  <g id="Grupo_972302" data-name="Grupo 972302">
                    <path id="Trazado_638585" data-name="Trazado 638585" d="M405.009,205.108l8.535-6.2a10.111,10.111,0,0,1,2.015,6.2Z" transform="translate(-405.009 -198.907)" fill="none" stroke="#fff" stroke-linecap="round" stroke-linejoin="round" stroke-width="0.5"/>
                  </g>
                </g>
                <g id="Grupo_972305" data-name="Grupo 972305" transform="translate(10.55 0.54)">
                  <g id="Grupo_972304" data-name="Grupo 972304">
                    <path id="Trazado_638586" data-name="Trazado 638586" d="M405.009,203.134l3.26-10.034a10.108,10.108,0,0,1,5.275,3.833Z" transform="translate(-405.009 -193.1)" fill="none" stroke="#fff" stroke-linecap="round" stroke-linejoin="round" stroke-width="0.5"/>
                  </g>
                </g>
                <g id="Grupo_972307" data-name="Grupo 972307" transform="translate(7.29)">
                  <g id="Grupo_972306" data-name="Grupo 972306">
                    <path id="Trazado_638587" data-name="Trazado 638587" d="M403.329,202.856l-3.26-10.034a10.11,10.11,0,0,1,6.52,0Z" transform="translate(-400.069 -192.282)" fill="none" stroke="#fff" stroke-linecap="round" stroke-linejoin="round" stroke-width="0.5"/>
                  </g>
                </g>
                <g id="Grupo_972309" data-name="Grupo 972309" transform="translate(2.014 0.54)">
                  <g id="Grupo_972308" data-name="Grupo 972308">
                    <path id="Trazado_638588" data-name="Trazado 638588" d="M400.612,203.134l-8.536-6.2a10.108,10.108,0,0,1,5.275-3.833Z" transform="translate(-392.076 -193.1)" fill="none" stroke="#fff" stroke-linecap="round" stroke-linejoin="round" stroke-width="0.5"/>
                  </g>
                </g>
                <g id="Grupo_972311" data-name="Grupo 972311" transform="translate(0 4.373)">
                  <g id="Grupo_972310" data-name="Grupo 972310">
                    <path id="Trazado_638589" data-name="Trazado 638589" d="M399.574,205.108h-10.55a10.11,10.11,0,0,1,2.014-6.2Z" transform="translate(-389.024 -198.907)" fill="none" stroke="#fff" stroke-linecap="round" stroke-linejoin="round" stroke-width="0.5"/>
                  </g>
                </g>
              </g>
              <g id="Grupo_972313" data-name="Grupo 972313" transform="translate(6.31 4.572)">
                <path id="Trazado_638590" data-name="Trazado 638590" d="M405.628,207.645a1.276,1.276,0,1,0-1.276,1.276A1.277,1.277,0,0,0,405.628,207.645Z" transform="translate(-400.111 -201.643)" fill="#263238"/>
                <line id="Línea_911" data-name="Línea 911" x1="4.24" y1="6.002" fill="none" stroke="#263238" stroke-linecap="round" stroke-linejoin="round" stroke-width="1"/>
              </g>
            </g>
            <g id="Grupo_972328" data-name="Grupo 972328" transform="translate(203.53 117.668)">
              <g id="Grupo_972315" data-name="Grupo 972315" transform="translate(0.428 14.869)">
                <line id="Línea_912" data-name="Línea 912" x1="19.613" fill="none" stroke="#263238" stroke-linecap="round" stroke-linejoin="round" stroke-width="1"/>
                <line id="Línea_913" data-name="Línea 913" x1="19.613" transform="translate(0 2.251)" fill="none" stroke="#263238" stroke-linecap="round" stroke-linejoin="round" stroke-width="1"/>
              </g>
              <path id="Trazado_638591" data-name="Trazado 638591" d="M391.039,228.656a10.55,10.55,0,0,1,19.085,6.2h-21.1A10.108,10.108,0,0,1,391.039,228.656Z" transform="translate(-389.024 -224.284)" fill="#449c6e"/>
              <g id="Grupo_972326" data-name="Grupo 972326">
                <g id="Grupo_972317" data-name="Grupo 972317" transform="translate(0 4.373)">
                  <g id="Grupo_972316" data-name="Grupo 972316">
                    <path id="Trazado_638592" data-name="Trazado 638592" d="M399.574,237.11l-8.536-6.2a10.112,10.112,0,0,0-2.014,6.2Z" transform="translate(-389.024 -230.909)" fill="none" stroke="#fff" stroke-linecap="round" stroke-linejoin="round" stroke-width="0.5"/>
                  </g>
                </g>
                <g id="Grupo_972319" data-name="Grupo 972319" transform="translate(2.014 0.54)">
                  <g id="Grupo_972318" data-name="Grupo 972318">
                    <path id="Trazado_638593" data-name="Trazado 638593" d="M400.612,235.136l-3.26-10.034a10.114,10.114,0,0,0-5.275,3.833Z" transform="translate(-392.076 -225.102)" fill="none" stroke="#fff" stroke-linecap="round" stroke-linejoin="round" stroke-width="0.5"/>
                  </g>
                </g>
                <g id="Grupo_972321" data-name="Grupo 972321" transform="translate(7.29)">
                  <g id="Grupo_972320" data-name="Grupo 972320">
                    <path id="Trazado_638594" data-name="Trazado 638594" d="M403.329,234.858l3.26-10.034a10.11,10.11,0,0,0-6.52,0Z" transform="translate(-400.069 -224.284)" fill="none" stroke="#fff" stroke-linecap="round" stroke-linejoin="round" stroke-width="0.5"/>
                  </g>
                </g>
                <g id="Grupo_972323" data-name="Grupo 972323" transform="translate(10.55 0.54)">
                  <g id="Grupo_972322" data-name="Grupo 972322">
                    <path id="Trazado_638595" data-name="Trazado 638595" d="M405.009,235.136l8.535-6.2a10.111,10.111,0,0,0-5.275-3.833Z" transform="translate(-405.009 -225.102)" fill="none" stroke="#fff" stroke-linecap="round" stroke-linejoin="round" stroke-width="0.5"/>
                  </g>
                </g>
                <g id="Grupo_972325" data-name="Grupo 972325" transform="translate(10.55 4.373)">
                  <g id="Grupo_972324" data-name="Grupo 972324">
                    <path id="Trazado_638596" data-name="Trazado 638596" d="M405.009,237.11h10.55a10.112,10.112,0,0,0-2.015-6.2Z" transform="translate(-405.009 -230.909)" fill="none" stroke="#fff" stroke-linecap="round" stroke-linejoin="round" stroke-width="0.5"/>
                  </g>
                </g>
              </g>
              <g id="Grupo_972327" data-name="Grupo 972327" transform="translate(2.786 7.458)">
                <path id="Trazado_638597" data-name="Trazado 638597" d="M403.074,239.647a1.277,1.277,0,1,1,1.277,1.276A1.277,1.277,0,0,1,403.074,239.647Z" transform="translate(-396.587 -236.531)" fill="#263238"/>
                <line id="Línea_914" data-name="Línea 914" x1="7.764" y1="3.116" fill="none" stroke="#263238" stroke-linecap="round" stroke-linejoin="round" stroke-width="1"/>
              </g>
            </g>
            <g id="Grupo_972342" data-name="Grupo 972342" transform="translate(203.53 138.789)">
              <g id="Grupo_972329" data-name="Grupo 972329" transform="translate(1.058 14.869)">
                <line id="Línea_915" data-name="Línea 915" x2="19.613" fill="none" stroke="#263238" stroke-linecap="round" stroke-linejoin="round" stroke-width="1"/>
                <line id="Línea_916" data-name="Línea 916" x2="19.613" transform="translate(0 2.251)" fill="none" stroke="#263238" stroke-linecap="round" stroke-linejoin="round" stroke-width="1"/>
              </g>
              <path id="Trazado_638598" data-name="Trazado 638598" d="M408.109,260.658a10.55,10.55,0,0,0-19.085,6.2h21.1A10.113,10.113,0,0,0,408.109,260.658Z" transform="translate(-389.024 -256.286)" fill="#449c6e"/>
              <g id="Grupo_972340" data-name="Grupo 972340" transform="translate(0 0)">
                <g id="Grupo_972331" data-name="Grupo 972331" transform="translate(10.55 4.373)">
                  <g id="Grupo_972330" data-name="Grupo 972330">
                    <path id="Trazado_638599" data-name="Trazado 638599" d="M405.009,269.112l8.535-6.2a10.112,10.112,0,0,1,2.015,6.2Z" transform="translate(-405.009 -262.911)" fill="none" stroke="#fff" stroke-linecap="round" stroke-linejoin="round" stroke-width="0.5"/>
                  </g>
                </g>
                <g id="Grupo_972333" data-name="Grupo 972333" transform="translate(10.55 0.54)">
                  <g id="Grupo_972332" data-name="Grupo 972332">
                    <path id="Trazado_638600" data-name="Trazado 638600" d="M405.009,267.138l3.26-10.034a10.112,10.112,0,0,1,5.275,3.833Z" transform="translate(-405.009 -257.104)" fill="none" stroke="#fff" stroke-linecap="round" stroke-linejoin="round" stroke-width="0.5"/>
                  </g>
                </g>
                <g id="Grupo_972335" data-name="Grupo 972335" transform="translate(7.29)">
                  <g id="Grupo_972334" data-name="Grupo 972334">
                    <path id="Trazado_638601" data-name="Trazado 638601" d="M403.329,266.86l-3.26-10.034a10.109,10.109,0,0,1,6.52,0Z" transform="translate(-400.069 -256.286)" fill="none" stroke="#fff" stroke-linecap="round" stroke-linejoin="round" stroke-width="0.5"/>
                  </g>
                </g>
                <g id="Grupo_972337" data-name="Grupo 972337" transform="translate(2.014 0.54)">
                  <g id="Grupo_972336" data-name="Grupo 972336">
                    <path id="Trazado_638602" data-name="Trazado 638602" d="M400.612,267.138l-8.536-6.2a10.112,10.112,0,0,1,5.275-3.833Z" transform="translate(-392.076 -257.104)" fill="none" stroke="#fff" stroke-linecap="round" stroke-linejoin="round" stroke-width="0.5"/>
                  </g>
                </g>
                <g id="Grupo_972339" data-name="Grupo 972339" transform="translate(0 4.373)">
                  <g id="Grupo_972338" data-name="Grupo 972338">
                    <path id="Trazado_638603" data-name="Trazado 638603" d="M399.574,269.112h-10.55a10.112,10.112,0,0,1,2.014-6.2Z" transform="translate(-389.024 -262.911)" fill="none" stroke="#fff" stroke-linecap="round" stroke-linejoin="round" stroke-width="0.5"/>
                  </g>
                </g>
              </g>
              <g id="Grupo_972341" data-name="Grupo 972341" transform="translate(0.951 9.298)">
                <path id="Trazado_638604" data-name="Trazado 638604" d="M405.628,271.649a1.276,1.276,0,1,0-1.276,1.276A1.277,1.277,0,0,0,405.628,271.649Z" transform="translate(-394.752 -270.373)" fill="#263238"/>
                <line id="Línea_917" data-name="Línea 917" x1="9.599" y1="0.016" transform="translate(0 1.261)" fill="none" stroke="#263238" stroke-linecap="round" stroke-linejoin="round" stroke-width="1"/>
              </g>
            </g>
          </g>
        </g>
      </g>
      <g id="Character_2" data-name="Character 2" transform="translate(267.166 136.823)">
        <g id="Grupo_972350" data-name="Grupo 972350" transform="translate(0 0)">
          <g id="Grupo_972345" data-name="Grupo 972345" transform="translate(6.115 9.536)">
            <path id="Trazado_638605" data-name="Trazado 638605" d="M418.235,230.519a18.529,18.529,0,0,0-2.518,3.777c-.54,1.439-.9,3.417-1.619,4.5s-3.238.719-3.238,2.338a7.973,7.973,0,0,0,1.08,3.417s.54,5.216,1.259,6.475,8.273,0,8.273,0,2.878-4.316,2.878-8.813S421.113,230.879,418.235,230.519Z" transform="translate(-410.86 -230.519)" fill="#fff" stroke="#263238" stroke-miterlimit="10" stroke-width="1"/>
            <path id="Trazado_638606" data-name="Trazado 638606" d="M417.837,240.214c-.072.642-.331,1.139-.578,1.112s-.388-.571-.316-1.212.331-1.14.578-1.112S417.909,239.572,417.837,240.214Z" transform="translate(-411.904 -231.979)" fill="#263238"/>
            <path id="Trazado_638607" data-name="Trazado 638607" d="M417.6,236.593s1.979-.54,1.979,1.979" transform="translate(-412.02 -231.556)" fill="none" stroke="#263238" stroke-miterlimit="10" stroke-width="1"/>
          </g>
          <g id="Grupo_972346" data-name="Grupo 972346" transform="translate(17.987 133.285)">
            <path id="Trazado_638608" data-name="Trazado 638608" d="M437.611,380l-.719,14.929s4.856,8.814,5.036,17.088,3.957,27.7,3.957,27.7l.719,11.151-1.8.18-1.44-2.878s-.719,3.058-1.259,3.058-4.856-.36-5.036-1.619-.54-1.979.54-2.158,4.137-7.374,4.137-7.374-7.554-17.447-8.994-20.864a82.648,82.648,0,0,1-2.878-8.994s-1.079-5.936-2.338-12.051S425.2,380.9,425.2,380.9Z" transform="translate(-425.2 -380.001)" fill="#fff" stroke="#263238" stroke-miterlimit="10" stroke-width="1"/>
            <path id="Trazado_638609" data-name="Trazado 638609" d="M444.174,452.3c-.9,2.7-2.339,6.835-2.339,6.835l-1.8.54c-1.08.18-.719.9-.54,2.158s4.5,1.619,5.036,1.619,1.259-3.058,1.259-3.058l1.44,2.878,1.8-.18-.719-11.151S445.073,449.6,444.174,452.3Z" transform="translate(-427.626 -392.223)" fill="#263238" stroke="#263238" stroke-miterlimit="10" stroke-width="1"/>
          </g>
          <g id="Grupo_972347" data-name="Grupo 972347" transform="translate(5.396 125.191)">
            <path id="Trazado_638610" data-name="Trazado 638610" d="M411.25,377.059s.18,4.856,1.439,7.195,2.518,10.432,2.518,10.432-.18,12.771,1.8,19.066,4.677,26.8,4.677,26.8-5.4,6.475-6.115,7.195-4.857,2.518-3.957,3.238,5.936,1.259,7.554,1.08,6.835-3.957,7.375-4.317.719,4.676.719,4.676h2.158l.54-7.554a10.31,10.31,0,0,0-.18-3.957,22.256,22.256,0,0,0-1.8-3.058l.9-22.484s1.439-7.554.359-12.59-2.518-13.131-2.518-13.131l.719-10.792.54-7.015s-2.158-1.618-7.554-1.618a67.308,67.308,0,0,0-10.433.9Z" transform="translate(-409.991 -370.224)" fill="#fff" stroke="#263238" stroke-miterlimit="10" stroke-width="1"/>
            <path id="Trazado_638611" data-name="Trazado 638611" d="M430.267,459.066a10.31,10.31,0,0,0-.18-3.957,18.158,18.158,0,0,0-1.366-2.413,15.184,15.184,0,0,0-3.49,2.953c-1.44,1.8-4.5,5.576-6.116,6.475a9.546,9.546,0,0,1-4.384.586c-1.423.838-3.47,1.945-2.81,2.472.9.719,5.936,1.259,7.554,1.08s6.835-3.957,7.375-4.317.719,4.677.719,4.677h2.158Z" transform="translate(-410.301 -384.422)" fill="#263238" stroke="#263238" stroke-miterlimit="10" stroke-width="1"/>
          </g>
          <path id="Trazado_638612" data-name="Trazado 638612" d="M406.361,331.243s-.9,14.03-.719,21.224,1.079,18.886,1.079,18.886,3.238,1.08,5.216,1.619a12.568,12.568,0,0,0,2.878.54l2.338-4.138,1.619,4.5s3.777.359,8.633.359,9.354-2.158,9.713-2.7a13.618,13.618,0,0,1,1.259-1.439l-1.618-17.087s3.237-8.454,3.417-12.77S438.2,330.7,438.2,330.7s-8.454,2.7-15.289,1.439-16.368-3.417-16.368-3.417Z" transform="translate(-403.842 -237.889)" fill="#449c6e" stroke="#263238" stroke-miterlimit="10" stroke-width="1"/>
          <path id="Trazado_638613" data-name="Trazado 638613" d="M441.721,294.892s3.417,14.929,3.238,17.087-4.137,8.814-4.137,8.814-4.317-7.914-5.037-12.411,0-7.914.9-9.533,3.417-5.756,3.417-5.756Z" transform="translate(-408.985 -231.755)" fill="#449c6e" stroke="#263238" stroke-miterlimit="10" stroke-width="1"/>
          <path id="Trazado_638614" data-name="Trazado 638614" d="M413.545,274.033s-6.655,11.511-6.655,14.569.18,15.108-.9,18.706-2.518,13.849-2.518,13.849,2.518,3.418,11.692,4.677,20.325-2.7,21.4-3.057a26.745,26.745,0,0,0,3.057-1.439l1.08-.36s-3.417-6.115-4.856-8.993-4.317-7.555-3.6-11.512,4.857-10.252,6.655-16.008,1.08-13.13-1.618-16.728-13.31-3.6-17.987-.9A12.493,12.493,0,0,0,413.545,274.033Z" transform="translate(-403.473 -226.904)" fill="#449c6e" stroke="#263238" stroke-miterlimit="10" stroke-width="1"/>
          <path id="Trazado_638615" data-name="Trazado 638615" d="M421.3,220.117c-2.863,1.239-5.114,3.487-4.357,6.621,1.259,5.216,5.037,8.634,5.037,13.13s-2.159,13.31-5.216,16.728-5.576,14.389-2.878,14.749,1.8-4.138,5.576-7.555,8.813-.719,10.072,4.317-.9,9.533,1.8,12.77,8.993,1.979,11.332-1.979.359-7.375,1.8-8.994,4.676-4.316,3.6-8.453-7.914-4.856-7.195-10.433,4.856-12.95,3.057-17.447-5.215-9.713-8.094-11.692a18.987,18.987,0,0,0-8.2-2.819A13.053,13.053,0,0,0,421.3,220.117Z" transform="translate(-405.067 -219)" fill="#263238" stroke="#263238" stroke-miterlimit="10" stroke-width="1"/>
          <g id="Grupo_972349" data-name="Grupo 972349" transform="translate(0.36 43.7)">
            <g id="Grupo_972348" data-name="Grupo 972348" transform="translate(0 56.13)">
              <path id="Trazado_638616" data-name="Trazado 638616" d="M407.865,339.589s-3.417,7.014-3.6,8.094-.359,8.993-.359,8.993.9,2.7,1.439,3.058,1.259-.18,1.259-1.439v-1.8s1.079-2.338,1.979-4.137.54-6.3.54-6.3L412,341.207Z" transform="translate(-403.908 -339.589)" fill="#fff" stroke="#263238" stroke-miterlimit="10" stroke-width="1"/>
              <path id="Trazado_638617" data-name="Trazado 638617" d="M406.95,341.927l4.5,3.058,1.8-3.777-4.856-1.619Z" transform="translate(-404.432 -339.589)" fill="#fff" stroke="#263238" stroke-miterlimit="10" stroke-width="1"/>
            </g>
            <path id="Trazado_638618" data-name="Trazado 638618" d="M428.106,279.532s-2.7-8.094-7.735-7.734-6.295,11.691-6.295,16.367.719,22.3.719,22.3L407.6,327.917l5.216,3.238s12.051-17.987,12.411-18.887,1.439-24.461,1.439-24.461" transform="translate(-404.544 -271.787)" fill="#449c6e" stroke="#263238" stroke-miterlimit="10" stroke-width="1"/>
          </g>
        </g>
      </g>
      <g id="Character_1" data-name="Character 1" transform="translate(173.92 134.117)">
        <g id="Grupo_972353" data-name="Grupo 972353" transform="translate(0 0)">
          <path id="Trazado_638619" data-name="Trazado 638619" d="M352.274,239.921s2.332-.18,1.615,1.794-1.974,3.229-2.87,3.408a8.158,8.158,0,0,1-1.435.179Z" transform="translate(-300.95 -219.895)" fill="none" stroke="#263238" stroke-miterlimit="10" stroke-width="1"/>
          <path id="Trazado_638620" data-name="Trazado 638620" d="M329.051,238.838s-2.152.359-1.794,1.974,1.614,4.3,2.332,4.484,1.794-.9,1.794-.9Z" transform="translate(-297.099 -219.71)" fill="#fff" stroke="#263238" stroke-miterlimit="10" stroke-width="1"/>
          <path id="Trazado_638621" data-name="Trazado 638621" d="M292.755,295.233s2.518-6.295,3.777-7.554,3.238-5.756,3.238-5.756l1.8,5.756-8.274,9.173S292.574,297.032,292.755,295.233Z" transform="translate(-291.162 -227.127)" fill="#fff" stroke="#263238" stroke-miterlimit="10" stroke-width="1"/>
          <path id="Trazado_638622" data-name="Trazado 638622" d="M295.292,266.523l4.473,18.2a1.9,1.9,0,0,0,2.415,1.36l10.886-3.412a1.9,1.9,0,0,0,1.277-2.269l-4.37-17.747a1.9,1.9,0,0,0-2.341-1.381l-10.989,2.962A1.9,1.9,0,0,0,295.292,266.523Z" transform="translate(-291.594 -223.56)" fill="#263238" stroke="#263238" stroke-miterlimit="10" stroke-width="1"/>
          <path id="Trazado_638623" data-name="Trazado 638623" d="M332.862,247.289l-.179,9.148,12.736,1.256-.359-8.969Z" transform="translate(-298.04 -221.164)" fill="#fff" stroke="#263238" stroke-miterlimit="10" stroke-width="1"/>
          <path id="Trazado_638624" data-name="Trazado 638624" d="M333.294,218s-5.023,3.587-6.1,7.354.718,8.79,1.435,10.225,3.049,7.713,3.946,8.789,5.023,2.87,6.457,2.512,5.92-.9,6.458-2.691,3.408-8.61,3.767-9.687,1.435-8.789.358-10.4a53,53,0,0,0-4.484-5.023,8.3,8.3,0,0,0-5.023-3.229C336.7,215.129,333.294,218,333.294,218Z" transform="translate(-297.038 -215.732)" fill="#263238" stroke="#263238" stroke-miterlimit="10" stroke-width="1"/>
          <path id="Trazado_638625" data-name="Trazado 638625" d="M326.063,259.723a8.393,8.393,0,0,1,7.175-3.767c5.023,0,9.865.18,11.121.538s3.587,4.844,3.587,4.844-12.914-.9-16.5-.9a50.994,50.994,0,0,0-7,.538Z" transform="translate(-296.623 -222.656)" fill="#fff" stroke="#263238" stroke-miterlimit="10" stroke-width="1"/>
          <g id="Grupo_972351" data-name="Grupo 972351" transform="translate(53.031 13.503)">
            <path id="Trazado_638626" data-name="Trazado 638626" d="M358.211,245.92a34.641,34.641,0,0,1-3.049-3.946,2.582,2.582,0,0,1,.359-2.87,4.864,4.864,0,0,1,1.435-.538,48.831,48.831,0,0,0,.358-5.74c-.18-.718.538-.9,1.435-.718S360,236.413,360,236.413a6.011,6.011,0,0,1,2.332,1.435c1.076,1.076,1.256,3.408,1.256,4.126v2.87l.359,2.511-5.023,1.256Z" transform="translate(-354.895 -232.043)" fill="#fff" stroke="#263238" stroke-miterlimit="10" stroke-width="1"/>
            <path id="Trazado_638627" data-name="Trazado 638627" d="M360.41,264.015s-1.076-12.736-1.076-13.453,1.435-1.973,2.87-1.973a5.013,5.013,0,0,1,2.87,1.435s5.2,15.247,6.278,16.683,3.229,7.354,3.229,9.148-6.457-.179-8.251-1.794-5.381-8.251-5.381-8.251Z" transform="translate(-355.66 -234.892)" fill="#fff" stroke="#263238" stroke-miterlimit="10" stroke-width="1"/>
          </g>
          <path id="Trazado_638628" data-name="Trazado 638628" d="M314.678,326.494,313.06,344.3s-1.619,41.55-1.619,44.427.54,23.562,1.259,28.958a134.418,134.418,0,0,1,.54,15.109s-2.158,1.08-2.158,2.158v1.979a27.861,27.861,0,0,0-3.6,2.518c-.9.9-1.979,2.878-.719,3.957s10.253,4.677,11.511,4.677,4.5-.54,5.216-1.8.18-7.014.18-7.014,1.619-2.518,1.619-3.417-.18-2.158-.18-3.6.719-18.166.719-18.166,2.517-35.074,2.878-35.613,1.979-25,1.979-25l3.058.36,4.137,30.038s5.576,28.059,5.755,28.958,2.878,15.829,2.878,15.829v4.676c0,1.439,1.8,4.316,1.8,4.316s-.359,4.5.54,6.116,4.5,1.8,7.195.9,2.158-4.5,2.158-6.295-.18-3.6-.18-3.6a34.187,34.187,0,0,1,0-4.5c.18-1.8-1.439-7.014-1.439-7.913s.54-22.663.18-27.341-3.417-19.426-3.417-19.426-1.8-27.7-1.8-28.419.07-19.86.07-19.86-7.264,1.873-19.5.614-17.627-2.339-17.627-2.339Z" transform="translate(-293.48 -234.644)" fill="#263238" stroke="#263238" stroke-miterlimit="10" stroke-width="1"/>
          <g id="Grupo_972352" data-name="Grupo 972352" transform="translate(0 37.844)">
            <path id="Trazado_638629" data-name="Trazado 638629" d="M318.662,261.924s-12.914,5.2-12.376,5.92-6.1,13.274-6.638,13.992-7,8.968-7.713,10.583-2.152,3.767.18,6.278,3.408,3.408,6.637,2.87,11.481-9.865,11.481-9.865.358,11.659.538,14.709.179,3.945.179,5.561-.9,2.511,1.256,4.485,11.3,4.484,17.758,4.125,11.659-.358,14.171-1.076,4.484-1.076,4.843-3.229a95.9,95.9,0,0,0,.538-9.865c0-1.794,1.076-20.45,1.076-20.45s5.74.538,8.431,0,4.484-5.561,3.767-7.893-3.587-4.125-5.023-5.561-2.331-3.408-4.3-5.561a6.419,6.419,0,0,0-4.484-2.511c-1.614-.359-6.817-2.152-6.817-2.152S329.246,260.668,318.662,261.924Z" transform="translate(-290.837 -261.445)" fill="#fff" stroke="#263238" stroke-miterlimit="10" stroke-width="1"/>
            <path id="Trazado_638630" data-name="Trazado 638630" d="M338.779,324.371a73.613,73.613,0,0,0,7.962-7.224" transform="translate(-299.09 -271.034)" fill="none" stroke="#263238" stroke-miterlimit="10" stroke-width="1"/>
            <path id="Trazado_638631" data-name="Trazado 638631" d="M334.1,329.349s.554-.423,1.431-1.113" transform="translate(-298.284 -272.943)" fill="none" stroke="#263238" stroke-miterlimit="10" stroke-width="1"/>
            <line id="Línea_918" data-name="Línea 918" y1="3.603" x2="4.117" transform="translate(44.564 50.23)" fill="none" stroke="#263238" stroke-miterlimit="10" stroke-width="1"/>
            <line id="Línea_919" data-name="Línea 919" x1="3.049" y1="17.938" transform="translate(16.345 12.317)" fill="none" stroke="#263238" stroke-miterlimit="10" stroke-width="1"/>
            <line id="Línea_920" data-name="Línea 920" x2="4.484" y2="6.278" transform="translate(13.475 15.008)" fill="none" stroke="#263238" stroke-miterlimit="10" stroke-width="1"/>
            <path id="Trazado_638632" data-name="Trazado 638632" d="M326.615,264.623a50.879,50.879,0,0,1,9.866,16.324" transform="translate(-296.996 -261.992)" fill="none" stroke="#263238" stroke-miterlimit="10" stroke-width="1"/>
            <path id="Trazado_638633" data-name="Trazado 638633" d="M334.849,271.557s3.946,7,5.023,9.507" transform="translate(-298.413 -263.186)" fill="none" stroke="#263238" stroke-miterlimit="10" stroke-width="1"/>
            <path id="Trazado_638634" data-name="Trazado 638634" d="M364.751,267.657s1.256,5.74,1.435,6.457" transform="translate(-303.561 -262.515)" fill="none" stroke="#263238" stroke-miterlimit="10" stroke-width="1"/>
            <path id="Trazado_638635" data-name="Trazado 638635" d="M366.246,281.524c-.359,1.794-3.229,7.893-3.229,7.893s4.484-5.2,4.844-5.74" transform="translate(-303.263 -264.902)" fill="none" stroke="#263238" stroke-miterlimit="10" stroke-width="1"/>
          </g>
        </g>
      </g>
    </g>
  </g>
</svg>
