<svg xmlns="http://www.w3.org/2000/svg" width="82" height="82" viewBox="0 0 82 82">
  <g id="_42" data-name="42" transform="translate(-303 -3929)">
    <g id="Grupo_951854" data-name="Grupo 951854" transform="translate(303 3929)">
      <path id="Trazado_621807" data-name="Trazado 621807" d="M41,0A41,41,0,1,1,0,41,41,41,0,0,1,41,0Z" fill="#ef8b53"/>
    </g>
    <g id="Grupo_1099424" data-name="Grupo 1099424" transform="translate(-924.666 3648.333)">
      <path id="Trazado_641937" data-name="Trazado 641937" d="M1281.1,290.855l15.955,14.344v51.3a3.417,3.417,0,0,1-3.417,3.417h-47.095a3.417,3.417,0,0,1-3.417-3.417V293.459a3.417,3.417,0,0,1,3.5-3.416Z" transform="translate(-1.918 -3.317)" fill="#f6f8f9"/>
      <path id="Trazado_641938" data-name="Trazado 641938" d="M1298.76,337.069a1.153,1.153,0,0,1,.989,1.322c-.021,1.108-.048,2.22,0,3.326a4.872,4.872,0,0,1-2.17,4.624c.721.741,1.417,1.467,2.126,2.181a1.937,1.937,0,0,1,.4,2.826q-1.549,2.693-3.1,5.382c-.762,1.314-1.747,1.546-2.977.665-.242-.173-.374-.088-.554.006a5.04,5.04,0,0,1-2.387.522q-14.082-.011-28.163,0a2.92,2.92,0,0,1-.565-.016,1,1,0,0,1-.9-1.089.99.99,0,0,1,.913-1,4.3,4.3,0,0,1,.706-.015h27.526c.259,0,.518-.014.777-.022a3.749,3.749,0,0,0,.553-.057c.833-.209.856-.27.44-.991q-.968-1.676-1.936-3.352a1.913,1.913,0,0,1,.361-2.819q.725-.721,1.456-1.437c.7-.693.7-.692-.141-1.259l0,0a5.42,5.42,0,0,1-1.487-4.04c.035-9.192.016-18.385.019-27.577,0-.353.069-.681-.464-.762a.9.9,0,0,1-.745-.985.946.946,0,0,1,.818-1.005c.358-.056.4-.222.395-.515-.011-.966,0-1.933-.005-2.9a1.64,1.64,0,0,1,.824-1.538.65.65,0,0,0,.338-.685c-.01-.9.049-1.8-.025-2.685-.036-.439.481-.984-.008-1.25-.359-.2-.918-.024-1.389-.016l-5.73-.027a4.6,4.6,0,0,1-4.872-4.875c-.005-2.949-.014-5.9.012-8.848,0-.5-.119-.617-.616-.616q-16.949.023-33.9.013a2.506,2.506,0,0,0-2.706,2.749q-.009,6.229,0,12.458a4.372,4.372,0,0,1-.024.706.962.962,0,0,1-.9.853,1,1,0,0,1-1.085-.614,1.978,1.978,0,0,1-.113-.9q0-6.158,0-12.317a4.657,4.657,0,0,1,5.061-5.059q17.374,0,34.747-.015a2.32,2.32,0,0,1,1.8.761q6.556,6.605,13.149,13.176a2.029,2.029,0,0,0,.94.567,3.37,3.37,0,0,1,2.442,3.271c.018.9.013,1.793,0,2.69a.666.666,0,0,0,.352.68,1.682,1.682,0,0,1,.806,1.554c-.008.944.016,1.888-.01,2.831-.011.392.1.513.505.523,2.44.061,3.577,1.258,3.577,3.722q0,6.017,0,12.034a1.977,1.977,0,0,1-.118.9.993.993,0,0,1-1.088.612.973.973,0,0,1-.9-.863,4.692,4.692,0,0,1-.023-.706q0-6.017,0-12.034a3.327,3.327,0,0,0-.042-.7c-.148-.669-.655-.941-1.557-.849-.718.074-.33.631-.331.928q-.039,9.343-.012,18.687c0,.736-.23,1.235-.991,1.394-.888-.166-1.139-.462-1.139-1.389q0-9.026,0-18.052c0-1.657,0-1.657-1.7-1.538-.871-.01-1.742,0-2.611-.042-.456-.024-.544.143-.54.561.02,2,.009,4,.009,6.008q0,11.026,0,22.051a2.424,2.424,0,1,0,4.836.272c.022-1.361,0-2.723.009-4.084C1297.626,337.528,1297.9,337.224,1298.76,337.069Zm-5.952-28.568c-.011.822-.011,1.643-.038,2.464-.012.352.081.508.468.493.891-.034,1.783-.028,2.675-.039a.447.447,0,0,0,.069.014c1.637.089,1.637.089,1.637-1.526s0-1.609-1.7-1.514l-2.974,0C1292.852,308.373,1292.792,308.391,1292.808,308.5Zm-.5-8.75-10.39-10.389c0,2.579-.025,5.289.01,8a2.413,2.413,0,0,0,2.474,2.387c1.226.02,2.452,0,3.679.005Zm1.781,53.682.129-.033c0-.741-.017-1.483.005-2.224a1.013,1.013,0,0,1,1-1.059c.659-.026,1.093.42,1.11,1.177.016.7,0,1.408,0,2.112.686-.955,1.23-1.918,1.8-2.866.157-.262.175-.428-.066-.658q-1.281-1.217-2.518-2.481c-.216-.22-.338-.22-.554,0-.828.838-1.677,1.655-2.517,2.482-.148.146-.309.26-.147.53C1292.932,351.409,1293.5,352.424,1294.086,353.433Zm-.154-49.023c0,1.859,0,1.859,1.886,1.833.094,0,.188-.006.282,0,.271.013.375-.12.373-.383-.008-.918.028-1.838-.019-2.754a1.26,1.26,0,1,0-2.517.1C1293.923,303.608,1293.934,304.009,1293.933,304.409Z" transform="translate(-0.006)" fill="#020202"/>
      <path id="Trazado_641939" data-name="Trazado 641939" d="M1298.588,341.37c6.728.252,11.974,3.086,15.585,8.832a1.943,1.943,0,0,1,.006,2.238,18.2,18.2,0,0,1-31.156-.024,1.929,1.929,0,0,1,0-2.185C1286.631,344.491,1291.867,341.631,1298.588,341.37ZM1290,356.59c.057.016.151.061.166.043.055-.069,0-.119-.067-.148a1.154,1.154,0,0,0-.067-.2,9.812,9.812,0,0,1-.059-9.831c.066-.125.167-.236.028-.418a15.841,15.841,0,0,0-5.014,5.048c-.144.228-.056.383.062.567A15.377,15.377,0,0,0,1290,356.59Zm16.381-5.275a7.787,7.787,0,1,0-7.769,7.783A7.806,7.806,0,0,0,1306.385,351.315Zm.553,5.408a3.051,3.051,0,0,0,.346-.15,16.188,16.188,0,0,0,4.858-4.862.647.647,0,0,0-.033-.821,16.122,16.122,0,0,0-4.516-4.616c-.144-.1-.272-.271-.53-.188A10.062,10.062,0,0,1,1306.938,356.723Z" transform="translate(-30.257 -40.082)" fill="#030303"/>
      <path id="Trazado_641940" data-name="Trazado 641940" d="M1240.447,384.891q0-11.11,0-22.219c0-.212-.012-.426.006-.637a1.1,1.1,0,0,1,1.075-1.095,1.068,1.068,0,0,1,1.041,1.11c.013.235,0,.472,0,.707q0,22.042,0,44.084c0,2.152.9,3.053,3.042,3.053h11.673c.188,0,.378-.009.566,0a1.082,1.082,0,0,1,1.086,1.074,1.07,1.07,0,0,1-1.117,1.042c-1.155.02-2.311.007-3.467.007q-4.527,0-9.055,0a4.617,4.617,0,0,1-4.851-4.839Q1240.437,396.036,1240.447,384.891Z" transform="translate(0 -54.1)" fill="#040404"/>
      <path id="Trazado_641941" data-name="Trazado 641941" d="M1272.594,469.352a27.877,27.877,0,0,1,3.462.036c.865.109,1.528.177,2.13-.627.322-.431.924-.285,1.317.121a.977.977,0,0,1,.089,1.353,16.57,16.57,0,0,1-1.239,1.451,1.426,1.426,0,0,0-.408,1.075c.021,1.769.014,3.538.007,5.308-.006,1.5-.661,2.161-2.15,2.166q-3.29.011-6.579,0c-1.46-.005-2.129-.664-2.135-2.112q-.014-3.362,0-6.723a1.8,1.8,0,0,1,2.039-2.046C1270.283,469.344,1271.439,469.352,1272.594,469.352Zm3.23,5.281c-.6.69-1.046,1.229-1.519,1.744a1.049,1.049,0,0,1-1.616.115,23.092,23.092,0,0,1-1.653-1.843.954.954,0,0,1,.128-1.4.978.978,0,0,1,1.406-.007,6.6,6.6,0,0,1,.629.669c.128.143.246.212.4.031.68-.791,1.363-1.578,2.132-2.468-2.137,0-4.094.009-6.05-.007-.381,0-.476.137-.474.494q.02,2.831,0,5.663c0,.369.124.493.491.49q2.831-.02,5.662,0c.321,0,.474-.085.468-.437C1275.814,476.737,1275.824,475.794,1275.824,474.633Z" transform="translate(-19.079 -131.14)" fill="#040404"/>
      <path id="Trazado_641942" data-name="Trazado 641942" d="M1272.46,431.047c-1.131,0-2.263.008-3.4,0a1.8,1.8,0,0,1-1.979-1.971q-.027-3.467,0-6.933a1.81,1.81,0,0,1,2.042-1.984c2.264-.007,4.527,0,6.79,0a.415.415,0,0,1,.141,0,1.639,1.639,0,0,0,2.13-.583c.3-.387.884-.274,1.275.088a1,1,0,0,1,.192,1.29,1.415,1.415,0,0,1-.347.442,4,4,0,0,0-1.385,3.759,38.071,38.071,0,0,1,.02,3.889,1.8,1.8,0,0,1-2.017,2C1274.771,431.054,1273.616,431.047,1272.46,431.047Zm3.357-5.583c-.605.693-1.049,1.227-1.521,1.735a1.044,1.044,0,0,1-1.709.019c-.491-.508-.962-1.037-1.426-1.571a1.065,1.065,0,0,1-.011-1.573,1.079,1.079,0,0,1,1.566.139c.731.723.731.723,1.413-.064.34-.392.689-.776,1.015-1.18.163-.2.438-.35.432-.689-1.966,0-3.9.008-5.832-.007-.377,0-.548.074-.544.5.02,1.887.015,3.773,0,5.66,0,.344.066.5.461.5,1.91-.018,3.82-.008,5.73-.008.215,0,.431.027.428-.305C1275.812,427.641,1275.818,426.664,1275.818,425.464Z" transform="translate(-19.073 -95.923)" fill="#020303"/>
      <path id="Trazado_641943" data-name="Trazado 641943" d="M1407.185,343.345c.47-.008,1.03-.18,1.388.016.489.267-.028.811.008,1.25.074.89.014,1.79.025,2.685a.649.649,0,0,1-.338.685,1.64,1.64,0,0,0-.823,1.538c.007.966-.006,1.933.005,2.9,0,.294-.037.459-.395.515a.946.946,0,0,0-.818,1.005.9.9,0,0,0,.745.985c.533.081.464.408.464.762,0,9.192.016,18.385-.018,27.577a5.421,5.421,0,0,0,1.487,4.04,3.284,3.284,0,0,1-3.138-3.255q0-12.41,0-24.821c0-1.178-.017-2.358.008-3.535.011-.475-.116-.721-.629-.653a2.641,2.641,0,0,1-.424,0c-.78-.024-1.244-.466-1.219-1.158.021-.588.491-.955,1.23-.962,1.111-.01,1.029.139,1.033-1.015,0-.754.011-1.509,0-2.263-.009-.5.154-.839.712-.827.422.009.428-.258.427-.562-.005-.99.014-1.98-.007-2.97A4.789,4.789,0,0,1,1407.185,343.345Z" transform="translate(-116.8 -41.441)" fill="#d8e0e4"/>
      <path id="Trazado_641944" data-name="Trazado 641944" d="M1436.624,408.139c-.86.156-1.134.459-1.139,1.306-.008,1.361.014,2.723-.009,4.084a2.374,2.374,0,0,1-2.548,2.4,5.465,5.465,0,0,0,.864-3.6q-.031-13.822-.012-27.644c1.7-.12,1.7-.12,1.7,1.538q0,9.026,0,18.052c0,.927.251,1.223,1.139,1.389Q1436.624,406.9,1436.624,408.139Z" transform="translate(-137.87 -71.07)" fill="#80a3f6"/>
      <path id="Trazado_641945" data-name="Trazado 641945" d="M1335.435,430h10.191a5.266,5.266,0,0,1,.706.023.967.967,0,0,1,.9,1.008.956.956,0,0,1-.787,1.031,3.408,3.408,0,0,1-.771.064q-10.227,0-20.454,0a3.469,3.469,0,0,1-.7-.044,1.044,1.044,0,0,1,.089-2.068,5.875,5.875,0,0,1,.636-.016Z" transform="translate(-59.602 -103.565)" fill="#070707"/>
      <path id="Trazado_641946" data-name="Trazado 641946" d="M1335.414,445.416H1345.6c.212,0,.426-.005.636.013a1.01,1.01,0,0,1,1,1,1.04,1.04,0,0,1-.978,1.095,4.686,4.686,0,0,1-.635.022q-10.192,0-20.383,0a3.909,3.909,0,0,1-.7-.039,1.044,1.044,0,0,1,.047-2.068,5.527,5.527,0,0,1,.707-.022Z" transform="translate(-59.603 -114.606)" fill="#080808"/>
      <path id="Trazado_641947" data-name="Trazado 641947" d="M1335.373,481.263c-3.491,0-6.983,0-10.474.005a1.16,1.16,0,0,1-1.183-.593,1.041,1.041,0,0,1,.718-1.489,3.352,3.352,0,0,1,.773-.048q10.192,0,20.383,0c.141,0,.283-.005.425,0a1.107,1.107,0,0,1,1.188,1.122c-.031.618-.474,1-1.213,1Q1340.681,481.269,1335.373,481.263Z" transform="translate(-59.563 -138.759)" fill="#040404"/>
      <path id="Trazado_641948" data-name="Trazado 641948" d="M1335.4,496.7h-10.191a4.8,4.8,0,0,1-.636-.012,1.048,1.048,0,0,1-.178-2.046,2.62,2.62,0,0,1,.769-.065q10.262,0,20.524,0a3.049,3.049,0,0,1,.635.023,1.009,1.009,0,0,1,.9,1.095.983.983,0,0,1-.99,1c-.187.016-.377.007-.566.007Z" transform="translate(-59.594 -149.818)" fill="#020303"/>
      <path id="Trazado_641949" data-name="Trazado 641949" d="M1412.859,498.452c.845.567.845.567.141,1.259q-.729.717-1.456,1.437a1.913,1.913,0,0,0-.361,2.819q.966,1.677,1.936,3.352c.417.721.393.782-.44.991a3.743,3.743,0,0,1-.553.057,36.251,36.251,0,0,0-1.794-3.246c-.385-.7-.791-1.38-1.193-2.066-.281-.481,0-.827.316-1.1,1.029-.891,1.98-1.859,2.94-2.821C1412.591,498.935,1412.838,498.769,1412.859,498.452Z" transform="translate(-120.747 -152.594)" fill="#d8e0e4"/>
      <path id="Trazado_641950" data-name="Trazado 641950" d="M1427.979,384.682q0,13.822.012,27.644a5.464,5.464,0,0,1-.864,3.6,2.37,2.37,0,0,1-2.287-2.671q0-11.026,0-22.051c0-2,.011-4.005-.009-6.007,0-.418.084-.585.54-.561C1426.236,384.686,1427.108,384.672,1427.979,384.682Z" transform="translate(-132.068 -71.074)" fill="#95b9f8"/>
      <path id="Trazado_641951" data-name="Trazado 641951" d="M1396.953,309.726h-4.228c-1.226,0-2.453.014-3.678-.005a2.412,2.412,0,0,1-2.474-2.386c-.035-2.709-.01-5.418-.01-8Z" transform="translate(-104.654 -9.975)" fill="#94b8f6"/>
      <path id="Trazado_641952" data-name="Trazado 641952" d="M1424.881,509.505c-.583-1.009-1.155-2.024-1.754-3.022-.162-.27,0-.384.147-.53.84-.826,1.689-1.644,2.517-2.482.217-.219.338-.219.554,0q1.239,1.261,2.518,2.481c.242.23.224.4.066.658-.569.948-1.113,1.911-1.8,2.866,0-.7.013-1.409,0-2.112-.017-.756-.451-1.2-1.11-1.177a1.013,1.013,0,0,0-1,1.059c-.023.741-.005,1.483-.005,2.224Z" transform="translate(-130.801 -156.072)" fill="#f4d047"/>
      <path id="Trazado_641953" data-name="Trazado 641953" d="M1428.933,345.989c0-.4-.01-.8,0-1.2a1.26,1.26,0,1,1,2.517-.1c.048.916.012,1.835.019,2.754,0,.263-.1.4-.373.383-.094,0-.188,0-.282,0C1428.933,347.847,1428.933,347.847,1428.933,345.989Z" transform="translate(-135.006 -41.579)" fill="#3e5c78"/>
      <path id="Trazado_641954" data-name="Trazado 641954" d="M1427.983,369.431c-.892.01-1.784.005-2.675.039-.387.014-.48-.142-.468-.493.028-.821.027-1.643.038-2.464l.133-.111,2.974,0Q1427.984,367.918,1427.983,369.431Z" transform="translate(-132.076 -58.012)" fill="#95b9f8"/>
      <path id="Trazado_641955" data-name="Trazado 641955" d="M1435.92,369.355q0-1.513,0-3.027c1.7-.094,1.7-.094,1.7,1.514s0,1.615-1.638,1.527A.456.456,0,0,1,1435.92,369.355Z" transform="translate(-140.013 -57.935)" fill="#80a3f6"/>
      <path id="Trazado_641956" data-name="Trazado 641956" d="M1425.1,366.387l-.133.111C1424.953,366.388,1425.013,366.37,1425.1,366.387Z" transform="translate(-132.167 -57.997)" fill="#80a3f6"/>
      <path id="Trazado_641957" data-name="Trazado 641957" d="M1326.9,356.746a7.787,7.787,0,0,1-15.574.014,7.787,7.787,0,1,1,15.574-.014Zm-13.057,0a5.286,5.286,0,1,0,5.323-5.276A5.319,5.319,0,0,0,1313.841,356.746Z" transform="translate(-50.768 -45.513)" fill="#93b7f5"/>
      <path id="Trazado_641958" data-name="Trazado 641958" d="M1368.161,368.571a10.062,10.062,0,0,0,.124-10.638c.259-.083.386.091.531.188a16.122,16.122,0,0,1,4.516,4.616.648.648,0,0,1,.033.821,16.188,16.188,0,0,1-4.858,4.862A3.061,3.061,0,0,1,1368.161,368.571Z" transform="translate(-91.48 -51.93)" fill="#d8e0e4"/>
      <path id="Trazado_641959" data-name="Trazado 641959" d="M1295.634,368.37a15.382,15.382,0,0,1-4.951-4.939c-.119-.184-.206-.339-.062-.567a15.838,15.838,0,0,1,5.014-5.048c.139.182.038.293-.028.418a9.812,9.812,0,0,0,.059,9.831,1.144,1.144,0,0,1,.067.2Z" transform="translate(-35.886 -51.862)" fill="#d8e0e4"/>
      <path id="Trazado_641960" data-name="Trazado 641960" d="M1308.578,394.638c.07.029.122.079.067.148-.015.018-.108-.027-.166-.043Z" transform="translate(-48.731 -78.236)" fill="#d8e0e4"/>
      <path id="Trazado_641961" data-name="Trazado 641961" d="M1281.2,482.135c0,1.161-.011,2.1.005,3.046.006.353-.147.439-.468.437q-2.831-.014-5.662,0c-.367,0-.494-.121-.491-.49q.019-2.831,0-5.663c0-.356.092-.5.473-.494,1.957.016,3.914.007,6.05.007-.77.89-1.453,1.677-2.132,2.468-.156.18-.273.112-.4-.031a6.6,6.6,0,0,0-.629-.669.978.978,0,0,0-1.406.007.954.954,0,0,0-.128,1.4,23.142,23.142,0,0,0,1.653,1.843,1.049,1.049,0,0,0,1.616-.115C1280.152,483.365,1280.6,482.826,1281.2,482.135Z" transform="translate(-24.452 -138.642)" fill="#86cfa3"/>
      <path id="Trazado_641962" data-name="Trazado 641962" d="M1281.188,432.887c0,1.2-.006,2.177,0,3.154,0,.333-.213.305-.428.305-1.91,0-3.82-.01-5.73.008-.395,0-.463-.155-.461-.5.012-1.887.017-3.774,0-5.66,0-.426.167-.5.543-.5,1.933.015,3.866.007,5.832.007.006.34-.268.487-.432.689-.325.4-.675.787-1.015,1.18-.682.787-.682.787-1.413.064a1.079,1.079,0,0,0-1.566-.139,1.065,1.065,0,0,0,.011,1.573c.464.534.935,1.063,1.426,1.571a1.044,1.044,0,0,0,1.709-.019C1280.139,434.114,1280.582,433.58,1281.188,432.887Z" transform="translate(-24.443 -103.346)" fill="#86cfa3"/>
      <path id="Trazado_641963" data-name="Trazado 641963" d="M1320.2,363.1a5.286,5.286,0,1,1,5.311,5.3A5.3,5.3,0,0,1,1320.2,363.1Zm2.124-.038a3.162,3.162,0,1,0,3.185-3.115A3.184,3.184,0,0,0,1322.32,363.065Z" transform="translate(-57.124 -51.87)" fill="#020303"/>
      <path id="Trazado_641964" data-name="Trazado 641964" d="M1327.681,368.425a3.162,3.162,0,0,1,6.323.054,3.162,3.162,0,1,1-6.323-.054Z" transform="translate(-62.485 -57.23)" fill="#f4d047"/>
    </g>
  </g>
</svg>
