<svg xmlns="http://www.w3.org/2000/svg" width="82" height="82" viewBox="0 0 82 82">
  <g id="_46" data-name="46" transform="translate(-498 -22866.387)">
    <g id="Grupo_956681" data-name="Grupo 956681" transform="translate(195 18937.387)">
      <g id="Grupo_951854" data-name="Grupo 951854" transform="translate(303 3929)">
        <path id="Trazado_621807" data-name="Trazado 621807" d="M41,0A41,41,0,1,1,0,41,41,41,0,0,1,41,0Z" fill="#ef8b53"/>
      </g>
    </g>
    <g id="Grupo_1099426" data-name="Grupo 1099426" transform="translate(-322.185 22278.301)">
      <path id="Trazado_641990" data-name="Trazado 641990" d="M849.27,604.508c0-1.05.179-1.287,1.191-1.566a39.548,39.548,0,0,1,49.3,29.272,38.251,38.251,0,0,1,.983,8.409c.007,1.135-.383,1.535-1.521,1.536q-5.678.007-11.356,0c-1.09,0-1.472-.4-1.495-1.495a25.192,25.192,0,0,0-49.756-5.245,25.721,25.721,0,0,0-.626,5.274c-.011,1.053-.41,1.463-1.445,1.465q-5.755.012-11.511,0c-1.025,0-1.429-.435-1.413-1.486a39.3,39.3,0,0,1,8.1-23.638c.139-.185.281-.368.419-.554a2.424,2.424,0,0,0,.118-.215l-2.866-.781c-1.833-.5-2.282-2.1-.95-3.442q2.882-2.907,5.79-5.786a1.922,1.922,0,0,1,3.424.917c.266.959.515,1.923.79,2.954a40.93,40.93,0,0,1,6.939-4.451q.585-.293,1.182-.563c.933-.425,1.26-.333,1.889.517a1.328,1.328,0,0,1-.9,1.584c-.4.172-.776.405-1.182.557-.519.194-.621.406-.31.928q2.147,3.606,4.206,7.265c.258.457.451.522.937.3a27.158,27.158,0,0,1,23.965,0c.481.224.678.172.939-.29,1.31-2.326,2.66-4.63,4-6.941.546-.945.548-.949-.44-1.423a37.163,37.163,0,0,0-26.57-2.438A1.374,1.374,0,0,1,849.27,604.508Zm39.287,33.364a9.861,9.861,0,0,1,.08,1.228c-.032.606.205.765.8.758q4.132-.049,8.264,0c.588.007.737-.152.7-.738a37.33,37.33,0,0,0-8.817-22.173,33.309,33.309,0,0,0-7.825-6.929,4.242,4.242,0,0,1-.363-.28c-.565-.538-.861-.355-1.22.293-1.318,2.38-2.692,4.729-4.076,7.072-.267.451-.235.656.218.952a27.155,27.155,0,0,1,8.141,8.306A28.424,28.424,0,0,1,888.557,637.872Zm-59.728,1.97c1.416,0,2.833-.018,4.249.01.456.009.617-.106.647-.587a25.06,25.06,0,0,1,.518-3.817,27.347,27.347,0,0,1,11.822-17.406c.389-.263.507-.44.238-.893q-2.178-3.682-4.284-7.407c-.249-.439-.43-.419-.811-.169-1.272.832-2.493,1.727-3.686,2.667a.726.726,0,0,0-.282.915c.2.662.386,1.332.553,2a1.914,1.914,0,0,1-2.455,2.458c-.674-.163-1.341-.353-2-.555a.745.745,0,0,0-.922.287,37.286,37.286,0,0,0-8.447,21.922c-.025.436.086.586.538.578C825.945,639.827,827.387,639.842,828.83,639.842Zm6.578-24.614-1.806-6.716-4.962,4.908Z" transform="translate(0 0)" fill="#040404"/>
      <path id="Trazado_641991" data-name="Trazado 641991" d="M898.889,609.63a1.374,1.374,0,0,0,1.82.657,37.163,37.163,0,0,1,26.57,2.438c.989.474.986.478.44,1.423-1.336,2.311-2.685,4.615-4,6.941-.261.462-.458.514-.939.29a27.158,27.158,0,0,0-23.965,0c-.486.226-.679.161-.937-.3q-2.066-3.654-4.205-7.265c-.311-.523-.209-.734.31-.928.407-.152.782-.385,1.182-.557a1.328,1.328,0,0,0,.9-1.584A15.326,15.326,0,0,1,898.889,609.63Z" transform="translate(-49.619 -5.122)" fill="#f2e48e"/>
      <path id="Trazado_641992" data-name="Trazado 641992" d="M915.7,698.206c-.266.935-.558,1.168-1.525,1.169q-13.827,0-27.653,0a2.773,2.773,0,0,1-2.506-4.352q8.7-15.077,17.421-30.139a2.746,2.746,0,0,1,4.971-.015q8.746,15.094,17.455,30.21a2.768,2.768,0,0,1-2.518,4.3c-.361,0-.721,0-1.081,0-.967-.01-1.256-.233-1.526-1.17a1.242,1.242,0,0,1,1.455-1.15c.256.015.515,0,.772,0,1.153,0,1.264-.19.69-1.184q-7.668-13.271-15.336-26.54c-.629-1.089-1.249-2.184-1.9-3.264q-.49-.819-.966-.044c-.347.566-.643,1.163-.961,1.747-.181.277-.377.546-.542.831q-4.542,7.856-9.076,15.716-3.091,5.362-6.165,10.734c-.251.416-.515.824-.75,1.249-.247.447-.036.68.413.746a4.355,4.355,0,0,0,.617.008h27.1C915.191,697.058,915.428,697.232,915.7,698.206Z" transform="translate(-42.746 -42.679)" fill="#040403"/>
      <path id="Trazado_641993" data-name="Trazado 641993" d="M907.663,673.022c.318-.584.614-1.181.961-1.747q.476-.776.966.044c.646,1.079,1.266,2.174,1.895,3.264q7.668,13.27,15.336,26.54c.574.993.463,1.181-.69,1.184-.257,0-.515.013-.772,0a1.242,1.242,0,0,0-1.455,1.15h-3.037c-.277-.974-.513-1.147-1.608-1.147h-27.1a4.337,4.337,0,0,1-.617-.008c-.449-.065-.661-.3-.413-.746.235-.424.5-.833.75-1.249l16.247.018a.73.73,0,0,0,.512-.118h.91a1.091,1.091,0,0,0,.745.116q2.471.007,4.942,0A4.361,4.361,0,0,0,919.21,698a4.51,4.51,0,0,0-.033-4.815c-1.473-2.526-2.913-5.072-4.4-7.59a32.674,32.674,0,0,0-2.3-3.812,3.667,3.667,0,0,0-1.987-3.383,14.958,14.958,0,0,0-1.257-2.426A18.224,18.224,0,0,1,907.663,673.022Z" transform="translate(-47.909 -47.928)" fill="#eed961"/>
      <path id="Trazado_641994" data-name="Trazado 641994" d="M1036.212,748.962a5.638,5.638,0,1,1,5.566,5.729A5.632,5.632,0,0,1,1036.212,748.962Zm2.319.071a3.318,3.318,0,1,0,6.636.033,3.318,3.318,0,0,0-6.636-.033Z" transform="translate(-148.135 -97.998)" fill="#040303"/>
      <path id="Trazado_641995" data-name="Trazado 641995" d="M829.713,745.084c-.109-1.073.241-1.523,1.3-1.664a5.641,5.641,0,1,1-4.891,5.169c.081-1.034.48-1.4,1.522-1.382.775.3.834.914.8,1.638a3.317,3.317,0,1,0,3.006-3.117C830.741,745.779,830.117,745.777,829.713,745.084Z" transform="translate(-3.092 -97.958)" fill="#040404"/>
      <path id="Trazado_641996" data-name="Trazado 641996" d="M833.143,748.9c.4.693,1.027.7,1.738.644a3.289,3.289,0,0,1,3.6,2.935,3.341,3.341,0,0,1-2.831,3.63,3.308,3.308,0,0,1-3.776-3.448c.029-.723-.029-1.339-.8-1.638A4,4,0,0,1,833.143,748.9Z" transform="translate(-6.522 -101.775)" fill="#9fd8c1"/>
      <path id="Trazado_641997" data-name="Trazado 641997" d="M834.043,657.514c-1.442,0-2.885-.015-4.326.009-.451.008-.563-.142-.538-.578a37.286,37.286,0,0,1,8.447-21.922.746.746,0,0,1,.922-.287c.663.2,1.331.392,2,.555a1.914,1.914,0,0,0,2.455-2.458c-.168-.672-.351-1.342-.553-2a.726.726,0,0,1,.281-.915c1.193-.94,2.414-1.835,3.686-2.667.382-.25.562-.271.811.169q2.109,3.722,4.284,7.407c.269.454.151.631-.238.893a27.348,27.348,0,0,0-11.822,17.406,25.059,25.059,0,0,0-.518,3.817c-.03.48-.191.6-.647.586C836.876,657.5,835.46,657.514,834.043,657.514Z" transform="translate(-5.214 -17.672)" fill="#9fdac2"/>
      <path id="Trazado_641998" data-name="Trazado 641998" d="M1009.623,655.6a28.424,28.424,0,0,0-4.1-11.512,27.155,27.155,0,0,0-8.141-8.306c-.453-.3-.485-.5-.218-.952,1.384-2.342,2.758-4.692,4.076-7.072.359-.648.655-.831,1.22-.293a4.276,4.276,0,0,0,.363.28.607.607,0,0,0,.229.541c1.125,1.191,2.223,2.4,3.242,3.689a38.37,38.37,0,0,1,5.149,8.7,39.057,39.057,0,0,1,2.769,10.336,3.955,3.955,0,0,1-.656,3A4.06,4.06,0,0,1,1009.623,655.6Z" transform="translate(-121.066 -17.726)" fill="#d79a9d"/>
      <path id="Trazado_641999" data-name="Trazado 641999" d="M1022.6,656.925a4.059,4.059,0,0,0,3.937-1.59,3.954,3.954,0,0,0,.656-3A39.056,39.056,0,0,0,1024.42,642a38.381,38.381,0,0,0-5.149-8.7c-1.019-1.286-2.117-2.5-3.242-3.689a.607.607,0,0,1-.229-.541,33.313,33.313,0,0,1,7.826,6.929,37.331,37.331,0,0,1,8.817,22.173c.037.586-.112.744-.7.738q-4.132-.045-8.264,0c-.6.007-.835-.152-.8-.758A9.813,9.813,0,0,0,1022.6,656.925Z" transform="translate(-134.038 -19.053)" fill="#d28386"/>
      <path id="Trazado_642000" data-name="Trazado 642000" d="M851.046,630.928l-6.768-1.808,4.962-4.908Z" transform="translate(-15.639 -15.7)" fill="#eae8eb"/>
      <path id="Trazado_642001" data-name="Trazado 642001" d="M910.545,704.94a.731.731,0,0,1-.512.118l-16.247-.018q3.082-5.367,6.165-10.734,4.531-7.862,9.077-15.716c.165-.286.361-.555.542-.831a18.224,18.224,0,0,0,1.572,2.948,14.924,14.924,0,0,1,1.257,2.426,3.475,3.475,0,0,0-4.734,3.87c.288,2.131.274,4.3.387,6.457a2.947,2.947,0,0,0,5.895.023c.1-2.154.314-4.3.3-6.463a.73.73,0,0,1,.14-.5,32.7,32.7,0,0,1,2.3,3.812c1.486,2.518,2.926,5.064,4.4,7.59a4.51,4.51,0,0,1,.033,4.815,4.361,4.361,0,0,1-3.974,2.324q-2.471.006-4.942,0a1.089,1.089,0,0,1-.745-.116,6.234,6.234,0,0,0,.742-.206,3.283,3.283,0,0,0,2.2-2.908,3.412,3.412,0,1,0-6.746.382A3.361,3.361,0,0,0,910.545,704.94Z" transform="translate(-49.815 -52.664)" fill="#f2e48e"/>
      <path id="Trazado_642002" data-name="Trazado 642002" d="M945.241,697.929a.732.732,0,0,0-.14.5c.015,2.159-.194,4.309-.3,6.463a2.947,2.947,0,0,1-5.895-.023c-.113-2.154-.1-4.326-.387-6.457a3.475,3.475,0,0,1,4.734-3.87A3.666,3.666,0,0,1,945.241,697.929Zm-2.343-.444a1.007,1.007,0,0,0-1.061-.881c-.639.012-1.051.531-1.008,1.292.128,2.258.266,4.515.389,6.774.024.429.131.8.617.816s.632-.336.655-.776C942.614,702.426,942.747,700.143,942.9,697.485Z" transform="translate(-80.671 -64.079)" fill="#030302"/>
      <path id="Trazado_642003" data-name="Trazado 642003" d="M941.268,750.249a3.361,3.361,0,0,1-2.894-2.732,3.413,3.413,0,1,1,6.746-.382,3.283,3.283,0,0,1-2.2,2.908,6.239,6.239,0,0,1-.742.206Zm1.545-3.4a1.09,1.09,0,1,0-2.18-.023,1.09,1.09,0,0,0,2.18.023Z" transform="translate(-80.538 -97.973)" fill="#030302"/>
      <path id="Trazado_642004" data-name="Trazado 642004" d="M1043.7,754.2a3.318,3.318,0,0,1,6.636.033,3.318,3.318,0,1,1-6.636-.033Z" transform="translate(-153.305 -103.164)" fill="#d5989b"/>
      <path id="Trazado_642005" data-name="Trazado 642005" d="M948.119,702.635c-.151,2.657-.284,4.941-.408,7.225-.023.439-.171.79-.655.776s-.594-.387-.617-.816c-.123-2.258-.262-4.516-.39-6.774-.043-.761.37-1.279,1.008-1.292A1.007,1.007,0,0,1,948.119,702.635Z" transform="translate(-85.892 -69.229)" fill="#8e878f"/>
      <path id="Trazado_642006" data-name="Trazado 642006" d="M948.033,752.078a1.09,1.09,0,0,1-2.181-.023,1.09,1.09,0,1,1,2.181.023Z" transform="translate(-85.758 -103.2)" fill="#8e878f"/>
    </g>
  </g>
</svg>
