<svg xmlns="http://www.w3.org/2000/svg" width="113" height="113" viewBox="0 0 113 113">
  <g id="_51" data-name="51" transform="translate(-424 -4330)">
    <circle id="Elipse_7706" data-name="Elipse 7706" cx="46" cy="46" r="46" transform="translate(435 4341)" fill="#583cb6"/>
    <rect id="Rectángulo_306469" data-name="Rectángulo 306469" width="113" height="113" transform="translate(424 4330)" fill="none"/>
    <g id="Grupo_957418" data-name="Grupo 957418" transform="translate(1278.625 4181.596)">
      <path id="Trazado_632591" data-name="Trazado 632591" d="M-799.135,162.669a16.506,16.506,0,0,1,11.046-3.724,16.35,16.35,0,0,1,15.463,14.023c.074.617.241.841.886.814,1.234-.053,2.472-.039,3.706,0a.85.85,0,0,0,.909-.574c.775-1.609,1.6-3.2,2.383-4.8.173-.353.325-.586.8-.582,3.769.026,7.539.015,11.308.018a1.882,1.882,0,0,1,.34.084c-1.006,2.018-1.921,4.031-3,5.952a2.5,2.5,0,0,0,.018,2.775c1.064,1.9,1.972,3.891,2.928,5.811-.126.3-.341.2-.5.2-3.645.007-7.291-.007-10.937.019a.916.916,0,0,1-.98-.606c-.755-1.585-1.567-3.142-2.332-4.722a.907.907,0,0,0-.97-.633c-1.3.05-2.6.034-3.892.007-.436-.009-.586.141-.636.564a15.863,15.863,0,0,1-4.49,9.323c-.3.31-.294.488-.028.815,1.559,1.915,3.114,3.835,4.62,5.792.386.5.631.24.976.05a13.282,13.282,0,0,1,19.18,7.548,12.641,12.641,0,0,1-3.395,13.6,12.538,12.538,0,0,1-13.588,3.071,12.715,12.715,0,0,1-8.874-10.646,12.693,12.693,0,0,1,3.288-10.858c.371-.417.361-.645.026-1.054-1.488-1.814-2.935-3.66-4.416-5.479-.168-.206-.308-.7-.673-.442-.468.334-1.229.333-1.359,1.081a3.256,3.256,0,0,0-.005.555q0,16.308-.021,32.617c0,.794.216.937.963.934q10.659-.046,21.318-.009a7.389,7.389,0,0,1,7.4,7.622A7.4,7.4,0,0,1-759.139,239q-10.567.037-21.133-.017c-.905-.006-1.13.215-1.085,1.1a24.628,24.628,0,0,1-.048,4.256,7.348,7.348,0,0,1-7.512,6.525q-15.618.018-31.236,0-7.832,0-15.664,0a7.417,7.417,0,0,1-7.8-7.782q-.005-36.694,0-73.387a7.411,7.411,0,0,1,7.8-7.789c3.152-.005,6.3-.014,9.454.011a1.063,1.063,0,0,0,1.134-.639,4.275,4.275,0,0,1,4.015-2.338q8.481,0,16.962,0C-801.445,158.94-800.084,159.909-799.135,162.669Zm-35.589,43.624q0,17.374-.02,34.748c0,.779.195.947.957.946q20.67-.038,41.34-.019c2.252,0,2.222,0,2.235-2.243,0-.652-.23-.741-.791-.733-2.07.029-4.14.014-6.21.008a2.713,2.713,0,0,1-.913-.084c-3.551-1.32-7.108-2.628-10.634-4.012a3.346,3.346,0,0,1-2.216-3.33,3.438,3.438,0,0,1,2.241-3.318c.875-.379,1.779-.693,2.673-1.029,2.423-.908,4.82-1.9,7.279-2.694,2.546-.826,5.206-.207,7.811-.337.606-.03.755-.177.754-.772q-.027-15.614,0-31.227c0-.524-.1-.772-.681-.821a15.582,15.582,0,0,1-4.272-1.141c-.791-.3-1.563-1.258-2.268-.955s-1.107,1.349-1.694,2.023c-.437.5-.455.8.069,1.319a18.71,18.71,0,0,1,5.709,16.05,19.286,19.286,0,0,1-22.131,16.762,19.293,19.293,0,0,1-16.108-21.4,19.286,19.286,0,0,1,27.295-15.1c.789.374,1.6,1.342,2.326,1.038s1.146-1.393,1.753-2.09c.416-.478.342-.753-.091-1.2a15.866,15.866,0,0,1-4.716-12.049c.026-.771-.2-.89-.892-.886-5.1.027-10.2.016-15.294.013a4.268,4.268,0,0,1-4.016-2.337,1.064,1.064,0,0,0-1.14-.638c-2.472.025-4.944.045-7.415-.009-.767-.017-.958.172-.956.949Q-834.7,189.012-834.724,206.293Zm-5.932.047c0,12.076.068,24.153-.044,36.228a4.954,4.954,0,0,0,5.331,5.373c15.292-.093,30.585-.042,45.878-.042.34,0,.68.01,1.019-.011a4.43,4.43,0,0,0,4.149-4.12c.07-1.417.013-2.841.027-4.261,0-.32-.039-.475-.435-.516-2.53-.261-2.534-.27-2.534,2.214,0,.154,0,.309,0,.463a2.993,2.993,0,0,1-3.292,3.265q-21.92,0-43.839,0a2.983,2.983,0,0,1-3.293-3.26q0-35.3,0-70.6a2.984,2.984,0,0,1,3.227-3.231c2.163-.008,4.325,0,6.488,0s2.152,0,2.163-2.215c0-.6-.145-.771-.757-.764-3,.033-5.994.015-8.991.015-3.354,0-5.1,1.729-5.1,5.054Q-840.657,188.133-840.657,206.34Zm62.095-32.573a19.578,19.578,0,0,1,2.13.016c.83.091.962-.208.825-.963a13.46,13.46,0,0,0-15.71-10.677,13.378,13.378,0,0,0-10.5,15.8,13.349,13.349,0,0,0,16.171,10.28A13.517,13.517,0,0,0-775.6,177.616c.126-.736-.062-.935-.8-.9-1.357.061-2.719.052-4.077,0-.7-.025-1.034.114-1.274.878a7.363,7.363,0,0,1-7.751,5.037,7.489,7.489,0,0,1-6.642-6.768,7.425,7.425,0,0,1,5.348-7.728c3.352-.983,7.155.427,8.486,3.672.779,1.9,1.837,2.15,3.471,1.96A2.388,2.388,0,0,1-778.562,173.767ZM-802.1,206.311c0,1.39-.007,2.78,0,4.169.007,1.075.036,2.15.055,3.224,1.1.208,2.206,0,3.3.108.654.064.9-.234,1.142-.778a15.474,15.474,0,0,0,1.2-9.313c-1.266-6.526-5.06-11.009-11.446-12.918a15.342,15.342,0,0,0-16.619,4.593c-4.508,4.9-5.448,10.689-3.181,16.96.526,1.456.568,1.441,2.168,1.441.587,0,1.178-.045,1.76.012.664.065.892-.1.876-.833-.055-2.439,0-4.879-.034-7.319-.007-.584.118-.793.747-.772,1.481.05,2.966-.013,4.448.03.6.017.775-.136.766-.753-.037-2.5,0-5-.027-7.5-.006-.523.138-.673.664-.664,2.008.03,4.016.008,6.024.014.706,0,1.643-.241,2.058.114.491.421.1,1.388.165,2.115a.366.366,0,0,1,0,.092c-.093.539.154.664.663.653,1.513-.032,3.028.024,4.54-.028.638-.022.751.2.742.777C-802.115,201.925-802.1,204.118-802.1,206.311Zm37.038,8.969a10.413,10.413,0,0,0,10.42-10.316,10.411,10.411,0,0,0-10.295-10.439,10.41,10.41,0,0,0-10.466,10.36A10.417,10.417,0,0,0-765.059,215.28Zm-47.367-53.374c-2.9,0-5.8-.007-8.7,0-1.122,0-1.714.537-1.727,1.591q-.035,2.868,0,5.736a1.445,1.445,0,0,0,1.571,1.557c5.429.013,10.858,0,16.287.012.468,0,.626-.183.75-.6a9.213,9.213,0,0,1,1.267-2.859,5.191,5.191,0,0,0,.891-3.559c-.07-1.378-.525-1.881-1.921-1.883Q-808.215,161.9-812.426,161.907Zm-12.46,54.9c6.347,8.086,19.125,7.552,24.776,0Zm40.586-25.833a13.212,13.212,0,0,1-2.062.375c-.8.02-.921.362-.919,1.078q.035,14.861.016,29.721c0,2.033,0,1.987,2.053,2.051.808.025.931-.236.929-.972q-.038-15.648-.017-31.3Zm2.924,39.133H-768.6c2.1,0,2.066,0,2.116-2.087.018-.75-.218-.895-.92-.893q-13.286.035-26.573.016c-2.211,0-2.181,0-2.206,2.18-.008.667.193.8.825.8C-790.7,230.1-786.036,230.108-781.375,230.108Zm.145,2.966H-794.1c-2.069,0-2.029,0-2.084,2.026-.021.769.178.96.952.957,8.888-.03,17.777-.019,26.665-.019,2.077,0,2.045,0,2.082-2.119.012-.689-.16-.868-.858-.863C-771.972,233.09-776.6,233.074-781.23,233.074Zm17.695-1.463c0,1.264.016,2.528-.009,3.792-.009.449.071.662.594.648,1.356-.038,2.715.024,4.07-.026a4.446,4.446,0,0,0,4.24-4.408,4.446,4.446,0,0,0-4.279-4.462c-1.325-.042-2.653.017-3.977-.024-.551-.017-.661.19-.649.688C-763.515,229.082-763.536,230.347-763.536,231.611Zm-21.127-54.878h-3.313c-2.325,0-2.308,0-2.27-2.3.008-.517.132-.689.667-.676,1.45.036,2.9-.006,4.351.021.567.011.62-.143.377-.622A4.474,4.474,0,0,0-790.055,171a4.489,4.489,0,0,0-3.132,4.606,4.511,4.511,0,0,0,3.915,4.069A4.34,4.34,0,0,0-784.662,176.733Zm-29.3,29.658v5.181c0,2.26,0,2.233,2.227,2.243.622,0,.755-.185.751-.772-.025-3.948-.013-7.9-.013-11.843,0-2.3,0-2.277-2.32-2.241-.535.008-.662.168-.656.678C-813.946,201.887-813.961,204.139-813.961,206.39Zm14.789,28.968V227.82c-2.824,1.058-5.581,2.088-8.336,3.125a.668.668,0,0,0-.507.69.687.687,0,0,0,.5.6c.658.258,1.322.5,1.984.75Zm-5.891-27.393v-3.885c0-2.173,0-2.149-2.218-2.158-.6,0-.768.156-.762.762.032,2.959.015,5.919.015,8.879,0,2.3,0,2.282,2.311,2.249.52-.007.676-.143.666-.667C-805.083,211.419-805.063,209.692-805.063,207.965Zm-11.865,2.869V210.1c0-2.471,0-2.461-2.5-2.237-.354.032-.475.123-.472.48q.021,2.494,0,4.988c0,.355.115.45.47.482,2.5.226,2.5.236,2.5-2.236Zm59.887-40.032h-5.121c-.217,0-.443-.017-.561.22-.44.886-.876,1.774-1.355,2.745,1.793,0,3.424-.007,5.055.006a.673.673,0,0,0,.719-.427C-757.932,172.541-757.518,171.754-757.041,170.8Zm-7.044,5.93c.466.944.886,1.788,1.3,2.635a.505.505,0,0,0,.5.331c1.707-.006,3.414,0,5.243,0-.474-.951-.895-1.765-1.285-2.593a.616.616,0,0,0-.658-.374C-760.645,176.738-762.3,176.733-764.086,176.733Z" transform="translate(0 0)" fill="#010101"/>
      <path id="Trazado_632592" data-name="Trazado 632592" d="M-819.69,226.343q0-17.281-.019-34.563c0-.776.188-.965.956-.949,2.471.054,4.943.034,7.415.009a1.063,1.063,0,0,1,1.14.638,4.268,4.268,0,0,0,4.016,2.337c5.1,0,10.2.014,15.294-.013.691,0,.918.115.892.886a15.866,15.866,0,0,0,4.716,12.049c.434.444.508.719.091,1.2-.607.7-1.01,1.78-1.753,2.09s-1.537-.663-2.326-1.038a19.286,19.286,0,0,0-27.295,15.1,19.293,19.293,0,0,0,16.108,21.4,19.286,19.286,0,0,0,22.131-16.762,18.71,18.71,0,0,0-5.709-16.05c-.524-.522-.506-.816-.069-1.319.587-.674.974-1.714,1.694-2.023s1.477.65,2.269.955a15.582,15.582,0,0,0,4.272,1.141c.585.049.682.3.681.821q-.022,15.614,0,31.227c0,.6-.147.742-.754.772-2.605.13-5.265-.489-7.811.337-2.459.8-4.856,1.786-7.279,2.694-.894.335-1.8.649-2.673,1.029a3.438,3.438,0,0,0-2.241,3.318,3.346,3.346,0,0,0,2.216,3.33c3.526,1.384,7.083,2.692,10.634,4.012a2.712,2.712,0,0,0,.913.084c2.07.007,4.14.021,6.21-.008.561-.008.795.081.791.733-.013,2.243.017,2.243-2.235,2.243q-20.67,0-41.34.019c-.762,0-.958-.167-.957-.946Q-819.667,243.717-819.69,226.343Zm17.892-29.561h-6.852c-2.154,0-2.12,0-2.161,2.127-.013.7.17.859.86.854,4.938-.032,9.876-.017,14.814-.017,2.172,0,2.147,0,2.158-2.22,0-.608-.162-.766-.764-.759C-796.428,196.8-799.113,196.782-801.8,196.782Zm-.167,8.9h6.944c2.031,0,1.984,0,2.049-2.058.026-.818-.251-.929-.979-.924-4.877.033-9.753.017-14.63.017-2.247,0-2.217,0-2.23,2.243,0,.651.228.738.79.733C-807.336,205.663-804.651,205.677-801.965,205.677Zm-5.866,44.48h-6.76c-2.146,0-2.11,0-2.153,2.136-.014.713.2.849.869.845,4.907-.03,9.815-.016,14.722-.016,2.258,0,2.231,0,2.243-2.228,0-.623-.186-.756-.773-.749C-802.4,250.174-805.115,250.158-807.831,250.158Zm-.093,8.9h6.852c2.156,0,2.123,0,2.163-2.124.013-.691-.16-.863-.856-.858-4.938.033-9.877.018-14.815.018-2.174,0-2.15,0-2.16,2.217,0,.6.152.77.76.762C-813.295,259.034-810.609,259.053-807.924,259.053Zm-5.835-60.764c0-1.507,0-1.507-1.55-1.507-1.416,0-1.416,0-1.416,1.457,0,1.507,0,1.507,1.55,1.507C-813.758,199.747-813.758,199.747-813.758,198.289Zm-1.527,7.388c1.527,0,1.527,0,1.527-1.53,0-1.435,0-1.435-1.438-1.435-1.527,0-1.527,0-1.527,1.53C-816.724,205.677-816.724,205.677-815.286,205.677Z" transform="translate(-15.034 -20.049)" fill="#e9cfb6"/>
      <path id="Trazado_632593" data-name="Trazado 632593" d="M-835.707,216.359q0-18.207,0-36.414c0-3.326,1.744-5.054,5.1-5.054,3,0,5.994.018,8.991-.015.612-.007.76.166.757.764-.011,2.215.012,2.215-2.163,2.215s-4.325-.006-6.488,0a2.984,2.984,0,0,0-3.227,3.231q0,35.3,0,70.6a2.983,2.983,0,0,0,3.293,3.26q21.92,0,43.839,0a2.993,2.993,0,0,0,3.292-3.265c0-.154,0-.309,0-.463,0-2.484,0-2.475,2.534-2.214.4.041.438.2.435.516-.013,1.42.043,2.844-.027,4.261a4.43,4.43,0,0,1-4.149,4.12c-.339.021-.679.011-1.019.011-15.293,0-30.586-.051-45.878.042a4.954,4.954,0,0,1-5.331-5.373C-835.638,240.512-835.707,228.435-835.707,216.359Z" transform="translate(-4.95 -10.019)" fill="#fbe9ae"/>
      <path id="Trazado_632594" data-name="Trazado 632594" d="M-708.3,178.759a2.387,2.387,0,0,0-.278,0c-1.633.19-2.691-.063-3.471-1.96-1.332-3.245-5.135-4.656-8.486-3.672a7.425,7.425,0,0,0-5.348,7.728,7.489,7.489,0,0,0,6.642,6.769,7.363,7.363,0,0,0,7.751-5.037c.24-.764.576-.9,1.274-.878,1.357.049,2.72.058,4.077,0,.742-.033.929.166.8.9a13.517,13.517,0,0,1-10.053,10.609,13.349,13.349,0,0,1-16.171-10.28,13.378,13.378,0,0,1,10.5-15.8,13.46,13.46,0,0,1,15.71,10.677c.137.755.006,1.054-.825.963A19.579,19.579,0,0,0-708.3,178.759Z" transform="translate(-70.259 -4.992)" fill="#e3e6e9"/>
      <path id="Trazado_632595" data-name="Trazado 632595" d="M-777.048,258.93c0-2.193-.019-4.386.013-6.578.008-.576-.1-.8-.742-.777-1.512.052-3.028,0-4.54.028-.509.011-.756-.114-.663-.653a.363.363,0,0,0,0-.092c-.064-.727.326-1.694-.165-2.115-.414-.355-1.352-.112-2.058-.114-2.008-.006-4.017.016-6.024-.014-.525-.008-.669.141-.664.664.027,2.5-.01,5,.027,7.5.009.616-.17.77-.766.753-1.482-.043-2.967.02-4.448-.03-.629-.022-.755.187-.747.772.032,2.44-.02,4.881.034,7.319.016.728-.211.9-.876.833-.581-.057-1.173-.012-1.76-.012-1.6,0-1.642.015-2.168-1.441-2.267-6.271-1.326-12.057,3.181-16.96a15.342,15.342,0,0,1,16.62-4.593c6.387,1.909,10.18,6.392,11.446,12.918a15.474,15.474,0,0,1-1.2,9.313c-.238.543-.488.841-1.142.778-1.1-.107-2.206.1-3.3-.108-.019-1.075-.047-2.149-.055-3.224C-777.055,261.71-777.048,260.32-777.048,258.93Z" transform="translate(-25.048 -52.619)" fill="#e4e7ea"/>
      <path id="Trazado_632596" data-name="Trazado 632596" d="M-649.56,275.526A10.417,10.417,0,0,1-659.9,265.132a10.41,10.41,0,0,1,10.466-10.36,10.411,10.411,0,0,1,10.295,10.439A10.413,10.413,0,0,1-649.56,275.526Zm-7.375-10.379c0,1.172-.018,2.345,0,3.517a3.836,3.836,0,0,0,5.476,3.521c2.486-1.145,4.943-2.365,7.346-3.675a3.8,3.8,0,0,0,0-6.723c-2.4-1.309-4.86-2.529-7.345-3.676a3.835,3.835,0,0,0-5.478,3.518C-656.954,262.8-656.935,263.975-656.935,265.147Z" transform="translate(-115.499 -60.246)" fill="#e2e5e8"/>
      <path id="Trazado_632597" data-name="Trazado 632597" d="M-777.288,166.928q4.211,0,8.421,0c1.4,0,1.851.5,1.921,1.883a5.192,5.192,0,0,1-.891,3.559,9.211,9.211,0,0,0-1.267,2.859c-.124.414-.282.6-.75.6-5.429-.015-10.858,0-16.287-.012a1.445,1.445,0,0,1-1.571-1.557q-.037-2.868,0-5.736c.013-1.054.6-1.587,1.727-1.591C-783.087,166.922-780.188,166.928-777.288,166.928Z" transform="translate(-35.138 -5.022)" fill="#bbda89"/>
      <path id="Trazado_632598" data-name="Trazado 632598" d="M-793.163,314.776h24.776C-774.038,322.328-786.816,322.862-793.163,314.776Z" transform="translate(-31.723 -97.968)" fill="#e3e6e9"/>
      <path id="Trazado_632599" data-name="Trazado 632599" d="M-688.915,245.209v.958q0,15.648.017,31.3c0,.736-.12,1-.929.972-2.052-.064-2.054-.018-2.054-2.051q0-14.861-.016-29.721c0-.716.12-1.058.919-1.078A13.213,13.213,0,0,0-688.915,245.209Z" transform="translate(-95.385 -54.235)" fill="#fbe9ae"/>
      <path id="Trazado_632600" data-name="Trazado 632600" d="M-701.059,345.547c-4.66,0-9.321-.013-13.981.014-.632,0-.833-.132-.825-.8.026-2.18,0-2.18,2.206-2.18q13.287,0,26.573-.016c.7,0,.938.142.92.893-.05,2.086-.012,2.087-2.116,2.087Z" transform="translate(-80.316 -115.439)" fill="#bbda89"/>
      <path id="Trazado_632601" data-name="Trazado 632601" d="M-700.919,358.55c4.629,0,9.259.016,13.888-.018.7-.005.87.174.858.863-.037,2.119-.005,2.119-2.082,2.119-8.888,0-17.777-.011-26.665.019-.775,0-.973-.188-.952-.957.055-2.025.015-2.026,2.084-2.026Z" transform="translate(-80.311 -125.476)" fill="#6ebee4"/>
      <path id="Trazado_632602" data-name="Trazado 632602" d="M-627.971,347.053c0-1.264.02-2.528-.01-3.792-.012-.5.1-.705.649-.689,1.325.041,2.653-.018,3.978.024a4.446,4.446,0,0,1,4.279,4.462,4.446,4.446,0,0,1-4.24,4.408c-1.355.05-2.714-.012-4.07.026-.523.014-.6-.2-.594-.648C-627.955,349.581-627.971,348.316-627.971,347.053Z" transform="translate(-135.565 -115.442)" fill="#aab1bb"/>
      <path id="Trazado_632603" data-name="Trazado 632603" d="M-699.3,196.836a4.34,4.34,0,0,1-4.609,2.941,4.511,4.511,0,0,1-3.915-4.069,4.489,4.489,0,0,1,3.132-4.606,4.474,4.474,0,0,1,5.206,2.156c.242.479.19.632-.377.622-1.45-.027-2.9.014-4.351-.021-.536-.013-.659.159-.667.676-.038,2.3-.056,2.3,2.27,2.3Z" transform="translate(-85.366 -20.104)" fill="#ec8673"/>
      <path id="Trazado_632604" data-name="Trazado 632604" d="M-763.761,274.127c0-2.251.014-4.5-.011-6.754-.006-.51.121-.67.656-.678,2.32-.036,2.32-.055,2.32,2.241,0,3.947-.012,7.9.013,11.843,0,.587-.129.775-.751.772-2.227-.01-2.227.016-2.227-2.243Z" transform="translate(-50.199 -67.737)" fill="#f5d67f"/>
      <path id="Trazado_632605" data-name="Trazado 632605" d="M-738.89,351.969l-6.356-2.372c-.662-.247-1.326-.493-1.984-.75a.687.687,0,0,1-.5-.6.668.668,0,0,1,.507-.69c2.755-1.037,5.512-2.067,8.336-3.125Z" transform="translate(-60.282 -116.611)" fill="#a8afb9"/>
      <path id="Trazado_632606" data-name="Trazado 632606" d="M-744.827,280.734c0,1.727-.02,3.454.012,5.18.01.524-.146.66-.666.667-2.311.033-2.311.051-2.311-2.249,0-2.96.017-5.92-.014-8.879-.006-.605.158-.764.762-.762,2.218.009,2.218-.015,2.218,2.158Z" transform="translate(-60.237 -72.769)" fill="#f5d67f"/>
      <path id="Trazado_632607" data-name="Trazado 632607" d="M-776.762,293.495v.739c0,2.472,0,2.462-2.5,2.236-.355-.032-.473-.127-.47-.482q.021-2.494,0-4.988c0-.357.118-.449.472-.481,2.5-.224,2.5-.234,2.5,2.237Z" transform="translate(-40.166 -82.66)" fill="#f5d67f"/>
      <path id="Trazado_632608" data-name="Trazado 632608" d="M-622.377,190.886c-.476.952-.891,1.738-1.264,2.543a.672.672,0,0,1-.719.427c-1.631-.013-3.262-.006-5.055-.006.479-.971.915-1.859,1.355-2.745.118-.237.344-.22.562-.22Z" transform="translate(-134.664 -20.084)" fill="#c69d7b"/>
      <path id="Trazado_632609" data-name="Trazado 632609" d="M-629.433,206.851c1.785,0,3.441,0,5.1,0a.616.616,0,0,1,.658.374c.39.828.811,1.642,1.285,2.593-1.829,0-3.536,0-5.243,0a.505.505,0,0,1-.5-.331C-628.547,208.639-628.967,207.795-629.433,206.851Z" transform="translate(-134.653 -30.118)" fill="#c69d7b"/>
      <path id="Trazado_632610" data-name="Trazado 632610" d="M-786.734,206.833c2.685,0,5.371.019,8.056-.014.6-.007.766.151.764.759-.01,2.22.014,2.22-2.158,2.22-4.938,0-9.877-.015-14.814.017-.689,0-.873-.157-.86-.854.04-2.127.007-2.127,2.161-2.127Z" transform="translate(-30.099 -30.1)"/>
      <path id="Trazado_632611" data-name="Trazado 632611" d="M-786.9,225.764c-2.685,0-5.371-.014-8.056.012-.561.005-.793-.082-.79-.733.013-2.243-.017-2.243,2.23-2.243,4.877,0,9.753.016,14.63-.017.727,0,1,.107.979.924-.065,2.056-.018,2.058-2.049,2.058Z" transform="translate(-30.1 -40.135)"/>
      <path id="Trazado_632612" data-name="Trazado 632612" d="M-802.812,350.571c2.716,0,5.432.017,8.148-.013.587-.007.776.127.773.749-.011,2.228.015,2.228-2.243,2.228-4.908,0-9.815-.014-14.722.016-.673,0-.883-.132-.869-.845.043-2.135.007-2.136,2.153-2.136Z" transform="translate(-20.054 -120.462)"/>
      <path id="Trazado_632613" data-name="Trazado 632613" d="M-802.9,369.5c-2.685,0-5.371-.019-8.055.015-.608.007-.763-.161-.76-.762.01-2.217-.014-2.217,2.16-2.217,4.938,0,9.877.016,14.815-.018.7,0,.869.167.856.858-.04,2.124-.007,2.124-2.163,2.124Z" transform="translate(-20.062 -130.495)"/>
      <path id="Trazado_632614" data-name="Trazado 632614" d="M-808.7,208.365c0,1.457,0,1.457-1.416,1.457-1.55,0-1.55,0-1.55-1.507,0-1.457,0-1.457,1.416-1.457C-808.7,206.858-808.7,206.858-808.7,208.365Z" transform="translate(-20.089 -30.125)"/>
      <path id="Trazado_632615" data-name="Trazado 632615" d="M-810.23,225.793c-1.439,0-1.439,0-1.439-1.434,0-1.53,0-1.53,1.527-1.53,1.438,0,1.438,0,1.438,1.435C-808.7,225.793-808.7,225.793-810.23,225.793Z" transform="translate(-20.089 -40.165)"/>
      <path id="Trazado_632616" data-name="Trazado 632616" d="M-651.927,270.168c0-1.173-.018-2.345,0-3.518a3.835,3.835,0,0,1,5.478-3.518c2.485,1.147,4.941,2.367,7.345,3.676a3.8,3.8,0,0,1,0,6.723c-2.4,1.31-4.859,2.531-7.346,3.675a3.836,3.836,0,0,1-5.476-3.521C-651.945,272.514-651.927,271.341-651.927,270.168Zm2.967-.022c0,1.078-.012,2.156,0,3.233.016,1.114.625,1.484,1.637.983,2.149-1.064,4.288-2.149,6.434-3.219.433-.215.826-.456.807-1.009-.018-.5-.384-.727-.787-.928-2.174-1.083-4.339-2.185-6.517-3.259-.966-.477-1.556-.108-1.573.965S-648.96,269.068-648.96,270.146Z" transform="translate(-120.507 -65.267)" fill="#030303"/>
      <path id="Trazado_632617" data-name="Trazado 632617" d="M-643.934,275.2c0-1.078-.013-2.156,0-3.234s.607-1.442,1.573-.965c2.178,1.075,4.343,2.176,6.517,3.259.4.2.77.426.787.928.019.553-.374.794-.807,1.009-2.146,1.069-4.285,2.155-6.434,3.219-1.012.5-1.621.131-1.637-.983C-643.947,277.354-643.934,276.276-643.934,275.2Z" transform="translate(-125.533 -70.319)" fill="#ec8673"/>
    </g>
  </g>
</svg>
