<svg xmlns="http://www.w3.org/2000/svg" width="85" height="50.081" viewBox="0 0 85 50.081">
  <g id="_8" data-name="8" transform="translate(-180.117 -3179.918)">
    <rect id="Rectángulo_392690" data-name="Rectángulo 392690" width="85" height="23" rx="4" transform="translate(180.117 3195)" fill="#f0bd51"/>
    <g id="aglutinante" transform="translate(197.119 3176.563)">
      <g id="Grupo_1099612" data-name="Grupo 1099612" transform="translate(1.999 3.355)">
        <g id="Grupo_1099610" data-name="Grupo 1099610" transform="translate(0.403 0.403)">
          <path id="Trazado_835726" data-name="Trazado 835726" d="M2.5,40.511V5.669A1.544,1.544,0,0,1,4.038,4.129h11.08a1.539,1.539,0,0,1,1.539,1.539v46.2A1.534,1.534,0,0,1,15.118,53.4H4.038A1.539,1.539,0,0,1,2.5,51.865V44.144" transform="translate(-2.499 -4.129)" fill="#f7d352"/>
        </g>
        <g id="Grupo_1099611" data-name="Grupo 1099611">
          <path id="Trazado_835727" data-name="Trazado 835727" d="M15.021,53.71H3.941A1.944,1.944,0,0,1,2,51.768V44.046a.4.4,0,1,1,.806,0v7.721A1.138,1.138,0,0,0,3.941,52.9h11.08a1.138,1.138,0,0,0,1.136-1.136V5.571a1.138,1.138,0,0,0-1.136-1.136H3.941A1.138,1.138,0,0,0,2.8,5.571V40.414a.4.4,0,0,1-.806,0V5.571A1.944,1.944,0,0,1,3.941,3.629h11.08a1.944,1.944,0,0,1,1.942,1.942v46.2A1.944,1.944,0,0,1,15.021,53.71Z" transform="translate(-1.999 -3.629)"/>
        </g>
      </g>
      <g id="Grupo_1099613" data-name="Grupo 1099613" transform="translate(4.081 9.417)">
        <path id="Trazado_835728" data-name="Trazado 835728" d="M15.077,12.422V29.456a.77.77,0,0,1-.77.77H5.853a.77.77,0,0,1-.77-.77V12.422a.77.77,0,0,1,.77-.77h8.453a.77.77,0,0,1,.77.77Z" transform="translate(-4.68 -11.249)" fill="#fff"/>
        <path id="Trazado_835729" data-name="Trazado 835729" d="M14.209,30.532H5.756a1.175,1.175,0,0,1-1.173-1.173V12.325a1.175,1.175,0,0,1,1.173-1.173h8.453a1.175,1.175,0,0,1,1.173,1.173V29.358A1.175,1.175,0,0,1,14.209,30.532ZM5.756,11.957a.367.367,0,0,0-.367.367V29.358a.367.367,0,0,0,.367.367h8.453a.367.367,0,0,0,.367-.367V12.325a.367.367,0,0,0-.367-.367Z" transform="translate(-4.583 -11.152)"/>
      </g>
      <g id="Grupo_1099614" data-name="Grupo 1099614" transform="translate(6.023 12.878)">
        <path id="Trazado_835730" data-name="Trazado 835730" d="M13.506,16.253H7.4a.4.4,0,1,1,0-.806h6.111a.4.4,0,0,1,0,.806Z" transform="translate(-6.992 -15.447)"/>
      </g>
      <g id="Grupo_1099615" data-name="Grupo 1099615" transform="translate(6.023 15.791)">
        <path id="Trazado_835731" data-name="Trazado 835731" d="M13.506,19.868H7.4a.4.4,0,1,1,0-.806h6.111a.4.4,0,1,1,0,.806Z" transform="translate(-6.992 -19.062)"/>
      </g>
      <g id="Grupo_1099616" data-name="Grupo 1099616" transform="translate(6.023 18.704)">
        <path id="Trazado_835732" data-name="Trazado 835732" d="M13.506,23.483H7.4a.4.4,0,1,1,0-.806h6.111a.4.4,0,1,1,0,.806Z" transform="translate(-6.992 -22.677)"/>
      </g>
      <g id="Grupo_1099617" data-name="Grupo 1099617" transform="translate(6.023 21.617)">
        <path id="Trazado_835733" data-name="Trazado 835733" d="M13.506,27.1H7.4a.4.4,0,1,1,0-.806h6.111a.4.4,0,0,1,0,.806Z" transform="translate(-6.992 -26.292)"/>
      </g>
      <g id="Grupo_1099618" data-name="Grupo 1099618" transform="translate(6.023 24.529)">
        <path id="Trazado_835734" data-name="Trazado 835734" d="M13.506,30.712H7.4a.4.4,0,1,1,0-.806h6.111a.4.4,0,1,1,0,.806Z" transform="translate(-6.992 -29.906)"/>
      </g>
      <g id="Grupo_1099619" data-name="Grupo 1099619" transform="translate(6.576 38.619)">
        <circle id="Elipse_11138" data-name="Elipse 11138" cx="2.502" cy="2.502" r="2.502" transform="translate(0.403 0.403)" fill="#fff"/>
        <path id="Trazado_835735" data-name="Trazado 835735" d="M10.584,53.2a2.9,2.9,0,1,1,2.905-2.9A2.908,2.908,0,0,1,10.584,53.2Zm0-5a2.1,2.1,0,1,0,2.1,2.1A2.1,2.1,0,0,0,10.584,48.2Z" transform="translate(-7.679 -47.392)"/>
      </g>
      <g id="Grupo_1099622" data-name="Grupo 1099622" transform="translate(17.697 3.358)">
        <g id="Grupo_1099620" data-name="Grupo 1099620" transform="translate(0.403 0.403)">
          <path id="Trazado_835736" data-name="Trazado 835736" d="M36.139,5.672V51.866a1.54,1.54,0,0,1-1.54,1.54H23.52a1.54,1.54,0,0,1-1.54-1.54V5.672a1.54,1.54,0,0,1,1.54-1.54H34.6a1.54,1.54,0,0,1,1.54,1.54Z" transform="translate(-21.98 -4.133)" fill="#0a5183"/>
        </g>
        <g id="Grupo_1099621" data-name="Grupo 1099621">
          <path id="Trazado_835737" data-name="Trazado 835737" d="M34.5,53.711H23.423a1.945,1.945,0,0,1-1.943-1.943V5.575a1.945,1.945,0,0,1,1.943-1.943H34.5a1.945,1.945,0,0,1,1.943,1.943V51.768A1.945,1.945,0,0,1,34.5,53.711ZM23.423,4.438a1.138,1.138,0,0,0-1.137,1.137V51.768a1.138,1.138,0,0,0,1.137,1.137H34.5a1.138,1.138,0,0,0,1.137-1.137V5.575A1.138,1.138,0,0,0,34.5,4.438Z" transform="translate(-21.481 -3.632)"/>
        </g>
      </g>
      <g id="Grupo_1099642" data-name="Grupo 1099642" transform="translate(33.395 3.358)">
        <g id="Grupo_1099620-2" data-name="Grupo 1099620" transform="translate(0.403 0.403)">
          <path id="Trazado_835736-2" data-name="Trazado 835736" d="M36.139,5.672V51.866a1.54,1.54,0,0,1-1.54,1.54H23.52a1.54,1.54,0,0,1-1.54-1.54V5.672a1.54,1.54,0,0,1,1.54-1.54H34.6a1.54,1.54,0,0,1,1.54,1.54Z" transform="translate(-21.98 -4.133)" fill="#ef586c"/>
        </g>
        <g id="Grupo_1099621-2" data-name="Grupo 1099621">
          <path id="Trazado_835737-2" data-name="Trazado 835737" d="M34.5,53.711H23.423a1.945,1.945,0,0,1-1.943-1.943V5.575a1.945,1.945,0,0,1,1.943-1.943H34.5a1.945,1.945,0,0,1,1.943,1.943V51.768A1.945,1.945,0,0,1,34.5,53.711ZM23.423,4.438a1.138,1.138,0,0,0-1.137,1.137V51.768a1.138,1.138,0,0,0,1.137,1.137H34.5a1.138,1.138,0,0,0,1.137-1.137V5.575A1.138,1.138,0,0,0,34.5,4.438Z" transform="translate(-21.481 -3.632)"/>
        </g>
      </g>
      <g id="Grupo_1099623" data-name="Grupo 1099623" transform="translate(19.779 9.417)">
        <path id="Trazado_835738" data-name="Trazado 835738" d="M34.558,12.422V29.456a.77.77,0,0,1-.77.77H25.335a.77.77,0,0,1-.77-.77V12.422a.77.77,0,0,1,.77-.77h8.453a.77.77,0,0,1,.77.77Z" transform="translate(-24.162 -11.249)" fill="#fff"/>
        <path id="Trazado_835739" data-name="Trazado 835739" d="M33.691,30.532H25.238a1.175,1.175,0,0,1-1.173-1.173V12.325a1.175,1.175,0,0,1,1.173-1.173h8.453a1.175,1.175,0,0,1,1.173,1.173V29.358A1.175,1.175,0,0,1,33.691,30.532ZM25.238,11.957a.367.367,0,0,0-.367.367V29.358a.367.367,0,0,0,.367.367h8.453a.367.367,0,0,0,.367-.367V12.325a.367.367,0,0,0-.367-.367Z" transform="translate(-24.065 -11.152)"/>
      </g>
      <g id="Grupo_1099643" data-name="Grupo 1099643" transform="translate(35.478 9.417)">
        <path id="Trazado_835738-2" data-name="Trazado 835738" d="M34.558,12.422V29.456a.77.77,0,0,1-.77.77H25.335a.77.77,0,0,1-.77-.77V12.422a.77.77,0,0,1,.77-.77h8.453a.77.77,0,0,1,.77.77Z" transform="translate(-24.162 -11.249)" fill="#fff"/>
        <path id="Trazado_835739-2" data-name="Trazado 835739" d="M33.691,30.532H25.238a1.175,1.175,0,0,1-1.173-1.173V12.325a1.175,1.175,0,0,1,1.173-1.173h8.453a1.175,1.175,0,0,1,1.173,1.173V29.358A1.175,1.175,0,0,1,33.691,30.532ZM25.238,11.957a.367.367,0,0,0-.367.367V29.358a.367.367,0,0,0,.367.367h8.453a.367.367,0,0,0,.367-.367V12.325a.367.367,0,0,0-.367-.367Z" transform="translate(-24.065 -11.152)"/>
      </g>
      <g id="Grupo_1099624" data-name="Grupo 1099624" transform="translate(21.72 15.791)">
        <path id="Trazado_835740" data-name="Trazado 835740" d="M32.988,19.868H26.877a.4.4,0,1,1,0-.806h6.111a.4.4,0,1,1,0,.806Z" transform="translate(-26.474 -19.062)"/>
      </g>
      <g id="Grupo_1099648" data-name="Grupo 1099648" transform="translate(37.419 15.791)">
        <path id="Trazado_835740-2" data-name="Trazado 835740" d="M32.988,19.868H26.877a.4.4,0,1,1,0-.806h6.111a.4.4,0,1,1,0,.806Z" transform="translate(-26.474 -19.062)"/>
      </g>
      <g id="Grupo_1099625" data-name="Grupo 1099625" transform="translate(21.72 18.704)">
        <path id="Trazado_835741" data-name="Trazado 835741" d="M32.988,23.483H26.877a.4.4,0,1,1,0-.806h6.111a.4.4,0,1,1,0,.806Z" transform="translate(-26.474 -22.677)"/>
      </g>
      <g id="Grupo_1099644" data-name="Grupo 1099644" transform="translate(37.419 18.704)">
        <path id="Trazado_835741-2" data-name="Trazado 835741" d="M32.988,23.483H26.877a.4.4,0,1,1,0-.806h6.111a.4.4,0,1,1,0,.806Z" transform="translate(-26.474 -22.677)"/>
      </g>
      <g id="Grupo_1099626" data-name="Grupo 1099626" transform="translate(21.72 21.617)">
        <path id="Trazado_835742" data-name="Trazado 835742" d="M32.988,27.1H26.877a.4.4,0,1,1,0-.806h6.111a.4.4,0,1,1,0,.806Z" transform="translate(-26.474 -26.292)"/>
      </g>
      <g id="Grupo_1099645" data-name="Grupo 1099645" transform="translate(37.419 21.617)">
        <path id="Trazado_835742-2" data-name="Trazado 835742" d="M32.988,27.1H26.877a.4.4,0,1,1,0-.806h6.111a.4.4,0,1,1,0,.806Z" transform="translate(-26.474 -26.292)"/>
      </g>
      <g id="Grupo_1099627" data-name="Grupo 1099627" transform="translate(21.72 24.529)">
        <path id="Trazado_835743" data-name="Trazado 835743" d="M32.988,30.712H26.877a.4.4,0,0,1,0-.806h6.111a.4.4,0,0,1,0,.806Z" transform="translate(-26.474 -29.906)"/>
      </g>
      <g id="Grupo_1099646" data-name="Grupo 1099646" transform="translate(37.419 24.529)">
        <path id="Trazado_835743-2" data-name="Trazado 835743" d="M32.988,30.712H26.877a.4.4,0,0,1,0-.806h6.111a.4.4,0,0,1,0,.806Z" transform="translate(-26.474 -29.906)"/>
      </g>
      <g id="Grupo_1099628" data-name="Grupo 1099628" transform="translate(22.274 38.619)">
        <circle id="Elipse_11139" data-name="Elipse 11139" cx="2.502" cy="2.502" r="2.502" transform="translate(0.404 0.403)" fill="#fff"/>
        <path id="Trazado_835744" data-name="Trazado 835744" d="M30.065,53.2a2.9,2.9,0,1,1,2.905-2.9A2.908,2.908,0,0,1,30.065,53.2Zm0-5a2.1,2.1,0,1,0,2.1,2.1A2.1,2.1,0,0,0,30.065,48.2Z" transform="translate(-27.16 -47.392)"/>
      </g>
      <g id="Grupo_1099647" data-name="Grupo 1099647" transform="translate(37.972 38.619)">
        <circle id="Elipse_11139-2" data-name="Elipse 11139" cx="2.502" cy="2.502" r="2.502" transform="translate(0.404 0.403)" fill="#fff"/>
        <path id="Trazado_835744-2" data-name="Trazado 835744" d="M30.065,53.2a2.9,2.9,0,1,1,2.905-2.9A2.908,2.908,0,0,1,30.065,53.2Zm0-5a2.1,2.1,0,1,0,2.1,2.1A2.1,2.1,0,0,0,30.065,48.2Z" transform="translate(-27.16 -47.392)"/>
      </g>
      <g id="Grupo_1099639" data-name="Grupo 1099639" transform="translate(21.72 12.878)">
        <path id="Trazado_835760" data-name="Trazado 835760" d="M32.988,16.253H26.877a.4.4,0,0,1,0-.806h6.111a.4.4,0,0,1,0,.806Z" transform="translate(-26.474 -15.447)"/>
      </g>
      <g id="Grupo_1099649" data-name="Grupo 1099649" transform="translate(37.419 12.878)">
        <path id="Trazado_835760-2" data-name="Trazado 835760" d="M32.988,16.253H26.877a.4.4,0,0,1,0-.806h6.111a.4.4,0,0,1,0,.806Z" transform="translate(-26.474 -15.447)"/>
      </g>
    </g>
  </g>
</svg>
