<svg xmlns="http://www.w3.org/2000/svg" width="69" height="69" viewBox="0 0 69 69">
  <g id="Grupo_980786" data-name="Grupo 980786" transform="translate(0 -0.417)">
    <rect id="Rectángulo_308310" data-name="Rectángulo 308310" width="69" height="69" transform="translate(0 0.417)" fill="none"/>
    <g id="Grupo_980787" data-name="Grupo 980787" transform="translate(6.719 5.175)">
      <path id="Trazado_640919" data-name="Trazado 640919" d="M45.914,577.5c-.9.1-1.093-.022-1.4-.888a6.712,6.712,0,0,1-.442-2.306c.006-.484-.113-.643-.64-.649a3.48,3.48,0,0,1-3.55-3.177,3.376,3.376,0,0,1,1.446-3.255.573.573,0,0,0,.279-.652c-.3-1.935-.613-3.869-.826-5.815a9.072,9.072,0,0,1,7.513-9.631,12.532,12.532,0,0,1,1.895-.12c.761,0,1.523,0,2.361,0a9.541,9.541,0,0,1-1.027-3.509c-.183-2.75-.134-5.456,1.52-7.86a9.38,9.38,0,0,1,4.047-3.391c.314-.136.451-.256.411-.66a4.249,4.249,0,0,1,4.142-4.629q4.006-.05,8.014,0a4.25,4.25,0,0,1,4.148,4.625c-.032.35.024.505.357.638A8.19,8.19,0,0,1,76.97,538.1a.618.618,0,0,0,.754.147,8.6,8.6,0,0,1,4.377-.265c.777.151.964.367.975,1.153a.925.925,0,0,1-1.177.57,7.766,7.766,0,0,0-1.891-.11,6.862,6.862,0,0,0-6.493,6.248c-.1,2.359-.025,4.725-.033,7.087,0,.241.035.4.337.406.322.007.387-.143.382-.421-.012-.614,0-1.229,0-1.844a4.156,4.156,0,0,1,5.3-4.326c.263.116.531.223.788.35a5.319,5.319,0,0,0,7.385-2.162c.447-.748,1.029-.819,1.627-.169a8.94,8.94,0,0,1,2.075,3.739,17.458,17.458,0,0,1,.251,4.3c.007.316,0,.54.44.545s.48-.205.478-.56c-.01-2.9,0-5.8-.009-8.7A2.55,2.55,0,0,0,87.87,542.6c-.579.763-1.133.766-1.685-.011a7.049,7.049,0,0,0-1.271-1.407.987.987,0,0,1-.329-1.318c.642-.476.922-.474,1.513.053.329.293.6.8.96.864.306.054.683-.424,1.057-.607a4.252,4.252,0,0,1,6.145,3.739c.045,3.17.017,6.342.008,9.512a.962.962,0,0,0,.363.83,3.552,3.552,0,0,1-2.328,6.217c-.415,0-.672-.014-.7.572a8.7,8.7,0,0,1-9.059,8.224c-.768-.033-.768-.033-.768.756,0,1.461,0,2.921,0,4.382a.841.841,0,0,0,.232.666,3.571,3.571,0,0,1-2.5,6.119c-.436.014-.6.07-.633.571a8.7,8.7,0,0,1-17.372-.017c-.013-.407-.082-.567-.535-.552a3.189,3.189,0,0,1-2.156-.669c-.293-.236-.437-.126-.668.055a8.63,8.63,0,0,1-11.031-.167c-.684-.591-.725-.79-.328-1.578a1.2,1.2,0,0,1,1.453.237,6.678,6.678,0,0,0,5.65,1.563,6.58,6.58,0,0,0,3.261-1.468.619.619,0,0,0,.249-.728,3.411,3.411,0,0,1,.945-3.332.886.886,0,0,0,.279-.707q-.015-2.564,0-5.129a17.821,17.821,0,0,1,.063-2.071,10.959,10.959,0,0,1,1.072-3.467,4,4,0,0,1-3.463-2c-.132-.22-.234-.23-.445-.1a5.815,5.815,0,0,1-5.873.228c-.361-.351-.606-.418-.935.117a3.579,3.579,0,0,1-2.743,1.7c-.442.051-.516.2-.514.6.015,3.129.011,6.258.007,9.387a6.34,6.34,0,0,0,.376,2.372A1.239,1.239,0,0,1,45.914,577.5Zm25.994-43.133a2.4,2.4,0,0,0-2.237-1.673c-1.876-.024-3.753,0-5.63.006-.8,0-1.611-.039-2.414-.007a2.551,2.551,0,0,0-2.416,2.466c0,.208-.044.435.309.395,2.007-.227,4.021-.073,6.032-.1,1.859-.024,3.72-.024,5.579.019C72.249,535.5,72.3,535.465,71.908,534.368Zm-18.8,18.825c-.019-.332-.187-.457-.525-.45-.882.017-1.766.015-2.648,0a7.255,7.255,0,0,0-3.74.96,7.174,7.174,0,0,0-3.682,6.808c.146,1.864.51,3.712.766,5.568.038.274.134.423.431.409.324-.016.286-.247.287-.454,0-.748-.015-1.5,0-2.245.041-1.554.092-1.883,1.779-1.827A2.186,2.186,0,0,0,48,559.913c.088-.962.644-1.258,1.488-.793a3.986,3.986,0,0,0,6.36.211.918.918,0,0,1,1-.4.863.863,0,0,1,.641.913,2.188,2.188,0,0,0,.109.563,2.068,2.068,0,0,0,2.323,1.5,8.826,8.826,0,0,1-2.912-6.3c-.009-.256-.115-.332-.351-.324A3.7,3.7,0,0,1,53.105,553.193Zm10.6,6.522a11.93,11.93,0,0,1,6.649-1.169.776.776,0,0,0,0-.175,3.476,3.476,0,0,1,1.181-4.354.62.62,0,0,0,.2-.552c0-1.653-.009-3.306.006-4.959,0-.325-.078-.447-.42-.525a8.707,8.707,0,0,1-5.467-3.739,1.583,1.583,0,0,1-.1-.259A9.57,9.57,0,0,1,62.54,547.1a9.156,9.156,0,0,1-3.5,1.037c-.323.016-.305.2-.3.424,0,2.382-.051,4.766.024,7.145a6.747,6.747,0,0,0,2.648,5.161c.227.186.4.3.672.023A10.461,10.461,0,0,1,63.707,559.716Zm-4.386-13.36a6.931,6.931,0,0,0,5.453-4.268c.055-.122.1-.247.162-.368a.814.814,0,0,1,.766-.511.833.833,0,0,1,.815.529c.066.138.112.285.175.425a7,7,0,0,0,4.661,4.041c.212.06.384.16.408-.212a8.465,8.465,0,0,1,3.583-6.53c.268-.2.252-.3.012-.493a6.905,6.905,0,0,0-3.668-1.665c-2.582-.274-5.178-.085-7.767-.1-1.056-.006-2.112-.026-3.168-.016a7.637,7.637,0,0,0-7.215,5.436,13.572,13.572,0,0,0-.263,4.858,4.917,4.917,0,0,0,.458,1.819,3.555,3.555,0,0,1,2.726-1.152c.475.024.567-.144.554-.576-.024-.811.272-1.077,1.1-1.117C58.52,546.432,58.92,546.388,59.321,546.356Zm12.45,13.921c-1.132-.009-2.264-.031-3.4-.023a8.125,8.125,0,0,0-8.024,8.061c-.008,1.728,0,3.456,0,5.184,0,.292-.1.638.431.574.381-.046.732.054.722-.57-.038-2.265-.011-4.531-.018-6.8,0-.465.028-.9.533-1.1s.827.068,1.159.4a13.448,13.448,0,0,0,3.865,2.762c.082.048.162.1.247.143a13.681,13.681,0,0,0,10.2.71c.969-.293,1.424.052,1.427,1.063s.015,2,0,3c-.011.558.393.336.647.371.234.032.507.1.5-.323-.053-2.149.111-4.3-.1-6.449A8.094,8.094,0,0,0,71.771,560.277Zm-.8,27.911a6.98,6.98,0,0,0,6.194-6.8c.048-3.146.005-6.294.023-9.44,0-.412-.131-.414-.464-.336a15.693,15.693,0,0,1-3.363.4,16.686,16.686,0,0,1-6.322-1.263,20.534,20.534,0,0,1-3.8-2.335c-.012.16-.021.23-.021.3q0,6.362.007,12.724a6.434,6.434,0,0,0,1.543,4.234A6.675,6.675,0,0,0,70.971,588.188Zm12.789-20.7a6.929,6.929,0,0,0,6.1-6.357c.128-3.687.086-7.379.007-11.069a6.176,6.176,0,0,0-.97-2.979c-.18-.308-.3-.435-.58-.059a5.854,5.854,0,0,1-1.89,1.577,7.15,7.15,0,0,1-6.692.181,2.371,2.371,0,0,0-3.774,1.869c-.053,2.8-.013,5.608-.021,8.412a.426.426,0,0,0,.262.452,10.463,10.463,0,0,1,3.731,3.088,14.631,14.631,0,0,1,1.414,2.832,2.518,2.518,0,0,0,.136.607c.231.459-.1,1.179.462,1.413a3.548,3.548,0,0,0,1.643.062C83.647,567.513,83.7,567.5,83.759,567.489ZM91.643,556.9c0,.5.013,1-.005,1.492-.01.275.084.351.358.363a1.9,1.9,0,0,0,2.112-1.846A1.919,1.919,0,0,0,92,555.053c-.27.011-.373.08-.363.359C91.656,555.909,91.643,556.407,91.643,556.9ZM44.058,570.118c0-.5,0-1,0-1.493,0-.215-.039-.38-.3-.385a1.937,1.937,0,0,0-2.172,1.745,1.865,1.865,0,0,0,1.825,1.951c.475.027.723-.068.66-.613A10.735,10.735,0,0,1,44.058,570.118Zm17.428,7.525c0-.5-.006-1,0-1.5,0-.22-.024-.352-.3-.364a1.9,1.9,0,0,0-1.879.868,1.75,1.75,0,0,0-.012,1.907,1.926,1.926,0,0,0,1.858.917c.244-.005.343-.081.335-.334C61.476,578.641,61.486,578.142,61.486,577.643Zm-4.48-25.94c0-.5,0-1,0-1.493,0-.164.042-.316-.233-.353a1.923,1.923,0,0,0-2.2,1.623,1.863,1.863,0,0,0,1.86,2.079c.41.017.636-.043.58-.537A11.84,11.84,0,0,1,57.006,551.7Zm21.9,25.924c0,.479.02.96-.007,1.438-.019.34.112.412.428.412a1.858,1.858,0,1,0-.063-3.7c-.264.008-.378.058-.365.35C78.927,576.629,78.91,577.128,78.91,577.627Zm-4.7-20.668q0-.778,0-1.555c0-.171.024-.317-.243-.352a1.977,1.977,0,0,0-2.062,1.156,1.847,1.847,0,0,0,.262,1.848c.472.668,1.225.542,1.879.686.208.046.16-.168.162-.286C74.217,557.957,74.213,557.458,74.213,556.959Z" transform="translate(-39.858 -530.937)" fill="#030302"/>
      <path id="Trazado_640920" data-name="Trazado 640920" d="M73.585,682.574a6.679,6.679,0,0,1-5.65-1.563,1.2,1.2,0,0,0-1.453-.237,2.976,2.976,0,0,1-.871-1.335,1.239,1.239,0,0,0,.248-1.472,6.341,6.341,0,0,1-.376-2.372c0-3.129.008-6.258-.007-9.387,0-.4.072-.545.514-.6a3.579,3.579,0,0,0,2.743-1.7c.329-.535.574-.468.935-.117a.408.408,0,0,0-.118.367q.011,2.1.023,4.2a17.167,17.167,0,0,0,0,2.3l-.039,2.75a.892.892,0,0,0-.838.671.92.92,0,0,0,.419.992c.187.162.377.321.566.481-.306.321,0,.654,0,.976a6.353,6.353,0,0,0,.92,3.025A8.824,8.824,0,0,0,73.585,682.574Z" transform="translate(-59.554 -632.875)" fill="#aa705c"/>
      <path id="Trazado_640921" data-name="Trazado 640921" d="M216.409,567.942a.987.987,0,0,0,.329,1.318,7.047,7.047,0,0,1,1.271,1.407c.552.777,1.106.774,1.685.011a2.544,2.544,0,0,1,4.663,1.478c0,2.9,0,5.8.009,8.7,0,.354-.025.565-.478.56s-.432-.229-.44-.545a17.458,17.458,0,0,0-.251-4.3,8.941,8.941,0,0,0-2.076-3.739c-.6-.65-1.18-.579-1.627.169a5.319,5.319,0,0,1-7.385,2.162c-.257-.128-.525-.234-.788-.35a7.589,7.589,0,0,1,3.163-6.57c.331-.259.848-.3.985-.794Z" transform="translate(-171.683 -559.012)" fill="#3e5d79"/>
      <path id="Trazado_640922" data-name="Trazado 640922" d="M195.428,566.633c-.138.5-.654.535-.985.794a7.589,7.589,0,0,0-3.163,6.57,4.156,4.156,0,0,0-5.3,4.326c0,.615-.008,1.23,0,1.844.005.277-.06.428-.382.421-.3-.007-.338-.165-.337-.406.008-2.363-.065-4.728.033-7.087a6.862,6.862,0,0,1,6.493-6.248,7.762,7.762,0,0,1,1.891.11.925.925,0,0,0,1.177-.57Z" transform="translate(-151.64 -558.192)" fill="#314c63"/>
      <path id="Trazado_640923" data-name="Trazado 640923" d="M213.9,618.183a14.632,14.632,0,0,0-1.414-2.833,11.509,11.509,0,0,1-.2-2.5c.144.093.29.184.432.279a5.024,5.024,0,0,0,6.171-.494c.557-.531.5-1.219-.119-1.517a.9.9,0,0,0-1.047.229,3.207,3.207,0,0,1-4.485-.021,1.167,1.167,0,0,0-.955-.282q0-4.758.009-9.516a7.15,7.15,0,0,0,6.693-.181,5.854,5.854,0,0,0,1.89-1.577c.285-.376.4-.249.58.059a6.176,6.176,0,0,1,.97,2.979c.079,3.689.122,7.382-.007,11.069a6.929,6.929,0,0,1-6.1,6.357A12.362,12.362,0,0,1,213.9,618.183ZM212.59,607.11h0c0,.307-.024.616.006.92a.844.844,0,0,0,1.653.109,5.842,5.842,0,0,0,.008-2,.756.756,0,0,0-.879-.651.775.775,0,0,0-.787.762C212.567,606.532,212.59,606.822,212.59,607.11Zm5.8-.007c0-.269.018-.539,0-.806a.8.8,0,0,0-.8-.811.771.771,0,0,0-.891.713,9.266,9.266,0,0,0,0,1.84.776.776,0,0,0,.881.728.793.793,0,0,0,.817-.8C218.409,607.68,218.391,607.391,218.392,607.1Z" transform="translate(-172.408 -583.683)" fill="#f9eae3"/>
      <path id="Trazado_640924" data-name="Trazado 640924" d="M157.444,703.162a16.687,16.687,0,0,0,6.322,1.263,15.693,15.693,0,0,0,3.363-.4c.334-.078.467-.076.464.336-.018,3.147.025,6.294-.023,9.44a6.98,6.98,0,0,1-6.194,6.8c-.115-.1-.222-.208-.345-.294a7.8,7.8,0,0,1-3.579-7.029c.145.09.292.179.436.271A5,5,0,0,0,164,713.01a.873.873,0,1,0-1.135-1.312,3.216,3.216,0,0,1-4.519.01,1.173,1.173,0,0,0-.9-.279Q157.445,707.3,157.444,703.162Zm4.36,4.321H161.8a8.6,8.6,0,0,0,.006.92.78.78,0,0,0,.8.747.748.748,0,0,0,.846-.622,5.656,5.656,0,0,0,0-2.059.756.756,0,0,0-.856-.615.774.774,0,0,0-.784.708A7.828,7.828,0,0,0,161.8,707.483Zm-2.4.042c0-.286.018-.574,0-.859a.846.846,0,0,0-.863-.819.818.818,0,0,0-.844.779,11.067,11.067,0,0,0,0,1.775.8.8,0,0,0,.856.755.841.841,0,0,0,.849-.828C159.423,708.061,159.408,707.793,159.407,707.525Z" transform="translate(-130.264 -663.352)" fill="#f9eae3"/>
      <path id="Trazado_640925" data-name="Trazado 640925" d="M83.066,668.234q-.012-2.1-.023-4.2a.408.408,0,0,1,.118-.367,5.814,5.814,0,0,0,5.873-.228c.211-.13.313-.12.445.1a4,4,0,0,0,3.463,2,10.96,10.96,0,0,0-1.072,3.468,17.818,17.818,0,0,0-.063,2.071q-.009,2.564,0,5.129a.886.886,0,0,1-.279.707,3.411,3.411,0,0,0-.945,3.332.62.62,0,0,1-.249.728,6.578,6.578,0,0,1-3.261,1.468,8.822,8.822,0,0,1-2.984-3.018,6.353,6.353,0,0,1-.92-3.025c-.006-.322-.308-.655,0-.976.135.071.271.139.4.211a5.025,5.025,0,0,0,5.812-.79.861.861,0,0,0-.175-1.474.972.972,0,0,0-1.094.279,3.2,3.2,0,0,1-4.349,0,2.217,2.217,0,0,0-.747-.375q.019-1.375.039-2.75c.29.365.617.647,1.127.449a.964.964,0,0,0,.579-1.077c-.011-.345-.011-.691,0-1.036a.964.964,0,0,0-.575-1.079C83.685,667.59,83.355,667.865,83.066,668.234Zm5.771,1.172a8.663,8.663,0,0,0-.006-.921.793.793,0,0,0-.808-.753.775.775,0,0,0-.864.685,6.064,6.064,0,0,0,0,1.949.772.772,0,0,0,.875.669.8.8,0,0,0,.8-.766A7.9,7.9,0,0,0,88.837,669.406Z" transform="translate(-73.046 -632.745)" fill="#b7877a"/>
      <path id="Trazado_640926" data-name="Trazado 640926" d="M162.136,657.831a8.094,8.094,0,0,1,8.181,7c.209,2.145.045,4.3.1,6.449.011.424-.262.356-.5.323-.254-.035-.658.186-.647-.371.019-1,.007-2,0-3s-.458-1.355-1.427-1.063a13.68,13.68,0,0,1-10.2-.71c-.086-.041-.165-.1-.247-.143a8.34,8.34,0,0,1,.35-2.933,8.93,8.93,0,0,1,4.107-5.223C162,658.085,162.12,658.006,162.136,657.831Z" transform="translate(-130.223 -628.491)" fill="#9b847d"/>
      <path id="Trazado_640927" data-name="Trazado 640927" d="M128.613,557.875c2.59.018,5.185-.17,7.767.1a6.905,6.905,0,0,1,3.668,1.665c.24.2.255.293-.012.493a8.465,8.465,0,0,0-3.583,6.53c-.023.372-.2.272-.408.212a7,7,0,0,1-4.661-4.041c-.063-.14-.109-.287-.175-.425a.833.833,0,0,0-.815-.529.814.814,0,0,0-.766.511c-.057.121-.107.246-.162.368a6.93,6.93,0,0,1-5.453,4.268c0-.46,0-.92-.012-1.38a8.6,8.6,0,0,1,1.525-5.016A9.849,9.849,0,0,1,128.613,557.875Z" transform="translate(-104.549 -551.613)" fill="#f6ce74"/>
      <path id="Trazado_640928" data-name="Trazado 640928" d="M137.985,590.5a9.57,9.57,0,0,0,3.214-3.117,1.579,1.579,0,0,0,.1.259,8.707,8.707,0,0,0,5.467,3.739c.341.078.423.2.42.525-.015,1.653-.007,3.306-.006,4.959a.62.62,0,0,1-.2.552,3.476,3.476,0,0,0-1.181,4.354.775.775,0,0,1,0,.175,11.931,11.931,0,0,0-6.649,1.169,4.881,4.881,0,0,0-.481-1.092,4.8,4.8,0,0,1-.553-2.011c.178.112.353.228.533.335a5,5,0,0,0,5.864-.612,1.056,1.056,0,0,0,.395-.548.826.826,0,0,0-.36-.95.9.9,0,0,0-1.148.164,3.2,3.2,0,0,1-4.469,0,1.234,1.234,0,0,0-.948-.3Zm4.373,3.678c0,.269-.011.538,0,.806a.8.8,0,0,0,.776.838.81.81,0,0,0,.929-.739,12.246,12.246,0,0,0,0-1.783.814.814,0,0,0-.918-.754.8.8,0,0,0-.788.825C142.345,593.635,142.358,593.9,142.358,594.174Zm-2.393.016h0c0-.288.017-.577,0-.863a.773.773,0,0,0-.766-.781.757.757,0,0,0-.9.627,5.809,5.809,0,0,0,0,2,.758.758,0,0,0,.885.645.772.772,0,0,0,.78-.766C139.985,594.766,139.965,594.477,139.965,594.189Z" transform="translate(-115.303 -574.332)" fill="#f8e8e1"/>
      <path id="Trazado_640929" data-name="Trazado 640929" d="M144.74,695.4q0,4.134,0,8.267c-.718.416-.834.987-.31,1.526l.317.325a7.8,7.8,0,0,0,3.579,7.029c.123.086.231.2.345.295a6.676,6.676,0,0,1-6.2-2.518,6.433,6.433,0,0,1-1.543-4.234q-.016-6.362-.007-12.724c0-.07.01-.14.021-.3A20.535,20.535,0,0,0,144.74,695.4Z" transform="translate(-117.56 -655.585)" fill="#f8dcce"/>
      <path id="Trazado_640930" data-name="Trazado 640930" d="M108.248,557.966a9.848,9.848,0,0,0-3.089,2.761,8.6,8.6,0,0,0-1.525,5.016c.011.46.009.92.012,1.38-.4.033-.8.076-1.2.1-.832.04-1.128.306-1.1,1.117.013.432-.079.6-.554.576a3.555,3.555,0,0,0-2.726,1.152,4.917,4.917,0,0,1-.458-1.819,13.572,13.572,0,0,1,.263-4.858,7.637,7.637,0,0,1,7.215-5.436C106.136,557.939,107.192,557.959,108.248,557.966Z" transform="translate(-84.184 -551.703)" fill="#f4c164"/>
      <path id="Trazado_640931" data-name="Trazado 640931" d="M58.246,631.651c-.844-.465-1.4-.169-1.488.793a2.186,2.186,0,0,1-2.226,2.052c-1.686-.056-1.738.273-1.779,1.827-.02.748,0,1.5,0,2.245,0,.207.037.439-.287.454-.3.015-.393-.135-.431-.409-.256-1.857-.62-3.7-.766-5.568a7.174,7.174,0,0,1,3.682-6.808,7.255,7.255,0,0,1,3.74-.96c.883.012,1.766.014,2.648,0,.337-.006.506.118.525.451A7.686,7.686,0,0,0,58.246,631.651Z" transform="translate(-48.612 -603.468)" fill="#314c63"/>
      <path id="Trazado_640932" data-name="Trazado 640932" d="M139.906,657.785c-.015.174-.136.253-.274.336a8.93,8.93,0,0,0-4.107,5.223,8.339,8.339,0,0,0-.35,2.933,13.45,13.45,0,0,1-3.865-2.762c-.333-.336-.668-.6-1.159-.4s-.534.637-.533,1.1c.008,2.266-.019,4.532.019,6.8.01.624-.341.524-.722.57-.529.064-.431-.281-.431-.574,0-1.728-.007-3.456,0-5.184a8.125,8.125,0,0,1,8.024-8.061C137.642,657.754,138.774,657.777,139.906,657.785Z" transform="translate(-107.994 -628.445)" fill="#88726d"/>
      <path id="Trazado_640933" data-name="Trazado 640933" d="M125.28,600.864v7.6c-.751.514-.815,1.022-.2,1.607.109.1.223.2.334.3a4.806,4.806,0,0,0,.553,2.011,4.875,4.875,0,0,1,.481,1.092,10.465,10.465,0,0,0-1.627,1.175c-.268.272-.445.163-.672-.023a6.747,6.747,0,0,1-2.648-5.161c-.076-2.38-.02-4.764-.025-7.146,0-.22-.018-.407.3-.423A9.157,9.157,0,0,0,125.28,600.864Z" transform="translate(-102.598 -584.7)" fill="#f8dcce"/>
      <path id="Trazado_640934" data-name="Trazado 640934" d="M199.737,606.65q0,4.758-.009,9.516c-.6.432-.745.9-.409,1.356a5.251,5.251,0,0,0,.414.45,11.511,11.511,0,0,0,.2,2.5,10.462,10.462,0,0,0-3.731-3.088.426.426,0,0,1-.262-.452c.008-2.8-.032-5.609.021-8.412A2.371,2.371,0,0,1,199.737,606.65Z" transform="translate(-159.858 -588.803)" fill="#f8dcce"/>
      <path id="Trazado_640935" data-name="Trazado 640935" d="M81.537,633.15a7.686,7.686,0,0,1,3.613-5.926,3.7,3.7,0,0,0,3.554,2.093c.236-.008.342.068.351.324a8.826,8.826,0,0,0,2.912,6.3,2.068,2.068,0,0,1-2.323-1.5,2.186,2.186,0,0,1-.109-.563.863.863,0,0,0-.641-.913.918.918,0,0,0-1,.4A3.986,3.986,0,0,1,81.537,633.15Z" transform="translate(-71.903 -604.967)" fill="#3e5d79"/>
      <path id="Trazado_640936" data-name="Trazado 640936" d="M136.271,540.168c.4,1.1.34,1.132-.778,1.106-1.859-.043-3.719-.044-5.579-.019-2.011.026-4.025-.127-6.032.1-.353.04-.31-.187-.309-.395a2.551,2.551,0,0,1,2.416-2.466c.8-.032,1.609,0,2.414.007-.141.407-.516.653-.7,1.031-.293.593-.252.678.4.678,2.436,0,4.872.01,7.308-.013C135.692,540.2,135.995,540.422,136.271,540.168Z" transform="translate(-104.221 -536.737)" fill="#f4c164"/>
      <path id="Trazado_640937" data-name="Trazado 640937" d="M149.426,540.183c-.276.254-.579.027-.864.03-2.436.023-4.872.014-7.308.013-.65,0-.692-.085-.4-.678.187-.379.562-.625.7-1.031,1.877,0,3.754-.03,5.63-.006A2.4,2.4,0,0,1,149.426,540.183Z" transform="translate(-117.376 -536.751)" fill="#f6ce74"/>
      <path id="Trazado_640938" data-name="Trazado 640938" d="M263.873,637.115c0-.5.013-1-.005-1.492-.01-.279.094-.348.363-.359a1.919,1.919,0,0,1,2.107,1.86,1.9,1.9,0,0,1-2.112,1.846c-.274-.012-.368-.088-.358-.363C263.886,638.11,263.873,637.612,263.873,637.115Z" transform="translate(-212.087 -611.147)" fill="#f2c9bc"/>
      <path id="Trazado_640939" data-name="Trazado 640939" d="M49.763,694.194a10.629,10.629,0,0,0,.009,1.205c.063.545-.184.64-.66.613a1.865,1.865,0,0,1-1.825-1.951,1.937,1.937,0,0,1,2.172-1.745c.265,0,.305.17.3.385C49.76,693.2,49.763,693.7,49.763,694.194Z" transform="translate(-45.563 -655.013)" fill="#965d4e"/>
      <path id="Trazado_640940" data-name="Trazado 640940" d="M125.221,726.794c0,.5-.01,1,0,1.5.007.253-.091.329-.335.334a1.926,1.926,0,0,1-1.858-.917,1.75,1.75,0,0,1,.012-1.907,1.9,1.9,0,0,1,1.879-.868c.278.012.305.144.3.364C125.215,725.8,125.221,726.295,125.221,726.794Z" transform="translate(-103.594 -680.088)" fill="#f2c9bc"/>
      <path id="Trazado_640941" data-name="Trazado 640941" d="M105.927,614.576a11.785,11.785,0,0,0,.01,1.319c.056.495-.171.554-.58.537a1.863,1.863,0,0,1-1.86-2.079,1.923,1.923,0,0,1,2.2-1.623c.275.037.232.189.233.353C105.928,613.581,105.927,614.079,105.927,614.576Z" transform="translate(-88.779 -593.81)" fill="#f2c9bc"/>
      <path id="Trazado_640942" data-name="Trazado 640942" d="M208.775,726.785c0-.5.017-1-.006-1.5-.014-.292.1-.341.365-.35a1.858,1.858,0,1,1,.063,3.7c-.316,0-.447-.072-.428-.412C208.8,727.746,208.775,727.265,208.775,726.785Z" transform="translate(-169.723 -680.095)" fill="#f2c9bc"/>
      <path id="Trazado_640943" data-name="Trazado 640943" d="M180.352,637.12c0,.5,0,1,0,1.5,0,.118.046.332-.162.286-.654-.144-1.407-.018-1.879-.686a1.847,1.847,0,0,1-.262-1.848,1.977,1.977,0,0,1,2.062-1.156c.267.035.243.181.243.352Q180.353,636.342,180.352,637.12Z" transform="translate(-145.997 -611.097)" fill="#f2c9bc"/>
      <path id="Trazado_640944" data-name="Trazado 640944" d="M219.358,680.191a12.36,12.36,0,0,0,2.41,2.052c-.056.01-.112.024-.168.029a3.549,3.549,0,0,1-1.643-.062c-.561-.234-.232-.953-.462-1.413A2.516,2.516,0,0,1,219.358,680.191Z" transform="translate(-177.867 -645.691)" fill="#f8dcce"/>
      <path id="Trazado_640945" data-name="Trazado 640945" d="M80.121,706.306a2.214,2.214,0,0,1,.747.374,3.2,3.2,0,0,0,4.349,0,.972.972,0,0,1,1.094-.279.861.861,0,0,1,.175,1.474,5.025,5.025,0,0,1-5.812.79c-.134-.072-.27-.141-.4-.211-.189-.16-.379-.318-.566-.481a.92.92,0,0,1-.419-.992A.892.892,0,0,1,80.121,706.306Z" transform="translate(-70.143 -665.769)" fill="#030302"/>
      <path id="Trazado_640946" data-name="Trazado 640946" d="M83.074,682.766c.288-.37.618-.644,1.127-.445a.964.964,0,0,1,.575,1.079c-.011.345-.011.691,0,1.036a.964.964,0,0,1-.579,1.077c-.509.2-.837-.085-1.127-.449A17.169,17.169,0,0,1,83.074,682.766Z" transform="translate(-73.053 -647.278)" fill="#040404"/>
      <path id="Trazado_640947" data-name="Trazado 640947" d="M210.4,651.078a5.294,5.294,0,0,1-.414-.45c-.336-.459-.19-.924.409-1.356a1.167,1.167,0,0,1,.955.282,3.207,3.207,0,0,0,4.485.021.9.9,0,0,1,1.047-.229c.621.3.676.987.119,1.517a5.024,5.024,0,0,1-6.171.494C210.69,651.262,210.544,651.171,210.4,651.078Z" transform="translate(-170.525 -621.908)" fill="#040404"/>
      <path id="Trazado_640948" data-name="Trazado 640948" d="M213.667,626.875c0-.288-.023-.578.005-.863a.775.775,0,0,1,.787-.762.756.756,0,0,1,.879.651,5.842,5.842,0,0,1-.008,2,.844.844,0,0,1-1.653-.109c-.03-.3-.006-.613-.006-.92Z" transform="translate(-173.484 -603.448)" fill="#040404"/>
      <path id="Trazado_640949" data-name="Trazado 640949" d="M232.983,626.869c0,.288.018.578,0,.864a.793.793,0,0,1-.817.8.776.776,0,0,1-.881-.728,9.264,9.264,0,0,1,0-1.84.771.771,0,0,1,.891-.713.8.8,0,0,1,.8.811C233,626.329,232.984,626.6,232.983,626.869Z" transform="translate(-186.999 -603.448)" fill="#040404"/>
      <path id="Trazado_640950" data-name="Trazado 640950" d="M155.346,740.741l-.317-.325c-.524-.539-.408-1.11.31-1.526a1.172,1.172,0,0,1,.9.279,3.216,3.216,0,0,0,4.519-.01.873.873,0,1,1,1.135,1.312,5,5,0,0,1-6.112.541C155.637,740.92,155.491,740.831,155.346,740.741Z" transform="translate(-128.157 -690.813)" fill="#040404"/>
      <path id="Trazado_640951" data-name="Trazado 640951" d="M176.252,716.433a7.825,7.825,0,0,1,.007-.92.774.774,0,0,1,.784-.708.756.756,0,0,1,.856.615,5.656,5.656,0,0,1,0,2.059.748.748,0,0,1-.846.622.78.78,0,0,1-.8-.747,8.605,8.605,0,0,1-.006-.92Z" transform="translate(-144.712 -672.302)" fill="#040404"/>
      <path id="Trazado_640952" data-name="Trazado 640952" d="M160.133,716.449c0,.268.016.536,0,.8a.841.841,0,0,1-.849.828.8.8,0,0,1-.856-.755,11.071,11.071,0,0,1,0-1.775.818.818,0,0,1,.844-.779.846.846,0,0,1,.863.819C160.15,715.875,160.132,716.163,160.133,716.449Z" transform="translate(-130.99 -672.276)" fill="#040404"/>
      <path id="Trazado_640953" data-name="Trazado 640953" d="M102.336,683.967a8.072,8.072,0,0,1,0,.863.8.8,0,0,1-.8.766.772.772,0,0,1-.875-.669,6.065,6.065,0,0,1,0-1.949.776.776,0,0,1,.864-.685.793.793,0,0,1,.808.753A8.851,8.851,0,0,1,102.336,683.967Z" transform="translate(-86.544 -647.307)" fill="#040404"/>
      <path id="Trazado_640954" data-name="Trazado 640954" d="M136.065,635.64c-.111-.1-.225-.2-.334-.3-.614-.585-.55-1.093.2-1.607a1.234,1.234,0,0,1,.948.3,3.2,3.2,0,0,0,4.469,0,.9.9,0,0,1,1.148-.164.826.826,0,0,1,.36.95,1.056,1.056,0,0,1-.395.548,5,5,0,0,1-5.864.612C136.418,635.869,136.243,635.752,136.065,635.64Z" transform="translate(-113.25 -609.964)" fill="#040404"/>
      <path id="Trazado_640955" data-name="Trazado 640955" d="M156.887,611.335c0-.269-.013-.538,0-.806a.8.8,0,0,1,.788-.825.814.814,0,0,1,.918.753,12.245,12.245,0,0,1,0,1.783.81.81,0,0,1-.929.738.8.8,0,0,1-.776-.838C156.875,611.873,156.886,611.6,156.887,611.335Z" transform="translate(-129.832 -591.493)" fill="#040404"/>
      <path id="Trazado_640956" data-name="Trazado 640956" d="M140.716,611.356c0,.288.021.577,0,.863a.772.772,0,0,1-.78.766.758.758,0,0,1-.885-.645,5.809,5.809,0,0,1,0-2,.757.757,0,0,1,.9-.627.773.773,0,0,1,.766.781c.021.286,0,.575,0,.863Z" transform="translate(-116.055 -591.499)" fill="#040404"/>
    </g>
  </g>
</svg>
