<svg xmlns="http://www.w3.org/2000/svg" width="121" height="81.329" viewBox="0 0 121 81.329">
  <g id="c3" transform="translate(-187.117 -4638.133)">
    <rect id="Rectángulo_392705" data-name="Rectángulo 392705" width="121" height="33" rx="5" transform="translate(187.117 4660)" fill="#f0bd51"/>
    <g id="tarjeta-de-memoria" transform="translate(206.953 4638.133)">
      <g id="Grupo_1099580" data-name="Grupo 1099580" transform="translate(1.312 13.118)">
        <g id="Grupo_1099572" data-name="Grupo 1099572" transform="translate(66.9 24.923)">
          <path id="Trazado_835712" data-name="Trazado 835712" d="M423.871,232v5.247H416V232h7.871Z" transform="translate(-416 -232)" fill="#aab2bd"/>
        </g>
        <g id="Grupo_1099573" data-name="Grupo 1099573" transform="translate(62.964 30.17)">
          <path id="Trazado_835713" data-name="Trazado 835713" d="M403.806,264h-7.871L392,269.247v13.118h15.741V269.247Z" transform="translate(-392 -264)" fill="#ccd1d9"/>
        </g>
        <g id="Grupo_1099574" data-name="Grupo 1099574" transform="translate(65.588 48.535)">
          <path id="Trazado_835714" data-name="Trazado 835714" d="M408,376h10.494v7.871H408Z" transform="translate(-408 -376)" fill="#ffeaa7"/>
        </g>
        <g id="Grupo_1099575" data-name="Grupo 1099575">
          <path id="Trazado_835715" data-name="Trazado 835715" d="M60.47,85.247v22.3a5.248,5.248,0,0,0-5.247-5.247H13.247A5.248,5.248,0,0,0,8,107.547v-22.3A5.248,5.248,0,0,1,13.247,80H55.223A5.248,5.248,0,0,1,60.47,85.247Z" transform="translate(-8 -80)" fill="#aab2bd"/>
        </g>
        <g id="Grupo_1099576" data-name="Grupo 1099576" transform="translate(0 22.3)">
          <path id="Trazado_835716" data-name="Trazado 835716" d="M60.47,225.182v3.935a5.248,5.248,0,0,1-5.247,5.247H49.976v-2.624l-2.624-2.624h6.559a1.311,1.311,0,0,0,1.312-1.312v-5.247a1.311,1.311,0,0,0-1.312-1.312H14.559a1.311,1.311,0,0,0-1.312,1.312v5.247a1.311,1.311,0,0,0,1.312,1.312h3.935v5.247H13.247A5.248,5.248,0,0,1,8,229.118v-7.871A5.248,5.248,0,0,1,13.247,216H55.223a5.248,5.248,0,0,1,5.247,5.247Z" transform="translate(-8 -216)" fill="#ccd1d9"/>
        </g>
        <g id="Grupo_1099577" data-name="Grupo 1099577" transform="translate(5.247 27.547)">
          <path id="Trazado_835717" data-name="Trazado 835717" d="M81.976,249.312v5.247a1.311,1.311,0,0,1-1.312,1.312H74.106l-2.624-2.624H45.247v2.624H41.312A1.311,1.311,0,0,1,40,254.559v-5.247A1.311,1.311,0,0,1,41.312,248H80.665A1.311,1.311,0,0,1,81.976,249.312Z" transform="translate(-40 -248)" fill="#e6e9ed"/>
        </g>
        <g id="Grupo_1099578" data-name="Grupo 1099578" transform="translate(10.494 32.794)">
          <path id="Trazado_835718" data-name="Trazado 835718" d="M103.482,300.988v13.118H72V298.365h2.624v-5.247H72V280H98.235l2.624,2.624,2.624,2.624v10.494h-2.624v5.247Z" transform="translate(-72 -280)" fill="#fcd770"/>
        </g>
        <g id="Grupo_1099579" data-name="Grupo 1099579" transform="translate(18.365 38.041)">
          <path id="Trazado_835719" data-name="Trazado 835719" d="M120,312h15.741v23.612H120Z" transform="translate(-120 -312)" fill="#ffeaa7"/>
        </g>
      </g>
      <g id="Grupo_1099581" data-name="Grupo 1099581">
        <path id="Trazado_835720" data-name="Trazado 835720" d="M81.329,48.1l-3.935-5.247V36.729H73.459V5.247a5.247,5.247,0,1,0-10.494,0v22.3a1.312,1.312,0,1,1-2.624,0V6.559a6.559,6.559,0,0,0-13.118,0v5.247H6.559A6.566,6.566,0,0,0,0,18.365v30.17a6.566,6.566,0,0,0,6.559,6.559h3.935v5.247h2.624v2.624H10.494V81.329H44.6V65.588H41.976V62.964H44.6v-7.87h3.935a6.566,6.566,0,0,0,6.559-6.559V18.365a6.57,6.57,0,0,0-5.247-6.427V6.559a3.935,3.935,0,0,1,7.871,0V27.547a3.935,3.935,0,1,0,7.871,0V5.247a2.624,2.624,0,0,1,5.247,0V36.729H66.9v6.121L62.964,48.1V62.964h2.624v7.871H78.706V62.964h2.624ZM10.494,44.6v2.624H7.871V41.976H47.223v5.247H41.208L38.584,44.6ZM41.976,60.341H39.353v7.87h2.624V78.706H13.118V65.588h2.624V57.717H13.118V47.223H37.5L41.976,51.7ZM52.47,48.535a3.94,3.94,0,0,1-3.935,3.935H44.6V50.615l-.769-.769h3.392a2.627,2.627,0,0,0,2.624-2.624V41.976a2.627,2.627,0,0,0-2.624-2.624H7.871a2.627,2.627,0,0,0-2.624,2.624v5.247a2.627,2.627,0,0,0,2.624,2.624h2.624V52.47H6.559a3.94,3.94,0,0,1-3.935-3.935V40.665a3.94,3.94,0,0,1,3.935-3.935H48.535a3.94,3.94,0,0,1,3.935,3.935v7.871Zm0-30.17V35.421a6.524,6.524,0,0,0-3.935-1.315H6.559a6.524,6.524,0,0,0-3.935,1.315V18.365a3.94,3.94,0,0,1,3.935-3.935H48.535A3.94,3.94,0,0,1,52.47,18.365ZM75.426,44.6l1.968,2.624H66.9L68.867,44.6Zm-.656-5.247v2.624H69.523V39.353Zm1.312,28.859H68.212V62.964h7.871ZM65.588,60.341V49.847H78.706V60.341Z"/>
        <path id="Trazado_835721" data-name="Trazado 835721" d="M112,330.235h18.365V304H112Zm2.624-23.612h13.118v20.988H114.624Z" transform="translate(-93.635 -254.153)"/>
        <path id="Trazado_835722" data-name="Trazado 835722" d="M144,336h7.871v2.624H144Z" transform="translate(-120.388 -280.906)"/>
        <path id="Trazado_835723" data-name="Trazado 835723" d="M144,368h7.871v2.624H144Z" transform="translate(-120.388 -307.659)"/>
        <path id="Trazado_835724" data-name="Trazado 835724" d="M144,400h7.871v2.624H144Z" transform="translate(-120.388 -334.412)"/>
      </g>
    </g>
  </g>
</svg>
