<svg xmlns="http://www.w3.org/2000/svg" width="92" height="92" viewBox="0 0 92 92">
  <g id="Grupo_963291" data-name="Grupo 963291" transform="translate(-433.379 -963.556)">
    <g id="Grupo_963194" data-name="Grupo 963194" transform="translate(-1.621 -3377.444)">
      <circle id="Elipse_7706" data-name="Elipse 7706" cx="46" cy="46" r="46" transform="translate(435 4341)" fill="#449c6e"/>
    </g>
    <g id="Grupo_980776" data-name="Grupo 980776" transform="translate(396.242 430.577)">
      <path id="Trazado_640686" data-name="Trazado 640686" d="M61.645,569.179l-12.04-12.03c-.6-.6-1.206-1.178-1.781-1.792a5.615,5.615,0,0,1,.039-7.929q1.751-1.822,3.574-3.574a5.613,5.613,0,0,1,7.93-.007c1.319,1.265,2.581,2.59,4.007,4.027,0-1.505,0-2.818,0-4.131,0-1.095.431-1.52,1.535-1.52q26.656,0,53.311,0c1.1,0,1.534.427,1.534,1.522q0,32.888,0,65.776a6.086,6.086,0,0,1-6.2,6.216q-24.434.018-48.868,0a6.1,6.1,0,0,1-6.209-6.2c-.018-3.344,0-6.687,0-10.031,0-.326.052-.62-.386-.793s-.549.118-.751.313c-.513.5-1.008,1.013-1.523,1.509a1.237,1.237,0,0,1-2,.029q-2.345-2.312-4.659-4.655a1.235,1.235,0,0,1,.008-2c.531-.551,1.082-1.082,1.623-1.624.177-.177.354-.32.208-.646a.575.575,0,0,0-.625-.409c-.893.02-1.787.013-2.681.005-1.011-.009-1.467-.444-1.471-1.43q-.014-3.484,0-6.968c0-.946.464-1.39,1.42-1.4q1.34-.016,2.681,0c.3,0,.512-.023.66-.358s-.005-.511-.211-.713c-.546-.537-1.093-1.072-1.623-1.624a1.216,1.216,0,0,1-.024-1.94q2.337-2.373,4.712-4.71a1.216,1.216,0,0,1,1.941.014c.572.546,1.127,1.11,1.678,1.677a.5.5,0,0,0,.657.16.531.531,0,0,0,.368-.575c-.017-.868-.009-1.735-.005-2.6,0-1.16.412-1.575,1.55-1.583C60.5,569.176,60.981,569.179,61.645,569.179Zm4.309,4.256c-.091.107-.118.124-.118.142q-.006,13.516-.019,27.032c0,.417.181.434.5.434q8.694-.01,17.388,0c.4,0,.523-.1.511-.507-.029-.969-.015-1.94-.008-2.91.008-1.052.438-1.486,1.487-1.491,1.379-.007,2.758-.016,4.136.007.395.006.523-.1.514-.505-.027-1.225-.037-2.451,0-3.675.02-.6-.044-1.061-.705-1.3a1.551,1.551,0,0,1-.947-.856c-.386-1.18-1.3-1.065-2.206-1.025a1.12,1.12,0,0,1-.229,0c-.628-.1-.908.068-.844.791.078.887.027,1.785.016,2.678-.011.958-.456,1.428-1.4,1.43q-5.975.013-11.95,0a1.208,1.208,0,0,1-1.355-1.311q-.02-4.824,0-9.649a1.172,1.172,0,0,1,1.225-1.281q6.128-.024,12.256,0a1.172,1.172,0,0,1,1.213,1.216c.028.586,0,1.174.009,1.761.007.609-.21,1.418.1,1.775.361.421,1.2.076,1.822.142a.935.935,0,0,0,1.047-.6,3.549,3.549,0,0,1,5.961-.451,2.214,2.214,0,0,0,2.36,1.05,1.522,1.522,0,0,1,.383,0c.457.072.62-.079.6-.571-.043-.993-.025-1.99-.009-2.986a1.212,1.212,0,0,1,1.324-1.341q6.013-.017,12.027,0a1.208,1.208,0,0,1,1.348,1.317q.02,4.786,0,9.572a1.21,1.21,0,0,1-1.314,1.354q-6.052.018-12.1,0a1.2,1.2,0,0,1-1.284-1.3c-.017-.51,0-1.021-.005-1.532-.009-.659.23-1.574-.107-1.913-.436-.439-1.347-.092-2.051-.146a.6.6,0,0,0-.7.411,3.146,3.146,0,0,1-1.644,1.639.623.623,0,0,0-.4.7c.011,1.353.022,2.706-.005,4.058-.008.429.107.561.546.552,1.4-.028,2.809-.02,4.213-.007a1.234,1.234,0,0,1,1.377,1.369c.015.97.031,1.941-.008,2.909-.02.5.116.636.623.631,2.936-.026,5.873-.014,8.809-.012,1.2,0,1.608.4,1.61,1.6q0,3.446,0,6.892a3.68,3.68,0,1,0,7.354-.146q0-32.01.015-64.019c0-.567-.126-.709-.7-.708q-14.707.03-29.415.015c-6.894,0-13.788.008-20.682-.014-.571,0-.727.129-.708.706.047,1.4.033,2.808.006,4.211a1.492,1.492,0,0,0,.481,1.2q4.465,4.417,8.888,8.875c.3.3.518.6.871.048a.873.873,0,0,1,.75-.319c1.66,0,3.32-.026,4.979.009a1.188,1.188,0,0,1,1.123,1.6,1.254,1.254,0,0,1-1.319.836c-1.361-.009-2.723,0-4.212,0a10.013,10.013,0,0,1,1.428,1.964.835.835,0,0,0,.9.494q6.856-.019,13.711-.008a6.6,6.6,0,0,1,.689.01,1.219,1.219,0,0,1-.011,2.433,5.9,5.9,0,0,1-.612.009H80.03c.18.663.384,1.242.484,1.838.087.518.334.624.819.622,4.111-.019,8.222-.012,12.333-.01,1.02,0,1.591.461,1.573,1.252-.018.763-.572,1.2-1.551,1.2q-5.707,0-11.414,0h-.909c.381,1.4.792,2.71,1.082,4.048.156.72.472.875,1.171.871q7.775-.05,15.55,0c.761.005,1-.134,1-.959-.036-8.117-.022-16.234-.021-24.352,0-1.266.387-1.663,1.623-1.664q4.52,0,9.039,0c1.192,0,1.594.409,1.594,1.616q0,10.645,0,21.289c0,1.2-.409,1.6-1.612,1.6-2.528,0-5.056.016-7.584-.012-.511-.005-.643.143-.62.634.04.866.012,1.735.011,2.6,0,1.3-.382,1.676-1.69,1.677q-9.307,0-18.614.006a5.34,5.34,0,0,1-1.432-.2l-7.811-2.131C70.518,575.971,67.927,575.414,65.954,573.435ZM108.7,613.291a6.714,6.714,0,0,1-1.212-3.987c.029-1.709-.022-3.419.023-5.128.015-.585-.153-.7-.714-.7-3.9.026-7.809.014-11.713.014q-16.728,0-33.457-.012c-.543,0-.743.086-.724.69.05,1.631.017,3.265.017,4.9,0,2.8,1.428,4.226,4.239,4.226H108.7ZM102.6,561.831c0,3.061.012,6.123-.012,9.185,0,.5.134.632.631.626,2.041-.029,4.083-.021,6.125,0,.415,0,.626-.025.624-.553q-.032-9.261,0-18.522c0-.435-.122-.551-.551-.547-2.067.021-4.135.028-6.2,0-.511-.008-.625.146-.622.635C102.608,555.708,102.6,558.77,102.6,561.831ZM63.361,574.074h.014v-.612c0-1.911,0-1.9-1.941-1.842-.394.012-.535.106-.519.515.03.79,0,1.582.01,2.373a1.309,1.309,0,0,1-.937,1.334c-.616.239-1.227.5-1.824.78a1.289,1.289,0,0,1-1.6-.269c-.47-.468-.949-.928-1.406-1.409-.228-.24-.4-.337-.676-.045-.832.864-1.684,1.708-2.543,2.546-.236.23-.247.391,0,.622.5.473.98.969,1.465,1.458a1.289,1.289,0,0,1,.261,1.606c-.285.6-.54,1.208-.78,1.824a1.308,1.308,0,0,1-1.338.93c-.766-.007-1.533.031-2.3-.013-.494-.029-.6.152-.585.607.029,1.25.026,2.5,0,3.751-.008.422.1.586.546.565.79-.036,1.582-.009,2.373-.01a1.273,1.273,0,0,1,1.283.894c.243.615.486,1.233.779,1.825a1.313,1.313,0,0,1-.27,1.668c-.469.469-.926.952-1.412,1.4-.273.253-.258.424,0,.677.844.816,1.68,1.641,2.489,2.492.306.322.483.22.732-.045.454-.484.932-.945,1.407-1.409a1.26,1.26,0,0,1,1.54-.259q.935.433,1.894.812a1.278,1.278,0,0,1,.9,1.278q0,.536,0,1.072c0,1.918,0,1.9,1.926,1.859.46-.01.54-.174.533-.58-.022-1.25-.031-2.5,0-3.751.013-.472-.129-.578-.592-.609a9.8,9.8,0,0,1-1.555-19.353c.7-.166,1.727.1,2.046-.433C63.622,575.761,63.361,574.839,63.361,574.074ZM78,591.234c1.454,0,2.908-.012,4.361.008.423.006.639-.045.632-.564-.031-2.091-.021-4.181-.006-6.272,0-.386-.092-.533-.508-.53q-4.4.024-8.8,0c-.412,0-.515.136-.512.527.016,2.091.025,4.182-.005,6.272-.007.514.2.574.628.568C75.2,591.222,76.6,591.234,78,591.234Zm27.024,0c1.454,0,2.909-.014,4.363.009.42.007.574-.1.569-.546q-.034-3.137,0-6.274c0-.449-.147-.549-.568-.547q-4.324.024-8.649,0c-.454,0-.616.1-.609.586q.043,3.1,0,6.2c-.007.489.153.6.608.587C102.171,591.217,103.6,591.234,105.029,591.234ZM68.311,572.2c1.424,1.139,3.168,1.455,4.847,1.947a.808.808,0,0,0,.932-.253c1.032-1.059,2.026-2.168,3.151-3.12a2.019,2.019,0,0,0,.683-2.555,12.013,12.013,0,0,0-1.727-3.912Zm-4.936,8.013a4.352,4.352,0,0,1,.006-.688c.086-.53-.185-.565-.611-.535a7.354,7.354,0,0,0-.8,14.549c1.4.246,1.4.246,1.4-1.127a3.745,3.745,0,0,1,0-.459c.062-.5-.04-.707-.646-.787a4.84,4.84,0,0,1-4.255-4.664,4.751,4.751,0,0,1,3.919-4.925c.9-.153,1.127-.5.98-1.288A.424.424,0,0,1,63.375,580.217Zm8.015-14.724c-.18-.195-.327-.365-.486-.524q-5.189-5.191-10.384-10.376c-.464-.462-.865-1.268-1.442-1.261s-.932.857-1.448,1.261c-.48.376-.37.626.019,1.011q5.212,5.167,10.389,10.37c1.618,1.617,1.618,1.617,3.1-.174C71.22,565.707,71.295,565.611,71.39,565.493ZM48.661,551.419a3.391,3.391,0,0,0,.794,2.1c.277.336.474.426.838.057q3.627-3.674,7.3-7.3c.335-.332.258-.513-.042-.786a3.159,3.159,0,0,0-4.256-.005c-1.317,1.24-2.581,2.538-3.842,3.836A3.029,3.029,0,0,0,48.661,551.419Zm13.33-1.368a2.9,2.9,0,0,1-.5.672c-.657.491-.55.845.006,1.393,3.612,3.559,7.186,7.157,10.772,10.741.973.973.961.962,1.917-.081.252-.275.238-.426-.015-.678q-5.849-5.827-11.684-11.667A1.158,1.158,0,0,0,61.991,550.051Zm5.71,19.287a1.1,1.1,0,0,0-.446-.665q-2.865-2.876-5.739-5.743c-1.9-1.9-3.8-3.783-5.68-5.693-.325-.33-.549-.4-.84,0a1.643,1.643,0,0,1-.379.378c-.562.39-.413.685.019,1.113,3.754,3.719,7.482,7.466,11.229,11.193.19.189.347.648.7.425A8.8,8.8,0,0,0,67.7,569.337Zm23.933,29.25H88.5c-1.866,0-1.843,0-1.851,1.844,0,.522.167.62.644.616,2.446-.022,4.892-.01,7.339-.01,1.9,0,1.881,0,1.848-1.921-.007-.448-.151-.544-.566-.537C94.488,598.6,93.061,598.588,91.634,598.588ZM60.32,548.231a5.565,5.565,0,0,0-.506-.458c-.213-.155-.32.071-.433.184-2.472,2.464-4.934,4.939-7.414,7.394-.309.306-.237.469.029.73.248.245.4.292.675.019q3.689-3.716,7.4-7.411A.536.536,0,0,0,60.32,548.231Zm3.054,38.122c0-.663-.023-1.327.008-1.989.021-.446-.148-.518-.542-.429a2.46,2.46,0,0,0,.036,4.806c.356.071.518,0,.5-.4C63.357,587.681,63.374,587.017,63.374,586.354Zm15.54-13.745a.646.646,0,0,0-.128.078c-.7.7-1.409,1.4-2.1,2.107-.191.2-.061.3.158.357q1.325.347,2.646.709c.369.1.471-.028.373-.383-.242-.88-.475-1.763-.712-2.645C79.117,572.71,79.091,572.582,78.914,572.609Zm12.653,13.724a1.225,1.225,0,1,0,1.222,1.208A1.231,1.231,0,0,0,91.567,586.333Z" fill="#010101"/>
      <path id="Trazado_640687" data-name="Trazado 640687" d="M110.21,578.962c1.973,1.979,4.564,2.536,7.1,3.226l7.811,2.131a5.34,5.34,0,0,0,1.432.2q9.307-.013,18.614-.006c1.308,0,1.688-.378,1.69-1.677,0-.868.029-1.737-.011-2.6-.022-.491.109-.64.62-.634,2.528.028,5.056.015,7.584.012,1.2,0,1.612-.406,1.612-1.6q0-10.644,0-21.289c0-1.207-.4-1.615-1.594-1.616q-4.52,0-9.039,0c-1.236,0-1.623.4-1.623,1.664,0,8.117-.015,16.235.021,24.352,0,.826-.239.965-1,.959q-7.775-.053-15.55,0c-.7,0-1.015-.151-1.171-.871-.289-1.338-.7-2.65-1.082-4.048h.909q5.707,0,11.414,0c.979,0,1.533-.435,1.551-1.2.019-.79-.553-1.251-1.573-1.252-4.111,0-8.222-.009-12.333.01-.486,0-.732-.1-.819-.622-.1-.6-.3-1.175-.484-1.838h13.449a5.9,5.9,0,0,0,.612-.009,1.219,1.219,0,0,0,.011-2.433,6.614,6.614,0,0,0-.689-.01q-6.856,0-13.711.008a.834.834,0,0,1-.9-.494,10.012,10.012,0,0,0-1.427-1.964c1.489,0,2.851-.006,4.212,0a1.254,1.254,0,0,0,1.319-.836,1.188,1.188,0,0,0-1.123-1.6c-1.659-.035-3.319-.01-4.979-.009a.873.873,0,0,0-.75.319c-.353.548-.571.254-.871-.048q-4.431-4.451-8.888-8.875a1.492,1.492,0,0,1-.481-1.2c.028-1.4.041-2.809-.006-4.211-.019-.576.137-.707.708-.705,6.894.022,13.788.014,20.682.014q14.707,0,29.415-.015c.577,0,.7.141.7.708q-.024,32.01-.015,64.019a3.667,3.667,0,0,1-2.373,3.657,3.682,3.682,0,0,1-4.98-3.511q.007-3.446,0-6.892c0-1.2-.407-1.6-1.61-1.6-2.936,0-5.873-.014-8.809.012-.507,0-.643-.136-.623-.632.039-.968.023-1.94.008-2.909a1.234,1.234,0,0,0-1.377-1.37c-1.4-.013-2.809-.021-4.213.007-.438.009-.554-.123-.546-.552.027-1.352.017-2.706.005-4.058a.623.623,0,0,1,.4-.7,3.146,3.146,0,0,0,1.644-1.639.6.6,0,0,1,.7-.411c.7.054,1.615-.292,2.051.146.337.34.1,1.254.107,1.913.007.51-.012,1.021.005,1.532a1.2,1.2,0,0,0,1.284,1.3q6.052.021,12.1,0a1.21,1.21,0,0,0,1.314-1.354q.016-4.786,0-9.572a1.208,1.208,0,0,0-1.348-1.317q-6.013-.015-12.027,0a1.212,1.212,0,0,0-1.324,1.342c-.017,1-.035,1.992.009,2.986.021.493-.142.643-.6.571a1.519,1.519,0,0,0-.383,0,2.215,2.215,0,0,1-2.36-1.05,3.549,3.549,0,0,0-5.961.451.935.935,0,0,1-1.047.6c-.625-.067-1.461.279-1.822-.142-.306-.357-.089-1.166-.1-1.775-.006-.587.019-1.175-.009-1.761a1.172,1.172,0,0,0-1.213-1.216q-6.128-.024-12.256,0a1.172,1.172,0,0,0-1.225,1.281q-.021,4.824,0,9.649a1.208,1.208,0,0,0,1.355,1.311q5.975.014,11.95,0c.939,0,1.384-.472,1.4-1.43.01-.893.062-1.792-.016-2.678-.064-.722.216-.894.844-.791a1.124,1.124,0,0,0,.229,0c.91-.04,1.82-.155,2.206,1.025a1.551,1.551,0,0,0,.947.856c.662.238.725.7.705,1.3-.039,1.224-.029,2.451,0,3.675.009.409-.119.512-.514.505-1.378-.023-2.757-.014-4.136-.007-1.049.006-1.479.44-1.487,1.491-.007.97-.021,1.941.008,2.91.012.406-.114.508-.511.507q-8.694-.018-17.388,0c-.322,0-.5-.017-.5-.434q.022-13.516.019-27.032C110.092,579.086,110.12,579.069,110.21,578.962ZM129.7,560q-4.131,0-8.262,0c-.978,0-1.528.435-1.544,1.2s.541,1.248,1.5,1.249q8.3.005,16.6,0c.957,0,1.516-.47,1.506-1.239S138.931,560,137.96,560Q133.829,560,129.7,560Zm4.874,7.353c1.172,0,2.344.008,3.516,0,.878-.009,1.429-.514,1.407-1.258a1.24,1.24,0,0,0-1.4-1.189q-3.477-.013-6.955,0c-.9,0-1.441.472-1.445,1.219s.542,1.222,1.436,1.229C132.28,567.362,133.426,567.355,134.572,567.355ZM126.017,555.1c-.789,0-1.579-.015-2.367,0a1.218,1.218,0,0,0-1.307,1.2,1.206,1.206,0,0,0,1.266,1.24q2.406.032,4.811,0a1.222,1.222,0,1,0-.035-2.44C127.6,555.086,126.806,555.1,126.017,555.1Zm9.822,2.45c.789,0,1.579.017,2.368,0a1.222,1.222,0,1,0,0-2.44c-1.578-.019-3.157-.017-4.735,0a1.225,1.225,0,1,0,0,2.443C134.261,557.566,135.05,557.552,135.839,557.551Z" transform="translate(-44.257 -5.527)" fill="#e9edf0"/>
      <path id="Trazado_640688" data-name="Trazado 640688" d="M141.89,751.592H98.348c-2.811,0-4.239-1.424-4.239-4.226,0-1.633.033-3.267-.017-4.9-.018-.6.182-.691.724-.69q16.728.024,33.457.012c3.9,0,7.809.013,11.713-.014.561,0,.73.115.714.7-.045,1.708.006,3.419-.023,5.128A6.714,6.714,0,0,0,141.89,751.592Z" transform="translate(-33.186 -138.302)" fill="#d9dbdd"/>
      <path id="Trazado_640689" data-name="Trazado 640689" d="M229.873,583.958c0-3.062.011-6.123-.011-9.185,0-.489.11-.642.622-.635,2.067.031,4.134.025,6.2,0,.429,0,.552.111.551.547q-.021,9.261,0,18.522c0,.527-.209.556-.624.553-2.041-.016-4.083-.024-6.125,0-.5.007-.635-.122-.631-.626C229.885,590.082,229.873,587.02,229.873,583.958Z" transform="translate(-127.276 -22.127)" fill="#d9dbdd"/>
      <path id="Trazado_640690" data-name="Trazado 640690" d="M68.893,640.427c0,.765.261,1.687-.076,2.251-.319.536-1.343.267-2.046.433a9.8,9.8,0,0,0,1.555,19.353c.463.03.6.137.592.609-.034,1.249-.025,2.5,0,3.751.007.406-.073.57-.533.58-1.927.042-1.926.059-1.926-1.859q0-.536,0-1.072a1.278,1.278,0,0,0-.9-1.278q-.958-.379-1.894-.812a1.26,1.26,0,0,0-1.54.259c-.474.464-.952.925-1.407,1.409-.249.265-.425.367-.732.045-.809-.85-1.645-1.675-2.489-2.492-.262-.254-.277-.424,0-.677.486-.451.943-.933,1.412-1.4a1.313,1.313,0,0,0,.27-1.668c-.293-.592-.536-1.21-.779-1.825a1.273,1.273,0,0,0-1.283-.894c-.791,0-1.584-.026-2.373.01-.451.02-.555-.143-.546-.565.025-1.25.028-2.5,0-3.751-.011-.455.091-.635.585-.607.763.044,1.531.006,2.3.013a1.308,1.308,0,0,0,1.338-.93c.24-.616.5-1.228.78-1.824a1.289,1.289,0,0,0-.261-1.606c-.485-.49-.964-.985-1.465-1.459-.244-.23-.233-.391,0-.622.859-.838,1.711-1.682,2.543-2.546.281-.292.448-.2.676.045.457.48.936.941,1.406,1.409a1.289,1.289,0,0,0,1.6.269c.6-.283,1.208-.54,1.824-.78a1.309,1.309,0,0,0,.937-1.334c-.006-.791.02-1.583-.01-2.373-.016-.409.125-.5.519-.515,1.941-.056,1.941-.069,1.941,1.842v.612Z" transform="translate(-5.532 -66.353)" fill="#4e95df"/>
      <path id="Trazado_640691" data-name="Trazado 640691" d="M138.873,685.291c-1.4,0-2.806-.013-4.208.008-.428.006-.636-.054-.628-.568.03-2.091.021-4.181.005-6.272,0-.391.1-.529.512-.527q4.4.024,8.8,0c.416,0,.511.144.508.53-.015,2.091-.025,4.182.006,6.272.008.519-.209.57-.632.564C141.781,685.279,140.327,685.291,138.873,685.291Z" transform="translate(-60.868 -94.057)" fill="#d85047"/>
      <path id="Trazado_640692" data-name="Trazado 640692" d="M226.772,685.289c-1.429,0-2.858-.017-4.286.01-.456.009-.615-.1-.608-.587q.042-3.1,0-6.2c-.006-.49.155-.589.609-.586q4.324.028,8.649,0c.421,0,.573.1.568.547q-.034,3.137,0,6.274c0,.45-.149.553-.569.546C229.68,685.275,228.226,685.289,226.772,685.289Z" transform="translate(-121.742 -94.054)" fill="#66bd89"/>
      <path id="Trazado_640693" data-name="Trazado 640693" d="M118.216,622.094,126.1,614.2a12.013,12.013,0,0,1,1.727,3.912,2.018,2.018,0,0,1-.683,2.554c-1.125.952-2.119,2.061-3.151,3.12a.808.808,0,0,1-.932.253C121.384,623.549,119.64,623.233,118.216,622.094Z" transform="translate(-49.905 -49.891)" fill="#f6e7d8"/>
      <path id="Trazado_640694" data-name="Trazado 640694" d="M85.539,663.237a.423.423,0,0,0,0,.076c.146.792-.076,1.135-.98,1.288a4.751,4.751,0,0,0-3.919,4.925,4.84,4.84,0,0,0,4.255,4.664c.606.08.708.29.646.787a3.744,3.744,0,0,0,0,.459c0,1.373,0,1.373-1.4,1.127a7.354,7.354,0,0,1,.8-14.549c.425-.03.7.006.611.535A4.353,4.353,0,0,0,85.539,663.237Z" transform="translate(-22.164 -83.02)" fill="#e6eaed"/>
      <path id="Trazado_640695" data-name="Trazado 640695" d="M96.463,590.6c-.1.118-.17.215-.247.308-1.487,1.791-1.487,1.791-3.1.174q-5.19-5.19-10.389-10.37c-.389-.385-.5-.635-.019-1.011.517-.4.875-1.253,1.448-1.261s.978.8,1.442,1.261q5.2,5.178,10.384,10.376C96.136,590.235,96.283,590.406,96.463,590.6Z" transform="translate(-25.073 -25.107)" fill="#3e77b2"/>
      <path id="Trazado_640696" data-name="Trazado 640696" d="M54.206,556.957a3.03,3.03,0,0,1,.8-2.1c1.261-1.3,2.524-2.6,3.842-3.836a3.159,3.159,0,0,1,4.256.005c.3.274.377.455.042.787q-3.672,3.629-7.3,7.3c-.365.37-.561.28-.838-.056A3.391,3.391,0,0,1,54.206,556.957Z" transform="translate(-5.545 -5.539)" fill="#d64f46"/>
      <path id="Trazado_640697" data-name="Trazado 640697" d="M95.483,567.75a1.158,1.158,0,0,1,.5.38q5.842,5.833,11.684,11.667c.253.252.267.4.015.677-.956,1.043-.944,1.054-1.917.081-3.586-3.585-7.16-7.183-10.772-10.741-.556-.547-.663-.9-.006-1.393A2.9,2.9,0,0,0,95.483,567.75Z" transform="translate(-33.492 -17.699)" fill="#4e95e0"/>
      <path id="Trazado_640698" data-name="Trazado 640698" d="M85.866,602.637a8.794,8.794,0,0,1-1.14,1c-.349.223-.507-.236-.7-.425-3.747-3.727-7.475-7.473-11.229-11.193-.432-.428-.581-.723-.019-1.113a1.643,1.643,0,0,0,.379-.378c.291-.4.515-.326.84,0,1.881,1.91,3.784,3.8,5.68,5.693q2.871,2.87,5.739,5.743A1.1,1.1,0,0,1,85.866,602.637Z" transform="translate(-18.165 -33.3)" fill="#4e95e0"/>
      <path id="Trazado_640699" data-name="Trazado 640699" d="M182.934,725.836c1.427,0,2.854.014,4.281-.009.415-.007.558.089.566.537.032,1.921.049,1.921-1.848,1.921-2.446,0-4.893-.012-7.339.01-.478,0-.647-.094-.644-.616.008-1.844-.015-1.844,1.851-1.844Z" transform="translate(-91.3 -127.248)" fill="#f7d25a"/>
      <path id="Trazado_640700" data-name="Trazado 640700" d="M72.869,560.67a.536.536,0,0,1-.251.458q-3.7,3.706-7.4,7.411c-.271.273-.427.225-.675-.019-.266-.262-.338-.425-.029-.73,2.481-2.455,4.943-4.93,7.414-7.394.113-.113.22-.339.433-.184A5.564,5.564,0,0,1,72.869,560.67Z" transform="translate(-12.549 -12.439)" fill="#f7d25a"/>
      <path id="Trazado_640701" data-name="Trazado 640701" d="M96.6,680.471c0,.663-.017,1.327.006,1.99.014.4-.148.469-.5.4a2.46,2.46,0,0,1-.036-4.806c.394-.088.563-.017.542.429C96.58,679.143,96.6,679.808,96.6,680.471Z" transform="translate(-33.229 -94.117)" fill="#3e77b2"/>
      <path id="Trazado_640702" data-name="Trazado 640702" d="M147.512,641.224c.176-.027.2.1.235.225.236.882.47,1.765.712,2.645.1.355,0,.484-.373.383q-1.321-.362-2.646-.709c-.22-.057-.349-.161-.158-.357.692-.711,1.4-1.407,2.1-2.107A.636.636,0,0,1,147.512,641.224Z" transform="translate(-68.597 -68.615)" fill="#404447"/>
      <path id="Trazado_640703" data-name="Trazado 640703" d="M191.2,685.938a1.225,1.225,0,1,1-1.225,1.2A1.235,1.235,0,0,1,191.2,685.938Z" transform="translate(-99.637 -99.605)" fill="#4b90d7"/>
      <path id="Trazado_640704" data-name="Trazado 640704" d="M151.88,582.16q4.131,0,8.262,0c.971,0,1.525.445,1.535,1.21s-.549,1.238-1.506,1.239q-8.3,0-16.6,0c-.954,0-1.511-.476-1.5-1.249s.566-1.2,1.544-1.2Q147.749,582.157,151.88,582.16Z" transform="translate(-66.438 -27.685)" fill="#010101"/>
      <path id="Trazado_640705" data-name="Trazado 640705" d="M178.889,600.571c-1.146,0-2.293.007-3.439,0-.894-.007-1.439-.484-1.436-1.229s.544-1.216,1.445-1.219q3.477-.01,6.955,0a1.24,1.24,0,0,1,1.4,1.189c.022.744-.53,1.249-1.407,1.258C181.233,600.579,180.061,600.571,178.889,600.571Z" transform="translate(-88.573 -38.743)" fill="#030303"/>
      <path id="Trazado_640706" data-name="Trazado 640706" d="M153.732,566.185c.789,0,1.579-.015,2.368,0a1.222,1.222,0,1,1,.035,2.44q-2.406.031-4.811,0a1.206,1.206,0,0,1-1.266-1.24,1.218,1.218,0,0,1,1.307-1.2C152.153,566.17,152.943,566.185,153.732,566.185Z" transform="translate(-71.971 -16.611)" fill="#030303"/>
      <path id="Trazado_640707" data-name="Trazado 640707" d="M185.689,568.63c-.789,0-1.579.014-2.367,0a1.225,1.225,0,1,1,0-2.443c1.579-.015,3.157-.017,4.735,0a1.222,1.222,0,1,1,0,2.44C187.267,568.647,186.478,568.63,185.689,568.63Z" transform="translate(-94.106 -16.606)" fill="#030303"/>
    </g>
  </g>
</svg>
