<svg xmlns="http://www.w3.org/2000/svg" width="92" height="92" viewBox="0 0 92 92">
  <g id="Grupo_978941" data-name="Grupo 978941" transform="translate(-743.379 -963.556)">
    <g id="Grupo_963195" data-name="Grupo 963195" transform="translate(308.379 -3377.444)">
      <circle id="Elipse_7706" data-name="Elipse 7706" cx="46" cy="46" r="46" transform="translate(435 4341)" fill="#449c6e"/>
      <g id="Grupo_980589" data-name="Grupo 980589" transform="translate(-256.228 3759.528)">
        <path id="Trazado_640358" data-name="Trazado 640358" d="M742.153,589.588q14.433,0,28.865,0c2.6,0,4.086,1.472,4.086,4.049q0,26.5,0,52.991a3.7,3.7,0,0,1-4.085,4.052q-23.826,0-47.651-.015c-.656,0-.837.131-.827.814q.065,4.542.008,9.086a4.878,4.878,0,0,1-9.528,1.378,5.756,5.756,0,0,1-.241-1.8c.005-4.785-.007-9.57.017-14.355a.764.764,0,0,0-.651-.885,18.161,18.161,0,0,1-12.761-18.445,17.835,17.835,0,0,1,9.053-14.775,1.183,1.183,0,0,0,.7-1.174c-.028-5.625-.018-11.25-.016-16.875a3.69,3.69,0,0,1,4.016-4.041Q727.644,589.586,742.153,589.588Zm-6.137,35.86a21.917,21.917,0,0,1-.3,5.139c-.085.436.024.564.478.554,1.348-.029,2.7.018,4.047-.024.538-.017.67.129.666.666-.027,3.283-.014,6.567-.014,9.85,0,1.722,0,1.69,1.725,1.733.62.016.733-.18.732-.755-.021-6.007,0-12.014-.026-18.021,0-.593.074-.829.756-.81,1.959.055,3.921.05,5.879,0,.637-.016.724.206.722.764-.019,5.727-.012,11.454-.012,17.182,0,1.622,0,1.589,1.59,1.638.672.021.874-.134.872-.848-.029-8.451-.013-16.9-.032-25.352,0-.558.112-.725.7-.712q2.939.063,5.88,0c.633-.015.787.143.785.781-.025,8.2-.016,16.393-.016,24.589,0,1.528,0,1.476,1.531,1.55.788.038.933-.2.931-.948-.028-9.214-.015-18.429-.028-27.643,0-.54.056-.791.711-.774,1.984.052,3.971.047,5.956,0,.6-.014.688.183.687.722q-.024,15.158.006,30.316c0,.669-.2.766-.8.762-3.946-.028-7.892-.014-11.837-.014q-11.685,0-23.37.012c-.509,0-.712-.084-.682-.647.052-.965.014-1.934.014-2.9v-5.642l-.464.716a18.6,18.6,0,0,1-8.471,7.085c-.681.291-1.687.221-1.989.88-.289.633-.024,1.5-.087,2.261-.05.6.167.693.715.693q23.866-.023,47.731-.013c1.29,0,1.667-.383,1.667-1.689q0-7.293,0-14.585c0-8.171-.009-16.342.017-24.512,0-.655-.178-.795-.8-.77-1.271.051-2.545.012-3.818.017-.635,0-1.411-.2-1.866.091s-.317,1.164-.481,1.77c-.039.147-.057.3-.091.448a3.2,3.2,0,0,1-5.317,1.719,10.316,10.316,0,0,1-1.185-1.188c-.405-.5-.669-.441-1.121-.013q-9.519,8.994-19.065,17.958c-.392.37-.616.461-1,0C737.333,626.771,736.659,626.123,736.016,625.448Zm6.172-33.415q-14.509,0-29.019,0c-1.2,0-1.605.4-1.606,1.6,0,3.258.021,6.516-.019,9.774-.009.7.174.864.865.863q19.664-.034,39.328-.017c.178,0,.357,0,.535,0a.964.964,0,0,0,.77-.559c.163-.282-.217-.4-.371-.577-.321-.36-.684-.683-1.018-1.033a3.094,3.094,0,0,1-.822-3.3,3.135,3.135,0,0,1,2.522-2.18q5.085-1.008,10.167-2.028a3.433,3.433,0,0,1,4.156,4.131c-.311,1.57-.613,3.142-.952,4.707-.129.6-.131.9.657.858,1.524-.074,3.054-.05,4.581-.007.568.016.718-.129.713-.706-.031-3.258-.014-6.516-.015-9.774,0-1.4-.353-1.753-1.759-1.753Zm22.054,4.894a1.375,1.375,0,0,0-.152.015c-3.412.685-6.826,1.359-10.233,2.067-.822.171-.993.792-.412,1.393.9.933,1.8,1.868,2.76,2.744.469.43.382.655-.039,1.044q-8.642,7.968-17.248,15.977c-.433.4-.642.332-1.017-.049-2.466-2.5-4.974-4.959-7.427-7.471-.483-.495-.713-.448-1.173.014q-9.8,9.848-19.639,19.658c-1.294,1.294-1.274,1.276,0,2.67.453.5.7.523,1.205.019q9.228-9.287,18.494-18.536c.409-.411.624-.452,1.055-.013,2.424,2.47,4.883,4.9,7.331,7.352.733.733.732.731,1.494.016q9.428-8.861,18.85-17.729c.415-.392.658-.45,1.072,0,.805.883,1.679,1.7,2.525,2.548.272.271.529.561.984.426.478-.143.564-.544.645-.947.141-.7.271-1.4.411-2.094.52-2.59,1.047-5.178,1.559-7.77A1.036,1.036,0,0,0,764.242,596.926Zm-39.116,16.545a14.868,14.868,0,0,0-6.658-1.866,15.887,15.887,0,1,0,15.052,15.04c-.1-2.111-.22-4.307-2.169-5.777-.342-.258-.6-.632-.932-.9-.208-.165-.321-.707-.755-.31-.342.313-.729.543-.334,1.177a12.072,12.072,0,0,1,1.758,5.851,13.359,13.359,0,0,1-15.158,14.062,13.4,13.4,0,0,1-7.081-23.357c4.068-3.585,8.8-4.279,13.886-2.344.238.09.461.306.747.005C723.985,614.522,724.534,614.035,725.126,613.471Zm-13.564-3.282a18.178,18.178,0,0,1,14.973,1.259c.34.184.493.051.7-.163.694-.709,1.431-1.378,2.092-2.117.411-.459.644-.5,1.107-.023,2.51,2.563,5.067,5.08,7.593,7.628.319.322.5.42.892.056,3.456-3.232,6.936-6.439,10.406-9.657.133-.123.329-.215.356-.479h-36.2c-.484,0-.968.021-1.45-.007-.357-.02-.487.08-.478.459C711.579,608.138,711.562,609.129,711.562,610.189Zm.826,26.85a10.843,10.843,0,0,0,13.544-2.324c3.546-4.006,3.286-9.662,1.283-12.5Zm-5.07-5.993,13.913-13.908c-3.258-1.5-8.057-.523-11.035,2.275A10.822,10.822,0,0,0,707.317,631.046Zm7.911,22.254c0,2.364-.011,4.729,0,7.093a2.439,2.439,0,1,0,4.877.013c.014-4.728,0-9.457.019-14.186,0-.562-.211-.626-.666-.554a11,11,0,0,1-3.568,0c-.546-.093-.685.076-.679.62C715.245,648.621,715.228,650.96,715.228,653.3ZM767.772,629.9V618.159c0-1.7,0-1.659-1.683-1.708-.659-.019-.776.188-.774.8q.032,12.165.014,24.33c0,1.78,0,1.75,1.759,1.783.595.011.7-.175.7-.724C767.762,638.4,767.772,634.15,767.772,629.9ZM758,631.177v-10.6c0-1.671,0-1.642-1.709-1.679-.6-.013-.75.151-.748.748.022,7.321.014,14.642.014,21.963,0,1.757,0,1.735,1.785,1.754.536.006.674-.135.67-.671C757.985,638.854,758,635.015,758,631.177Zm-9.776,3.61V628c0-1.774,0-1.742-1.764-1.776-.6-.012-.692.19-.69.729.021,4.853.012,9.705.012,14.558,0,1.869,0,1.845,1.841,1.85.527,0,.615-.18.611-.65C748.21,640.071,748.22,637.429,748.22,634.787ZM736,638.465v3.121c0,1.794,0,1.772,1.833,1.777.512,0,.625-.156.621-.64-.023-2.436-.011-4.872-.011-7.308,0-1.9,0-1.887-1.91-1.851-.44.008-.549.143-.542.562C736.016,635.572,736,637.018,736,638.465Z" fill="#010101"/>
        <path id="Trazado_640359" data-name="Trazado 640359" d="M788.475,664.076c.643.675,1.317,1.323,1.918,2.034.388.46.613.368,1,0q9.524-8.988,19.065-17.958c.453-.428.716-.489,1.121.013a10.32,10.32,0,0,0,1.185,1.188,3.2,3.2,0,0,0,5.317-1.719c.033-.148.051-.3.091-.448.163-.606.011-1.469.481-1.77s1.231-.089,1.866-.091c1.273,0,2.547.034,3.818-.017.618-.025.8.115.8.77-.026,8.171-.017,16.342-.017,24.512q0,7.292,0,14.585c0,1.307-.377,1.689-1.667,1.689q-23.865,0-47.731.013c-.548,0-.765-.094-.715-.693.063-.759-.2-1.628.087-2.261.3-.659,1.308-.589,1.989-.88a18.6,18.6,0,0,0,8.471-7.085l.464-.716v5.642c0,.967.037,1.937-.014,2.9-.03.564.173.648.682.647q11.685-.025,23.37-.012c3.946,0,7.892-.013,11.837.014.6,0,.8-.093.8-.762q-.038-15.158-.006-30.316c0-.539-.083-.736-.687-.722-1.985.046-3.972.051-5.956,0-.656-.017-.712.234-.711.774.013,9.215,0,18.429.028,27.643,0,.747-.143.986-.931.948-1.529-.074-1.531-.022-1.531-1.55q0-12.294.016-24.589c0-.638-.151-.8-.785-.781q-2.938.069-5.88,0c-.585-.013-.7.154-.7.712.019,8.451,0,16.9.032,25.352,0,.714-.2.869-.872.848-1.589-.049-1.59-.015-1.59-1.638,0-5.727-.007-11.455.012-17.182,0-.558-.084-.78-.722-.764-1.959.049-3.921.054-5.879,0-.682-.019-.758.217-.756.81.022,6.007.005,12.014.026,18.021,0,.575-.112.771-.732.755-1.724-.044-1.725-.012-1.725-1.733,0-3.283-.013-6.567.014-9.85,0-.536-.128-.682-.666-.666-1.348.042-2.7,0-4.047.024-.454.01-.562-.118-.478-.554A21.913,21.913,0,0,0,788.475,664.076Z" transform="translate(-52.459 -38.629)" fill="#e5e8eb"/>
        <path id="Trazado_640360" data-name="Trazado 640360" d="M769.828,597.573h28.713c1.406,0,1.758.351,1.759,1.753,0,3.258-.016,6.516.015,9.774.005.577-.145.722-.713.706-1.526-.043-3.057-.067-4.581.007-.788.038-.786-.262-.657-.858.339-1.564.641-3.137.952-4.707a3.433,3.433,0,0,0-4.156-4.131q-5.084,1.012-10.167,2.028a3.135,3.135,0,0,0-2.522,2.18,3.094,3.094,0,0,0,.822,3.3c.334.35.7.673,1.018,1.033.154.172.534.3.371.577a.964.964,0,0,1-.77.559c-.178.007-.356,0-.535,0q-19.664,0-39.328.017c-.692,0-.874-.167-.865-.863.04-3.258.016-6.516.019-9.774,0-1.2.4-1.6,1.606-1.6Q755.319,597.572,769.828,597.573Zm-20.851,6.134c0-1.042-.015-2.083.008-3.125.009-.4-.054-.583-.523-.577-2.109.026-4.218.023-6.326,0-.42,0-.5.144-.5.525.016,2.108.019,4.217,0,6.326,0,.42.144.5.525.5,2.109-.016,4.218-.019,6.326,0,.42,0,.506-.144.5-.525C748.962,605.791,748.977,604.749,748.977,603.707Zm6.187-3.69c-1.093,0-2.185.013-3.277-.008-.364-.007-.475.1-.473.471q.023,3.2,0,6.4c0,.364.1.475.47.473q3.2-.023,6.4,0c.364,0,.475-.1.473-.471q-.023-3.2,0-6.4c0-.364-.1-.481-.471-.473C757.248,600.031,756.206,600.017,755.164,600.017Zm9.7,0c-1.067,0-2.135.014-3.2-.008-.367-.007-.474.109-.471.473q.022,3.2,0,6.4c0,.366.109.474.473.471q3.2-.022,6.4,0c.366,0,.474-.109.471-.473q-.023-3.2,0-6.4c0-.366-.108-.479-.473-.471C767,600.031,765.929,600.017,764.862,600.017Z" transform="translate(-27.64 -5.541)" fill="#bbda89"/>
        <path id="Trazado_640361" data-name="Trazado 640361" d="M785.433,613.563a1.035,1.035,0,0,1,1.043,1.339c-.512,2.591-1.04,5.18-1.559,7.77-.14.7-.27,1.4-.411,2.094-.081.4-.167.8-.645.947-.454.136-.712-.155-.984-.426-.846-.846-1.72-1.666-2.525-2.548-.414-.455-.657-.4-1.072,0q-9.412,8.878-18.85,17.729c-.761.715-.76.718-1.494-.016-2.448-2.447-4.907-4.882-7.331-7.352-.43-.439-.646-.4-1.055.013q-9.238,9.276-18.494,18.536c-.5.5-.752.478-1.205-.019-1.272-1.394-1.292-1.376,0-2.67q9.825-9.824,19.639-19.659c.46-.462.69-.509,1.173-.014,2.454,2.512,4.961,4.971,7.427,7.471.375.381.584.452,1.017.049q8.6-8.012,17.248-15.977c.422-.389.508-.613.039-1.044-.955-.877-1.858-1.812-2.76-2.744-.581-.6-.41-1.222.412-1.393,3.407-.707,6.821-1.381,10.233-2.067A1.264,1.264,0,0,1,785.433,613.563Z" transform="translate(-21.191 -16.636)" fill="#ec8673"/>
        <path id="Trazado_640362" data-name="Trazado 640362" d="M730.645,663.344c-.592.565-1.141,1.051-1.644,1.581-.286.3-.508.085-.747-.005-5.089-1.935-9.818-1.241-13.886,2.344a13.4,13.4,0,0,0,7.081,23.357,13.359,13.359,0,0,0,15.158-14.062,12.072,12.072,0,0,0-1.758-5.851c-.395-.634-.008-.864.334-1.177.434-.4.547.145.755.31.336.268.59.642.932.9,1.949,1.47,2.069,3.666,2.17,5.777a15.87,15.87,0,1,1-15.052-15.04A14.869,14.869,0,0,1,730.645,663.344Z" transform="translate(-5.519 -49.873)" fill="#f2d37d"/>
        <path id="Trazado_640363" data-name="Trazado 640363" d="M739.221,648.943c0-1.06.017-2.052-.009-3.042-.01-.379.121-.48.478-.459.482.027.966.007,1.45.007h36.2c-.027.265-.223.356-.356.479-3.469,3.218-6.949,6.425-10.406,9.657-.389.364-.573.266-.892-.056-2.526-2.548-5.083-5.065-7.593-7.628-.463-.473-.7-.436-1.107.023-.661.738-1.4,1.408-2.092,2.117-.21.214-.362.347-.7.163A18.178,18.178,0,0,0,739.221,648.943Z" transform="translate(-27.66 -38.754)" fill="#e4e7ea"/>
        <path id="Trazado_640364" data-name="Trazado 640364" d="M741.939,710.994l14.827-14.824c2,2.838,2.263,8.494-1.283,12.5A10.843,10.843,0,0,1,741.939,710.994Z" transform="translate(-29.551 -73.955)" fill="#83d2ee"/>
        <path id="Trazado_640365" data-name="Trazado 640365" d="M723.891,691.906a10.822,10.822,0,0,1,2.878-11.634c2.977-2.8,7.777-3.772,11.035-2.275Z" transform="translate(-16.574 -60.861)" fill="#83d2ee"/>
        <path id="Trazado_640366" data-name="Trazado 640366" d="M751.19,780.348c0-2.339.017-4.678-.012-7.017-.007-.544.133-.713.679-.62a11,11,0,0,0,3.568,0c.455-.072.669-.008.666.554-.024,4.729-.005,9.457-.019,14.186a2.439,2.439,0,1,1-4.877-.013C751.179,785.077,751.19,782.712,751.19,780.348Z" transform="translate(-35.962 -127.048)" fill="#969ea8"/>
        <path id="Trazado_640367" data-name="Trazado 640367" d="M917.29,690.793c0,4.245-.01,8.491.013,12.737,0,.549-.1.735-.7.724-1.759-.033-1.759,0-1.759-1.783q0-12.165-.014-24.33c0-.614.115-.82.774-.8,1.682.049,1.683.013,1.683,1.708Z" transform="translate(-149.518 -60.888)" fill="#ee8774"/>
        <path id="Trazado_640368" data-name="Trazado 640368" d="M885.357,697.611c0,3.839-.011,7.677.013,11.515,0,.536-.135.677-.67.671-1.785-.02-1.785,0-1.785-1.754,0-7.321.008-14.642-.014-21.963,0-.6.149-.761.748-.748,1.708.036,1.709.008,1.709,1.679Z" transform="translate(-127.361 -66.435)" fill="#ee8774"/>
        <path id="Trazado_640369" data-name="Trazado 640369" d="M853.428,717.834c0,2.642-.01,5.285.01,7.927,0,.47-.084.651-.611.65-1.841,0-1.841.018-1.841-1.85,0-4.852.009-9.705-.012-14.558,0-.539.087-.741.69-.729,1.764.034,1.764,0,1.764,1.776Z" transform="translate(-105.207 -83.047)" fill="#ee8774"/>
        <path id="Trazado_640370" data-name="Trazado 640370" d="M819.057,738.122c0-1.447.014-2.893-.009-4.339-.006-.419.1-.554.542-.562,1.91-.036,1.91-.052,1.91,1.851,0,2.436-.013,4.873.011,7.308,0,.484-.109.641-.621.64-1.833,0-1.833.017-1.833-1.777Z" transform="translate(-83.056 -99.658)" fill="#ee8774"/>
        <path id="Trazado_640371" data-name="Trazado 640371" d="M754.535,609.22c0,1.041-.015,2.083.008,3.125.008.381-.077.53-.5.525-2.109-.021-4.218-.018-6.326,0-.381,0-.53-.077-.525-.5.021-2.108.018-4.217,0-6.326,0-.381.077-.53.5-.525,2.109.021,4.217.024,6.326,0,.469-.005.532.179.523.577C754.52,607.137,754.535,608.179,754.535,609.22Zm-3.592-1.247c-1.3,0-1.3,0-1.3,1.3,0,1.143,0,1.143,1.148,1.143,1.3,0,1.3,0,1.3-1.3C752.091,607.974,752.091,607.974,750.943,607.974Z" transform="translate(-33.198 -11.054)"/>
        <path id="Trazado_640372" data-name="Trazado 640372" d="M782.885,605.538c1.042,0,2.084.014,3.125-.008.367-.008.474.109.471.473q-.022,3.2,0,6.4c0,.366-.109.473-.473.471q-3.2-.022-6.4,0c-.366,0-.473-.109-.47-.473q.023-3.2,0-6.4c0-.366.109-.478.473-.471C780.7,605.551,781.793,605.538,782.885,605.538Zm1.145,3.668c0-1.224,0-1.224-1.22-1.224s-1.225,0-1.225,1.219,0,1.224,1.22,1.224S784.03,610.425,784.03,609.206Z" transform="translate(-55.361 -11.062)"/>
        <path id="Trazado_640373" data-name="Trazado 640373" d="M814.741,605.538c1.067,0,2.134.014,3.2-.008.365-.007.475.1.473.471q-.023,3.2,0,6.4c0,.364-.1.475-.471.473q-3.2-.023-6.4,0c-.364,0-.475-.1-.473-.471q.023-3.2,0-6.4c0-.364.1-.48.471-.473C812.607,605.552,813.674,605.538,814.741,605.538Zm1.223,3.705c0-1.262,0-1.262-1.258-1.262-1.186,0-1.186,0-1.186,1.181,0,1.262,0,1.262,1.258,1.262C815.964,610.425,815.964,610.425,815.964,609.243Z" transform="translate(-77.519 -11.062)"/>
        <path id="Trazado_640374" data-name="Trazado 640374" d="M756.5,613.538c1.148,0,1.148,0,1.148,1.143,0,1.3,0,1.3-1.3,1.3-1.148,0-1.148,0-1.148-1.143C755.208,613.538,755.208,613.538,756.5,613.538Z" transform="translate(-38.758 -16.619)" fill="#e5e8eb"/>
        <path id="Trazado_640375" data-name="Trazado 640375" d="M789.586,614.762c0,1.219,0,1.219-1.225,1.219s-1.22,0-1.22-1.224,0-1.219,1.224-1.219S789.586,613.538,789.586,614.762Z" transform="translate(-60.917 -16.619)" fill="#e5e8eb"/>
        <path id="Trazado_640376" data-name="Trazado 640376" d="M821.52,614.8c0,1.182,0,1.182-1.186,1.182-1.258,0-1.258,0-1.258-1.262,0-1.181,0-1.181,1.186-1.181C821.52,613.538,821.52,613.538,821.52,614.8Z" transform="translate(-83.075 -16.619)" fill="#e5e8eb"/>
      </g>
    </g>
  </g>
</svg>
