<svg xmlns="http://www.w3.org/2000/svg" width="85" height="85" viewBox="0 0 85 85">
  <g id="Grupo_974530" data-name="Grupo 974530" transform="translate(-180 -6099)">
    <rect id="Rectángulo_34178" data-name="Rectángulo 34178" width="85" height="85" transform="translate(180 6099)" fill="none"/>
    <g id="Grupo_982382" data-name="Grupo 982382" transform="translate(161.315 5566.219)">
      <path id="Trazado_641575" data-name="Trazado 641575" d="M59.741,545.693l1.91,0a1.185,1.185,0,0,0,1.347.946c5.093-.011,10.186,0,15.28.011a5.059,5.059,0,0,1,1.565,3.932q.012,14.575,0,29.151c0,.229.081.487-.146.671-.186-.149-.366-.306-.56-.445a3.537,3.537,0,0,0-5.5,2.031c-.149.676-.428.73-.985.729q-13.54-.02-27.081-.008a2.05,2.05,0,0,0-2.312,2.09c-.028,1.286-.021,2.573,0,3.859a2.054,2.054,0,0,0,1.408,2,3.112,3.112,0,0,0,1.036.089q13.573,0,27.146-.009c.505,0,.675.117.66.645-.038,1.329-.009,2.66-.018,3.99,0,.152.1.353-.149.465-.856-1.013-1.684-2.053-2.577-3.034a3.47,3.47,0,0,0-5.522.415,4.094,4.094,0,0,0,.343,5.022l6.275,7.531-2.075.007c-.3-.842-.448-.947-1.394-.947-8.525,0-17.049-.027-25.574.017a3.639,3.639,0,0,1-3.823-3.823c.045-16.877.025-33.754.026-50.632a3.408,3.408,0,0,1,3.756-3.767H58.407C59.269,546.63,59.495,546.468,59.741,545.693Zm.926,33.4q7.652,0,15.3,0a2.019,2.019,0,0,0,2.179-2.146c.008-1.286.014-2.573,0-3.859a2,2,0,0,0-1.9-2.028c-.26-.023-.523-.02-.784-.02H46.034c-2.145,0-2.784.646-2.784,2.817,0,.959,0,1.919,0,2.878a2.091,2.091,0,0,0,2.374,2.36Zm.186-11.244a7.869,7.869,0,0,0,2.589-.425,8.837,8.837,0,0,0,6.072-8.226,1.007,1.007,0,0,0-.928-1.128c-.583-.033-.99.4-1.038,1.093-.023.325-.047.652-.1.973a6.831,6.831,0,1,1-8.158-7.781c.474-.1.953-.09,1.427-.154a.964.964,0,0,0,.958-1.029.938.938,0,0,0-1.052-.917,7.793,7.793,0,0,0-1.174.067,8.809,8.809,0,0,0,1.405,17.528Zm-10.995,25.8c-1.154,0-2.308-.015-3.461,0a3.013,3.013,0,0,0-3.111,2.744,8.354,8.354,0,0,0,.033,2.343,2.861,2.861,0,0,0,2.586,2.466,71.687,71.687,0,0,0,7.83,0,2.878,2.878,0,0,0,2.594-2.46,9.732,9.732,0,0,0,.063-1.889,3.063,3.063,0,0,0-3.2-3.206C52.079,593.637,50.969,593.648,49.858,593.648Zm11.821-35.3c0-.981.01-1.961,0-2.941-.01-.729-.355-1.06-1.091-1.078-.392-.01-.784-.006-1.176,0-.767.009-1.154.312-1.181.918s.337.992,1.08,1.03c.369.019.417.155.414.467-.013,1.525-.021,3.051,0,4.575.007.4-.1.506-.5.512a.937.937,0,0,0-1,.974.96.96,0,0,0,1.07.97q1.405.018,2.81,0a1,1,0,0,0,1.107-.95.977.977,0,0,0-1.059-.994c-.442,0-.487-.177-.48-.54C61.693,560.31,61.68,559.329,61.679,558.349Zm7-4.536a.928.928,0,0,0-.8-.93,4.875,4.875,0,0,0-.974-.043c-.3.012-.451-.071-.413-.4a4.118,4.118,0,0,0,0-.522c-.009-.818-.358-1.254-1-1.248s-.959.434-.965,1.272c-.006.873-.006.873-.9.89-.044,0-.087,0-.131,0-.711.033-1.154.4-1.168.969-.014.593.446.978,1.193,1,.987.029.987.029,1,.985,0,.043,0,.087,0,.13a.973.973,0,0,0,.982,1.061.993.993,0,0,0,.981-1.072c.051-1.029.051-1.029,1.135-1.106A1.01,1.01,0,0,0,68.677,553.813Z" transform="translate(-5.458 -2.891)" fill="#8cc9ec"/>
      <path id="Trazado_641576" data-name="Trazado 641576" d="M83.8,700.33,77.529,692.8a4.1,4.1,0,0,1-.343-5.022,3.47,3.47,0,0,1,5.522-.415c.893.981,1.721,2.021,2.577,3.033.245-.113.148-.313.149-.465.008-1.33-.021-2.661.018-3.99.015-.528-.155-.646-.66-.645q-13.573.022-27.146.009a3.114,3.114,0,0,1-1.036-.089,2.054,2.054,0,0,1-1.408-2c-.02-1.286-.026-2.573,0-3.859a2.05,2.05,0,0,1,2.312-2.09q13.541,0,27.081.008c.557,0,.835-.053.985-.729a3.537,3.537,0,0,1,5.5-2.031c.194.138.374.3.56.445a4.4,4.4,0,0,1,.959,3.024c-.044,1.668-.011,3.338-.011,5.094a4.01,4.01,0,0,1,2.724-.257,4.739,4.739,0,0,1,1.268.771c.194.2.306.106.483-.024a3.5,3.5,0,0,1,4.652-.012c.256.191.375.146.594-.027a3.391,3.391,0,0,1,3.84-.466,3.5,3.5,0,0,1,2.011,3.385c0,1.392-.019,2.785.008,4.177a1.1,1.1,0,0,1-.922,1.279c-.83-.187-1.047-.447-1.05-1.29-.005-1.432.02-2.864-.011-4.3a1.562,1.562,0,0,0-2.356-1.427,1.3,1.3,0,0,0-.759.843,1.109,1.109,0,0,1-1.088.786,1.085,1.085,0,0,1-1.066-.812,1.245,1.245,0,0,0-.06-.116,1.535,1.535,0,0,0-1.454-.936,1.484,1.484,0,0,0-1.45.934c-.223.522-.524.928-1.127.936-.635.008-.938-.42-1.178-.96a1.552,1.552,0,0,0-1.595-.909,1.617,1.617,0,0,0-1.409,1.27c-.04.168-.032.348-.072.517a.973.973,0,0,1-1.907.023,2.647,2.647,0,0,1-.037-.65c0-2.769,0-5.538-.007-8.307a1.627,1.627,0,0,0-1.294-1.658,1.6,1.6,0,0,0-1.772.919,2.777,2.777,0,0,0-.145,1.157q0,7.391,0,14.783c0,.218,0,.437-.017.653a.939.939,0,0,1-.69.86.91.91,0,0,1-1-.288c-.226-.235-.428-.494-.639-.744-1.233-1.469-2.449-2.954-3.7-4.4a1.56,1.56,0,0,0-2.778.567,2.158,2.158,0,0,0,.5,2.237c2.362,2.8,4.67,5.644,7.088,8.392a4.045,4.045,0,0,1,1.247,3.453c-.095.614.157.83.8.826,4.1-.027,8.2-.012,12.3-.017a2.036,2.036,0,0,0,.964-.1,5.351,5.351,0,0,0,4.7-5.036c.042-1.327.012-2.656.018-3.984,0-.848.22-1.108,1.051-1.3a1.062,1.062,0,0,1,.916,1.217,40.861,40.861,0,0,1-.138,5.087,7.374,7.374,0,0,1-6.971,6.06c-4.443.056-8.887.025-13.331.012a2.258,2.258,0,0,1-2.253-2.039.626.626,0,0,1-.021-.194C85.794,702.358,84.8,701.341,83.8,700.33Zm-12.42-21.1c-4.513,0-9.027.008-13.54-.011-.52,0-.73.095-.7.667.051.935.042,1.876,0,2.812-.021.5.108.659.639.657,4.448-.023,8.9-.013,13.343-.013,4.579,0,9.157-.006,13.736.01.442,0,.607-.087.586-.564a27.257,27.257,0,0,1,0-2.747c.036-.625-.1-.837-.792-.831C80.237,679.249,75.81,679.23,71.384,679.23Z" transform="translate(-17.403 -97.444)" fill="#030304"/>
      <path id="Trazado_641577" data-name="Trazado 641577" d="M54.282,542.8c-.246.775-.471.937-1.333.937q-7.816,0-15.632,0a3.408,3.408,0,0,0-3.756,3.767c0,16.877.02,33.754-.026,50.632a3.639,3.639,0,0,0,3.823,3.823c8.524-.044,17.049-.018,25.574-.017.947,0,1.1.106,1.394.947-.254.83-.489,1.015-1.349,1.015q-12.914,0-25.829,0a5.331,5.331,0,0,1-5.55-5.563q-.007-25.505,0-51.011a5.319,5.319,0,0,1,5.55-5.553q7.912-.01,15.824,0C53.847,541.778,54.106,541.985,54.282,542.8Z" transform="translate(0 0)" fill="#020303"/>
      <path id="Trazado_641578" data-name="Trazado 641578" d="M142.022,543.762c-5.093-.007-10.186-.022-15.28-.011a1.185,1.185,0,0,1-1.347-.946c.241-.859.452-1.028,1.322-1.028q7.875,0,15.751,0a5.351,5.351,0,0,1,5.648,5.659c.011,3.421,0,6.842,0,10.263q0,12.126,0,24.252c0,.96-.138,1.154-.988,1.437-.883-.3-.972-.434-.972-1.511q0-17.072,0-34.144a5.434,5.434,0,0,0-.152-1.555C145.513,544.5,144.11,543.651,142.022,543.762Z" transform="translate(-69.204)" fill="#050505"/>
      <path id="Trazado_641579" data-name="Trazado 641579" d="M188.8,549.327c2.087-.111,3.491.737,3.986,2.415a5.433,5.433,0,0,1,.152,1.555q0,17.072,0,34.144c0,1.077.088,1.21.972,1.511q-.008.994-.016,1.989a4.01,4.01,0,0,0-2.724.257c0-1.757-.033-3.427.011-5.094a4.4,4.4,0,0,0-.959-3.024c.227-.184.146-.442.146-.671q.006-14.576,0-29.151A5.059,5.059,0,0,0,188.8,549.327Z" transform="translate(-115.982 -5.564)" fill="#63a6d0"/>
      <path id="Trazado_641580" data-name="Trazado 641580" d="M234.073,715.389a1.563,1.563,0,0,1,2.356,1.427c.031,1.431.006,2.864.011,4.3,0,.843.22,1.1,1.05,1.29q0,.965,0,1.929c-.831.187-1.047.447-1.051,1.3-.007,1.328.024,2.657-.018,3.984a5.351,5.351,0,0,1-4.7,5.036,7.232,7.232,0,0,0,2.777-6.209c-.109-3.806-.035-7.618-.021-11.427A3.113,3.113,0,0,0,234.073,715.389Z" transform="translate(-147.646 -127.939)" fill="#d7997a"/>
      <path id="Trazado_641581" data-name="Trazado 641581" d="M72.642,650.4H57.6a2.091,2.091,0,0,1-2.374-2.36c0-.959,0-1.919,0-2.878,0-2.171.639-2.817,2.784-2.817h29.43c.261,0,.524,0,.784.02a2,2,0,0,1,1.9,2.027c.017,1.286.011,2.573,0,3.859a2.019,2.019,0,0,1-2.179,2.146Q80.294,650.4,72.642,650.4Zm.017-1.965c4.97,0,9.94-.008,14.91.012.485,0,.63-.108.607-.6a28.674,28.674,0,0,1,0-2.876c.031-.568-.164-.666-.69-.664q-11.379.026-22.757.012c-2.332,0-4.665.009-7-.008-.422,0-.565.115-.551.55.031.98.037,1.963,0,2.942-.02.5.11.652.634.649C62.762,648.426,67.71,648.435,72.658,648.435Z" transform="translate(-17.433 -74.198)" fill="#040405"/>
      <path id="Trazado_641582" data-name="Trazado 641582" d="M97.109,580.684A8.809,8.809,0,0,1,95.7,563.157a7.8,7.8,0,0,1,1.174-.067.938.938,0,0,1,1.052.917.964.964,0,0,1-.958,1.029c-.474.064-.953.049-1.427.154a6.837,6.837,0,1,0,8.158,7.781c.053-.321.078-.648.1-.973.048-.692.455-1.126,1.038-1.093a1.007,1.007,0,0,1,.928,1.128,8.837,8.837,0,0,1-6.072,8.226A7.867,7.867,0,0,1,97.109,580.684Z" transform="translate(-41.714 -15.725)" fill="#020304"/>
      <path id="Trazado_641583" data-name="Trazado 641583" d="M61.752,728.552c1.11,0,2.221-.01,3.331,0a3.063,3.063,0,0,1,3.2,3.206,9.732,9.732,0,0,1-.063,1.889,2.878,2.878,0,0,1-2.594,2.46,71.672,71.672,0,0,1-7.83,0,2.861,2.861,0,0,1-2.586-2.466,8.354,8.354,0,0,1-.033-2.343,3.013,3.013,0,0,1,3.111-2.744C59.445,728.537,60.6,728.552,61.752,728.552Zm-.044,5.663h2.354c2.182,0,2.292-.111,2.266-2.285-.012-1.038-.383-1.411-1.431-1.414-1.831,0-3.662,0-5.493,0-2.229,0-2.334.106-2.3,2.312.016.994.388,1.373,1.4,1.385C59.572,734.224,60.641,734.215,61.709,734.215Z" transform="translate(-17.352 -137.795)" fill="#040505"/>
      <path id="Trazado_641584" data-name="Trazado 641584" d="M115.785,582.629c0,.98.014,1.961-.007,2.941-.008.363.038.54.48.54a.977.977,0,0,1,1.059.994,1,1,0,0,1-1.107.95q-1.405.016-2.81,0a.96.96,0,0,1-1.07-.97.937.937,0,0,1,1-.974c.4-.006.51-.109.5-.512-.025-1.525-.017-3.05,0-4.575,0-.312-.046-.448-.414-.467-.743-.038-1.108-.426-1.08-1.03s.415-.909,1.181-.918c.392,0,.784-.009,1.176,0,.736.019,1.081.349,1.091,1.079C115.795,580.668,115.784,581.649,115.785,582.629Z" transform="translate(-59.564 -27.171)" fill="#020303"/>
      <path id="Trazado_641585" data-name="Trazado 641585" d="M134.361,567.823a1.01,1.01,0,0,1-1.044.99c-1.084.077-1.084.077-1.135,1.106a.993.993,0,0,1-.981,1.072.973.973,0,0,1-.982-1.061c0-.043,0-.087,0-.13-.014-.956-.014-.956-1-.985-.748-.022-1.208-.407-1.193-1,.014-.569.457-.936,1.168-.969.044,0,.087,0,.131,0,.89-.017.89-.017.9-.89.006-.838.331-1.266.965-1.272s.99.43,1,1.248a4.118,4.118,0,0,1,0,.522c-.038.327.112.41.413.4a4.884,4.884,0,0,1,.974.043A.928.928,0,0,1,134.361,567.823Z" transform="translate(-71.142 -16.901)" fill="#020304"/>
      <path id="Trazado_641586" data-name="Trazado 641586" d="M169.284,690.449a3.113,3.113,0,0,1,.4,1.62c-.014,3.809-.088,7.621.021,11.427a7.233,7.233,0,0,1-2.777,6.209,2.036,2.036,0,0,1-.964.1c-4.1,0-8.2-.01-12.3.017-.646,0-.9-.212-.8-.826a4.045,4.045,0,0,0-1.247-3.453c-2.419-2.748-4.727-5.594-7.088-8.392a2.158,2.158,0,0,1-.5-2.237,1.56,1.56,0,0,1,2.778-.567c1.256,1.449,2.471,2.934,3.7,4.4.21.25.412.509.639.744a.91.91,0,0,0,1,.288.939.939,0,0,0,.69-.86c.02-.217.017-.436.017-.653q0-7.392,0-14.783a2.777,2.777,0,0,1,.145-1.157,1.6,1.6,0,0,1,1.772-.919,1.627,1.627,0,0,1,1.294,1.658c.012,2.769,0,5.538.007,8.307a2.646,2.646,0,0,0,.037.65.973.973,0,0,0,1.907-.023c.04-.168.031-.349.072-.517a1.617,1.617,0,0,1,1.409-1.27,1.552,1.552,0,0,1,1.595.909c.24.54.543.968,1.178.96.6-.008.9-.414,1.127-.936a1.484,1.484,0,0,1,1.45-.934,1.535,1.535,0,0,1,1.454.936,1.229,1.229,0,0,1,.06.116,1.085,1.085,0,0,0,1.066.812,1.109,1.109,0,0,0,1.088-.786A1.3,1.3,0,0,1,169.284,690.449Z" transform="translate(-82.857 -103)" fill="#ebbb98"/>
      <path id="Trazado_641587" data-name="Trazado 641587" d="M76.9,694.3c4.426,0,8.853.019,13.278-.02.7-.006.828.206.792.831a27.258,27.258,0,0,0,0,2.747c.021.477-.144.566-.586.564-4.579-.016-9.157-.01-13.736-.01-4.448,0-8.9-.01-13.343.013-.531,0-.66-.154-.639-.657.039-.936.049-1.877,0-2.812-.031-.572.179-.669.7-.667C67.869,694.309,72.383,694.3,76.9,694.3Zm-7.445,3.042a.991.991,0,1,0,.03-1.965.989.989,0,1,0-.03,1.965Zm4,0a.992.992,0,0,0,1.126-.991.973.973,0,0,0-1.072-.974.991.991,0,1,0-.053,1.965Zm8.059,0a1.022,1.022,0,0,0,1.111-.958,1.011,1.011,0,0,0-1.12-1.007.972.972,0,0,0-1.093.952A.983.983,0,0,0,81.507,697.343Zm-16.027,0a1,1,0,0,0,1.079-1.03,1.01,1.01,0,0,0-1.169-.935,1,1,0,0,0-1.05.992A1.019,1.019,0,0,0,65.481,697.343Zm11.978,0a1.011,1.011,0,0,0,1.138-.972.988.988,0,0,0-1.047-.993,1.018,1.018,0,0,0-1.172.934A1,1,0,0,0,77.459,697.343Z" transform="translate(-22.915 -112.514)" fill="#e9ecef"/>
      <path id="Trazado_641588" data-name="Trazado 641588" d="M78.157,653.944c-4.948,0-9.9-.009-14.844.013-.524,0-.654-.149-.634-.649.039-.979.033-1.962,0-2.942-.014-.435.129-.553.551-.55,2.332.017,4.665.008,7,.008q11.379,0,22.757-.012c.525,0,.721.1.69.664a28.677,28.677,0,0,0,0,2.876c.023.5-.121.605-.607.6C88.1,653.937,83.127,653.944,78.157,653.944Z" transform="translate(-22.932 -79.707)" fill="#eaedf0"/>
      <path id="Trazado_641589" data-name="Trazado 641589" d="M67.3,739.75c-1.068,0-2.136.009-3.2,0-1.01-.012-1.381-.39-1.4-1.385-.036-2.207.069-2.312,2.3-2.312,1.831,0,3.662,0,5.493,0,1.048,0,1.419.375,1.431,1.414.026,2.173-.084,2.285-2.266,2.285Z" transform="translate(-22.944 -143.331)" fill="#e7cc60"/>
      <path id="Trazado_641590" data-name="Trazado 641590" d="M85.526,700.431a.989.989,0,1,1,.03-1.965.991.991,0,1,1-.03,1.965Z" transform="translate(-38.99 -115.602)" fill="#070707"/>
      <path id="Trazado_641591" data-name="Trazado 641591" d="M100.755,700.431a.991.991,0,1,1,.053-1.965.973.973,0,0,1,1.072.974A.992.992,0,0,1,100.755,700.431Z" transform="translate(-50.222 -115.602)" fill="#070707"/>
      <path id="Trazado_641592" data-name="Trazado 641592" d="M131.448,700.431a.983.983,0,0,1-1.1-1.013.972.972,0,0,1,1.093-.952,1.011,1.011,0,0,1,1.12,1.008A1.022,1.022,0,0,1,131.448,700.431Z" transform="translate(-72.856 -115.602)" fill="#070707"/>
      <path id="Trazado_641593" data-name="Trazado 641593" d="M70.222,700.428a1.019,1.019,0,0,1-1.141-.972,1,1,0,0,1,1.05-.992,1.01,1.01,0,0,1,1.169.935A1,1,0,0,1,70.222,700.428Z" transform="translate(-27.657 -115.6)" fill="#070707"/>
      <path id="Trazado_641594" data-name="Trazado 641594" d="M116.067,700.429a1,1,0,0,1-1.081-1.031,1.018,1.018,0,0,1,1.172-.934.988.988,0,0,1,1.047.993A1.011,1.011,0,0,1,116.067,700.429Z" transform="translate(-61.523 -115.6)" fill="#070707"/>
    </g>
  </g>
</svg>
