<svg id="Grupo_963308" data-name="Grupo 963308" xmlns="http://www.w3.org/2000/svg" width="144.902" height="144.902" viewBox="0 0 144.902 144.902">
  <g id="Grupo_94722" data-name="Grupo 94722">
    <g id="_240_F_327287600_TyhZPz7Qge3YOTv4dab7M9xRDBiZxF9G" data-name="240_F_327287600_TyhZPz7Qge3YOTv4dab7M9xRDBiZxF9G" fill="#e0dafc" stroke="#e28f5e" stroke-width="3">
      <circle cx="72.451" cy="72.451" r="72.451" stroke="none"/>
      <circle cx="72.451" cy="72.451" r="70.951" fill="none"/>
    </g>
  </g>
  <g id="Grupo_982373" data-name="Grupo 982373" transform="translate(-315.428 -537.57)">
    <path id="Trazado_641313" data-name="Trazado 641313" d="M408.611,637.355c.331.862.661,1.642.931,2.441a21.937,21.937,0,0,1,1.156,7.085c0,3.1-.037,6.208.022,9.311.016.835-.251.949-1,.948q-21.859-.035-43.716,0c-.822,0-.965-.233-.955-.992.047-3.42,0-6.841.054-10.261.012-.754-.153-.942-.906-.939-7.444.029-14.889-.005-22.333.045-.984.007-1.17-.262-1.154-1.185.058-3.514.021-7.031.024-10.546A19.75,19.75,0,0,1,357.052,613.3a2.152,2.152,0,0,0,1.354-1.841c-.05-.3-.317-.271-.506-.333a8.995,8.995,0,0,1-6.26-6.657c-.128-.488-.335-.556-.758-.592a6.02,6.02,0,0,1-4.961-8.65,1.76,1.76,0,0,0,.039-1.489c-1.77-5.511-.307-11.814,5.413-14.631a7.879,7.879,0,0,0,3.18-2.691,9.912,9.912,0,0,1,7.388-4.309,20.7,20.7,0,0,1,9.824.951,15.646,15.646,0,0,1,10.01,14.847c-.01.7.194.809.83.8q5.655-.041,11.309,0c1.574.011,1.548.047,1.579-1.512.056-2.816-.164-5.635.16-8.447a18.246,18.246,0,0,1,36.079-.705,18.9,18.9,0,0,1,.264,3.5q-.014,16.153-.016,32.305a3.048,3.048,0,0,0,.434,1.6,18.758,18.758,0,0,1,2.6,9.3c.051,3.958,0,7.918.04,11.876.008.7-.275.733-.823.732q-12.259-.02-24.519-.009Zm-22.248-35,.021,1.541a2.433,2.433,0,0,0-.017.567c.191.949-.306,1.043-1.053.9a8.074,8.074,0,0,1-4.132-2.177c-.75-.726-1.114-.715-1.8.075a2.453,2.453,0,0,0-.627,1.646c0,3.829-.05,7.659.022,11.487a5.962,5.962,0,0,0,5.824,5.744q3.275.064,6.552,0a5.941,5.941,0,0,0,5.816-5.65c.1-3.573.028-7.151.037-10.727,0-.307-.024-.52-.4-.615a10.488,10.488,0,0,1-2.614-1.3,11.267,11.267,0,0,0-1.557-1.478,26.549,26.549,0,0,1-1.242-2.637c-.52-1.871-.514-1.91,1.361-1.91a2.775,2.775,0,0,0,.474,0c.656-.115.891.162,1.065.808a4.98,4.98,0,0,0,3.9,3.731c.66.159,1.586-.33,1.949.26a3.911,3.911,0,0,1,.09,2.048c-.034.558.157.747.707.844,1.451.257,1.445.29,1.8-1.147.068-.277.139-.552.206-.829a9.307,9.307,0,0,0-9.051-11.778c-3.9-.06-7.8-.083-11.691.011a9.143,9.143,0,0,0-8.512,5.525c-1.3,2.7-.825,5.427-.022,8.145.094.319.289.352.585.264a4.932,4.932,0,0,1,1.112-.23c.475-.026.54-.268.554-.674a5.393,5.393,0,0,1,2.772-4.68c.285-.172.492-.312.466-.72-.1-1.574-.085-1.575,1.49-1.575a1.261,1.261,0,0,0,.19,0c.755-.114,1.139.092,1.344.951A4.771,4.771,0,0,0,386.363,602.355Zm19.518,10.9a6.029,6.029,0,0,1-5.138,4.274,1,1,0,0,0-1.042.9,8.976,8.976,0,0,1-5.463,6.153c-.26.111-.717.042-.7.474.014.462.456.437.784.525a21.691,21.691,0,0,1,12.032,8.137,1.289,1.289,0,0,0,1.164.6q7.271-.031,14.542,0c.689,0,.826-.2.822-.851-.029-4.086-.015-8.172-.015-12.258,0-2.121,0-2.075,2.1-2.135.839-.024.964.266.958,1.016-.035,4.466,0,8.933-.034,13.4,0,.677.188.85.845.829,1.519-.049,3.042-.035,4.562,0,.52.011.71-.118.7-.675-.031-3.009.03-6.019-.037-9.027A16.684,16.684,0,0,0,421.4,609.685c-.69-.267-.917-.175-1.161.553a8.418,8.418,0,0,1-10.018,5.6A9.2,9.2,0,0,1,405.881,613.257Zm-25.175,30.952c-.053-.286-.078-.378-.087-.472-.44-4.377-.888-8.752-1.308-13.131-.069-.718-.147-1.032-.975-.584a18.605,18.605,0,0,0-9.835,13.032c-.738,3.472-.274,7.008-.4,10.513-.019.545.3.516.662.515,1.552-.006,3.105-.032,4.656.012.627.018.792-.173.786-.791-.03-3.072-.014-6.144-.014-9.216,0-2.2,0-2.172,2.232-2.191.688-.006.83.214.825.858-.03,3.515,0,7.03-.028,10.546,0,.612.151.8.782.794q9.883-.035,19.766,0c.648,0,.776-.21.77-.8-.027-3.1-.013-6.207-.013-9.31,0-2.07,0-2.013,2.055-2.091.9-.034,1.014.291,1.005,1.07-.039,3.451-.015,6.9-.019,10.355,0,.422-.069.8.594.779,1.646-.043,3.294-.023,4.941-.008.394,0,.568-.1.556-.528-.088-3.036.224-6.087-.186-9.109a18.559,18.559,0,0,0-10.141-14.478c-.6-.328-.8-.21-.863.461-.25,2.773-.527,5.544-.8,8.315-.176,1.772-.367,3.542-.572,5.51l-5.692-7.1v8.638c0,2.25,0,2.221-2.288,2.223-.652,0-.773-.219-.768-.81.026-3.008.016-6.017,0-9.026,0-.258.134-.558-.155-.82Zm20.864-52.743v-12.69c0-2.308,0-2.281,2.343-2.264.627,0,.732.227.71.771-.037.949.019,1.9-.02,2.85-.029.7.238.646.7.376a4.84,4.84,0,0,0,2.1-2.484c.193-.483-.012-1.211.466-1.439a4.07,4.07,0,0,1,1.594-.054,3.238,3.238,0,0,0,.475,0c.547-.085.718.112.814.688a4.358,4.358,0,0,0,4.423,3.814,9.193,9.193,0,0,1-1.354-3.318c-.19-1.182-.211-1.179.933-1.18.444,0,.891.035,1.33-.009.525-.053.658.147.744.661a4.515,4.515,0,0,0,4.059,3.9c1.968.144,1.968.144,1.968-1.834v-.475c0-2.269,0-2.248,2.256-2.252.6,0,.8.131.8.775-.027,5.891.013,11.783-.03,17.674a9.014,9.014,0,0,1-6.487,8.541c-.649.195-1.322.309-1.962.456.131,1.284.913,1.787,2.072,2a17.47,17.47,0,0,1,6.6,2.771c.95.643,1.843,1.37,2.833,2.112v-.559q0-14.633-.007-29.267a15.765,15.765,0,0,0-.158-1.985,15.189,15.189,0,0,0-29.833-1.439c-.858,3.874-.271,7.829-.421,11.745-.012.326.2.422.444.529A14.425,14.425,0,0,1,401.57,591.466ZM354,617.345c-5.677,2.708-9.15,7.011-10.024,13.2-.506,3.582-.106,7.209-.209,10.814-.014.493.194.568.616.563,1.552-.019,3.1-.042,4.655.009.667.022.843-.166.837-.834-.034-3.609-.016-7.219-.016-10.828,0-2.045,0-2.005,2.077-2.06.795-.021.994.2.985.987-.042,3.989-.011,7.979-.029,11.968,0,.526.054.782.7.777,3.8-.033,7.6-.027,11.4,0,.525,0,.7-.2.827-.664,2.328-8.152,7.6-13.365,15.733-15.711.311-.09.672-.108.688-.513s-.395-.344-.625-.434a8.123,8.123,0,0,1-4.627-4.012,6.233,6.233,0,0,0-3.108-2.851c-.642-.341-.867-.252-1.028.488a41.969,41.969,0,0,1-8.824,17.952c-.4.492-.581.453-.965-.014a42.994,42.994,0,0,1-7.5-13.208A58.156,58.156,0,0,1,354,617.345Zm21.715-27.015c.872-.354,1.59-.682,2.333-.935a.909.909,0,0,0,.7-.966,13.28,13.28,0,0,0-.287-3.393,12.657,12.657,0,0,0-11.773-10,15.665,15.665,0,0,0-5.842.379,8.045,8.045,0,0,0-4.935,4.565c-.2.432-.3.955-.945,1.074-4.689.869-7.294,4.9-6.55,10.135.138.97.434,1.293,1.362.8a2.1,2.1,0,0,1,.922-.194c.6-.01.7-.33.686-.852-.029-1.519-.01-3.039-.01-4.558,0-2.453,0-2.44,2.45-2.275.449.03.611.169.6.615-.022.918-.018,1.836,0,2.754.005.261-.157.623.162.763.285.125.525-.153.757-.3a4.673,4.673,0,0,0,2.082-3.154c.045-.227-.072-.609.271-.627a10.783,10.783,0,0,1,2.553.028c.48.091.227.833.44,1.241.146.279.217.6.363.873a3.952,3.952,0,0,0,3.9,2.222,7.953,7.953,0,0,1-1.362-3.507c-.035-.308-.291-.775.347-.9,1.06-.2,2.544.024,2.655.443.008.03,0,.064.01.094.627,2.773,2.2,4,5.015,4.045.794.012,1.192-.135,1.061-1.021a9.842,9.842,0,0,1-.012-1.422c0-2.17,0-2.144,2.2-2.151.653,0,.879.164.861.844C375.684,586.722,375.715,588.49,375.715,590.331Zm47.148-.325c0-1.647-.034-3.294.016-4.938.021-.711-.128-.977-.913-.954-2.12.061-4.243-.008-6.364.029a7.46,7.46,0,0,1-5.981-2.568c-.409-.46-.577-.341-.912.042a6.854,6.854,0,0,1-3.472,2.2c-.573.147-.639.43-.633.923.023,1.773,0,3.546.01,5.319.009,2.636-.272,5.3,1.055,7.778a4.642,4.642,0,0,0,.829,1.337,5.839,5.839,0,0,0,4.018,1.675c2.122.015,4.244.031,6.365,0a6.03,6.03,0,0,0,5.977-6C422.883,593.236,422.861,591.621,422.863,590.006Zm-68.44,7.409c0,1.678-.021,3.356,0,5.033a6.026,6.026,0,0,0,5.969,6.007c2.121.032,4.242.006,6.364,0a6.115,6.115,0,0,0,3.044-.926,1.233,1.233,0,0,0,.654-1.69,13.843,13.843,0,0,1-.477-7.659,12.036,12.036,0,0,1,2.322-4.72,1.517,1.517,0,0,0,.325-1.495c-.165-.494-.716-.215-1.083-.22-2.026-.028-4.053-.046-6.079,0a7.506,7.506,0,0,1-6.062-2.6c-.365-.411-.528-.352-.85.025A6.674,6.674,0,0,1,355.1,591.4c-.614.154-.7.452-.687.983C354.437,594.06,354.421,595.738,354.422,597.415Zm57.832,6.486a3.044,3.044,0,0,1-.568,0c-1.1-.214-1.639.237-1.875,1.335a4.3,4.3,0,0,1-2.525,3.126c-.529.239-.387.529-.265.905a5.471,5.471,0,0,0,10.4-.009c.152-.464.153-.722-.363-.953a4.341,4.341,0,0,1-2.317-2.624C414.1,603.9,414.092,603.9,412.255,603.9Zm-48.673,19.99c-.127.048-.218.074-.3.115-.987.492-1.966,1-2.963,1.472-.413.2-.247.431-.124.684a42.3,42.3,0,0,0,2.992,5.149c.28.415.448.411.725,0a43.678,43.678,0,0,0,2.482-4.136c.781-1.495.776-1.5-.72-2.24C364.968,624.584,364.265,624.232,363.581,623.891Zm-.069-4.737a3.228,3.228,0,0,0,.222-.26c.715-1.187,1.392-2.4,2.155-3.553a1.98,1.98,0,0,0,.23-2c-.688-1.82-.642-1.837-2.545-1.837-1.962,0-1.974,0-2.585,1.883-.137.422-.467.821-.148,1.335C361.735,616.159,362.591,617.619,363.513,619.154Zm24.426,6.045c-.536,0-1.074-.025-1.608.009-.366.023-.832-.218-1.032.366a1.277,1.277,0,0,0,.122,1.461c.738.858,1.394,1.79,2.051,2.715.3.421.483.485.81.02.67-.954,1.346-1.911,2.1-2.793.43-.5.222-.907.084-1.382-.172-.59-.646-.37-1.016-.389C388.95,625.179,388.444,625.2,387.939,625.2Zm-5,11.346c1.024-1.275,1.88-2.357,2.758-3.42.236-.286.162-.483-.034-.74-.9-1.177-1.78-2.367-2.671-3.55-.147-.2-.269-.453-.6-.323s-.228.42-.205.65C382.429,631.541,382.675,633.92,382.943,636.545Zm9.877-.01c.268-2.635.515-5.047.755-7.461.021-.21.079-.448-.206-.564s-.411.066-.546.245q-1.4,1.859-2.8,3.719a.423.423,0,0,0,0,.594C390.913,634.163,391.8,635.265,392.82,636.534ZM351.379,597.9c0-.883-.01-1.766,0-2.649.007-.378-.112-.473-.5-.416a3.051,3.051,0,0,0-.14,5.991c.488.091.677-.029.646-.562C351.346,599.474,351.38,598.684,351.379,597.9Zm48.67,13.586c0,.819.031,1.641-.011,2.458-.027.521.142.66.64.568a3.05,3.05,0,0,0-.131-5.99c-.382-.058-.51.026-.5.41C400.06,609.778,400.049,610.63,400.048,611.481Zm-24.334.065q0-1.277,0-2.554c0-.293.034-.542-.436-.492a3.054,3.054,0,0,0-.165,6.012c.427.069.634,0,.611-.506C375.686,613.188,375.714,612.366,375.714,611.546Zm-18.675,5.247c.016.1.022.194.046.286.307,1.191.586,2.391.933,3.571.7,2.387.719,2.382,2.848,1.158.055-.032.115-.053.172-.079.246-.113.319-.267.166-.522-.946-1.568-1.884-3.141-2.828-4.711-.283-.47-.668-.168-1.017-.123C357.107,616.4,356.925,616.491,357.039,616.793Zm12.292-.511c-.414-.143-.567.135-.736.419-.6,1.005-1.2,2-1.8,3.006-1.136,1.895-1.128,1.879.912,2.853.483.231.679.226.87-.335.571-1.676,1.016-3.382,1.445-5.1C370.2,616.412,369.843,616.323,369.33,616.282Zm36.027-10.538c.963-.146,2.112-1.624,1.849-2.383-.138-.4-.638-.521-1.006-.587s-.22.364-.274.579C405.728,604.138,405.549,604.929,405.357,605.744Zm-36.092,5.366c-.109.176-.629-.021-.549.392a8.1,8.1,0,0,0,.566,1.592c.035.084.274.1.422.107.036,0,.127-.139.116-.2a8.134,8.134,0,0,1-.2-1.778C369.626,611.061,369.459,611.08,369.264,611.11Z" fill="#020202"/>
    <path id="Trazado_641314" data-name="Trazado 641314" d="M491.716,689.057a9.2,9.2,0,0,0,4.342,2.58,8.418,8.418,0,0,0,10.018-5.6c.244-.728.471-.82,1.161-.553A16.684,16.684,0,0,1,517.8,700.421c.067,3.008.006,6.018.037,9.027.005.557-.184.686-.7.675-1.52-.03-3.042-.044-4.562,0-.657.021-.85-.152-.845-.829.032-4.466,0-8.933.034-13.4.006-.751-.12-1.04-.959-1.016-2.1.06-2.1.014-2.1,2.135,0,4.086-.014,8.173.015,12.258,0,.646-.133.856-.822.851q-7.271-.047-14.542,0a1.29,1.29,0,0,1-1.164-.6,21.692,21.692,0,0,0-12.032-8.137c-.329-.089-.77-.063-.784-.525-.013-.432.444-.363.7-.474a8.975,8.975,0,0,0,5.463-6.153,1,1,0,0,1,1.042-.9A6.029,6.029,0,0,0,491.716,689.057Z" transform="translate(-85.835 -75.801)" fill="#7cd2b4"/>
    <path id="Trazado_641315" data-name="Trazado 641315" d="M425.168,752.909l5.491-6.847c.29.262.155.562.155.82.012,3.008.022,6.017,0,9.025-.005.591.115.811.768.81,2.288,0,2.288.027,2.288-2.223v-8.638l5.692,7.1c.2-1.968.4-3.738.572-5.51.275-2.771.553-5.542.8-8.315.06-.67.259-.788.863-.461a18.559,18.559,0,0,1,10.141,14.478c.41,3.022.1,6.073.186,9.109.012.43-.162.532-.556.528-1.647-.015-3.295-.035-4.941.008-.663.018-.595-.358-.594-.779,0-3.452-.02-6.9.019-10.355.009-.778-.1-1.1-1.005-1.07-2.053.078-2.055.021-2.055,2.091,0,3.1-.014,6.207.013,9.31.005.595-.123.807-.77.8q-9.883-.037-19.766,0c-.63,0-.787-.182-.782-.794.028-3.515,0-7.031.028-10.546.005-.643-.137-.864-.825-.858-2.232.019-2.232-.011-2.232,2.191,0,3.072-.017,6.144.014,9.216.006.617-.158.809-.786.791-1.551-.045-3.1-.018-4.656-.012-.366,0-.681.03-.662-.515.125-3.505-.34-7.041.4-10.513a18.605,18.605,0,0,1,9.835-13.032c.828-.447.906-.133.975.584.419,4.378.868,8.754,1.308,13.131C425.09,752.531,425.115,752.623,425.168,752.909Z" transform="translate(-44.463 -108.7)" fill="#ed8773"/>
    <path id="Trazado_641316" data-name="Trazado 641316" d="M495.425,596.327a14.419,14.419,0,0,0-2.6-1.594c-.241-.107-.456-.2-.444-.529.149-3.916-.438-7.871.421-11.745a15.189,15.189,0,0,1,29.834,1.439,15.788,15.788,0,0,1,.158,1.985q.015,14.634.007,29.267v.559c-.99-.742-1.883-1.469-2.833-2.112a17.469,17.469,0,0,0-6.6-2.771c-1.159-.218-1.941-.721-2.072-2,.64-.147,1.313-.261,1.962-.456a9.014,9.014,0,0,0,6.487-8.541c.044-5.891,0-11.783.03-17.674,0-.644-.2-.776-.8-.774-2.256,0-2.256-.017-2.256,2.252v.475c0,1.979,0,1.979-1.968,1.834a4.515,4.515,0,0,1-4.059-3.9c-.086-.513-.219-.714-.744-.661-.439.044-.886.009-1.33.009-1.143,0-1.122,0-.933,1.18a9.193,9.193,0,0,0,1.354,3.318,4.358,4.358,0,0,1-4.423-3.814c-.1-.575-.267-.773-.814-.688a3.23,3.23,0,0,1-.475,0,4.069,4.069,0,0,0-1.594.055c-.478.229-.274.956-.466,1.439a4.84,4.84,0,0,1-2.1,2.484c-.466.27-.732.323-.7-.376.038-.949-.018-1.9.02-2.85.022-.544-.083-.766-.71-.771-2.343-.017-2.343-.044-2.343,2.264v12.69Z" transform="translate(-93.855 -4.861)" fill="#f4d57e"/>
    <path id="Trazado_641317" data-name="Trazado 641317" d="M358.882,705.817a58.173,58.173,0,0,0,1.562,5.627,42.994,42.994,0,0,0,7.5,13.208c.384.466.56.506.965.014a41.969,41.969,0,0,0,8.824-17.952c.161-.741.386-.83,1.028-.488a6.233,6.233,0,0,1,3.108,2.851,8.123,8.123,0,0,0,4.627,4.012c.23.09.64.037.625.434s-.377.423-.688.513c-8.129,2.346-13.4,7.559-15.733,15.711-.131.459-.3.667-.827.664-3.8-.024-7.6-.03-11.4,0-.645.006-.7-.251-.7-.777.018-3.99-.013-7.979.029-11.968.008-.787-.19-1.008-.985-.987-2.076.055-2.077.015-2.077,2.06,0,3.61-.018,7.219.016,10.828.007.668-.17.856-.837.834-1.55-.051-3.1-.027-4.655-.009-.422.005-.63-.07-.616-.563.1-3.605-.3-7.233.209-10.814C349.733,712.828,353.205,708.525,358.882,705.817Z" transform="translate(-4.883 -88.472)" fill="#6dbde3"/>
    <path id="Trazado_641318" data-name="Trazado 641318" d="M455.8,668.432a10.487,10.487,0,0,0,2.614,1.3c.375.095.4.309.4.615-.009,3.576.061,7.153-.037,10.727a5.941,5.941,0,0,1-5.816,5.65q-3.275.063-6.552,0a5.962,5.962,0,0,1-5.824-5.744c-.072-3.828-.021-7.658-.022-11.487a2.452,2.452,0,0,1,.627-1.646c.682-.791,1.047-.8,1.8-.075a8.075,8.075,0,0,0,4.132,2.177c.746.147,1.244.053,1.053-.9a2.433,2.433,0,0,1,.017-.567l1.531-.062a11.9,11.9,0,0,0,2.678,1.338c1.737.5,1.808.45,1.875-1.277ZM448.67,683.7c.885,0,1.77.016,2.655,0a4.477,4.477,0,0,0,4.279-3.386c.31-1.171.31-1.171-.845-1.173-.443,0-.886.013-1.328,0-.4-.014-.68,0-.82.51a1.4,1.4,0,0,1-1.527,1.016c-1.232-.012-2.465,0-3.7,0-2.306,0-2.286,0-2.28,2.311,0,.56.106.785.72.748C446.771,683.66,447.722,683.7,448.67,683.7ZM445.1,673.071a1.551,1.551,0,0,0-1.5,1.523,1.517,1.517,0,1,0,3.034-.043A1.557,1.557,0,0,0,445.1,673.071Zm9.158,3.025a1.5,1.5,0,0,0,1.508-1.487,1.518,1.518,0,1,0-3.036.022A1.5,1.5,0,0,0,454.257,676.1Z" transform="translate(-61.803 -64.593)" fill="#e8cfb5"/>
    <path id="Trazado_641319" data-name="Trazado 641319" d="M388.04,609.907c0-1.841-.03-3.609.015-5.374.018-.68-.208-.846-.861-.844-2.2.007-2.2-.018-2.2,2.151a9.838,9.838,0,0,0,.012,1.422c.131.886-.267,1.033-1.061,1.021-2.82-.042-4.388-1.272-5.015-4.045-.007-.031,0-.064-.01-.094-.111-.418-1.6-.643-2.655-.443-.638.121-.382.588-.347.9a7.953,7.953,0,0,0,1.362,3.507,3.952,3.952,0,0,1-3.9-2.222c-.146-.278-.218-.595-.363-.873-.213-.408.04-1.15-.44-1.241a10.783,10.783,0,0,0-2.553-.028c-.342.018-.226.4-.271.627a4.672,4.672,0,0,1-2.082,3.154c-.232.15-.473.427-.757.3-.319-.141-.157-.5-.162-.763-.019-.917-.024-1.836,0-2.754.011-.446-.15-.585-.6-.615-2.45-.165-2.45-.178-2.45,2.275,0,1.519-.019,3.039.01,4.558.01.522-.081.842-.686.852a2.1,2.1,0,0,0-.922.194c-.928.491-1.224.168-1.362-.8-.744-5.238,1.861-9.266,6.55-10.135.644-.12.747-.642.945-1.074A8.045,8.045,0,0,1,373.174,595a15.665,15.665,0,0,1,5.842-.379,12.657,12.657,0,0,1,11.773,10,13.282,13.282,0,0,1,.287,3.393.909.909,0,0,1-.7.966C389.63,609.225,388.913,609.553,388.04,609.907Z" transform="translate(-12.326 -19.577)" fill="#656c76"/>
    <path id="Trazado_641320" data-name="Trazado 641320" d="M526.67,619.869c0,1.615.021,3.23-.005,4.844a6.03,6.03,0,0,1-5.977,6c-2.121.03-4.243.014-6.365,0a5.839,5.839,0,0,1-4.018-1.675,4.641,4.641,0,0,1-.829-1.337c-1.327-2.478-1.046-5.142-1.055-7.778-.006-1.773.013-3.546-.01-5.319-.006-.493.059-.775.633-.923a6.854,6.854,0,0,0,3.472-2.2c.335-.383.5-.5.912-.042A7.46,7.46,0,0,0,519.409,614c2.121-.037,4.244.033,6.364-.029.785-.023.935.243.913.954C526.637,616.575,526.671,618.222,526.67,619.869Zm-10.2,7.814c.885,0,1.77.014,2.655,0a4.558,4.558,0,0,0,4.453-3.783c.092-.511.082-.856-.608-.79a13.2,13.2,0,0,1-1.8,0,.548.548,0,0,0-.666.455,1.511,1.511,0,0,1-1.682,1.079c-1.169-.025-2.339-.006-3.508-.006-2.438,0-2.419,0-2.345,2.437.016.518.182.632.656.616C514.57,627.661,515.519,627.683,516.467,627.682Zm5.608-7.606a1.5,1.5,0,0,0,1.551-1.444,1.518,1.518,0,1,0-3.035-.065A1.49,1.49,0,0,0,522.075,620.076Zm-9.093-3.025a1.549,1.549,0,0,0-1.516,1.5,1.517,1.517,0,1,0,3.034,0A1.552,1.552,0,0,0,512.981,617.052Z" transform="translate(-103.808 -29.863)" fill="#e8cfb5"/>
    <path id="Trazado_641321" data-name="Trazado 641321" d="M438.32,649.147a4.771,4.771,0,0,1-4.378-3.592c-.206-.859-.589-1.065-1.344-.951a1.261,1.261,0,0,1-.19,0c-1.575,0-1.592,0-1.49,1.575.026.408-.181.547-.466.72a5.393,5.393,0,0,0-2.772,4.68c-.014.406-.079.649-.554.674a4.925,4.925,0,0,0-1.112.23c-.3.088-.491.054-.585-.264-.8-2.718-1.281-5.447.022-8.145a9.143,9.143,0,0,1,8.512-5.525c3.9-.094,7.795-.071,11.691-.011a9.307,9.307,0,0,1,9.051,11.778c-.067.277-.138.552-.206.829-.354,1.437-.348,1.4-1.8,1.147-.549-.1-.74-.286-.707-.844a3.911,3.911,0,0,0-.09-2.048c-.363-.59-1.289-.1-1.949-.26a4.98,4.98,0,0,1-3.9-3.731c-.174-.646-.41-.923-1.065-.808a2.775,2.775,0,0,1-.474,0c-1.875,0-1.881.039-1.361,1.91a26.541,26.541,0,0,0,1.242,2.637l.007-.006a4.632,4.632,0,0,1-4.247-3.218c-.321-1.269-.954-1.483-2.024-1.325a1.26,1.26,0,0,1-.378,0c-.938-.15-1.022.294-.882,1.091a13.553,13.553,0,0,0,1.442,3.458Z" transform="translate(-51.957 -46.791)" fill="#656c76"/>
    <path id="Trazado_641322" data-name="Trazado 641322" d="M376.688,639.609c0-1.677.016-3.356-.01-5.033-.008-.531.073-.829.687-.983a6.674,6.674,0,0,0,3.455-2.225c.322-.376.485-.436.85-.025a7.506,7.506,0,0,0,6.062,2.6c2.026-.041,4.053-.023,6.079,0,.367,0,.919-.275,1.083.22a1.517,1.517,0,0,1-.325,1.495,12.036,12.036,0,0,0-2.322,4.72,13.843,13.843,0,0,0,.477,7.659,1.233,1.233,0,0,1-.654,1.69,6.115,6.115,0,0,1-3.044.926c-2.121,0-4.243.029-6.364,0a6.026,6.026,0,0,1-5.969-6.007C376.668,642.965,376.689,641.287,376.688,639.609Zm10.248,3.445v.01c-.918,0-1.837-.038-2.753.007a4.612,4.612,0,0,0-4.395,3.768c-.1.5-.1.859.6.79a13.039,13.039,0,0,1,1.8-.006.564.564,0,0,0,.679-.448,1.584,1.584,0,0,1,1.706-1.08c1.171,0,2.342,0,3.513,0,2.448,0,2.433,0,2.3-2.472-.024-.46-.162-.593-.606-.58C388.835,643.074,387.885,643.054,386.936,643.054Zm-5.614-6.067a1.558,1.558,0,0,0-1.587,1.428,1.519,1.519,0,1,0,3.034.144A1.561,1.561,0,0,0,381.322,636.987Zm9.023,3.024a1.5,1.5,0,0,0,1.549-1.446,1.518,1.518,0,1,0-3.035-.061A1.491,1.491,0,0,0,390.345,640.011Z" transform="translate(-22.266 -42.194)" fill="#e8ceb5"/>
    <path id="Trazado_641323" data-name="Trazado 641323" d="M519.823,670.435c1.837,0,1.84,0,2.485,1.775a4.341,4.341,0,0,0,2.317,2.624c.517.231.516.489.363.953a5.471,5.471,0,0,1-10.4.009c-.122-.376-.264-.666.265-.905a4.3,4.3,0,0,0,2.525-3.126c.235-1.1.774-1.548,1.875-1.335A3.044,3.044,0,0,0,519.823,670.435Z" transform="translate(-107.568 -66.534)" fill="#e7ceb4"/>
    <path id="Trazado_641324" data-name="Trazado 641324" d="M395.016,723c.684.341,1.386.693,2.09,1.042,1.5.743,1.5.746.72,2.24a43.678,43.678,0,0,1-2.482,4.136c-.277.412-.445.416-.725,0a42.3,42.3,0,0,1-2.992-5.149c-.123-.253-.289-.488.124-.684,1-.471,1.976-.98,2.963-1.472C394.8,723.073,394.889,723.047,395.016,723Z" transform="translate(-31.435 -99.108)" fill="#f6e5ab"/>
    <path id="Trazado_641325" data-name="Trazado 641325" d="M396.009,698.132c-.921-1.535-1.778-2.995-2.671-4.432-.319-.514.011-.914.148-1.335.611-1.887.623-1.883,2.585-1.883,1.9,0,1.857.017,2.545,1.837a1.98,1.98,0,0,1-.23,2c-.763,1.154-1.44,2.366-2.155,3.553A3.225,3.225,0,0,1,396.009,698.132Z" transform="translate(-32.497 -78.978)" fill="#e5ccb2"/>
    <path id="Trazado_641326" data-name="Trazado 641326" d="M460.116,726.4c.5,0,1.011-.02,1.514.006.37.02.843-.2,1.016.389.138.475.346.882-.084,1.382-.758.882-1.434,1.839-2.1,2.793-.326.465-.511.4-.81-.02-.656-.925-1.312-1.857-2.051-2.715a1.277,1.277,0,0,1-.122-1.461c.2-.584.667-.343,1.032-.366C459.042,726.372,459.58,726.4,460.116,726.4Z" transform="translate(-72.177 -101.198)" fill="#e5ccb2"/>
    <path id="Trazado_641327" data-name="Trazado 641327" d="M450.3,743.1c-.268-2.624-.514-5-.749-7.385-.023-.23-.13-.518.205-.65s.449.128.6.323c.89,1.183,1.772,2.373,2.671,3.55.2.257.27.454.034.74C452.179,740.745,451.323,741.827,450.3,743.1Z" transform="translate(-67.356 -106.557)" fill="#e37257"/>
    <path id="Trazado_641328" data-name="Trazado 641328" d="M472.754,743.091c-1.024-1.269-1.908-2.371-2.8-3.466a.423.423,0,0,1,0-.594q1.4-1.858,2.8-3.719c.135-.18.269-.357.546-.245s.227.354.206.564C473.268,738.043,473.021,740.456,472.754,743.091Z" transform="translate(-79.933 -106.556)" fill="#e37257"/>
    <path id="Trazado_641329" data-name="Trazado 641329" d="M363.777,649.757c0,.789-.033,1.579.012,2.365.03.533-.158.653-.647.562a3.051,3.051,0,0,1,.14-5.991c.387-.057.506.038.5.416C363.766,647.991,363.777,648.875,363.777,649.757Z" transform="translate(-12.398 -51.862)" fill="#e7ceb4"/>
    <path id="Trazado_641330" data-name="Trazado 641330" d="M496.449,685.582c0-.851.011-1.7,0-2.554-.007-.384.121-.468.5-.41a3.05,3.05,0,0,1,.131,5.99c-.5.092-.667-.048-.64-.568C496.48,687.222,496.449,686.4,496.449,685.582Z" transform="translate(-96.4 -74.1)" fill="#e7ceb4"/>
    <path id="Trazado_641331" data-name="Trazado 641331" d="M427.655,685.634c0,.82-.028,1.641.01,2.459.024.5-.184.575-.611.506a3.054,3.054,0,0,1,.165-6.012c.47-.05.436.2.436.492Q427.654,684.357,427.655,685.634Z" transform="translate(-51.941 -74.088)" fill="#e7ceb4"/>
    <path id="Trazado_641332" data-name="Trazado 641332" d="M383.519,703.461c-.114-.3.068-.388.32-.421.349-.045.734-.347,1.017.123.944,1.57,1.882,3.143,2.828,4.711.153.254.08.408-.166.522-.057.027-.118.048-.172.079-2.129,1.224-2.145,1.229-2.849-1.158-.347-1.179-.626-2.38-.933-3.571C383.541,703.656,383.534,703.56,383.519,703.461Z" transform="translate(-26.48 -86.668)" fill="#edcf7b"/>
    <path id="Trazado_641333" data-name="Trazado 641333" d="M410.48,702.963c.512.04.869.13.69.846-.43,1.715-.875,3.421-1.445,5.1-.191.561-.387.566-.87.335-2.04-.974-2.048-.958-.912-2.853.6-1,1.207-2,1.8-3.006C409.912,703.1,410.066,702.82,410.48,702.963Z" transform="translate(-41.149 -86.681)" fill="#edcf7b"/>
    <path id="Trazado_641334" data-name="Trazado 641334" d="M510.405,670.527c.192-.815.371-1.605.569-2.391.054-.214-.082-.643.274-.579s.867.19,1.006.587C512.517,668.9,511.368,670.382,510.405,670.527Z" transform="translate(-105.048 -64.784)" fill="#edcf7b"/>
    <path id="Trazado_641335" data-name="Trazado 641335" d="M462.092,667.948l-1.531.062q-.011-.77-.021-1.541l0,0A11.23,11.23,0,0,1,462.092,667.948Z" transform="translate(-74.176 -64.114)" fill="#656c76"/>
    <path id="Trazado_641336" data-name="Trazado 641336" d="M478.058,667.951l-1.53.058q-.01-.771-.02-1.542l-.007.006A11.27,11.27,0,0,1,478.058,667.951Z" transform="translate(-84.06 -64.112)" fill="#656c76"/>
    <path id="Trazado_641337" data-name="Trazado 641337" d="M456.08,703.017c-.948,0-1.9-.041-2.844.016-.615.037-.718-.187-.72-.748-.006-2.311-.026-2.311,2.28-2.311,1.233,0,2.466-.009,3.7,0a1.4,1.4,0,0,0,1.527-1.016c.141-.51.423-.525.82-.51.442.016.885,0,1.328,0,1.155,0,1.155,0,.845,1.173a4.477,4.477,0,0,1-4.279,3.386C457.85,703.032,456.965,703.016,456.08,703.017Z" transform="translate(-69.212 -83.91)" fill="#040403"/>
    <path id="Trazado_641338" data-name="Trazado 641338" d="M464.194,659.01q.01.771.02,1.542c-.067,1.727-.138,1.772-1.875,1.277a11.9,11.9,0,0,1-2.678-1.338,11.211,11.211,0,0,0-1.557-1.475,13.552,13.552,0,0,1-1.442-3.458c-.14-.8-.057-1.241.882-1.091a1.26,1.26,0,0,0,.378,0c1.07-.159,1.7.056,2.024,1.325A4.632,4.632,0,0,0,464.194,659.01Z" transform="translate(-71.746 -56.656)" fill="#020202"/>
    <path id="Trazado_641339" data-name="Trazado 641339" d="M450.068,682.539a1.557,1.557,0,0,1,1.539,1.48,1.517,1.517,0,1,1-3.034.043A1.551,1.551,0,0,1,450.068,682.539Z" transform="translate(-66.772 -74.061)" fill="#070706"/>
    <path id="Trazado_641340" data-name="Trazado 641340" d="M474.053,685.563a1.5,1.5,0,0,1-1.528-1.465,1.518,1.518,0,1,1,3.036-.022A1.5,1.5,0,0,1,474.053,685.563Z" transform="translate(-81.599 -74.061)" fill="#070706"/>
    <path id="Trazado_641341" data-name="Trazado 641341" d="M523.849,647.117c-.948,0-1.9-.022-2.844.01-.474.016-.64-.1-.656-.616-.074-2.437-.093-2.437,2.345-2.437,1.17,0,2.339-.019,3.508.006A1.511,1.511,0,0,0,527.884,643a.547.547,0,0,1,.666-.454,13.209,13.209,0,0,0,1.8-.005c.69-.066.7.279.608.79a4.558,4.558,0,0,1-4.453,3.783C525.62,647.131,524.734,647.117,523.849,647.117Z" transform="translate(-111.191 -49.297)" fill="#040403"/>
    <path id="Trazado_641342" data-name="Trazado 641342" d="M541.88,629.684a1.49,1.49,0,0,1-1.484-1.509,1.518,1.518,0,1,1,3.035.065A1.5,1.5,0,0,1,541.88,629.684Z" transform="translate(-123.614 -39.471)" fill="#070706"/>
    <path id="Trazado_641343" data-name="Trazado 641343" d="M517.959,626.66a1.552,1.552,0,0,1,1.518,1.5,1.517,1.517,0,1,1-3.034,0A1.549,1.549,0,0,1,517.959,626.66Z" transform="translate(-108.786 -39.471)" fill="#070706"/>
    <path id="Trazado_641344" data-name="Trazado 641344" d="M391.916,662.528c.949,0,1.9.019,2.848-.009.444-.013.582.12.606.58.129,2.472.144,2.472-2.3,2.472-1.171,0-2.342,0-3.513,0a1.584,1.584,0,0,0-1.706,1.08.564.564,0,0,1-.679.448,13.049,13.049,0,0,0-1.8.006c-.7.07-.694-.285-.6-.79a4.612,4.612,0,0,1,4.395-3.768c.915-.045,1.835-.007,2.753-.007Z" transform="translate(-27.246 -61.668)" fill="#040403"/>
    <path id="Trazado_641345" data-name="Trazado 641345" d="M386.283,646.615a1.561,1.561,0,0,1,1.446,1.573,1.519,1.519,0,1,1-3.034-.144A1.558,1.558,0,0,1,386.283,646.615Z" transform="translate(-27.228 -51.822)" fill="#070706"/>
    <path id="Trazado_641346" data-name="Trazado 641346" d="M410.137,649.642a1.491,1.491,0,0,1-1.486-1.507,1.518,1.518,0,1,1,3.035.061A1.5,1.5,0,0,1,410.137,649.642Z" transform="translate(-42.059 -51.825)" fill="#070706"/>
  </g>
</svg>
