<svg id="Grupo_963310" data-name="Grupo 963310" xmlns="http://www.w3.org/2000/svg" width="144.902" height="144.902" viewBox="0 0 144.902 144.902">
  <g id="Grupo_94722" data-name="Grupo 94722">
    <g id="_240_F_327287600_TyhZPz7Qge3YOTv4dab7M9xRDBiZxF9G" data-name="240_F_327287600_TyhZPz7Qge3YOTv4dab7M9xRDBiZxF9G" fill="#e0dafc" stroke="#e28f5e" stroke-width="3">
      <circle cx="72.451" cy="72.451" r="72.451" stroke="none"/>
      <circle cx="72.451" cy="72.451" r="70.951" fill="none"/>
    </g>
  </g>
  <g id="Grupo_982374" data-name="Grupo 982374" transform="translate(-4.268 -504.419)">
    <path id="Trazado_641347" data-name="Trazado 641347" d="M100.224,547.593c-4.239,0-8.479.01-12.718-.013-.536,0-.789.1-.963.664a6.868,6.868,0,0,1-6.645,4.92c-2.526.02-5.053.034-7.578-.015-.683-.013-.807.2-.786.82.047,1.421.031,2.845.006,4.268-.008.452.1.616.588.719a9.368,9.368,0,0,1,6.558,4.846.924.924,0,0,0,1.021.531,6.913,6.913,0,0,1,7.122,6.054,6.984,6.984,0,0,1-5.012,7.594,6.706,6.706,0,0,1-1.887.278c-6.5,0-13.009.017-19.513-.008a6.974,6.974,0,0,1-6.97-6.349,6.755,6.755,0,0,1,5.826-7.425,3.982,3.982,0,0,0,3.262-2,8.617,8.617,0,0,1,5.613-3.507c.538-.112.632-.3.623-.781-.026-1.451-.034-2.9,0-4.355.014-.526-.107-.684-.661-.677-2.642.031-5.285.049-7.927,0a6.963,6.963,0,0,1-1.879-13.608,3.874,3.874,0,0,1,1.527-.282,2.053,2.053,0,0,0,2.216-1.227,9.71,9.71,0,0,1,16.578.56,1.051,1.051,0,0,0,1.124.651,6.747,6.747,0,0,1,6.765,4.829c.2.644.5.739,1.082.738q12.631-.024,25.263-.011c3.02,0,4.69,1.666,4.692,4.677,0,4.674.019,9.349-.019,14.023-.006.712.214.835.863.829,3.339-.032,6.679-.019,10.018-.013a4.19,4.19,0,0,1,4.472,4.459c.006,1.713.01,3.426,0,5.139a4.156,4.156,0,0,1-3.639,4.293c-.447.074-.608.2-.543.624a1.807,1.807,0,0,1,0,.261,4.83,4.83,0,0,0,.049,1.724c.207.5.953.3,1.441.5a4.2,4.2,0,0,1,2.684,3.826c.028,1.858.02,3.717,0,5.575a4.116,4.116,0,0,1-3.537,4.2c-.6.1-.706.314-.642.806a1.448,1.448,0,0,1,0,.174,4.494,4.494,0,0,0,.046,1.637c.215.505.946.309,1.43.505a4.2,4.2,0,0,1,2.7,3.818c.029,1.916.034,3.833,0,5.749a4.128,4.128,0,0,1-4.12,4.1q-12.588.033-25.175,0a4.139,4.139,0,0,1-4.148-4.161c-.024-1.829-.016-3.658,0-5.487a4.136,4.136,0,0,1,3.606-4.23c.492-.079.65-.229.574-.684a.515.515,0,0,1,0-.087,5.423,5.423,0,0,0-.047-1.813c-.21-.552-.992-.32-1.494-.55a4.115,4.115,0,0,1-2.631-3.859c-.044-1.828-.02-3.658-.008-5.487a4.144,4.144,0,0,1,3.589-4.247c.464-.076.676-.19.592-.666a1,1,0,0,1,0-.174,5.306,5.306,0,0,0-.042-1.728c-.213-.581-.983-.342-1.484-.556a4.219,4.219,0,0,1-2.65-3.851c-.023-1.887-.027-3.775,0-5.662a4.146,4.146,0,0,1,4.172-4.136q5.183-.037,10.366.009c.644.007.812-.14.807-.8-.033-4.7-.016-9.407-.019-14.111,0-1.368-.461-1.832-1.819-1.833Q106.584,547.59,100.224,547.593Zm-30.067,2.786c3.279,0,6.558.034,9.836-.014a3.937,3.937,0,0,0,3.742-2.521,3.889,3.889,0,0,0-.687-4.377,3.941,3.941,0,0,0-4.327-1.254c-1.467.421-1.466.425-1.951-.989a6.966,6.966,0,0,0-13.234.011,6.237,6.237,0,0,0-.312.992c-.075.475-.3.448-.663.321a7,7,0,0,0-2.008-.526,4.176,4.176,0,1,0-.232,8.348C63.6,550.406,66.879,550.379,70.157,550.379Zm0,25.092c3.25,0,6.5.024,9.749-.009a3.979,3.979,0,0,0,3.827-2.528,3.881,3.881,0,0,0-.689-4.375,3.956,3.956,0,0,0-4.411-1.229c-1.39.422-1.389.423-1.844-.931a6.922,6.922,0,0,0-9.31-4.328,6.716,6.716,0,0,0-3.97,4.342c-.439,1.349-.444,1.336-1.774.948a5.215,5.215,0,0,0-1.274-.241,4.171,4.171,0,1,0-.141,8.342C63.6,575.5,66.88,575.469,70.159,575.47Zm46.09-8.362q-6.135,0-12.271,0c-1.264,0-1.753.479-1.759,1.716q-.012,2.48,0,4.96c.007,1.185.506,1.682,1.7,1.683q12.228.006,24.455,0c1.234,0,1.712-.5,1.717-1.76q.009-2.393,0-4.786c0-1.353-.468-1.813-1.838-1.814Q122.255,567.105,116.249,567.108Zm-.111,25.089q6.092,0,12.184,0c1.3,0,1.771-.479,1.775-1.79,0-1.654.011-3.307,0-4.96a1.415,1.415,0,0,0-1.6-1.607q-12.315-.01-24.629,0c-1.131,0-1.635.516-1.642,1.657-.01,1.624-.006,3.249,0,4.873,0,1.366.461,1.828,1.822,1.829Q110.089,592.2,116.138,592.2Zm.023,16.727q6.136,0,12.271,0c1.141,0,1.655-.511,1.663-1.637q.018-2.523,0-5.047c-.007-1.176-.514-1.673-1.714-1.673q-12.228-.006-24.455,0c-1.2,0-1.7.5-1.706,1.681-.009,1.624-.006,3.249,0,4.873,0,1.35.468,1.805,1.845,1.806Q110.112,608.927,116.161,608.924Zm.087-30.665h-7.836c-2.023,0-1.992,0-2.03,2-.013.653.155.807.805.8,5.543-.029,11.086-.016,16.629-.016,2.126,0,2.1,0,2.114-2.087,0-.569-.148-.719-.716-.714C122.226,578.275,119.237,578.259,116.248,578.259Zm-.086,19.514h7.749c2.017,0,1.983,0,2.024-2.006.013-.667-.177-.8-.813-.8-5.543.027-11.086.016-16.629.016-2.121,0-2.1,0-2.108,2.094,0,.582.168.711.723.706C110.125,597.759,113.143,597.773,116.162,597.773Z" transform="translate(-12.957 0)" fill="#010101"/>
    <path id="Trazado_641348" data-name="Trazado 641348" d="M58.588,669.373q10.235,0,20.471,0c2.949,0,4.624,1.687,4.624,4.656q0,12.063,0,24.127c0,3-1.678,4.669-4.7,4.671-3.775,0-7.55.012-11.324-.012-.555,0-.725.122-.721.7.014,2.1-.011,2.1,2.1,2.1s2.1,0,2.11,2.089c0,.568-.145.714-.713.712q-11.847-.029-23.694,0c-.563,0-.72-.135-.717-.709.013-2.092-.01-2.092,2.107-2.092s2.092,0,2.106-2.093c0-.576-.158-.711-.718-.707-3.833.025-7.665.016-11.5.012a4.2,4.2,0,0,1-4.526-4.492q-.006-12.238,0-24.475a4.194,4.194,0,0,1,4.531-4.485Q48.309,669.369,58.588,669.373Zm-.085,22.3c7.2,0,14.4-.01,21.6.016.656,0,.807-.162.8-.809-.028-5.6-.015-11.208-.017-16.811,0-1.48-.433-1.911-1.919-1.911H38.205c-1.488,0-1.919.428-1.919,1.909,0,5.575.014,11.15-.019,16.724,0,.719.161.9.892.9C44.274,691.663,51.388,691.675,58.5,691.675Zm.112,2.788c-7.114,0-14.229.019-21.343-.024-.876-.005-1.08.244-1,1.052.074.777.016,1.567.016,2.351,0,1.856.335,2.2,2.156,2.2H74.855c1.452,0,2.9.007,4.356,0,1.185-.008,1.674-.508,1.683-1.709.008-1.016-.051-2.036.02-3.048.051-.722-.223-.832-.867-.83C72.9,694.471,65.759,694.463,58.615,694.463ZM58.6,705.614h3.476c2.127,0,2.1,0,2.108-2.1,0-.592-.189-.708-.734-.7-2.781.025-5.562.012-8.342.012-2.165,0-2.146,0-2.106,2.184.009.508.172.621.645.613C55.3,705.6,56.947,705.614,58.6,705.614Z" transform="translate(0 -88.326)"/>
    <path id="Trazado_641349" data-name="Trazado 641349" d="M75.392,555.579c-3.279,0-6.558.027-9.836-.009a4.176,4.176,0,1,1,.232-8.348,7,7,0,0,1,2.008.526c.359.127.588.154.663-.321a6.237,6.237,0,0,1,.312-.992A6.966,6.966,0,0,1,82,546.424c.485,1.414.484,1.41,1.951.989a3.941,3.941,0,0,1,4.327,1.254,3.889,3.889,0,0,1,.687,4.377,3.937,3.937,0,0,1-3.742,2.521C81.95,555.612,78.671,555.579,75.392,555.579Z" transform="translate(-18.192 -5.2)" fill="#e4e7ea"/>
    <path id="Trazado_641350" data-name="Trazado 641350" d="M75.394,627.413c-3.279,0-6.558.026-9.836-.009a4.172,4.172,0,1,1,.141-8.342,5.216,5.216,0,0,1,1.274.241c1.33.388,1.335.4,1.774-.948a6.716,6.716,0,0,1,3.97-4.342,6.922,6.922,0,0,1,9.31,4.328c.455,1.354.455,1.353,1.844.931a3.956,3.956,0,0,1,4.411,1.229,3.881,3.881,0,0,1,.689,4.375,3.979,3.979,0,0,1-3.827,2.528C81.894,627.437,78.644,627.414,75.394,627.413Z" transform="translate(-18.193 -51.943)" fill="#e4e7ea"/>
    <path id="Trazado_641351" data-name="Trazado 641351" d="M207.211,629.457q6.005,0,12.01,0c1.37,0,1.834.461,1.838,1.814q.006,2.393,0,4.786c0,1.261-.483,1.759-1.717,1.76q-12.228.006-24.455,0c-1.2,0-1.7-.5-1.7-1.683q-.014-2.48,0-4.96c.006-1.237.495-1.715,1.759-1.716Q201.076,629.452,207.211,629.457Zm-11.244,4.123c0,1.452,0,1.452,1.423,1.452,1.365,0,1.365,0,1.365-1.336,0-1.451,0-1.451-1.423-1.451C195.967,632.245,195.967,632.245,195.967,633.581Zm6.977-1.336c-1.4,0-1.4,0-1.4,1.387s0,1.4,1.387,1.4,1.4,0,1.4-1.387S204.332,632.245,202.945,632.245Z" transform="translate(-103.919 -62.349)" fill="#f5d67e"/>
    <path id="Trazado_641352" data-name="Trazado 641352" d="M207.1,685.72q-6.048,0-12.1,0c-1.361,0-1.819-.463-1.822-1.829,0-1.625-.008-3.249,0-4.873.007-1.14.511-1.656,1.642-1.657q12.315-.008,24.629,0a1.415,1.415,0,0,1,1.6,1.607c.014,1.653.007,3.307,0,4.96,0,1.31-.475,1.789-1.775,1.79Q213.193,685.724,207.1,685.72Zm-8.345-4.164c0-1.411,0-1.411-1.377-1.411-1.411,0-1.411,0-1.411,1.377,0,1.411,0,1.411,1.377,1.411C198.756,682.932,198.756,682.932,198.756,681.556Zm5.576-.081c0-1.331,0-1.331-1.371-1.331-1.417,0-1.417,0-1.417,1.457,0,1.33,0,1.33,1.37,1.33C204.333,682.932,204.333,682.932,204.333,681.475Z" transform="translate(-103.92 -93.522)" fill="#f5d67e"/>
    <path id="Trazado_641353" data-name="Trazado 641353" d="M207.124,733.62q-6.048,0-12.1,0c-1.377,0-1.841-.456-1.845-1.806,0-1.624-.008-3.249,0-4.873.007-1.185.506-1.68,1.706-1.681q12.228-.006,24.455,0c1.2,0,1.707.5,1.714,1.673q.015,2.523,0,5.047c-.008,1.127-.522,1.635-1.663,1.637Q213.259,733.628,207.124,733.62Zm-9.83-2.787c1.463,0,1.463,0,1.463-1.411,0-1.376,0-1.376-1.411-1.376-1.377,0-1.377,0-1.377,1.411C195.968,730.833,195.968,730.833,197.293,730.833Zm7.04-1.336c0-1.451,0-1.451-1.423-1.451-1.365,0-1.365,0-1.365,1.336,0,1.452,0,1.452,1.423,1.452C204.333,730.833,204.333,730.833,204.333,729.5Z" transform="translate(-103.92 -124.696)" fill="#f5d67e"/>
    <path id="Trazado_641354" data-name="Trazado 641354" d="M214.977,661.366c2.989,0,5.978.016,8.967-.014.568-.006.719.145.716.714-.011,2.087.012,2.087-2.114,2.087-5.543,0-11.086-.012-16.629.016-.65,0-.818-.15-.805-.8.038-2,.007-2,2.03-2Z" transform="translate(-111.687 -83.107)" fill="#fbe9ae"/>
    <path id="Trazado_641355" data-name="Trazado 641355" d="M214.9,712.05c-3.018,0-6.036-.014-9.054.013-.555,0-.726-.124-.723-.706.012-2.094-.013-2.094,2.108-2.094,5.543,0,11.086.011,16.629-.016.637,0,.827.13.813.8-.041,2.005-.007,2.006-2.024,2.006Z" transform="translate(-111.691 -114.277)" fill="#fbe9ae"/>
    <path id="Trazado_641356" data-name="Trazado 641356" d="M63.668,696.872c-7.115,0-14.229-.012-21.343.019-.731,0-.9-.18-.892-.9.033-5.575.017-11.15.019-16.724,0-1.481.431-1.909,1.919-1.909h40.77c1.486,0,1.919.431,1.919,1.91,0,5.6-.011,11.208.017,16.811,0,.647-.148.811-.8.809C78.072,696.862,70.87,696.872,63.668,696.872Zm11.24-16.727c-2.554,0-5.108.017-7.661-.014-.568-.007-.72.146-.717.716q.037,6.267,0,12.535c0,.57.149.717.717.715q7.661-.034,15.322,0c.567,0,.72-.146.717-.715q-.037-6.267,0-12.535c0-.57-.149-.722-.717-.716C80.016,680.163,77.462,680.145,74.908,680.145Zm-20.819,5.576H46.256c-2.029,0-2,0-2.035,2-.012.653.157.81.807.806,5.57-.029,11.14-.016,16.71-.016,2.046,0,2.023,0,2.032-2.085,0-.568-.149-.721-.717-.716C60.065,685.736,57.077,685.721,54.089,685.721Zm-.129,8.363h7.833c1.97,0,1.934,0,1.982-1.965.017-.705-.2-.841-.863-.838-5.541.026-11.082.015-16.623.015-2.07,0-2.041,0-2.067,2.052-.008.628.179.756.773.75C47.984,694.067,50.972,694.084,53.96,694.084Zm2.913-13.939H51.827c-2.024,0-1.992,0-2.03,2-.013.659.167.808.811.8,3.683-.033,7.366-.016,11.049-.016,2.162,0,2.145,0,2.112-2.177-.008-.495-.146-.628-.632-.622C61.049,680.16,58.961,680.145,56.873,680.145Zm-9.846,1.44c0-1.44,0-1.44-1.435-1.44-1.353,0-1.353,0-1.353,1.348,0,1.44,0,1.44,1.435,1.44C47.027,682.933,47.027,682.933,47.027,681.585Z" transform="translate(-5.166 -93.523)" fill="#83d3ef"/>
    <path id="Trazado_641357" data-name="Trazado 641357" d="M63.757,741.18c7.144,0,14.287.008,21.431-.014.645,0,.918.108.867.83-.071,1.011-.012,2.031-.02,3.047-.009,1.2-.5,1.7-1.683,1.709-1.452.01-2.9,0-4.356,0H43.583c-1.821,0-2.156-.341-2.156-2.2,0-.784.058-1.573-.016-2.351-.077-.808.127-1.057,1-1.052C49.528,741.2,56.643,741.18,63.757,741.18Z" transform="translate(-5.142 -135.043)" fill="#ccd0d7"/>
    <path id="Trazado_641358" data-name="Trazado 641358" d="M94.931,767.941c-1.651,0-3.3-.016-4.953.01-.473.007-.636-.105-.645-.613-.04-2.185-.059-2.184,2.106-2.184,2.781,0,5.562.014,8.342-.011.545-.005.736.111.734.7-.007,2.1.019,2.1-2.108,2.1Z" transform="translate(-36.332 -150.653)" fill="#aab1bb"/>
    <path id="Trazado_641359" data-name="Trazado 641359" d="M201.17,638.777c0-1.336,0-1.336,1.365-1.336,1.423,0,1.423,0,1.423,1.451,0,1.336,0,1.336-1.365,1.336C201.17,640.229,201.17,640.229,201.17,638.777Z" transform="translate(-109.122 -67.545)"/>
    <path id="Trazado_641360" data-name="Trazado 641360" d="M218.54,637.441c1.387,0,1.387,0,1.387,1.4s0,1.387-1.4,1.387-1.387,0-1.387-1.4S217.139,637.441,218.54,637.441Z" transform="translate(-119.515 -67.545)"/>
    <path id="Trazado_641361" data-name="Trazado 641361" d="M203.958,686.752c0,1.376,0,1.376-1.411,1.376-1.377,0-1.377,0-1.377-1.411,0-1.377,0-1.377,1.411-1.377C203.958,685.341,203.958,685.341,203.958,686.752Z" transform="translate(-109.122 -98.719)"/>
    <path id="Trazado_641362" data-name="Trazado 641362" d="M219.927,686.672c0,1.457,0,1.457-1.418,1.457-1.37,0-1.37,0-1.37-1.33,0-1.457,0-1.457,1.417-1.457C219.927,685.341,219.927,685.341,219.927,686.672Z" transform="translate(-119.515 -98.719)"/>
    <path id="Trazado_641363" data-name="Trazado 641363" d="M202.495,736.03c-1.325,0-1.325,0-1.325-1.377,0-1.411,0-1.411,1.377-1.411,1.411,0,1.411,0,1.411,1.376C203.958,736.03,203.958,736.03,202.495,736.03Z" transform="translate(-109.122 -129.893)"/>
    <path id="Trazado_641364" data-name="Trazado 641364" d="M219.927,734.693c0,1.336,0,1.336-1.365,1.336-1.423,0-1.423,0-1.423-1.452,0-1.336,0-1.336,1.365-1.336C219.927,733.242,219.927,733.242,219.927,734.693Z" transform="translate(-119.515 -129.893)"/>
    <path id="Trazado_641365" data-name="Trazado 641365" d="M121.683,685.315c2.554,0,5.107.018,7.661-.014.568-.007.72.146.717.716q-.037,6.267,0,12.535c0,.57-.149.718-.717.715q-7.661-.034-15.322,0c-.567,0-.72-.145-.717-.715q.037-6.267,0-12.535c0-.57.148-.723.717-.716C116.575,685.333,119.129,685.315,121.683,685.315Zm.087,2.788c-1.681,0-3.362.018-5.043-.011-.493-.008-.637.131-.632.628q.038,3.564,0,7.129c-.005.5.138.631.631.628q4.956-.031,9.912,0c.492,0,.637-.131.631-.627q-.037-3.565,0-7.129c.005-.5-.138-.638-.631-.629C125.016,688.121,123.393,688.1,121.77,688.1Z" transform="translate(-51.94 -98.693)"/>
    <path id="Trazado_641366" data-name="Trazado 641366" d="M59.285,701.282c2.988,0,5.976.015,8.964-.014.569-.005.72.147.717.716-.008,2.085.014,2.085-2.032,2.085-5.57,0-11.14-.012-16.71.016-.651,0-.819-.153-.807-.806.037-2,.006-2,2.035-2Z" transform="translate(-10.361 -109.084)"/>
    <path id="Trazado_641367" data-name="Trazado 641367" d="M59.157,720.035c-2.988,0-5.976-.017-8.964.014-.594.006-.782-.122-.773-.75.026-2.052,0-2.052,2.067-2.052,5.541,0,11.082.011,16.623-.015.659,0,.88.133.863.838-.048,1.964-.012,1.965-1.982,1.965Z" transform="translate(-10.363 -119.473)"/>
    <path id="Trazado_641368" data-name="Trazado 641368" d="M72.46,685.32c2.088,0,4.176.015,6.264-.011.486-.006.625.127.632.622.033,2.177.05,2.177-2.112,2.177-3.683,0-7.366-.017-11.049.016-.644.006-.823-.142-.811-.8.038-2,.006-2,2.03-2Z" transform="translate(-20.753 -98.698)"/>
    <path id="Trazado_641369" data-name="Trazado 641369" d="M52.257,686.781c0,1.348,0,1.348-1.353,1.348-1.435,0-1.435,0-1.435-1.44,0-1.348,0-1.348,1.353-1.348C52.257,685.341,52.257,685.341,52.257,686.781Z" transform="translate(-10.396 -98.719)"/>
    <path id="Trazado_641370" data-name="Trazado 641370" d="M126.969,693.3c1.623,0,3.247.018,4.869-.011.493-.009.636.132.631.629q-.037,3.564,0,7.129c.005.5-.139.631-.631.628q-4.956-.031-9.912,0c-.493,0-.636-.132-.631-.628q.037-3.565,0-7.129c-.005-.5.139-.637.632-.628C123.607,693.321,125.288,693.3,126.969,693.3Z" transform="translate(-57.139 -103.893)" fill="#ee8774"/>
  </g>
</svg>
