<svg xmlns="http://www.w3.org/2000/svg" width="85" height="85" viewBox="0 0 85 85">
  <g id="Grupo_978907" data-name="Grupo 978907" transform="translate(-180 -6099)">
    <rect id="Rectángulo_34178" data-name="Rectángulo 34178" width="85" height="85" transform="translate(180 6099)" fill="none"/>
    <g id="Grupo_980797" data-name="Grupo 980797" transform="translate(124.365 5528.349)">
      <path id="Trazado_640989" data-name="Trazado 640989" d="M119.162,605.376c.934.2,1.215.527,1.217,1.469q.009,3.475,0,6.95c0,.39.008.656.51.756a7.3,7.3,0,0,1,4.327,2.763c.386.482.78.957,1.16,1.444a3.531,3.531,0,0,0,3.31,1.251.676.676,0,0,0,.534-.366,3.245,3.245,0,0,1,2.861-1.383,9.232,9.232,0,0,1,2.152.1,3.193,3.193,0,0,1,2.464,3.075q.032,7.181,0,14.363a3.191,3.191,0,0,1-3.143,3.169c-.617.023-1.236.015-1.853,0a2.868,2.868,0,0,1-2.369-1.246,1.29,1.29,0,0,0-1.15-.547,10.171,10.171,0,0,0-5.3,1.04,15.2,15.2,0,0,1-3.652,1.191.855.855,0,0,0-.6.412,4.753,4.753,0,0,1-4.267,2.166q-12.323-.014-24.646,0-4.829,0-9.657,0A4.664,4.664,0,0,1,76,636.94q-.008-9.575.011-19.151c0-.593-.155-.83-.758-.964a24.186,24.186,0,0,1-4.4-1.616c-1.415-.622-2.89-.331-4.342-.4-.257-.012-.32.228-.436.387a3.185,3.185,0,0,1-2.7,1.394c-.541,0-1.082.015-1.622,0a3.2,3.2,0,0,1-3.176-3.216q-.029-7.143,0-14.286a3.144,3.144,0,0,1,2.587-3.122,7.761,7.761,0,0,1,2.99.016,3.429,3.429,0,0,1,1.538.834c.332.278.392.852,1.012.833a3.809,3.809,0,0,0,2.553-.66,8.737,8.737,0,0,0,1.2-1.3,10.717,10.717,0,0,1,2.491-2.505,6.108,6.108,0,0,1,2.323-.989c.652-.107.766-.4.735-.978-.043-.8-.026-1.6,0-2.393a4.579,4.579,0,0,1,4.129-4.439,10.025,10.025,0,0,1,1.079-.048c8.473,0,16.945.012,25.418-.016a4.481,4.481,0,0,1,3.431,1.425c2.991,3.053,6.024,6.064,9.063,9.07a3.908,3.908,0,0,1,1.26,3.028c-.027.952,0,1.9-.006,2.857,0,1.088-.189,1.336-1.225,1.645a1.36,1.36,0,0,1-1.1-1.581c.045-.84-.006-1.686.017-2.528.011-.375-.06-.548-.493-.536-1.276.036-2.554.026-3.832.035-.592-.008-1.184-.023-1.775-.024a4.688,4.688,0,0,1-4.99-4.971c-.008-1.828-.016-3.656.009-5.484.007-.464-.106-.612-.594-.611-8.526.015-17.052,0-25.578.016a2.314,2.314,0,0,0-2.5,2.515c-.012,1.648,0,3.3,0,4.943,0,1.247.283,1.525,1.562,1.526,2.911,0,5.821,0,8.732,0a3.428,3.428,0,0,1,3.211,1.9,3.387,3.387,0,0,1-.256,3.78.637.637,0,0,0,0,.859,3.487,3.487,0,0,1-.665,4.608c-.356.313-.316.529-.174.9a3.386,3.386,0,0,1-.866,3.882.721.721,0,0,0-.194.963,3.541,3.541,0,0,1-3.155,4.915,74.009,74.009,0,0,1-7.414-.071c-.678-.051-.8.123-.794.757.024,6.179.063,12.358-.012,18.536a2.662,2.662,0,0,0,2.995,3c10.251-.046,20.5-.022,30.755-.024.307,0,.614-.032.921-.05a15.8,15.8,0,0,0,2.61.05,2.361,2.361,0,0,0,2.49-2.529c.011-3.131-.008-6.262.015-9.394,0-.5-.138-.71-.636-.7-1.231.017-2.462.019-3.693.027-.895-.11-1.8.043-2.7-.114a3.8,3.8,0,0,1-.077-7.488c.921-.179,1.851-.014,2.772-.127.461.011.923.033,1.384.032a2.616,2.616,0,0,0,2.931-2.946c0-3.183.013-6.367-.008-9.551A1.28,1.28,0,0,1,119.162,605.376Zm-8.945,17.663a1.48,1.48,0,0,0,1.655,1.659c1.157.024,2.314,0,3.471.007a10.506,10.506,0,0,1,3.808.354,5.12,5.12,0,0,1,2.115,2.063,3.011,3.011,0,0,0,2.552,1.729c.926.1,1.339.566,1.247,1.313-.089.716-.649,1.05-1.561.979a5.717,5.717,0,0,1-3.1-1.3v5.862a4.082,4.082,0,0,0,.023,1.241,7.19,7.19,0,0,0,1.839-.586c2.179-.957,4.382-1.792,6.834-1.492.5.061.52-.231.519-.611-.008-3.783-.014-7.566.006-11.348,0-.491-.16-.624-.622-.6a5.075,5.075,0,0,1-3.644-1.194c-.606-.731-1.215-1.461-1.819-2.2A6.16,6.16,0,0,0,121,616.989c-.412-.158-.58-.2-.671.363a4.855,4.855,0,0,1-5.127,4.337c-1.133.012-2.266-.014-3.4.007A1.452,1.452,0,0,0,110.217,623.039Zm-30.322-12.82c2.5.011,5.01.039,7.515.021a1.154,1.154,0,0,0,1.233-1.261c-.166-.936-.5-1.247-1.42-1.252-2.057-.012-4.113,0-6.17,0-.54,0-1.083.03-1.618-.019a1.121,1.121,0,0,1-1.074-1.185,1.1,1.1,0,0,1,1.068-1.106c.153-.018.306-.03.459-.044,2.855.012,5.711.037,8.566.027.862,0,1.268-.468,1.32-1.354a1.256,1.256,0,0,0-1.467-1.212c-1.9-.01-3.809,0-5.713,0q-1.505,0-3.011-.008a1.116,1.116,0,0,1-1.22-1.036,1.15,1.15,0,0,1,1.07-1.271c.151-.026.307-.029.46-.042,2.919.011,5.838.03,8.757.025.766,0,1.116-.386,1.258-1.246-.133-.953-.483-1.275-1.471-1.278-2.934-.009-5.867.011-8.8-.008a3.321,3.321,0,0,1-3.616-3.129c-.069-.462-.258-.4-.562-.293a5.707,5.707,0,0,0-2.554,1.792c-.529.63-1.024,1.289-1.565,1.908a4.67,4.67,0,0,1-3.274,1.669c-1.4.107-1.4.126-1.418,1.53-.011,1.024-.188,1.265-1.135,1.543a1.266,1.266,0,0,1-1.19-1.434c0-.437,0-.875,0-1.312,0-2.042-.027-2.07-2.067-2.053-1.078.009-1.369.3-1.37,1.371q0,6.289,0,12.578c0,2.171,0,2.171,2.2,2.138.968-.015,1.228-.268,1.231-1.248.007-1.826,0-3.653.005-5.479,0-.959.251-1.258,1.187-1.514a1.269,1.269,0,0,1,1.142,1.448c-.015,1.22.02,2.441.034,3.661-.015.127-.024.255-.045.381-.124.743.1,1.076.935.982a9.956,9.956,0,0,1,5.439,1.1,15.447,15.447,0,0,0,2.383.871c3.655,1.036,7.4.657,11.123.651.835,0,1.217-.805.974-1.7a1.138,1.138,0,0,0-1.084-.822,5.459,5.459,0,0,0-.768-.021c-2,0-4,.007-6-.005a1.155,1.155,0,0,1-1.29-1.039c-.061-.659.38-1.144,1.158-1.27C79.641,610.243,79.768,610.233,79.895,610.219Zm55.487,18.412v-6.016c0-2.011-.03-2.041-2.006-2.037-1.207,0-1.43.224-1.431,1.444q0,6.286,0,12.571c0,2.091,0,2.091,2.111,2.069,1.051-.01,1.324-.277,1.326-1.321Q135.387,631.985,135.382,628.63ZM109.3,588.479c0,1.56-.037,3.074.011,4.585a2.337,2.337,0,0,0,2.468,2.323q1.892.016,3.785,0c.23,0,.5.107.627-.019Z" fill="#040404"/>
      <path id="Trazado_640990" data-name="Trazado 640990" d="M236.759,627.558c1.277-.008,2.555,0,3.832-.035.433-.012.5.161.493.536-.023.842.028,1.687-.017,2.528a1.36,1.36,0,0,0,1.1,1.581q0,1.517.007,3.034a1.28,1.28,0,0,0-1.11,1.487c.021,3.183.011,6.367.008,9.551a2.616,2.616,0,0,1-2.931,2.946c-.461,0-.923-.021-1.384-.032Q236.76,638.355,236.759,627.558Z" transform="translate(-123.016 -29.826)" fill="#dddbdf"/>
      <path id="Trazado_640991" data-name="Trazado 640991" d="M157.727,602.916q0,10.8,0,21.594c-.92.113-1.851-.053-2.772.127a3.8,3.8,0,0,0,.077,7.488c.9.157,1.8,0,2.7.114,0,3.295-.022,6.589.018,9.883a4.214,4.214,0,0,1-.8,2.666c-.307.017-.614.05-.921.05-10.251,0-20.5-.021-30.755.024a2.662,2.662,0,0,1-2.995-3c.076-6.178.036-12.357.012-18.536,0-.634.116-.809.794-.758a74.009,74.009,0,0,0,7.414.071,3.541,3.541,0,0,0,3.155-4.915.721.721,0,0,1,.194-.963,3.387,3.387,0,0,0,.866-3.882c-.142-.371-.182-.587.174-.9a3.487,3.487,0,0,0,.665-4.608.637.637,0,0,1,0-.859,3.387,3.387,0,0,0,.256-3.78,3.428,3.428,0,0,0-3.211-1.9c-2.911,0-5.821,0-8.732,0-1.278,0-1.56-.278-1.562-1.526,0-1.648-.01-3.3,0-4.943a2.314,2.314,0,0,1,2.5-2.516c8.526-.011,17.052,0,25.578-.016.488,0,.6.147.594.611-.025,1.828-.017,3.656-.009,5.484a4.688,4.688,0,0,0,4.99,4.971C156.543,602.893,157.135,602.907,157.727,602.916Zm-24.694,28.069c-1.621,0-3.243,0-4.864,0-.949,0-1.506.449-1.487,1.173.018.7.561,1.142,1.458,1.143q4.864.008,9.728,0c.893,0,1.438-.448,1.449-1.152s-.529-1.159-1.42-1.163C136.275,630.98,134.654,630.985,133.032,630.985Zm-.043,7.14c1.647,0,3.295,0,4.942,0,.842,0,1.364-.437,1.383-1.12a1.2,1.2,0,0,0-1.326-1.191q-4.98-.017-9.961,0a1.2,1.2,0,0,0-1.345,1.174c.007.685.532,1.135,1.365,1.139C129.694,638.13,131.342,638.125,132.989,638.125Z" transform="translate(-43.984 -5.183)" fill="#eeeef1"/>
      <path id="Trazado_640992" data-name="Trazado 640992" d="M95.391,627.988c-.153.015-.306.026-.459.044a1.1,1.1,0,0,0-1.068,1.106,1.121,1.121,0,0,0,1.074,1.185c.536.049,1.079.019,1.618.019,2.057,0,4.114-.007,6.17,0,.923.005,1.255.317,1.42,1.252-2.179,0-4.359-.019-6.538.017a2.187,2.187,0,0,0-2.21,1.223c-.127.015-.254.024-.38.044-.778.127-1.218.611-1.158,1.27a1.155,1.155,0,0,0,1.29,1.039c2,.012,4,0,6,.005a5.459,5.459,0,0,1,.768.021,1.138,1.138,0,0,1,1.084.822c-.387.539-.979.495-1.53.5-2.11.016-4.221.024-6.332,0a15.02,15.02,0,0,1-5.541-1.107c-1.212-.492-2.42-1-3.657-1.427a13.209,13.209,0,0,0-3.75-.25c-.014-1.22-.05-2.441-.034-3.661a1.269,1.269,0,0,0-1.142-1.448q0-1.523,0-3.047c.947-.278,1.124-.519,1.135-1.542.015-1.4.014-1.423,1.418-1.53a4.67,4.67,0,0,0,3.274-1.669c.54-.62,1.036-1.279,1.565-1.908a5.706,5.706,0,0,1,2.554-1.792c.3-.1.493-.169.562.293a3.321,3.321,0,0,0,3.616,3.129c2.933.019,5.866,0,8.8.008.987,0,1.338.324,1.471,1.278-2.636,0-5.272,0-7.907.007a2.094,2.094,0,0,0-2.108,1.213c-.153.013-.309.015-.46.042a1.15,1.15,0,0,0-1.07,1.271,1.116,1.116,0,0,0,1.22,1.036q1.505.005,3.011.008c1.9,0,3.809-.007,5.713,0a1.256,1.256,0,0,1,1.467,1.212c-2.384,0-4.769-.023-7.153.016C97.042,626.695,95.964,626.847,95.391,627.988Z" transform="translate(-15.504 -22.62)" fill="#f3cfa7"/>
      <path id="Trazado_640993" data-name="Trazado 640993" d="M235.566,708.31v-5.862a5.717,5.717,0,0,0,3.1,1.3c.912.071,1.473-.263,1.561-.979.092-.747-.321-1.216-1.247-1.313a3.011,3.011,0,0,1-2.552-1.729,5.121,5.121,0,0,0-2.115-2.063,1.853,1.853,0,0,0-1.7-1.6c-1.765-.216-3.53-.055-5.294-.1a4.3,4.3,0,0,1-1.94-.324,1.452,1.452,0,0,1,1.584-1.343c1.132-.022,2.266,0,3.4-.007a4.855,4.855,0,0,0,5.127-4.337c.091-.562.26-.521.671-.363a6.159,6.159,0,0,1,2.549,1.936c.6.734,1.212,1.464,1.819,2.2-.009,3.73-.039,7.459-.012,11.188a2.2,2.2,0,0,1-1.251,2.13A12.083,12.083,0,0,1,235.566,708.31Z" transform="translate(-115.157 -72.602)" fill="#f8e7df"/>
      <path id="Trazado_640994" data-name="Trazado 640994" d="M258.206,717.749a12.085,12.085,0,0,0,3.693-1.27,2.2,2.2,0,0,0,1.251-2.13c-.028-3.729,0-7.459.012-11.189a5.075,5.075,0,0,0,3.644,1.194c.462-.027.625.106.622.6-.02,3.783-.014,7.566-.006,11.348,0,.38-.021.673-.519.611-2.452-.3-4.655.534-6.834,1.492a7.19,7.19,0,0,1-1.839.586A4.082,4.082,0,0,1,258.206,717.749Z" transform="translate(-137.797 -82.041)" fill="#f3d7c9"/>
      <path id="Trazado_640995" data-name="Trazado 640995" d="M70.7,633.887q0,1.524,0,3.047c-.936.257-1.183.556-1.187,1.514-.009,1.826,0,3.653-.005,5.479,0,.979-.264,1.233-1.231,1.248-2.2.034-2.2.034-2.2-2.138q0-6.289,0-12.578c0-1.076.292-1.362,1.37-1.371,2.039-.016,2.067.011,2.067,2.053,0,.437,0,.875,0,1.312A1.266,1.266,0,0,0,70.7,633.887Z" transform="translate(-5.187 -30.904)" fill="#6a97cf"/>
      <path id="Trazado_640996" data-name="Trazado 640996" d="M234.233,734.817a4.215,4.215,0,0,0,.8-2.666c-.04-3.294-.017-6.589-.018-9.883,1.231-.008,2.462-.01,3.693-.027.5-.007.64.207.636.7-.022,3.131,0,6.262-.015,9.394a2.361,2.361,0,0,1-2.49,2.529A15.8,15.8,0,0,1,234.233,734.817Z" transform="translate(-121.273 -95.212)" fill="#d4d2d6"/>
      <path id="Trazado_640997" data-name="Trazado 640997" d="M298.975,709.46q0,3.355,0,6.71c0,1.044-.275,1.311-1.326,1.321-2.111.021-2.111.021-2.111-2.069q0-6.285,0-12.571c0-1.219.224-1.441,1.431-1.444,1.976,0,2.006.026,2.006,2.037Z" transform="translate(-163.592 -80.83)" fill="#6a97cf"/>
      <path id="Trazado_640998" data-name="Trazado 640998" d="M84.647,670.906a13.209,13.209,0,0,1,3.75.25c1.236.425,2.444.935,3.657,1.427a15.02,15.02,0,0,0,5.541,1.107c2.11.022,4.221.015,6.332,0,.55,0,1.142.04,1.53-.5.243.893-.138,1.7-.974,1.7-3.719.006-7.467.385-11.123-.651a15.436,15.436,0,0,1-2.383-.871,9.956,9.956,0,0,0-5.439-1.1c-.831.094-1.059-.238-.935-.982C84.623,671.161,84.632,671.033,84.647,670.906Z" transform="translate(-17.956 -59.768)" fill="#edb687"/>
      <path id="Trazado_640999" data-name="Trazado 640999" d="M222.374,597.754l6.89,6.886c-.131.126-.4.017-.627.019q-1.892.018-3.785,0a2.337,2.337,0,0,1-2.468-2.323C222.337,600.828,222.374,599.314,222.374,597.754Z" transform="translate(-113.077 -9.275)" fill="#e58285"/>
      <path id="Trazado_641000" data-name="Trazado 641000" d="M127.433,649.319c.572-1.141,1.65-1.293,2.734-1.311,2.384-.039,4.768-.015,7.153-.016-.052.886-.458,1.35-1.32,1.354C133.144,649.357,130.288,649.331,127.433,649.319Z" transform="translate(-47.546 -43.952)" fill="#ecb587"/>
      <path id="Trazado_641001" data-name="Trazado 641001" d="M127.452,633.75a2.094,2.094,0,0,1,2.108-1.213c2.636-.012,5.272-.006,7.907-.007-.142.859-.492,1.244-1.258,1.246C133.29,633.781,130.371,633.761,127.452,633.75Z" transform="translate(-47.559 -33.282)" fill="#f3b98a"/>
      <path id="Trazado_641002" data-name="Trazado 641002" d="M225.374,709.357a4.3,4.3,0,0,0,1.94.324c1.764.045,3.529-.117,5.294.1a1.853,1.853,0,0,1,1.7,1.6,10.508,10.508,0,0,0-3.808-.354c-1.157-.007-2.314.016-3.471-.007A1.481,1.481,0,0,1,225.374,709.357Z" transform="translate(-115.157 -86.318)" fill="#f0d4c7"/>
      <path id="Trazado_641003" data-name="Trazado 641003" d="M127.457,665.183a2.187,2.187,0,0,1,2.21-1.223c2.179-.037,4.359-.015,6.538-.017a1.154,1.154,0,0,1-1.233,1.261C132.468,665.222,129.962,665.194,127.457,665.183Z" transform="translate(-47.562 -54.964)" fill="#f3b98a"/>
      <path id="Trazado_641004" data-name="Trazado 641004" d="M142.856,718.276c1.621,0,3.243,0,4.864,0,.89,0,1.431.457,1.42,1.163s-.556,1.151-1.449,1.152q-4.864.008-9.728,0c-.9,0-1.44-.439-1.458-1.143-.019-.725.539-1.171,1.487-1.173C139.614,718.272,141.235,718.276,142.856,718.276Z" transform="translate(-53.808 -92.474)" fill="#040404"/>
      <path id="Trazado_641005" data-name="Trazado 641005" d="M142.817,736.158c-1.647,0-3.295.006-4.942,0-.833,0-1.358-.454-1.365-1.139a1.2,1.2,0,0,1,1.345-1.174q4.98-.015,9.961,0a1.2,1.2,0,0,1,1.326,1.191c-.019.684-.541,1.117-1.383,1.12C146.111,736.163,144.464,736.158,142.817,736.158Z" transform="translate(-53.812 -103.216)" fill="#030303"/>
    </g>
  </g>
</svg>
