<svg xmlns="http://www.w3.org/2000/svg" width="82" height="82" viewBox="0 0 82 82">
  <g id="Grupo_956675" data-name="Grupo 956675" transform="translate(-303 -3929)">
    <g id="Grupo_951854" data-name="Grupo 951854" transform="translate(303 3929)">
      <path id="Trazado_621807" data-name="Trazado 621807" d="M41,0A41,41,0,1,1,0,41,41,41,0,0,1,41,0Z" fill="#ef8b53"/>
    </g>
    <g id="Grupo_962306" data-name="Grupo 962306" transform="translate(-19.078 3319.16)">
      <path id="Trazado_634278" data-name="Trazado 634278" d="M389.8,665.8c.854.245,1.058.529.991,1.4a12.478,12.478,0,0,1-1.349,4.914.505.505,0,0,0,.152.748c1.86,1.632,3.719,3.267,5.551,4.93a3.632,3.632,0,1,1-4.915,5.34q-2.87-2.554-5.72-5.131a.665.665,0,0,0-.888-.126,12.665,12.665,0,0,1-14.9-2.809,1.123,1.123,0,0,0-.943-.419c-1.085.028-2.171.023-3.257,0-.346-.007-.44.1-.432.437.022.933.012,1.867.006,2.8a1.668,1.668,0,0,1-1.857,1.908q-15.341.008-30.682,0a1.641,1.641,0,0,1-1.842-1.848q0-24.131,0-48.262a1.684,1.684,0,0,1,1.889-1.882c.912-.007,1.825-.028,2.736.009.448.018.539-.143.527-.551-.028-.933-.023-1.867,0-2.8a1.632,1.632,0,0,1,1.825-1.8c.89-.015,1.783-.043,2.67.011.571.035.688-.167.659-.689-.045-.823-.013-1.649-.011-2.474,0-1.428.587-2.017,2-2.017h32.9q1.335,0,2.671,0c1.421,0,2.026.6,2.026,2q0,6.741,0,13.482c0,6.687.007,13.374-.014,20.06,0,.511.13.682.633.779a12.52,12.52,0,0,1,9.733,8c.32.779.223,1.042-.472,1.531a1.128,1.128,0,0,1-1.351-.816,10.641,10.641,0,0,0-11.588-6.855,10.151,10.151,0,0,0-7.769,5.278,9.748,9.748,0,0,0-1.348,7.281,10.766,10.766,0,0,0,12,8.9,7.785,7.785,0,0,0,3.31-1.036,10.5,10.5,0,0,0,6.093-9.029C388.9,666.384,389.124,665.95,389.8,665.8Zm-23.885,4.575c-.014-.727-.359-1.042-1.1-.909a5.222,5.222,0,0,1-.71.033c-.259-.009-.519-.027-.779-.027q-10.9,0-21.81,0c-1.284,0-1.511-.227-1.511-1.508v-42.5c0-.895,0-.895-.908-.817a2.464,2.464,0,0,0-.321-.035c-.626.011-1.437-.2-1.829.106-.417.331-.128,1.177-.129,1.8q-.015,14.134-.008,28.267c0,1-.142,1.2-.973,1.419-.833-.224-.973-.421-.973-1.418q0-12.08,0-24.161c0-.152-.011-.3,0-.456.027-.3-.087-.448-.406-.41-.193.023-.388.022-.583.032a13.868,13.868,0,0,1-1.494-.038c-.626-.079-.726.182-.726.748q.022,23.315,0,46.63c0,.6.155.734.739.732q14.493-.028,28.987-.013c.13,0,.261-.01.391,0,.276.024.387-.081.376-.369-.023-.628-.02-1.258-.028-1.887.06-.934.06-.934-.876-.934h-6.576q-8.919,0-17.838,0c-1.274,0-1.951-.575-1.956-1.745-.018-4.47-.007-8.939-.009-13.409a1.018,1.018,0,0,1,.976-1.15c.806.2.97.42.971,1.349,0,4.077.014,8.154-.013,12.231,0,.605.112.793.764.791q13.405-.038,26.81-.018c.216,0,.433-.016.649-.024h1.88Zm23.472,4.949c-.3-.279-.613-.542-.889-.841s-.432-.2-.649.071a12.046,12.046,0,0,1-1.016,1.087c-1.062,1.016-1.067,1.01.161,1.919,1.575,1.424,3.131,2.87,4.733,4.262a1.657,1.657,0,1,0,2.185-2.493C392.429,677.973,390.9,676.659,389.391,675.326Zm-24.883-14.068c-.255-.008-.509-.02-.764-.024-.784-.016-1.054-.232-1.236-1,.2-.768.427-.947,1.22-.96l1.947-.03a7.047,7.047,0,0,1,.842.038,1.437,1.437,0,0,0,1.489-.722,12.575,12.575,0,0,1,8.25-4.844c.459-.075,1.116.111,1.329-.254s.046-.966.045-1.463c.008-.151.023-.3.023-.453q0-15.763,0-31.527c0-.151-.014-.3-.021-.453.028-.091-.011-.119-.1-.1a1.57,1.57,0,0,0-.193-.023q-17.451,0-34.9-.013c-.43,0-.483.144-.483.517q.013,23.535,0,47.071c0,.384.069.521.49.512,1.519-.029,3.039,0,4.558-.017a5.041,5.041,0,0,0,4.889-4.153,18.811,18.811,0,0,0,.1-2.922c.025-.81.341-1.153,1.145-1.156,1.975-.009,3.951.006,5.925-.008a1.039,1.039,0,0,1,1.185.938c-.168.784-.439,1.015-1.242,1.019-1.473.007-2.947.021-4.42-.009-.482-.01-.7.081-.649.621a7.038,7.038,0,0,1-.051,1.424,7.2,7.2,0,0,1-2.068,4.226h11.906c.41.008.821,0,1.23.03.326.023.4-.1.376-.41a11,11,0,0,1,.03-1.877,13.644,13.644,0,0,1,1.007-3.979Z" fill="#020202"/>
      <path id="Trazado_634279" data-name="Trazado 634279" d="M499.281,773.614c-.68.148-.9.582-.966,1.262a10.5,10.5,0,0,1-6.093,9.03c-.141-.16-.307-.1-.481-.07a9.965,9.965,0,0,1-1.273.207,11.624,11.624,0,0,1-7.911-2.361,11.363,11.363,0,0,1-4.677-9.062,20.231,20.231,0,0,1,.38-3.854,10.151,10.151,0,0,1,7.769-5.278,10.641,10.641,0,0,1,11.588,6.855,1.128,1.128,0,0,0,1.351.816A18.251,18.251,0,0,1,499.281,773.614Zm-11.717,8.911a8.347,8.347,0,1,0-.115-16.694,8.426,8.426,0,0,0-8.245,8.353A8.333,8.333,0,0,0,487.564,782.525Z" transform="translate(-109.477 -107.812)" fill="#4266b8"/>
      <path id="Trazado_634280" data-name="Trazado 634280" d="M400.315,664.752l-1.947.03c-.794.013-1.022.192-1.22.96l-2.26-.026a1.039,1.039,0,0,0-1.185-.938c-1.975.014-3.95,0-5.925.008-.8,0-1.12.347-1.145,1.156a18.812,18.812,0,0,1-.1,2.922,5.042,5.042,0,0,1-4.889,4.153c-1.519.021-3.039-.013-4.558.017-.422.008-.491-.129-.49-.512q.014-23.536,0-47.071c0-.373.053-.517.483-.517q17.451.021,34.9.013a1.561,1.561,0,0,1,.193.023l.1.1c.007.151.021.3.021.453q0,15.763,0,31.527c0,.151-.015.3-.023.453a14.505,14.505,0,0,0-4.716.944,14.219,14.219,0,0,0-5.673,3.966A7.066,7.066,0,0,0,400.315,664.752Zm-2.974-28.019a1.078,1.078,0,0,0-.921,1.216c.014.976-.016,1.952.01,2.927a1.6,1.6,0,0,0,1.7,1.665q5.076.018,10.152,0a1.573,1.573,0,0,0,1.712-1.7q.021-5.107,0-10.215a1.555,1.555,0,0,0-1.671-1.671q-5.108-.023-10.217,0a1.6,1.6,0,0,0-1.672,1.688c-.02.693.013,1.389-.01,2.082a1.128,1.128,0,0,0,.92,1.29Q397.339,635.376,397.341,636.733Zm-7.471,23.321q4.752,0,9.5,0a3.609,3.609,0,0,0,.776-.054.864.864,0,0,0,.718-.883.881.881,0,0,0-.692-.969,2.464,2.464,0,0,0-.644-.064q-9.634,0-19.268,0a2.6,2.6,0,0,0-.707.075.958.958,0,0,0,.034,1.834,3.378,3.378,0,0,0,.775.06Q385.118,660.057,389.87,660.053ZM387.8,654.6q3.712,0,7.424,0a2.973,2.973,0,0,0,.773-.073.959.959,0,0,0-.047-1.85,2.582,2.582,0,0,0-.582-.046q-7.587,0-15.174,0a3.057,3.057,0,0,0-.455.021.9.9,0,0,0-.842.919.891.891,0,0,0,.767.98,3.6,3.6,0,0,0,.712.05Q384.086,654.6,387.8,654.6Zm6.654-5.356c2.192,0,4.383.008,6.574,0,.708,0,1.128-.41,1.112-1-.014-.559-.425-.923-1.094-.965-.13-.008-.26,0-.39,0q-6.217,0-12.433,0a2.977,2.977,0,0,0-.773.07.958.958,0,0,0,.044,1.849,3.3,3.3,0,0,0,.711.05Q391.328,649.244,394.452,649.241Zm-7.895-12.505c2.127,0,4.254.006,6.382,0,.757,0,1.213-.387,1.219-.974s-.458-.976-1.2-1c-.087,0-.174,0-.261,0q-6.187,0-12.373,0a3.184,3.184,0,0,0-.772.074.853.853,0,0,0-.645.739.931.931,0,0,0,.34.928,1.431,1.431,0,0,0,.991.23Zm-.047,4.236q3.223,0,6.447,0c.752,0,1.208-.381,1.2-.979s-.467-.973-1.217-.974q-6.414,0-12.828,0c-.764,0-1.21.357-1.226.956-.017.629.433,1,1.24,1Q383.319,640.975,386.51,640.972Zm-.04-8.487c2.192,0,4.384.006,6.577,0a1.017,1.017,0,0,0,1.112-.95.966.966,0,0,0-1.045-1q-6.609-.012-13.218,0a.946.946,0,0,0-1.007.963,1,1,0,0,0,1.005.985c.151.011.3,0,.456,0Zm18.044,20.138c-1.475,0-2.951-.012-4.425,0-.768.008-1.184.464-1.089,1.13.077.543.468.834,1.2.836q4.3.011,8.591,0c.8,0,1.275-.378,1.281-.983s-.463-.984-1.265-.987C407.376,652.619,405.945,652.623,404.513,652.623Z" transform="translate(-34.639 -5.503)" fill="#dfe8ec"/>
      <path id="Trazado_634281" data-name="Trazado 634281" d="M353.181,676.178c.831-.223.973-.424.973-1.419q0-14.134.008-28.267c0-.619-.288-1.465.129-1.8.392-.31,1.2-.095,1.829-.105a2.455,2.455,0,0,1,.321.035q0,22.207,0,44.413a1.762,1.762,0,0,0,.007.39c.1.447.332.839.814.9a11.256,11.256,0,0,0,1.479.166q10.486-.02,20.973-.008a7.392,7.392,0,0,0,1.872-.129c.043,0,.085.005.127.01,0,.828.567,1.492.653,2.294-.216.008-.432.024-.649.024q-13.4,0-26.81.018c-.652,0-.768-.186-.764-.791.028-4.077.016-8.154.013-12.231,0-.928-.165-1.146-.971-1.349Z" transform="translate(-17.335 -19.982)" fill="#dde6ea"/>
      <path id="Trazado_634282" data-name="Trazado 634282" d="M367.62,710.251c.008.629,0,1.258.028,1.887.011.288-.1.393-.376.369-.129-.011-.26,0-.391,0q-14.493,0-28.987.013c-.584,0-.739-.135-.738-.733q.027-23.315,0-46.63c0-.566.1-.827.726-.748a13.9,13.9,0,0,0,1.494.038c0,.3.006.608.006.911q0,21.617,0,43.234c0,1.285.374,1.655,1.664,1.656Z" transform="translate(-5.494 -34.662)" fill="#e1eaee"/>
      <path id="Trazado_634283" data-name="Trazado 634283" d="M373.911,710.289l-26.57,0c-1.29,0-1.664-.37-1.664-1.656q0-21.617,0-43.234c0-.3,0-.608-.006-.912.194-.01.39-.009.583-.032.32-.038.433.106.406.41-.013.151,0,.3,0,.456q0,12.081,0,24.161c0,1,.14,1.194.973,1.418l0,2.155a1.018,1.018,0,0,0-.976,1.15c0,4.47-.009,8.939.009,13.409,0,1.169.682,1.744,1.956,1.745q8.919,0,17.838,0h6.576C373.972,709.356,373.972,709.356,373.911,710.289Z" transform="translate(-11.785 -34.7)" fill="#ccdadd"/>
      <path id="Trazado_634284" data-name="Trazado 634284" d="M422.8,781.152l2.26.026c.181.763.451.979,1.236,1,.255,0,.509.016.764.025a1.681,1.681,0,0,1-.044.447,14.476,14.476,0,0,0-.739,5.789H414.369a7.2,7.2,0,0,0,2.068-4.226,7.037,7.037,0,0,0,.051-1.424c-.05-.54.167-.631.649-.621,1.473.029,2.947.016,4.42.009C422.359,782.167,422.63,781.936,422.8,781.152Z" transform="translate(-62.55 -120.94)" fill="#d4e2e5"/>
      <path id="Trazado_634285" data-name="Trazado 634285" d="M390.776,690.547a7.393,7.393,0,0,1-1.872.13q-10.487,0-20.973.008a11.234,11.234,0,0,1-1.479-.166c-.482-.062-.71-.454-.814-.9a1.763,1.763,0,0,1-.007-.39q0-22.206,0-44.413c.908-.078.908-.078.908.817v42.5c0,1.281.228,1.508,1.511,1.508h21.81c.26,0,.52.018.779.027A2.551,2.551,0,0,0,390.776,690.547Z" transform="translate(-26.529 -20.171)" fill="#d3e0e3"/>
      <path id="Trazado_634286" data-name="Trazado 634286" d="M474.978,783.989a20.242,20.242,0,0,0-.38,3.854,11.363,11.363,0,0,0,4.677,9.062,11.623,11.623,0,0,0,7.911,2.361,9.965,9.965,0,0,0,1.273-.207c.173-.032.34-.09.481.07a7.786,7.786,0,0,1-3.31,1.036,10.766,10.766,0,0,1-12-8.9A9.748,9.748,0,0,1,474.978,783.989Z" transform="translate(-106.195 -123.036)" fill="#365698"/>
      <path id="Trazado_634287" data-name="Trazado 634287" d="M551.518,839.048c1.511,1.332,3.038,2.646,4.525,4a1.658,1.658,0,1,1-2.185,2.493c-1.6-1.392-3.158-2.838-4.733-4.262a6.441,6.441,0,0,0,1.114-.875C550.715,840,550.993,839.408,551.518,839.048Z" transform="translate(-162.127 -163.722)" fill="#edd255"/>
      <path id="Trazado_634288" data-name="Trazado 634288" d="M467.45,756.955a7.066,7.066,0,0,1,1.567-2.334,14.219,14.219,0,0,1,5.673-3.966,14.505,14.505,0,0,1,4.716-.944c0,.5.17,1.092-.045,1.463s-.87.179-1.329.254a12.575,12.575,0,0,0-8.25,4.844,1.437,1.437,0,0,1-1.489.722A7.048,7.048,0,0,0,467.45,756.955Z" transform="translate(-101.774 -97.707)" fill="#ccdadd"/>
      <path id="Trazado_634289" data-name="Trazado 634289" d="M459.925,791.395a14.477,14.477,0,0,1,.739-5.789,1.68,1.68,0,0,0,.044-.447h1.859a13.647,13.647,0,0,0-1.007,3.979,11,11,0,0,0-.03,1.877c.026.314-.05.433-.376.41C460.747,791.4,460.335,791.4,459.925,791.395Z" transform="translate(-96.201 -123.901)" fill="#b8cfd4"/>
      <path id="Trazado_634290" data-name="Trazado 634290" d="M548.856,836.158c-.525.36-.8.949-1.279,1.361a6.445,6.445,0,0,1-1.114.875c-1.228-.908-1.223-.9-.161-1.919a12.069,12.069,0,0,0,1.016-1.087c.218-.267.376-.367.649-.071S548.558,835.879,548.856,836.158Z" transform="translate(-159.465 -160.831)" fill="#e3c350"/>
      <path id="Trazado_634291" data-name="Trazado 634291" d="M463.115,822.393c-.087-.8-.657-1.466-.653-2.294l1.545-.008.988,2.3Z" transform="translate(-98.088 -149.714)" fill="#d3e0e3"/>
      <path id="Trazado_634292" data-name="Trazado 634292" d="M463.244,817.434l-1.545.008c-.042,0-.085-.008-.127-.01a2.541,2.541,0,0,1-.134-.874,5.232,5.232,0,0,0,.71-.033C462.885,816.392,463.23,816.707,463.244,817.434Z" transform="translate(-97.325 -147.056)" fill="#b8cfd4"/>
      <path id="Trazado_634293" data-name="Trazado 634293" d="M512.983,625.165l-.1-.1C512.972,625.046,513.011,625.074,512.983,625.165Z" transform="translate(-135.348 -5.595)" fill="#ccdadd"/>
      <path id="Trazado_634294" data-name="Trazado 634294" d="M491.326,789.445a8.333,8.333,0,0,1-8.36-8.342,8.334,8.334,0,0,1,16.667-.05A8.334,8.334,0,0,1,491.326,789.445Zm-4.6-12.7a6.242,6.242,0,0,0-1.05,7.364c1.956,3.72,7.175,4.591,9.936,1.659a6.336,6.336,0,1,0-8.886-9.023Z" transform="translate(-113.24 -114.732)" fill="#020203"/>
      <path id="Trazado_634295" data-name="Trazado 634295" d="M453.44,645.377a1.128,1.128,0,0,1-.92-1.29c.023-.693-.01-1.388.01-2.082a1.6,1.6,0,0,1,1.672-1.688q5.108-.026,10.217,0a1.555,1.555,0,0,1,1.671,1.671q.023,5.107,0,10.215a1.573,1.573,0,0,1-1.712,1.7q-5.076.015-10.152,0a1.6,1.6,0,0,1-1.695-1.665c-.026-.975,0-1.952-.01-2.927a1.078,1.078,0,0,1,.921-1.215c.828.161,1.031.406,1.038,1.26,0,.344,0,.687,0,1.031,0,1.648,0,1.648,1.681,1.54,2.518.008,5.037.014,7.555.03.284,0,.431-.045.429-.383q-.017-4.462,0-8.923c0-.268-.068-.388-.363-.386-2.54.018-5.079.025-7.619.034-1.679-.128-1.679-.128-1.68,1.485,0,.108,0,.216,0,.324C454.473,644.958,454.288,645.184,453.44,645.377Z" transform="translate(-90.74 -16.861)" fill="#040402"/>
      <path id="Trazado_634296" data-name="Trazado 634296" d="M396.37,753.877q-4.752,0-9.5,0a3.375,3.375,0,0,1-.775-.06.958.958,0,0,1-.034-1.834,2.608,2.608,0,0,1,.707-.075q9.634-.005,19.268,0a2.465,2.465,0,0,1,.643.064.881.881,0,0,1,.692.969.864.864,0,0,1-.718.883,3.6,3.6,0,0,1-.776.054Q401.122,753.88,396.37,753.877Z" transform="translate(-41.138 -99.326)" fill="#060707"/>
      <path id="Trazado_634297" data-name="Trazado 634297" d="M394.3,732.974q-3.712,0-7.424,0a3.6,3.6,0,0,1-.712-.05.891.891,0,0,1-.767-.98.9.9,0,0,1,.842-.919,3.072,3.072,0,0,1,.454-.021q7.587,0,15.174,0a2.567,2.567,0,0,1,.582.046.959.959,0,0,1,.047,1.85,2.97,2.97,0,0,1-.773.073Q398.012,732.979,394.3,732.974Z" transform="translate(-41.141 -83.88)" fill="#060707"/>
      <path id="Trazado_634298" data-name="Trazado 634298" d="M423.227,712.454q-3.125,0-6.249,0a3.3,3.3,0,0,1-.711-.05.958.958,0,0,1-.044-1.849,2.977,2.977,0,0,1,.773-.07q6.217-.006,12.433,0c.13,0,.261-.006.39,0,.669.041,1.08.405,1.094.965.015.591-.4,1-1.112,1C427.61,712.463,425.418,712.454,423.227,712.454Z" transform="translate(-63.413 -68.717)" fill="#060707"/>
      <path id="Trazado_634299" data-name="Trazado 634299" d="M393.051,664.554h-6.317a1.43,1.43,0,0,1-.991-.23.931.931,0,0,1-.34-.928.853.853,0,0,1,.645-.739,3.191,3.191,0,0,1,.772-.074q6.186-.006,12.373,0c.087,0,.174,0,.26,0,.741.02,1.206.406,1.2,1s-.463.971-1.219.974C397.306,664.561,395.178,664.554,393.051,664.554Z" transform="translate(-41.133 -33.322)" fill="#060707"/>
      <path id="Trazado_634300" data-name="Trazado 634300" d="M392.993,680.834q-3.191,0-6.382,0c-.807,0-1.257-.369-1.24-1,.016-.6.462-.955,1.226-.955q6.414,0,12.828,0c.75,0,1.213.381,1.217.974s-.452.977-1.2.979Q396.217,680.838,392.993,680.834Z" transform="translate(-41.122 -45.365)" fill="#020202"/>
      <path id="Trazado_634301" data-name="Trazado 634301" d="M392.953,648.319h-6.121c-.152,0-.3.008-.456,0a1,1,0,0,1-1.005-.985.946.946,0,0,1,1.007-.963q6.609-.014,13.218,0a.966.966,0,0,1,1.045,1,1.017,1.017,0,0,1-1.112.95C397.337,648.325,395.145,648.319,392.953,648.319Z" transform="translate(-41.122 -21.337)" fill="#020203"/>
      <path id="Trazado_634302" data-name="Trazado 634302" d="M467.882,730.99c1.432,0,2.864,0,4.3,0,.8,0,1.271.378,1.265.987s-.477.981-1.281.983q-4.3.009-8.591,0c-.735,0-1.127-.292-1.2-.836-.094-.666.321-1.121,1.089-1.13C464.932,730.979,466.407,730.99,467.882,730.99Z" transform="translate(-98.008 -83.87)" fill="#060707"/>
      <path id="Trazado_634303" data-name="Trazado 634303" d="M456.047,650.869c.848-.193,1.033-.418,1.041-1.274,0-.108,0-.216,0-.323,0-1.614,0-1.614,1.68-1.485v9.628c-1.68.108-1.68.108-1.68-1.54,0-.344,0-.687,0-1.031-.007-.854-.21-1.1-1.038-1.26Q456.049,652.226,456.047,650.869Z" transform="translate(-93.348 -22.353)" fill="#e3c350"/>
      <path id="Trazado_634304" data-name="Trazado 634304" d="M496.949,782.262a5.931,5.931,0,0,1,6.326-1.757,6.361,6.361,0,0,1,2.56,10.78,6.341,6.341,0,0,0-.65.019,7.09,7.09,0,0,1-7.048-3.033A7.656,7.656,0,0,1,496.949,782.262Z" transform="translate(-123.463 -120.254)" fill="#e1eaee"/>
      <path id="Trazado_634305" data-name="Trazado 634305" d="M492.289,788.034a7.656,7.656,0,0,0,1.188,6.008,7.09,7.09,0,0,0,7.048,3.033,6.322,6.322,0,0,1,.65-.019c-2.761,2.932-7.98,2.061-9.936-1.659A6.242,6.242,0,0,1,492.289,788.034Z" transform="translate(-118.803 -126.025)" fill="#d3e0e3"/>
      <path id="Trazado_634306" data-name="Trazado 634306" d="M466.47,657.46v-9.628c2.54-.01,5.08-.016,7.619-.034.295,0,.364.118.363.386q-.009,4.462,0,8.923c0,.338-.145.385-.429.384C471.506,657.474,468.988,657.468,466.47,657.46Z" transform="translate(-101.049 -22.398)" fill="#edd255"/>
    </g>
  </g>
</svg>
