<svg xmlns="http://www.w3.org/2000/svg" width="82" height="82" viewBox="0 0 82 82">
  <g id="Grupo_956676" data-name="Grupo 956676" transform="translate(-303 -3929)">
    <g id="Grupo_951854" data-name="Grupo 951854" transform="translate(303 3929)">
      <path id="Trazado_621807" data-name="Trazado 621807" d="M41,0A41,41,0,1,1,0,41,41,41,0,0,1,41,0Z" fill="#ef8b53"/>
    </g>
    <g id="Grupo_980593" data-name="Grupo 980593" transform="translate(-774.173 3531.193)">
      <path id="Trazado_640445" data-name="Trazado 640445" d="M1118.178,406.19h31.106c1.209,0,1.509.3,1.51,1.511q0,18.477,0,36.953c0,1.213-.3,1.516-1.506,1.516q-10.785,0-21.57-.01a.763.763,0,0,0-.855.569,8.89,8.89,0,0,1-2.78,3.678c-.13.1-.325.154-.262.392.155.592.3,1.187.455,1.779.055.209.268.215.423.267q4.073,1.362,8.152,2.7a9.25,9.25,0,0,0,1.09.208,5.319,5.319,0,0,1,4.223,4.754c.266,2.812.616,5.616.9,8.427.041.405.235.382.507.382,1.622,0,3.244-.012,4.866,0a1.034,1.034,0,0,1,1.094,1.062,1.056,1.056,0,0,1-1.061,1.034c-.087.006-.175,0-.263,0q-26.042,0-52.084,0c-.829,0-1.306-.395-1.3-1.056s.475-1.044,1.311-1.046c1.534,0,3.069-.011,4.6.006.361,0,.519-.046.561-.474.278-2.811.612-5.616.9-8.426a5.23,5.23,0,0,1,4.238-4.657,22.055,22.055,0,0,0,3.141-.9c1.949-.646,3.891-1.31,5.846-1.935a1.089,1.089,0,0,0,.8-.8,1.781,1.781,0,0,0-.624-2.372,6.493,6.493,0,0,1-2.11-3.039.756.756,0,0,0-.864-.556q-10.785.019-21.57.009c-1.176,0-1.493-.31-1.493-1.462q0-18.543,0-37.085c0-1.112.326-1.433,1.454-1.433Zm.029,2.1q-14.959,0-29.918-.006c-.42,0-.649,0-.648.566q.031,17.324.005,34.647c0,.458.106.579.572.577,3.792-.021,7.583-.012,11.375-.012,2.871,0,5.743-.009,8.614.01.432,0,.541-.1.518-.543-.049-.918-.028-1.84-.021-2.76a18.726,18.726,0,0,1,.255-4.186,9.464,9.464,0,0,1,18.568.839,44.392,44.392,0,0,1,.093,5.974c0,.539.088.682.65.68q9.863-.034,19.726,0c.577,0,.71-.133.709-.71q-.029-17.192,0-34.384c0-.579-.136-.709-.71-.708Q1133.1,408.31,1118.207,408.294Zm-.091,61.023c3.331,0,6.662-.008,9.992.01.451,0,.606-.113.6-.583-.028-1.467-.012-2.936-.01-4.4,0-.85.362-1.314,1.023-1.332.684-.019,1.08.467,1.081,1.34q0,2.235,0,4.47c0,.285,0,.508.4.505,1.8-.014,3.594-.008,5.391,0,.267,0,.415-.065.373-.373-.062-.454-.1-.912-.151-1.368-.25-2.258-.533-4.513-.74-6.775a3.238,3.238,0,0,0-2.854-3.034,6.3,6.3,0,0,1-1.335-.3q-4.046-1.351-8.091-2.707a3.348,3.348,0,0,0-1.093-.175q-4.5.012-9.006,0a3.513,3.513,0,0,0-1.156.187c-2.01.68-4.016,1.375-6.039,2.014a22.3,22.3,0,0,1-3.647,1.038,3.106,3.106,0,0,0-2.556,2.735c-.3,2.758-.6,5.517-.908,8.274-.044.388.082.494.455.491,1.731-.014,3.463-.017,5.193,0,.408,0,.524-.129.519-.526-.02-1.49-.01-2.98-.007-4.47,0-.844.37-1.31,1.033-1.322.684-.012,1.069.469,1.071,1.35,0,1.424.025,2.849-.011,4.272-.014.537.123.705.683.7C1111.586,469.3,1114.851,469.317,1118.116,469.317Zm3.952-16.834c-.24-.935-.48-1.814-.689-2.7a1.029,1.029,0,0,1,1.31-1.311.593.593,0,0,0,.67-.229,6.6,6.6,0,0,0,1.908-3.31,23.022,23.022,0,0,0,.122-7.385,7.232,7.232,0,0,0-7.222-6.1,7.32,7.32,0,0,0-7.229,6.114,31.777,31.777,0,0,0-.074,6.23,6.74,6.74,0,0,0,2.134,4.461c.163.162.287.318.608.241.979-.237,1.577.4,1.339,1.368-.182.743-.385,1.481-.574,2.222-.056.22-.111.413.259.411C1117.081,452.478,1119.533,452.483,1122.068,452.483Z" transform="translate(0 0)" fill="#010101"/>
      <path id="Trazado_640446" data-name="Trazado 640446" d="M1124.046,414.136q14.893,0,29.786-.014c.574,0,.711.128.711.708q-.03,17.192,0,34.384c0,.576-.132.711-.709.709q-9.863-.035-19.726,0c-.561,0-.65-.141-.65-.68a44.412,44.412,0,0,0-.093-5.974,9.464,9.464,0,0,0-18.568-.839,18.726,18.726,0,0,0-.255,4.186c-.008.92-.028,1.842.021,2.76.023.439-.087.546-.518.543-2.871-.018-5.743-.01-8.614-.01-3.792,0-7.584-.009-11.375.012-.465,0-.572-.119-.572-.577q.02-17.324-.005-34.647c0-.563.227-.566.648-.566Q1109.087,414.142,1124.046,414.136Zm-19.489,26.3h8.414c.175,0,.351.007.526,0a1.01,1.01,0,0,0,1.018-.859.932.932,0,0,0-.649-1.145c-.361-.116-.382-.309-.381-.617q.014-4.338,0-8.676c0-.952-.364-1.319-1.3-1.325-.855-.005-1.709,0-2.564,0-1.064,0-1.4.341-1.4,1.426q0,4.207,0,8.413c0,.35.129.7-.507.711-.681.015-.543-.371-.544-.741,0-1.753,0-3.505,0-5.258,0-1.042-.344-1.391-1.363-1.395q-1.282,0-2.564,0c-.98,0-1.332.361-1.334,1.356,0,1.818-.01,3.637.006,5.455,0,.387-.039.573-.513.574s-.559-.163-.557-.6c.018-3.2.011-6.4.009-9.6,0-1.064-.342-1.4-1.424-1.4q-1.216,0-2.432,0c-1.071,0-1.4.337-1.4,1.418q0,4.634,0,9.267c0,.472.09.907-.574,1.1a.844.844,0,0,0-.453,1.058,1.012,1.012,0,0,0,.846.816,3.087,3.087,0,0,0,.59.021Zm38.456-24.2a9.467,9.467,0,1,0,9.411,9.43A9.482,9.482,0,0,0,1143.013,416.24Zm-29,2.1h10.577a2.983,2.983,0,0,0,.654-.023,1.045,1.045,0,0,0-.031-2.062,2.988,2.988,0,0,0-.59-.017h-21.22a2.987,2.987,0,0,0-.59.017,1.045,1.045,0,0,0-.033,2.062,2.983,2.983,0,0,0,.654.024Zm-1.575,3.156h8.934c.175,0,.351.009.525,0a1.048,1.048,0,0,0,.027-2.1c-.152-.012-.307,0-.46,0H1103.4a3.09,3.09,0,0,0-.589.018,1.046,1.046,0,0,0-.026,2.063,2.573,2.573,0,0,0,.589.022Zm-11.047,19.99c-1.885,0-3.771,0-5.656,0a1.071,1.071,0,0,0-1.1.664.985.985,0,0,0,.244,1.143,1.322,1.322,0,0,0,1.038.3c3.42,0,6.84,0,10.26-.012a1.222,1.222,0,0,1,.97.406c1.272,1.3,2.569,2.577,3.851,3.868a1.177,1.177,0,0,0,1.167.438,1.061,1.061,0,0,0,.382-1.87c-1.493-1.514-3.007-3.007-4.505-4.516a1.458,1.458,0,0,0-1.124-.427C1105.075,441.5,1103.233,441.491,1101.392,441.491Zm-5.792-21.044c0,1.006-.009,2.012,0,3.018a1.059,1.059,0,0,0,1.165,1.189c.963.014,1.925.012,2.888,0a1.071,1.071,0,0,0,1.2-1.219q.013-2.985,0-5.971a1.07,1.07,0,0,0-1.2-1.221c-.94-.011-1.881-.009-2.822,0-.852.008-1.229.389-1.235,1.251C1095.594,418.478,1095.6,419.462,1095.6,420.447Zm49.47,19.992c-1.665,0-3.331.012-5-.007a1.576,1.576,0,0,0-1.224.505c-1.089,1.111-2.2,2.2-3.294,3.305-.588.592-.651,1.2-.188,1.666s1.078.417,1.667-.166c.919-.909,1.848-1.81,2.734-2.75a1.406,1.406,0,0,1,1.147-.458c3.046.018,6.091.011,9.137.008.83,0,1.31-.389,1.314-1.046s-.474-1.055-1.3-1.057C1148.4,440.436,1146.736,440.439,1145.07,440.439Zm-36.91-15.781q2.527,0,5.054,0c.833,0,1.311-.381,1.322-1.035s-.47-1.067-1.288-1.067q-5.022-.005-10.043,0c-.822,0-1.3.4-1.288,1.066s.486,1.035,1.32,1.037Q1105.7,424.662,1108.161,424.658Zm36.965,12.625c-1.707,0-3.413,0-5.12,0-.78,0-1.246.393-1.258,1.03-.013.662.466,1.071,1.284,1.071q5.021.006,10.043,0c.818,0,1.3-.407,1.292-1.065s-.485-1.036-1.318-1.038C1148.408,437.28,1146.767,437.283,1145.126,437.283Zm-47.427,7.364c-.656,0-1.311-.009-1.967,0a1.056,1.056,0,1,0-.021,2.1q2,.019,4,0a1.052,1.052,0,1,0,.021-2.1C1099.053,444.636,1098.376,444.648,1097.7,444.647Z" transform="translate(-5.839 -5.842)" fill="#95d5f0"/>
      <path id="Trazado_640447" data-name="Trazado 640447" d="M1156.751,604.554c-3.265,0-6.53-.014-9.8.013-.56,0-.7-.164-.683-.7.036-1.423.014-2.848.012-4.272,0-.881-.387-1.363-1.071-1.35-.663.012-1.031.478-1.033,1.322,0,1.49-.013,2.98.007,4.47.005.4-.111.531-.519.526-1.731-.019-3.462-.016-5.193,0-.373,0-.5-.1-.455-.491.313-2.757.609-5.515.908-8.274a3.107,3.107,0,0,1,2.556-2.735,22.3,22.3,0,0,0,3.647-1.038c2.023-.639,4.029-1.333,6.039-2.014a3.518,3.518,0,0,1,1.156-.187q4.5.013,9.006,0a3.348,3.348,0,0,1,1.093.175q4.044,1.359,8.091,2.707a6.3,6.3,0,0,0,1.335.3,3.238,3.238,0,0,1,2.854,3.034c.207,2.262.49,4.517.739,6.775.05.456.089.914.151,1.368.042.309-.105.374-.373.373-1.8-.005-3.594-.011-5.39,0-.4,0-.4-.22-.4-.505q.008-2.235,0-4.47c0-.874-.4-1.359-1.081-1.34-.661.018-1.021.483-1.023,1.333,0,1.468-.019,2.936.01,4.4.009.47-.146.585-.6.583C1163.413,604.546,1160.082,604.554,1156.751,604.554Z" transform="translate(-38.635 -135.236)" fill="#57565b"/>
      <path id="Trazado_640448" data-name="Trazado 640448" d="M1192.476,523.052c-2.535,0-4.987-.006-7.439.006-.371,0-.315-.192-.259-.411.189-.741.391-1.479.574-2.222.238-.972-.36-1.6-1.339-1.368-.32.078-.445-.079-.608-.241a6.74,6.74,0,0,1-2.134-4.461,31.768,31.768,0,0,1,.074-6.23,7.319,7.319,0,0,1,7.229-6.114,7.231,7.231,0,0,1,7.222,6.1,23.019,23.019,0,0,1-.122,7.385,6.6,6.6,0,0,1-1.908,3.31.592.592,0,0,1-.67.229,1.029,1.029,0,0,0-1.309,1.311C1192,521.237,1192.236,522.117,1192.476,523.052Z" transform="translate(-70.408 -70.568)" fill="#f7d9af"/>
      <path id="Trazado_640449" data-name="Trazado 640449" d="M1107.533,475.758h-8.545a3.1,3.1,0,0,1-.59-.021,1.012,1.012,0,0,1-.845-.816.844.844,0,0,1,.453-1.058c.663-.19.575-.625.574-1.1q-.008-4.633,0-9.267c0-1.081.333-1.415,1.4-1.418q1.216,0,2.432,0c1.082,0,1.423.335,1.424,1.4,0,3.2.009,6.4-.009,9.6,0,.436.07.6.557.6s.516-.187.513-.574c-.016-1.818-.009-3.637-.006-5.455,0-.995.354-1.351,1.334-1.356q1.282-.006,2.564,0c1.019,0,1.361.353,1.362,1.395,0,1.753,0,3.505,0,5.258,0,.37-.137.755.544.741.635-.014.506-.362.506-.711q0-4.206,0-8.413c0-1.085.333-1.423,1.4-1.426.855,0,1.709,0,2.564,0,.936.006,1.3.373,1.3,1.325q.005,4.338,0,8.676c0,.308.02.5.381.617a.931.931,0,0,1,.649,1.145,1.01,1.01,0,0,1-1.018.859c-.174.011-.35,0-.526,0Zm-6.852-6.907c0,1.423.017,2.847-.01,4.269-.008.446.152.543.566.548s.5-.165.5-.543q-.019-4.2,0-8.407c0-.446-.151-.543-.566-.548s-.508.164-.5.543C1100.692,466.092,1100.681,467.472,1100.681,468.851Zm12.628.526c0,1.269.023,2.539-.012,3.807-.012.452.178.482.536.479s.545-.017.54-.475q-.038-3.741,0-7.482c0-.451-.178-.482-.536-.479s-.554.016-.54.475C1113.333,466.926,1113.309,468.152,1113.309,469.377Zm-5.262,1.713c0-.764-.025-1.529.01-2.29.021-.458-.244-.411-.534-.409s-.546-.054-.538.407q.04,2.224,0,4.45c-.008.457.245.411.535.409s.56.055.537-.407C1108.021,472.531,1108.047,471.81,1108.047,471.09Z" transform="translate(-8.816 -41.16)" fill="#000101"/>
      <path id="Trazado_640450" data-name="Trazado 640450" d="M1254.8,422.16a9.467,9.467,0,1,1-9.53,9.375A9.491,9.491,0,0,1,1254.8,422.16Zm-1.154,5.7h.041c0-1.008-.014-2.015.007-3.023.007-.368-.07-.514-.471-.425a7.38,7.38,0,0,0-4.642,11.249c.188.289.313.342.577.065.71-.746,1.452-1.46,2.178-2.19.772-.776,1.848-1.432,2.225-2.369C1253.945,430.213,1253.644,428.978,1253.644,427.864Zm.823,11.129a7.462,7.462,0,0,0,7.443-5.725c.06-.265.269-.6-.312-.595-2.038.021-4.077.013-6.115,0a.737.737,0,0,0-.565.263c-1.422,1.429-2.843,2.86-4.282,4.272-.271.265-.233.386.061.573A7.353,7.353,0,0,0,1254.467,438.993Zm4.426-8.417c.853,0,1.706-.019,2.558.008.439.013.6-.11.483-.561a7.414,7.414,0,0,0-5.588-5.587c-.361-.1-.568-.055-.563.411.02,1.749.017,3.5,0,5.247,0,.369.111.5.485.488C1257.143,430.561,1258.018,430.576,1258.893,430.576Z" transform="translate(-117.624 -11.761)" fill="#020202"/>
      <path id="Trazado_640451" data-name="Trazado 640451" d="M1137.613,424.249h-10.577a2.984,2.984,0,0,1-.654-.024,1.045,1.045,0,0,1,.033-2.062,2.987,2.987,0,0,1,.59-.017h21.22a2.987,2.987,0,0,1,.59.017,1.045,1.045,0,0,1,.031,2.062,2.984,2.984,0,0,1-.654.023Z" transform="translate(-29.438 -11.747)" fill="#010101"/>
      <path id="Trazado_640452" data-name="Trazado 640452" d="M1136.036,436.228h-9.065a2.574,2.574,0,0,1-.589-.022,1.046,1.046,0,0,1,.026-2.063,3.09,3.09,0,0,1,.59-.018h18.064c.153,0,.307-.008.46,0a1.048,1.048,0,0,1-.027,2.1c-.174.012-.35,0-.525,0Z" transform="translate(-29.436 -20.569)" fill="#010101"/>
      <path id="Trazado_640453" data-name="Trazado 640453" d="M1104.367,517.958c1.841,0,3.683.007,5.524-.005a1.458,1.458,0,0,1,1.125.427c1.5,1.509,3.013,3,4.505,4.516a1.061,1.061,0,0,1-.381,1.87,1.176,1.176,0,0,1-1.167-.438c-1.282-1.291-2.58-2.567-3.851-3.868a1.221,1.221,0,0,0-.97-.406c-3.42.017-6.84.008-10.26.012a1.322,1.322,0,0,1-1.038-.3.985.985,0,0,1-.244-1.143,1.071,1.071,0,0,1,1.1-.664C1100.6,517.961,1102.482,517.958,1104.367,517.958Z" transform="translate(-8.814 -82.309)" fill="#020203"/>
      <path id="Trazado_640454" data-name="Trazado 640454" d="M1101.515,426.352c0-.984-.006-1.969,0-2.953.007-.862.383-1.243,1.235-1.251.941-.009,1.881-.011,2.822,0a1.07,1.07,0,0,1,1.2,1.221q.012,2.985,0,5.971a1.071,1.071,0,0,1-1.2,1.219c-.963.011-1.925.013-2.888,0a1.059,1.059,0,0,1-1.165-1.189C1101.507,428.364,1101.515,427.358,1101.515,426.352Zm3.157.057c0-.59-.028-1.181.009-1.769.031-.481-.275-.381-.546-.392-.3-.012-.539-.04-.526.413q.049,1.637,0,3.276c-.014.444.135.527.547.538.455.012.549-.154.523-.559C1104.648,427.415,1104.672,426.912,1104.672,426.409Z" transform="translate(-11.754 -11.747)" fill="#010101"/>
      <path id="Trazado_640455" data-name="Trazado 640455" d="M1261.271,513.96c1.665,0,3.331,0,5,0,.828,0,1.306.4,1.3,1.057s-.484,1.045-1.314,1.046c-3.046,0-6.092.01-9.137-.008a1.406,1.406,0,0,0-1.147.458c-.886.94-1.815,1.84-2.734,2.75-.589.583-1.2.638-1.667.166s-.4-1.074.188-1.666c1.1-1.1,2.206-2.194,3.294-3.305a1.575,1.575,0,0,1,1.224-.505C1257.94,513.972,1259.606,513.96,1261.271,513.96Z" transform="translate(-122.04 -79.363)" fill="#020203"/>
      <path id="Trazado_640456" data-name="Trazado 640456" d="M1131.739,448.214q-2.462,0-4.923,0c-.834,0-1.31-.381-1.32-1.036s.467-1.065,1.288-1.066q5.021-.005,10.043,0c.818,0,1.3.408,1.288,1.067s-.489,1.033-1.322,1.035Q1134.266,448.219,1131.739,448.214Z" transform="translate(-29.417 -29.398)" fill="#010102"/>
      <path id="Trazado_640457" data-name="Trazado 640457" d="M1271.624,502c1.641,0,3.282,0,4.923,0,.833,0,1.309.382,1.318,1.038s-.474,1.064-1.292,1.065q-5.022.005-10.043,0c-.818,0-1.3-.41-1.284-1.071.012-.638.478-1.028,1.258-1.03C1268.211,502,1269.918,502,1271.624,502Z" transform="translate(-132.338 -70.56)" fill="#010102"/>
      <path id="Trazado_640458" data-name="Trazado 640458" d="M1100.692,529.939c.677,0,1.355-.012,2.032,0a1.052,1.052,0,1,1-.021,2.1q-2,.02-4,0a1.056,1.056,0,1,1,.021-2.1C1099.381,529.93,1100.036,529.938,1100.692,529.939Z" transform="translate(-8.832 -91.133)" fill="#020303"/>
      <path id="Trazado_640459" data-name="Trazado 640459" d="M1109.482,474.694c0-1.379.011-2.759-.007-4.138-.005-.379.074-.548.5-.543s.569.1.566.548q-.028,4.2,0,8.407c0,.378-.074.548-.5.543s-.574-.1-.566-.548C1109.5,477.54,1109.482,476.117,1109.482,474.694Z" transform="translate(-17.616 -47.003)" fill="#9d3016"/>
      <path id="Trazado_640460" data-name="Trazado 640460" d="M1157.389,478.173c0-1.225.024-2.451-.012-3.675-.013-.459.19-.473.54-.475s.541.028.536.479q-.038,3.741,0,7.482c0,.457-.19.473-.54.475s-.548-.027-.536-.479C1157.412,480.712,1157.389,479.442,1157.389,478.173Z" transform="translate(-52.895 -49.956)" fill="#f8d961"/>
      <path id="Trazado_640461" data-name="Trazado 640461" d="M1134.491,488.72c0,.72-.026,1.441.009,2.159.023.461-.25.405-.537.407s-.543.047-.535-.409q.04-2.225,0-4.45c-.008-.46.251-.405.538-.407s.556-.049.534.409C1134.466,487.192,1134.491,487.957,1134.491,488.72Z" transform="translate(-35.259 -58.791)" fill="#ef9a3b"/>
      <path id="Trazado_640462" data-name="Trazado 640462" d="M1259.528,434.1c0,1.114.3,2.349-.085,3.308-.377.936-1.453,1.593-2.225,2.369-.726.73-1.468,1.444-2.178,2.19-.264.277-.389.225-.577-.065a7.38,7.38,0,0,1,4.642-11.249c.4-.089.478.057.471.425-.021,1.007-.007,2.015-.007,3.023Z" transform="translate(-123.508 -17.997)" fill="#ef9a3b"/>
      <path id="Trazado_640463" data-name="Trazado 640463" d="M1268.957,468.373a7.353,7.353,0,0,1-3.771-1.209c-.293-.188-.332-.308-.061-.573,1.439-1.412,2.86-2.843,4.282-4.272a.738.738,0,0,1,.565-.263c2.039.01,4.077.019,6.115,0,.581-.006.372.33.312.595A7.461,7.461,0,0,1,1268.957,468.373Z" transform="translate(-132.114 -41.141)" fill="#f7d860"/>
      <path id="Trazado_640464" data-name="Trazado 640464" d="M1288.278,436.822c-.875,0-1.75-.015-2.624.007-.374.009-.488-.119-.485-.488.016-1.749.019-3.5,0-5.247-.005-.466.2-.507.563-.411a7.414,7.414,0,0,1,5.588,5.587c.122.451-.043.574-.483.561C1289.984,436.8,1289.131,436.822,1288.278,436.822Z" transform="translate(-147.01 -18.007)" fill="#9d3016"/>
      <path id="Trazado_640465" data-name="Trazado 640465" d="M1110.529,432.285c0,.5-.024,1.006.008,1.507.025.405-.068.572-.523.559-.412-.011-.561-.094-.547-.538q.051-1.637,0-3.276c-.014-.453.229-.425.526-.413.271.011.576-.089.546.392C1110.5,431.1,1110.529,431.7,1110.529,432.285Z" transform="translate(-17.612 -17.623)" fill="#f8d961"/>
    </g>
  </g>
</svg>
