<svg xmlns="http://www.w3.org/2000/svg" width="82" height="82" viewBox="0 0 82 82">
  <g id="Grupo_956678" data-name="Grupo 956678" transform="translate(-303 -3929)">
    <g id="Grupo_951854" data-name="Grupo 951854" transform="translate(303 3929)">
      <path id="Trazado_621807" data-name="Trazado 621807" d="M41,0A41,41,0,1,1,0,41,41,41,0,0,1,41,0Z" fill="#ef8b53"/>
    </g>
    <g id="Grupo_980592" data-name="Grupo 980592" transform="translate(-591.673 3855.316)">
      <path id="Trazado_640429" data-name="Trazado 640429" d="M936.852,90.893c.191-.81.462-1.032,1.295-1.036,1.162,0,2.323-.021,3.484.009a.671.671,0,0,0,.787-.5c.178-.525.431-1.025.65-1.537a3.692,3.692,0,0,1,2.857-2.267c1.378-.271,2.752-.562,4.135-.806.421-.074.578-.242.521-.656-.027-.2.006-.4-.007-.6-.041-.621.13-1.12.795-1.287.559-.141.96.175,1.246.927-.008,2.1-.011,4.192-.027,6.288,0,.287.026.443.385.44,2.788-.023,5.575-.026,8.363-.034,1,.009,2.009,0,3.013.034.337.01.411-.115.408-.425-.021-2.1-.026-4.2-.037-6.295.273-.747.68-1.069,1.241-.936.673.16.816.668.813,1.283-.01,1.9.023,3.8-.019,5.7-.013.584.168.717.707.675a5.122,5.122,0,0,1,1.666.1,3.363,3.363,0,0,1,2.235,4.75c-.159.322-.206.473.1.758a3.315,3.315,0,0,1-.6,5.44c-.364.208-.374.351-.252.7a3.306,3.306,0,0,1-2.191,4.31c-.451.136-.531.248-.4.705a3.058,3.058,0,0,1-.746,3.044.836.836,0,0,0-.19.948,8.7,8.7,0,0,0,1.582,2.849c3.006,3.752,2.894,3.6,2.879,8.271-.016,5.211,0,10.422-.008,15.633a3.281,3.281,0,0,1-3.71,3.438c-.91-.142-1.109.125-1.422.845a3.243,3.243,0,0,1-4.047,1.718c-.366-.122-.535-.152-.769.253a3.316,3.316,0,0,1-5.4.591.53.53,0,0,0-.769-.136,3.355,3.355,0,0,1-4.847-2.948c0-.09,0-.179,0-.269-.014-1.36-.014-1.36-1.407-1.36-4.765,0-9.529.006-14.293-.011-.446,0-.727.088-.815.55-.012.063-.066.118-.083.182A4.93,4.93,0,0,1,929.2,144.1c-.951.084-1.883.368-2.829.529-.36.061-.5.21-.462.572.025.221-.008.447.007.67.04.621-.13,1.122-.794,1.291-.559.142-.965-.177-1.246-.929q0-2.144-.008-4.288c.01-.6-.01-1.209.039-1.809.041-.492-.1-.638-.614-.633-3.133.027-6.265,0-9.4.02-.708,0-1.706-.319-2.047.136-.357.476-.094,1.416-.1,2.153a.51.51,0,0,0,.034.129c-.082,1.428-.053,2.856-.015,4.285-.268.746-.678,1.071-1.239.938-.673-.16-.816-.669-.812-1.283.01-1.723,0-3.446,0-5.168,0-1.195,0-1.2-1.164-1.2a4.844,4.844,0,0,1-1.132-.107,3.35,3.35,0,0,1-2.293-4.765c.166-.336.18-.482-.116-.756a3.328,3.328,0,0,1,.6-5.448c.295-.17.408-.254.273-.632a3.3,3.3,0,0,1,2.242-4.389c.389-.118.459-.215.339-.625a3.132,3.132,0,0,1,.78-3.162.678.678,0,0,0,.176-.767,7.71,7.71,0,0,0-1.256-2.5q-.942-1.222-1.9-2.431a5.926,5.926,0,0,1-1.336-3.842c.013-1.275.028-2.551-.008-3.826a1.182,1.182,0,0,1,.965-1.38c.866.239,1.056.478,1.06,1.357,0,1.006.063,2.016-.013,3.016a5.379,5.379,0,0,0,1.426,4.105,12.5,12.5,0,0,1,2.977,4.871c.077.292.252.311.492.31,3.844-.012,7.689-.029,11.534-.017.474,0,.544-.174.537-.581-.021-1.3.009-2.593-.014-3.889a1.256,1.256,0,0,1,.887-1.331c.788-.308,1.557-.666,2.339-.992a1.589,1.589,0,0,0,1.034-1.065c.183-.756.293-1.53.434-2.3.138-.628.264-1.26.419-1.884.083-.332-.017-.428-.349-.421q-1.171.027-2.343,0c-.338-.009-.414.134-.4.437.023.624.02,1.249.027,1.873-.213.734-.56,1.022-1.151.953-.566-.065-.871-.483-.887-1.218,0-.157,0-.313,0-.47q0-9.362,0-18.725a6.858,6.858,0,0,0-.016-.738,1.409,1.409,0,0,0-1.345-1.259,1.381,1.381,0,0,0-1.344,1.322c-.013.2-.006.4-.006.6q0,6.409,0,12.819c0,.833-.374,1.315-1.005,1.321s-1.007-.472-1.008-1.306q0-4.9,0-9.8c0-1.454.013-2.908-.005-4.362a1.374,1.374,0,0,0-1.788-1.418c-.613.187-.935.721-.936,1.6q-.005,6.107,0,12.214c0,.671.02,1.343-.01,2.013a1,1,0,1,1-2,.011c-.016-.223-.008-.447-.008-.671q0-5.906,0-11.812c0-1.027-.534-1.641-1.369-1.633-.813.008-1.354.661-1.37,1.657,0,.157,0,.313,0,.47V101.3c0,.179,0,.358,0,.537-.019.685-.387,1.125-.959,1.15a1.037,1.037,0,0,1-1.05-1.139c-.012-2.461,0-4.922-.006-7.382,0-.872.015-1.745-.009-2.617a1.311,1.311,0,0,0-1.305-1.337,1.378,1.378,0,0,0-1.386,1.276,6.013,6.013,0,0,0-.011.6q0,4.429,0,8.859c0,.818-.254,1.105-1.066,1.264a1.08,1.08,0,0,1-.953-1.234c.013-3.108-.009-6.217.011-9.325a3.358,3.358,0,0,1,4.336-3.313c.327.086.421.073.528-.289a3.331,3.331,0,0,1,4.408-2.33c.3.1.43.116.619-.2a3.33,3.33,0,0,1,5.527-.6.423.423,0,0,0,.607.108,3.361,3.361,0,0,1,4.946,3.138c.018,1.4.018,1.4,1.437,1.4q2.885,0,5.771,0c.886,0,1.108.173,1.378,1.043a1.2,1.2,0,0,1-1.373.982c-2.169-.028-4.339.008-6.508-.023-.534-.007-.724.1-.719.68q.043,5.434,0,10.868c0,.533.14.67.668.665,2.974-.026,5.949,0,8.924-.017a10.125,10.125,0,0,1,3.861.717,17.335,17.335,0,0,1,4.3,2.938,4.923,4.923,0,0,0,3.27,1.131c5.189-.026,10.377-.01,15.566-.013.245,0,.489-.027.734-.042.534.008,1.071.052,1.6.017a1.347,1.347,0,1,0-.07-2.694c-.512-.02-1.026.013-1.539.023-.268-.01-.535-.028-.8-.028-2.528,0-5.055,0-7.583,0-.744,0-1.162-.379-1.16-1s.43-.99,1.165-1.009c.2-.005.4,0,.6,0l10.466-.03c.533.007,1.069.047,1.6.014a1.391,1.391,0,0,0,1.317-1.349,1.364,1.364,0,0,0-1.38-1.338c-.555-.015-1.112.012-1.668.021q-5.3-.014-10.6-.028a3.043,3.043,0,0,1-.668-.032.942.942,0,0,1-.829-1.049.922.922,0,0,1,.949-.929c.223-.017.447-.005.671-.006l12.346-.027c.558.008,1.119.055,1.673.016a1.372,1.372,0,0,0,1.3-1.374,1.347,1.347,0,0,0-1.243-1.347,5.69,5.69,0,0,0-1.734.032c-.267-.015-.534-.042-.8-.042q-5.8,0-11.607,0a4.553,4.553,0,0,1-.735-.034.9.9,0,0,1-.816-.913.908.908,0,0,1,.77-1.019,3.444,3.444,0,0,1,.733-.049c2.594,0,5.189,0,7.783,0,1.3,0,2.592-.027,3.888-.042.486.013.974.052,1.459.033a1.322,1.322,0,0,0,1.387-1.309,1.382,1.382,0,0,0-1.391-1.4c-.53-.027-1.063.01-1.594.019-.268-.009-.535-.026-.8-.026q-8.08,0-16.161,0c-.2,0-.4.009-.6-.007a1,1,0,0,1-.022-2,5.15,5.15,0,0,1,.938,0c.4.037.556-.087.534-.515a19.706,19.706,0,0,1,0-2.078c.025-.471-.131-.574-.572-.478q-1.864.406-3.739.76a1.752,1.752,0,0,0-1.382,1.128c-.324.782-.686,1.55-1,2.338a1.207,1.207,0,0,1-1.272.862q-2.246-.036-4.492,0A1.1,1.1,0,0,1,936.852,90.893Zm14.729,37.723c-.853-.268-.995-.454-1-1.328,0-.491-.018-.982,0-1.472.016-.357-.072-.532-.476-.517-.913.033-1.828.027-2.742.036-2.17-.009-4.339-.031-6.508-.025a9.606,9.606,0,0,1-6.033-2.072c-.674-.518-1.356-1.027-2-1.58a4.65,4.65,0,0,0-3.2-1.123c-5.794.026-11.589.011-17.384.013a3.467,3.467,0,0,0-.8.049,1.334,1.334,0,0,0-.241,2.547,2.147,2.147,0,0,0,.922.122q4.732,0,9.464,0c.813,0,1.233.347,1.237.992s-.429,1.012-1.221,1.022c-.6.008-1.208,0-1.812,0H909.717c-.2,0-.4-.006-.6,0a1.423,1.423,0,0,0-1.444,1.38,1.377,1.377,0,0,0,1.478,1.32q6.108.01,12.216,0a2.012,2.012,0,0,1,.795.079.944.944,0,0,1,.651,1.05.912.912,0,0,1-.862.873,4.642,4.642,0,0,1-.6.013H907.786c-1.23,0-1.91.5-1.9,1.392s.641,1.332,1.867,1.332q6.712,0,13.424,0a4.174,4.174,0,0,1,.932.076.876.876,0,0,1,.7.87.936.936,0,0,1-.624,1,2.222,2.222,0,0,1-.862.094q-6.309,0-12.618,0a5.55,5.55,0,0,0-.8.032,1.286,1.286,0,0,0-1.107,1.309c0,.844.654,1.375,1.711,1.376q8.994,0,17.988,0c.224,0,.449-.011.671.008a.967.967,0,0,1,.949.951,1,1,0,0,1-.927,1.046,3.918,3.918,0,0,1-.8.007c-.393-.037-.5.13-.486.5.024.715.026,1.432,0,2.147-.014.4.127.51.509.43,1.311-.274,2.628-.525,3.939-.8a1.609,1.609,0,0,0,1.19-.988,21.422,21.422,0,0,0,.862-2.034,1.7,1.7,0,0,1,1.949-1.29c4.339.046,8.68.006,13.019,0,.848.009,1.7-.008,2.543.036.511.027.7-.1.682-.657-.04-1.517-.016-3.035-.013-4.553,0-.877.161-1.08,1-1.322.81.244,1.009.5,1.01,1.336q.006,4.193,0,8.385a1.978,1.978,0,0,0,.157.98,1.348,1.348,0,0,0,2.551-.734q.009-5,0-10c0-1.14-.01-2.281,0-3.421a1.037,1.037,0,0,1,1.039-1.146c.593.02.969.473.97,1.207q.006,5.5,0,11c0,1.118-.018,2.237.008,3.354a1.357,1.357,0,1,0,2.713.026c.016-.223.008-.447.008-.671q0-6.675,0-13.35a4.427,4.427,0,0,1,.025-.669.99.99,0,0,1,1.973.027,6.112,6.112,0,0,1,.018.67q0,5.333,0,10.666c0,.537-.02,1.075.022,1.609a1.327,1.327,0,0,0,1.227,1.283,1.364,1.364,0,0,0,1.443-1.132,3.877,3.877,0,0,0,.049-.8q0-5.97,0-11.941c0-.931.282-1.219,1.227-1.292a1.321,1.321,0,0,1,.8,1.4c-.018,3.221-.012,6.443,0,9.664a1.343,1.343,0,0,0,1.09,1.408,1.367,1.367,0,0,0,1.506-.856,2.192,2.192,0,0,0,.109-.923c0-5.637-.038-11.275.026-16.912a5.888,5.888,0,0,0-1.455-4.17,12.432,12.432,0,0,1-2.971-4.88c-.071-.268-.235-.277-.447-.277q-5.839.016-11.679.023c-.315,0-.433.092-.423.418.027.871.024,1.743.034,2.615a9.219,9.219,0,0,0-.02,1.137,1.452,1.452,0,0,1-1.114,1.72c-.738.244-1.438.6-2.153.913a1.67,1.67,0,0,0-1.056,1.283c-.2,1.074-.433,2.142-.641,3.215-.221,1.144-.216,1.149.919,1.143.646,0,1.51.225,1.881-.1.426-.375.091-1.259.142-1.92a2.079,2.079,0,0,1,.089-.654.917.917,0,0,1,1.092-.569,1,1,0,0,1,.831,1.126c0,2.034-.01,4.068.008,6.1A1.177,1.177,0,0,1,951.581,128.616Zm-17.592-22.492v-.048c-.716,0-1.436.045-2.146-.014-.563-.047-.764.144-.856.688-.228,1.342-.528,2.671-.785,4.008a3.676,3.676,0,0,1-2.241,2.808c-.55.245-1.1.493-1.661.707a.522.522,0,0,0-.4.584c.023,1.051.03,2.1,0,3.153-.013.433.143.525.54.516,1.1-.024,2.192.008,3.288-.012a6.257,6.257,0,0,1,4.262,1.5c.773.643,1.569,1.26,2.381,1.853a7.164,7.164,0,0,0,4.248,1.424c1.364.011,2.73-.021,4.093.021.5.015.689-.144.775-.622.244-1.362.539-2.715.8-4.074a3.665,3.665,0,0,1,2.24-2.807c.55-.244,1.1-.487,1.662-.7a.527.527,0,0,0,.4-.586c-.025-1.05-.03-2.1,0-3.153.013-.433-.141-.526-.539-.517-1.1.024-2.192-.007-3.288.012a6.238,6.238,0,0,1-4.262-1.5c-.651-.545-1.338-1.047-2-1.577a7.254,7.254,0,0,0-3.826-1.64A26.661,26.661,0,0,0,933.989,106.124Z" fill="#040303"/>
      <path id="Trazado_640430" data-name="Trazado 640430" d="M1026.7,107c-1.3.015-2.592.039-3.888.042-2.594.007-5.189,0-7.783,0a3.443,3.443,0,0,0-.733.049.908.908,0,0,0-.77,1.019.9.9,0,0,0,.816.913,4.553,4.553,0,0,0,.735.034q5.8,0,11.607,0c.267,0,.534.028.8.043a3.215,3.215,0,0,1,.009,2.673l-12.346.027c-.224,0-.448-.011-.671.006a.922.922,0,0,0-.949.929.942.942,0,0,0,.829,1.049,3.044,3.044,0,0,0,.668.032q5.3.016,10.6.028a2.881,2.881,0,0,1,.13,2.653l-10.466.03c-.2,0-.4,0-.6,0-.734.019-1.164.393-1.165,1.009s.417,1,1.161,1c2.528.007,5.055,0,7.583,0,.268,0,.535.019.8.028a3.683,3.683,0,0,1,.007,2.654c-.245.015-.49.042-.734.042-5.189,0-10.377-.013-15.566.013a4.922,4.922,0,0,1-3.27-1.131,17.337,17.337,0,0,0-4.3-2.938,10.125,10.125,0,0,0-3.861-.717c-2.974.016-5.949-.008-8.924.017-.527,0-.671-.133-.668-.665q.037-5.433,0-10.868c0-.583.185-.687.719-.68,2.169.03,4.339-.006,6.508.023a1.2,1.2,0,0,0,1.373-.982l2.358-.007a1.1,1.1,0,0,0,1.279.985q2.246-.031,4.492,0a1.207,1.207,0,0,0,1.272-.862c.311-.788.673-1.555,1-2.338a1.751,1.751,0,0,1,1.382-1.128q1.874-.356,3.739-.76c.441-.1.6.006.572.478a19.772,19.772,0,0,0,0,2.078c.022.428-.132.552-.534.515a5.149,5.149,0,0,0-.938,0,1,1,0,0,0,.021,2c.2.016.4.007.6.007q8.081,0,16.161,0c.268,0,.535.017.8.026.093.267.166.543.283.8C1027.14,105.8,1026.644,106.377,1026.7,107Z" transform="translate(-59.854 -12.447)" fill="#e79886"/>
      <path id="Trazado_640431" data-name="Trazado 640431" d="M934.068,118.861c-.141.767-.251,1.54-.434,2.3a1.589,1.589,0,0,1-1.034,1.065c-.782.326-1.55.684-2.339.992a1.256,1.256,0,0,0-.887,1.331c.023,1.3-.006,2.593.014,3.889.007.407-.063.583-.537.581-3.845-.012-7.689,0-11.534.017-.241,0-.415-.018-.492-.31a12.5,12.5,0,0,0-2.977-4.871,5.378,5.378,0,0,1-1.426-4.105c.076-1,.017-2.011.013-3.016,0-.879-.194-1.119-1.06-1.357q0-1.187-.007-2.374c.812-.159,1.065-.446,1.066-1.264q.007-4.429,0-8.859a6.013,6.013,0,0,1,.011-.6A1.378,1.378,0,0,1,913.833,101a1.311,1.311,0,0,1,1.305,1.337c.024.872.008,1.745.009,2.617,0,2.461-.007,4.922.006,7.382a1.037,1.037,0,0,0,1.05,1.139c.572-.025.94-.465.959-1.15,0-.179,0-.358,0-.537V100.444c0-.157,0-.313,0-.47.016-1,.557-1.649,1.37-1.657.835-.008,1.368.606,1.369,1.633q.011,5.906,0,11.812c0,.224-.008.448.008.671a1,1,0,1,0,2-.011c.03-.67.01-1.342.01-2.013q0-6.107,0-12.214c0-.881.322-1.415.936-1.6a1.374,1.374,0,0,1,1.788,1.418c.019,1.454.005,2.908.005,4.362q0,4.9,0,9.8c0,.834.375,1.312,1.008,1.306s1-.488,1.005-1.321q0-6.409,0-12.819c0-.2-.008-.4.006-.6a1.381,1.381,0,0,1,1.344-1.322,1.409,1.409,0,0,1,1.345,1.259,6.858,6.858,0,0,1,.016.738q0,9.362,0,18.725c0,.157,0,.313,0,.47.016.735.32,1.153.887,1.218.591.068.938-.219,1.151-.953Z" transform="translate(-5.487 -10.487)" fill="#f4cdc0"/>
      <path id="Trazado_640432" data-name="Trazado 640432" d="M1093.7,92.438c-2.787.009-5.575.012-8.363.034-.359,0-.387-.153-.385-.44.016-2.1.019-4.192.026-6.288l8.729.01Z" transform="translate(-132.367 -2.608)" fill="#f9dfd1"/>
      <path id="Trazado_640433" data-name="Trazado 640433" d="M945.222,304.279q0,2.144.008,4.288l-12.109-.007c-.038-1.428-.067-2.857.015-4.285Z" transform="translate(-21.36 -162.338)" fill="#f6cec2"/>
      <path id="Trazado_640434" data-name="Trazado 640434" d="M1117.467,92.457l.007-6.682,3.378,0c.01,2.1.016,4.2.036,6.295,0,.31-.071.435-.408.425C1119.476,92.462,1118.472,92.466,1117.467,92.457Z" transform="translate(-156.131 -2.627)" fill="#f6cec2"/>
      <path id="Trazado_640435" data-name="Trazado 640435" d="M952.871,241.668c-4.34.009-8.68.049-13.019,0a1.7,1.7,0,0,0-1.949,1.29,21.391,21.391,0,0,1-.862,2.034,1.609,1.609,0,0,1-1.19.988c-1.311.276-2.628.527-3.939.8-.382.08-.523-.027-.509-.43.026-.715.024-1.432,0-2.147-.012-.371.094-.539.487-.5a3.918,3.918,0,0,0,.8-.007,1,1,0,0,0,.927-1.046.967.967,0,0,0-.949-.951c-.222-.019-.447-.008-.671-.008q-8.994,0-17.988,0c-1.057,0-1.709-.532-1.711-1.376a1.286,1.286,0,0,1,1.107-1.309,5.546,5.546,0,0,1,.8-.032q6.309,0,12.619,0a2.222,2.222,0,0,0,.862-.094.936.936,0,0,0,.624-1,.876.876,0,0,0-.7-.87,4.172,4.172,0,0,0-.932-.076q-6.712-.006-13.424,0c-1.227,0-1.858-.452-1.867-1.332s.67-1.392,1.9-1.392h13.558a4.644,4.644,0,0,0,.6-.013.912.912,0,0,0,.862-.873.944.944,0,0,0-.651-1.05,2.012,2.012,0,0,0-.795-.079q-6.108,0-12.216,0a1.377,1.377,0,0,1-1.478-1.32,1.423,1.423,0,0,1,1.444-1.38c.2-.01.4,0,.6,0h10.068c.6,0,1.208.006,1.812,0,.791-.01,1.225-.378,1.221-1.022s-.424-.99-1.237-.992q-4.732-.006-9.464,0a2.147,2.147,0,0,1-.922-.122,1.334,1.334,0,0,1,.241-2.547,3.467,3.467,0,0,1,.8-.049c5.794,0,11.589.013,17.384-.013a4.65,4.65,0,0,1,3.2,1.123c.644.553,1.327,1.062,2,1.58a9.606,9.606,0,0,0,6.033,2.072c2.169-.006,4.339.016,6.508.025Q952.87,235.6,952.871,241.668Z" transform="translate(-5.502 -104.197)" fill="#ba7260"/>
      <path id="Trazado_640436" data-name="Trazado 640436" d="M1084.644,212.45c-.945.073-1.226.361-1.227,1.292q0,5.97,0,11.941a3.877,3.877,0,0,1-.049.8,1.365,1.365,0,0,1-1.443,1.132,1.327,1.327,0,0,1-1.227-1.283c-.042-.534-.021-1.072-.022-1.609q0-5.333,0-10.666a6.127,6.127,0,0,0-.018-.67.991.991,0,0,0-1.973-.027,4.419,4.419,0,0,0-.025.669q0,6.675,0,13.35c0,.224.007.448-.008.671a1.357,1.357,0,1,1-2.713-.026c-.027-1.117-.008-2.236-.008-3.354q0-5.5,0-11c0-.733-.377-1.187-.97-1.207a1.037,1.037,0,0,0-1.039,1.146c-.014,1.14,0,2.281,0,3.421q0,5,0,10a1.348,1.348,0,0,1-2.551.734,1.979,1.979,0,0,1-.157-.98q0-4.193,0-8.385c0-.84-.2-1.093-1.01-1.337q0-1.179,0-2.359a1.177,1.177,0,0,0,1.018-1.341c-.019-2.034,0-4.068-.008-6.1a1,1,0,0,0-.832-1.126.917.917,0,0,0-1.092.569,2.077,2.077,0,0,0-.089.654c-.052.661.284,1.545-.142,1.92-.371.326-1.235.1-1.881.1-1.135.006-1.14,0-.919-1.143.208-1.073.437-2.142.641-3.215a1.67,1.67,0,0,1,1.056-1.283c.716-.31,1.416-.668,2.153-.913a1.452,1.452,0,0,0,1.114-1.72,9.219,9.219,0,0,1,.02-1.137c3.262,0,6.524.015,9.786-.015a1.458,1.458,0,0,1,1.381.722c.339.519.769.978,1.142,1.476a4.747,4.747,0,0,1,1.114,2.936C1084.631,207.536,1084.644,209.993,1084.644,212.45Z" transform="translate(-118.606 -86.08)" fill="#f7ded0"/>
      <path id="Trazado_640437" data-name="Trazado 640437" d="M1098.4,204.19c0-2.457-.013-4.915.006-7.372a4.748,4.748,0,0,0-1.113-2.936c-.374-.5-.8-.957-1.142-1.476a1.458,1.458,0,0,0-1.381-.722c-3.262.03-6.524.014-9.786.015-.009-.872-.007-1.744-.034-2.615-.01-.326.109-.418.423-.418q5.839,0,11.679-.023c.212,0,.376.009.447.277a12.429,12.429,0,0,0,2.971,4.88,5.888,5.888,0,0,1,1.455,4.17c-.064,5.637-.024,11.275-.026,16.912a2.194,2.194,0,0,1-.109.923,1.367,1.367,0,0,1-1.506.856,1.343,1.343,0,0,1-1.09-1.408c-.009-3.221-.015-6.443,0-9.664A1.321,1.321,0,0,0,1098.4,204.19Z" transform="translate(-132.361 -77.819)" fill="#f4cdc0"/>
      <path id="Trazado_640438" data-name="Trazado 640438" d="M1069.765,245.753q0,1.18,0,2.359c-.84.242-1,.445-1,1.322,0,1.518-.027,3.036.013,4.553.015.552-.171.683-.682.657-.846-.044-1.695-.027-2.543-.036q0-6.068,0-12.136c.914-.01,1.829,0,2.742-.036.4-.014.492.161.476.517-.022.49-.008.981,0,1.472C1068.77,245.3,1068.912,245.485,1069.765,245.753Z" transform="translate(-118.184 -117.137)" fill="#ab6152"/>
      <path id="Trazado_640439" data-name="Trazado 640439" d="M945.034,297.418l-12.086,0a.512.512,0,0,1-.034-.129c.006-.737-.256-1.677.1-2.153.342-.455,1.34-.133,2.047-.136,3.133-.015,6.265.007,9.4-.02.516,0,.655.141.614.633C945.024,296.209,945.044,296.814,945.034,297.418Z" transform="translate(-21.172 -155.476)" fill="#f1b2a2"/>
      <path id="Trazado_640440" data-name="Trazado 640440" d="M1140.864,138.459a3.215,3.215,0,0,0-.009-2.673,5.691,5.691,0,0,1,1.734-.032,1.347,1.347,0,0,1,1.243,1.347,1.372,1.372,0,0,1-1.3,1.374C1141.982,138.515,1141.422,138.468,1140.864,138.459Z" transform="translate(-173.226 -39.124)" fill="#c17769"/>
      <path id="Trazado_640441" data-name="Trazado 640441" d="M988.458,173.278l-2.649,0c-.008-.624,0-1.249-.027-1.873-.011-.3.065-.445.4-.437q1.171.029,2.343,0c.332-.008.432.089.349.421C988.721,172.018,988.6,172.649,988.458,173.278Z" transform="translate(-59.877 -64.903)" fill="#edb0a0"/>
      <path id="Trazado_640442" data-name="Trazado 640442" d="M1124.442,173.783a3.683,3.683,0,0,0-.007-2.654c.513-.01,1.027-.043,1.539-.023a1.347,1.347,0,1,1,.071,2.694C1125.513,173.835,1124.976,173.791,1124.442,173.783Z" transform="translate(-161.224 -64.996)" fill="#d58373"/>
      <path id="Trazado_640443" data-name="Trazado 640443" d="M1134.072,156.223a2.882,2.882,0,0,0-.13-2.653c.556-.008,1.112-.035,1.668-.021a1.364,1.364,0,0,1,1.38,1.338,1.391,1.391,0,0,1-1.317,1.349C1135.141,156.27,1134.606,156.23,1134.072,156.223Z" transform="translate(-168.173 -52.165)" fill="#d98372"/>
      <path id="Trazado_640444" data-name="Trazado 640444" d="M1137.554,120.891c-.053-.626.443-1.206.143-1.857-.118-.256-.19-.532-.283-.8.531-.009,1.065-.046,1.594-.019a1.382,1.382,0,0,1,1.391,1.4,1.322,1.322,0,0,1-1.387,1.309C1138.528,120.943,1138.04,120.9,1137.554,120.891Z" transform="translate(-170.71 -26.336)" fill="#d58373"/>
    </g>
  </g>
</svg>
