<svg xmlns="http://www.w3.org/2000/svg" width="102" height="102" viewBox="0 0 102 102">
  <g id="Grupo_974511" data-name="Grupo 974511" transform="translate(-1065 -11599.627)">
    <circle id="Elipse_7777" data-name="Elipse 7777" cx="51" cy="51" r="51" transform="translate(1065 11599.627)" fill="#449c6e"/>
    <g id="Grupo_982377" data-name="Grupo 982377" transform="translate(664.963 11038.791)">
      <path id="Trazado_641418" data-name="Trazado 641418" d="M485.824,611.841c0,8.741-.027,17.483.023,26.224a4.468,4.468,0,0,1-2.009,3.916,18.882,18.882,0,0,1-6.74,2.8,74.734,74.734,0,0,1-20.323,1.769,66.627,66.627,0,0,1-13.261-1.627,20.291,20.291,0,0,1-7.346-2.957,4.3,4.3,0,0,1-1.988-3.922c.084-1.749-.019-3.506.038-5.258.022-.675-.21-.771-.809-.769-5.494.022-10.988.006-16.482.024-.512,0-.7-.08-.7-.662q.034-12.516,0-25.032a1.316,1.316,0,0,1,.438-1.029q4.405-4.371,8.779-8.775a1.305,1.305,0,0,1,1.034-.427c2.384.021,4.769,0,7.154.021.459,0,.576-.117.573-.574-.02-3.342.035-6.686-.031-10.026a4.3,4.3,0,0,1,1.891-3.76,17.47,17.47,0,0,1,6.307-2.744,74.229,74.229,0,0,1,21.143-1.9,65.444,65.444,0,0,1,13.526,1.738,23.684,23.684,0,0,1,5.443,1.967,8.976,8.976,0,0,1,2.109,1.491,3.9,3.9,0,0,1,1.236,2.936Q485.808,598.553,485.824,611.841ZM434.2,614.114c0-5.047-.007-10.094.012-15.142,0-.485-.107-.624-.607-.615q-2.769.049-5.539,0c-.492-.008-.616.118-.611.61.027,2.594,0,5.188.025,7.781.005.495-.122.615-.612.61-2.571-.027-5.142.006-7.713-.027-.555-.007-.68.144-.679.685q.029,10.55,0,21.1c0,.549.137.683.683.68q7.187-.034,14.374,0c.55,0,.683-.139.68-.683C434.189,624.115,434.2,619.114,434.2,614.114Zm25.877-23.59a69.211,69.211,0,0,0,16.657-1.845,16.391,16.391,0,0,0,5.967-2.471c1.174-.881,1.163-1.689.022-2.595a10.83,10.83,0,0,0-3.229-1.637,52.6,52.6,0,0,0-14.427-2.531,80.8,80.8,0,0,0-15.871.556,37.75,37.75,0,0,0-10.005,2.518A7.09,7.09,0,0,0,437,583.877a1.226,1.226,0,0,0-.016,2.045,5.841,5.841,0,0,0,1.553,1.064,23.48,23.48,0,0,0,4.8,1.707A70.468,70.468,0,0,0,460.076,590.524ZM436.444,615.3c0,3.255.013,6.431-.011,9.607a1.86,1.86,0,0,0,.756,1.563,11.9,11.9,0,0,0,3.792,1.908,52.65,52.65,0,0,0,11.8,2.246c.523.053.5-.2.5-.554q-.01-4.557,0-9.114c0-1.556,0-1.519-1.554-1.679C446.465,618.731,441.261,617.963,436.444,615.3Zm0,13.465c0,3.254.015,6.429-.012,9.6a1.913,1.913,0,0,0,.787,1.622,10.456,10.456,0,0,0,2.952,1.566,50.542,50.542,0,0,0,12.65,2.529c.48.047.462-.183.461-.516-.007-3.362-.015-6.724.008-10.086,0-.494-.15-.594-.616-.641C447.1,632.274,441.555,631.584,436.444,628.761Zm0-26.986v.72c0,2.968.016,5.936-.012,8.9a1.918,1.918,0,0,0,.777,1.626,10.451,10.451,0,0,0,2.946,1.585,49.434,49.434,0,0,0,12.66,2.545c.467.046.468-.171.467-.514-.008-3.365-.017-6.731.008-10.1,0-.5-.161-.595-.622-.635a57.731,57.731,0,0,1-10.687-1.8A20.868,20.868,0,0,1,436.444,601.775Zm0-13.418c0,3.015.1,5.935-.039,8.843a2.977,2.977,0,0,0,1.877,3.087c.229.116.452.242.686.347,4.439,1.977,9.179,2.582,13.946,3.062.359.036.366-.143.365-.406q-.007-5.186,0-10.373c0-.336-.114-.417-.436-.45-1.626-.165-3.256-.31-4.87-.558C444,591.3,440.079,590.512,436.444,588.357Zm30.3,14.449c.252.049.392-.1.552-.177,1.007-.5,1.005-.5,1.823.309.259.257.468.533.935.466a51.542,51.542,0,0,0,8.149-1.672,14.291,14.291,0,0,0,4.482-2.079,2.088,2.088,0,0,0,.91-1.846c-.048-2.335-.017-4.673-.017-7.009v-2.459a17.389,17.389,0,0,1-3.273,1.6,47.475,47.475,0,0,1-11.832,2.4c-1.725.162-1.727.134-1.727,1.862v8.6Zm16.833,25.961c-.623.328-1.144.628-1.686.883a30.414,30.414,0,0,1-8.859,2.467,5.535,5.535,0,0,0-3.818,1.946c-.819.99-.893.926-2.086.352-.108-.052-.218-.2-.384-.044,0,3.066.013,6.149-.013,9.231,0,.5.2.51.578.472a57.214,57.214,0,0,0,10.395-1.81,15,15,0,0,0,5.02-2.225,1.764,1.764,0,0,0,.856-1.442C483.575,635.351,483.578,632.1,483.578,628.767Zm-25.629-27v-.035c-.654,0-1.31.02-1.963-.008-.371-.016-.478.1-.472.472.021,1.238.026,2.477,0,3.715-.01.429.141.509.525.446a11.5,11.5,0,0,1,3.35-.025,12.326,12.326,0,0,1-3.2,24.443c-.478-.056-.711-.034-.683.563.054,1.143.039,2.29,0,3.434-.014.473.089.654.6.63.956-.044,1.916-.013,2.874-.013,1.33,0,1.4.016,1.706-1.264a1.992,1.992,0,0,1,1.776-1.794,2.35,2.35,0,0,0,1.04-.393,2.926,2.926,0,0,1,3.9.083c.318.251.56.161.835-.128.773-.813,1.58-1.592,2.373-2.385.854-.853.92-.894.268-1.94a2.068,2.068,0,0,1-.017-2.649,2.217,2.217,0,0,0,.446-1.017,2.849,2.849,0,0,1,2.78-2.636c.463-.061.518-.34.511-.737-.02-1.215-.049-2.432.009-3.644.032-.672-.149-1.039-.84-1.139a2.342,2.342,0,0,1-2.33-2.186,1.491,1.491,0,0,0-.278-.712,2.964,2.964,0,0,1,.079-3.958c.233-.3.147-.526-.12-.777-.612-.576-1.19-1.189-1.791-1.778-.481-.472-.914-1.2-1.48-1.327-.614-.141-1.231.542-1.87.816a1.043,1.043,0,0,0-.183.1.645.645,0,0,1-.773,0,13.615,13.615,0,0,0-3.416-1.416.777.777,0,0,1-.61-.575c-.231-.729-.223-1.751-.793-2.1S458.719,601.771,457.949,601.771Zm18.943,13.811a16.2,16.2,0,0,0,6.023-2.657,1.816,1.816,0,0,0,.674-1.533c-.026-2.966-.011-5.933-.011-8.9v-.673c-3.713,2.19-7.766,2.909-12.008,3.649.406.372.72.642,1.012.933.53.526,1.339.993,1.491,1.616.163.667-.544,1.374-.911,2.038a1.974,1.974,0,0,0-.074,1.666,3.01,3.01,0,0,0,2.582,2.306C476.8,614.279,476.785,614.366,476.893,615.582Zm6.686-.328a21.154,21.154,0,0,1-6.3,2.541c-.4.1-.439.292-.435.631.015,1.261-.015,2.523.018,3.784a.608.608,0,0,1-.537.717c-.719.195-1.419.458-2.133.674a.719.719,0,0,0-.516.408c-.973,2.123-.983,2.124.1,4.2.266.512.662,1-.112,1.509a30.364,30.364,0,0,0,6.164-1.6,10.254,10.254,0,0,0,2.994-1.636,1.737,1.737,0,0,0,.769-1.346C483.575,621.885,483.579,618.639,483.579,615.254Zm-28.056,3.279c0,1.539.014,3.079-.01,4.618a.641.641,0,0,0,.5.746,5.615,5.615,0,0,0,6.279-2.04,5.607,5.607,0,0,0-6.284-8.62.6.6,0,0,0-.5.678C455.542,615.454,455.522,616.994,455.522,618.533Zm12.345-.093a7.873,7.873,0,0,0-.137-1.513,10.148,10.148,0,0,0-10.723-8.432c-1.486.149-1.486.149-1.486,1.607a4.193,4.193,0,0,1,0,.42c-.04.391.047.536.5.413a7.339,7.339,0,0,1,3.122-.1,7.854,7.854,0,0,1-2.093,15.554c-.5-.056-1.2-.433-1.426-.149-.265.337-.057,1.026-.106,1.557-.044.47.135.639.591.717A10.135,10.135,0,0,0,467.867,618.44ZM464.5,603.132c0-3.408-.007-6.762.007-10.115,0-.483-.294-.371-.554-.357a65.688,65.688,0,0,1-7.841-.013c-.529-.035-.606.141-.6.609q.037,2.836,0,5.673c-.006.458.118.581.575.574,1.774-.027,3.55,0,5.324-.022a.609.609,0,0,1,.717.533c.194.718.457,1.417.673,2.13.071.234.144.431.4.519C463.619,602.8,464.027,602.959,464.5,603.132Zm0,30.922c-1.1.166-1.849.622-1.986,1.8a12.3,12.3,0,0,1-.388,1.266c-.095.41-.29.539-.717.532-1.8-.027-3.6-.006-5.4-.017-.321,0-.506.016-.5.432.023,1.915.017,3.83,0,5.745,0,.321.075.435.419.453a78.819,78.819,0,0,0,8.125,0c.385-.019.448-.159.447-.5C464.5,640.548,464.5,637.326,464.5,634.054Zm-39.28-33.8-4.849,4.843c1.4,0,2.916,0,4.429,0,.27,0,.43-.033.426-.369C425.212,603.2,425.22,601.67,425.22,600.258Z" fill="#020201"/>
      <path id="Trazado_641419" data-name="Trazado 641419" d="M439.947,668.582c0,5-.009,10,.013,15,0,.544-.13.686-.68.683q-7.187-.035-14.374,0c-.545,0-.684-.131-.683-.68q.03-10.55,0-21.1c0-.541.124-.692.679-.685,2.57.032,5.142,0,7.713.027.49.005.618-.115.612-.61-.027-2.593,0-5.187-.025-7.781-.005-.493.119-.619.611-.61q2.769.048,5.539,0c.5-.009.609.13.607.615C439.94,658.487,439.947,663.534,439.947,668.582Zm-7.818,4.451c-1.706,0-3.412.015-5.118-.011-.429-.006-.546.1-.542.537q.034,3.96,0,7.92c0,.43.1.543.537.541q5.083-.03,10.166,0c.429,0,.546-.1.542-.536q-.034-3.96,0-7.92c0-.43-.1-.549-.537-.541C435.494,673.05,433.812,673.033,432.129,673.033Zm-.073-6.732h4c1.664,0,1.642,0,1.665-1.646.007-.493-.121-.614-.612-.61-2.991.025-5.982.012-8.972.012-1.682,0-1.664,0-1.664,1.717,0,.434.108.545.541.538C428.691,666.285,430.374,666.3,432.056,666.3Zm.036,2.244h-3.925c-1.708,0-1.689,0-1.7,1.682,0,.459.121.576.576.573,2.991-.021,5.981-.011,8.972-.011,1.733,0,1.719,0,1.7-1.752-.005-.4-.11-.506-.5-.5C435.5,668.557,433.8,668.545,432.092,668.545Zm4.517-13.464c-1.151,0-1.151,0-1.151,1.163,0,1.081,0,1.081,1.093,1.081,1.151,0,1.151,0,1.151-1.163C437.7,655.081,437.7,655.081,436.609,655.081Zm1.094,5.639c0-1.151,0-1.151-1.164-1.151-1.081,0-1.081,0-1.081,1.093,0,1.151,0,1.151,1.163,1.151C437.7,661.814,437.7,661.814,437.7,660.72Z" transform="translate(-5.749 -54.468)" fill="#e5e8eb"/>
      <path id="Trazado_641420" data-name="Trazado 641420" d="M511.788,596.217a70.468,70.468,0,0,1-16.739-1.831,23.478,23.478,0,0,1-4.8-1.708,5.839,5.839,0,0,1-1.553-1.064,1.226,1.226,0,0,1,.016-2.044,7.091,7.091,0,0,1,2.187-1.357,37.755,37.755,0,0,1,10.005-2.518,80.809,80.809,0,0,1,15.871-.556,52.6,52.6,0,0,1,14.427,2.531,10.833,10.833,0,0,1,3.229,1.637c1.141.906,1.151,1.714-.022,2.595a16.392,16.392,0,0,1-5.967,2.471A69.214,69.214,0,0,1,511.788,596.217Zm-.135-2.252q6.137,0,12.274,0a2.244,2.244,0,0,0,2.384-2.365c.008-.631,0-1.262,0-1.893a2.262,2.262,0,0,0-2.491-2.469q-3.542-.006-7.084,0-8.592,0-17.184,0a2.252,2.252,0,0,0-2.418,2.4c-.005.584,0,1.169,0,1.753a2.29,2.29,0,0,0,2.6,2.577Q505.692,593.967,511.653,593.965Z" transform="translate(-51.712 -5.693)" fill="#f9e7ad"/>
      <path id="Trazado_641421" data-name="Trazado 641421" d="M488.127,713.09c4.817,2.667,10.021,3.435,15.279,3.976,1.55.16,1.554.122,1.554,1.679q0,4.557,0,9.115c0,.356.026.607-.5.554a52.648,52.648,0,0,1-11.8-2.246,11.9,11.9,0,0,1-3.792-1.908,1.86,1.86,0,0,1-.756-1.563C488.14,719.521,488.127,716.345,488.127,713.09Z" transform="translate(-51.683 -97.794)" fill="#f4d57e"/>
      <path id="Trazado_641422" data-name="Trazado 641422" d="M488.124,760.995c5.111,2.823,10.657,3.513,16.23,4.076.466.047.619.147.616.641-.024,3.362-.015,6.724-.008,10.086,0,.333.019.564-.461.516a50.544,50.544,0,0,1-12.65-2.529,10.455,10.455,0,0,1-2.952-1.566,1.912,1.912,0,0,1-.787-1.622C488.139,767.424,488.124,764.249,488.124,760.995Z" transform="translate(-51.68 -132.234)" fill="#f4d57e"/>
      <path id="Trazado_641423" data-name="Trazado 641423" d="M488.123,664.985a20.868,20.868,0,0,0,5.537,2.335,57.731,57.731,0,0,0,10.687,1.8c.461.04.626.133.622.635-.025,3.365-.016,6.731-.008,10.1,0,.343,0,.56-.467.514a49.441,49.441,0,0,1-12.66-2.545,10.453,10.453,0,0,1-2.946-1.585,1.918,1.918,0,0,1-.777-1.626c.028-2.968.012-5.936.012-8.9Z" transform="translate(-51.679 -63.21)" fill="#f4d57e"/>
      <path id="Trazado_641424" data-name="Trazado 641424" d="M488.041,617.246c3.635,2.155,7.56,2.943,11.533,3.552,1.614.247,3.244.393,4.87.558.322.033.437.114.436.45q-.016,5.186,0,10.373c0,.264-.006.442-.365.406-4.768-.48-9.508-1.084-13.946-3.062-.234-.1-.458-.23-.686-.346A2.977,2.977,0,0,1,488,626.089C488.138,623.181,488.041,620.261,488.041,617.246Z" transform="translate(-51.597 -28.889)" fill="#f4d57e"/>
      <path id="Trazado_641425" data-name="Trazado 641425" d="M595.959,631.65v-8.6c0-1.728,0-1.7,1.727-1.862a47.478,47.478,0,0,0,11.833-2.4,17.391,17.391,0,0,0,3.273-1.6v2.459c0,2.336-.031,4.674.017,7.009a2.088,2.088,0,0,1-.91,1.846,14.293,14.293,0,0,1-4.482,2.078,51.54,51.54,0,0,1-8.149,1.672c-.468.067-.677-.209-.935-.466-.817-.812-.815-.811-1.822-.309C596.351,631.552,596.211,631.7,595.959,631.65Z" transform="translate(-129.214 -28.844)" fill="#f4d57e"/>
      <path id="Trazado_641426" data-name="Trazado 641426" d="M612.759,761.016c0,3.338,0,6.584,0,9.83a1.763,1.763,0,0,1-.856,1.442,15.005,15.005,0,0,1-5.02,2.225,57.221,57.221,0,0,1-10.395,1.81c-.379.038-.582.026-.578-.472.026-3.082.013-6.165.013-9.231.166-.158.276-.008.384.044,1.193.574,1.267.638,2.086-.352a5.535,5.535,0,0,1,3.818-1.946,30.415,30.415,0,0,0,8.859-2.467C611.615,761.644,612.136,761.344,612.759,761.016Z" transform="translate(-129.18 -132.249)" fill="#f4d57e"/>
      <path id="Trazado_641427" data-name="Trazado 641427" d="M558.412,664.716c.77,0,1.7-.266,2.264.074s.562,1.367.793,2.1a.777.777,0,0,0,.61.575,13.612,13.612,0,0,1,3.416,1.416.645.645,0,0,0,.773,0,1.05,1.05,0,0,1,.183-.1c.639-.273,1.256-.957,1.87-.816.566.13,1,.854,1.48,1.327.6.589,1.178,1.2,1.791,1.778.266.251.353.478.12.777a2.964,2.964,0,0,0-.079,3.958,1.492,1.492,0,0,1,.278.712,2.342,2.342,0,0,0,2.33,2.187c.691.1.872.467.84,1.139-.058,1.213-.029,2.43-.009,3.644.007.4-.048.676-.511.737a2.849,2.849,0,0,0-2.779,2.636,2.218,2.218,0,0,1-.446,1.018,2.068,2.068,0,0,0,.017,2.649c.651,1.045.585,1.087-.268,1.94-.794.793-1.6,1.573-2.373,2.385-.275.289-.517.379-.834.128a2.926,2.926,0,0,0-3.9-.083,2.348,2.348,0,0,1-1.04.393,1.992,1.992,0,0,0-1.776,1.794c-.308,1.28-.375,1.264-1.706,1.264-.958,0-1.918-.031-2.874.013-.514.023-.617-.157-.6-.63.034-1.144.049-2.292,0-3.434-.028-.6.205-.619.683-.563a12.326,12.326,0,0,0,3.2-24.443,11.5,11.5,0,0,0-3.35.025c-.383.063-.534-.017-.525-.446.027-1.238.023-2.477,0-3.715-.006-.368.1-.489.472-.472.653.028,1.309.008,1.963.008Z" transform="translate(-100.462 -62.946)" fill="#a9cf75"/>
      <path id="Trazado_641428" data-name="Trazado 641428" d="M618.448,678.908c-.108-1.216-.089-1.3-1.221-1.553a3.01,3.01,0,0,1-2.582-2.306,1.974,1.974,0,0,1,.074-1.666c.367-.663,1.074-1.371.911-2.038-.152-.623-.961-1.091-1.491-1.616-.293-.291-.606-.56-1.012-.933,4.242-.74,8.3-1.459,12.008-3.65v.673c0,2.966-.015,5.933.011,8.9a1.816,1.816,0,0,1-.675,1.533A16.193,16.193,0,0,1,618.448,678.908Z" transform="translate(-141.555 -63.326)" fill="#f4d57e"/>
      <path id="Trazado_641429" data-name="Trazado 641429" d="M628.66,712.94c0,3.385,0,6.631,0,9.876a1.737,1.737,0,0,1-.769,1.346A10.253,10.253,0,0,1,624.9,725.8a30.362,30.362,0,0,1-6.164,1.6c.773-.513.377-1,.112-1.509-1.078-2.076-1.068-2.077-.095-4.2a.719.719,0,0,1,.516-.408c.714-.216,1.414-.479,2.133-.674a.608.608,0,0,0,.537-.717c-.033-1.261,0-2.523-.018-3.784,0-.338.04-.529.435-.631A21.154,21.154,0,0,0,628.66,712.94Z" transform="translate(-145.081 -97.686)" fill="#f4d57e"/>
      <path id="Trazado_641430" data-name="Trazado 641430" d="M568.272,698.726A10.135,10.135,0,0,1,556.509,708.8c-.456-.079-.635-.248-.591-.717.049-.531-.159-1.22.106-1.557.223-.284.93.093,1.426.149a7.854,7.854,0,0,0,2.093-15.554,7.339,7.339,0,0,0-3.123.1c-.45.123-.536-.022-.5-.413a4.193,4.193,0,0,0,0-.42c0-1.458,0-1.458,1.485-1.607a10.148,10.148,0,0,1,10.723,8.432A7.879,7.879,0,0,1,568.272,698.726Z" transform="translate(-100.405 -80.286)" fill="#b9d787"/>
      <path id="Trazado_641431" data-name="Trazado 641431" d="M564.979,642.974c-.473-.173-.881-.331-1.3-.47-.259-.087-.332-.284-.4-.519-.216-.713-.479-1.412-.673-2.13a.609.609,0,0,0-.717-.533c-1.774.027-3.55,0-5.324.023-.457.007-.582-.116-.575-.574q.04-2.836,0-5.673c-.006-.467.071-.644.6-.609a65.65,65.65,0,0,0,7.841.013c.26-.014.557-.126.554.357C564.972,636.212,564.979,639.566,564.979,642.974Z" transform="translate(-100.479 -39.842)" fill="#fae8ae"/>
      <path id="Trazado_641432" data-name="Trazado 641432" d="M564.982,779.827c0,3.271,0,6.494.006,9.716,0,.339-.062.478-.447.5a78.819,78.819,0,0,1-8.125,0c-.343-.018-.421-.133-.419-.453.013-1.915.019-3.831,0-5.745-.005-.416.18-.434.5-.432,1.8.011,3.6-.01,5.4.017.427.006.623-.122.717-.532a12.3,12.3,0,0,0,.388-1.266C563.133,780.449,563.885,779.993,564.982,779.827Z" transform="translate(-100.482 -145.773)" fill="#fae8ae"/>
      <path id="Trazado_641433" data-name="Trazado 641433" d="M435.82,659.587c0,1.413-.008,2.945.006,4.478,0,.337-.157.371-.426.369-1.512-.008-3.025,0-4.429,0Z" transform="translate(-10.6 -59.329)" fill="#ee8774"/>
      <path id="Trazado_641434" data-name="Trazado 641434" d="M437.874,724.692c1.683,0,3.366.017,5.048-.011.438-.007.541.112.537.541q-.032,3.96,0,7.92c0,.438-.113.538-.542.536q-5.083-.028-10.166,0c-.437,0-.54-.111-.537-.541q.032-3.96,0-7.92c0-.438.112-.543.542-.537C434.461,724.707,436.167,724.692,437.874,724.692Zm.035,2.244c-1,0-2.006.012-3.009-.007-.331-.006-.442.089-.437.43q.027,1.818,0,3.638c-.005.334.1.437.432.434q2.939-.021,5.878,0c.33,0,.442-.089.437-.43q-.027-1.818,0-3.638c0-.334-.1-.441-.432-.434C439.822,726.949,438.865,726.936,437.909,726.936Z" transform="translate(-11.493 -106.126)"/>
      <path id="Trazado_641435" data-name="Trazado 641435" d="M437.8,695c-1.682,0-3.365-.016-5.047.011-.433.007-.541-.1-.541-.538,0-1.717-.018-1.717,1.664-1.717,2.991,0,5.982.012,8.972-.012.491,0,.619.117.612.61-.023,1.646,0,1.646-1.665,1.646Z" transform="translate(-11.491 -83.166)"/>
      <path id="Trazado_641436" data-name="Trazado 641436" d="M437.835,708.731c1.706,0,3.411.012,5.117-.009.395,0,.5.1.5.5.022,1.753.036,1.752-1.7,1.752-2.991,0-5.981-.01-8.972.011-.456,0-.579-.114-.576-.573.01-1.682-.009-1.682,1.7-1.682Z" transform="translate(-11.491 -94.653)"/>
      <path id="Trazado_641437" data-name="Trazado 641437" d="M465.347,660.854c1.094,0,1.094,0,1.094,1.081,0,1.163,0,1.163-1.151,1.163-1.093,0-1.093,0-1.093-1.081C464.2,660.854,464.2,660.854,465.347,660.854Z" transform="translate(-34.486 -60.24)"/>
      <path id="Trazado_641438" data-name="Trazado 641438" d="M466.441,677.972c0,1.093,0,1.093-1.081,1.093-1.163,0-1.163,0-1.163-1.151,0-1.093,0-1.093,1.081-1.093C466.441,676.821,466.441,676.821,466.441,677.972Z" transform="translate(-34.486 -71.719)"/>
      <path id="Trazado_641439" data-name="Trazado 641439" d="M534.61,599.725q-5.962,0-11.924,0a2.29,2.29,0,0,1-2.6-2.577c0-.584,0-1.169,0-1.753a2.252,2.252,0,0,1,2.418-2.4q8.592-.007,17.184,0,3.542,0,7.084,0a2.262,2.262,0,0,1,2.491,2.469c0,.631.007,1.262,0,1.893a2.244,2.244,0,0,1-2.384,2.365Q540.747,599.734,534.61,599.725Zm-.007-2.244h10.859c1.568,0,1.537,0,1.579-1.534.016-.584-.14-.725-.724-.723q-11.209.032-22.418.014c-1.574,0-1.55,0-1.577,1.6-.009.525.127.656.652.652C526.85,597.471,530.727,597.482,534.6,597.482Z" transform="translate(-74.669 -11.454)" fill="#010100"/>
      <path id="Trazado_641440" data-name="Trazado 641440" d="M443.661,732.686c.957,0,1.913.013,2.869-.007.337-.007.437.1.432.434q-.026,1.819,0,3.638c.005.341-.107.432-.437.43q-2.939-.02-5.878,0c-.336,0-.437-.1-.432-.434q.026-1.818,0-3.638c-.005-.34.106-.436.437-.429C441.654,732.7,442.658,732.686,443.661,732.686Z" transform="translate(-17.245 -111.877)" fill="#bbda89"/>
      <path id="Trazado_641441" data-name="Trazado 641441" d="M540.312,603.187c-3.877,0-7.753-.011-11.63.013-.525,0-.661-.128-.652-.652.028-1.6,0-1.6,1.577-1.6q11.209,0,22.418-.014c.584,0,.739.139.724.724-.041,1.534-.011,1.534-1.579,1.534Z" transform="translate(-80.377 -17.159)" fill="#ee8774"/>
    </g>
  </g>
</svg>
