<svg xmlns="http://www.w3.org/2000/svg" width="102" height="102" viewBox="0 0 102 102">
  <g id="Grupo_974514" data-name="Grupo 974514" transform="translate(-1065 -11599.627)">
    <circle id="Elipse_7777" data-name="Elipse 7777" cx="51" cy="51" r="51" transform="translate(1065 11599.627)" fill="#449c6e"/>
    <g id="Grupo_982378" data-name="Grupo 982378" transform="translate(621.875 11044.524)">
      <path id="Trazado_641442" data-name="Trazado 641442" d="M489.735,603.557c-.917-.938-1.817-1.894-2.76-2.805-.355-.343-.506-.631-.173-1.053a2.069,2.069,0,0,0,.188-.345c1.227-2.376,1.222-2.374.144-4.8a.8.8,0,0,0-.571-.471c-.828-.249-1.642-.549-2.476-.775a.63.63,0,0,1-.542-.772c.041-.734-.033-1.476.025-2.208.047-.594-.193-.676-.71-.662-1.288.036-2.578.032-3.867,0a.943.943,0,0,0-1.018.591,3.687,3.687,0,0,1-4.6,1.692,3.78,3.78,0,0,1,1.524-7.314,3.6,3.6,0,0,1,3.141,2.053.727.727,0,0,0,.771.471q2.091-.039,4.183,0c.441.009.59-.107.568-.561-.037-.787.018-1.579-.021-2.367a.6.6,0,0,1,.524-.7c.831-.239,1.649-.522,2.473-.786.2-.063.417-.077.514-.31.351-.847.709-1.691,1.057-2.539.095-.232-.091-.4-.181-.579-.4-.8-.8-1.594-1.23-2.376a.478.478,0,0,1,.1-.677q3.053-3.029,6.083-6.082c.225-.227.414-.281.677-.094a3.308,3.308,0,0,0,.419.218,6.983,6.983,0,0,0,2.388,1.13,7.211,7.211,0,0,0,2.474-.89.813.813,0,0,0,.528-.615c.248-.856.542-1.7.8-2.552a.53.53,0,0,1,.6-.445q4.262.029,8.524,0a.531.531,0,0,1,.6.449c.253.827.522,1.65.791,2.472.243.742,2.82,1.787,3.518,1.429.747-.383,1.5-.755,2.234-1.161a.562.562,0,0,1,.806.115q2.963,3.008,5.971,5.971c.283.279.328.5.109.806-.06.084-.085.2-.149.276a3.9,3.9,0,0,0-.3,4.864c.174.279.291.5.644.6.859.235,1.7.539,2.553.8a.524.524,0,0,1,.441.609c-.03.841.01,1.684-.018,2.525-.013.388.117.483.489.478,1.447-.02,2.895-.04,4.34.009.519.017.575-.323.75-.627a3.781,3.781,0,1,1,3.138,5.654,3.563,3.563,0,0,1-3.166-2.007.834.834,0,0,0-.9-.516c-1.315.021-2.633.049-3.945-.01-.632-.028-.744.194-.705.749.047.681-.014,1.368.02,2.051.024.481-.073.751-.614.877-.814.189-1.6.5-2.4.754-.23.072-.434.128-.538.394-.3.781-.615,1.561-.965,2.323-.127.277,0,.455.1.656.392.771.773,1.551,1.2,2.3a.646.646,0,0,1-.161.933c-.96.932-1.879,1.9-2.815,2.861-1.012.99-2.041,1.964-3.026,2.98a.645.645,0,0,1-.937.139c-.727-.416-1.484-.782-2.231-1.163-.6-.3-3.218.753-3.428,1.389-.28.846-.552,1.695-.812,2.547a.534.534,0,0,1-.6.447q-4.258-.026-8.516,0a.535.535,0,0,1-.606-.446c-.259-.853-.552-1.7-.8-2.55a.814.814,0,0,0-.528-.616,7.258,7.258,0,0,0-2.475-.887,6.974,6.974,0,0,0-2.388,1.126,2.107,2.107,0,0,0-.276.151c-.36.256-.618.191-.937-.138C491.776,605.521,490.747,604.548,489.735,603.557Zm19.085-18.963v8.445c0,1.694,0,1.646,1.712,1.714.746.029.832-.234.828-.878-.027-4.525,0-9.05-.028-13.575,0-.569.105-.757.719-.743,2.051.045,4.1.039,6.156,0,.575-.01.74.112.736.722-.031,4.577-.022,9.155,0,13.732,0,.239-.266.712.3.706.423-.005,1.027.248,1.112-.489a2.921,2.921,0,0,1,2.878-2.7c.076-.011.145-.074.221-.082.429-.045.541-.285.532-.7-.026-1.21-.009-2.42-.009-3.63,0-1.573.014-1.628-1.5-2.02-1.055-.273-1.778-.719-1.916-1.9a2.89,2.89,0,0,0-.507-1.312,3.248,3.248,0,0,1,.128-4.314c.278-.355.2-.624-.131-.938-.99-.943-1.985-1.888-2.893-2.909-.552-.62-1.037-.776-1.7-.253a2.612,2.612,0,0,1-3.527.073,1.753,1.753,0,0,0-.789-.341,3.331,3.331,0,0,1-3.081-3.21c-.056-.427-.284-.541-.7-.532-1.262.025-2.526.009-3.788.009-1.42,0-1.51-.02-1.817,1.343a2.323,2.323,0,0,1-2.089,2.12,2.624,2.624,0,0,0-1.164.457,3.256,3.256,0,0,1-4.313-.128c-.356-.273-.626-.2-.939.133-.944.989-1.892,1.981-2.909,2.893-.612.548-.785,1.021-.262,1.705a2.524,2.524,0,0,1,.109,3.452,1.83,1.83,0,0,0-.37.862,3.337,3.337,0,0,1-3.214,3.08c-.428.057-.538.285-.532.7.023,1.42.055,2.843-.01,4.261-.034.732.157,1.117.908,1.23,1.452.218,2.517.881,2.666,2.5,0,.05.049.1.057.146.119.733.692.487,1.117.494.572.01.308-.463.309-.7q.028-5.643,0-11.285c0-.521.142-.653.652-.646,2.1.029,4.21.032,6.314,0,.538-.008.639.167.637.662-.02,3.446-.011,6.893-.011,10.339,0,1.645,0,1.611,1.681,1.661.673.02.868-.126.864-.842-.034-6.235-.012-12.47-.033-18.7,0-.548.125-.7.686-.694q3.117.055,6.235,0c.563-.01.69.149.685.7C508.806,578.333,508.82,581.464,508.82,584.595ZM505,597.258c-3.97,0-7.945.123-11.907-.056-1.764-.08-2.705.463-3.244,2.057-.139.413-.159.634.164.943.969.926,1.953,1.844,2.832,2.853.594.681,1.108.815,1.835.272a2.42,2.42,0,0,1,3.31-.1,2.1,2.1,0,0,0,1,.43,3.278,3.278,0,0,1,3,3.182c.066.495.358.542.776.534,1.209-.022,2.418-.008,3.628-.008,1.5,0,1.572.017,1.923-1.412.276-1.123.76-1.873,1.986-2.024a2.516,2.516,0,0,0,1.172-.433,3.333,3.333,0,0,1,4.449.1c.349.267.589.147.867-.145.706-.743,1.446-1.453,2.171-2.178,1.49-1.489,1.467-1.478.523-3.392a1.011,1.011,0,0,0-1.084-.63C513.94,597.266,509.47,597.258,505,597.258Zm-1.233-11.45V592.9c0,1.844,0,1.816,1.81,1.848.6.01.731-.157.729-.739-.024-5.042-.014-10.085-.014-15.127,0-1.862,0-1.841-1.889-1.845-.522,0-.651.149-.647.657C503.781,580.4,503.768,583.1,503.768,585.808Zm10.105,2.617v4.409c0,1.93,0,1.906,1.9,1.911.543,0,.636-.183.633-.67-.019-3.359-.01-6.719-.01-10.078,0-1.965,0-1.948-1.981-1.909-.466.009-.557.166-.553.589C513.884,584.593,513.873,586.51,513.873,588.425Zm-17.685,1.333v-3.305c0-1.856,0-1.835-1.892-1.839-.524,0-.649.154-.644.658.025,2.518.011,5.036.011,7.555,0,1.968,0,1.951,1.971,1.916.454-.008.571-.138.564-.578C496.171,592.7,496.188,591.227,496.188,589.758Zm40.419-1.308a1.261,1.261,0,1,0-1.276,1.227A1.274,1.274,0,0,0,536.606,588.45Zm-61.9,1.227a1.262,1.262,0,1,0-1.248-1.254A1.273,1.273,0,0,0,474.7,589.677Z" transform="translate(-10.923)" fill="#020201"/>
      <path id="Trazado_641443" data-name="Trazado 641443" d="M506.094,682.692c1.012.99,2.041,1.964,3.025,2.981.319.329.577.394.936.138a2.119,2.119,0,0,1,.276-.151,6.975,6.975,0,0,1,2.388-1.126,7.258,7.258,0,0,1,2.475.887.814.814,0,0,1,.528.616c.251.855.544,1.7.8,2.55a.534.534,0,0,0,.606.446q4.258-.026,8.516,0a.534.534,0,0,0,.6-.447c.259-.852.532-1.7.812-2.547.21-.636,2.829-1.694,3.428-1.389.748.38,1.5.746,2.231,1.163a.645.645,0,0,0,.937-.139c.985-1.016,2.014-1.99,3.026-2.98l11.237.033c0,7.707-.017,15.414.009,23.12,0,.725-.188.888-.9.887q-25.648-.031-51.295,0c-.708,0-.9-.162-.9-.887.026-7.707.012-15.414.009-23.12Zm.057,21.487c2.761,0,5.523-.014,8.284.012.513,0,.653-.129.651-.647q-.031-6.942,0-13.884c0-.513-.131-.651-.648-.649q-8.205.028-16.41,0c-.512,0-.653.128-.65.646q.031,6.942,0,13.884c0,.513.13.655.648.65C500.733,704.165,503.442,704.179,506.151,704.179Zm25.262-10.1h12.228c1.752,0,1.716,0,1.765-1.734.019-.664-.164-.81-.815-.808q-12.582.036-25.165.016c-1.838,0-1.809,0-1.843,1.813-.011.6.15.731.735.728C522.683,694.063,527.048,694.075,531.413,694.075Zm.089,10.1h12.149c1.742,0,1.7,0,1.756-1.744.021-.682-.192-.8-.826-.8q-12.582.034-25.165.015c-1.829,0-1.8,0-1.834,1.823-.013.616.18.72.746.717C522.719,704.169,527.111,704.179,531.5,704.179Zm-2.528-5.052H538.6c1.742,0,1.7,0,1.757-1.743.02-.679-.188-.8-.824-.8-6.7.025-13.409.015-20.114.015-1.829,0-1.8,0-1.835,1.822-.012.614.176.722.744.718C521.875,699.114,525.425,699.127,528.974,699.127Zm16.414-1.225c0-1.3,0-1.3-1.3-1.3-1.222,0-1.222,0-1.222,1.225,0,1.3,0,1.3,1.3,1.3C545.388,699.127,545.388,699.127,545.388,697.9Z" transform="translate(-27.282 -79.135)" fill="#83d3ef"/>
      <path id="Trazado_641444" data-name="Trazado 641444" d="M525.71,682.681c.631,0,1.266.034,1.893-.023.557-.051.625.185.624.664q-.021,9.153-.01,18.306c0,3.156.012,6.313-.012,9.469,0,.511.123.664.644.648,1.288-.039,2.577-.018,3.866-.008.228,0,.568-.134.554.32-.07,2.389.231,4.8-.148,7.167a6.12,6.12,0,0,1-6.025,5.125c-4.024.038-8.049.015-12.073.015q-26.672,0-53.344,0a6.348,6.348,0,0,1-6.482-4.6,7.385,7.385,0,0,1-.246-2.106c.01-1.789.017-3.577-.006-5.365-.006-.441.111-.583.564-.572,1.262.03,2.526-.025,3.787.026.6.025.727-.145.725-.73-.021-9.153-.007-18.306-.029-27.459,0-.674.1-1,.867-.9a13.167,13.167,0,0,0,1.655.024c.007.289.019.578.019.867q0,13.734-.008,27.468c0,.486.023.733.644.733q30.943-.028,61.886,0c.517,0,.652-.137.648-.65-.025-2.789-.014-5.578-.012-8.367Q525.7,692.7,525.71,682.681Zm-31.594,39.156h1.341q15.624,0,31.249,0a3.783,3.783,0,0,0,4.036-4.054c0-.973-.027-1.947.012-2.919.02-.5-.145-.612-.623-.612q-12.271.021-24.541,0a.85.85,0,0,0-.886.582c-.624,1.3-1.3,2.581-1.916,3.885a.9.9,0,0,1-.947.61q-7.733-.031-15.466,0a.9.9,0,0,1-.942-.618c-.587-1.232-1.241-2.434-1.81-3.675a1.148,1.148,0,0,0-1.235-.791c-2.709.044-5.418.019-8.128.019-5.34,0-10.679.011-16.019-.015-.629,0-.814.168-.774.784.053.812.013,1.63.013,2.445,0,2.9,1.461,4.363,4.36,4.363Zm8.032-7.547H486.076c.387.784.751,1.5,1.1,2.23.131.277.352.267.593.267q6.349,0,12.7,0c.242,0,.461.007.591-.27C501.4,715.79,501.762,715.072,502.148,714.29Z" transform="translate(-0.005 -79.098)" fill="#010101"/>
      <path id="Trazado_641445" data-name="Trazado 641445" d="M542.065,682.773q-.01,10.024-.019,20.047c0,2.789-.014,5.578.012,8.367,0,.513-.13.65-.648.65q-30.943-.02-61.886,0c-.621,0-.645-.247-.644-.733q.017-13.734.008-27.468c0-.289-.012-.578-.019-.867h2.565q-.009,11.72-.019,23.439c0,2.2.895,3.087,3.124,3.087h35.044q8.6,0,17.206,0a2.5,2.5,0,0,0,2.723-2.532q.012-12-.012-23.992Z" transform="translate(-16.36 -79.19)" fill="#cbcfd6"/>
      <path id="Trazado_641446" data-name="Trazado 641446" d="M545,682.773q.01,12,.012,23.992a2.5,2.5,0,0,1-2.723,2.532q-8.6.01-17.206,0H490.041c-2.229,0-3.125-.885-3.124-3.087q.009-11.72.019-23.439l2.5.008c0,7.707.017,15.414-.009,23.12,0,.725.189.888.9.887q25.647-.031,51.295,0c.708,0,.9-.163.9-.887-.026-7.706-.012-15.413-.009-23.12Z" transform="translate(-21.862 -79.19)" fill="#010101"/>
      <path id="Trazado_641447" data-name="Trazado 641447" d="M648.35,655.866c-1.736,0-3.472-.014-5.208.01-.436.006-.568-.1-.573-.557-.024-1.98-.041-1.98,1.9-1.98,3.025,0,6.05-.007,9.075.008a.842.842,0,0,0,.9-.526,3.666,3.666,0,0,1,4.26-1.871,3.772,3.772,0,0,1-.064,7.318,3.667,3.667,0,0,1-4.192-1.874.842.842,0,0,0-.889-.538C651.822,655.881,650.086,655.866,648.35,655.866ZM659,654.633a1.262,1.262,0,1,0-1.272,1.231A1.274,1.274,0,0,0,659,654.633Z" transform="translate(-128.265 -57.346)" fill="#010101"/>
      <path id="Trazado_641448" data-name="Trazado 641448" d="M648.452,597.443c1.71,0,3.419-.01,5.129.008a.786.786,0,0,0,.843-.484,3.658,3.658,0,0,1,4.237-1.923,3.772,3.772,0,0,1,.027,7.318,3.648,3.648,0,0,1-4.248-1.894.838.838,0,0,0-.91-.5c-3.42.011-6.839-.006-10.258.019-.532,0-.71-.1-.7-.671.027-1.868,0-1.868,1.859-1.868Zm9.314,2.524a1.262,1.262,0,1,0-1.284-1.218A1.274,1.274,0,0,0,657.766,599.968Z" transform="translate(-128.268 -19.132)" fill="#010101"/>
      <path id="Trazado_641449" data-name="Trazado 641449" d="M468.071,655.87c-1.684,0-3.367.017-5.05-.011a.89.89,0,0,0-.964.546,3.672,3.672,0,0,1-4.2,1.865,3.773,3.773,0,0,1-.048-7.319,3.665,3.665,0,0,1,4.219,1.813.951.951,0,0,0,1.019.588c3.367-.019,6.734,0,10.1-.021.563,0,.815.066.8.737-.051,1.8-.013,1.8-1.852,1.8Zm-9.272-2.525a1.262,1.262,0,1,0,1.231,1.271A1.272,1.272,0,0,0,458.8,653.346Z" transform="translate(-0.031 -57.35)" fill="#010101"/>
      <path id="Trazado_641450" data-name="Trazado 641450" d="M467.975,599.977c-1.657,0-3.314.018-4.971-.011a.947.947,0,0,0-1.011.6,3.688,3.688,0,0,1-4.6,1.676,3.778,3.778,0,0,1,1.466-7.312,3.571,3.571,0,0,1,3.174,2,.846.846,0,0,0,.894.53c3.419-.016,6.839.008,10.259-.024.591-.005.739.138.727.728-.036,1.814-.008,1.814-1.834,1.814ZM460,598.682a1.261,1.261,0,1,0-1.211,1.292A1.272,1.272,0,0,0,460,598.682Z" transform="translate(0 -19.138)" fill="#010101"/>
      <path id="Trazado_641451" data-name="Trazado 641451" d="M541.544,590.057c0-3.131-.014-6.261.014-9.392,0-.547-.123-.705-.685-.7q-3.117.055-6.235,0c-.561-.01-.688.146-.686.694.021,6.235,0,12.47.033,18.7,0,.715-.191.862-.864.842-1.68-.05-1.681-.015-1.681-1.661,0-3.446-.01-6.893.011-10.339,0-.495-.1-.67-.637-.662-2.1.034-4.21.03-6.314,0-.51-.007-.656.125-.652.646q.035,5.642,0,11.285c0,.239.263.712-.309.7-.425-.007-1,.24-1.117-.494-.008-.051-.052-.1-.057-.146-.149-1.623-1.215-2.286-2.667-2.5-.752-.113-.942-.5-.908-1.23.065-1.418.034-2.841.01-4.261-.007-.413.1-.642.532-.7a3.337,3.337,0,0,0,3.214-3.08,1.829,1.829,0,0,1,.37-.862,2.524,2.524,0,0,0-.109-3.452c-.523-.684-.35-1.157.262-1.705,1.017-.912,1.964-1.9,2.909-2.893.314-.329.583-.405.939-.133a3.256,3.256,0,0,0,4.313.128,2.623,2.623,0,0,1,1.164-.457,2.323,2.323,0,0,0,2.089-2.12c.307-1.364.4-1.343,1.817-1.343,1.263,0,2.526.016,3.788-.009.414-.008.642.105.7.533a3.331,3.331,0,0,0,3.081,3.21,1.753,1.753,0,0,1,.789.341,2.612,2.612,0,0,0,3.527-.073c.666-.523,1.152-.367,1.7.253.909,1.02,1.9,1.965,2.893,2.909.33.315.409.583.131.938a3.248,3.248,0,0,0-.128,4.314,2.888,2.888,0,0,1,.507,1.312c.138,1.179.861,1.625,1.916,1.9,1.511.392,1.5.447,1.5,2.02,0,1.21-.016,2.421.009,3.63.009.414-.1.653-.532.7-.076.008-.145.071-.221.082a2.921,2.921,0,0,0-2.878,2.7c-.085.738-.689.484-1.112.489-.57.007-.3-.467-.3-.706-.018-4.578-.028-9.155,0-13.732,0-.61-.161-.732-.736-.722-2.051.036-4.1.042-6.156,0-.614-.013-.722.175-.719.743.024,4.525,0,9.05.028,13.575,0,.644-.082.907-.828.878-1.71-.067-1.712-.02-1.712-1.714Z" transform="translate(-43.647 -5.463)" fill="#f4d67e"/>
      <path id="Trazado_641452" data-name="Trazado 641452" d="M545.709,662.643c4.469,0,8.939.008,13.408-.011a1.011,1.011,0,0,1,1.084.63c.944,1.914.966,1.9-.523,3.392-.725.725-1.465,1.436-2.171,2.178-.278.292-.517.412-.867.145a3.333,3.333,0,0,0-4.449-.1,2.515,2.515,0,0,1-1.172.433c-1.226.151-1.71.9-1.986,2.024-.351,1.429-.422,1.412-1.923,1.412-1.209,0-2.419-.015-3.628.008-.418.008-.71-.039-.776-.534a3.278,3.278,0,0,0-3-3.182,2.1,2.1,0,0,1-1-.43,2.42,2.42,0,0,0-3.31.1c-.727.544-1.241.409-1.835-.272-.879-1.008-1.863-1.927-2.832-2.853-.322-.308-.3-.53-.164-.943.538-1.594,1.48-2.137,3.244-2.057C537.764,662.766,541.739,662.643,545.709,662.643Z" transform="translate(-51.631 -65.385)" fill="#f4d67e"/>
      <path id="Trazado_641453" data-name="Trazado 641453" d="M574.726,607.636c0-2.705.013-5.41-.012-8.115,0-.508.125-.658.647-.657,1.889,0,1.889-.017,1.889,1.846,0,5.043-.01,10.085.014,15.127,0,.582-.13.749-.729.739-1.81-.032-1.81,0-1.81-1.848Z" transform="translate(-81.882 -21.829)" fill="#ee8774"/>
      <path id="Trazado_641454" data-name="Trazado 641454" d="M606.672,621.151c0-1.916.011-3.832-.009-5.748,0-.423.087-.58.553-.589,1.981-.039,1.981-.057,1.981,1.909,0,3.359-.009,6.719.01,10.078,0,.488-.091.671-.633.67-1.9-.005-1.9.019-1.9-1.911Z" transform="translate(-103.723 -32.725)" fill="#ee8774"/>
      <path id="Trazado_641455" data-name="Trazado 641455" d="M545.312,627.96c0,1.469-.016,2.938.009,4.407.008.44-.11.57-.564.578-1.971.035-1.971.052-1.971-1.916,0-2.518.014-5.036-.011-7.555,0-.5.12-.659.644-.658,1.892,0,1.892-.017,1.892,1.839Z" transform="translate(-60.048 -38.202)" fill="#ee8774"/>
      <path id="Trazado_641456" data-name="Trazado 641456" d="M673.094,632.141a1.261,1.261,0,1,1-1.207-1.3A1.274,1.274,0,0,1,673.094,632.141Z" transform="translate(-147.411 -43.691)" fill="#e3816e"/>
      <path id="Trazado_641457" data-name="Trazado 641457" d="M480.186,633.368a1.262,1.262,0,1,1,1.273-1.229A1.272,1.272,0,0,1,480.186,633.368Z" transform="translate(-16.408 -43.691)" fill="#e3816e"/>
      <path id="Trazado_641458" data-name="Trazado 641458" d="M511.622,717.832c-2.709,0-5.417-.014-8.126.012-.517.005-.65-.137-.648-.65q.03-6.942,0-13.884c0-.518.139-.648.65-.646q8.2.028,16.41,0c.517,0,.65.136.648.649q-.03,6.942,0,13.884c0,.518-.138.652-.651.647C517.144,717.819,514.383,717.832,511.622,717.832ZM511.7,705.2c-1.892,0-3.785.019-5.677-.012-.514-.008-.656.131-.652.649q.038,4.414,0,8.83c0,.516.136.653.65.65q5.676-.033,11.353,0c.513,0,.656-.131.651-.649q-.038-4.415,0-8.83c0-.516-.135-.658-.651-.65C515.487,705.22,513.595,705.2,511.7,705.2Z" transform="translate(-32.753 -92.788)"/>
      <path id="Trazado_641459" data-name="Trazado 641459" d="M580.542,713.177c-4.365,0-8.73-.012-13.1.015-.585,0-.746-.131-.735-.728.034-1.813.005-1.813,1.843-1.813q12.583,0,25.165-.016c.651,0,.834.144.815.808-.049,1.733-.014,1.734-1.765,1.734Z" transform="translate(-76.411 -98.237)"/>
      <path id="Trazado_641460" data-name="Trazado 641460" d="M580.628,745.116c-4.391,0-8.783-.011-13.174.013-.566,0-.759-.1-.746-.717.037-1.822.005-1.823,1.834-1.823q12.582,0,25.165-.015c.634,0,.846.115.826.8-.052,1.743-.015,1.744-1.756,1.744Z" transform="translate(-76.408 -120.071)"/>
      <path id="Trazado_641461" data-name="Trazado 641461" d="M578.1,729.147c-3.549,0-7.1-.013-10.648.014-.568,0-.756-.1-.744-.718.036-1.821.005-1.822,1.835-1.822,6.7,0,13.409.01,20.114-.015.636,0,.844.119.824.8-.052,1.742-.015,1.743-1.757,1.743Z" transform="translate(-76.409 -109.155)"/>
      <path id="Trazado_641462" data-name="Trazado 641462" d="M649.139,727.955c0,1.225,0,1.225-1.222,1.225-1.3,0-1.3,0-1.3-1.3,0-1.225,0-1.225,1.222-1.225C649.139,726.654,649.139,726.654,649.139,727.955Z" transform="translate(-131.033 -109.188)"/>
      <path id="Trazado_641463" data-name="Trazado 641463" d="M499.558,790.12H467.283c-2.9,0-4.359-1.464-4.36-4.363,0-.815.04-1.634-.013-2.445-.04-.616.145-.787.774-.784,5.339.026,10.679.015,16.019.015,2.71,0,5.419.026,8.128-.019a1.148,1.148,0,0,1,1.235.791c.569,1.241,1.223,2.442,1.81,3.675a.9.9,0,0,0,.942.619q7.733-.033,15.466,0a.9.9,0,0,0,.947-.61c.619-1.3,1.292-2.583,1.916-3.885a.85.85,0,0,1,.886-.582q12.271.027,24.541,0c.479,0,.643.115.623.612-.039.972-.008,1.946-.012,2.919a3.783,3.783,0,0,1-4.036,4.055q-15.625.01-31.249,0Zm20.17-5.055c-1.227,0-1.227,0-1.227,1.163,0,1.364,0,1.364,1.339,1.364,1.188,0,1.188,0,1.188-1.2C521.028,785.065,521.028,785.065,519.728,785.065Zm5.045,2.527c1.306,0,1.306,0,1.307-.923,0-1.6,0-1.6-.944-1.6-1.582,0-1.582,0-1.583.966C523.553,787.592,523.553,787.592,524.773,787.592Zm5.055,0c1.3,0,1.3,0,1.3-.925,0-1.6,0-1.6-.946-1.6-1.58,0-1.58,0-1.581.968C528.605,787.592,528.605,787.592,529.828,787.592Z" transform="translate(-5.447 -147.38)" fill="#969ea8"/>
      <path id="Trazado_641464" data-name="Trazado 641464" d="M569.415,782.679c-.386.782-.75,1.5-1.094,2.228-.131.276-.35.27-.591.27q-6.349,0-12.7,0c-.241,0-.462.01-.593-.267-.344-.728-.708-1.446-1.1-2.23Z" transform="translate(-67.272 -147.487)" fill="#f2d47d"/>
      <path id="Trazado_641465" data-name="Trazado 641465" d="M689.063,660.082a1.262,1.262,0,1,1-1.211-1.292A1.274,1.274,0,0,1,689.063,660.082Z" transform="translate(-158.327 -62.795)" fill="#e3816e"/>
      <path id="Trazado_641466" data-name="Trazado 641466" d="M687.827,605.422a1.262,1.262,0,1,1,1.237-1.266A1.273,1.273,0,0,1,687.827,605.422Z" transform="translate(-158.328 -24.586)" fill="#e3816e"/>
      <path id="Trazado_641467" data-name="Trazado 641467" d="M464.257,658.792a1.262,1.262,0,1,1-1.29,1.211A1.272,1.272,0,0,1,464.257,658.792Z" transform="translate(-5.489 -62.796)" fill="#e3816e"/>
      <path id="Trazado_641468" data-name="Trazado 641468" d="M465.49,604.134a1.261,1.261,0,1,1-1.272-1.231A1.275,1.275,0,0,1,465.49,604.134Z" transform="translate(-5.49 -24.59)" fill="#e3816e"/>
      <path id="Trazado_641469" data-name="Trazado 641469" d="M517.16,710.658c1.892,0,3.785.019,5.677-.012.515-.009.655.134.651.65q-.038,4.415,0,8.83c0,.518-.139.651-.651.649q-5.677-.033-11.353,0c-.515,0-.655-.134-.65-.65q.037-4.414,0-8.83c0-.518.138-.657.652-.649C513.375,710.677,515.268,710.658,517.16,710.658Z" transform="translate(-38.211 -98.244)" fill="#bbda89"/>
      <path id="Trazado_641470" data-name="Trazado 641470" d="M639.855,790.557c1.3,0,1.3,0,1.3,1.328,0,1.2,0,1.2-1.188,1.2-1.339,0-1.339,0-1.339-1.364C638.628,790.557,638.628,790.557,639.855,790.557Z" transform="translate(-125.574 -152.873)" fill="#010101"/>
      <path id="Trazado_641471" data-name="Trazado 641471" d="M655.817,793.084c-1.221,0-1.221,0-1.22-1.561,0-.967,0-.967,1.583-.966.945,0,.945,0,.944,1.6C657.123,793.084,657.123,793.084,655.817,793.084Z" transform="translate(-136.491 -152.873)" fill="#010101"/>
      <path id="Trazado_641472" data-name="Trazado 641472" d="M671.789,793.084c-1.223,0-1.223,0-1.222-1.56,0-.968,0-.968,1.581-.968.947,0,.947,0,.946,1.6C673.093,793.084,673.093,793.084,671.789,793.084Z" transform="translate(-147.408 -152.873)" fill="#010101"/>
    </g>
  </g>
</svg>
